%TF.GenerationSoftware,KiCad,Pcbnew,7.0.9*%
%TF.CreationDate,2023-12-25T19:05:14+05:30*%
%TF.ProjectId,Led_8x8Tower_Base,4c65645f-3878-4385-946f-7765725f4261,rev?*%
%TF.SameCoordinates,Original*%
%TF.FileFunction,Copper,L2,Bot*%
%TF.FilePolarity,Positive*%
%FSLAX46Y46*%
G04 Gerber Fmt 4.6, Leading zero omitted, Abs format (unit mm)*
G04 Created by KiCad (PCBNEW 7.0.9) date 2023-12-25 19:05:14*
%MOMM*%
%LPD*%
G01*
G04 APERTURE LIST*
%TA.AperFunction,ViaPad*%
%ADD10C,1.500000*%
%TD*%
%TA.AperFunction,ViaPad*%
%ADD11C,1.000000*%
%TD*%
G04 APERTURE END LIST*
D10*
%TO.N,*%
X154000000Y-170000000D03*
X150000000Y-160000000D03*
X150000000Y-140000000D03*
X150000000Y-20000000D03*
X156000000Y-170000000D03*
X158000000Y-170000000D03*
X150000000Y-120000000D03*
X164000000Y-170000000D03*
X150000000Y-100000000D03*
X150000000Y-40000000D03*
X152000000Y-170000000D03*
X160000000Y-170000000D03*
X150000000Y-170000000D03*
X162000000Y-170000000D03*
X150000000Y-60000000D03*
X150000000Y-80000000D03*
X130000000Y-160000000D03*
X130000000Y-20000000D03*
X190000000Y-40000000D03*
X178000000Y-170000000D03*
X170000000Y-40000000D03*
X202000000Y-170000000D03*
X190000000Y-80000000D03*
X170000000Y-20000000D03*
X172000000Y-170000000D03*
X176000000Y-170000000D03*
X170000000Y-100000000D03*
X190000000Y-170000000D03*
X198000000Y-170000000D03*
X170000000Y-170000000D03*
X170000000Y-60000000D03*
X194000000Y-170000000D03*
X190000000Y-120000000D03*
X170000000Y-140000000D03*
X204000000Y-170000000D03*
X190000000Y-140000000D03*
X190000000Y-60000000D03*
X170000000Y-160000000D03*
X180000000Y-170000000D03*
X184000000Y-170000000D03*
X174000000Y-170000000D03*
X170000000Y-120000000D03*
X170000000Y-80000000D03*
X190000000Y-160000000D03*
X190000000Y-20000000D03*
X192000000Y-170000000D03*
X196000000Y-170000000D03*
X190000000Y-100000000D03*
X200000000Y-170000000D03*
X182000000Y-170000000D03*
X132000000Y-170000000D03*
X136000000Y-170000000D03*
X130000000Y-170000000D03*
X134000000Y-170000000D03*
X138000000Y-170000000D03*
X130000000Y-120000000D03*
X140000000Y-170000000D03*
X144000000Y-170000000D03*
X130000000Y-140000000D03*
X142000000Y-170000000D03*
X130000000Y-40000000D03*
X130000000Y-100000000D03*
X130000000Y-80000000D03*
X130000000Y-60000000D03*
X110000000Y-160000000D03*
X110000000Y-20000000D03*
X112000000Y-170000000D03*
X116000000Y-170000000D03*
X110000000Y-170000000D03*
X114000000Y-170000000D03*
X118000000Y-170000000D03*
X110000000Y-120000000D03*
X120000000Y-170000000D03*
X124000000Y-170000000D03*
X110000000Y-140000000D03*
X122000000Y-170000000D03*
X110000000Y-40000000D03*
X110000000Y-100000000D03*
X110000000Y-80000000D03*
X110000000Y-60000000D03*
X90000000Y-160000000D03*
X90000000Y-20000000D03*
X92000000Y-170000000D03*
X96000000Y-170000000D03*
X90000000Y-170000000D03*
X94000000Y-170000000D03*
X98000000Y-170000000D03*
X90000000Y-120000000D03*
X100000000Y-170000000D03*
X104000000Y-170000000D03*
X90000000Y-140000000D03*
X102000000Y-170000000D03*
X90000000Y-40000000D03*
X90000000Y-100000000D03*
X90000000Y-80000000D03*
X90000000Y-60000000D03*
X70000000Y-160000000D03*
X70000000Y-20000000D03*
X72000000Y-170000000D03*
X76000000Y-170000000D03*
X70000000Y-170000000D03*
X74000000Y-170000000D03*
X78000000Y-170000000D03*
X70000000Y-120000000D03*
X80000000Y-170000000D03*
X84000000Y-170000000D03*
X70000000Y-140000000D03*
X82000000Y-170000000D03*
X70000000Y-40000000D03*
X70000000Y-100000000D03*
X70000000Y-80000000D03*
X70000000Y-60000000D03*
X60000000Y-170000000D03*
X64000000Y-170000000D03*
X62000000Y-170000000D03*
X58000000Y-170000000D03*
X50000000Y-140000000D03*
X50000000Y-120000000D03*
X50000000Y-100000000D03*
X50000000Y-80000000D03*
X50000000Y-60000000D03*
X50000000Y-40000000D03*
X56000000Y-170000000D03*
X54000000Y-170000000D03*
X52000000Y-170000000D03*
X50000000Y-170000000D03*
X50000000Y-160000000D03*
D11*
X10000000Y-100000000D03*
X10000000Y-80000000D03*
X10000000Y-60000000D03*
D10*
X50000000Y-20000000D03*
%TD*%
M02*
