%TF.GenerationSoftware,KiCad,Pcbnew,7.0.9*%
%TF.CreationDate,2024-01-01T16:10:21+05:30*%
%TF.ProjectId,Led_8x8Tower_Base,4c65645f-3878-4385-946f-7765725f4261,rev?*%
%TF.SameCoordinates,Original*%
%TF.FileFunction,Drillmap*%
%TF.FilePolarity,Positive*%
%FSLAX45Y45*%
G04 Gerber Fmt 4.5, Leading zero omitted, Abs format (unit mm)*
G04 Created by KiCad (PCBNEW 7.0.9) date 2024-01-01 16:10:21*
%MOMM*%
%LPD*%
G01*
G04 APERTURE LIST*
%ADD10C,0.100000*%
%ADD11C,0.200000*%
G04 APERTURE END LIST*
D10*
X4600000Y-1500000D02*
X4600000Y-16900000D01*
X4600000Y-16900000D02*
X21000000Y-16900000D01*
X21000000Y-16900000D02*
X21000000Y-1500000D01*
X21000000Y-1500000D02*
X4600000Y-1500000D01*
D11*
D10*
X4980000Y-16480000D02*
X5020000Y-16520000D01*
X5020000Y-16480000D02*
X4980000Y-16520000D01*
X5180000Y-16480000D02*
X5220000Y-16520000D01*
X5220000Y-16480000D02*
X5180000Y-16520000D01*
X5380000Y-16480000D02*
X5420000Y-16520000D01*
X5420000Y-16480000D02*
X5380000Y-16520000D01*
X5580000Y-16480000D02*
X5620000Y-16520000D01*
X5620000Y-16480000D02*
X5580000Y-16520000D01*
X5780000Y-16480000D02*
X5820000Y-16520000D01*
X5820000Y-16480000D02*
X5780000Y-16520000D01*
X5980000Y-16480000D02*
X6020000Y-16520000D01*
X6020000Y-16480000D02*
X5980000Y-16520000D01*
X6180000Y-16480000D02*
X6220000Y-16520000D01*
X6220000Y-16480000D02*
X6180000Y-16520000D01*
X6380000Y-16480000D02*
X6420000Y-16520000D01*
X6420000Y-16480000D02*
X6380000Y-16520000D01*
X6980000Y-16480000D02*
X7020000Y-16520000D01*
X7020000Y-16480000D02*
X6980000Y-16520000D01*
X7180000Y-16480000D02*
X7220000Y-16520000D01*
X7220000Y-16480000D02*
X7180000Y-16520000D01*
X7380000Y-16480000D02*
X7420000Y-16520000D01*
X7420000Y-16480000D02*
X7380000Y-16520000D01*
X7580000Y-16480000D02*
X7620000Y-16520000D01*
X7620000Y-16480000D02*
X7580000Y-16520000D01*
X7780000Y-16480000D02*
X7820000Y-16520000D01*
X7820000Y-16480000D02*
X7780000Y-16520000D01*
X7980000Y-16480000D02*
X8020000Y-16520000D01*
X8020000Y-16480000D02*
X7980000Y-16520000D01*
X8180000Y-16480000D02*
X8220000Y-16520000D01*
X8220000Y-16480000D02*
X8180000Y-16520000D01*
X8380000Y-16480000D02*
X8420000Y-16520000D01*
X8420000Y-16480000D02*
X8380000Y-16520000D01*
X8980000Y-16480000D02*
X9020000Y-16520000D01*
X9020000Y-16480000D02*
X8980000Y-16520000D01*
X9180000Y-16480000D02*
X9220000Y-16520000D01*
X9220000Y-16480000D02*
X9180000Y-16520000D01*
X9380000Y-16480000D02*
X9420000Y-16520000D01*
X9420000Y-16480000D02*
X9380000Y-16520000D01*
X9580000Y-16480000D02*
X9620000Y-16520000D01*
X9620000Y-16480000D02*
X9580000Y-16520000D01*
X9780000Y-16480000D02*
X9820000Y-16520000D01*
X9820000Y-16480000D02*
X9780000Y-16520000D01*
X9980000Y-16480000D02*
X10020000Y-16520000D01*
X10020000Y-16480000D02*
X9980000Y-16520000D01*
X10180000Y-16480000D02*
X10220000Y-16520000D01*
X10220000Y-16480000D02*
X10180000Y-16520000D01*
X10380000Y-16480000D02*
X10420000Y-16520000D01*
X10420000Y-16480000D02*
X10380000Y-16520000D01*
X10980000Y-16480000D02*
X11020000Y-16520000D01*
X11020000Y-16480000D02*
X10980000Y-16520000D01*
X11180000Y-16480000D02*
X11220000Y-16520000D01*
X11220000Y-16480000D02*
X11180000Y-16520000D01*
X11380000Y-16480000D02*
X11420000Y-16520000D01*
X11420000Y-16480000D02*
X11380000Y-16520000D01*
X11580000Y-16480000D02*
X11620000Y-16520000D01*
X11620000Y-16480000D02*
X11580000Y-16520000D01*
X11780000Y-16480000D02*
X11820000Y-16520000D01*
X11820000Y-16480000D02*
X11780000Y-16520000D01*
X11980000Y-16480000D02*
X12020000Y-16520000D01*
X12020000Y-16480000D02*
X11980000Y-16520000D01*
X12180000Y-16480000D02*
X12220000Y-16520000D01*
X12220000Y-16480000D02*
X12180000Y-16520000D01*
X12380000Y-16480000D02*
X12420000Y-16520000D01*
X12420000Y-16480000D02*
X12380000Y-16520000D01*
X12980000Y-16480000D02*
X13020000Y-16520000D01*
X13020000Y-16480000D02*
X12980000Y-16520000D01*
X13180000Y-16480000D02*
X13220000Y-16520000D01*
X13220000Y-16480000D02*
X13180000Y-16520000D01*
X13380000Y-16480000D02*
X13420000Y-16520000D01*
X13420000Y-16480000D02*
X13380000Y-16520000D01*
X13580000Y-16480000D02*
X13620000Y-16520000D01*
X13620000Y-16480000D02*
X13580000Y-16520000D01*
X13780000Y-16480000D02*
X13820000Y-16520000D01*
X13820000Y-16480000D02*
X13780000Y-16520000D01*
X13980000Y-16480000D02*
X14020000Y-16520000D01*
X14020000Y-16480000D02*
X13980000Y-16520000D01*
X14180000Y-16480000D02*
X14220000Y-16520000D01*
X14220000Y-16480000D02*
X14180000Y-16520000D01*
X14380000Y-16480000D02*
X14420000Y-16520000D01*
X14420000Y-16480000D02*
X14380000Y-16520000D01*
X14980000Y-16480000D02*
X15020000Y-16520000D01*
X15020000Y-16480000D02*
X14980000Y-16520000D01*
X15180000Y-16480000D02*
X15220000Y-16520000D01*
X15220000Y-16480000D02*
X15180000Y-16520000D01*
X15380000Y-16480000D02*
X15420000Y-16520000D01*
X15420000Y-16480000D02*
X15380000Y-16520000D01*
X15580000Y-16480000D02*
X15620000Y-16520000D01*
X15620000Y-16480000D02*
X15580000Y-16520000D01*
X15780000Y-16480000D02*
X15820000Y-16520000D01*
X15820000Y-16480000D02*
X15780000Y-16520000D01*
X15980000Y-16480000D02*
X16020000Y-16520000D01*
X16020000Y-16480000D02*
X15980000Y-16520000D01*
X16180000Y-16480000D02*
X16220000Y-16520000D01*
X16220000Y-16480000D02*
X16180000Y-16520000D01*
X16380000Y-16480000D02*
X16420000Y-16520000D01*
X16420000Y-16480000D02*
X16380000Y-16520000D01*
X16980000Y-16480000D02*
X17020000Y-16520000D01*
X17020000Y-16480000D02*
X16980000Y-16520000D01*
X17180000Y-16480000D02*
X17220000Y-16520000D01*
X17220000Y-16480000D02*
X17180000Y-16520000D01*
X17380000Y-16480000D02*
X17420000Y-16520000D01*
X17420000Y-16480000D02*
X17380000Y-16520000D01*
X17580000Y-16480000D02*
X17620000Y-16520000D01*
X17620000Y-16480000D02*
X17580000Y-16520000D01*
X17780000Y-16480000D02*
X17820000Y-16520000D01*
X17820000Y-16480000D02*
X17780000Y-16520000D01*
X17980000Y-16480000D02*
X18020000Y-16520000D01*
X18020000Y-16480000D02*
X17980000Y-16520000D01*
X18180000Y-16480000D02*
X18220000Y-16520000D01*
X18220000Y-16480000D02*
X18180000Y-16520000D01*
X18380000Y-16480000D02*
X18420000Y-16520000D01*
X18420000Y-16480000D02*
X18380000Y-16520000D01*
X18980000Y-16480000D02*
X19020000Y-16520000D01*
X19020000Y-16480000D02*
X18980000Y-16520000D01*
X19180000Y-16480000D02*
X19220000Y-16520000D01*
X19220000Y-16480000D02*
X19180000Y-16520000D01*
X19380000Y-16480000D02*
X19420000Y-16520000D01*
X19420000Y-16480000D02*
X19380000Y-16520000D01*
X19580000Y-16480000D02*
X19620000Y-16520000D01*
X19620000Y-16480000D02*
X19580000Y-16520000D01*
X19780000Y-16480000D02*
X19820000Y-16520000D01*
X19820000Y-16480000D02*
X19780000Y-16520000D01*
X19980000Y-16480000D02*
X20020000Y-16520000D01*
X20020000Y-16480000D02*
X19980000Y-16520000D01*
X20180000Y-16480000D02*
X20220000Y-16520000D01*
X20220000Y-16480000D02*
X20180000Y-16520000D01*
X20380000Y-16480000D02*
X20420000Y-16520000D01*
X20420000Y-16480000D02*
X20380000Y-16520000D01*
X20680000Y-12980000D02*
X20720000Y-13020000D01*
X20720000Y-12980000D02*
X20680000Y-13020000D01*
X20680000Y-13180000D02*
X20720000Y-13220000D01*
X20720000Y-13180000D02*
X20680000Y-13220000D01*
X20680000Y-13380000D02*
X20720000Y-13420000D01*
X20720000Y-13380000D02*
X20680000Y-13420000D01*
X20680000Y-13580000D02*
X20720000Y-13620000D01*
X20720000Y-13580000D02*
X20680000Y-13620000D01*
X20680000Y-13780000D02*
X20720000Y-13820000D01*
X20720000Y-13780000D02*
X20680000Y-13820000D01*
X20680000Y-13980000D02*
X20720000Y-14020000D01*
X20720000Y-13980000D02*
X20680000Y-14020000D01*
X20680000Y-14180000D02*
X20720000Y-14220000D01*
X20720000Y-14180000D02*
X20680000Y-14220000D01*
X20680000Y-14380000D02*
X20720000Y-14420000D01*
X20720000Y-14380000D02*
X20680000Y-14420000D01*
X20680000Y-14580000D02*
X20720000Y-14620000D01*
X20720000Y-14580000D02*
X20680000Y-14620000D01*
X20680000Y-14780000D02*
X20720000Y-14820000D01*
X20720000Y-14780000D02*
X20680000Y-14820000D01*
X20680000Y-14980000D02*
X20720000Y-15020000D01*
X20720000Y-14980000D02*
X20680000Y-15020000D01*
X20680000Y-15180000D02*
X20720000Y-15220000D01*
X20720000Y-15180000D02*
X20680000Y-15220000D01*
X20680000Y-15380000D02*
X20720000Y-15420000D01*
X20720000Y-15380000D02*
X20680000Y-15420000D01*
X20680000Y-15580000D02*
X20720000Y-15620000D01*
X20720000Y-15580000D02*
X20680000Y-15620000D01*
X20680000Y-15780000D02*
X20720000Y-15820000D01*
X20720000Y-15780000D02*
X20680000Y-15820000D01*
X20680000Y-15980000D02*
X20720000Y-16020000D01*
X20720000Y-15980000D02*
X20680000Y-16020000D01*
X5040000Y-2000000D02*
G75*
G03*
X5040000Y-2000000I-40000J0D01*
G01*
X5040000Y-4000000D02*
G75*
G03*
X5040000Y-4000000I-40000J0D01*
G01*
X5040000Y-6000000D02*
G75*
G03*
X5040000Y-6000000I-40000J0D01*
G01*
X5040000Y-8000000D02*
G75*
G03*
X5040000Y-8000000I-40000J0D01*
G01*
X5040000Y-10000000D02*
G75*
G03*
X5040000Y-10000000I-40000J0D01*
G01*
X5040000Y-12000000D02*
G75*
G03*
X5040000Y-12000000I-40000J0D01*
G01*
X5040000Y-14000000D02*
G75*
G03*
X5040000Y-14000000I-40000J0D01*
G01*
X5040000Y-16000000D02*
G75*
G03*
X5040000Y-16000000I-40000J0D01*
G01*
X7040000Y-2000000D02*
G75*
G03*
X7040000Y-2000000I-40000J0D01*
G01*
X7040000Y-4000000D02*
G75*
G03*
X7040000Y-4000000I-40000J0D01*
G01*
X7040000Y-6000000D02*
G75*
G03*
X7040000Y-6000000I-40000J0D01*
G01*
X7040000Y-8000000D02*
G75*
G03*
X7040000Y-8000000I-40000J0D01*
G01*
X7040000Y-10000000D02*
G75*
G03*
X7040000Y-10000000I-40000J0D01*
G01*
X7040000Y-12000000D02*
G75*
G03*
X7040000Y-12000000I-40000J0D01*
G01*
X7040000Y-14000000D02*
G75*
G03*
X7040000Y-14000000I-40000J0D01*
G01*
X7040000Y-16000000D02*
G75*
G03*
X7040000Y-16000000I-40000J0D01*
G01*
X9040000Y-2000000D02*
G75*
G03*
X9040000Y-2000000I-40000J0D01*
G01*
X9040000Y-4000000D02*
G75*
G03*
X9040000Y-4000000I-40000J0D01*
G01*
X9040000Y-6000000D02*
G75*
G03*
X9040000Y-6000000I-40000J0D01*
G01*
X9040000Y-8000000D02*
G75*
G03*
X9040000Y-8000000I-40000J0D01*
G01*
X9040000Y-10000000D02*
G75*
G03*
X9040000Y-10000000I-40000J0D01*
G01*
X9040000Y-12000000D02*
G75*
G03*
X9040000Y-12000000I-40000J0D01*
G01*
X9040000Y-14000000D02*
G75*
G03*
X9040000Y-14000000I-40000J0D01*
G01*
X9040000Y-16000000D02*
G75*
G03*
X9040000Y-16000000I-40000J0D01*
G01*
X11040000Y-2000000D02*
G75*
G03*
X11040000Y-2000000I-40000J0D01*
G01*
X11040000Y-4000000D02*
G75*
G03*
X11040000Y-4000000I-40000J0D01*
G01*
X11040000Y-6000000D02*
G75*
G03*
X11040000Y-6000000I-40000J0D01*
G01*
X11040000Y-8000000D02*
G75*
G03*
X11040000Y-8000000I-40000J0D01*
G01*
X11040000Y-10000000D02*
G75*
G03*
X11040000Y-10000000I-40000J0D01*
G01*
X11040000Y-12000000D02*
G75*
G03*
X11040000Y-12000000I-40000J0D01*
G01*
X11040000Y-14000000D02*
G75*
G03*
X11040000Y-14000000I-40000J0D01*
G01*
X11040000Y-16000000D02*
G75*
G03*
X11040000Y-16000000I-40000J0D01*
G01*
X13040000Y-2000000D02*
G75*
G03*
X13040000Y-2000000I-40000J0D01*
G01*
X13040000Y-4000000D02*
G75*
G03*
X13040000Y-4000000I-40000J0D01*
G01*
X13040000Y-6000000D02*
G75*
G03*
X13040000Y-6000000I-40000J0D01*
G01*
X13040000Y-8000000D02*
G75*
G03*
X13040000Y-8000000I-40000J0D01*
G01*
X13040000Y-10000000D02*
G75*
G03*
X13040000Y-10000000I-40000J0D01*
G01*
X13040000Y-12000000D02*
G75*
G03*
X13040000Y-12000000I-40000J0D01*
G01*
X13040000Y-14000000D02*
G75*
G03*
X13040000Y-14000000I-40000J0D01*
G01*
X13040000Y-16000000D02*
G75*
G03*
X13040000Y-16000000I-40000J0D01*
G01*
X15040000Y-2000000D02*
G75*
G03*
X15040000Y-2000000I-40000J0D01*
G01*
X15040000Y-4000000D02*
G75*
G03*
X15040000Y-4000000I-40000J0D01*
G01*
X15040000Y-6000000D02*
G75*
G03*
X15040000Y-6000000I-40000J0D01*
G01*
X15040000Y-8000000D02*
G75*
G03*
X15040000Y-8000000I-40000J0D01*
G01*
X15040000Y-10000000D02*
G75*
G03*
X15040000Y-10000000I-40000J0D01*
G01*
X15040000Y-12000000D02*
G75*
G03*
X15040000Y-12000000I-40000J0D01*
G01*
X15040000Y-14000000D02*
G75*
G03*
X15040000Y-14000000I-40000J0D01*
G01*
X15040000Y-16000000D02*
G75*
G03*
X15040000Y-16000000I-40000J0D01*
G01*
X17040000Y-2000000D02*
G75*
G03*
X17040000Y-2000000I-40000J0D01*
G01*
X17040000Y-4000000D02*
G75*
G03*
X17040000Y-4000000I-40000J0D01*
G01*
X17040000Y-6000000D02*
G75*
G03*
X17040000Y-6000000I-40000J0D01*
G01*
X17040000Y-8000000D02*
G75*
G03*
X17040000Y-8000000I-40000J0D01*
G01*
X17040000Y-10000000D02*
G75*
G03*
X17040000Y-10000000I-40000J0D01*
G01*
X17040000Y-12000000D02*
G75*
G03*
X17040000Y-12000000I-40000J0D01*
G01*
X17040000Y-14000000D02*
G75*
G03*
X17040000Y-14000000I-40000J0D01*
G01*
X17040000Y-16000000D02*
G75*
G03*
X17040000Y-16000000I-40000J0D01*
G01*
X19040000Y-2000000D02*
G75*
G03*
X19040000Y-2000000I-40000J0D01*
G01*
X19040000Y-4000000D02*
G75*
G03*
X19040000Y-4000000I-40000J0D01*
G01*
X19040000Y-6000000D02*
G75*
G03*
X19040000Y-6000000I-40000J0D01*
G01*
X19040000Y-8000000D02*
G75*
G03*
X19040000Y-8000000I-40000J0D01*
G01*
X19040000Y-10000000D02*
G75*
G03*
X19040000Y-10000000I-40000J0D01*
G01*
X19040000Y-12000000D02*
G75*
G03*
X19040000Y-12000000I-40000J0D01*
G01*
X19040000Y-14000000D02*
G75*
G03*
X19040000Y-14000000I-40000J0D01*
G01*
X19040000Y-16000000D02*
G75*
G03*
X19040000Y-16000000I-40000J0D01*
G01*
D11*
X4855777Y-17216484D02*
X4855777Y-17016484D01*
X4855777Y-17016484D02*
X4903396Y-17016484D01*
X4903396Y-17016484D02*
X4931967Y-17026008D01*
X4931967Y-17026008D02*
X4951015Y-17045055D01*
X4951015Y-17045055D02*
X4960539Y-17064103D01*
X4960539Y-17064103D02*
X4970063Y-17102198D01*
X4970063Y-17102198D02*
X4970063Y-17130770D01*
X4970063Y-17130770D02*
X4960539Y-17168865D01*
X4960539Y-17168865D02*
X4951015Y-17187912D01*
X4951015Y-17187912D02*
X4931967Y-17206960D01*
X4931967Y-17206960D02*
X4903396Y-17216484D01*
X4903396Y-17216484D02*
X4855777Y-17216484D01*
X5055777Y-17216484D02*
X5055777Y-17083150D01*
X5055777Y-17121246D02*
X5065301Y-17102198D01*
X5065301Y-17102198D02*
X5074824Y-17092674D01*
X5074824Y-17092674D02*
X5093872Y-17083150D01*
X5093872Y-17083150D02*
X5112920Y-17083150D01*
X5179586Y-17216484D02*
X5179586Y-17083150D01*
X5179586Y-17016484D02*
X5170063Y-17026008D01*
X5170063Y-17026008D02*
X5179586Y-17035531D01*
X5179586Y-17035531D02*
X5189110Y-17026008D01*
X5189110Y-17026008D02*
X5179586Y-17016484D01*
X5179586Y-17016484D02*
X5179586Y-17035531D01*
X5303396Y-17216484D02*
X5284348Y-17206960D01*
X5284348Y-17206960D02*
X5274824Y-17187912D01*
X5274824Y-17187912D02*
X5274824Y-17016484D01*
X5408158Y-17216484D02*
X5389110Y-17206960D01*
X5389110Y-17206960D02*
X5379586Y-17187912D01*
X5379586Y-17187912D02*
X5379586Y-17016484D01*
X5636729Y-17216484D02*
X5636729Y-17016484D01*
X5636729Y-17016484D02*
X5703396Y-17159341D01*
X5703396Y-17159341D02*
X5770062Y-17016484D01*
X5770062Y-17016484D02*
X5770062Y-17216484D01*
X5951015Y-17216484D02*
X5951015Y-17111722D01*
X5951015Y-17111722D02*
X5941491Y-17092674D01*
X5941491Y-17092674D02*
X5922443Y-17083150D01*
X5922443Y-17083150D02*
X5884348Y-17083150D01*
X5884348Y-17083150D02*
X5865301Y-17092674D01*
X5951015Y-17206960D02*
X5931967Y-17216484D01*
X5931967Y-17216484D02*
X5884348Y-17216484D01*
X5884348Y-17216484D02*
X5865301Y-17206960D01*
X5865301Y-17206960D02*
X5855777Y-17187912D01*
X5855777Y-17187912D02*
X5855777Y-17168865D01*
X5855777Y-17168865D02*
X5865301Y-17149817D01*
X5865301Y-17149817D02*
X5884348Y-17140293D01*
X5884348Y-17140293D02*
X5931967Y-17140293D01*
X5931967Y-17140293D02*
X5951015Y-17130770D01*
X6046253Y-17083150D02*
X6046253Y-17283150D01*
X6046253Y-17092674D02*
X6065301Y-17083150D01*
X6065301Y-17083150D02*
X6103396Y-17083150D01*
X6103396Y-17083150D02*
X6122443Y-17092674D01*
X6122443Y-17092674D02*
X6131967Y-17102198D01*
X6131967Y-17102198D02*
X6141491Y-17121246D01*
X6141491Y-17121246D02*
X6141491Y-17178389D01*
X6141491Y-17178389D02*
X6131967Y-17197436D01*
X6131967Y-17197436D02*
X6122443Y-17206960D01*
X6122443Y-17206960D02*
X6103396Y-17216484D01*
X6103396Y-17216484D02*
X6065301Y-17216484D01*
X6065301Y-17216484D02*
X6046253Y-17206960D01*
X6227205Y-17197436D02*
X6236729Y-17206960D01*
X6236729Y-17206960D02*
X6227205Y-17216484D01*
X6227205Y-17216484D02*
X6217682Y-17206960D01*
X6217682Y-17206960D02*
X6227205Y-17197436D01*
X6227205Y-17197436D02*
X6227205Y-17216484D01*
X6227205Y-17092674D02*
X6236729Y-17102198D01*
X6236729Y-17102198D02*
X6227205Y-17111722D01*
X6227205Y-17111722D02*
X6217682Y-17102198D01*
X6217682Y-17102198D02*
X6227205Y-17092674D01*
X6227205Y-17092674D02*
X6227205Y-17111722D01*
D10*
X4555000Y-17525000D02*
X4595000Y-17565000D01*
X4595000Y-17525000D02*
X4555000Y-17565000D01*
D11*
X4893872Y-17436484D02*
X4912920Y-17436484D01*
X4912920Y-17436484D02*
X4931967Y-17446008D01*
X4931967Y-17446008D02*
X4941491Y-17455531D01*
X4941491Y-17455531D02*
X4951015Y-17474579D01*
X4951015Y-17474579D02*
X4960539Y-17512674D01*
X4960539Y-17512674D02*
X4960539Y-17560293D01*
X4960539Y-17560293D02*
X4951015Y-17598389D01*
X4951015Y-17598389D02*
X4941491Y-17617436D01*
X4941491Y-17617436D02*
X4931967Y-17626960D01*
X4931967Y-17626960D02*
X4912920Y-17636484D01*
X4912920Y-17636484D02*
X4893872Y-17636484D01*
X4893872Y-17636484D02*
X4874824Y-17626960D01*
X4874824Y-17626960D02*
X4865301Y-17617436D01*
X4865301Y-17617436D02*
X4855777Y-17598389D01*
X4855777Y-17598389D02*
X4846253Y-17560293D01*
X4846253Y-17560293D02*
X4846253Y-17512674D01*
X4846253Y-17512674D02*
X4855777Y-17474579D01*
X4855777Y-17474579D02*
X4865301Y-17455531D01*
X4865301Y-17455531D02*
X4874824Y-17446008D01*
X4874824Y-17446008D02*
X4893872Y-17436484D01*
X5046253Y-17617436D02*
X5055777Y-17626960D01*
X5055777Y-17626960D02*
X5046253Y-17636484D01*
X5046253Y-17636484D02*
X5036729Y-17626960D01*
X5036729Y-17626960D02*
X5046253Y-17617436D01*
X5046253Y-17617436D02*
X5046253Y-17636484D01*
X5227205Y-17503150D02*
X5227205Y-17636484D01*
X5179586Y-17426960D02*
X5131967Y-17569817D01*
X5131967Y-17569817D02*
X5255777Y-17569817D01*
X5370063Y-17436484D02*
X5389110Y-17436484D01*
X5389110Y-17436484D02*
X5408158Y-17446008D01*
X5408158Y-17446008D02*
X5417682Y-17455531D01*
X5417682Y-17455531D02*
X5427205Y-17474579D01*
X5427205Y-17474579D02*
X5436729Y-17512674D01*
X5436729Y-17512674D02*
X5436729Y-17560293D01*
X5436729Y-17560293D02*
X5427205Y-17598389D01*
X5427205Y-17598389D02*
X5417682Y-17617436D01*
X5417682Y-17617436D02*
X5408158Y-17626960D01*
X5408158Y-17626960D02*
X5389110Y-17636484D01*
X5389110Y-17636484D02*
X5370063Y-17636484D01*
X5370063Y-17636484D02*
X5351015Y-17626960D01*
X5351015Y-17626960D02*
X5341491Y-17617436D01*
X5341491Y-17617436D02*
X5331967Y-17598389D01*
X5331967Y-17598389D02*
X5322444Y-17560293D01*
X5322444Y-17560293D02*
X5322444Y-17512674D01*
X5322444Y-17512674D02*
X5331967Y-17474579D01*
X5331967Y-17474579D02*
X5341491Y-17455531D01*
X5341491Y-17455531D02*
X5351015Y-17446008D01*
X5351015Y-17446008D02*
X5370063Y-17436484D01*
X5560539Y-17436484D02*
X5579586Y-17436484D01*
X5579586Y-17436484D02*
X5598634Y-17446008D01*
X5598634Y-17446008D02*
X5608158Y-17455531D01*
X5608158Y-17455531D02*
X5617682Y-17474579D01*
X5617682Y-17474579D02*
X5627205Y-17512674D01*
X5627205Y-17512674D02*
X5627205Y-17560293D01*
X5627205Y-17560293D02*
X5617682Y-17598389D01*
X5617682Y-17598389D02*
X5608158Y-17617436D01*
X5608158Y-17617436D02*
X5598634Y-17626960D01*
X5598634Y-17626960D02*
X5579586Y-17636484D01*
X5579586Y-17636484D02*
X5560539Y-17636484D01*
X5560539Y-17636484D02*
X5541491Y-17626960D01*
X5541491Y-17626960D02*
X5531967Y-17617436D01*
X5531967Y-17617436D02*
X5522444Y-17598389D01*
X5522444Y-17598389D02*
X5512920Y-17560293D01*
X5512920Y-17560293D02*
X5512920Y-17512674D01*
X5512920Y-17512674D02*
X5522444Y-17474579D01*
X5522444Y-17474579D02*
X5531967Y-17455531D01*
X5531967Y-17455531D02*
X5541491Y-17446008D01*
X5541491Y-17446008D02*
X5560539Y-17436484D01*
X5712920Y-17636484D02*
X5712920Y-17503150D01*
X5712920Y-17522198D02*
X5722443Y-17512674D01*
X5722443Y-17512674D02*
X5741491Y-17503150D01*
X5741491Y-17503150D02*
X5770063Y-17503150D01*
X5770063Y-17503150D02*
X5789110Y-17512674D01*
X5789110Y-17512674D02*
X5798634Y-17531722D01*
X5798634Y-17531722D02*
X5798634Y-17636484D01*
X5798634Y-17531722D02*
X5808158Y-17512674D01*
X5808158Y-17512674D02*
X5827205Y-17503150D01*
X5827205Y-17503150D02*
X5855777Y-17503150D01*
X5855777Y-17503150D02*
X5874824Y-17512674D01*
X5874824Y-17512674D02*
X5884348Y-17531722D01*
X5884348Y-17531722D02*
X5884348Y-17636484D01*
X5979586Y-17636484D02*
X5979586Y-17503150D01*
X5979586Y-17522198D02*
X5989110Y-17512674D01*
X5989110Y-17512674D02*
X6008158Y-17503150D01*
X6008158Y-17503150D02*
X6036729Y-17503150D01*
X6036729Y-17503150D02*
X6055777Y-17512674D01*
X6055777Y-17512674D02*
X6065301Y-17531722D01*
X6065301Y-17531722D02*
X6065301Y-17636484D01*
X6065301Y-17531722D02*
X6074824Y-17512674D01*
X6074824Y-17512674D02*
X6093872Y-17503150D01*
X6093872Y-17503150D02*
X6122443Y-17503150D01*
X6122443Y-17503150D02*
X6141491Y-17512674D01*
X6141491Y-17512674D02*
X6151015Y-17531722D01*
X6151015Y-17531722D02*
X6151015Y-17636484D01*
X6541491Y-17426960D02*
X6370063Y-17684103D01*
X6798634Y-17436484D02*
X6817682Y-17436484D01*
X6817682Y-17436484D02*
X6836729Y-17446008D01*
X6836729Y-17446008D02*
X6846253Y-17455531D01*
X6846253Y-17455531D02*
X6855777Y-17474579D01*
X6855777Y-17474579D02*
X6865301Y-17512674D01*
X6865301Y-17512674D02*
X6865301Y-17560293D01*
X6865301Y-17560293D02*
X6855777Y-17598389D01*
X6855777Y-17598389D02*
X6846253Y-17617436D01*
X6846253Y-17617436D02*
X6836729Y-17626960D01*
X6836729Y-17626960D02*
X6817682Y-17636484D01*
X6817682Y-17636484D02*
X6798634Y-17636484D01*
X6798634Y-17636484D02*
X6779586Y-17626960D01*
X6779586Y-17626960D02*
X6770063Y-17617436D01*
X6770063Y-17617436D02*
X6760539Y-17598389D01*
X6760539Y-17598389D02*
X6751015Y-17560293D01*
X6751015Y-17560293D02*
X6751015Y-17512674D01*
X6751015Y-17512674D02*
X6760539Y-17474579D01*
X6760539Y-17474579D02*
X6770063Y-17455531D01*
X6770063Y-17455531D02*
X6779586Y-17446008D01*
X6779586Y-17446008D02*
X6798634Y-17436484D01*
X6951015Y-17617436D02*
X6960539Y-17626960D01*
X6960539Y-17626960D02*
X6951015Y-17636484D01*
X6951015Y-17636484D02*
X6941491Y-17626960D01*
X6941491Y-17626960D02*
X6951015Y-17617436D01*
X6951015Y-17617436D02*
X6951015Y-17636484D01*
X7084348Y-17436484D02*
X7103396Y-17436484D01*
X7103396Y-17436484D02*
X7122444Y-17446008D01*
X7122444Y-17446008D02*
X7131967Y-17455531D01*
X7131967Y-17455531D02*
X7141491Y-17474579D01*
X7141491Y-17474579D02*
X7151015Y-17512674D01*
X7151015Y-17512674D02*
X7151015Y-17560293D01*
X7151015Y-17560293D02*
X7141491Y-17598389D01*
X7141491Y-17598389D02*
X7131967Y-17617436D01*
X7131967Y-17617436D02*
X7122444Y-17626960D01*
X7122444Y-17626960D02*
X7103396Y-17636484D01*
X7103396Y-17636484D02*
X7084348Y-17636484D01*
X7084348Y-17636484D02*
X7065301Y-17626960D01*
X7065301Y-17626960D02*
X7055777Y-17617436D01*
X7055777Y-17617436D02*
X7046253Y-17598389D01*
X7046253Y-17598389D02*
X7036729Y-17560293D01*
X7036729Y-17560293D02*
X7036729Y-17512674D01*
X7036729Y-17512674D02*
X7046253Y-17474579D01*
X7046253Y-17474579D02*
X7055777Y-17455531D01*
X7055777Y-17455531D02*
X7065301Y-17446008D01*
X7065301Y-17446008D02*
X7084348Y-17436484D01*
X7341491Y-17636484D02*
X7227206Y-17636484D01*
X7284348Y-17636484D02*
X7284348Y-17436484D01*
X7284348Y-17436484D02*
X7265301Y-17465055D01*
X7265301Y-17465055D02*
X7246253Y-17484103D01*
X7246253Y-17484103D02*
X7227206Y-17493627D01*
X7522444Y-17436484D02*
X7427206Y-17436484D01*
X7427206Y-17436484D02*
X7417682Y-17531722D01*
X7417682Y-17531722D02*
X7427206Y-17522198D01*
X7427206Y-17522198D02*
X7446253Y-17512674D01*
X7446253Y-17512674D02*
X7493872Y-17512674D01*
X7493872Y-17512674D02*
X7512920Y-17522198D01*
X7512920Y-17522198D02*
X7522444Y-17531722D01*
X7522444Y-17531722D02*
X7531967Y-17550770D01*
X7531967Y-17550770D02*
X7531967Y-17598389D01*
X7531967Y-17598389D02*
X7522444Y-17617436D01*
X7522444Y-17617436D02*
X7512920Y-17626960D01*
X7512920Y-17626960D02*
X7493872Y-17636484D01*
X7493872Y-17636484D02*
X7446253Y-17636484D01*
X7446253Y-17636484D02*
X7427206Y-17626960D01*
X7427206Y-17626960D02*
X7417682Y-17617436D01*
X7598634Y-17436484D02*
X7731967Y-17436484D01*
X7731967Y-17436484D02*
X7646253Y-17636484D01*
X7798634Y-17436484D02*
X7798634Y-17474579D01*
X7874825Y-17436484D02*
X7874825Y-17474579D01*
X8170063Y-17712674D02*
X8160539Y-17703150D01*
X8160539Y-17703150D02*
X8141491Y-17674579D01*
X8141491Y-17674579D02*
X8131968Y-17655531D01*
X8131968Y-17655531D02*
X8122444Y-17626960D01*
X8122444Y-17626960D02*
X8112920Y-17579341D01*
X8112920Y-17579341D02*
X8112920Y-17541246D01*
X8112920Y-17541246D02*
X8122444Y-17493627D01*
X8122444Y-17493627D02*
X8131968Y-17465055D01*
X8131968Y-17465055D02*
X8141491Y-17446008D01*
X8141491Y-17446008D02*
X8160539Y-17417436D01*
X8160539Y-17417436D02*
X8170063Y-17407912D01*
X8274825Y-17522198D02*
X8255777Y-17512674D01*
X8255777Y-17512674D02*
X8246253Y-17503150D01*
X8246253Y-17503150D02*
X8236729Y-17484103D01*
X8236729Y-17484103D02*
X8236729Y-17474579D01*
X8236729Y-17474579D02*
X8246253Y-17455531D01*
X8246253Y-17455531D02*
X8255777Y-17446008D01*
X8255777Y-17446008D02*
X8274825Y-17436484D01*
X8274825Y-17436484D02*
X8312920Y-17436484D01*
X8312920Y-17436484D02*
X8331968Y-17446008D01*
X8331968Y-17446008D02*
X8341491Y-17455531D01*
X8341491Y-17455531D02*
X8351015Y-17474579D01*
X8351015Y-17474579D02*
X8351015Y-17484103D01*
X8351015Y-17484103D02*
X8341491Y-17503150D01*
X8341491Y-17503150D02*
X8331968Y-17512674D01*
X8331968Y-17512674D02*
X8312920Y-17522198D01*
X8312920Y-17522198D02*
X8274825Y-17522198D01*
X8274825Y-17522198D02*
X8255777Y-17531722D01*
X8255777Y-17531722D02*
X8246253Y-17541246D01*
X8246253Y-17541246D02*
X8236729Y-17560293D01*
X8236729Y-17560293D02*
X8236729Y-17598389D01*
X8236729Y-17598389D02*
X8246253Y-17617436D01*
X8246253Y-17617436D02*
X8255777Y-17626960D01*
X8255777Y-17626960D02*
X8274825Y-17636484D01*
X8274825Y-17636484D02*
X8312920Y-17636484D01*
X8312920Y-17636484D02*
X8331968Y-17626960D01*
X8331968Y-17626960D02*
X8341491Y-17617436D01*
X8341491Y-17617436D02*
X8351015Y-17598389D01*
X8351015Y-17598389D02*
X8351015Y-17560293D01*
X8351015Y-17560293D02*
X8341491Y-17541246D01*
X8341491Y-17541246D02*
X8331968Y-17531722D01*
X8331968Y-17531722D02*
X8312920Y-17522198D01*
X8474825Y-17436484D02*
X8493872Y-17436484D01*
X8493872Y-17436484D02*
X8512920Y-17446008D01*
X8512920Y-17446008D02*
X8522444Y-17455531D01*
X8522444Y-17455531D02*
X8531968Y-17474579D01*
X8531968Y-17474579D02*
X8541491Y-17512674D01*
X8541491Y-17512674D02*
X8541491Y-17560293D01*
X8541491Y-17560293D02*
X8531968Y-17598389D01*
X8531968Y-17598389D02*
X8522444Y-17617436D01*
X8522444Y-17617436D02*
X8512920Y-17626960D01*
X8512920Y-17626960D02*
X8493872Y-17636484D01*
X8493872Y-17636484D02*
X8474825Y-17636484D01*
X8474825Y-17636484D02*
X8455777Y-17626960D01*
X8455777Y-17626960D02*
X8446253Y-17617436D01*
X8446253Y-17617436D02*
X8436730Y-17598389D01*
X8436730Y-17598389D02*
X8427206Y-17560293D01*
X8427206Y-17560293D02*
X8427206Y-17512674D01*
X8427206Y-17512674D02*
X8436730Y-17474579D01*
X8436730Y-17474579D02*
X8446253Y-17455531D01*
X8446253Y-17455531D02*
X8455777Y-17446008D01*
X8455777Y-17446008D02*
X8474825Y-17436484D01*
X8779587Y-17636484D02*
X8779587Y-17436484D01*
X8865301Y-17636484D02*
X8865301Y-17531722D01*
X8865301Y-17531722D02*
X8855777Y-17512674D01*
X8855777Y-17512674D02*
X8836730Y-17503150D01*
X8836730Y-17503150D02*
X8808158Y-17503150D01*
X8808158Y-17503150D02*
X8789111Y-17512674D01*
X8789111Y-17512674D02*
X8779587Y-17522198D01*
X8989111Y-17636484D02*
X8970063Y-17626960D01*
X8970063Y-17626960D02*
X8960539Y-17617436D01*
X8960539Y-17617436D02*
X8951015Y-17598389D01*
X8951015Y-17598389D02*
X8951015Y-17541246D01*
X8951015Y-17541246D02*
X8960539Y-17522198D01*
X8960539Y-17522198D02*
X8970063Y-17512674D01*
X8970063Y-17512674D02*
X8989111Y-17503150D01*
X8989111Y-17503150D02*
X9017682Y-17503150D01*
X9017682Y-17503150D02*
X9036730Y-17512674D01*
X9036730Y-17512674D02*
X9046253Y-17522198D01*
X9046253Y-17522198D02*
X9055777Y-17541246D01*
X9055777Y-17541246D02*
X9055777Y-17598389D01*
X9055777Y-17598389D02*
X9046253Y-17617436D01*
X9046253Y-17617436D02*
X9036730Y-17626960D01*
X9036730Y-17626960D02*
X9017682Y-17636484D01*
X9017682Y-17636484D02*
X8989111Y-17636484D01*
X9170063Y-17636484D02*
X9151015Y-17626960D01*
X9151015Y-17626960D02*
X9141492Y-17607912D01*
X9141492Y-17607912D02*
X9141492Y-17436484D01*
X9322444Y-17626960D02*
X9303396Y-17636484D01*
X9303396Y-17636484D02*
X9265301Y-17636484D01*
X9265301Y-17636484D02*
X9246253Y-17626960D01*
X9246253Y-17626960D02*
X9236730Y-17607912D01*
X9236730Y-17607912D02*
X9236730Y-17531722D01*
X9236730Y-17531722D02*
X9246253Y-17512674D01*
X9246253Y-17512674D02*
X9265301Y-17503150D01*
X9265301Y-17503150D02*
X9303396Y-17503150D01*
X9303396Y-17503150D02*
X9322444Y-17512674D01*
X9322444Y-17512674D02*
X9331968Y-17531722D01*
X9331968Y-17531722D02*
X9331968Y-17550770D01*
X9331968Y-17550770D02*
X9236730Y-17569817D01*
X9408158Y-17626960D02*
X9427206Y-17636484D01*
X9427206Y-17636484D02*
X9465301Y-17636484D01*
X9465301Y-17636484D02*
X9484349Y-17626960D01*
X9484349Y-17626960D02*
X9493873Y-17607912D01*
X9493873Y-17607912D02*
X9493873Y-17598389D01*
X9493873Y-17598389D02*
X9484349Y-17579341D01*
X9484349Y-17579341D02*
X9465301Y-17569817D01*
X9465301Y-17569817D02*
X9436730Y-17569817D01*
X9436730Y-17569817D02*
X9417682Y-17560293D01*
X9417682Y-17560293D02*
X9408158Y-17541246D01*
X9408158Y-17541246D02*
X9408158Y-17531722D01*
X9408158Y-17531722D02*
X9417682Y-17512674D01*
X9417682Y-17512674D02*
X9436730Y-17503150D01*
X9436730Y-17503150D02*
X9465301Y-17503150D01*
X9465301Y-17503150D02*
X9484349Y-17512674D01*
X9560539Y-17712674D02*
X9570063Y-17703150D01*
X9570063Y-17703150D02*
X9589111Y-17674579D01*
X9589111Y-17674579D02*
X9598634Y-17655531D01*
X9598634Y-17655531D02*
X9608158Y-17626960D01*
X9608158Y-17626960D02*
X9617682Y-17579341D01*
X9617682Y-17579341D02*
X9617682Y-17541246D01*
X9617682Y-17541246D02*
X9608158Y-17493627D01*
X9608158Y-17493627D02*
X9598634Y-17465055D01*
X9598634Y-17465055D02*
X9589111Y-17446008D01*
X9589111Y-17446008D02*
X9570063Y-17417436D01*
X9570063Y-17417436D02*
X9560539Y-17407912D01*
D10*
X4595000Y-17809000D02*
G75*
G03*
X4595000Y-17809000I-40000J0D01*
G01*
D11*
X4893872Y-17700484D02*
X4912920Y-17700484D01*
X4912920Y-17700484D02*
X4931967Y-17710008D01*
X4931967Y-17710008D02*
X4941491Y-17719531D01*
X4941491Y-17719531D02*
X4951015Y-17738579D01*
X4951015Y-17738579D02*
X4960539Y-17776674D01*
X4960539Y-17776674D02*
X4960539Y-17824293D01*
X4960539Y-17824293D02*
X4951015Y-17862389D01*
X4951015Y-17862389D02*
X4941491Y-17881436D01*
X4941491Y-17881436D02*
X4931967Y-17890960D01*
X4931967Y-17890960D02*
X4912920Y-17900484D01*
X4912920Y-17900484D02*
X4893872Y-17900484D01*
X4893872Y-17900484D02*
X4874824Y-17890960D01*
X4874824Y-17890960D02*
X4865301Y-17881436D01*
X4865301Y-17881436D02*
X4855777Y-17862389D01*
X4855777Y-17862389D02*
X4846253Y-17824293D01*
X4846253Y-17824293D02*
X4846253Y-17776674D01*
X4846253Y-17776674D02*
X4855777Y-17738579D01*
X4855777Y-17738579D02*
X4865301Y-17719531D01*
X4865301Y-17719531D02*
X4874824Y-17710008D01*
X4874824Y-17710008D02*
X4893872Y-17700484D01*
X5046253Y-17881436D02*
X5055777Y-17890960D01*
X5055777Y-17890960D02*
X5046253Y-17900484D01*
X5046253Y-17900484D02*
X5036729Y-17890960D01*
X5036729Y-17890960D02*
X5046253Y-17881436D01*
X5046253Y-17881436D02*
X5046253Y-17900484D01*
X5170063Y-17786198D02*
X5151015Y-17776674D01*
X5151015Y-17776674D02*
X5141491Y-17767150D01*
X5141491Y-17767150D02*
X5131967Y-17748103D01*
X5131967Y-17748103D02*
X5131967Y-17738579D01*
X5131967Y-17738579D02*
X5141491Y-17719531D01*
X5141491Y-17719531D02*
X5151015Y-17710008D01*
X5151015Y-17710008D02*
X5170063Y-17700484D01*
X5170063Y-17700484D02*
X5208158Y-17700484D01*
X5208158Y-17700484D02*
X5227205Y-17710008D01*
X5227205Y-17710008D02*
X5236729Y-17719531D01*
X5236729Y-17719531D02*
X5246253Y-17738579D01*
X5246253Y-17738579D02*
X5246253Y-17748103D01*
X5246253Y-17748103D02*
X5236729Y-17767150D01*
X5236729Y-17767150D02*
X5227205Y-17776674D01*
X5227205Y-17776674D02*
X5208158Y-17786198D01*
X5208158Y-17786198D02*
X5170063Y-17786198D01*
X5170063Y-17786198D02*
X5151015Y-17795722D01*
X5151015Y-17795722D02*
X5141491Y-17805246D01*
X5141491Y-17805246D02*
X5131967Y-17824293D01*
X5131967Y-17824293D02*
X5131967Y-17862389D01*
X5131967Y-17862389D02*
X5141491Y-17881436D01*
X5141491Y-17881436D02*
X5151015Y-17890960D01*
X5151015Y-17890960D02*
X5170063Y-17900484D01*
X5170063Y-17900484D02*
X5208158Y-17900484D01*
X5208158Y-17900484D02*
X5227205Y-17890960D01*
X5227205Y-17890960D02*
X5236729Y-17881436D01*
X5236729Y-17881436D02*
X5246253Y-17862389D01*
X5246253Y-17862389D02*
X5246253Y-17824293D01*
X5246253Y-17824293D02*
X5236729Y-17805246D01*
X5236729Y-17805246D02*
X5227205Y-17795722D01*
X5227205Y-17795722D02*
X5208158Y-17786198D01*
X5370063Y-17700484D02*
X5389110Y-17700484D01*
X5389110Y-17700484D02*
X5408158Y-17710008D01*
X5408158Y-17710008D02*
X5417682Y-17719531D01*
X5417682Y-17719531D02*
X5427205Y-17738579D01*
X5427205Y-17738579D02*
X5436729Y-17776674D01*
X5436729Y-17776674D02*
X5436729Y-17824293D01*
X5436729Y-17824293D02*
X5427205Y-17862389D01*
X5427205Y-17862389D02*
X5417682Y-17881436D01*
X5417682Y-17881436D02*
X5408158Y-17890960D01*
X5408158Y-17890960D02*
X5389110Y-17900484D01*
X5389110Y-17900484D02*
X5370063Y-17900484D01*
X5370063Y-17900484D02*
X5351015Y-17890960D01*
X5351015Y-17890960D02*
X5341491Y-17881436D01*
X5341491Y-17881436D02*
X5331967Y-17862389D01*
X5331967Y-17862389D02*
X5322444Y-17824293D01*
X5322444Y-17824293D02*
X5322444Y-17776674D01*
X5322444Y-17776674D02*
X5331967Y-17738579D01*
X5331967Y-17738579D02*
X5341491Y-17719531D01*
X5341491Y-17719531D02*
X5351015Y-17710008D01*
X5351015Y-17710008D02*
X5370063Y-17700484D01*
X5560539Y-17700484D02*
X5579586Y-17700484D01*
X5579586Y-17700484D02*
X5598634Y-17710008D01*
X5598634Y-17710008D02*
X5608158Y-17719531D01*
X5608158Y-17719531D02*
X5617682Y-17738579D01*
X5617682Y-17738579D02*
X5627205Y-17776674D01*
X5627205Y-17776674D02*
X5627205Y-17824293D01*
X5627205Y-17824293D02*
X5617682Y-17862389D01*
X5617682Y-17862389D02*
X5608158Y-17881436D01*
X5608158Y-17881436D02*
X5598634Y-17890960D01*
X5598634Y-17890960D02*
X5579586Y-17900484D01*
X5579586Y-17900484D02*
X5560539Y-17900484D01*
X5560539Y-17900484D02*
X5541491Y-17890960D01*
X5541491Y-17890960D02*
X5531967Y-17881436D01*
X5531967Y-17881436D02*
X5522444Y-17862389D01*
X5522444Y-17862389D02*
X5512920Y-17824293D01*
X5512920Y-17824293D02*
X5512920Y-17776674D01*
X5512920Y-17776674D02*
X5522444Y-17738579D01*
X5522444Y-17738579D02*
X5531967Y-17719531D01*
X5531967Y-17719531D02*
X5541491Y-17710008D01*
X5541491Y-17710008D02*
X5560539Y-17700484D01*
X5712920Y-17900484D02*
X5712920Y-17767150D01*
X5712920Y-17786198D02*
X5722443Y-17776674D01*
X5722443Y-17776674D02*
X5741491Y-17767150D01*
X5741491Y-17767150D02*
X5770063Y-17767150D01*
X5770063Y-17767150D02*
X5789110Y-17776674D01*
X5789110Y-17776674D02*
X5798634Y-17795722D01*
X5798634Y-17795722D02*
X5798634Y-17900484D01*
X5798634Y-17795722D02*
X5808158Y-17776674D01*
X5808158Y-17776674D02*
X5827205Y-17767150D01*
X5827205Y-17767150D02*
X5855777Y-17767150D01*
X5855777Y-17767150D02*
X5874824Y-17776674D01*
X5874824Y-17776674D02*
X5884348Y-17795722D01*
X5884348Y-17795722D02*
X5884348Y-17900484D01*
X5979586Y-17900484D02*
X5979586Y-17767150D01*
X5979586Y-17786198D02*
X5989110Y-17776674D01*
X5989110Y-17776674D02*
X6008158Y-17767150D01*
X6008158Y-17767150D02*
X6036729Y-17767150D01*
X6036729Y-17767150D02*
X6055777Y-17776674D01*
X6055777Y-17776674D02*
X6065301Y-17795722D01*
X6065301Y-17795722D02*
X6065301Y-17900484D01*
X6065301Y-17795722D02*
X6074824Y-17776674D01*
X6074824Y-17776674D02*
X6093872Y-17767150D01*
X6093872Y-17767150D02*
X6122443Y-17767150D01*
X6122443Y-17767150D02*
X6141491Y-17776674D01*
X6141491Y-17776674D02*
X6151015Y-17795722D01*
X6151015Y-17795722D02*
X6151015Y-17900484D01*
X6541491Y-17690960D02*
X6370063Y-17948103D01*
X6798634Y-17700484D02*
X6817682Y-17700484D01*
X6817682Y-17700484D02*
X6836729Y-17710008D01*
X6836729Y-17710008D02*
X6846253Y-17719531D01*
X6846253Y-17719531D02*
X6855777Y-17738579D01*
X6855777Y-17738579D02*
X6865301Y-17776674D01*
X6865301Y-17776674D02*
X6865301Y-17824293D01*
X6865301Y-17824293D02*
X6855777Y-17862389D01*
X6855777Y-17862389D02*
X6846253Y-17881436D01*
X6846253Y-17881436D02*
X6836729Y-17890960D01*
X6836729Y-17890960D02*
X6817682Y-17900484D01*
X6817682Y-17900484D02*
X6798634Y-17900484D01*
X6798634Y-17900484D02*
X6779586Y-17890960D01*
X6779586Y-17890960D02*
X6770063Y-17881436D01*
X6770063Y-17881436D02*
X6760539Y-17862389D01*
X6760539Y-17862389D02*
X6751015Y-17824293D01*
X6751015Y-17824293D02*
X6751015Y-17776674D01*
X6751015Y-17776674D02*
X6760539Y-17738579D01*
X6760539Y-17738579D02*
X6770063Y-17719531D01*
X6770063Y-17719531D02*
X6779586Y-17710008D01*
X6779586Y-17710008D02*
X6798634Y-17700484D01*
X6951015Y-17881436D02*
X6960539Y-17890960D01*
X6960539Y-17890960D02*
X6951015Y-17900484D01*
X6951015Y-17900484D02*
X6941491Y-17890960D01*
X6941491Y-17890960D02*
X6951015Y-17881436D01*
X6951015Y-17881436D02*
X6951015Y-17900484D01*
X7084348Y-17700484D02*
X7103396Y-17700484D01*
X7103396Y-17700484D02*
X7122444Y-17710008D01*
X7122444Y-17710008D02*
X7131967Y-17719531D01*
X7131967Y-17719531D02*
X7141491Y-17738579D01*
X7141491Y-17738579D02*
X7151015Y-17776674D01*
X7151015Y-17776674D02*
X7151015Y-17824293D01*
X7151015Y-17824293D02*
X7141491Y-17862389D01*
X7141491Y-17862389D02*
X7131967Y-17881436D01*
X7131967Y-17881436D02*
X7122444Y-17890960D01*
X7122444Y-17890960D02*
X7103396Y-17900484D01*
X7103396Y-17900484D02*
X7084348Y-17900484D01*
X7084348Y-17900484D02*
X7065301Y-17890960D01*
X7065301Y-17890960D02*
X7055777Y-17881436D01*
X7055777Y-17881436D02*
X7046253Y-17862389D01*
X7046253Y-17862389D02*
X7036729Y-17824293D01*
X7036729Y-17824293D02*
X7036729Y-17776674D01*
X7036729Y-17776674D02*
X7046253Y-17738579D01*
X7046253Y-17738579D02*
X7055777Y-17719531D01*
X7055777Y-17719531D02*
X7065301Y-17710008D01*
X7065301Y-17710008D02*
X7084348Y-17700484D01*
X7217682Y-17700484D02*
X7341491Y-17700484D01*
X7341491Y-17700484D02*
X7274825Y-17776674D01*
X7274825Y-17776674D02*
X7303396Y-17776674D01*
X7303396Y-17776674D02*
X7322444Y-17786198D01*
X7322444Y-17786198D02*
X7331967Y-17795722D01*
X7331967Y-17795722D02*
X7341491Y-17814770D01*
X7341491Y-17814770D02*
X7341491Y-17862389D01*
X7341491Y-17862389D02*
X7331967Y-17881436D01*
X7331967Y-17881436D02*
X7322444Y-17890960D01*
X7322444Y-17890960D02*
X7303396Y-17900484D01*
X7303396Y-17900484D02*
X7246253Y-17900484D01*
X7246253Y-17900484D02*
X7227206Y-17890960D01*
X7227206Y-17890960D02*
X7217682Y-17881436D01*
X7531967Y-17900484D02*
X7417682Y-17900484D01*
X7474825Y-17900484D02*
X7474825Y-17700484D01*
X7474825Y-17700484D02*
X7455777Y-17729055D01*
X7455777Y-17729055D02*
X7436729Y-17748103D01*
X7436729Y-17748103D02*
X7417682Y-17757627D01*
X7712920Y-17700484D02*
X7617682Y-17700484D01*
X7617682Y-17700484D02*
X7608158Y-17795722D01*
X7608158Y-17795722D02*
X7617682Y-17786198D01*
X7617682Y-17786198D02*
X7636729Y-17776674D01*
X7636729Y-17776674D02*
X7684348Y-17776674D01*
X7684348Y-17776674D02*
X7703396Y-17786198D01*
X7703396Y-17786198D02*
X7712920Y-17795722D01*
X7712920Y-17795722D02*
X7722444Y-17814770D01*
X7722444Y-17814770D02*
X7722444Y-17862389D01*
X7722444Y-17862389D02*
X7712920Y-17881436D01*
X7712920Y-17881436D02*
X7703396Y-17890960D01*
X7703396Y-17890960D02*
X7684348Y-17900484D01*
X7684348Y-17900484D02*
X7636729Y-17900484D01*
X7636729Y-17900484D02*
X7617682Y-17890960D01*
X7617682Y-17890960D02*
X7608158Y-17881436D01*
X7798634Y-17700484D02*
X7798634Y-17738579D01*
X7874825Y-17700484D02*
X7874825Y-17738579D01*
X8170063Y-17976674D02*
X8160539Y-17967150D01*
X8160539Y-17967150D02*
X8141491Y-17938579D01*
X8141491Y-17938579D02*
X8131968Y-17919531D01*
X8131968Y-17919531D02*
X8122444Y-17890960D01*
X8122444Y-17890960D02*
X8112920Y-17843341D01*
X8112920Y-17843341D02*
X8112920Y-17805246D01*
X8112920Y-17805246D02*
X8122444Y-17757627D01*
X8122444Y-17757627D02*
X8131968Y-17729055D01*
X8131968Y-17729055D02*
X8141491Y-17710008D01*
X8141491Y-17710008D02*
X8160539Y-17681436D01*
X8160539Y-17681436D02*
X8170063Y-17671912D01*
X8331968Y-17700484D02*
X8293872Y-17700484D01*
X8293872Y-17700484D02*
X8274825Y-17710008D01*
X8274825Y-17710008D02*
X8265301Y-17719531D01*
X8265301Y-17719531D02*
X8246253Y-17748103D01*
X8246253Y-17748103D02*
X8236729Y-17786198D01*
X8236729Y-17786198D02*
X8236729Y-17862389D01*
X8236729Y-17862389D02*
X8246253Y-17881436D01*
X8246253Y-17881436D02*
X8255777Y-17890960D01*
X8255777Y-17890960D02*
X8274825Y-17900484D01*
X8274825Y-17900484D02*
X8312920Y-17900484D01*
X8312920Y-17900484D02*
X8331968Y-17890960D01*
X8331968Y-17890960D02*
X8341491Y-17881436D01*
X8341491Y-17881436D02*
X8351015Y-17862389D01*
X8351015Y-17862389D02*
X8351015Y-17814770D01*
X8351015Y-17814770D02*
X8341491Y-17795722D01*
X8341491Y-17795722D02*
X8331968Y-17786198D01*
X8331968Y-17786198D02*
X8312920Y-17776674D01*
X8312920Y-17776674D02*
X8274825Y-17776674D01*
X8274825Y-17776674D02*
X8255777Y-17786198D01*
X8255777Y-17786198D02*
X8246253Y-17795722D01*
X8246253Y-17795722D02*
X8236729Y-17814770D01*
X8522444Y-17767150D02*
X8522444Y-17900484D01*
X8474825Y-17690960D02*
X8427206Y-17833817D01*
X8427206Y-17833817D02*
X8551015Y-17833817D01*
X8779587Y-17900484D02*
X8779587Y-17700484D01*
X8865301Y-17900484D02*
X8865301Y-17795722D01*
X8865301Y-17795722D02*
X8855777Y-17776674D01*
X8855777Y-17776674D02*
X8836730Y-17767150D01*
X8836730Y-17767150D02*
X8808158Y-17767150D01*
X8808158Y-17767150D02*
X8789111Y-17776674D01*
X8789111Y-17776674D02*
X8779587Y-17786198D01*
X8989111Y-17900484D02*
X8970063Y-17890960D01*
X8970063Y-17890960D02*
X8960539Y-17881436D01*
X8960539Y-17881436D02*
X8951015Y-17862389D01*
X8951015Y-17862389D02*
X8951015Y-17805246D01*
X8951015Y-17805246D02*
X8960539Y-17786198D01*
X8960539Y-17786198D02*
X8970063Y-17776674D01*
X8970063Y-17776674D02*
X8989111Y-17767150D01*
X8989111Y-17767150D02*
X9017682Y-17767150D01*
X9017682Y-17767150D02*
X9036730Y-17776674D01*
X9036730Y-17776674D02*
X9046253Y-17786198D01*
X9046253Y-17786198D02*
X9055777Y-17805246D01*
X9055777Y-17805246D02*
X9055777Y-17862389D01*
X9055777Y-17862389D02*
X9046253Y-17881436D01*
X9046253Y-17881436D02*
X9036730Y-17890960D01*
X9036730Y-17890960D02*
X9017682Y-17900484D01*
X9017682Y-17900484D02*
X8989111Y-17900484D01*
X9170063Y-17900484D02*
X9151015Y-17890960D01*
X9151015Y-17890960D02*
X9141492Y-17871912D01*
X9141492Y-17871912D02*
X9141492Y-17700484D01*
X9322444Y-17890960D02*
X9303396Y-17900484D01*
X9303396Y-17900484D02*
X9265301Y-17900484D01*
X9265301Y-17900484D02*
X9246253Y-17890960D01*
X9246253Y-17890960D02*
X9236730Y-17871912D01*
X9236730Y-17871912D02*
X9236730Y-17795722D01*
X9236730Y-17795722D02*
X9246253Y-17776674D01*
X9246253Y-17776674D02*
X9265301Y-17767150D01*
X9265301Y-17767150D02*
X9303396Y-17767150D01*
X9303396Y-17767150D02*
X9322444Y-17776674D01*
X9322444Y-17776674D02*
X9331968Y-17795722D01*
X9331968Y-17795722D02*
X9331968Y-17814770D01*
X9331968Y-17814770D02*
X9236730Y-17833817D01*
X9408158Y-17890960D02*
X9427206Y-17900484D01*
X9427206Y-17900484D02*
X9465301Y-17900484D01*
X9465301Y-17900484D02*
X9484349Y-17890960D01*
X9484349Y-17890960D02*
X9493873Y-17871912D01*
X9493873Y-17871912D02*
X9493873Y-17862389D01*
X9493873Y-17862389D02*
X9484349Y-17843341D01*
X9484349Y-17843341D02*
X9465301Y-17833817D01*
X9465301Y-17833817D02*
X9436730Y-17833817D01*
X9436730Y-17833817D02*
X9417682Y-17824293D01*
X9417682Y-17824293D02*
X9408158Y-17805246D01*
X9408158Y-17805246D02*
X9408158Y-17795722D01*
X9408158Y-17795722D02*
X9417682Y-17776674D01*
X9417682Y-17776674D02*
X9436730Y-17767150D01*
X9436730Y-17767150D02*
X9465301Y-17767150D01*
X9465301Y-17767150D02*
X9484349Y-17776674D01*
X9560539Y-17976674D02*
X9570063Y-17967150D01*
X9570063Y-17967150D02*
X9589111Y-17938579D01*
X9589111Y-17938579D02*
X9598634Y-17919531D01*
X9598634Y-17919531D02*
X9608158Y-17890960D01*
X9608158Y-17890960D02*
X9617682Y-17843341D01*
X9617682Y-17843341D02*
X9617682Y-17805246D01*
X9617682Y-17805246D02*
X9608158Y-17757627D01*
X9608158Y-17757627D02*
X9598634Y-17729055D01*
X9598634Y-17729055D02*
X9589111Y-17710008D01*
X9589111Y-17710008D02*
X9570063Y-17681436D01*
X9570063Y-17681436D02*
X9560539Y-17671912D01*
M02*
