%TF.GenerationSoftware,KiCad,Pcbnew,7.0.9*%
%TF.CreationDate,2024-01-01T16:10:15+05:30*%
%TF.ProjectId,Led_8x8Tower_Base,4c65645f-3878-4385-946f-7765725f4261,rev?*%
%TF.SameCoordinates,Original*%
%TF.FileFunction,Legend,Top*%
%TF.FilePolarity,Positive*%
%FSLAX46Y46*%
G04 Gerber Fmt 4.6, Leading zero omitted, Abs format (unit mm)*
G04 Created by KiCad (PCBNEW 7.0.9) date 2024-01-01 16:10:15*
%MOMM*%
%LPD*%
G01*
G04 APERTURE LIST*
%ADD10C,0.150000*%
G04 APERTURE END LIST*
D10*
X186666666Y-147254819D02*
X186333333Y-146778628D01*
X186095238Y-147254819D02*
X186095238Y-146254819D01*
X186095238Y-146254819D02*
X186476190Y-146254819D01*
X186476190Y-146254819D02*
X186571428Y-146302438D01*
X186571428Y-146302438D02*
X186619047Y-146350057D01*
X186619047Y-146350057D02*
X186666666Y-146445295D01*
X186666666Y-146445295D02*
X186666666Y-146588152D01*
X186666666Y-146588152D02*
X186619047Y-146683390D01*
X186619047Y-146683390D02*
X186571428Y-146731009D01*
X186571428Y-146731009D02*
X186476190Y-146778628D01*
X186476190Y-146778628D02*
X186095238Y-146778628D01*
X187095238Y-146731009D02*
X187428571Y-146731009D01*
X187571428Y-147254819D02*
X187095238Y-147254819D01*
X187095238Y-147254819D02*
X187095238Y-146254819D01*
X187095238Y-146254819D02*
X187571428Y-146254819D01*
X188333333Y-146731009D02*
X188000000Y-146731009D01*
X188000000Y-147254819D02*
X188000000Y-146254819D01*
X188000000Y-146254819D02*
X188476190Y-146254819D01*
X189000000Y-146254819D02*
X189000000Y-146492914D01*
X188761905Y-146397676D02*
X189000000Y-146492914D01*
X189000000Y-146492914D02*
X189238095Y-146397676D01*
X188857143Y-146683390D02*
X189000000Y-146492914D01*
X189000000Y-146492914D02*
X189142857Y-146683390D01*
X189761905Y-146254819D02*
X189761905Y-146492914D01*
X189523810Y-146397676D02*
X189761905Y-146492914D01*
X189761905Y-146492914D02*
X190000000Y-146397676D01*
X189619048Y-146683390D02*
X189761905Y-146492914D01*
X189761905Y-146492914D02*
X189904762Y-146683390D01*
X126666666Y-27254819D02*
X126333333Y-26778628D01*
X126095238Y-27254819D02*
X126095238Y-26254819D01*
X126095238Y-26254819D02*
X126476190Y-26254819D01*
X126476190Y-26254819D02*
X126571428Y-26302438D01*
X126571428Y-26302438D02*
X126619047Y-26350057D01*
X126619047Y-26350057D02*
X126666666Y-26445295D01*
X126666666Y-26445295D02*
X126666666Y-26588152D01*
X126666666Y-26588152D02*
X126619047Y-26683390D01*
X126619047Y-26683390D02*
X126571428Y-26731009D01*
X126571428Y-26731009D02*
X126476190Y-26778628D01*
X126476190Y-26778628D02*
X126095238Y-26778628D01*
X127095238Y-26731009D02*
X127428571Y-26731009D01*
X127571428Y-27254819D02*
X127095238Y-27254819D01*
X127095238Y-27254819D02*
X127095238Y-26254819D01*
X127095238Y-26254819D02*
X127571428Y-26254819D01*
X128333333Y-26731009D02*
X128000000Y-26731009D01*
X128000000Y-27254819D02*
X128000000Y-26254819D01*
X128000000Y-26254819D02*
X128476190Y-26254819D01*
X129000000Y-26254819D02*
X129000000Y-26492914D01*
X128761905Y-26397676D02*
X129000000Y-26492914D01*
X129000000Y-26492914D02*
X129238095Y-26397676D01*
X128857143Y-26683390D02*
X129000000Y-26492914D01*
X129000000Y-26492914D02*
X129142857Y-26683390D01*
X129761905Y-26254819D02*
X129761905Y-26492914D01*
X129523810Y-26397676D02*
X129761905Y-26492914D01*
X129761905Y-26492914D02*
X130000000Y-26397676D01*
X129619048Y-26683390D02*
X129761905Y-26492914D01*
X129761905Y-26492914D02*
X129904762Y-26683390D01*
X126666666Y-147254819D02*
X126333333Y-146778628D01*
X126095238Y-147254819D02*
X126095238Y-146254819D01*
X126095238Y-146254819D02*
X126476190Y-146254819D01*
X126476190Y-146254819D02*
X126571428Y-146302438D01*
X126571428Y-146302438D02*
X126619047Y-146350057D01*
X126619047Y-146350057D02*
X126666666Y-146445295D01*
X126666666Y-146445295D02*
X126666666Y-146588152D01*
X126666666Y-146588152D02*
X126619047Y-146683390D01*
X126619047Y-146683390D02*
X126571428Y-146731009D01*
X126571428Y-146731009D02*
X126476190Y-146778628D01*
X126476190Y-146778628D02*
X126095238Y-146778628D01*
X127095238Y-146731009D02*
X127428571Y-146731009D01*
X127571428Y-147254819D02*
X127095238Y-147254819D01*
X127095238Y-147254819D02*
X127095238Y-146254819D01*
X127095238Y-146254819D02*
X127571428Y-146254819D01*
X128333333Y-146731009D02*
X128000000Y-146731009D01*
X128000000Y-147254819D02*
X128000000Y-146254819D01*
X128000000Y-146254819D02*
X128476190Y-146254819D01*
X129000000Y-146254819D02*
X129000000Y-146492914D01*
X128761905Y-146397676D02*
X129000000Y-146492914D01*
X129000000Y-146492914D02*
X129238095Y-146397676D01*
X128857143Y-146683390D02*
X129000000Y-146492914D01*
X129000000Y-146492914D02*
X129142857Y-146683390D01*
X129761905Y-146254819D02*
X129761905Y-146492914D01*
X129523810Y-146397676D02*
X129761905Y-146492914D01*
X129761905Y-146492914D02*
X130000000Y-146397676D01*
X129619048Y-146683390D02*
X129761905Y-146492914D01*
X129761905Y-146492914D02*
X129904762Y-146683390D01*
X66666666Y-27254819D02*
X66333333Y-26778628D01*
X66095238Y-27254819D02*
X66095238Y-26254819D01*
X66095238Y-26254819D02*
X66476190Y-26254819D01*
X66476190Y-26254819D02*
X66571428Y-26302438D01*
X66571428Y-26302438D02*
X66619047Y-26350057D01*
X66619047Y-26350057D02*
X66666666Y-26445295D01*
X66666666Y-26445295D02*
X66666666Y-26588152D01*
X66666666Y-26588152D02*
X66619047Y-26683390D01*
X66619047Y-26683390D02*
X66571428Y-26731009D01*
X66571428Y-26731009D02*
X66476190Y-26778628D01*
X66476190Y-26778628D02*
X66095238Y-26778628D01*
X67095238Y-26731009D02*
X67428571Y-26731009D01*
X67571428Y-27254819D02*
X67095238Y-27254819D01*
X67095238Y-27254819D02*
X67095238Y-26254819D01*
X67095238Y-26254819D02*
X67571428Y-26254819D01*
X68333333Y-26731009D02*
X68000000Y-26731009D01*
X68000000Y-27254819D02*
X68000000Y-26254819D01*
X68000000Y-26254819D02*
X68476190Y-26254819D01*
X69000000Y-26254819D02*
X69000000Y-26492914D01*
X68761905Y-26397676D02*
X69000000Y-26492914D01*
X69000000Y-26492914D02*
X69238095Y-26397676D01*
X68857143Y-26683390D02*
X69000000Y-26492914D01*
X69000000Y-26492914D02*
X69142857Y-26683390D01*
X69761905Y-26254819D02*
X69761905Y-26492914D01*
X69523810Y-26397676D02*
X69761905Y-26492914D01*
X69761905Y-26492914D02*
X70000000Y-26397676D01*
X69619048Y-26683390D02*
X69761905Y-26492914D01*
X69761905Y-26492914D02*
X69904762Y-26683390D01*
X186666666Y-27254819D02*
X186333333Y-26778628D01*
X186095238Y-27254819D02*
X186095238Y-26254819D01*
X186095238Y-26254819D02*
X186476190Y-26254819D01*
X186476190Y-26254819D02*
X186571428Y-26302438D01*
X186571428Y-26302438D02*
X186619047Y-26350057D01*
X186619047Y-26350057D02*
X186666666Y-26445295D01*
X186666666Y-26445295D02*
X186666666Y-26588152D01*
X186666666Y-26588152D02*
X186619047Y-26683390D01*
X186619047Y-26683390D02*
X186571428Y-26731009D01*
X186571428Y-26731009D02*
X186476190Y-26778628D01*
X186476190Y-26778628D02*
X186095238Y-26778628D01*
X187095238Y-26731009D02*
X187428571Y-26731009D01*
X187571428Y-27254819D02*
X187095238Y-27254819D01*
X187095238Y-27254819D02*
X187095238Y-26254819D01*
X187095238Y-26254819D02*
X187571428Y-26254819D01*
X188333333Y-26731009D02*
X188000000Y-26731009D01*
X188000000Y-27254819D02*
X188000000Y-26254819D01*
X188000000Y-26254819D02*
X188476190Y-26254819D01*
X189000000Y-26254819D02*
X189000000Y-26492914D01*
X188761905Y-26397676D02*
X189000000Y-26492914D01*
X189000000Y-26492914D02*
X189238095Y-26397676D01*
X188857143Y-26683390D02*
X189000000Y-26492914D01*
X189000000Y-26492914D02*
X189142857Y-26683390D01*
X189761905Y-26254819D02*
X189761905Y-26492914D01*
X189523810Y-26397676D02*
X189761905Y-26492914D01*
X189761905Y-26492914D02*
X190000000Y-26397676D01*
X189619048Y-26683390D02*
X189761905Y-26492914D01*
X189761905Y-26492914D02*
X189904762Y-26683390D01*
X66666666Y-147254819D02*
X66333333Y-146778628D01*
X66095238Y-147254819D02*
X66095238Y-146254819D01*
X66095238Y-146254819D02*
X66476190Y-146254819D01*
X66476190Y-146254819D02*
X66571428Y-146302438D01*
X66571428Y-146302438D02*
X66619047Y-146350057D01*
X66619047Y-146350057D02*
X66666666Y-146445295D01*
X66666666Y-146445295D02*
X66666666Y-146588152D01*
X66666666Y-146588152D02*
X66619047Y-146683390D01*
X66619047Y-146683390D02*
X66571428Y-146731009D01*
X66571428Y-146731009D02*
X66476190Y-146778628D01*
X66476190Y-146778628D02*
X66095238Y-146778628D01*
X67095238Y-146731009D02*
X67428571Y-146731009D01*
X67571428Y-147254819D02*
X67095238Y-147254819D01*
X67095238Y-147254819D02*
X67095238Y-146254819D01*
X67095238Y-146254819D02*
X67571428Y-146254819D01*
X68333333Y-146731009D02*
X68000000Y-146731009D01*
X68000000Y-147254819D02*
X68000000Y-146254819D01*
X68000000Y-146254819D02*
X68476190Y-146254819D01*
X69000000Y-146254819D02*
X69000000Y-146492914D01*
X68761905Y-146397676D02*
X69000000Y-146492914D01*
X69000000Y-146492914D02*
X69238095Y-146397676D01*
X68857143Y-146683390D02*
X69000000Y-146492914D01*
X69000000Y-146492914D02*
X69142857Y-146683390D01*
X69761905Y-146254819D02*
X69761905Y-146492914D01*
X69523810Y-146397676D02*
X69761905Y-146492914D01*
X69761905Y-146492914D02*
X70000000Y-146397676D01*
X69619048Y-146683390D02*
X69761905Y-146492914D01*
X69761905Y-146492914D02*
X69904762Y-146683390D01*
M02*
