M48
; DRILL file {KiCad 7.0.9} date Mon Jan  1 16:10:20 2024
; FORMAT={-:-/ absolute / metric / decimal}
; #@! TF.CreationDate,2024-01-01T16:10:20+05:30
; #@! TF.GenerationSoftware,Kicad,Pcbnew,7.0.9
; #@! TF.FileFunction,Plated,1,2,PTH
FMAT,2
METRIC
; #@! TA.AperFunction,Plated,PTH,ViaDrill
T1C0.400
; #@! TA.AperFunction,Plated,PTH,ViaDrill
T2C0.800
%
G90
G05
T1
X50.0Y-165.0
X52.0Y-165.0
X54.0Y-165.0
X56.0Y-165.0
X58.0Y-165.0
X60.0Y-165.0
X62.0Y-165.0
X64.0Y-165.0
X70.0Y-165.0
X72.0Y-165.0
X74.0Y-165.0
X76.0Y-165.0
X78.0Y-165.0
X80.0Y-165.0
X82.0Y-165.0
X84.0Y-165.0
X90.0Y-165.0
X92.0Y-165.0
X94.0Y-165.0
X96.0Y-165.0
X98.0Y-165.0
X100.0Y-165.0
X102.0Y-165.0
X104.0Y-165.0
X110.0Y-165.0
X112.0Y-165.0
X114.0Y-165.0
X116.0Y-165.0
X118.0Y-165.0
X120.0Y-165.0
X122.0Y-165.0
X124.0Y-165.0
X130.0Y-165.0
X132.0Y-165.0
X134.0Y-165.0
X136.0Y-165.0
X138.0Y-165.0
X140.0Y-165.0
X142.0Y-165.0
X144.0Y-165.0
X150.0Y-165.0
X152.0Y-165.0
X154.0Y-165.0
X156.0Y-165.0
X158.0Y-165.0
X160.0Y-165.0
X162.0Y-165.0
X164.0Y-165.0
X170.0Y-165.0
X172.0Y-165.0
X174.0Y-165.0
X176.0Y-165.0
X178.0Y-165.0
X180.0Y-165.0
X182.0Y-165.0
X184.0Y-165.0
X190.0Y-165.0
X192.0Y-165.0
X194.0Y-165.0
X196.0Y-165.0
X198.0Y-165.0
X200.0Y-165.0
X202.0Y-165.0
X204.0Y-165.0
X207.0Y-130.0
X207.0Y-132.0
X207.0Y-134.0
X207.0Y-136.0
X207.0Y-138.0
X207.0Y-140.0
X207.0Y-142.0
X207.0Y-144.0
X207.0Y-146.0
X207.0Y-148.0
X207.0Y-150.0
X207.0Y-152.0
X207.0Y-154.0
X207.0Y-156.0
X207.0Y-158.0
X207.0Y-160.0
T2
X50.0Y-20.0
X50.0Y-40.0
X50.0Y-60.0
X50.0Y-80.0
X50.0Y-100.0
X50.0Y-120.0
X50.0Y-140.0
X50.0Y-160.0
X70.0Y-20.0
X70.0Y-40.0
X70.0Y-60.0
X70.0Y-80.0
X70.0Y-100.0
X70.0Y-120.0
X70.0Y-140.0
X70.0Y-160.0
X90.0Y-20.0
X90.0Y-40.0
X90.0Y-60.0
X90.0Y-80.0
X90.0Y-100.0
X90.0Y-120.0
X90.0Y-140.0
X90.0Y-160.0
X110.0Y-20.0
X110.0Y-40.0
X110.0Y-60.0
X110.0Y-80.0
X110.0Y-100.0
X110.0Y-120.0
X110.0Y-140.0
X110.0Y-160.0
X130.0Y-20.0
X130.0Y-40.0
X130.0Y-60.0
X130.0Y-80.0
X130.0Y-100.0
X130.0Y-120.0
X130.0Y-140.0
X130.0Y-160.0
X150.0Y-20.0
X150.0Y-40.0
X150.0Y-60.0
X150.0Y-80.0
X150.0Y-100.0
X150.0Y-120.0
X150.0Y-140.0
X150.0Y-160.0
X170.0Y-20.0
X170.0Y-40.0
X170.0Y-60.0
X170.0Y-80.0
X170.0Y-100.0
X170.0Y-120.0
X170.0Y-140.0
X170.0Y-160.0
X190.0Y-20.0
X190.0Y-40.0
X190.0Y-60.0
X190.0Y-80.0
X190.0Y-100.0
X190.0Y-120.0
X190.0Y-140.0
X190.0Y-160.0
T0
M30
