%TF.GenerationSoftware,KiCad,Pcbnew,7.0.9*%
%TF.CreationDate,2024-01-05T09:16:21+05:30*%
%TF.ProjectId,Led_8x8Tower_Base,4c65645f-3878-4385-946f-7765725f4261,rev?*%
%TF.SameCoordinates,Original*%
%TF.FileFunction,Drillmap*%
%TF.FilePolarity,Positive*%
%FSLAX45Y45*%
G04 Gerber Fmt 4.5, Leading zero omitted, Abs format (unit mm)*
G04 Created by KiCad (PCBNEW 7.0.9) date 2024-01-05 09:16:21*
%MOMM*%
%LPD*%
G01*
G04 APERTURE LIST*
%ADD10C,0.100000*%
%ADD11C,0.200000*%
%ADD12C,0.210000*%
G04 APERTURE END LIST*
D10*
X4600000Y-1500000D02*
X4600000Y-16900000D01*
X4600000Y-16900000D02*
X21300000Y-16900000D01*
X21300000Y-16900000D02*
X21300000Y-1500000D01*
X21300000Y-1500000D02*
X4600000Y-1500000D01*
D11*
D12*
X6695000Y-2895000D02*
X6905000Y-3105000D01*
X6905000Y-2895000D02*
X6695000Y-3105000D01*
X6695000Y-14895000D02*
X6905000Y-15105000D01*
X6905000Y-14895000D02*
X6695000Y-15105000D01*
X12695000Y-2895000D02*
X12905000Y-3105000D01*
X12905000Y-2895000D02*
X12695000Y-3105000D01*
X12695000Y-14895000D02*
X12905000Y-15105000D01*
X12905000Y-14895000D02*
X12695000Y-15105000D01*
X18695000Y-2895000D02*
X18905000Y-3105000D01*
X18905000Y-2895000D02*
X18695000Y-3105000D01*
X18695000Y-14895000D02*
X18905000Y-15105000D01*
X18905000Y-14895000D02*
X18695000Y-15105000D01*
D11*
X4855777Y-17216484D02*
X4855777Y-17016484D01*
X4855777Y-17016484D02*
X4903396Y-17016484D01*
X4903396Y-17016484D02*
X4931967Y-17026008D01*
X4931967Y-17026008D02*
X4951015Y-17045055D01*
X4951015Y-17045055D02*
X4960539Y-17064103D01*
X4960539Y-17064103D02*
X4970063Y-17102198D01*
X4970063Y-17102198D02*
X4970063Y-17130770D01*
X4970063Y-17130770D02*
X4960539Y-17168865D01*
X4960539Y-17168865D02*
X4951015Y-17187912D01*
X4951015Y-17187912D02*
X4931967Y-17206960D01*
X4931967Y-17206960D02*
X4903396Y-17216484D01*
X4903396Y-17216484D02*
X4855777Y-17216484D01*
X5055777Y-17216484D02*
X5055777Y-17083150D01*
X5055777Y-17121246D02*
X5065301Y-17102198D01*
X5065301Y-17102198D02*
X5074824Y-17092674D01*
X5074824Y-17092674D02*
X5093872Y-17083150D01*
X5093872Y-17083150D02*
X5112920Y-17083150D01*
X5179586Y-17216484D02*
X5179586Y-17083150D01*
X5179586Y-17016484D02*
X5170063Y-17026008D01*
X5170063Y-17026008D02*
X5179586Y-17035531D01*
X5179586Y-17035531D02*
X5189110Y-17026008D01*
X5189110Y-17026008D02*
X5179586Y-17016484D01*
X5179586Y-17016484D02*
X5179586Y-17035531D01*
X5303396Y-17216484D02*
X5284348Y-17206960D01*
X5284348Y-17206960D02*
X5274824Y-17187912D01*
X5274824Y-17187912D02*
X5274824Y-17016484D01*
X5408158Y-17216484D02*
X5389110Y-17206960D01*
X5389110Y-17206960D02*
X5379586Y-17187912D01*
X5379586Y-17187912D02*
X5379586Y-17016484D01*
X5636729Y-17216484D02*
X5636729Y-17016484D01*
X5636729Y-17016484D02*
X5703396Y-17159341D01*
X5703396Y-17159341D02*
X5770062Y-17016484D01*
X5770062Y-17016484D02*
X5770062Y-17216484D01*
X5951015Y-17216484D02*
X5951015Y-17111722D01*
X5951015Y-17111722D02*
X5941491Y-17092674D01*
X5941491Y-17092674D02*
X5922443Y-17083150D01*
X5922443Y-17083150D02*
X5884348Y-17083150D01*
X5884348Y-17083150D02*
X5865301Y-17092674D01*
X5951015Y-17206960D02*
X5931967Y-17216484D01*
X5931967Y-17216484D02*
X5884348Y-17216484D01*
X5884348Y-17216484D02*
X5865301Y-17206960D01*
X5865301Y-17206960D02*
X5855777Y-17187912D01*
X5855777Y-17187912D02*
X5855777Y-17168865D01*
X5855777Y-17168865D02*
X5865301Y-17149817D01*
X5865301Y-17149817D02*
X5884348Y-17140293D01*
X5884348Y-17140293D02*
X5931967Y-17140293D01*
X5931967Y-17140293D02*
X5951015Y-17130770D01*
X6046253Y-17083150D02*
X6046253Y-17283150D01*
X6046253Y-17092674D02*
X6065301Y-17083150D01*
X6065301Y-17083150D02*
X6103396Y-17083150D01*
X6103396Y-17083150D02*
X6122443Y-17092674D01*
X6122443Y-17092674D02*
X6131967Y-17102198D01*
X6131967Y-17102198D02*
X6141491Y-17121246D01*
X6141491Y-17121246D02*
X6141491Y-17178389D01*
X6141491Y-17178389D02*
X6131967Y-17197436D01*
X6131967Y-17197436D02*
X6122443Y-17206960D01*
X6122443Y-17206960D02*
X6103396Y-17216484D01*
X6103396Y-17216484D02*
X6065301Y-17216484D01*
X6065301Y-17216484D02*
X6046253Y-17206960D01*
X6227205Y-17197436D02*
X6236729Y-17206960D01*
X6236729Y-17206960D02*
X6227205Y-17216484D01*
X6227205Y-17216484D02*
X6217682Y-17206960D01*
X6217682Y-17206960D02*
X6227205Y-17197436D01*
X6227205Y-17197436D02*
X6227205Y-17216484D01*
X6227205Y-17092674D02*
X6236729Y-17102198D01*
X6236729Y-17102198D02*
X6227205Y-17111722D01*
X6227205Y-17111722D02*
X6217682Y-17102198D01*
X6217682Y-17102198D02*
X6227205Y-17092674D01*
X6227205Y-17092674D02*
X6227205Y-17111722D01*
X4395000Y-17445000D02*
X4595000Y-17645000D01*
X4595000Y-17445000D02*
X4395000Y-17645000D01*
X4846253Y-17455531D02*
X4855777Y-17446008D01*
X4855777Y-17446008D02*
X4874824Y-17436484D01*
X4874824Y-17436484D02*
X4922444Y-17436484D01*
X4922444Y-17436484D02*
X4941491Y-17446008D01*
X4941491Y-17446008D02*
X4951015Y-17455531D01*
X4951015Y-17455531D02*
X4960539Y-17474579D01*
X4960539Y-17474579D02*
X4960539Y-17493627D01*
X4960539Y-17493627D02*
X4951015Y-17522198D01*
X4951015Y-17522198D02*
X4836729Y-17636484D01*
X4836729Y-17636484D02*
X4960539Y-17636484D01*
X5046253Y-17617436D02*
X5055777Y-17626960D01*
X5055777Y-17626960D02*
X5046253Y-17636484D01*
X5046253Y-17636484D02*
X5036729Y-17626960D01*
X5036729Y-17626960D02*
X5046253Y-17617436D01*
X5046253Y-17617436D02*
X5046253Y-17636484D01*
X5246253Y-17636484D02*
X5131967Y-17636484D01*
X5189110Y-17636484D02*
X5189110Y-17436484D01*
X5189110Y-17436484D02*
X5170063Y-17465055D01*
X5170063Y-17465055D02*
X5151015Y-17484103D01*
X5151015Y-17484103D02*
X5131967Y-17493627D01*
X5370063Y-17436484D02*
X5389110Y-17436484D01*
X5389110Y-17436484D02*
X5408158Y-17446008D01*
X5408158Y-17446008D02*
X5417682Y-17455531D01*
X5417682Y-17455531D02*
X5427205Y-17474579D01*
X5427205Y-17474579D02*
X5436729Y-17512674D01*
X5436729Y-17512674D02*
X5436729Y-17560293D01*
X5436729Y-17560293D02*
X5427205Y-17598389D01*
X5427205Y-17598389D02*
X5417682Y-17617436D01*
X5417682Y-17617436D02*
X5408158Y-17626960D01*
X5408158Y-17626960D02*
X5389110Y-17636484D01*
X5389110Y-17636484D02*
X5370063Y-17636484D01*
X5370063Y-17636484D02*
X5351015Y-17626960D01*
X5351015Y-17626960D02*
X5341491Y-17617436D01*
X5341491Y-17617436D02*
X5331967Y-17598389D01*
X5331967Y-17598389D02*
X5322444Y-17560293D01*
X5322444Y-17560293D02*
X5322444Y-17512674D01*
X5322444Y-17512674D02*
X5331967Y-17474579D01*
X5331967Y-17474579D02*
X5341491Y-17455531D01*
X5341491Y-17455531D02*
X5351015Y-17446008D01*
X5351015Y-17446008D02*
X5370063Y-17436484D01*
X5560539Y-17436484D02*
X5579586Y-17436484D01*
X5579586Y-17436484D02*
X5598634Y-17446008D01*
X5598634Y-17446008D02*
X5608158Y-17455531D01*
X5608158Y-17455531D02*
X5617682Y-17474579D01*
X5617682Y-17474579D02*
X5627205Y-17512674D01*
X5627205Y-17512674D02*
X5627205Y-17560293D01*
X5627205Y-17560293D02*
X5617682Y-17598389D01*
X5617682Y-17598389D02*
X5608158Y-17617436D01*
X5608158Y-17617436D02*
X5598634Y-17626960D01*
X5598634Y-17626960D02*
X5579586Y-17636484D01*
X5579586Y-17636484D02*
X5560539Y-17636484D01*
X5560539Y-17636484D02*
X5541491Y-17626960D01*
X5541491Y-17626960D02*
X5531967Y-17617436D01*
X5531967Y-17617436D02*
X5522444Y-17598389D01*
X5522444Y-17598389D02*
X5512920Y-17560293D01*
X5512920Y-17560293D02*
X5512920Y-17512674D01*
X5512920Y-17512674D02*
X5522444Y-17474579D01*
X5522444Y-17474579D02*
X5531967Y-17455531D01*
X5531967Y-17455531D02*
X5541491Y-17446008D01*
X5541491Y-17446008D02*
X5560539Y-17436484D01*
X5712920Y-17636484D02*
X5712920Y-17503150D01*
X5712920Y-17522198D02*
X5722443Y-17512674D01*
X5722443Y-17512674D02*
X5741491Y-17503150D01*
X5741491Y-17503150D02*
X5770063Y-17503150D01*
X5770063Y-17503150D02*
X5789110Y-17512674D01*
X5789110Y-17512674D02*
X5798634Y-17531722D01*
X5798634Y-17531722D02*
X5798634Y-17636484D01*
X5798634Y-17531722D02*
X5808158Y-17512674D01*
X5808158Y-17512674D02*
X5827205Y-17503150D01*
X5827205Y-17503150D02*
X5855777Y-17503150D01*
X5855777Y-17503150D02*
X5874824Y-17512674D01*
X5874824Y-17512674D02*
X5884348Y-17531722D01*
X5884348Y-17531722D02*
X5884348Y-17636484D01*
X5979586Y-17636484D02*
X5979586Y-17503150D01*
X5979586Y-17522198D02*
X5989110Y-17512674D01*
X5989110Y-17512674D02*
X6008158Y-17503150D01*
X6008158Y-17503150D02*
X6036729Y-17503150D01*
X6036729Y-17503150D02*
X6055777Y-17512674D01*
X6055777Y-17512674D02*
X6065301Y-17531722D01*
X6065301Y-17531722D02*
X6065301Y-17636484D01*
X6065301Y-17531722D02*
X6074824Y-17512674D01*
X6074824Y-17512674D02*
X6093872Y-17503150D01*
X6093872Y-17503150D02*
X6122443Y-17503150D01*
X6122443Y-17503150D02*
X6141491Y-17512674D01*
X6141491Y-17512674D02*
X6151015Y-17531722D01*
X6151015Y-17531722D02*
X6151015Y-17636484D01*
X6541491Y-17426960D02*
X6370063Y-17684103D01*
X6798634Y-17436484D02*
X6817682Y-17436484D01*
X6817682Y-17436484D02*
X6836729Y-17446008D01*
X6836729Y-17446008D02*
X6846253Y-17455531D01*
X6846253Y-17455531D02*
X6855777Y-17474579D01*
X6855777Y-17474579D02*
X6865301Y-17512674D01*
X6865301Y-17512674D02*
X6865301Y-17560293D01*
X6865301Y-17560293D02*
X6855777Y-17598389D01*
X6855777Y-17598389D02*
X6846253Y-17617436D01*
X6846253Y-17617436D02*
X6836729Y-17626960D01*
X6836729Y-17626960D02*
X6817682Y-17636484D01*
X6817682Y-17636484D02*
X6798634Y-17636484D01*
X6798634Y-17636484D02*
X6779586Y-17626960D01*
X6779586Y-17626960D02*
X6770063Y-17617436D01*
X6770063Y-17617436D02*
X6760539Y-17598389D01*
X6760539Y-17598389D02*
X6751015Y-17560293D01*
X6751015Y-17560293D02*
X6751015Y-17512674D01*
X6751015Y-17512674D02*
X6760539Y-17474579D01*
X6760539Y-17474579D02*
X6770063Y-17455531D01*
X6770063Y-17455531D02*
X6779586Y-17446008D01*
X6779586Y-17446008D02*
X6798634Y-17436484D01*
X6951015Y-17617436D02*
X6960539Y-17626960D01*
X6960539Y-17626960D02*
X6951015Y-17636484D01*
X6951015Y-17636484D02*
X6941491Y-17626960D01*
X6941491Y-17626960D02*
X6951015Y-17617436D01*
X6951015Y-17617436D02*
X6951015Y-17636484D01*
X7084348Y-17436484D02*
X7103396Y-17436484D01*
X7103396Y-17436484D02*
X7122444Y-17446008D01*
X7122444Y-17446008D02*
X7131967Y-17455531D01*
X7131967Y-17455531D02*
X7141491Y-17474579D01*
X7141491Y-17474579D02*
X7151015Y-17512674D01*
X7151015Y-17512674D02*
X7151015Y-17560293D01*
X7151015Y-17560293D02*
X7141491Y-17598389D01*
X7141491Y-17598389D02*
X7131967Y-17617436D01*
X7131967Y-17617436D02*
X7122444Y-17626960D01*
X7122444Y-17626960D02*
X7103396Y-17636484D01*
X7103396Y-17636484D02*
X7084348Y-17636484D01*
X7084348Y-17636484D02*
X7065301Y-17626960D01*
X7065301Y-17626960D02*
X7055777Y-17617436D01*
X7055777Y-17617436D02*
X7046253Y-17598389D01*
X7046253Y-17598389D02*
X7036729Y-17560293D01*
X7036729Y-17560293D02*
X7036729Y-17512674D01*
X7036729Y-17512674D02*
X7046253Y-17474579D01*
X7046253Y-17474579D02*
X7055777Y-17455531D01*
X7055777Y-17455531D02*
X7065301Y-17446008D01*
X7065301Y-17446008D02*
X7084348Y-17436484D01*
X7265301Y-17522198D02*
X7246253Y-17512674D01*
X7246253Y-17512674D02*
X7236729Y-17503150D01*
X7236729Y-17503150D02*
X7227206Y-17484103D01*
X7227206Y-17484103D02*
X7227206Y-17474579D01*
X7227206Y-17474579D02*
X7236729Y-17455531D01*
X7236729Y-17455531D02*
X7246253Y-17446008D01*
X7246253Y-17446008D02*
X7265301Y-17436484D01*
X7265301Y-17436484D02*
X7303396Y-17436484D01*
X7303396Y-17436484D02*
X7322444Y-17446008D01*
X7322444Y-17446008D02*
X7331967Y-17455531D01*
X7331967Y-17455531D02*
X7341491Y-17474579D01*
X7341491Y-17474579D02*
X7341491Y-17484103D01*
X7341491Y-17484103D02*
X7331967Y-17503150D01*
X7331967Y-17503150D02*
X7322444Y-17512674D01*
X7322444Y-17512674D02*
X7303396Y-17522198D01*
X7303396Y-17522198D02*
X7265301Y-17522198D01*
X7265301Y-17522198D02*
X7246253Y-17531722D01*
X7246253Y-17531722D02*
X7236729Y-17541246D01*
X7236729Y-17541246D02*
X7227206Y-17560293D01*
X7227206Y-17560293D02*
X7227206Y-17598389D01*
X7227206Y-17598389D02*
X7236729Y-17617436D01*
X7236729Y-17617436D02*
X7246253Y-17626960D01*
X7246253Y-17626960D02*
X7265301Y-17636484D01*
X7265301Y-17636484D02*
X7303396Y-17636484D01*
X7303396Y-17636484D02*
X7322444Y-17626960D01*
X7322444Y-17626960D02*
X7331967Y-17617436D01*
X7331967Y-17617436D02*
X7341491Y-17598389D01*
X7341491Y-17598389D02*
X7341491Y-17560293D01*
X7341491Y-17560293D02*
X7331967Y-17541246D01*
X7331967Y-17541246D02*
X7322444Y-17531722D01*
X7322444Y-17531722D02*
X7303396Y-17522198D01*
X7417682Y-17455531D02*
X7427206Y-17446008D01*
X7427206Y-17446008D02*
X7446253Y-17436484D01*
X7446253Y-17436484D02*
X7493872Y-17436484D01*
X7493872Y-17436484D02*
X7512920Y-17446008D01*
X7512920Y-17446008D02*
X7522444Y-17455531D01*
X7522444Y-17455531D02*
X7531967Y-17474579D01*
X7531967Y-17474579D02*
X7531967Y-17493627D01*
X7531967Y-17493627D02*
X7522444Y-17522198D01*
X7522444Y-17522198D02*
X7408158Y-17636484D01*
X7408158Y-17636484D02*
X7531967Y-17636484D01*
X7598634Y-17436484D02*
X7731967Y-17436484D01*
X7731967Y-17436484D02*
X7646253Y-17636484D01*
X7798634Y-17436484D02*
X7798634Y-17474579D01*
X7874825Y-17436484D02*
X7874825Y-17474579D01*
X8170063Y-17712674D02*
X8160539Y-17703150D01*
X8160539Y-17703150D02*
X8141491Y-17674579D01*
X8141491Y-17674579D02*
X8131968Y-17655531D01*
X8131968Y-17655531D02*
X8122444Y-17626960D01*
X8122444Y-17626960D02*
X8112920Y-17579341D01*
X8112920Y-17579341D02*
X8112920Y-17541246D01*
X8112920Y-17541246D02*
X8122444Y-17493627D01*
X8122444Y-17493627D02*
X8131968Y-17465055D01*
X8131968Y-17465055D02*
X8141491Y-17446008D01*
X8141491Y-17446008D02*
X8160539Y-17417436D01*
X8160539Y-17417436D02*
X8170063Y-17407912D01*
X8331968Y-17436484D02*
X8293872Y-17436484D01*
X8293872Y-17436484D02*
X8274825Y-17446008D01*
X8274825Y-17446008D02*
X8265301Y-17455531D01*
X8265301Y-17455531D02*
X8246253Y-17484103D01*
X8246253Y-17484103D02*
X8236729Y-17522198D01*
X8236729Y-17522198D02*
X8236729Y-17598389D01*
X8236729Y-17598389D02*
X8246253Y-17617436D01*
X8246253Y-17617436D02*
X8255777Y-17626960D01*
X8255777Y-17626960D02*
X8274825Y-17636484D01*
X8274825Y-17636484D02*
X8312920Y-17636484D01*
X8312920Y-17636484D02*
X8331968Y-17626960D01*
X8331968Y-17626960D02*
X8341491Y-17617436D01*
X8341491Y-17617436D02*
X8351015Y-17598389D01*
X8351015Y-17598389D02*
X8351015Y-17550770D01*
X8351015Y-17550770D02*
X8341491Y-17531722D01*
X8341491Y-17531722D02*
X8331968Y-17522198D01*
X8331968Y-17522198D02*
X8312920Y-17512674D01*
X8312920Y-17512674D02*
X8274825Y-17512674D01*
X8274825Y-17512674D02*
X8255777Y-17522198D01*
X8255777Y-17522198D02*
X8246253Y-17531722D01*
X8246253Y-17531722D02*
X8236729Y-17550770D01*
X8589111Y-17636484D02*
X8589111Y-17436484D01*
X8674825Y-17636484D02*
X8674825Y-17531722D01*
X8674825Y-17531722D02*
X8665301Y-17512674D01*
X8665301Y-17512674D02*
X8646253Y-17503150D01*
X8646253Y-17503150D02*
X8617682Y-17503150D01*
X8617682Y-17503150D02*
X8598634Y-17512674D01*
X8598634Y-17512674D02*
X8589111Y-17522198D01*
X8798634Y-17636484D02*
X8779587Y-17626960D01*
X8779587Y-17626960D02*
X8770063Y-17617436D01*
X8770063Y-17617436D02*
X8760539Y-17598389D01*
X8760539Y-17598389D02*
X8760539Y-17541246D01*
X8760539Y-17541246D02*
X8770063Y-17522198D01*
X8770063Y-17522198D02*
X8779587Y-17512674D01*
X8779587Y-17512674D02*
X8798634Y-17503150D01*
X8798634Y-17503150D02*
X8827206Y-17503150D01*
X8827206Y-17503150D02*
X8846253Y-17512674D01*
X8846253Y-17512674D02*
X8855777Y-17522198D01*
X8855777Y-17522198D02*
X8865301Y-17541246D01*
X8865301Y-17541246D02*
X8865301Y-17598389D01*
X8865301Y-17598389D02*
X8855777Y-17617436D01*
X8855777Y-17617436D02*
X8846253Y-17626960D01*
X8846253Y-17626960D02*
X8827206Y-17636484D01*
X8827206Y-17636484D02*
X8798634Y-17636484D01*
X8979587Y-17636484D02*
X8960539Y-17626960D01*
X8960539Y-17626960D02*
X8951015Y-17607912D01*
X8951015Y-17607912D02*
X8951015Y-17436484D01*
X9131968Y-17626960D02*
X9112920Y-17636484D01*
X9112920Y-17636484D02*
X9074825Y-17636484D01*
X9074825Y-17636484D02*
X9055777Y-17626960D01*
X9055777Y-17626960D02*
X9046253Y-17607912D01*
X9046253Y-17607912D02*
X9046253Y-17531722D01*
X9046253Y-17531722D02*
X9055777Y-17512674D01*
X9055777Y-17512674D02*
X9074825Y-17503150D01*
X9074825Y-17503150D02*
X9112920Y-17503150D01*
X9112920Y-17503150D02*
X9131968Y-17512674D01*
X9131968Y-17512674D02*
X9141492Y-17531722D01*
X9141492Y-17531722D02*
X9141492Y-17550770D01*
X9141492Y-17550770D02*
X9046253Y-17569817D01*
X9217682Y-17626960D02*
X9236730Y-17636484D01*
X9236730Y-17636484D02*
X9274825Y-17636484D01*
X9274825Y-17636484D02*
X9293873Y-17626960D01*
X9293873Y-17626960D02*
X9303396Y-17607912D01*
X9303396Y-17607912D02*
X9303396Y-17598389D01*
X9303396Y-17598389D02*
X9293873Y-17579341D01*
X9293873Y-17579341D02*
X9274825Y-17569817D01*
X9274825Y-17569817D02*
X9246253Y-17569817D01*
X9246253Y-17569817D02*
X9227206Y-17560293D01*
X9227206Y-17560293D02*
X9217682Y-17541246D01*
X9217682Y-17541246D02*
X9217682Y-17531722D01*
X9217682Y-17531722D02*
X9227206Y-17512674D01*
X9227206Y-17512674D02*
X9246253Y-17503150D01*
X9246253Y-17503150D02*
X9274825Y-17503150D01*
X9274825Y-17503150D02*
X9293873Y-17512674D01*
X9370063Y-17712674D02*
X9379587Y-17703150D01*
X9379587Y-17703150D02*
X9398634Y-17674579D01*
X9398634Y-17674579D02*
X9408158Y-17655531D01*
X9408158Y-17655531D02*
X9417682Y-17626960D01*
X9417682Y-17626960D02*
X9427206Y-17579341D01*
X9427206Y-17579341D02*
X9427206Y-17541246D01*
X9427206Y-17541246D02*
X9417682Y-17493627D01*
X9417682Y-17493627D02*
X9408158Y-17465055D01*
X9408158Y-17465055D02*
X9398634Y-17446008D01*
X9398634Y-17446008D02*
X9379587Y-17417436D01*
X9379587Y-17417436D02*
X9370063Y-17407912D01*
X9731968Y-17712674D02*
X9722444Y-17703150D01*
X9722444Y-17703150D02*
X9703396Y-17674579D01*
X9703396Y-17674579D02*
X9693873Y-17655531D01*
X9693873Y-17655531D02*
X9684349Y-17626960D01*
X9684349Y-17626960D02*
X9674825Y-17579341D01*
X9674825Y-17579341D02*
X9674825Y-17541246D01*
X9674825Y-17541246D02*
X9684349Y-17493627D01*
X9684349Y-17493627D02*
X9693873Y-17465055D01*
X9693873Y-17465055D02*
X9703396Y-17446008D01*
X9703396Y-17446008D02*
X9722444Y-17417436D01*
X9722444Y-17417436D02*
X9731968Y-17407912D01*
X9808158Y-17503150D02*
X9808158Y-17636484D01*
X9808158Y-17522198D02*
X9817682Y-17512674D01*
X9817682Y-17512674D02*
X9836730Y-17503150D01*
X9836730Y-17503150D02*
X9865301Y-17503150D01*
X9865301Y-17503150D02*
X9884349Y-17512674D01*
X9884349Y-17512674D02*
X9893873Y-17531722D01*
X9893873Y-17531722D02*
X9893873Y-17636484D01*
X10017682Y-17636484D02*
X9998634Y-17626960D01*
X9998634Y-17626960D02*
X9989111Y-17617436D01*
X9989111Y-17617436D02*
X9979587Y-17598389D01*
X9979587Y-17598389D02*
X9979587Y-17541246D01*
X9979587Y-17541246D02*
X9989111Y-17522198D01*
X9989111Y-17522198D02*
X9998634Y-17512674D01*
X9998634Y-17512674D02*
X10017682Y-17503150D01*
X10017682Y-17503150D02*
X10046254Y-17503150D01*
X10046254Y-17503150D02*
X10065301Y-17512674D01*
X10065301Y-17512674D02*
X10074825Y-17522198D01*
X10074825Y-17522198D02*
X10084349Y-17541246D01*
X10084349Y-17541246D02*
X10084349Y-17598389D01*
X10084349Y-17598389D02*
X10074825Y-17617436D01*
X10074825Y-17617436D02*
X10065301Y-17626960D01*
X10065301Y-17626960D02*
X10046254Y-17636484D01*
X10046254Y-17636484D02*
X10017682Y-17636484D01*
X10141492Y-17503150D02*
X10217682Y-17503150D01*
X10170063Y-17436484D02*
X10170063Y-17607912D01*
X10170063Y-17607912D02*
X10179587Y-17626960D01*
X10179587Y-17626960D02*
X10198634Y-17636484D01*
X10198634Y-17636484D02*
X10217682Y-17636484D01*
X10436730Y-17503150D02*
X10436730Y-17703150D01*
X10436730Y-17512674D02*
X10455777Y-17503150D01*
X10455777Y-17503150D02*
X10493873Y-17503150D01*
X10493873Y-17503150D02*
X10512920Y-17512674D01*
X10512920Y-17512674D02*
X10522444Y-17522198D01*
X10522444Y-17522198D02*
X10531968Y-17541246D01*
X10531968Y-17541246D02*
X10531968Y-17598389D01*
X10531968Y-17598389D02*
X10522444Y-17617436D01*
X10522444Y-17617436D02*
X10512920Y-17626960D01*
X10512920Y-17626960D02*
X10493873Y-17636484D01*
X10493873Y-17636484D02*
X10455777Y-17636484D01*
X10455777Y-17636484D02*
X10436730Y-17626960D01*
X10646254Y-17636484D02*
X10627206Y-17626960D01*
X10627206Y-17626960D02*
X10617682Y-17607912D01*
X10617682Y-17607912D02*
X10617682Y-17436484D01*
X10808158Y-17636484D02*
X10808158Y-17531722D01*
X10808158Y-17531722D02*
X10798635Y-17512674D01*
X10798635Y-17512674D02*
X10779587Y-17503150D01*
X10779587Y-17503150D02*
X10741492Y-17503150D01*
X10741492Y-17503150D02*
X10722444Y-17512674D01*
X10808158Y-17626960D02*
X10789111Y-17636484D01*
X10789111Y-17636484D02*
X10741492Y-17636484D01*
X10741492Y-17636484D02*
X10722444Y-17626960D01*
X10722444Y-17626960D02*
X10712920Y-17607912D01*
X10712920Y-17607912D02*
X10712920Y-17588865D01*
X10712920Y-17588865D02*
X10722444Y-17569817D01*
X10722444Y-17569817D02*
X10741492Y-17560293D01*
X10741492Y-17560293D02*
X10789111Y-17560293D01*
X10789111Y-17560293D02*
X10808158Y-17550770D01*
X10874825Y-17503150D02*
X10951015Y-17503150D01*
X10903396Y-17436484D02*
X10903396Y-17607912D01*
X10903396Y-17607912D02*
X10912920Y-17626960D01*
X10912920Y-17626960D02*
X10931968Y-17636484D01*
X10931968Y-17636484D02*
X10951015Y-17636484D01*
X11093873Y-17626960D02*
X11074825Y-17636484D01*
X11074825Y-17636484D02*
X11036730Y-17636484D01*
X11036730Y-17636484D02*
X11017682Y-17626960D01*
X11017682Y-17626960D02*
X11008158Y-17607912D01*
X11008158Y-17607912D02*
X11008158Y-17531722D01*
X11008158Y-17531722D02*
X11017682Y-17512674D01*
X11017682Y-17512674D02*
X11036730Y-17503150D01*
X11036730Y-17503150D02*
X11074825Y-17503150D01*
X11074825Y-17503150D02*
X11093873Y-17512674D01*
X11093873Y-17512674D02*
X11103396Y-17531722D01*
X11103396Y-17531722D02*
X11103396Y-17550770D01*
X11103396Y-17550770D02*
X11008158Y-17569817D01*
X11274825Y-17636484D02*
X11274825Y-17436484D01*
X11274825Y-17626960D02*
X11255777Y-17636484D01*
X11255777Y-17636484D02*
X11217682Y-17636484D01*
X11217682Y-17636484D02*
X11198634Y-17626960D01*
X11198634Y-17626960D02*
X11189111Y-17617436D01*
X11189111Y-17617436D02*
X11179587Y-17598389D01*
X11179587Y-17598389D02*
X11179587Y-17541246D01*
X11179587Y-17541246D02*
X11189111Y-17522198D01*
X11189111Y-17522198D02*
X11198634Y-17512674D01*
X11198634Y-17512674D02*
X11217682Y-17503150D01*
X11217682Y-17503150D02*
X11255777Y-17503150D01*
X11255777Y-17503150D02*
X11274825Y-17512674D01*
X11351015Y-17712674D02*
X11360539Y-17703150D01*
X11360539Y-17703150D02*
X11379587Y-17674579D01*
X11379587Y-17674579D02*
X11389111Y-17655531D01*
X11389111Y-17655531D02*
X11398634Y-17626960D01*
X11398634Y-17626960D02*
X11408158Y-17579341D01*
X11408158Y-17579341D02*
X11408158Y-17541246D01*
X11408158Y-17541246D02*
X11398634Y-17493627D01*
X11398634Y-17493627D02*
X11389111Y-17465055D01*
X11389111Y-17465055D02*
X11379587Y-17446008D01*
X11379587Y-17446008D02*
X11360539Y-17417436D01*
X11360539Y-17417436D02*
X11351015Y-17407912D01*
M02*
