%TF.GenerationSoftware,KiCad,Pcbnew,7.0.9*%
%TF.CreationDate,2023-12-13T10:58:27+05:30*%
%TF.ProjectId,Led_Cube_BaseControler,4c65645f-4375-4626-955f-42617365436f,rev?*%
%TF.SameCoordinates,Original*%
%TF.FileFunction,Soldermask,Top*%
%TF.FilePolarity,Negative*%
%FSLAX46Y46*%
G04 Gerber Fmt 4.6, Leading zero omitted, Abs format (unit mm)*
G04 Created by KiCad (PCBNEW 7.0.9) date 2023-12-13 10:58:27*
%MOMM*%
%LPD*%
G01*
G04 APERTURE LIST*
G04 Aperture macros list*
%AMRoundRect*
0 Rectangle with rounded corners*
0 $1 Rounding radius*
0 $2 $3 $4 $5 $6 $7 $8 $9 X,Y pos of 4 corners*
0 Add a 4 corners polygon primitive as box body*
4,1,4,$2,$3,$4,$5,$6,$7,$8,$9,$2,$3,0*
0 Add four circle primitives for the rounded corners*
1,1,$1+$1,$2,$3*
1,1,$1+$1,$4,$5*
1,1,$1+$1,$6,$7*
1,1,$1+$1,$8,$9*
0 Add four rect primitives between the rounded corners*
20,1,$1+$1,$2,$3,$4,$5,0*
20,1,$1+$1,$4,$5,$6,$7,0*
20,1,$1+$1,$6,$7,$8,$9,0*
20,1,$1+$1,$8,$9,$2,$3,0*%
G04 Aperture macros list end*
%ADD10C,1.400000*%
%ADD11O,1.400000X1.400000*%
%ADD12RoundRect,0.250000X0.725000X-0.600000X0.725000X0.600000X-0.725000X0.600000X-0.725000X-0.600000X0*%
%ADD13O,1.950000X1.700000*%
%ADD14RoundRect,0.250000X0.600000X0.725000X-0.600000X0.725000X-0.600000X-0.725000X0.600000X-0.725000X0*%
%ADD15O,1.700000X1.950000*%
%ADD16R,2.400000X1.600000*%
%ADD17O,2.400000X1.600000*%
%ADD18C,2.100000*%
%ADD19RoundRect,0.250000X-0.600000X-0.725000X0.600000X-0.725000X0.600000X0.725000X-0.600000X0.725000X0*%
%ADD20RoundRect,0.250000X-0.725000X0.600000X-0.725000X-0.600000X0.725000X-0.600000X0.725000X0.600000X0*%
G04 APERTURE END LIST*
D10*
%TO.C,R13*%
X53340000Y-60960000D03*
D11*
X53340000Y-66040000D03*
%TD*%
D10*
%TO.C,R31*%
X99060000Y-60960000D03*
D11*
X99060000Y-66040000D03*
%TD*%
D10*
%TO.C,R40*%
X121920000Y-60960000D03*
D11*
X121920000Y-66040000D03*
%TD*%
D10*
%TO.C,R44*%
X132080000Y-60960000D03*
D11*
X132080000Y-66040000D03*
%TD*%
D10*
%TO.C,R33*%
X104140000Y-60960000D03*
D11*
X104140000Y-66040000D03*
%TD*%
D10*
%TO.C,R59*%
X172210000Y-60960000D03*
D11*
X172210000Y-66040000D03*
%TD*%
D10*
%TO.C,R36*%
X111760000Y-60960000D03*
D11*
X111760000Y-66040000D03*
%TD*%
D12*
%TO.C,J6*%
X91440000Y-101320000D03*
D13*
X91440000Y-98820000D03*
X91440000Y-96320000D03*
X91440000Y-93820000D03*
X91440000Y-91320000D03*
X91440000Y-88820000D03*
X91440000Y-86320000D03*
X91440000Y-83820000D03*
%TD*%
D10*
%TO.C,R24*%
X81280000Y-60960000D03*
D11*
X81280000Y-66040000D03*
%TD*%
D10*
%TO.C,R32*%
X101600000Y-60960000D03*
D11*
X101600000Y-66040000D03*
%TD*%
D12*
%TO.C,J7*%
X111760000Y-101320000D03*
D13*
X111760000Y-98820000D03*
X111760000Y-96320000D03*
X111760000Y-93820000D03*
X111760000Y-91320000D03*
X111760000Y-88820000D03*
X111760000Y-86320000D03*
X111760000Y-83820000D03*
%TD*%
D10*
%TO.C,R26*%
X86360000Y-60960000D03*
D11*
X86360000Y-66040000D03*
%TD*%
D10*
%TO.C,R46*%
X137160000Y-60960000D03*
D11*
X137160000Y-66040000D03*
%TD*%
D10*
%TO.C,R22*%
X76200000Y-60960000D03*
D11*
X76200000Y-66040000D03*
%TD*%
D10*
%TO.C,R25*%
X83820000Y-60960000D03*
D11*
X83820000Y-66040000D03*
%TD*%
D10*
%TO.C,R34*%
X106680000Y-60960000D03*
D11*
X106680000Y-66040000D03*
%TD*%
D10*
%TO.C,R18*%
X66040000Y-60960000D03*
D11*
X66040000Y-66040000D03*
%TD*%
D10*
%TO.C,R52*%
X152400000Y-60960000D03*
D11*
X152400000Y-66040000D03*
%TD*%
D10*
%TO.C,R28*%
X91440000Y-60960000D03*
D11*
X91440000Y-66040000D03*
%TD*%
D12*
%TO.C,J5*%
X73660000Y-101360000D03*
D13*
X73660000Y-98860000D03*
X73660000Y-96360000D03*
X73660000Y-93860000D03*
X73660000Y-91360000D03*
X73660000Y-88860000D03*
X73660000Y-86360000D03*
X73660000Y-83860000D03*
%TD*%
D14*
%TO.C,J11*%
X129980000Y-18920000D03*
D15*
X127480000Y-18920000D03*
X124980000Y-18920000D03*
X122480000Y-18920000D03*
X119980000Y-18920000D03*
%TD*%
D10*
%TO.C,R60*%
X175360000Y-60960000D03*
D11*
X175360000Y-66040000D03*
%TD*%
D10*
%TO.C,R14*%
X55880000Y-60960000D03*
D11*
X55880000Y-66040000D03*
%TD*%
D16*
%TO.C,U3*%
X24115000Y-29225000D03*
D17*
X24115000Y-31765000D03*
X24115000Y-34305000D03*
X24115000Y-36845000D03*
X24115000Y-39385000D03*
X24115000Y-41925000D03*
X24115000Y-44465000D03*
X24115000Y-47005000D03*
X31735000Y-47005000D03*
X31735000Y-44465000D03*
X31735000Y-41925000D03*
X31735000Y-39385000D03*
X31735000Y-36845000D03*
X31735000Y-34305000D03*
X31735000Y-31765000D03*
X31735000Y-29225000D03*
%TD*%
D10*
%TO.C,R39*%
X119380000Y-60960000D03*
D11*
X119380000Y-66040000D03*
%TD*%
D10*
%TO.C,R20*%
X71120000Y-60960000D03*
D11*
X71120000Y-66040000D03*
%TD*%
D16*
%TO.C,U7*%
X149860000Y-27940000D03*
D17*
X149860000Y-30480000D03*
X149860000Y-33020000D03*
X149860000Y-35560000D03*
X149860000Y-38100000D03*
X149860000Y-40640000D03*
X149860000Y-43180000D03*
X149860000Y-45720000D03*
X157480000Y-45720000D03*
X157480000Y-43180000D03*
X157480000Y-40640000D03*
X157480000Y-38100000D03*
X157480000Y-35560000D03*
X157480000Y-33020000D03*
X157480000Y-30480000D03*
X157480000Y-27940000D03*
%TD*%
D10*
%TO.C,R1*%
X20420000Y-60960000D03*
D11*
X20420000Y-66040000D03*
%TD*%
D10*
%TO.C,R51*%
X149860000Y-60960000D03*
D11*
X149860000Y-66040000D03*
%TD*%
D16*
%TO.C,U8*%
X172720000Y-27940000D03*
D17*
X172720000Y-30480000D03*
X172720000Y-33020000D03*
X172720000Y-35560000D03*
X172720000Y-38100000D03*
X172720000Y-40640000D03*
X172720000Y-43180000D03*
X172720000Y-45720000D03*
X180340000Y-45720000D03*
X180340000Y-43180000D03*
X180340000Y-40640000D03*
X180340000Y-38100000D03*
X180340000Y-35560000D03*
X180340000Y-33020000D03*
X180340000Y-30480000D03*
X180340000Y-27940000D03*
%TD*%
D10*
%TO.C,R45*%
X134620000Y-60960000D03*
D11*
X134620000Y-66040000D03*
%TD*%
D16*
%TO.C,U6*%
X129540000Y-27940000D03*
D17*
X129540000Y-30480000D03*
X129540000Y-33020000D03*
X129540000Y-35560000D03*
X129540000Y-38100000D03*
X129540000Y-40640000D03*
X129540000Y-43180000D03*
X129540000Y-45720000D03*
X137160000Y-45720000D03*
X137160000Y-43180000D03*
X137160000Y-40640000D03*
X137160000Y-38100000D03*
X137160000Y-35560000D03*
X137160000Y-33020000D03*
X137160000Y-30480000D03*
X137160000Y-27940000D03*
%TD*%
D18*
%TO.C,REF\u002A\u002A*%
X20320000Y-101600000D03*
%TD*%
D10*
%TO.C,R56*%
X162560000Y-60960000D03*
D11*
X162560000Y-66040000D03*
%TD*%
D18*
%TO.C,REF\u002A\u002A*%
X187960000Y-17780000D03*
%TD*%
D10*
%TO.C,R11*%
X48260000Y-60960000D03*
D11*
X48260000Y-66040000D03*
%TD*%
D10*
%TO.C,R17*%
X63500000Y-60960000D03*
D11*
X63500000Y-66040000D03*
%TD*%
D10*
%TO.C,R47*%
X139700000Y-60960000D03*
D11*
X139700000Y-66040000D03*
%TD*%
D10*
%TO.C,R57*%
X165910000Y-60960000D03*
D11*
X165910000Y-66040000D03*
%TD*%
D10*
%TO.C,R49*%
X144780000Y-60960000D03*
D11*
X144780000Y-66040000D03*
%TD*%
D10*
%TO.C,R30*%
X96520000Y-60960000D03*
D11*
X96520000Y-66040000D03*
%TD*%
D10*
%TO.C,R8*%
X40640000Y-60960000D03*
D11*
X40640000Y-66040000D03*
%TD*%
D16*
%TO.C,U5*%
X109220000Y-27940000D03*
D17*
X109220000Y-30480000D03*
X109220000Y-33020000D03*
X109220000Y-35560000D03*
X109220000Y-38100000D03*
X109220000Y-40640000D03*
X109220000Y-43180000D03*
X109220000Y-45720000D03*
X116840000Y-45720000D03*
X116840000Y-43180000D03*
X116840000Y-40640000D03*
X116840000Y-38100000D03*
X116840000Y-35560000D03*
X116840000Y-33020000D03*
X116840000Y-30480000D03*
X116840000Y-27940000D03*
%TD*%
D10*
%TO.C,R21*%
X73660000Y-60960000D03*
D11*
X73660000Y-66040000D03*
%TD*%
D10*
%TO.C,R15*%
X58420000Y-60960000D03*
D11*
X58420000Y-66040000D03*
%TD*%
D12*
%TO.C,J9*%
X152400000Y-101320000D03*
D13*
X152400000Y-98820000D03*
X152400000Y-96320000D03*
X152400000Y-93820000D03*
X152400000Y-91320000D03*
X152400000Y-88820000D03*
X152400000Y-86320000D03*
X152400000Y-83820000D03*
%TD*%
D19*
%TO.C,J1*%
X100060000Y-17780000D03*
D15*
X102560000Y-17780000D03*
X105060000Y-17780000D03*
X107560000Y-17780000D03*
X110060000Y-17780000D03*
%TD*%
D10*
%TO.C,R35*%
X109220000Y-60960000D03*
D11*
X109220000Y-66040000D03*
%TD*%
D10*
%TO.C,R9*%
X43180000Y-60960000D03*
D11*
X43180000Y-66040000D03*
%TD*%
D10*
%TO.C,R7*%
X37490000Y-60960000D03*
D11*
X37490000Y-66040000D03*
%TD*%
D10*
%TO.C,R64*%
X187960000Y-60960000D03*
D11*
X187960000Y-66040000D03*
%TD*%
D10*
%TO.C,R41*%
X124460000Y-60960000D03*
D11*
X124460000Y-66040000D03*
%TD*%
D20*
%TO.C,J3*%
X35020000Y-83820000D03*
D13*
X35020000Y-86320000D03*
X35020000Y-88820000D03*
X35020000Y-91320000D03*
X35020000Y-93820000D03*
X35020000Y-96320000D03*
X35020000Y-98820000D03*
X35020000Y-101320000D03*
%TD*%
D10*
%TO.C,R50*%
X147320000Y-60960000D03*
D11*
X147320000Y-66040000D03*
%TD*%
D10*
%TO.C,R53*%
X154940000Y-60960000D03*
D11*
X154940000Y-66040000D03*
%TD*%
D16*
%TO.C,U4*%
X88900000Y-27940000D03*
D17*
X88900000Y-30480000D03*
X88900000Y-33020000D03*
X88900000Y-35560000D03*
X88900000Y-38100000D03*
X88900000Y-40640000D03*
X88900000Y-43180000D03*
X88900000Y-45720000D03*
X96520000Y-45720000D03*
X96520000Y-43180000D03*
X96520000Y-40640000D03*
X96520000Y-38100000D03*
X96520000Y-35560000D03*
X96520000Y-33020000D03*
X96520000Y-30480000D03*
X96520000Y-27940000D03*
%TD*%
D10*
%TO.C,R54*%
X157480000Y-60960000D03*
D11*
X157480000Y-66040000D03*
%TD*%
D10*
%TO.C,R3*%
X25500000Y-60960000D03*
D11*
X25500000Y-66040000D03*
%TD*%
D10*
%TO.C,R29*%
X93980000Y-60960000D03*
D11*
X93980000Y-66040000D03*
%TD*%
D10*
%TO.C,R43*%
X129540000Y-60960000D03*
D11*
X129540000Y-66040000D03*
%TD*%
D10*
%TO.C,R62*%
X181660000Y-60960000D03*
D11*
X181660000Y-66040000D03*
%TD*%
D10*
%TO.C,R27*%
X88900000Y-60960000D03*
D11*
X88900000Y-66040000D03*
%TD*%
D10*
%TO.C,R12*%
X50800000Y-60960000D03*
D11*
X50800000Y-66040000D03*
%TD*%
D10*
%TO.C,R4*%
X28040000Y-60960000D03*
D11*
X28040000Y-66040000D03*
%TD*%
D10*
%TO.C,R16*%
X60960000Y-60960000D03*
D11*
X60960000Y-66040000D03*
%TD*%
D10*
%TO.C,R48*%
X142240000Y-60960000D03*
D11*
X142240000Y-66040000D03*
%TD*%
D10*
%TO.C,R2*%
X22960000Y-60960000D03*
D11*
X22960000Y-66040000D03*
%TD*%
D16*
%TO.C,U1*%
X43180000Y-29225000D03*
D17*
X43180000Y-31765000D03*
X43180000Y-34305000D03*
X43180000Y-36845000D03*
X43180000Y-39385000D03*
X43180000Y-41925000D03*
X43180000Y-44465000D03*
X43180000Y-47005000D03*
X50800000Y-47005000D03*
X50800000Y-44465000D03*
X50800000Y-41925000D03*
X50800000Y-39385000D03*
X50800000Y-36845000D03*
X50800000Y-34305000D03*
X50800000Y-31765000D03*
X50800000Y-29225000D03*
%TD*%
D12*
%TO.C,J10*%
X172720000Y-101320000D03*
D13*
X172720000Y-98820000D03*
X172720000Y-96320000D03*
X172720000Y-93820000D03*
X172720000Y-91320000D03*
X172720000Y-88820000D03*
X172720000Y-86320000D03*
X172720000Y-83820000D03*
%TD*%
D10*
%TO.C,R23*%
X78740000Y-60960000D03*
D11*
X78740000Y-66040000D03*
%TD*%
D10*
%TO.C,R10*%
X45720000Y-60960000D03*
D11*
X45720000Y-66040000D03*
%TD*%
D10*
%TO.C,R61*%
X178510000Y-60960000D03*
D11*
X178510000Y-66040000D03*
%TD*%
D10*
%TO.C,R55*%
X160020000Y-60960000D03*
D11*
X160020000Y-66040000D03*
%TD*%
D10*
%TO.C,R42*%
X127000000Y-60960000D03*
D11*
X127000000Y-66040000D03*
%TD*%
D10*
%TO.C,R38*%
X116840000Y-60960000D03*
D11*
X116840000Y-66040000D03*
%TD*%
D18*
%TO.C,REF\u002A\u002A*%
X187960000Y-101600000D03*
%TD*%
D10*
%TO.C,R5*%
X31190000Y-60960000D03*
D11*
X31190000Y-66040000D03*
%TD*%
D10*
%TO.C,R58*%
X169060000Y-60960000D03*
D11*
X169060000Y-66040000D03*
%TD*%
D10*
%TO.C,R6*%
X34340000Y-60960000D03*
D11*
X34340000Y-66040000D03*
%TD*%
D18*
%TO.C,REF\u002A\u002A*%
X20320000Y-17780000D03*
%TD*%
D10*
%TO.C,R63*%
X184810000Y-60960000D03*
D11*
X184810000Y-66040000D03*
%TD*%
D12*
%TO.C,J8*%
X132080000Y-101320000D03*
D13*
X132080000Y-98820000D03*
X132080000Y-96320000D03*
X132080000Y-93820000D03*
X132080000Y-91320000D03*
X132080000Y-88820000D03*
X132080000Y-86320000D03*
X132080000Y-83820000D03*
%TD*%
D10*
%TO.C,R19*%
X68580000Y-60960000D03*
D11*
X68580000Y-66040000D03*
%TD*%
D16*
%TO.C,U2*%
X66040000Y-27940000D03*
D17*
X66040000Y-30480000D03*
X66040000Y-33020000D03*
X66040000Y-35560000D03*
X66040000Y-38100000D03*
X66040000Y-40640000D03*
X66040000Y-43180000D03*
X66040000Y-45720000D03*
X73660000Y-45720000D03*
X73660000Y-43180000D03*
X73660000Y-40640000D03*
X73660000Y-38100000D03*
X73660000Y-35560000D03*
X73660000Y-33020000D03*
X73660000Y-30480000D03*
X73660000Y-27940000D03*
%TD*%
D10*
%TO.C,R37*%
X114300000Y-60960000D03*
D11*
X114300000Y-66040000D03*
%TD*%
D12*
%TO.C,J4*%
X53340000Y-101320000D03*
D13*
X53340000Y-98820000D03*
X53340000Y-96320000D03*
X53340000Y-93820000D03*
X53340000Y-91320000D03*
X53340000Y-88820000D03*
X53340000Y-86320000D03*
X53340000Y-83820000D03*
%TD*%
M02*
