M48
; DRILL file {KiCad 7.0.9} date Wed Dec 13 10:58:18 2023
; FORMAT={-:-/ absolute / metric / decimal}
; #@! TF.CreationDate,2023-12-13T10:58:18+05:30
; #@! TF.GenerationSoftware,Kicad,Pcbnew,7.0.9
; #@! TF.FileFunction,Plated,1,2,PTH
FMAT,2
METRIC
; #@! TA.AperFunction,Plated,PTH,ViaDrill
T1C0.400
; #@! TA.AperFunction,Plated,PTH,ComponentDrill
T2C0.700
; #@! TA.AperFunction,Plated,PTH,ComponentDrill
T3C0.800
; #@! TA.AperFunction,Plated,PTH,ComponentDrill
T4C0.950
%
G90
G05
T1
X35.56Y-45.72
X35.56Y-48.26
X35.56Y-50.8
X35.56Y-53.34
X35.56Y-55.88
X40.64Y-22.86
X43.18Y-22.86
X55.88Y-45.72
X55.88Y-48.26
X55.88Y-50.8
X55.88Y-53.34
X55.88Y-55.88
X58.42Y-45.72
X58.42Y-48.26
X58.42Y-50.8
X58.42Y-53.34
X58.42Y-55.88
X78.74Y-45.72
X78.74Y-48.26
X78.74Y-50.8
X78.74Y-53.34
X78.74Y-55.88
X81.28Y-45.72
X81.28Y-48.26
X81.28Y-50.8
X81.28Y-53.34
X81.28Y-55.88
X96.52Y-22.86
X99.06Y-45.72
X99.06Y-48.26
X99.06Y-50.8
X99.06Y-53.34
X99.06Y-55.88
X101.6Y-45.72
X101.6Y-48.26
X101.6Y-50.8
X101.6Y-53.34
X101.6Y-55.88
X104.14Y-22.86
X114.3Y-22.86
X117.024Y-22.86
X119.38Y-45.72
X119.38Y-48.26
X119.38Y-50.8
X119.38Y-53.34
X119.38Y-55.88
X121.92Y-45.72
X121.92Y-48.26
X121.92Y-50.8
X121.92Y-53.34
X121.92Y-55.88
X139.7Y-45.72
X139.7Y-48.26
X139.7Y-50.8
X139.7Y-53.34
X139.7Y-55.88
X142.24Y-45.72
X142.24Y-48.26
X142.24Y-50.8
X142.24Y-53.34
X142.24Y-55.88
X160.02Y-45.72
X160.02Y-48.26
X160.02Y-50.8
X160.02Y-53.34
X160.02Y-55.88
X162.56Y-45.72
X162.56Y-48.26
X162.56Y-50.8
X162.56Y-53.34
X162.56Y-55.88
X185.42Y-45.72
X185.42Y-48.26
X185.42Y-50.8
X185.42Y-53.34
X185.42Y-55.88
T2
X20.42Y-60.96
X20.42Y-66.04
X22.96Y-60.96
X22.96Y-66.04
X25.5Y-60.96
X25.5Y-66.04
X28.04Y-60.96
X28.04Y-66.04
X31.19Y-60.96
X31.19Y-66.04
X34.34Y-60.96
X34.34Y-66.04
X37.49Y-60.96
X37.49Y-66.04
X40.64Y-60.96
X40.64Y-66.04
X43.18Y-60.96
X43.18Y-66.04
X45.72Y-60.96
X45.72Y-66.04
X48.26Y-60.96
X48.26Y-66.04
X50.8Y-60.96
X50.8Y-66.04
X53.34Y-60.96
X53.34Y-66.04
X55.88Y-60.96
X55.88Y-66.04
X58.42Y-60.96
X58.42Y-66.04
X60.96Y-60.96
X60.96Y-66.04
X63.5Y-60.96
X63.5Y-66.04
X66.04Y-60.96
X66.04Y-66.04
X68.58Y-60.96
X68.58Y-66.04
X71.12Y-60.96
X71.12Y-66.04
X73.66Y-60.96
X73.66Y-66.04
X76.2Y-60.96
X76.2Y-66.04
X78.74Y-60.96
X78.74Y-66.04
X81.28Y-60.96
X81.28Y-66.04
X83.82Y-60.96
X83.82Y-66.04
X86.36Y-60.96
X86.36Y-66.04
X88.9Y-60.96
X88.9Y-66.04
X91.44Y-60.96
X91.44Y-66.04
X93.98Y-60.96
X93.98Y-66.04
X96.52Y-60.96
X96.52Y-66.04
X99.06Y-60.96
X99.06Y-66.04
X101.6Y-60.96
X101.6Y-66.04
X104.14Y-60.96
X104.14Y-66.04
X106.68Y-60.96
X106.68Y-66.04
X109.22Y-60.96
X109.22Y-66.04
X111.76Y-60.96
X111.76Y-66.04
X114.3Y-60.96
X114.3Y-66.04
X116.84Y-60.96
X116.84Y-66.04
X119.38Y-60.96
X119.38Y-66.04
X121.92Y-60.96
X121.92Y-66.04
X124.46Y-60.96
X124.46Y-66.04
X127.0Y-60.96
X127.0Y-66.04
X129.54Y-60.96
X129.54Y-66.04
X132.08Y-60.96
X132.08Y-66.04
X134.62Y-60.96
X134.62Y-66.04
X137.16Y-60.96
X137.16Y-66.04
X139.7Y-60.96
X139.7Y-66.04
X142.24Y-60.96
X142.24Y-66.04
X144.78Y-60.96
X144.78Y-66.04
X147.32Y-60.96
X147.32Y-66.04
X149.86Y-60.96
X149.86Y-66.04
X152.4Y-60.96
X152.4Y-66.04
X154.94Y-60.96
X154.94Y-66.04
X157.48Y-60.96
X157.48Y-66.04
X160.02Y-60.96
X160.02Y-66.04
X162.56Y-60.96
X162.56Y-66.04
X165.91Y-60.96
X165.91Y-66.04
X169.06Y-60.96
X169.06Y-66.04
X172.21Y-60.96
X172.21Y-66.04
X175.36Y-60.96
X175.36Y-66.04
X178.51Y-60.96
X178.51Y-66.04
X181.66Y-60.96
X181.66Y-66.04
X184.81Y-60.96
X184.81Y-66.04
X187.96Y-60.96
X187.96Y-66.04
T3
X24.115Y-29.225
X24.115Y-31.765
X24.115Y-34.305
X24.115Y-36.845
X24.115Y-39.385
X24.115Y-41.925
X24.115Y-44.465
X24.115Y-47.005
X31.735Y-29.225
X31.735Y-31.765
X31.735Y-34.305
X31.735Y-36.845
X31.735Y-39.385
X31.735Y-41.925
X31.735Y-44.465
X31.735Y-47.005
X43.18Y-29.225
X43.18Y-31.765
X43.18Y-34.305
X43.18Y-36.845
X43.18Y-39.385
X43.18Y-41.925
X43.18Y-44.465
X43.18Y-47.005
X50.8Y-29.225
X50.8Y-31.765
X50.8Y-34.305
X50.8Y-36.845
X50.8Y-39.385
X50.8Y-41.925
X50.8Y-44.465
X50.8Y-47.005
X66.04Y-27.94
X66.04Y-30.48
X66.04Y-33.02
X66.04Y-35.56
X66.04Y-38.1
X66.04Y-40.64
X66.04Y-43.18
X66.04Y-45.72
X73.66Y-27.94
X73.66Y-30.48
X73.66Y-33.02
X73.66Y-35.56
X73.66Y-38.1
X73.66Y-40.64
X73.66Y-43.18
X73.66Y-45.72
X88.9Y-27.94
X88.9Y-30.48
X88.9Y-33.02
X88.9Y-35.56
X88.9Y-38.1
X88.9Y-40.64
X88.9Y-43.18
X88.9Y-45.72
X96.52Y-27.94
X96.52Y-30.48
X96.52Y-33.02
X96.52Y-35.56
X96.52Y-38.1
X96.52Y-40.64
X96.52Y-43.18
X96.52Y-45.72
X109.22Y-27.94
X109.22Y-30.48
X109.22Y-33.02
X109.22Y-35.56
X109.22Y-38.1
X109.22Y-40.64
X109.22Y-43.18
X109.22Y-45.72
X116.84Y-27.94
X116.84Y-30.48
X116.84Y-33.02
X116.84Y-35.56
X116.84Y-38.1
X116.84Y-40.64
X116.84Y-43.18
X116.84Y-45.72
X129.54Y-27.94
X129.54Y-30.48
X129.54Y-33.02
X129.54Y-35.56
X129.54Y-38.1
X129.54Y-40.64
X129.54Y-43.18
X129.54Y-45.72
X137.16Y-27.94
X137.16Y-30.48
X137.16Y-33.02
X137.16Y-35.56
X137.16Y-38.1
X137.16Y-40.64
X137.16Y-43.18
X137.16Y-45.72
X149.86Y-27.94
X149.86Y-30.48
X149.86Y-33.02
X149.86Y-35.56
X149.86Y-38.1
X149.86Y-40.64
X149.86Y-43.18
X149.86Y-45.72
X157.48Y-27.94
X157.48Y-30.48
X157.48Y-33.02
X157.48Y-35.56
X157.48Y-38.1
X157.48Y-40.64
X157.48Y-43.18
X157.48Y-45.72
X172.72Y-27.94
X172.72Y-30.48
X172.72Y-33.02
X172.72Y-35.56
X172.72Y-38.1
X172.72Y-40.64
X172.72Y-43.18
X172.72Y-45.72
X180.34Y-27.94
X180.34Y-30.48
X180.34Y-33.02
X180.34Y-35.56
X180.34Y-38.1
X180.34Y-40.64
X180.34Y-43.18
X180.34Y-45.72
T4
X35.02Y-83.82
X35.02Y-86.32
X35.02Y-88.82
X35.02Y-91.32
X35.02Y-93.82
X35.02Y-96.32
X35.02Y-98.82
X35.02Y-101.32
X53.34Y-83.82
X53.34Y-86.32
X53.34Y-88.82
X53.34Y-91.32
X53.34Y-93.82
X53.34Y-96.32
X53.34Y-98.82
X53.34Y-101.32
X73.66Y-83.86
X73.66Y-86.36
X73.66Y-88.86
X73.66Y-91.36
X73.66Y-93.86
X73.66Y-96.36
X73.66Y-98.86
X73.66Y-101.36
X91.44Y-83.82
X91.44Y-86.32
X91.44Y-88.82
X91.44Y-91.32
X91.44Y-93.82
X91.44Y-96.32
X91.44Y-98.82
X91.44Y-101.32
X100.06Y-17.78
X102.56Y-17.78
X105.06Y-17.78
X107.56Y-17.78
X110.06Y-17.78
X111.76Y-83.82
X111.76Y-86.32
X111.76Y-88.82
X111.76Y-91.32
X111.76Y-93.82
X111.76Y-96.32
X111.76Y-98.82
X111.76Y-101.32
X119.98Y-18.92
X122.48Y-18.92
X124.98Y-18.92
X127.48Y-18.92
X129.98Y-18.92
X132.08Y-83.82
X132.08Y-86.32
X132.08Y-88.82
X132.08Y-91.32
X132.08Y-93.82
X132.08Y-96.32
X132.08Y-98.82
X132.08Y-101.32
X152.4Y-83.82
X152.4Y-86.32
X152.4Y-88.82
X152.4Y-91.32
X152.4Y-93.82
X152.4Y-96.32
X152.4Y-98.82
X152.4Y-101.32
X172.72Y-83.82
X172.72Y-86.32
X172.72Y-88.82
X172.72Y-91.32
X172.72Y-93.82
X172.72Y-96.32
X172.72Y-98.82
X172.72Y-101.32
T0
M30
