%TF.GenerationSoftware,KiCad,Pcbnew,7.0.9*%
%TF.CreationDate,2023-12-13T10:58:26+05:30*%
%TF.ProjectId,Led_Cube_BaseControler,4c65645f-4375-4626-955f-42617365436f,rev?*%
%TF.SameCoordinates,Original*%
%TF.FileFunction,Copper,L2,Bot*%
%TF.FilePolarity,Positive*%
%FSLAX46Y46*%
G04 Gerber Fmt 4.6, Leading zero omitted, Abs format (unit mm)*
G04 Created by KiCad (PCBNEW 7.0.9) date 2023-12-13 10:58:26*
%MOMM*%
%LPD*%
G01*
G04 APERTURE LIST*
G04 Aperture macros list*
%AMRoundRect*
0 Rectangle with rounded corners*
0 $1 Rounding radius*
0 $2 $3 $4 $5 $6 $7 $8 $9 X,Y pos of 4 corners*
0 Add a 4 corners polygon primitive as box body*
4,1,4,$2,$3,$4,$5,$6,$7,$8,$9,$2,$3,0*
0 Add four circle primitives for the rounded corners*
1,1,$1+$1,$2,$3*
1,1,$1+$1,$4,$5*
1,1,$1+$1,$6,$7*
1,1,$1+$1,$8,$9*
0 Add four rect primitives between the rounded corners*
20,1,$1+$1,$2,$3,$4,$5,0*
20,1,$1+$1,$4,$5,$6,$7,0*
20,1,$1+$1,$6,$7,$8,$9,0*
20,1,$1+$1,$8,$9,$2,$3,0*%
G04 Aperture macros list end*
%TA.AperFunction,ComponentPad*%
%ADD10C,1.400000*%
%TD*%
%TA.AperFunction,ComponentPad*%
%ADD11O,1.400000X1.400000*%
%TD*%
%TA.AperFunction,ComponentPad*%
%ADD12RoundRect,0.250000X0.725000X-0.600000X0.725000X0.600000X-0.725000X0.600000X-0.725000X-0.600000X0*%
%TD*%
%TA.AperFunction,ComponentPad*%
%ADD13O,1.950000X1.700000*%
%TD*%
%TA.AperFunction,ComponentPad*%
%ADD14RoundRect,0.250000X0.600000X0.725000X-0.600000X0.725000X-0.600000X-0.725000X0.600000X-0.725000X0*%
%TD*%
%TA.AperFunction,ComponentPad*%
%ADD15O,1.700000X1.950000*%
%TD*%
%TA.AperFunction,ComponentPad*%
%ADD16R,2.400000X1.600000*%
%TD*%
%TA.AperFunction,ComponentPad*%
%ADD17O,2.400000X1.600000*%
%TD*%
%TA.AperFunction,ComponentPad*%
%ADD18RoundRect,0.250000X-0.600000X-0.725000X0.600000X-0.725000X0.600000X0.725000X-0.600000X0.725000X0*%
%TD*%
%TA.AperFunction,ComponentPad*%
%ADD19RoundRect,0.250000X-0.725000X0.600000X-0.725000X-0.600000X0.725000X-0.600000X0.725000X0.600000X0*%
%TD*%
%TA.AperFunction,ViaPad*%
%ADD20C,0.800000*%
%TD*%
G04 APERTURE END LIST*
D10*
%TO.P,R13,1*%
%TO.N,Net-(U1-QE)*%
X53340000Y-60960000D03*
D11*
%TO.P,R13,2*%
%TO.N,Net-(J4-Pin_4)*%
X53340000Y-66040000D03*
%TD*%
D10*
%TO.P,R31,1*%
%TO.N,Net-(U4-QG)*%
X99060000Y-60960000D03*
D11*
%TO.P,R31,2*%
%TO.N,Net-(J6-Pin_2)*%
X99060000Y-66040000D03*
%TD*%
D10*
%TO.P,R40,1*%
%TO.N,Net-(U5-QH)*%
X121920000Y-60960000D03*
D11*
%TO.P,R40,2*%
%TO.N,Net-(J7-Pin_1)*%
X121920000Y-66040000D03*
%TD*%
D10*
%TO.P,R44,1*%
%TO.N,Net-(U6-QD)*%
X132080000Y-60960000D03*
D11*
%TO.P,R44,2*%
%TO.N,Net-(J8-Pin_5)*%
X132080000Y-66040000D03*
%TD*%
D10*
%TO.P,R33,1*%
%TO.N,Net-(U5-QA)*%
X104140000Y-60960000D03*
D11*
%TO.P,R33,2*%
%TO.N,Net-(J7-Pin_8)*%
X104140000Y-66040000D03*
%TD*%
D10*
%TO.P,R59,1*%
%TO.N,Net-(U8-QC)*%
X172210000Y-60960000D03*
D11*
%TO.P,R59,2*%
%TO.N,Net-(J10-Pin_6)*%
X172210000Y-66040000D03*
%TD*%
D10*
%TO.P,R36,1*%
%TO.N,Net-(U5-QD)*%
X111760000Y-60960000D03*
D11*
%TO.P,R36,2*%
%TO.N,Net-(J7-Pin_5)*%
X111760000Y-66040000D03*
%TD*%
D12*
%TO.P,J6,1,Pin_1*%
%TO.N,Net-(J6-Pin_1)*%
X91440000Y-101320000D03*
D13*
%TO.P,J6,2,Pin_2*%
%TO.N,Net-(J6-Pin_2)*%
X91440000Y-98820000D03*
%TO.P,J6,3,Pin_3*%
%TO.N,Net-(J6-Pin_3)*%
X91440000Y-96320000D03*
%TO.P,J6,4,Pin_4*%
%TO.N,Net-(J6-Pin_4)*%
X91440000Y-93820000D03*
%TO.P,J6,5,Pin_5*%
%TO.N,Net-(J6-Pin_5)*%
X91440000Y-91320000D03*
%TO.P,J6,6,Pin_6*%
%TO.N,Net-(J6-Pin_6)*%
X91440000Y-88820000D03*
%TO.P,J6,7,Pin_7*%
%TO.N,Net-(J6-Pin_7)*%
X91440000Y-86320000D03*
%TO.P,J6,8,Pin_8*%
%TO.N,Net-(J6-Pin_8)*%
X91440000Y-83820000D03*
%TD*%
D10*
%TO.P,R24,1*%
%TO.N,Net-(U2-QH)*%
X81280000Y-60960000D03*
D11*
%TO.P,R24,2*%
%TO.N,Net-(J5-Pin_1)*%
X81280000Y-66040000D03*
%TD*%
D10*
%TO.P,R32,1*%
%TO.N,Net-(U4-QH)*%
X101600000Y-60960000D03*
D11*
%TO.P,R32,2*%
%TO.N,Net-(J6-Pin_1)*%
X101600000Y-66040000D03*
%TD*%
D12*
%TO.P,J7,1,Pin_1*%
%TO.N,Net-(J7-Pin_1)*%
X111760000Y-101320000D03*
D13*
%TO.P,J7,2,Pin_2*%
%TO.N,Net-(J7-Pin_2)*%
X111760000Y-98820000D03*
%TO.P,J7,3,Pin_3*%
%TO.N,Net-(J7-Pin_3)*%
X111760000Y-96320000D03*
%TO.P,J7,4,Pin_4*%
%TO.N,Net-(J7-Pin_4)*%
X111760000Y-93820000D03*
%TO.P,J7,5,Pin_5*%
%TO.N,Net-(J7-Pin_5)*%
X111760000Y-91320000D03*
%TO.P,J7,6,Pin_6*%
%TO.N,Net-(J7-Pin_6)*%
X111760000Y-88820000D03*
%TO.P,J7,7,Pin_7*%
%TO.N,Net-(J7-Pin_7)*%
X111760000Y-86320000D03*
%TO.P,J7,8,Pin_8*%
%TO.N,Net-(J7-Pin_8)*%
X111760000Y-83820000D03*
%TD*%
D10*
%TO.P,R26,1*%
%TO.N,Net-(U4-QB)*%
X86360000Y-60960000D03*
D11*
%TO.P,R26,2*%
%TO.N,Net-(J6-Pin_7)*%
X86360000Y-66040000D03*
%TD*%
D10*
%TO.P,R46,1*%
%TO.N,Net-(U6-QF)*%
X137160000Y-60960000D03*
D11*
%TO.P,R46,2*%
%TO.N,Net-(J8-Pin_3)*%
X137160000Y-66040000D03*
%TD*%
D10*
%TO.P,R22,1*%
%TO.N,Net-(U2-QF)*%
X76200000Y-60960000D03*
D11*
%TO.P,R22,2*%
%TO.N,Net-(J5-Pin_3)*%
X76200000Y-66040000D03*
%TD*%
D10*
%TO.P,R25,1*%
%TO.N,Net-(U4-QA)*%
X83820000Y-60960000D03*
D11*
%TO.P,R25,2*%
%TO.N,Net-(J6-Pin_8)*%
X83820000Y-66040000D03*
%TD*%
D10*
%TO.P,R34,1*%
%TO.N,Net-(U5-QB)*%
X106680000Y-60960000D03*
D11*
%TO.P,R34,2*%
%TO.N,Net-(J7-Pin_7)*%
X106680000Y-66040000D03*
%TD*%
D10*
%TO.P,R18,1*%
%TO.N,Net-(U2-QB)*%
X66040000Y-60960000D03*
D11*
%TO.P,R18,2*%
%TO.N,Net-(J5-Pin_7)*%
X66040000Y-66040000D03*
%TD*%
D10*
%TO.P,R52,1*%
%TO.N,Net-(U7-QD)*%
X152400000Y-60960000D03*
D11*
%TO.P,R52,2*%
%TO.N,Net-(J9-Pin_5)*%
X152400000Y-66040000D03*
%TD*%
D10*
%TO.P,R28,1*%
%TO.N,Net-(U4-QD)*%
X91440000Y-60960000D03*
D11*
%TO.P,R28,2*%
%TO.N,Net-(J6-Pin_5)*%
X91440000Y-66040000D03*
%TD*%
D12*
%TO.P,J5,1,Pin_1*%
%TO.N,Net-(J5-Pin_1)*%
X73660000Y-101360000D03*
D13*
%TO.P,J5,2,Pin_2*%
%TO.N,Net-(J5-Pin_2)*%
X73660000Y-98860000D03*
%TO.P,J5,3,Pin_3*%
%TO.N,Net-(J5-Pin_3)*%
X73660000Y-96360000D03*
%TO.P,J5,4,Pin_4*%
%TO.N,Net-(J5-Pin_4)*%
X73660000Y-93860000D03*
%TO.P,J5,5,Pin_5*%
%TO.N,Net-(J5-Pin_5)*%
X73660000Y-91360000D03*
%TO.P,J5,6,Pin_6*%
%TO.N,Net-(J5-Pin_6)*%
X73660000Y-88860000D03*
%TO.P,J5,7,Pin_7*%
%TO.N,Net-(J5-Pin_7)*%
X73660000Y-86360000D03*
%TO.P,J5,8,Pin_8*%
%TO.N,Net-(J5-Pin_8)*%
X73660000Y-83860000D03*
%TD*%
D14*
%TO.P,J11,1,Pin_1*%
%TO.N,Net-(J11-Pin_1)*%
X129980000Y-18920000D03*
D15*
%TO.P,J11,2,Pin_2*%
%TO.N,Net-(J1-Pin_2)*%
X127480000Y-18920000D03*
%TO.P,J11,3,Pin_3*%
%TO.N,Net-(J1-Pin_3)*%
X124980000Y-18920000D03*
%TO.P,J11,4,Pin_4*%
%TO.N,Net-(J1-Pin_4)*%
X122480000Y-18920000D03*
%TO.P,J11,5*%
%TO.N,N/C*%
X119980000Y-18920000D03*
%TD*%
D10*
%TO.P,R60,1*%
%TO.N,Net-(U8-QD)*%
X175360000Y-60960000D03*
D11*
%TO.P,R60,2*%
%TO.N,Net-(J10-Pin_5)*%
X175360000Y-66040000D03*
%TD*%
D10*
%TO.P,R14,1*%
%TO.N,Net-(U1-QF)*%
X55880000Y-60960000D03*
D11*
%TO.P,R14,2*%
%TO.N,Net-(J4-Pin_3)*%
X55880000Y-66040000D03*
%TD*%
D16*
%TO.P,U3,1,QB*%
%TO.N,Net-(U3-QB)*%
X24115000Y-29225000D03*
D17*
%TO.P,U3,2,QC*%
%TO.N,Net-(U3-QC)*%
X24115000Y-31765000D03*
%TO.P,U3,3,QD*%
%TO.N,Net-(U3-QD)*%
X24115000Y-34305000D03*
%TO.P,U3,4,QE*%
%TO.N,Net-(U3-QE)*%
X24115000Y-36845000D03*
%TO.P,U3,5,QF*%
%TO.N,Net-(U3-QF)*%
X24115000Y-39385000D03*
%TO.P,U3,6,QG*%
%TO.N,Net-(U3-QG)*%
X24115000Y-41925000D03*
%TO.P,U3,7,QH*%
%TO.N,Net-(U3-QH)*%
X24115000Y-44465000D03*
%TO.P,U3,8,GND*%
%TO.N,Net-(J1-Pin_5)*%
X24115000Y-47005000D03*
%TO.P,U3,9,QH'*%
%TO.N,Net-(U1-SER)*%
X31735000Y-47005000D03*
%TO.P,U3,10,~{SRCLR}*%
%TO.N,Net-(J1-Pin_4)*%
X31735000Y-44465000D03*
%TO.P,U3,11,SRCLK*%
%TO.N,Net-(J1-Pin_2)*%
X31735000Y-41925000D03*
%TO.P,U3,12,RCLK*%
%TO.N,Net-(J1-Pin_3)*%
X31735000Y-39385000D03*
%TO.P,U3,13,~{OE}*%
%TO.N,Net-(J1-Pin_5)*%
X31735000Y-36845000D03*
%TO.P,U3,14,SER*%
%TO.N,Net-(J1-Pin_1)*%
X31735000Y-34305000D03*
%TO.P,U3,15,QA*%
%TO.N,Net-(U3-QA)*%
X31735000Y-31765000D03*
%TO.P,U3,16,VCC*%
%TO.N,Net-(J1-Pin_6)*%
X31735000Y-29225000D03*
%TD*%
D10*
%TO.P,R39,1*%
%TO.N,Net-(U5-QG)*%
X119380000Y-60960000D03*
D11*
%TO.P,R39,2*%
%TO.N,Net-(J7-Pin_2)*%
X119380000Y-66040000D03*
%TD*%
D10*
%TO.P,R20,1*%
%TO.N,Net-(U2-QD)*%
X71120000Y-60960000D03*
D11*
%TO.P,R20,2*%
%TO.N,Net-(J5-Pin_5)*%
X71120000Y-66040000D03*
%TD*%
D16*
%TO.P,U7,1,QB*%
%TO.N,Net-(U7-QB)*%
X149860000Y-27940000D03*
D17*
%TO.P,U7,2,QC*%
%TO.N,Net-(U7-QC)*%
X149860000Y-30480000D03*
%TO.P,U7,3,QD*%
%TO.N,Net-(U7-QD)*%
X149860000Y-33020000D03*
%TO.P,U7,4,QE*%
%TO.N,Net-(U7-QE)*%
X149860000Y-35560000D03*
%TO.P,U7,5,QF*%
%TO.N,Net-(U7-QF)*%
X149860000Y-38100000D03*
%TO.P,U7,6,QG*%
%TO.N,Net-(U7-QG)*%
X149860000Y-40640000D03*
%TO.P,U7,7,QH*%
%TO.N,Net-(U7-QH)*%
X149860000Y-43180000D03*
%TO.P,U7,8,GND*%
%TO.N,Net-(J1-Pin_5)*%
X149860000Y-45720000D03*
%TO.P,U7,9,QH'*%
%TO.N,Net-(U7-QH')*%
X157480000Y-45720000D03*
%TO.P,U7,10,~{SRCLR}*%
%TO.N,Net-(J1-Pin_4)*%
X157480000Y-43180000D03*
%TO.P,U7,11,SRCLK*%
%TO.N,Net-(J1-Pin_2)*%
X157480000Y-40640000D03*
%TO.P,U7,12,RCLK*%
%TO.N,Net-(J1-Pin_3)*%
X157480000Y-38100000D03*
%TO.P,U7,13,~{OE}*%
%TO.N,Net-(J1-Pin_5)*%
X157480000Y-35560000D03*
%TO.P,U7,14,SER*%
%TO.N,Net-(U6-QH')*%
X157480000Y-33020000D03*
%TO.P,U7,15,QA*%
%TO.N,Net-(U7-QA)*%
X157480000Y-30480000D03*
%TO.P,U7,16,VCC*%
%TO.N,Net-(J1-Pin_6)*%
X157480000Y-27940000D03*
%TD*%
D10*
%TO.P,R1,1*%
%TO.N,Net-(U3-QA)*%
X20420000Y-60960000D03*
D11*
%TO.P,R1,2*%
%TO.N,Net-(J3-Pin_1)*%
X20420000Y-66040000D03*
%TD*%
D10*
%TO.P,R51,1*%
%TO.N,Net-(U7-QC)*%
X149860000Y-60960000D03*
D11*
%TO.P,R51,2*%
%TO.N,Net-(J9-Pin_6)*%
X149860000Y-66040000D03*
%TD*%
D16*
%TO.P,U8,1,QB*%
%TO.N,Net-(U8-QB)*%
X172720000Y-27940000D03*
D17*
%TO.P,U8,2,QC*%
%TO.N,Net-(U8-QC)*%
X172720000Y-30480000D03*
%TO.P,U8,3,QD*%
%TO.N,Net-(U8-QD)*%
X172720000Y-33020000D03*
%TO.P,U8,4,QE*%
%TO.N,Net-(U8-QE)*%
X172720000Y-35560000D03*
%TO.P,U8,5,QF*%
%TO.N,Net-(U8-QF)*%
X172720000Y-38100000D03*
%TO.P,U8,6,QG*%
%TO.N,Net-(U8-QG)*%
X172720000Y-40640000D03*
%TO.P,U8,7,QH*%
%TO.N,Net-(U8-QH)*%
X172720000Y-43180000D03*
%TO.P,U8,8,GND*%
%TO.N,Net-(J1-Pin_5)*%
X172720000Y-45720000D03*
%TO.P,U8,9,QH'*%
%TO.N,Net-(J11-Pin_1)*%
X180340000Y-45720000D03*
%TO.P,U8,10,~{SRCLR}*%
%TO.N,Net-(J1-Pin_4)*%
X180340000Y-43180000D03*
%TO.P,U8,11,SRCLK*%
%TO.N,Net-(J1-Pin_2)*%
X180340000Y-40640000D03*
%TO.P,U8,12,RCLK*%
%TO.N,Net-(J1-Pin_3)*%
X180340000Y-38100000D03*
%TO.P,U8,13,~{OE}*%
%TO.N,Net-(J1-Pin_5)*%
X180340000Y-35560000D03*
%TO.P,U8,14,SER*%
%TO.N,Net-(U7-QH')*%
X180340000Y-33020000D03*
%TO.P,U8,15,QA*%
%TO.N,Net-(U8-QA)*%
X180340000Y-30480000D03*
%TO.P,U8,16,VCC*%
%TO.N,Net-(J1-Pin_6)*%
X180340000Y-27940000D03*
%TD*%
D10*
%TO.P,R45,1*%
%TO.N,Net-(U6-QE)*%
X134620000Y-60960000D03*
D11*
%TO.P,R45,2*%
%TO.N,Net-(J8-Pin_4)*%
X134620000Y-66040000D03*
%TD*%
D16*
%TO.P,U6,1,QB*%
%TO.N,Net-(U6-QB)*%
X129540000Y-27940000D03*
D17*
%TO.P,U6,2,QC*%
%TO.N,Net-(U6-QC)*%
X129540000Y-30480000D03*
%TO.P,U6,3,QD*%
%TO.N,Net-(U6-QD)*%
X129540000Y-33020000D03*
%TO.P,U6,4,QE*%
%TO.N,Net-(U6-QE)*%
X129540000Y-35560000D03*
%TO.P,U6,5,QF*%
%TO.N,Net-(U6-QF)*%
X129540000Y-38100000D03*
%TO.P,U6,6,QG*%
%TO.N,Net-(U6-QG)*%
X129540000Y-40640000D03*
%TO.P,U6,7,QH*%
%TO.N,Net-(U6-QH)*%
X129540000Y-43180000D03*
%TO.P,U6,8,GND*%
%TO.N,Net-(J1-Pin_5)*%
X129540000Y-45720000D03*
%TO.P,U6,9,QH'*%
%TO.N,Net-(U6-QH')*%
X137160000Y-45720000D03*
%TO.P,U6,10,~{SRCLR}*%
%TO.N,Net-(J1-Pin_4)*%
X137160000Y-43180000D03*
%TO.P,U6,11,SRCLK*%
%TO.N,Net-(J1-Pin_2)*%
X137160000Y-40640000D03*
%TO.P,U6,12,RCLK*%
%TO.N,Net-(J1-Pin_3)*%
X137160000Y-38100000D03*
%TO.P,U6,13,~{OE}*%
%TO.N,Net-(J1-Pin_5)*%
X137160000Y-35560000D03*
%TO.P,U6,14,SER*%
%TO.N,Net-(U5-QH')*%
X137160000Y-33020000D03*
%TO.P,U6,15,QA*%
%TO.N,Net-(U6-QA)*%
X137160000Y-30480000D03*
%TO.P,U6,16,VCC*%
%TO.N,Net-(J1-Pin_6)*%
X137160000Y-27940000D03*
%TD*%
D10*
%TO.P,R56,1*%
%TO.N,Net-(U7-QH)*%
X162560000Y-60960000D03*
D11*
%TO.P,R56,2*%
%TO.N,Net-(J9-Pin_1)*%
X162560000Y-66040000D03*
%TD*%
D10*
%TO.P,R11,1*%
%TO.N,Net-(U1-QC)*%
X48260000Y-60960000D03*
D11*
%TO.P,R11,2*%
%TO.N,Net-(J4-Pin_6)*%
X48260000Y-66040000D03*
%TD*%
D10*
%TO.P,R17,1*%
%TO.N,Net-(U2-QA)*%
X63500000Y-60960000D03*
D11*
%TO.P,R17,2*%
%TO.N,Net-(J5-Pin_8)*%
X63500000Y-66040000D03*
%TD*%
D10*
%TO.P,R47,1*%
%TO.N,Net-(U6-QG)*%
X139700000Y-60960000D03*
D11*
%TO.P,R47,2*%
%TO.N,Net-(J8-Pin_2)*%
X139700000Y-66040000D03*
%TD*%
D10*
%TO.P,R57,1*%
%TO.N,Net-(U8-QA)*%
X165910000Y-60960000D03*
D11*
%TO.P,R57,2*%
%TO.N,Net-(J10-Pin_8)*%
X165910000Y-66040000D03*
%TD*%
D10*
%TO.P,R49,1*%
%TO.N,Net-(U7-QA)*%
X144780000Y-60960000D03*
D11*
%TO.P,R49,2*%
%TO.N,Net-(J9-Pin_8)*%
X144780000Y-66040000D03*
%TD*%
D10*
%TO.P,R30,1*%
%TO.N,Net-(U4-QF)*%
X96520000Y-60960000D03*
D11*
%TO.P,R30,2*%
%TO.N,Net-(J6-Pin_3)*%
X96520000Y-66040000D03*
%TD*%
D10*
%TO.P,R8,1*%
%TO.N,Net-(U3-QH)*%
X40640000Y-60960000D03*
D11*
%TO.P,R8,2*%
%TO.N,Net-(J3-Pin_8)*%
X40640000Y-66040000D03*
%TD*%
D16*
%TO.P,U5,1,QB*%
%TO.N,Net-(U5-QB)*%
X109220000Y-27940000D03*
D17*
%TO.P,U5,2,QC*%
%TO.N,Net-(U5-QC)*%
X109220000Y-30480000D03*
%TO.P,U5,3,QD*%
%TO.N,Net-(U5-QD)*%
X109220000Y-33020000D03*
%TO.P,U5,4,QE*%
%TO.N,Net-(U5-QE)*%
X109220000Y-35560000D03*
%TO.P,U5,5,QF*%
%TO.N,Net-(U5-QF)*%
X109220000Y-38100000D03*
%TO.P,U5,6,QG*%
%TO.N,Net-(U5-QG)*%
X109220000Y-40640000D03*
%TO.P,U5,7,QH*%
%TO.N,Net-(U5-QH)*%
X109220000Y-43180000D03*
%TO.P,U5,8,GND*%
%TO.N,Net-(J1-Pin_5)*%
X109220000Y-45720000D03*
%TO.P,U5,9,QH'*%
%TO.N,Net-(U5-QH')*%
X116840000Y-45720000D03*
%TO.P,U5,10,~{SRCLR}*%
%TO.N,Net-(J1-Pin_4)*%
X116840000Y-43180000D03*
%TO.P,U5,11,SRCLK*%
%TO.N,Net-(J1-Pin_2)*%
X116840000Y-40640000D03*
%TO.P,U5,12,RCLK*%
%TO.N,Net-(J1-Pin_3)*%
X116840000Y-38100000D03*
%TO.P,U5,13,~{OE}*%
%TO.N,Net-(J1-Pin_5)*%
X116840000Y-35560000D03*
%TO.P,U5,14,SER*%
%TO.N,Net-(U4-QH')*%
X116840000Y-33020000D03*
%TO.P,U5,15,QA*%
%TO.N,Net-(U5-QA)*%
X116840000Y-30480000D03*
%TO.P,U5,16,VCC*%
%TO.N,Net-(J1-Pin_6)*%
X116840000Y-27940000D03*
%TD*%
D10*
%TO.P,R21,1*%
%TO.N,Net-(U2-QE)*%
X73660000Y-60960000D03*
D11*
%TO.P,R21,2*%
%TO.N,Net-(J5-Pin_4)*%
X73660000Y-66040000D03*
%TD*%
D10*
%TO.P,R15,1*%
%TO.N,Net-(U1-QG)*%
X58420000Y-60960000D03*
D11*
%TO.P,R15,2*%
%TO.N,Net-(J4-Pin_2)*%
X58420000Y-66040000D03*
%TD*%
D12*
%TO.P,J9,1,Pin_1*%
%TO.N,Net-(J9-Pin_1)*%
X152400000Y-101320000D03*
D13*
%TO.P,J9,2,Pin_2*%
%TO.N,Net-(J9-Pin_2)*%
X152400000Y-98820000D03*
%TO.P,J9,3,Pin_3*%
%TO.N,Net-(J9-Pin_3)*%
X152400000Y-96320000D03*
%TO.P,J9,4,Pin_4*%
%TO.N,Net-(J9-Pin_4)*%
X152400000Y-93820000D03*
%TO.P,J9,5,Pin_5*%
%TO.N,Net-(J9-Pin_5)*%
X152400000Y-91320000D03*
%TO.P,J9,6,Pin_6*%
%TO.N,Net-(J9-Pin_6)*%
X152400000Y-88820000D03*
%TO.P,J9,7,Pin_7*%
%TO.N,Net-(J9-Pin_7)*%
X152400000Y-86320000D03*
%TO.P,J9,8,Pin_8*%
%TO.N,Net-(J9-Pin_8)*%
X152400000Y-83820000D03*
%TD*%
D18*
%TO.P,J1,1,Pin_1*%
%TO.N,Net-(J1-Pin_1)*%
X100060000Y-17780000D03*
D15*
%TO.P,J1,2,Pin_2*%
%TO.N,Net-(J1-Pin_2)*%
X102560000Y-17780000D03*
%TO.P,J1,3,Pin_3*%
%TO.N,Net-(J1-Pin_3)*%
X105060000Y-17780000D03*
%TO.P,J1,4,Pin_4*%
%TO.N,Net-(J1-Pin_4)*%
X107560000Y-17780000D03*
%TO.P,J1,5,Pin_5*%
%TO.N,Net-(J1-Pin_5)*%
X110060000Y-17780000D03*
%TD*%
D10*
%TO.P,R35,1*%
%TO.N,Net-(U5-QC)*%
X109220000Y-60960000D03*
D11*
%TO.P,R35,2*%
%TO.N,Net-(J7-Pin_6)*%
X109220000Y-66040000D03*
%TD*%
D10*
%TO.P,R9,1*%
%TO.N,Net-(U1-QA)*%
X43180000Y-60960000D03*
D11*
%TO.P,R9,2*%
%TO.N,Net-(J4-Pin_8)*%
X43180000Y-66040000D03*
%TD*%
D10*
%TO.P,R7,1*%
%TO.N,Net-(U3-QG)*%
X37490000Y-60960000D03*
D11*
%TO.P,R7,2*%
%TO.N,Net-(J3-Pin_7)*%
X37490000Y-66040000D03*
%TD*%
D10*
%TO.P,R64,1*%
%TO.N,Net-(U8-QH)*%
X187960000Y-60960000D03*
D11*
%TO.P,R64,2*%
%TO.N,Net-(J10-Pin_1)*%
X187960000Y-66040000D03*
%TD*%
D10*
%TO.P,R41,1*%
%TO.N,Net-(U6-QA)*%
X124460000Y-60960000D03*
D11*
%TO.P,R41,2*%
%TO.N,Net-(J8-Pin_8)*%
X124460000Y-66040000D03*
%TD*%
D19*
%TO.P,J3,1,Pin_1*%
%TO.N,Net-(J3-Pin_1)*%
X35020000Y-83820000D03*
D13*
%TO.P,J3,2,Pin_2*%
%TO.N,Net-(J3-Pin_2)*%
X35020000Y-86320000D03*
%TO.P,J3,3,Pin_3*%
%TO.N,Net-(J3-Pin_3)*%
X35020000Y-88820000D03*
%TO.P,J3,4,Pin_4*%
%TO.N,Net-(J3-Pin_4)*%
X35020000Y-91320000D03*
%TO.P,J3,5,Pin_5*%
%TO.N,Net-(J3-Pin_5)*%
X35020000Y-93820000D03*
%TO.P,J3,6,Pin_6*%
%TO.N,Net-(J3-Pin_6)*%
X35020000Y-96320000D03*
%TO.P,J3,7,Pin_7*%
%TO.N,Net-(J3-Pin_7)*%
X35020000Y-98820000D03*
%TO.P,J3,8,Pin_8*%
%TO.N,Net-(J3-Pin_8)*%
X35020000Y-101320000D03*
%TD*%
D10*
%TO.P,R50,1*%
%TO.N,Net-(U7-QB)*%
X147320000Y-60960000D03*
D11*
%TO.P,R50,2*%
%TO.N,Net-(J9-Pin_7)*%
X147320000Y-66040000D03*
%TD*%
D10*
%TO.P,R53,1*%
%TO.N,Net-(U7-QE)*%
X154940000Y-60960000D03*
D11*
%TO.P,R53,2*%
%TO.N,Net-(J9-Pin_4)*%
X154940000Y-66040000D03*
%TD*%
D16*
%TO.P,U4,1,QB*%
%TO.N,Net-(U4-QB)*%
X88900000Y-27940000D03*
D17*
%TO.P,U4,2,QC*%
%TO.N,Net-(U4-QC)*%
X88900000Y-30480000D03*
%TO.P,U4,3,QD*%
%TO.N,Net-(U4-QD)*%
X88900000Y-33020000D03*
%TO.P,U4,4,QE*%
%TO.N,Net-(U4-QE)*%
X88900000Y-35560000D03*
%TO.P,U4,5,QF*%
%TO.N,Net-(U4-QF)*%
X88900000Y-38100000D03*
%TO.P,U4,6,QG*%
%TO.N,Net-(U4-QG)*%
X88900000Y-40640000D03*
%TO.P,U4,7,QH*%
%TO.N,Net-(U4-QH)*%
X88900000Y-43180000D03*
%TO.P,U4,8,GND*%
%TO.N,Net-(J1-Pin_5)*%
X88900000Y-45720000D03*
%TO.P,U4,9,QH'*%
%TO.N,Net-(U4-QH')*%
X96520000Y-45720000D03*
%TO.P,U4,10,~{SRCLR}*%
%TO.N,Net-(J1-Pin_4)*%
X96520000Y-43180000D03*
%TO.P,U4,11,SRCLK*%
%TO.N,Net-(J1-Pin_2)*%
X96520000Y-40640000D03*
%TO.P,U4,12,RCLK*%
%TO.N,Net-(J1-Pin_3)*%
X96520000Y-38100000D03*
%TO.P,U4,13,~{OE}*%
%TO.N,Net-(J1-Pin_5)*%
X96520000Y-35560000D03*
%TO.P,U4,14,SER*%
%TO.N,Net-(U2-QH')*%
X96520000Y-33020000D03*
%TO.P,U4,15,QA*%
%TO.N,Net-(U4-QA)*%
X96520000Y-30480000D03*
%TO.P,U4,16,VCC*%
%TO.N,Net-(J1-Pin_6)*%
X96520000Y-27940000D03*
%TD*%
D10*
%TO.P,R54,1*%
%TO.N,Net-(U7-QF)*%
X157480000Y-60960000D03*
D11*
%TO.P,R54,2*%
%TO.N,Net-(J9-Pin_3)*%
X157480000Y-66040000D03*
%TD*%
D10*
%TO.P,R3,1*%
%TO.N,Net-(U3-QC)*%
X25500000Y-60960000D03*
D11*
%TO.P,R3,2*%
%TO.N,Net-(J3-Pin_3)*%
X25500000Y-66040000D03*
%TD*%
D10*
%TO.P,R29,1*%
%TO.N,Net-(U4-QE)*%
X93980000Y-60960000D03*
D11*
%TO.P,R29,2*%
%TO.N,Net-(J6-Pin_4)*%
X93980000Y-66040000D03*
%TD*%
D10*
%TO.P,R43,1*%
%TO.N,Net-(U6-QC)*%
X129540000Y-60960000D03*
D11*
%TO.P,R43,2*%
%TO.N,Net-(J8-Pin_6)*%
X129540000Y-66040000D03*
%TD*%
D10*
%TO.P,R62,1*%
%TO.N,Net-(U8-QF)*%
X181660000Y-60960000D03*
D11*
%TO.P,R62,2*%
%TO.N,Net-(J10-Pin_3)*%
X181660000Y-66040000D03*
%TD*%
D10*
%TO.P,R27,1*%
%TO.N,Net-(U4-QC)*%
X88900000Y-60960000D03*
D11*
%TO.P,R27,2*%
%TO.N,Net-(J6-Pin_6)*%
X88900000Y-66040000D03*
%TD*%
D10*
%TO.P,R12,1*%
%TO.N,Net-(U1-QD)*%
X50800000Y-60960000D03*
D11*
%TO.P,R12,2*%
%TO.N,Net-(J4-Pin_5)*%
X50800000Y-66040000D03*
%TD*%
D10*
%TO.P,R4,1*%
%TO.N,Net-(U3-QD)*%
X28040000Y-60960000D03*
D11*
%TO.P,R4,2*%
%TO.N,Net-(J3-Pin_4)*%
X28040000Y-66040000D03*
%TD*%
D10*
%TO.P,R16,1*%
%TO.N,Net-(U1-QH)*%
X60960000Y-60960000D03*
D11*
%TO.P,R16,2*%
%TO.N,Net-(J4-Pin_1)*%
X60960000Y-66040000D03*
%TD*%
D10*
%TO.P,R48,1*%
%TO.N,Net-(U6-QH)*%
X142240000Y-60960000D03*
D11*
%TO.P,R48,2*%
%TO.N,Net-(J8-Pin_1)*%
X142240000Y-66040000D03*
%TD*%
D10*
%TO.P,R2,1*%
%TO.N,Net-(U3-QB)*%
X22960000Y-60960000D03*
D11*
%TO.P,R2,2*%
%TO.N,Net-(J3-Pin_2)*%
X22960000Y-66040000D03*
%TD*%
D16*
%TO.P,U1,1,QB*%
%TO.N,Net-(U1-QB)*%
X43180000Y-29225000D03*
D17*
%TO.P,U1,2,QC*%
%TO.N,Net-(U1-QC)*%
X43180000Y-31765000D03*
%TO.P,U1,3,QD*%
%TO.N,Net-(U1-QD)*%
X43180000Y-34305000D03*
%TO.P,U1,4,QE*%
%TO.N,Net-(U1-QE)*%
X43180000Y-36845000D03*
%TO.P,U1,5,QF*%
%TO.N,Net-(U1-QF)*%
X43180000Y-39385000D03*
%TO.P,U1,6,QG*%
%TO.N,Net-(U1-QG)*%
X43180000Y-41925000D03*
%TO.P,U1,7,QH*%
%TO.N,Net-(U1-QH)*%
X43180000Y-44465000D03*
%TO.P,U1,8,GND*%
%TO.N,Net-(J1-Pin_5)*%
X43180000Y-47005000D03*
%TO.P,U1,9,QH'*%
%TO.N,Net-(U1-QH')*%
X50800000Y-47005000D03*
%TO.P,U1,10,~{SRCLR}*%
%TO.N,Net-(J1-Pin_4)*%
X50800000Y-44465000D03*
%TO.P,U1,11,SRCLK*%
%TO.N,Net-(J1-Pin_2)*%
X50800000Y-41925000D03*
%TO.P,U1,12,RCLK*%
%TO.N,Net-(J1-Pin_3)*%
X50800000Y-39385000D03*
%TO.P,U1,13,~{OE}*%
%TO.N,Net-(J1-Pin_5)*%
X50800000Y-36845000D03*
%TO.P,U1,14,SER*%
%TO.N,Net-(U1-SER)*%
X50800000Y-34305000D03*
%TO.P,U1,15,QA*%
%TO.N,Net-(U1-QA)*%
X50800000Y-31765000D03*
%TO.P,U1,16,VCC*%
%TO.N,Net-(J1-Pin_6)*%
X50800000Y-29225000D03*
%TD*%
D12*
%TO.P,J10,1,Pin_1*%
%TO.N,Net-(J10-Pin_1)*%
X172720000Y-101320000D03*
D13*
%TO.P,J10,2,Pin_2*%
%TO.N,Net-(J10-Pin_2)*%
X172720000Y-98820000D03*
%TO.P,J10,3,Pin_3*%
%TO.N,Net-(J10-Pin_3)*%
X172720000Y-96320000D03*
%TO.P,J10,4,Pin_4*%
%TO.N,Net-(J10-Pin_4)*%
X172720000Y-93820000D03*
%TO.P,J10,5,Pin_5*%
%TO.N,Net-(J10-Pin_5)*%
X172720000Y-91320000D03*
%TO.P,J10,6,Pin_6*%
%TO.N,Net-(J10-Pin_6)*%
X172720000Y-88820000D03*
%TO.P,J10,7,Pin_7*%
%TO.N,Net-(J10-Pin_7)*%
X172720000Y-86320000D03*
%TO.P,J10,8,Pin_8*%
%TO.N,Net-(J10-Pin_8)*%
X172720000Y-83820000D03*
%TD*%
D10*
%TO.P,R23,1*%
%TO.N,Net-(U2-QG)*%
X78740000Y-60960000D03*
D11*
%TO.P,R23,2*%
%TO.N,Net-(J5-Pin_2)*%
X78740000Y-66040000D03*
%TD*%
D10*
%TO.P,R10,1*%
%TO.N,Net-(U1-QB)*%
X45720000Y-60960000D03*
D11*
%TO.P,R10,2*%
%TO.N,Net-(J4-Pin_7)*%
X45720000Y-66040000D03*
%TD*%
D10*
%TO.P,R61,1*%
%TO.N,Net-(U8-QE)*%
X178510000Y-60960000D03*
D11*
%TO.P,R61,2*%
%TO.N,Net-(J10-Pin_4)*%
X178510000Y-66040000D03*
%TD*%
D10*
%TO.P,R55,1*%
%TO.N,Net-(U7-QG)*%
X160020000Y-60960000D03*
D11*
%TO.P,R55,2*%
%TO.N,Net-(J9-Pin_2)*%
X160020000Y-66040000D03*
%TD*%
D10*
%TO.P,R42,1*%
%TO.N,Net-(U6-QB)*%
X127000000Y-60960000D03*
D11*
%TO.P,R42,2*%
%TO.N,Net-(J8-Pin_7)*%
X127000000Y-66040000D03*
%TD*%
D10*
%TO.P,R38,1*%
%TO.N,Net-(U5-QF)*%
X116840000Y-60960000D03*
D11*
%TO.P,R38,2*%
%TO.N,Net-(J7-Pin_3)*%
X116840000Y-66040000D03*
%TD*%
D10*
%TO.P,R5,1*%
%TO.N,Net-(U3-QE)*%
X31190000Y-60960000D03*
D11*
%TO.P,R5,2*%
%TO.N,Net-(J3-Pin_5)*%
X31190000Y-66040000D03*
%TD*%
D10*
%TO.P,R58,1*%
%TO.N,Net-(U8-QB)*%
X169060000Y-60960000D03*
D11*
%TO.P,R58,2*%
%TO.N,Net-(J10-Pin_7)*%
X169060000Y-66040000D03*
%TD*%
D10*
%TO.P,R6,1*%
%TO.N,Net-(U3-QF)*%
X34340000Y-60960000D03*
D11*
%TO.P,R6,2*%
%TO.N,Net-(J3-Pin_6)*%
X34340000Y-66040000D03*
%TD*%
D10*
%TO.P,R63,1*%
%TO.N,Net-(U8-QG)*%
X184810000Y-60960000D03*
D11*
%TO.P,R63,2*%
%TO.N,Net-(J10-Pin_2)*%
X184810000Y-66040000D03*
%TD*%
D12*
%TO.P,J8,1,Pin_1*%
%TO.N,Net-(J8-Pin_1)*%
X132080000Y-101320000D03*
D13*
%TO.P,J8,2,Pin_2*%
%TO.N,Net-(J8-Pin_2)*%
X132080000Y-98820000D03*
%TO.P,J8,3,Pin_3*%
%TO.N,Net-(J8-Pin_3)*%
X132080000Y-96320000D03*
%TO.P,J8,4,Pin_4*%
%TO.N,Net-(J8-Pin_4)*%
X132080000Y-93820000D03*
%TO.P,J8,5,Pin_5*%
%TO.N,Net-(J8-Pin_5)*%
X132080000Y-91320000D03*
%TO.P,J8,6,Pin_6*%
%TO.N,Net-(J8-Pin_6)*%
X132080000Y-88820000D03*
%TO.P,J8,7,Pin_7*%
%TO.N,Net-(J8-Pin_7)*%
X132080000Y-86320000D03*
%TO.P,J8,8,Pin_8*%
%TO.N,Net-(J8-Pin_8)*%
X132080000Y-83820000D03*
%TD*%
D10*
%TO.P,R19,1*%
%TO.N,Net-(U2-QC)*%
X68580000Y-60960000D03*
D11*
%TO.P,R19,2*%
%TO.N,Net-(J5-Pin_6)*%
X68580000Y-66040000D03*
%TD*%
D16*
%TO.P,U2,1,QB*%
%TO.N,Net-(U2-QB)*%
X66040000Y-27940000D03*
D17*
%TO.P,U2,2,QC*%
%TO.N,Net-(U2-QC)*%
X66040000Y-30480000D03*
%TO.P,U2,3,QD*%
%TO.N,Net-(U2-QD)*%
X66040000Y-33020000D03*
%TO.P,U2,4,QE*%
%TO.N,Net-(U2-QE)*%
X66040000Y-35560000D03*
%TO.P,U2,5,QF*%
%TO.N,Net-(U2-QF)*%
X66040000Y-38100000D03*
%TO.P,U2,6,QG*%
%TO.N,Net-(U2-QG)*%
X66040000Y-40640000D03*
%TO.P,U2,7,QH*%
%TO.N,Net-(U2-QH)*%
X66040000Y-43180000D03*
%TO.P,U2,8,GND*%
%TO.N,Net-(J1-Pin_5)*%
X66040000Y-45720000D03*
%TO.P,U2,9,QH'*%
%TO.N,Net-(U2-QH')*%
X73660000Y-45720000D03*
%TO.P,U2,10,~{SRCLR}*%
%TO.N,Net-(J1-Pin_4)*%
X73660000Y-43180000D03*
%TO.P,U2,11,SRCLK*%
%TO.N,Net-(J1-Pin_2)*%
X73660000Y-40640000D03*
%TO.P,U2,12,RCLK*%
%TO.N,Net-(J1-Pin_3)*%
X73660000Y-38100000D03*
%TO.P,U2,13,~{OE}*%
%TO.N,Net-(J1-Pin_5)*%
X73660000Y-35560000D03*
%TO.P,U2,14,SER*%
%TO.N,Net-(U1-QH')*%
X73660000Y-33020000D03*
%TO.P,U2,15,QA*%
%TO.N,Net-(U2-QA)*%
X73660000Y-30480000D03*
%TO.P,U2,16,VCC*%
%TO.N,Net-(J1-Pin_6)*%
X73660000Y-27940000D03*
%TD*%
D10*
%TO.P,R37,1*%
%TO.N,Net-(U5-QE)*%
X114300000Y-60960000D03*
D11*
%TO.P,R37,2*%
%TO.N,Net-(J7-Pin_4)*%
X114300000Y-66040000D03*
%TD*%
D12*
%TO.P,J4,1,Pin_1*%
%TO.N,Net-(J4-Pin_1)*%
X53340000Y-101320000D03*
D13*
%TO.P,J4,2,Pin_2*%
%TO.N,Net-(J4-Pin_2)*%
X53340000Y-98820000D03*
%TO.P,J4,3,Pin_3*%
%TO.N,Net-(J4-Pin_3)*%
X53340000Y-96320000D03*
%TO.P,J4,4,Pin_4*%
%TO.N,Net-(J4-Pin_4)*%
X53340000Y-93820000D03*
%TO.P,J4,5,Pin_5*%
%TO.N,Net-(J4-Pin_5)*%
X53340000Y-91320000D03*
%TO.P,J4,6,Pin_6*%
%TO.N,Net-(J4-Pin_6)*%
X53340000Y-88820000D03*
%TO.P,J4,7,Pin_7*%
%TO.N,Net-(J4-Pin_7)*%
X53340000Y-86320000D03*
%TO.P,J4,8,Pin_8*%
%TO.N,Net-(J4-Pin_8)*%
X53340000Y-83820000D03*
%TD*%
D20*
%TO.N,Net-(J1-Pin_5)*%
X119380000Y-55880000D03*
X185420000Y-55880000D03*
X162560000Y-55880000D03*
X139700000Y-55880000D03*
X99060000Y-55880000D03*
X78740000Y-55880000D03*
X101600000Y-55880000D03*
X121920000Y-55880000D03*
X55880000Y-55880000D03*
X35560000Y-55880000D03*
X81280000Y-55880000D03*
X142240000Y-55880000D03*
X58420000Y-55880000D03*
X160020000Y-55880000D03*
%TO.N,Net-(U1-QH')*%
X58420000Y-53340000D03*
X78740000Y-53340000D03*
%TO.N,Net-(J1-Pin_4)*%
X160020000Y-50800000D03*
X119380000Y-50800000D03*
X78740000Y-50800000D03*
X55880000Y-50800000D03*
X162560000Y-50800000D03*
X58420000Y-50800000D03*
X101600000Y-50800000D03*
X142240000Y-50800000D03*
X121920000Y-50800000D03*
X139700000Y-50800000D03*
X35560000Y-50800000D03*
X185420000Y-50800000D03*
X99060000Y-50800000D03*
X81280000Y-50800000D03*
%TO.N,Net-(J1-Pin_2)*%
X185420000Y-48260000D03*
X101600000Y-48260000D03*
X162560000Y-48260000D03*
X58420000Y-48260000D03*
X35560000Y-48260000D03*
X119380000Y-48260000D03*
X78740000Y-48260000D03*
X142240000Y-48260000D03*
X160020000Y-48260000D03*
X55880000Y-48260000D03*
X121920000Y-48260000D03*
X81280000Y-48260000D03*
X99060000Y-48260000D03*
X139700000Y-48260000D03*
%TO.N,Net-(J1-Pin_3)*%
X185420000Y-45720000D03*
X162560000Y-45720000D03*
X35560000Y-45720000D03*
X78740000Y-45720000D03*
X142240000Y-45720000D03*
X139700000Y-45720000D03*
X160020000Y-45720000D03*
X119380000Y-45720000D03*
X58420000Y-45720000D03*
X99060000Y-45720000D03*
X121920000Y-45720000D03*
X55880000Y-45720000D03*
X81280000Y-45720000D03*
X101600000Y-45720000D03*
%TO.N,Net-(U1-SER)*%
X35560000Y-53340000D03*
X55880000Y-53340000D03*
%TO.N,Net-(J1-Pin_6)*%
X40640000Y-22860000D03*
X96520000Y-22860000D03*
X114300000Y-22860000D03*
X104140000Y-22860000D03*
X43180000Y-22860000D03*
X117024500Y-22860000D03*
%TO.N,Net-(U2-QH')*%
X81280000Y-53340000D03*
X99060000Y-53340000D03*
%TO.N,Net-(U4-QH')*%
X119380000Y-53340000D03*
X101600000Y-53340000D03*
%TO.N,Net-(U5-QH')*%
X121920000Y-53340000D03*
X139700000Y-53340000D03*
%TO.N,Net-(U6-QH')*%
X160020000Y-53340000D03*
X142240000Y-53340000D03*
%TO.N,Net-(U7-QH')*%
X162560000Y-53340000D03*
X185420000Y-53340000D03*
%TD*%
M02*
