%TF.GenerationSoftware,KiCad,Pcbnew,7.0.9*%
%TF.CreationDate,2023-12-13T10:58:26+05:30*%
%TF.ProjectId,Led_Cube_BaseControler,4c65645f-4375-4626-955f-42617365436f,rev?*%
%TF.SameCoordinates,Original*%
%TF.FileFunction,Legend,Top*%
%TF.FilePolarity,Positive*%
%FSLAX46Y46*%
G04 Gerber Fmt 4.6, Leading zero omitted, Abs format (unit mm)*
G04 Created by KiCad (PCBNEW 7.0.9) date 2023-12-13 10:58:26*
%MOMM*%
%LPD*%
G01*
G04 APERTURE LIST*
%ADD10C,0.150000*%
%ADD11C,0.120000*%
G04 APERTURE END LIST*
D10*
X55714819Y-64142857D02*
X55238628Y-64476190D01*
X55714819Y-64714285D02*
X54714819Y-64714285D01*
X54714819Y-64714285D02*
X54714819Y-64333333D01*
X54714819Y-64333333D02*
X54762438Y-64238095D01*
X54762438Y-64238095D02*
X54810057Y-64190476D01*
X54810057Y-64190476D02*
X54905295Y-64142857D01*
X54905295Y-64142857D02*
X55048152Y-64142857D01*
X55048152Y-64142857D02*
X55143390Y-64190476D01*
X55143390Y-64190476D02*
X55191009Y-64238095D01*
X55191009Y-64238095D02*
X55238628Y-64333333D01*
X55238628Y-64333333D02*
X55238628Y-64714285D01*
X55714819Y-63190476D02*
X55714819Y-63761904D01*
X55714819Y-63476190D02*
X54714819Y-63476190D01*
X54714819Y-63476190D02*
X54857676Y-63571428D01*
X54857676Y-63571428D02*
X54952914Y-63666666D01*
X54952914Y-63666666D02*
X55000533Y-63761904D01*
X54714819Y-62857142D02*
X54714819Y-62238095D01*
X54714819Y-62238095D02*
X55095771Y-62571428D01*
X55095771Y-62571428D02*
X55095771Y-62428571D01*
X55095771Y-62428571D02*
X55143390Y-62333333D01*
X55143390Y-62333333D02*
X55191009Y-62285714D01*
X55191009Y-62285714D02*
X55286247Y-62238095D01*
X55286247Y-62238095D02*
X55524342Y-62238095D01*
X55524342Y-62238095D02*
X55619580Y-62285714D01*
X55619580Y-62285714D02*
X55667200Y-62333333D01*
X55667200Y-62333333D02*
X55714819Y-62428571D01*
X55714819Y-62428571D02*
X55714819Y-62714285D01*
X55714819Y-62714285D02*
X55667200Y-62809523D01*
X55667200Y-62809523D02*
X55619580Y-62857142D01*
X101434819Y-64142857D02*
X100958628Y-64476190D01*
X101434819Y-64714285D02*
X100434819Y-64714285D01*
X100434819Y-64714285D02*
X100434819Y-64333333D01*
X100434819Y-64333333D02*
X100482438Y-64238095D01*
X100482438Y-64238095D02*
X100530057Y-64190476D01*
X100530057Y-64190476D02*
X100625295Y-64142857D01*
X100625295Y-64142857D02*
X100768152Y-64142857D01*
X100768152Y-64142857D02*
X100863390Y-64190476D01*
X100863390Y-64190476D02*
X100911009Y-64238095D01*
X100911009Y-64238095D02*
X100958628Y-64333333D01*
X100958628Y-64333333D02*
X100958628Y-64714285D01*
X100434819Y-63809523D02*
X100434819Y-63190476D01*
X100434819Y-63190476D02*
X100815771Y-63523809D01*
X100815771Y-63523809D02*
X100815771Y-63380952D01*
X100815771Y-63380952D02*
X100863390Y-63285714D01*
X100863390Y-63285714D02*
X100911009Y-63238095D01*
X100911009Y-63238095D02*
X101006247Y-63190476D01*
X101006247Y-63190476D02*
X101244342Y-63190476D01*
X101244342Y-63190476D02*
X101339580Y-63238095D01*
X101339580Y-63238095D02*
X101387200Y-63285714D01*
X101387200Y-63285714D02*
X101434819Y-63380952D01*
X101434819Y-63380952D02*
X101434819Y-63666666D01*
X101434819Y-63666666D02*
X101387200Y-63761904D01*
X101387200Y-63761904D02*
X101339580Y-63809523D01*
X101434819Y-62238095D02*
X101434819Y-62809523D01*
X101434819Y-62523809D02*
X100434819Y-62523809D01*
X100434819Y-62523809D02*
X100577676Y-62619047D01*
X100577676Y-62619047D02*
X100672914Y-62714285D01*
X100672914Y-62714285D02*
X100720533Y-62809523D01*
X124294819Y-64142857D02*
X123818628Y-64476190D01*
X124294819Y-64714285D02*
X123294819Y-64714285D01*
X123294819Y-64714285D02*
X123294819Y-64333333D01*
X123294819Y-64333333D02*
X123342438Y-64238095D01*
X123342438Y-64238095D02*
X123390057Y-64190476D01*
X123390057Y-64190476D02*
X123485295Y-64142857D01*
X123485295Y-64142857D02*
X123628152Y-64142857D01*
X123628152Y-64142857D02*
X123723390Y-64190476D01*
X123723390Y-64190476D02*
X123771009Y-64238095D01*
X123771009Y-64238095D02*
X123818628Y-64333333D01*
X123818628Y-64333333D02*
X123818628Y-64714285D01*
X123628152Y-63285714D02*
X124294819Y-63285714D01*
X123247200Y-63523809D02*
X123961485Y-63761904D01*
X123961485Y-63761904D02*
X123961485Y-63142857D01*
X123294819Y-62571428D02*
X123294819Y-62476190D01*
X123294819Y-62476190D02*
X123342438Y-62380952D01*
X123342438Y-62380952D02*
X123390057Y-62333333D01*
X123390057Y-62333333D02*
X123485295Y-62285714D01*
X123485295Y-62285714D02*
X123675771Y-62238095D01*
X123675771Y-62238095D02*
X123913866Y-62238095D01*
X123913866Y-62238095D02*
X124104342Y-62285714D01*
X124104342Y-62285714D02*
X124199580Y-62333333D01*
X124199580Y-62333333D02*
X124247200Y-62380952D01*
X124247200Y-62380952D02*
X124294819Y-62476190D01*
X124294819Y-62476190D02*
X124294819Y-62571428D01*
X124294819Y-62571428D02*
X124247200Y-62666666D01*
X124247200Y-62666666D02*
X124199580Y-62714285D01*
X124199580Y-62714285D02*
X124104342Y-62761904D01*
X124104342Y-62761904D02*
X123913866Y-62809523D01*
X123913866Y-62809523D02*
X123675771Y-62809523D01*
X123675771Y-62809523D02*
X123485295Y-62761904D01*
X123485295Y-62761904D02*
X123390057Y-62714285D01*
X123390057Y-62714285D02*
X123342438Y-62666666D01*
X123342438Y-62666666D02*
X123294819Y-62571428D01*
X134454819Y-64142857D02*
X133978628Y-64476190D01*
X134454819Y-64714285D02*
X133454819Y-64714285D01*
X133454819Y-64714285D02*
X133454819Y-64333333D01*
X133454819Y-64333333D02*
X133502438Y-64238095D01*
X133502438Y-64238095D02*
X133550057Y-64190476D01*
X133550057Y-64190476D02*
X133645295Y-64142857D01*
X133645295Y-64142857D02*
X133788152Y-64142857D01*
X133788152Y-64142857D02*
X133883390Y-64190476D01*
X133883390Y-64190476D02*
X133931009Y-64238095D01*
X133931009Y-64238095D02*
X133978628Y-64333333D01*
X133978628Y-64333333D02*
X133978628Y-64714285D01*
X133788152Y-63285714D02*
X134454819Y-63285714D01*
X133407200Y-63523809D02*
X134121485Y-63761904D01*
X134121485Y-63761904D02*
X134121485Y-63142857D01*
X133788152Y-62333333D02*
X134454819Y-62333333D01*
X133407200Y-62571428D02*
X134121485Y-62809523D01*
X134121485Y-62809523D02*
X134121485Y-62190476D01*
X106514819Y-64142857D02*
X106038628Y-64476190D01*
X106514819Y-64714285D02*
X105514819Y-64714285D01*
X105514819Y-64714285D02*
X105514819Y-64333333D01*
X105514819Y-64333333D02*
X105562438Y-64238095D01*
X105562438Y-64238095D02*
X105610057Y-64190476D01*
X105610057Y-64190476D02*
X105705295Y-64142857D01*
X105705295Y-64142857D02*
X105848152Y-64142857D01*
X105848152Y-64142857D02*
X105943390Y-64190476D01*
X105943390Y-64190476D02*
X105991009Y-64238095D01*
X105991009Y-64238095D02*
X106038628Y-64333333D01*
X106038628Y-64333333D02*
X106038628Y-64714285D01*
X105514819Y-63809523D02*
X105514819Y-63190476D01*
X105514819Y-63190476D02*
X105895771Y-63523809D01*
X105895771Y-63523809D02*
X105895771Y-63380952D01*
X105895771Y-63380952D02*
X105943390Y-63285714D01*
X105943390Y-63285714D02*
X105991009Y-63238095D01*
X105991009Y-63238095D02*
X106086247Y-63190476D01*
X106086247Y-63190476D02*
X106324342Y-63190476D01*
X106324342Y-63190476D02*
X106419580Y-63238095D01*
X106419580Y-63238095D02*
X106467200Y-63285714D01*
X106467200Y-63285714D02*
X106514819Y-63380952D01*
X106514819Y-63380952D02*
X106514819Y-63666666D01*
X106514819Y-63666666D02*
X106467200Y-63761904D01*
X106467200Y-63761904D02*
X106419580Y-63809523D01*
X105514819Y-62857142D02*
X105514819Y-62238095D01*
X105514819Y-62238095D02*
X105895771Y-62571428D01*
X105895771Y-62571428D02*
X105895771Y-62428571D01*
X105895771Y-62428571D02*
X105943390Y-62333333D01*
X105943390Y-62333333D02*
X105991009Y-62285714D01*
X105991009Y-62285714D02*
X106086247Y-62238095D01*
X106086247Y-62238095D02*
X106324342Y-62238095D01*
X106324342Y-62238095D02*
X106419580Y-62285714D01*
X106419580Y-62285714D02*
X106467200Y-62333333D01*
X106467200Y-62333333D02*
X106514819Y-62428571D01*
X106514819Y-62428571D02*
X106514819Y-62714285D01*
X106514819Y-62714285D02*
X106467200Y-62809523D01*
X106467200Y-62809523D02*
X106419580Y-62857142D01*
X174584819Y-64142857D02*
X174108628Y-64476190D01*
X174584819Y-64714285D02*
X173584819Y-64714285D01*
X173584819Y-64714285D02*
X173584819Y-64333333D01*
X173584819Y-64333333D02*
X173632438Y-64238095D01*
X173632438Y-64238095D02*
X173680057Y-64190476D01*
X173680057Y-64190476D02*
X173775295Y-64142857D01*
X173775295Y-64142857D02*
X173918152Y-64142857D01*
X173918152Y-64142857D02*
X174013390Y-64190476D01*
X174013390Y-64190476D02*
X174061009Y-64238095D01*
X174061009Y-64238095D02*
X174108628Y-64333333D01*
X174108628Y-64333333D02*
X174108628Y-64714285D01*
X173584819Y-63238095D02*
X173584819Y-63714285D01*
X173584819Y-63714285D02*
X174061009Y-63761904D01*
X174061009Y-63761904D02*
X174013390Y-63714285D01*
X174013390Y-63714285D02*
X173965771Y-63619047D01*
X173965771Y-63619047D02*
X173965771Y-63380952D01*
X173965771Y-63380952D02*
X174013390Y-63285714D01*
X174013390Y-63285714D02*
X174061009Y-63238095D01*
X174061009Y-63238095D02*
X174156247Y-63190476D01*
X174156247Y-63190476D02*
X174394342Y-63190476D01*
X174394342Y-63190476D02*
X174489580Y-63238095D01*
X174489580Y-63238095D02*
X174537200Y-63285714D01*
X174537200Y-63285714D02*
X174584819Y-63380952D01*
X174584819Y-63380952D02*
X174584819Y-63619047D01*
X174584819Y-63619047D02*
X174537200Y-63714285D01*
X174537200Y-63714285D02*
X174489580Y-63761904D01*
X174584819Y-62714285D02*
X174584819Y-62523809D01*
X174584819Y-62523809D02*
X174537200Y-62428571D01*
X174537200Y-62428571D02*
X174489580Y-62380952D01*
X174489580Y-62380952D02*
X174346723Y-62285714D01*
X174346723Y-62285714D02*
X174156247Y-62238095D01*
X174156247Y-62238095D02*
X173775295Y-62238095D01*
X173775295Y-62238095D02*
X173680057Y-62285714D01*
X173680057Y-62285714D02*
X173632438Y-62333333D01*
X173632438Y-62333333D02*
X173584819Y-62428571D01*
X173584819Y-62428571D02*
X173584819Y-62619047D01*
X173584819Y-62619047D02*
X173632438Y-62714285D01*
X173632438Y-62714285D02*
X173680057Y-62761904D01*
X173680057Y-62761904D02*
X173775295Y-62809523D01*
X173775295Y-62809523D02*
X174013390Y-62809523D01*
X174013390Y-62809523D02*
X174108628Y-62761904D01*
X174108628Y-62761904D02*
X174156247Y-62714285D01*
X174156247Y-62714285D02*
X174203866Y-62619047D01*
X174203866Y-62619047D02*
X174203866Y-62428571D01*
X174203866Y-62428571D02*
X174156247Y-62333333D01*
X174156247Y-62333333D02*
X174108628Y-62285714D01*
X174108628Y-62285714D02*
X174013390Y-62238095D01*
X114134819Y-64142857D02*
X113658628Y-64476190D01*
X114134819Y-64714285D02*
X113134819Y-64714285D01*
X113134819Y-64714285D02*
X113134819Y-64333333D01*
X113134819Y-64333333D02*
X113182438Y-64238095D01*
X113182438Y-64238095D02*
X113230057Y-64190476D01*
X113230057Y-64190476D02*
X113325295Y-64142857D01*
X113325295Y-64142857D02*
X113468152Y-64142857D01*
X113468152Y-64142857D02*
X113563390Y-64190476D01*
X113563390Y-64190476D02*
X113611009Y-64238095D01*
X113611009Y-64238095D02*
X113658628Y-64333333D01*
X113658628Y-64333333D02*
X113658628Y-64714285D01*
X113134819Y-63809523D02*
X113134819Y-63190476D01*
X113134819Y-63190476D02*
X113515771Y-63523809D01*
X113515771Y-63523809D02*
X113515771Y-63380952D01*
X113515771Y-63380952D02*
X113563390Y-63285714D01*
X113563390Y-63285714D02*
X113611009Y-63238095D01*
X113611009Y-63238095D02*
X113706247Y-63190476D01*
X113706247Y-63190476D02*
X113944342Y-63190476D01*
X113944342Y-63190476D02*
X114039580Y-63238095D01*
X114039580Y-63238095D02*
X114087200Y-63285714D01*
X114087200Y-63285714D02*
X114134819Y-63380952D01*
X114134819Y-63380952D02*
X114134819Y-63666666D01*
X114134819Y-63666666D02*
X114087200Y-63761904D01*
X114087200Y-63761904D02*
X114039580Y-63809523D01*
X113134819Y-62333333D02*
X113134819Y-62523809D01*
X113134819Y-62523809D02*
X113182438Y-62619047D01*
X113182438Y-62619047D02*
X113230057Y-62666666D01*
X113230057Y-62666666D02*
X113372914Y-62761904D01*
X113372914Y-62761904D02*
X113563390Y-62809523D01*
X113563390Y-62809523D02*
X113944342Y-62809523D01*
X113944342Y-62809523D02*
X114039580Y-62761904D01*
X114039580Y-62761904D02*
X114087200Y-62714285D01*
X114087200Y-62714285D02*
X114134819Y-62619047D01*
X114134819Y-62619047D02*
X114134819Y-62428571D01*
X114134819Y-62428571D02*
X114087200Y-62333333D01*
X114087200Y-62333333D02*
X114039580Y-62285714D01*
X114039580Y-62285714D02*
X113944342Y-62238095D01*
X113944342Y-62238095D02*
X113706247Y-62238095D01*
X113706247Y-62238095D02*
X113611009Y-62285714D01*
X113611009Y-62285714D02*
X113563390Y-62333333D01*
X113563390Y-62333333D02*
X113515771Y-62428571D01*
X113515771Y-62428571D02*
X113515771Y-62619047D01*
X113515771Y-62619047D02*
X113563390Y-62714285D01*
X113563390Y-62714285D02*
X113611009Y-62761904D01*
X113611009Y-62761904D02*
X113706247Y-62809523D01*
X87344819Y-92903333D02*
X88059104Y-92903333D01*
X88059104Y-92903333D02*
X88201961Y-92950952D01*
X88201961Y-92950952D02*
X88297200Y-93046190D01*
X88297200Y-93046190D02*
X88344819Y-93189047D01*
X88344819Y-93189047D02*
X88344819Y-93284285D01*
X87344819Y-91998571D02*
X87344819Y-92189047D01*
X87344819Y-92189047D02*
X87392438Y-92284285D01*
X87392438Y-92284285D02*
X87440057Y-92331904D01*
X87440057Y-92331904D02*
X87582914Y-92427142D01*
X87582914Y-92427142D02*
X87773390Y-92474761D01*
X87773390Y-92474761D02*
X88154342Y-92474761D01*
X88154342Y-92474761D02*
X88249580Y-92427142D01*
X88249580Y-92427142D02*
X88297200Y-92379523D01*
X88297200Y-92379523D02*
X88344819Y-92284285D01*
X88344819Y-92284285D02*
X88344819Y-92093809D01*
X88344819Y-92093809D02*
X88297200Y-91998571D01*
X88297200Y-91998571D02*
X88249580Y-91950952D01*
X88249580Y-91950952D02*
X88154342Y-91903333D01*
X88154342Y-91903333D02*
X87916247Y-91903333D01*
X87916247Y-91903333D02*
X87821009Y-91950952D01*
X87821009Y-91950952D02*
X87773390Y-91998571D01*
X87773390Y-91998571D02*
X87725771Y-92093809D01*
X87725771Y-92093809D02*
X87725771Y-92284285D01*
X87725771Y-92284285D02*
X87773390Y-92379523D01*
X87773390Y-92379523D02*
X87821009Y-92427142D01*
X87821009Y-92427142D02*
X87916247Y-92474761D01*
X83654819Y-64142857D02*
X83178628Y-64476190D01*
X83654819Y-64714285D02*
X82654819Y-64714285D01*
X82654819Y-64714285D02*
X82654819Y-64333333D01*
X82654819Y-64333333D02*
X82702438Y-64238095D01*
X82702438Y-64238095D02*
X82750057Y-64190476D01*
X82750057Y-64190476D02*
X82845295Y-64142857D01*
X82845295Y-64142857D02*
X82988152Y-64142857D01*
X82988152Y-64142857D02*
X83083390Y-64190476D01*
X83083390Y-64190476D02*
X83131009Y-64238095D01*
X83131009Y-64238095D02*
X83178628Y-64333333D01*
X83178628Y-64333333D02*
X83178628Y-64714285D01*
X82750057Y-63761904D02*
X82702438Y-63714285D01*
X82702438Y-63714285D02*
X82654819Y-63619047D01*
X82654819Y-63619047D02*
X82654819Y-63380952D01*
X82654819Y-63380952D02*
X82702438Y-63285714D01*
X82702438Y-63285714D02*
X82750057Y-63238095D01*
X82750057Y-63238095D02*
X82845295Y-63190476D01*
X82845295Y-63190476D02*
X82940533Y-63190476D01*
X82940533Y-63190476D02*
X83083390Y-63238095D01*
X83083390Y-63238095D02*
X83654819Y-63809523D01*
X83654819Y-63809523D02*
X83654819Y-63190476D01*
X82988152Y-62333333D02*
X83654819Y-62333333D01*
X82607200Y-62571428D02*
X83321485Y-62809523D01*
X83321485Y-62809523D02*
X83321485Y-62190476D01*
X103974819Y-64142857D02*
X103498628Y-64476190D01*
X103974819Y-64714285D02*
X102974819Y-64714285D01*
X102974819Y-64714285D02*
X102974819Y-64333333D01*
X102974819Y-64333333D02*
X103022438Y-64238095D01*
X103022438Y-64238095D02*
X103070057Y-64190476D01*
X103070057Y-64190476D02*
X103165295Y-64142857D01*
X103165295Y-64142857D02*
X103308152Y-64142857D01*
X103308152Y-64142857D02*
X103403390Y-64190476D01*
X103403390Y-64190476D02*
X103451009Y-64238095D01*
X103451009Y-64238095D02*
X103498628Y-64333333D01*
X103498628Y-64333333D02*
X103498628Y-64714285D01*
X102974819Y-63809523D02*
X102974819Y-63190476D01*
X102974819Y-63190476D02*
X103355771Y-63523809D01*
X103355771Y-63523809D02*
X103355771Y-63380952D01*
X103355771Y-63380952D02*
X103403390Y-63285714D01*
X103403390Y-63285714D02*
X103451009Y-63238095D01*
X103451009Y-63238095D02*
X103546247Y-63190476D01*
X103546247Y-63190476D02*
X103784342Y-63190476D01*
X103784342Y-63190476D02*
X103879580Y-63238095D01*
X103879580Y-63238095D02*
X103927200Y-63285714D01*
X103927200Y-63285714D02*
X103974819Y-63380952D01*
X103974819Y-63380952D02*
X103974819Y-63666666D01*
X103974819Y-63666666D02*
X103927200Y-63761904D01*
X103927200Y-63761904D02*
X103879580Y-63809523D01*
X103070057Y-62809523D02*
X103022438Y-62761904D01*
X103022438Y-62761904D02*
X102974819Y-62666666D01*
X102974819Y-62666666D02*
X102974819Y-62428571D01*
X102974819Y-62428571D02*
X103022438Y-62333333D01*
X103022438Y-62333333D02*
X103070057Y-62285714D01*
X103070057Y-62285714D02*
X103165295Y-62238095D01*
X103165295Y-62238095D02*
X103260533Y-62238095D01*
X103260533Y-62238095D02*
X103403390Y-62285714D01*
X103403390Y-62285714D02*
X103974819Y-62857142D01*
X103974819Y-62857142D02*
X103974819Y-62238095D01*
X107664819Y-92903333D02*
X108379104Y-92903333D01*
X108379104Y-92903333D02*
X108521961Y-92950952D01*
X108521961Y-92950952D02*
X108617200Y-93046190D01*
X108617200Y-93046190D02*
X108664819Y-93189047D01*
X108664819Y-93189047D02*
X108664819Y-93284285D01*
X107664819Y-92522380D02*
X107664819Y-91855714D01*
X107664819Y-91855714D02*
X108664819Y-92284285D01*
X88734819Y-64142857D02*
X88258628Y-64476190D01*
X88734819Y-64714285D02*
X87734819Y-64714285D01*
X87734819Y-64714285D02*
X87734819Y-64333333D01*
X87734819Y-64333333D02*
X87782438Y-64238095D01*
X87782438Y-64238095D02*
X87830057Y-64190476D01*
X87830057Y-64190476D02*
X87925295Y-64142857D01*
X87925295Y-64142857D02*
X88068152Y-64142857D01*
X88068152Y-64142857D02*
X88163390Y-64190476D01*
X88163390Y-64190476D02*
X88211009Y-64238095D01*
X88211009Y-64238095D02*
X88258628Y-64333333D01*
X88258628Y-64333333D02*
X88258628Y-64714285D01*
X87830057Y-63761904D02*
X87782438Y-63714285D01*
X87782438Y-63714285D02*
X87734819Y-63619047D01*
X87734819Y-63619047D02*
X87734819Y-63380952D01*
X87734819Y-63380952D02*
X87782438Y-63285714D01*
X87782438Y-63285714D02*
X87830057Y-63238095D01*
X87830057Y-63238095D02*
X87925295Y-63190476D01*
X87925295Y-63190476D02*
X88020533Y-63190476D01*
X88020533Y-63190476D02*
X88163390Y-63238095D01*
X88163390Y-63238095D02*
X88734819Y-63809523D01*
X88734819Y-63809523D02*
X88734819Y-63190476D01*
X87734819Y-62333333D02*
X87734819Y-62523809D01*
X87734819Y-62523809D02*
X87782438Y-62619047D01*
X87782438Y-62619047D02*
X87830057Y-62666666D01*
X87830057Y-62666666D02*
X87972914Y-62761904D01*
X87972914Y-62761904D02*
X88163390Y-62809523D01*
X88163390Y-62809523D02*
X88544342Y-62809523D01*
X88544342Y-62809523D02*
X88639580Y-62761904D01*
X88639580Y-62761904D02*
X88687200Y-62714285D01*
X88687200Y-62714285D02*
X88734819Y-62619047D01*
X88734819Y-62619047D02*
X88734819Y-62428571D01*
X88734819Y-62428571D02*
X88687200Y-62333333D01*
X88687200Y-62333333D02*
X88639580Y-62285714D01*
X88639580Y-62285714D02*
X88544342Y-62238095D01*
X88544342Y-62238095D02*
X88306247Y-62238095D01*
X88306247Y-62238095D02*
X88211009Y-62285714D01*
X88211009Y-62285714D02*
X88163390Y-62333333D01*
X88163390Y-62333333D02*
X88115771Y-62428571D01*
X88115771Y-62428571D02*
X88115771Y-62619047D01*
X88115771Y-62619047D02*
X88163390Y-62714285D01*
X88163390Y-62714285D02*
X88211009Y-62761904D01*
X88211009Y-62761904D02*
X88306247Y-62809523D01*
X139534819Y-64142857D02*
X139058628Y-64476190D01*
X139534819Y-64714285D02*
X138534819Y-64714285D01*
X138534819Y-64714285D02*
X138534819Y-64333333D01*
X138534819Y-64333333D02*
X138582438Y-64238095D01*
X138582438Y-64238095D02*
X138630057Y-64190476D01*
X138630057Y-64190476D02*
X138725295Y-64142857D01*
X138725295Y-64142857D02*
X138868152Y-64142857D01*
X138868152Y-64142857D02*
X138963390Y-64190476D01*
X138963390Y-64190476D02*
X139011009Y-64238095D01*
X139011009Y-64238095D02*
X139058628Y-64333333D01*
X139058628Y-64333333D02*
X139058628Y-64714285D01*
X138868152Y-63285714D02*
X139534819Y-63285714D01*
X138487200Y-63523809D02*
X139201485Y-63761904D01*
X139201485Y-63761904D02*
X139201485Y-63142857D01*
X138534819Y-62333333D02*
X138534819Y-62523809D01*
X138534819Y-62523809D02*
X138582438Y-62619047D01*
X138582438Y-62619047D02*
X138630057Y-62666666D01*
X138630057Y-62666666D02*
X138772914Y-62761904D01*
X138772914Y-62761904D02*
X138963390Y-62809523D01*
X138963390Y-62809523D02*
X139344342Y-62809523D01*
X139344342Y-62809523D02*
X139439580Y-62761904D01*
X139439580Y-62761904D02*
X139487200Y-62714285D01*
X139487200Y-62714285D02*
X139534819Y-62619047D01*
X139534819Y-62619047D02*
X139534819Y-62428571D01*
X139534819Y-62428571D02*
X139487200Y-62333333D01*
X139487200Y-62333333D02*
X139439580Y-62285714D01*
X139439580Y-62285714D02*
X139344342Y-62238095D01*
X139344342Y-62238095D02*
X139106247Y-62238095D01*
X139106247Y-62238095D02*
X139011009Y-62285714D01*
X139011009Y-62285714D02*
X138963390Y-62333333D01*
X138963390Y-62333333D02*
X138915771Y-62428571D01*
X138915771Y-62428571D02*
X138915771Y-62619047D01*
X138915771Y-62619047D02*
X138963390Y-62714285D01*
X138963390Y-62714285D02*
X139011009Y-62761904D01*
X139011009Y-62761904D02*
X139106247Y-62809523D01*
X78574819Y-64142857D02*
X78098628Y-64476190D01*
X78574819Y-64714285D02*
X77574819Y-64714285D01*
X77574819Y-64714285D02*
X77574819Y-64333333D01*
X77574819Y-64333333D02*
X77622438Y-64238095D01*
X77622438Y-64238095D02*
X77670057Y-64190476D01*
X77670057Y-64190476D02*
X77765295Y-64142857D01*
X77765295Y-64142857D02*
X77908152Y-64142857D01*
X77908152Y-64142857D02*
X78003390Y-64190476D01*
X78003390Y-64190476D02*
X78051009Y-64238095D01*
X78051009Y-64238095D02*
X78098628Y-64333333D01*
X78098628Y-64333333D02*
X78098628Y-64714285D01*
X77670057Y-63761904D02*
X77622438Y-63714285D01*
X77622438Y-63714285D02*
X77574819Y-63619047D01*
X77574819Y-63619047D02*
X77574819Y-63380952D01*
X77574819Y-63380952D02*
X77622438Y-63285714D01*
X77622438Y-63285714D02*
X77670057Y-63238095D01*
X77670057Y-63238095D02*
X77765295Y-63190476D01*
X77765295Y-63190476D02*
X77860533Y-63190476D01*
X77860533Y-63190476D02*
X78003390Y-63238095D01*
X78003390Y-63238095D02*
X78574819Y-63809523D01*
X78574819Y-63809523D02*
X78574819Y-63190476D01*
X77670057Y-62809523D02*
X77622438Y-62761904D01*
X77622438Y-62761904D02*
X77574819Y-62666666D01*
X77574819Y-62666666D02*
X77574819Y-62428571D01*
X77574819Y-62428571D02*
X77622438Y-62333333D01*
X77622438Y-62333333D02*
X77670057Y-62285714D01*
X77670057Y-62285714D02*
X77765295Y-62238095D01*
X77765295Y-62238095D02*
X77860533Y-62238095D01*
X77860533Y-62238095D02*
X78003390Y-62285714D01*
X78003390Y-62285714D02*
X78574819Y-62857142D01*
X78574819Y-62857142D02*
X78574819Y-62238095D01*
X86194819Y-64142857D02*
X85718628Y-64476190D01*
X86194819Y-64714285D02*
X85194819Y-64714285D01*
X85194819Y-64714285D02*
X85194819Y-64333333D01*
X85194819Y-64333333D02*
X85242438Y-64238095D01*
X85242438Y-64238095D02*
X85290057Y-64190476D01*
X85290057Y-64190476D02*
X85385295Y-64142857D01*
X85385295Y-64142857D02*
X85528152Y-64142857D01*
X85528152Y-64142857D02*
X85623390Y-64190476D01*
X85623390Y-64190476D02*
X85671009Y-64238095D01*
X85671009Y-64238095D02*
X85718628Y-64333333D01*
X85718628Y-64333333D02*
X85718628Y-64714285D01*
X85290057Y-63761904D02*
X85242438Y-63714285D01*
X85242438Y-63714285D02*
X85194819Y-63619047D01*
X85194819Y-63619047D02*
X85194819Y-63380952D01*
X85194819Y-63380952D02*
X85242438Y-63285714D01*
X85242438Y-63285714D02*
X85290057Y-63238095D01*
X85290057Y-63238095D02*
X85385295Y-63190476D01*
X85385295Y-63190476D02*
X85480533Y-63190476D01*
X85480533Y-63190476D02*
X85623390Y-63238095D01*
X85623390Y-63238095D02*
X86194819Y-63809523D01*
X86194819Y-63809523D02*
X86194819Y-63190476D01*
X85194819Y-62285714D02*
X85194819Y-62761904D01*
X85194819Y-62761904D02*
X85671009Y-62809523D01*
X85671009Y-62809523D02*
X85623390Y-62761904D01*
X85623390Y-62761904D02*
X85575771Y-62666666D01*
X85575771Y-62666666D02*
X85575771Y-62428571D01*
X85575771Y-62428571D02*
X85623390Y-62333333D01*
X85623390Y-62333333D02*
X85671009Y-62285714D01*
X85671009Y-62285714D02*
X85766247Y-62238095D01*
X85766247Y-62238095D02*
X86004342Y-62238095D01*
X86004342Y-62238095D02*
X86099580Y-62285714D01*
X86099580Y-62285714D02*
X86147200Y-62333333D01*
X86147200Y-62333333D02*
X86194819Y-62428571D01*
X86194819Y-62428571D02*
X86194819Y-62666666D01*
X86194819Y-62666666D02*
X86147200Y-62761904D01*
X86147200Y-62761904D02*
X86099580Y-62809523D01*
X109054819Y-64142857D02*
X108578628Y-64476190D01*
X109054819Y-64714285D02*
X108054819Y-64714285D01*
X108054819Y-64714285D02*
X108054819Y-64333333D01*
X108054819Y-64333333D02*
X108102438Y-64238095D01*
X108102438Y-64238095D02*
X108150057Y-64190476D01*
X108150057Y-64190476D02*
X108245295Y-64142857D01*
X108245295Y-64142857D02*
X108388152Y-64142857D01*
X108388152Y-64142857D02*
X108483390Y-64190476D01*
X108483390Y-64190476D02*
X108531009Y-64238095D01*
X108531009Y-64238095D02*
X108578628Y-64333333D01*
X108578628Y-64333333D02*
X108578628Y-64714285D01*
X108054819Y-63809523D02*
X108054819Y-63190476D01*
X108054819Y-63190476D02*
X108435771Y-63523809D01*
X108435771Y-63523809D02*
X108435771Y-63380952D01*
X108435771Y-63380952D02*
X108483390Y-63285714D01*
X108483390Y-63285714D02*
X108531009Y-63238095D01*
X108531009Y-63238095D02*
X108626247Y-63190476D01*
X108626247Y-63190476D02*
X108864342Y-63190476D01*
X108864342Y-63190476D02*
X108959580Y-63238095D01*
X108959580Y-63238095D02*
X109007200Y-63285714D01*
X109007200Y-63285714D02*
X109054819Y-63380952D01*
X109054819Y-63380952D02*
X109054819Y-63666666D01*
X109054819Y-63666666D02*
X109007200Y-63761904D01*
X109007200Y-63761904D02*
X108959580Y-63809523D01*
X108388152Y-62333333D02*
X109054819Y-62333333D01*
X108007200Y-62571428D02*
X108721485Y-62809523D01*
X108721485Y-62809523D02*
X108721485Y-62190476D01*
X68414819Y-64142857D02*
X67938628Y-64476190D01*
X68414819Y-64714285D02*
X67414819Y-64714285D01*
X67414819Y-64714285D02*
X67414819Y-64333333D01*
X67414819Y-64333333D02*
X67462438Y-64238095D01*
X67462438Y-64238095D02*
X67510057Y-64190476D01*
X67510057Y-64190476D02*
X67605295Y-64142857D01*
X67605295Y-64142857D02*
X67748152Y-64142857D01*
X67748152Y-64142857D02*
X67843390Y-64190476D01*
X67843390Y-64190476D02*
X67891009Y-64238095D01*
X67891009Y-64238095D02*
X67938628Y-64333333D01*
X67938628Y-64333333D02*
X67938628Y-64714285D01*
X68414819Y-63190476D02*
X68414819Y-63761904D01*
X68414819Y-63476190D02*
X67414819Y-63476190D01*
X67414819Y-63476190D02*
X67557676Y-63571428D01*
X67557676Y-63571428D02*
X67652914Y-63666666D01*
X67652914Y-63666666D02*
X67700533Y-63761904D01*
X67843390Y-62619047D02*
X67795771Y-62714285D01*
X67795771Y-62714285D02*
X67748152Y-62761904D01*
X67748152Y-62761904D02*
X67652914Y-62809523D01*
X67652914Y-62809523D02*
X67605295Y-62809523D01*
X67605295Y-62809523D02*
X67510057Y-62761904D01*
X67510057Y-62761904D02*
X67462438Y-62714285D01*
X67462438Y-62714285D02*
X67414819Y-62619047D01*
X67414819Y-62619047D02*
X67414819Y-62428571D01*
X67414819Y-62428571D02*
X67462438Y-62333333D01*
X67462438Y-62333333D02*
X67510057Y-62285714D01*
X67510057Y-62285714D02*
X67605295Y-62238095D01*
X67605295Y-62238095D02*
X67652914Y-62238095D01*
X67652914Y-62238095D02*
X67748152Y-62285714D01*
X67748152Y-62285714D02*
X67795771Y-62333333D01*
X67795771Y-62333333D02*
X67843390Y-62428571D01*
X67843390Y-62428571D02*
X67843390Y-62619047D01*
X67843390Y-62619047D02*
X67891009Y-62714285D01*
X67891009Y-62714285D02*
X67938628Y-62761904D01*
X67938628Y-62761904D02*
X68033866Y-62809523D01*
X68033866Y-62809523D02*
X68224342Y-62809523D01*
X68224342Y-62809523D02*
X68319580Y-62761904D01*
X68319580Y-62761904D02*
X68367200Y-62714285D01*
X68367200Y-62714285D02*
X68414819Y-62619047D01*
X68414819Y-62619047D02*
X68414819Y-62428571D01*
X68414819Y-62428571D02*
X68367200Y-62333333D01*
X68367200Y-62333333D02*
X68319580Y-62285714D01*
X68319580Y-62285714D02*
X68224342Y-62238095D01*
X68224342Y-62238095D02*
X68033866Y-62238095D01*
X68033866Y-62238095D02*
X67938628Y-62285714D01*
X67938628Y-62285714D02*
X67891009Y-62333333D01*
X67891009Y-62333333D02*
X67843390Y-62428571D01*
X154774819Y-64142857D02*
X154298628Y-64476190D01*
X154774819Y-64714285D02*
X153774819Y-64714285D01*
X153774819Y-64714285D02*
X153774819Y-64333333D01*
X153774819Y-64333333D02*
X153822438Y-64238095D01*
X153822438Y-64238095D02*
X153870057Y-64190476D01*
X153870057Y-64190476D02*
X153965295Y-64142857D01*
X153965295Y-64142857D02*
X154108152Y-64142857D01*
X154108152Y-64142857D02*
X154203390Y-64190476D01*
X154203390Y-64190476D02*
X154251009Y-64238095D01*
X154251009Y-64238095D02*
X154298628Y-64333333D01*
X154298628Y-64333333D02*
X154298628Y-64714285D01*
X153774819Y-63238095D02*
X153774819Y-63714285D01*
X153774819Y-63714285D02*
X154251009Y-63761904D01*
X154251009Y-63761904D02*
X154203390Y-63714285D01*
X154203390Y-63714285D02*
X154155771Y-63619047D01*
X154155771Y-63619047D02*
X154155771Y-63380952D01*
X154155771Y-63380952D02*
X154203390Y-63285714D01*
X154203390Y-63285714D02*
X154251009Y-63238095D01*
X154251009Y-63238095D02*
X154346247Y-63190476D01*
X154346247Y-63190476D02*
X154584342Y-63190476D01*
X154584342Y-63190476D02*
X154679580Y-63238095D01*
X154679580Y-63238095D02*
X154727200Y-63285714D01*
X154727200Y-63285714D02*
X154774819Y-63380952D01*
X154774819Y-63380952D02*
X154774819Y-63619047D01*
X154774819Y-63619047D02*
X154727200Y-63714285D01*
X154727200Y-63714285D02*
X154679580Y-63761904D01*
X153870057Y-62809523D02*
X153822438Y-62761904D01*
X153822438Y-62761904D02*
X153774819Y-62666666D01*
X153774819Y-62666666D02*
X153774819Y-62428571D01*
X153774819Y-62428571D02*
X153822438Y-62333333D01*
X153822438Y-62333333D02*
X153870057Y-62285714D01*
X153870057Y-62285714D02*
X153965295Y-62238095D01*
X153965295Y-62238095D02*
X154060533Y-62238095D01*
X154060533Y-62238095D02*
X154203390Y-62285714D01*
X154203390Y-62285714D02*
X154774819Y-62857142D01*
X154774819Y-62857142D02*
X154774819Y-62238095D01*
X93814819Y-64142857D02*
X93338628Y-64476190D01*
X93814819Y-64714285D02*
X92814819Y-64714285D01*
X92814819Y-64714285D02*
X92814819Y-64333333D01*
X92814819Y-64333333D02*
X92862438Y-64238095D01*
X92862438Y-64238095D02*
X92910057Y-64190476D01*
X92910057Y-64190476D02*
X93005295Y-64142857D01*
X93005295Y-64142857D02*
X93148152Y-64142857D01*
X93148152Y-64142857D02*
X93243390Y-64190476D01*
X93243390Y-64190476D02*
X93291009Y-64238095D01*
X93291009Y-64238095D02*
X93338628Y-64333333D01*
X93338628Y-64333333D02*
X93338628Y-64714285D01*
X92910057Y-63761904D02*
X92862438Y-63714285D01*
X92862438Y-63714285D02*
X92814819Y-63619047D01*
X92814819Y-63619047D02*
X92814819Y-63380952D01*
X92814819Y-63380952D02*
X92862438Y-63285714D01*
X92862438Y-63285714D02*
X92910057Y-63238095D01*
X92910057Y-63238095D02*
X93005295Y-63190476D01*
X93005295Y-63190476D02*
X93100533Y-63190476D01*
X93100533Y-63190476D02*
X93243390Y-63238095D01*
X93243390Y-63238095D02*
X93814819Y-63809523D01*
X93814819Y-63809523D02*
X93814819Y-63190476D01*
X93243390Y-62619047D02*
X93195771Y-62714285D01*
X93195771Y-62714285D02*
X93148152Y-62761904D01*
X93148152Y-62761904D02*
X93052914Y-62809523D01*
X93052914Y-62809523D02*
X93005295Y-62809523D01*
X93005295Y-62809523D02*
X92910057Y-62761904D01*
X92910057Y-62761904D02*
X92862438Y-62714285D01*
X92862438Y-62714285D02*
X92814819Y-62619047D01*
X92814819Y-62619047D02*
X92814819Y-62428571D01*
X92814819Y-62428571D02*
X92862438Y-62333333D01*
X92862438Y-62333333D02*
X92910057Y-62285714D01*
X92910057Y-62285714D02*
X93005295Y-62238095D01*
X93005295Y-62238095D02*
X93052914Y-62238095D01*
X93052914Y-62238095D02*
X93148152Y-62285714D01*
X93148152Y-62285714D02*
X93195771Y-62333333D01*
X93195771Y-62333333D02*
X93243390Y-62428571D01*
X93243390Y-62428571D02*
X93243390Y-62619047D01*
X93243390Y-62619047D02*
X93291009Y-62714285D01*
X93291009Y-62714285D02*
X93338628Y-62761904D01*
X93338628Y-62761904D02*
X93433866Y-62809523D01*
X93433866Y-62809523D02*
X93624342Y-62809523D01*
X93624342Y-62809523D02*
X93719580Y-62761904D01*
X93719580Y-62761904D02*
X93767200Y-62714285D01*
X93767200Y-62714285D02*
X93814819Y-62619047D01*
X93814819Y-62619047D02*
X93814819Y-62428571D01*
X93814819Y-62428571D02*
X93767200Y-62333333D01*
X93767200Y-62333333D02*
X93719580Y-62285714D01*
X93719580Y-62285714D02*
X93624342Y-62238095D01*
X93624342Y-62238095D02*
X93433866Y-62238095D01*
X93433866Y-62238095D02*
X93338628Y-62285714D01*
X93338628Y-62285714D02*
X93291009Y-62333333D01*
X93291009Y-62333333D02*
X93243390Y-62428571D01*
X69564819Y-92943333D02*
X70279104Y-92943333D01*
X70279104Y-92943333D02*
X70421961Y-92990952D01*
X70421961Y-92990952D02*
X70517200Y-93086190D01*
X70517200Y-93086190D02*
X70564819Y-93229047D01*
X70564819Y-93229047D02*
X70564819Y-93324285D01*
X69564819Y-91990952D02*
X69564819Y-92467142D01*
X69564819Y-92467142D02*
X70041009Y-92514761D01*
X70041009Y-92514761D02*
X69993390Y-92467142D01*
X69993390Y-92467142D02*
X69945771Y-92371904D01*
X69945771Y-92371904D02*
X69945771Y-92133809D01*
X69945771Y-92133809D02*
X69993390Y-92038571D01*
X69993390Y-92038571D02*
X70041009Y-91990952D01*
X70041009Y-91990952D02*
X70136247Y-91943333D01*
X70136247Y-91943333D02*
X70374342Y-91943333D01*
X70374342Y-91943333D02*
X70469580Y-91990952D01*
X70469580Y-91990952D02*
X70517200Y-92038571D01*
X70517200Y-92038571D02*
X70564819Y-92133809D01*
X70564819Y-92133809D02*
X70564819Y-92371904D01*
X70564819Y-92371904D02*
X70517200Y-92467142D01*
X70517200Y-92467142D02*
X70469580Y-92514761D01*
X124170476Y-21924819D02*
X124170476Y-22639104D01*
X124170476Y-22639104D02*
X124122857Y-22781961D01*
X124122857Y-22781961D02*
X124027619Y-22877200D01*
X124027619Y-22877200D02*
X123884762Y-22924819D01*
X123884762Y-22924819D02*
X123789524Y-22924819D01*
X125170476Y-22924819D02*
X124599048Y-22924819D01*
X124884762Y-22924819D02*
X124884762Y-21924819D01*
X124884762Y-21924819D02*
X124789524Y-22067676D01*
X124789524Y-22067676D02*
X124694286Y-22162914D01*
X124694286Y-22162914D02*
X124599048Y-22210533D01*
X126122857Y-22924819D02*
X125551429Y-22924819D01*
X125837143Y-22924819D02*
X125837143Y-21924819D01*
X125837143Y-21924819D02*
X125741905Y-22067676D01*
X125741905Y-22067676D02*
X125646667Y-22162914D01*
X125646667Y-22162914D02*
X125551429Y-22210533D01*
X177734819Y-64142857D02*
X177258628Y-64476190D01*
X177734819Y-64714285D02*
X176734819Y-64714285D01*
X176734819Y-64714285D02*
X176734819Y-64333333D01*
X176734819Y-64333333D02*
X176782438Y-64238095D01*
X176782438Y-64238095D02*
X176830057Y-64190476D01*
X176830057Y-64190476D02*
X176925295Y-64142857D01*
X176925295Y-64142857D02*
X177068152Y-64142857D01*
X177068152Y-64142857D02*
X177163390Y-64190476D01*
X177163390Y-64190476D02*
X177211009Y-64238095D01*
X177211009Y-64238095D02*
X177258628Y-64333333D01*
X177258628Y-64333333D02*
X177258628Y-64714285D01*
X176734819Y-63285714D02*
X176734819Y-63476190D01*
X176734819Y-63476190D02*
X176782438Y-63571428D01*
X176782438Y-63571428D02*
X176830057Y-63619047D01*
X176830057Y-63619047D02*
X176972914Y-63714285D01*
X176972914Y-63714285D02*
X177163390Y-63761904D01*
X177163390Y-63761904D02*
X177544342Y-63761904D01*
X177544342Y-63761904D02*
X177639580Y-63714285D01*
X177639580Y-63714285D02*
X177687200Y-63666666D01*
X177687200Y-63666666D02*
X177734819Y-63571428D01*
X177734819Y-63571428D02*
X177734819Y-63380952D01*
X177734819Y-63380952D02*
X177687200Y-63285714D01*
X177687200Y-63285714D02*
X177639580Y-63238095D01*
X177639580Y-63238095D02*
X177544342Y-63190476D01*
X177544342Y-63190476D02*
X177306247Y-63190476D01*
X177306247Y-63190476D02*
X177211009Y-63238095D01*
X177211009Y-63238095D02*
X177163390Y-63285714D01*
X177163390Y-63285714D02*
X177115771Y-63380952D01*
X177115771Y-63380952D02*
X177115771Y-63571428D01*
X177115771Y-63571428D02*
X177163390Y-63666666D01*
X177163390Y-63666666D02*
X177211009Y-63714285D01*
X177211009Y-63714285D02*
X177306247Y-63761904D01*
X176734819Y-62571428D02*
X176734819Y-62476190D01*
X176734819Y-62476190D02*
X176782438Y-62380952D01*
X176782438Y-62380952D02*
X176830057Y-62333333D01*
X176830057Y-62333333D02*
X176925295Y-62285714D01*
X176925295Y-62285714D02*
X177115771Y-62238095D01*
X177115771Y-62238095D02*
X177353866Y-62238095D01*
X177353866Y-62238095D02*
X177544342Y-62285714D01*
X177544342Y-62285714D02*
X177639580Y-62333333D01*
X177639580Y-62333333D02*
X177687200Y-62380952D01*
X177687200Y-62380952D02*
X177734819Y-62476190D01*
X177734819Y-62476190D02*
X177734819Y-62571428D01*
X177734819Y-62571428D02*
X177687200Y-62666666D01*
X177687200Y-62666666D02*
X177639580Y-62714285D01*
X177639580Y-62714285D02*
X177544342Y-62761904D01*
X177544342Y-62761904D02*
X177353866Y-62809523D01*
X177353866Y-62809523D02*
X177115771Y-62809523D01*
X177115771Y-62809523D02*
X176925295Y-62761904D01*
X176925295Y-62761904D02*
X176830057Y-62714285D01*
X176830057Y-62714285D02*
X176782438Y-62666666D01*
X176782438Y-62666666D02*
X176734819Y-62571428D01*
X58254819Y-64142857D02*
X57778628Y-64476190D01*
X58254819Y-64714285D02*
X57254819Y-64714285D01*
X57254819Y-64714285D02*
X57254819Y-64333333D01*
X57254819Y-64333333D02*
X57302438Y-64238095D01*
X57302438Y-64238095D02*
X57350057Y-64190476D01*
X57350057Y-64190476D02*
X57445295Y-64142857D01*
X57445295Y-64142857D02*
X57588152Y-64142857D01*
X57588152Y-64142857D02*
X57683390Y-64190476D01*
X57683390Y-64190476D02*
X57731009Y-64238095D01*
X57731009Y-64238095D02*
X57778628Y-64333333D01*
X57778628Y-64333333D02*
X57778628Y-64714285D01*
X58254819Y-63190476D02*
X58254819Y-63761904D01*
X58254819Y-63476190D02*
X57254819Y-63476190D01*
X57254819Y-63476190D02*
X57397676Y-63571428D01*
X57397676Y-63571428D02*
X57492914Y-63666666D01*
X57492914Y-63666666D02*
X57540533Y-63761904D01*
X57588152Y-62333333D02*
X58254819Y-62333333D01*
X57207200Y-62571428D02*
X57921485Y-62809523D01*
X57921485Y-62809523D02*
X57921485Y-62190476D01*
X27163095Y-26349819D02*
X27163095Y-27159342D01*
X27163095Y-27159342D02*
X27210714Y-27254580D01*
X27210714Y-27254580D02*
X27258333Y-27302200D01*
X27258333Y-27302200D02*
X27353571Y-27349819D01*
X27353571Y-27349819D02*
X27544047Y-27349819D01*
X27544047Y-27349819D02*
X27639285Y-27302200D01*
X27639285Y-27302200D02*
X27686904Y-27254580D01*
X27686904Y-27254580D02*
X27734523Y-27159342D01*
X27734523Y-27159342D02*
X27734523Y-26349819D01*
X28115476Y-26349819D02*
X28734523Y-26349819D01*
X28734523Y-26349819D02*
X28401190Y-26730771D01*
X28401190Y-26730771D02*
X28544047Y-26730771D01*
X28544047Y-26730771D02*
X28639285Y-26778390D01*
X28639285Y-26778390D02*
X28686904Y-26826009D01*
X28686904Y-26826009D02*
X28734523Y-26921247D01*
X28734523Y-26921247D02*
X28734523Y-27159342D01*
X28734523Y-27159342D02*
X28686904Y-27254580D01*
X28686904Y-27254580D02*
X28639285Y-27302200D01*
X28639285Y-27302200D02*
X28544047Y-27349819D01*
X28544047Y-27349819D02*
X28258333Y-27349819D01*
X28258333Y-27349819D02*
X28163095Y-27302200D01*
X28163095Y-27302200D02*
X28115476Y-27254580D01*
X121754819Y-64142857D02*
X121278628Y-64476190D01*
X121754819Y-64714285D02*
X120754819Y-64714285D01*
X120754819Y-64714285D02*
X120754819Y-64333333D01*
X120754819Y-64333333D02*
X120802438Y-64238095D01*
X120802438Y-64238095D02*
X120850057Y-64190476D01*
X120850057Y-64190476D02*
X120945295Y-64142857D01*
X120945295Y-64142857D02*
X121088152Y-64142857D01*
X121088152Y-64142857D02*
X121183390Y-64190476D01*
X121183390Y-64190476D02*
X121231009Y-64238095D01*
X121231009Y-64238095D02*
X121278628Y-64333333D01*
X121278628Y-64333333D02*
X121278628Y-64714285D01*
X120754819Y-63809523D02*
X120754819Y-63190476D01*
X120754819Y-63190476D02*
X121135771Y-63523809D01*
X121135771Y-63523809D02*
X121135771Y-63380952D01*
X121135771Y-63380952D02*
X121183390Y-63285714D01*
X121183390Y-63285714D02*
X121231009Y-63238095D01*
X121231009Y-63238095D02*
X121326247Y-63190476D01*
X121326247Y-63190476D02*
X121564342Y-63190476D01*
X121564342Y-63190476D02*
X121659580Y-63238095D01*
X121659580Y-63238095D02*
X121707200Y-63285714D01*
X121707200Y-63285714D02*
X121754819Y-63380952D01*
X121754819Y-63380952D02*
X121754819Y-63666666D01*
X121754819Y-63666666D02*
X121707200Y-63761904D01*
X121707200Y-63761904D02*
X121659580Y-63809523D01*
X121754819Y-62714285D02*
X121754819Y-62523809D01*
X121754819Y-62523809D02*
X121707200Y-62428571D01*
X121707200Y-62428571D02*
X121659580Y-62380952D01*
X121659580Y-62380952D02*
X121516723Y-62285714D01*
X121516723Y-62285714D02*
X121326247Y-62238095D01*
X121326247Y-62238095D02*
X120945295Y-62238095D01*
X120945295Y-62238095D02*
X120850057Y-62285714D01*
X120850057Y-62285714D02*
X120802438Y-62333333D01*
X120802438Y-62333333D02*
X120754819Y-62428571D01*
X120754819Y-62428571D02*
X120754819Y-62619047D01*
X120754819Y-62619047D02*
X120802438Y-62714285D01*
X120802438Y-62714285D02*
X120850057Y-62761904D01*
X120850057Y-62761904D02*
X120945295Y-62809523D01*
X120945295Y-62809523D02*
X121183390Y-62809523D01*
X121183390Y-62809523D02*
X121278628Y-62761904D01*
X121278628Y-62761904D02*
X121326247Y-62714285D01*
X121326247Y-62714285D02*
X121373866Y-62619047D01*
X121373866Y-62619047D02*
X121373866Y-62428571D01*
X121373866Y-62428571D02*
X121326247Y-62333333D01*
X121326247Y-62333333D02*
X121278628Y-62285714D01*
X121278628Y-62285714D02*
X121183390Y-62238095D01*
X73494819Y-64142857D02*
X73018628Y-64476190D01*
X73494819Y-64714285D02*
X72494819Y-64714285D01*
X72494819Y-64714285D02*
X72494819Y-64333333D01*
X72494819Y-64333333D02*
X72542438Y-64238095D01*
X72542438Y-64238095D02*
X72590057Y-64190476D01*
X72590057Y-64190476D02*
X72685295Y-64142857D01*
X72685295Y-64142857D02*
X72828152Y-64142857D01*
X72828152Y-64142857D02*
X72923390Y-64190476D01*
X72923390Y-64190476D02*
X72971009Y-64238095D01*
X72971009Y-64238095D02*
X73018628Y-64333333D01*
X73018628Y-64333333D02*
X73018628Y-64714285D01*
X72590057Y-63761904D02*
X72542438Y-63714285D01*
X72542438Y-63714285D02*
X72494819Y-63619047D01*
X72494819Y-63619047D02*
X72494819Y-63380952D01*
X72494819Y-63380952D02*
X72542438Y-63285714D01*
X72542438Y-63285714D02*
X72590057Y-63238095D01*
X72590057Y-63238095D02*
X72685295Y-63190476D01*
X72685295Y-63190476D02*
X72780533Y-63190476D01*
X72780533Y-63190476D02*
X72923390Y-63238095D01*
X72923390Y-63238095D02*
X73494819Y-63809523D01*
X73494819Y-63809523D02*
X73494819Y-63190476D01*
X72494819Y-62571428D02*
X72494819Y-62476190D01*
X72494819Y-62476190D02*
X72542438Y-62380952D01*
X72542438Y-62380952D02*
X72590057Y-62333333D01*
X72590057Y-62333333D02*
X72685295Y-62285714D01*
X72685295Y-62285714D02*
X72875771Y-62238095D01*
X72875771Y-62238095D02*
X73113866Y-62238095D01*
X73113866Y-62238095D02*
X73304342Y-62285714D01*
X73304342Y-62285714D02*
X73399580Y-62333333D01*
X73399580Y-62333333D02*
X73447200Y-62380952D01*
X73447200Y-62380952D02*
X73494819Y-62476190D01*
X73494819Y-62476190D02*
X73494819Y-62571428D01*
X73494819Y-62571428D02*
X73447200Y-62666666D01*
X73447200Y-62666666D02*
X73399580Y-62714285D01*
X73399580Y-62714285D02*
X73304342Y-62761904D01*
X73304342Y-62761904D02*
X73113866Y-62809523D01*
X73113866Y-62809523D02*
X72875771Y-62809523D01*
X72875771Y-62809523D02*
X72685295Y-62761904D01*
X72685295Y-62761904D02*
X72590057Y-62714285D01*
X72590057Y-62714285D02*
X72542438Y-62666666D01*
X72542438Y-62666666D02*
X72494819Y-62571428D01*
X152908095Y-25064819D02*
X152908095Y-25874342D01*
X152908095Y-25874342D02*
X152955714Y-25969580D01*
X152955714Y-25969580D02*
X153003333Y-26017200D01*
X153003333Y-26017200D02*
X153098571Y-26064819D01*
X153098571Y-26064819D02*
X153289047Y-26064819D01*
X153289047Y-26064819D02*
X153384285Y-26017200D01*
X153384285Y-26017200D02*
X153431904Y-25969580D01*
X153431904Y-25969580D02*
X153479523Y-25874342D01*
X153479523Y-25874342D02*
X153479523Y-25064819D01*
X153860476Y-25064819D02*
X154527142Y-25064819D01*
X154527142Y-25064819D02*
X154098571Y-26064819D01*
X22794819Y-63666666D02*
X22318628Y-63999999D01*
X22794819Y-64238094D02*
X21794819Y-64238094D01*
X21794819Y-64238094D02*
X21794819Y-63857142D01*
X21794819Y-63857142D02*
X21842438Y-63761904D01*
X21842438Y-63761904D02*
X21890057Y-63714285D01*
X21890057Y-63714285D02*
X21985295Y-63666666D01*
X21985295Y-63666666D02*
X22128152Y-63666666D01*
X22128152Y-63666666D02*
X22223390Y-63714285D01*
X22223390Y-63714285D02*
X22271009Y-63761904D01*
X22271009Y-63761904D02*
X22318628Y-63857142D01*
X22318628Y-63857142D02*
X22318628Y-64238094D01*
X22794819Y-62714285D02*
X22794819Y-63285713D01*
X22794819Y-62999999D02*
X21794819Y-62999999D01*
X21794819Y-62999999D02*
X21937676Y-63095237D01*
X21937676Y-63095237D02*
X22032914Y-63190475D01*
X22032914Y-63190475D02*
X22080533Y-63285713D01*
X152234819Y-64142857D02*
X151758628Y-64476190D01*
X152234819Y-64714285D02*
X151234819Y-64714285D01*
X151234819Y-64714285D02*
X151234819Y-64333333D01*
X151234819Y-64333333D02*
X151282438Y-64238095D01*
X151282438Y-64238095D02*
X151330057Y-64190476D01*
X151330057Y-64190476D02*
X151425295Y-64142857D01*
X151425295Y-64142857D02*
X151568152Y-64142857D01*
X151568152Y-64142857D02*
X151663390Y-64190476D01*
X151663390Y-64190476D02*
X151711009Y-64238095D01*
X151711009Y-64238095D02*
X151758628Y-64333333D01*
X151758628Y-64333333D02*
X151758628Y-64714285D01*
X151234819Y-63238095D02*
X151234819Y-63714285D01*
X151234819Y-63714285D02*
X151711009Y-63761904D01*
X151711009Y-63761904D02*
X151663390Y-63714285D01*
X151663390Y-63714285D02*
X151615771Y-63619047D01*
X151615771Y-63619047D02*
X151615771Y-63380952D01*
X151615771Y-63380952D02*
X151663390Y-63285714D01*
X151663390Y-63285714D02*
X151711009Y-63238095D01*
X151711009Y-63238095D02*
X151806247Y-63190476D01*
X151806247Y-63190476D02*
X152044342Y-63190476D01*
X152044342Y-63190476D02*
X152139580Y-63238095D01*
X152139580Y-63238095D02*
X152187200Y-63285714D01*
X152187200Y-63285714D02*
X152234819Y-63380952D01*
X152234819Y-63380952D02*
X152234819Y-63619047D01*
X152234819Y-63619047D02*
X152187200Y-63714285D01*
X152187200Y-63714285D02*
X152139580Y-63761904D01*
X152234819Y-62238095D02*
X152234819Y-62809523D01*
X152234819Y-62523809D02*
X151234819Y-62523809D01*
X151234819Y-62523809D02*
X151377676Y-62619047D01*
X151377676Y-62619047D02*
X151472914Y-62714285D01*
X151472914Y-62714285D02*
X151520533Y-62809523D01*
X175768095Y-25064819D02*
X175768095Y-25874342D01*
X175768095Y-25874342D02*
X175815714Y-25969580D01*
X175815714Y-25969580D02*
X175863333Y-26017200D01*
X175863333Y-26017200D02*
X175958571Y-26064819D01*
X175958571Y-26064819D02*
X176149047Y-26064819D01*
X176149047Y-26064819D02*
X176244285Y-26017200D01*
X176244285Y-26017200D02*
X176291904Y-25969580D01*
X176291904Y-25969580D02*
X176339523Y-25874342D01*
X176339523Y-25874342D02*
X176339523Y-25064819D01*
X176958571Y-25493390D02*
X176863333Y-25445771D01*
X176863333Y-25445771D02*
X176815714Y-25398152D01*
X176815714Y-25398152D02*
X176768095Y-25302914D01*
X176768095Y-25302914D02*
X176768095Y-25255295D01*
X176768095Y-25255295D02*
X176815714Y-25160057D01*
X176815714Y-25160057D02*
X176863333Y-25112438D01*
X176863333Y-25112438D02*
X176958571Y-25064819D01*
X176958571Y-25064819D02*
X177149047Y-25064819D01*
X177149047Y-25064819D02*
X177244285Y-25112438D01*
X177244285Y-25112438D02*
X177291904Y-25160057D01*
X177291904Y-25160057D02*
X177339523Y-25255295D01*
X177339523Y-25255295D02*
X177339523Y-25302914D01*
X177339523Y-25302914D02*
X177291904Y-25398152D01*
X177291904Y-25398152D02*
X177244285Y-25445771D01*
X177244285Y-25445771D02*
X177149047Y-25493390D01*
X177149047Y-25493390D02*
X176958571Y-25493390D01*
X176958571Y-25493390D02*
X176863333Y-25541009D01*
X176863333Y-25541009D02*
X176815714Y-25588628D01*
X176815714Y-25588628D02*
X176768095Y-25683866D01*
X176768095Y-25683866D02*
X176768095Y-25874342D01*
X176768095Y-25874342D02*
X176815714Y-25969580D01*
X176815714Y-25969580D02*
X176863333Y-26017200D01*
X176863333Y-26017200D02*
X176958571Y-26064819D01*
X176958571Y-26064819D02*
X177149047Y-26064819D01*
X177149047Y-26064819D02*
X177244285Y-26017200D01*
X177244285Y-26017200D02*
X177291904Y-25969580D01*
X177291904Y-25969580D02*
X177339523Y-25874342D01*
X177339523Y-25874342D02*
X177339523Y-25683866D01*
X177339523Y-25683866D02*
X177291904Y-25588628D01*
X177291904Y-25588628D02*
X177244285Y-25541009D01*
X177244285Y-25541009D02*
X177149047Y-25493390D01*
X136994819Y-64142857D02*
X136518628Y-64476190D01*
X136994819Y-64714285D02*
X135994819Y-64714285D01*
X135994819Y-64714285D02*
X135994819Y-64333333D01*
X135994819Y-64333333D02*
X136042438Y-64238095D01*
X136042438Y-64238095D02*
X136090057Y-64190476D01*
X136090057Y-64190476D02*
X136185295Y-64142857D01*
X136185295Y-64142857D02*
X136328152Y-64142857D01*
X136328152Y-64142857D02*
X136423390Y-64190476D01*
X136423390Y-64190476D02*
X136471009Y-64238095D01*
X136471009Y-64238095D02*
X136518628Y-64333333D01*
X136518628Y-64333333D02*
X136518628Y-64714285D01*
X136328152Y-63285714D02*
X136994819Y-63285714D01*
X135947200Y-63523809D02*
X136661485Y-63761904D01*
X136661485Y-63761904D02*
X136661485Y-63142857D01*
X135994819Y-62285714D02*
X135994819Y-62761904D01*
X135994819Y-62761904D02*
X136471009Y-62809523D01*
X136471009Y-62809523D02*
X136423390Y-62761904D01*
X136423390Y-62761904D02*
X136375771Y-62666666D01*
X136375771Y-62666666D02*
X136375771Y-62428571D01*
X136375771Y-62428571D02*
X136423390Y-62333333D01*
X136423390Y-62333333D02*
X136471009Y-62285714D01*
X136471009Y-62285714D02*
X136566247Y-62238095D01*
X136566247Y-62238095D02*
X136804342Y-62238095D01*
X136804342Y-62238095D02*
X136899580Y-62285714D01*
X136899580Y-62285714D02*
X136947200Y-62333333D01*
X136947200Y-62333333D02*
X136994819Y-62428571D01*
X136994819Y-62428571D02*
X136994819Y-62666666D01*
X136994819Y-62666666D02*
X136947200Y-62761904D01*
X136947200Y-62761904D02*
X136899580Y-62809523D01*
X132588095Y-25064819D02*
X132588095Y-25874342D01*
X132588095Y-25874342D02*
X132635714Y-25969580D01*
X132635714Y-25969580D02*
X132683333Y-26017200D01*
X132683333Y-26017200D02*
X132778571Y-26064819D01*
X132778571Y-26064819D02*
X132969047Y-26064819D01*
X132969047Y-26064819D02*
X133064285Y-26017200D01*
X133064285Y-26017200D02*
X133111904Y-25969580D01*
X133111904Y-25969580D02*
X133159523Y-25874342D01*
X133159523Y-25874342D02*
X133159523Y-25064819D01*
X134064285Y-25064819D02*
X133873809Y-25064819D01*
X133873809Y-25064819D02*
X133778571Y-25112438D01*
X133778571Y-25112438D02*
X133730952Y-25160057D01*
X133730952Y-25160057D02*
X133635714Y-25302914D01*
X133635714Y-25302914D02*
X133588095Y-25493390D01*
X133588095Y-25493390D02*
X133588095Y-25874342D01*
X133588095Y-25874342D02*
X133635714Y-25969580D01*
X133635714Y-25969580D02*
X133683333Y-26017200D01*
X133683333Y-26017200D02*
X133778571Y-26064819D01*
X133778571Y-26064819D02*
X133969047Y-26064819D01*
X133969047Y-26064819D02*
X134064285Y-26017200D01*
X134064285Y-26017200D02*
X134111904Y-25969580D01*
X134111904Y-25969580D02*
X134159523Y-25874342D01*
X134159523Y-25874342D02*
X134159523Y-25636247D01*
X134159523Y-25636247D02*
X134111904Y-25541009D01*
X134111904Y-25541009D02*
X134064285Y-25493390D01*
X134064285Y-25493390D02*
X133969047Y-25445771D01*
X133969047Y-25445771D02*
X133778571Y-25445771D01*
X133778571Y-25445771D02*
X133683333Y-25493390D01*
X133683333Y-25493390D02*
X133635714Y-25541009D01*
X133635714Y-25541009D02*
X133588095Y-25636247D01*
X18986666Y-98854819D02*
X18653333Y-98378628D01*
X18415238Y-98854819D02*
X18415238Y-97854819D01*
X18415238Y-97854819D02*
X18796190Y-97854819D01*
X18796190Y-97854819D02*
X18891428Y-97902438D01*
X18891428Y-97902438D02*
X18939047Y-97950057D01*
X18939047Y-97950057D02*
X18986666Y-98045295D01*
X18986666Y-98045295D02*
X18986666Y-98188152D01*
X18986666Y-98188152D02*
X18939047Y-98283390D01*
X18939047Y-98283390D02*
X18891428Y-98331009D01*
X18891428Y-98331009D02*
X18796190Y-98378628D01*
X18796190Y-98378628D02*
X18415238Y-98378628D01*
X19415238Y-98331009D02*
X19748571Y-98331009D01*
X19891428Y-98854819D02*
X19415238Y-98854819D01*
X19415238Y-98854819D02*
X19415238Y-97854819D01*
X19415238Y-97854819D02*
X19891428Y-97854819D01*
X20653333Y-98331009D02*
X20320000Y-98331009D01*
X20320000Y-98854819D02*
X20320000Y-97854819D01*
X20320000Y-97854819D02*
X20796190Y-97854819D01*
X21320000Y-97854819D02*
X21320000Y-98092914D01*
X21081905Y-97997676D02*
X21320000Y-98092914D01*
X21320000Y-98092914D02*
X21558095Y-97997676D01*
X21177143Y-98283390D02*
X21320000Y-98092914D01*
X21320000Y-98092914D02*
X21462857Y-98283390D01*
X22081905Y-97854819D02*
X22081905Y-98092914D01*
X21843810Y-97997676D02*
X22081905Y-98092914D01*
X22081905Y-98092914D02*
X22320000Y-97997676D01*
X21939048Y-98283390D02*
X22081905Y-98092914D01*
X22081905Y-98092914D02*
X22224762Y-98283390D01*
X165554819Y-64142857D02*
X165078628Y-64476190D01*
X165554819Y-64714285D02*
X164554819Y-64714285D01*
X164554819Y-64714285D02*
X164554819Y-64333333D01*
X164554819Y-64333333D02*
X164602438Y-64238095D01*
X164602438Y-64238095D02*
X164650057Y-64190476D01*
X164650057Y-64190476D02*
X164745295Y-64142857D01*
X164745295Y-64142857D02*
X164888152Y-64142857D01*
X164888152Y-64142857D02*
X164983390Y-64190476D01*
X164983390Y-64190476D02*
X165031009Y-64238095D01*
X165031009Y-64238095D02*
X165078628Y-64333333D01*
X165078628Y-64333333D02*
X165078628Y-64714285D01*
X164554819Y-63238095D02*
X164554819Y-63714285D01*
X164554819Y-63714285D02*
X165031009Y-63761904D01*
X165031009Y-63761904D02*
X164983390Y-63714285D01*
X164983390Y-63714285D02*
X164935771Y-63619047D01*
X164935771Y-63619047D02*
X164935771Y-63380952D01*
X164935771Y-63380952D02*
X164983390Y-63285714D01*
X164983390Y-63285714D02*
X165031009Y-63238095D01*
X165031009Y-63238095D02*
X165126247Y-63190476D01*
X165126247Y-63190476D02*
X165364342Y-63190476D01*
X165364342Y-63190476D02*
X165459580Y-63238095D01*
X165459580Y-63238095D02*
X165507200Y-63285714D01*
X165507200Y-63285714D02*
X165554819Y-63380952D01*
X165554819Y-63380952D02*
X165554819Y-63619047D01*
X165554819Y-63619047D02*
X165507200Y-63714285D01*
X165507200Y-63714285D02*
X165459580Y-63761904D01*
X164554819Y-62333333D02*
X164554819Y-62523809D01*
X164554819Y-62523809D02*
X164602438Y-62619047D01*
X164602438Y-62619047D02*
X164650057Y-62666666D01*
X164650057Y-62666666D02*
X164792914Y-62761904D01*
X164792914Y-62761904D02*
X164983390Y-62809523D01*
X164983390Y-62809523D02*
X165364342Y-62809523D01*
X165364342Y-62809523D02*
X165459580Y-62761904D01*
X165459580Y-62761904D02*
X165507200Y-62714285D01*
X165507200Y-62714285D02*
X165554819Y-62619047D01*
X165554819Y-62619047D02*
X165554819Y-62428571D01*
X165554819Y-62428571D02*
X165507200Y-62333333D01*
X165507200Y-62333333D02*
X165459580Y-62285714D01*
X165459580Y-62285714D02*
X165364342Y-62238095D01*
X165364342Y-62238095D02*
X165126247Y-62238095D01*
X165126247Y-62238095D02*
X165031009Y-62285714D01*
X165031009Y-62285714D02*
X164983390Y-62333333D01*
X164983390Y-62333333D02*
X164935771Y-62428571D01*
X164935771Y-62428571D02*
X164935771Y-62619047D01*
X164935771Y-62619047D02*
X164983390Y-62714285D01*
X164983390Y-62714285D02*
X165031009Y-62761904D01*
X165031009Y-62761904D02*
X165126247Y-62809523D01*
X186626666Y-15034819D02*
X186293333Y-14558628D01*
X186055238Y-15034819D02*
X186055238Y-14034819D01*
X186055238Y-14034819D02*
X186436190Y-14034819D01*
X186436190Y-14034819D02*
X186531428Y-14082438D01*
X186531428Y-14082438D02*
X186579047Y-14130057D01*
X186579047Y-14130057D02*
X186626666Y-14225295D01*
X186626666Y-14225295D02*
X186626666Y-14368152D01*
X186626666Y-14368152D02*
X186579047Y-14463390D01*
X186579047Y-14463390D02*
X186531428Y-14511009D01*
X186531428Y-14511009D02*
X186436190Y-14558628D01*
X186436190Y-14558628D02*
X186055238Y-14558628D01*
X187055238Y-14511009D02*
X187388571Y-14511009D01*
X187531428Y-15034819D02*
X187055238Y-15034819D01*
X187055238Y-15034819D02*
X187055238Y-14034819D01*
X187055238Y-14034819D02*
X187531428Y-14034819D01*
X188293333Y-14511009D02*
X187960000Y-14511009D01*
X187960000Y-15034819D02*
X187960000Y-14034819D01*
X187960000Y-14034819D02*
X188436190Y-14034819D01*
X188960000Y-14034819D02*
X188960000Y-14272914D01*
X188721905Y-14177676D02*
X188960000Y-14272914D01*
X188960000Y-14272914D02*
X189198095Y-14177676D01*
X188817143Y-14463390D02*
X188960000Y-14272914D01*
X188960000Y-14272914D02*
X189102857Y-14463390D01*
X189721905Y-14034819D02*
X189721905Y-14272914D01*
X189483810Y-14177676D02*
X189721905Y-14272914D01*
X189721905Y-14272914D02*
X189960000Y-14177676D01*
X189579048Y-14463390D02*
X189721905Y-14272914D01*
X189721905Y-14272914D02*
X189864762Y-14463390D01*
X50634819Y-64142857D02*
X50158628Y-64476190D01*
X50634819Y-64714285D02*
X49634819Y-64714285D01*
X49634819Y-64714285D02*
X49634819Y-64333333D01*
X49634819Y-64333333D02*
X49682438Y-64238095D01*
X49682438Y-64238095D02*
X49730057Y-64190476D01*
X49730057Y-64190476D02*
X49825295Y-64142857D01*
X49825295Y-64142857D02*
X49968152Y-64142857D01*
X49968152Y-64142857D02*
X50063390Y-64190476D01*
X50063390Y-64190476D02*
X50111009Y-64238095D01*
X50111009Y-64238095D02*
X50158628Y-64333333D01*
X50158628Y-64333333D02*
X50158628Y-64714285D01*
X50634819Y-63190476D02*
X50634819Y-63761904D01*
X50634819Y-63476190D02*
X49634819Y-63476190D01*
X49634819Y-63476190D02*
X49777676Y-63571428D01*
X49777676Y-63571428D02*
X49872914Y-63666666D01*
X49872914Y-63666666D02*
X49920533Y-63761904D01*
X50634819Y-62238095D02*
X50634819Y-62809523D01*
X50634819Y-62523809D02*
X49634819Y-62523809D01*
X49634819Y-62523809D02*
X49777676Y-62619047D01*
X49777676Y-62619047D02*
X49872914Y-62714285D01*
X49872914Y-62714285D02*
X49920533Y-62809523D01*
X65874819Y-64142857D02*
X65398628Y-64476190D01*
X65874819Y-64714285D02*
X64874819Y-64714285D01*
X64874819Y-64714285D02*
X64874819Y-64333333D01*
X64874819Y-64333333D02*
X64922438Y-64238095D01*
X64922438Y-64238095D02*
X64970057Y-64190476D01*
X64970057Y-64190476D02*
X65065295Y-64142857D01*
X65065295Y-64142857D02*
X65208152Y-64142857D01*
X65208152Y-64142857D02*
X65303390Y-64190476D01*
X65303390Y-64190476D02*
X65351009Y-64238095D01*
X65351009Y-64238095D02*
X65398628Y-64333333D01*
X65398628Y-64333333D02*
X65398628Y-64714285D01*
X65874819Y-63190476D02*
X65874819Y-63761904D01*
X65874819Y-63476190D02*
X64874819Y-63476190D01*
X64874819Y-63476190D02*
X65017676Y-63571428D01*
X65017676Y-63571428D02*
X65112914Y-63666666D01*
X65112914Y-63666666D02*
X65160533Y-63761904D01*
X64874819Y-62857142D02*
X64874819Y-62190476D01*
X64874819Y-62190476D02*
X65874819Y-62619047D01*
X142074819Y-64142857D02*
X141598628Y-64476190D01*
X142074819Y-64714285D02*
X141074819Y-64714285D01*
X141074819Y-64714285D02*
X141074819Y-64333333D01*
X141074819Y-64333333D02*
X141122438Y-64238095D01*
X141122438Y-64238095D02*
X141170057Y-64190476D01*
X141170057Y-64190476D02*
X141265295Y-64142857D01*
X141265295Y-64142857D02*
X141408152Y-64142857D01*
X141408152Y-64142857D02*
X141503390Y-64190476D01*
X141503390Y-64190476D02*
X141551009Y-64238095D01*
X141551009Y-64238095D02*
X141598628Y-64333333D01*
X141598628Y-64333333D02*
X141598628Y-64714285D01*
X141408152Y-63285714D02*
X142074819Y-63285714D01*
X141027200Y-63523809D02*
X141741485Y-63761904D01*
X141741485Y-63761904D02*
X141741485Y-63142857D01*
X141074819Y-62857142D02*
X141074819Y-62190476D01*
X141074819Y-62190476D02*
X142074819Y-62619047D01*
X168284819Y-64142857D02*
X167808628Y-64476190D01*
X168284819Y-64714285D02*
X167284819Y-64714285D01*
X167284819Y-64714285D02*
X167284819Y-64333333D01*
X167284819Y-64333333D02*
X167332438Y-64238095D01*
X167332438Y-64238095D02*
X167380057Y-64190476D01*
X167380057Y-64190476D02*
X167475295Y-64142857D01*
X167475295Y-64142857D02*
X167618152Y-64142857D01*
X167618152Y-64142857D02*
X167713390Y-64190476D01*
X167713390Y-64190476D02*
X167761009Y-64238095D01*
X167761009Y-64238095D02*
X167808628Y-64333333D01*
X167808628Y-64333333D02*
X167808628Y-64714285D01*
X167284819Y-63238095D02*
X167284819Y-63714285D01*
X167284819Y-63714285D02*
X167761009Y-63761904D01*
X167761009Y-63761904D02*
X167713390Y-63714285D01*
X167713390Y-63714285D02*
X167665771Y-63619047D01*
X167665771Y-63619047D02*
X167665771Y-63380952D01*
X167665771Y-63380952D02*
X167713390Y-63285714D01*
X167713390Y-63285714D02*
X167761009Y-63238095D01*
X167761009Y-63238095D02*
X167856247Y-63190476D01*
X167856247Y-63190476D02*
X168094342Y-63190476D01*
X168094342Y-63190476D02*
X168189580Y-63238095D01*
X168189580Y-63238095D02*
X168237200Y-63285714D01*
X168237200Y-63285714D02*
X168284819Y-63380952D01*
X168284819Y-63380952D02*
X168284819Y-63619047D01*
X168284819Y-63619047D02*
X168237200Y-63714285D01*
X168237200Y-63714285D02*
X168189580Y-63761904D01*
X167284819Y-62857142D02*
X167284819Y-62190476D01*
X167284819Y-62190476D02*
X168284819Y-62619047D01*
X147154819Y-64142857D02*
X146678628Y-64476190D01*
X147154819Y-64714285D02*
X146154819Y-64714285D01*
X146154819Y-64714285D02*
X146154819Y-64333333D01*
X146154819Y-64333333D02*
X146202438Y-64238095D01*
X146202438Y-64238095D02*
X146250057Y-64190476D01*
X146250057Y-64190476D02*
X146345295Y-64142857D01*
X146345295Y-64142857D02*
X146488152Y-64142857D01*
X146488152Y-64142857D02*
X146583390Y-64190476D01*
X146583390Y-64190476D02*
X146631009Y-64238095D01*
X146631009Y-64238095D02*
X146678628Y-64333333D01*
X146678628Y-64333333D02*
X146678628Y-64714285D01*
X146488152Y-63285714D02*
X147154819Y-63285714D01*
X146107200Y-63523809D02*
X146821485Y-63761904D01*
X146821485Y-63761904D02*
X146821485Y-63142857D01*
X147154819Y-62714285D02*
X147154819Y-62523809D01*
X147154819Y-62523809D02*
X147107200Y-62428571D01*
X147107200Y-62428571D02*
X147059580Y-62380952D01*
X147059580Y-62380952D02*
X146916723Y-62285714D01*
X146916723Y-62285714D02*
X146726247Y-62238095D01*
X146726247Y-62238095D02*
X146345295Y-62238095D01*
X146345295Y-62238095D02*
X146250057Y-62285714D01*
X146250057Y-62285714D02*
X146202438Y-62333333D01*
X146202438Y-62333333D02*
X146154819Y-62428571D01*
X146154819Y-62428571D02*
X146154819Y-62619047D01*
X146154819Y-62619047D02*
X146202438Y-62714285D01*
X146202438Y-62714285D02*
X146250057Y-62761904D01*
X146250057Y-62761904D02*
X146345295Y-62809523D01*
X146345295Y-62809523D02*
X146583390Y-62809523D01*
X146583390Y-62809523D02*
X146678628Y-62761904D01*
X146678628Y-62761904D02*
X146726247Y-62714285D01*
X146726247Y-62714285D02*
X146773866Y-62619047D01*
X146773866Y-62619047D02*
X146773866Y-62428571D01*
X146773866Y-62428571D02*
X146726247Y-62333333D01*
X146726247Y-62333333D02*
X146678628Y-62285714D01*
X146678628Y-62285714D02*
X146583390Y-62238095D01*
X98894819Y-64142857D02*
X98418628Y-64476190D01*
X98894819Y-64714285D02*
X97894819Y-64714285D01*
X97894819Y-64714285D02*
X97894819Y-64333333D01*
X97894819Y-64333333D02*
X97942438Y-64238095D01*
X97942438Y-64238095D02*
X97990057Y-64190476D01*
X97990057Y-64190476D02*
X98085295Y-64142857D01*
X98085295Y-64142857D02*
X98228152Y-64142857D01*
X98228152Y-64142857D02*
X98323390Y-64190476D01*
X98323390Y-64190476D02*
X98371009Y-64238095D01*
X98371009Y-64238095D02*
X98418628Y-64333333D01*
X98418628Y-64333333D02*
X98418628Y-64714285D01*
X97894819Y-63809523D02*
X97894819Y-63190476D01*
X97894819Y-63190476D02*
X98275771Y-63523809D01*
X98275771Y-63523809D02*
X98275771Y-63380952D01*
X98275771Y-63380952D02*
X98323390Y-63285714D01*
X98323390Y-63285714D02*
X98371009Y-63238095D01*
X98371009Y-63238095D02*
X98466247Y-63190476D01*
X98466247Y-63190476D02*
X98704342Y-63190476D01*
X98704342Y-63190476D02*
X98799580Y-63238095D01*
X98799580Y-63238095D02*
X98847200Y-63285714D01*
X98847200Y-63285714D02*
X98894819Y-63380952D01*
X98894819Y-63380952D02*
X98894819Y-63666666D01*
X98894819Y-63666666D02*
X98847200Y-63761904D01*
X98847200Y-63761904D02*
X98799580Y-63809523D01*
X97894819Y-62571428D02*
X97894819Y-62476190D01*
X97894819Y-62476190D02*
X97942438Y-62380952D01*
X97942438Y-62380952D02*
X97990057Y-62333333D01*
X97990057Y-62333333D02*
X98085295Y-62285714D01*
X98085295Y-62285714D02*
X98275771Y-62238095D01*
X98275771Y-62238095D02*
X98513866Y-62238095D01*
X98513866Y-62238095D02*
X98704342Y-62285714D01*
X98704342Y-62285714D02*
X98799580Y-62333333D01*
X98799580Y-62333333D02*
X98847200Y-62380952D01*
X98847200Y-62380952D02*
X98894819Y-62476190D01*
X98894819Y-62476190D02*
X98894819Y-62571428D01*
X98894819Y-62571428D02*
X98847200Y-62666666D01*
X98847200Y-62666666D02*
X98799580Y-62714285D01*
X98799580Y-62714285D02*
X98704342Y-62761904D01*
X98704342Y-62761904D02*
X98513866Y-62809523D01*
X98513866Y-62809523D02*
X98275771Y-62809523D01*
X98275771Y-62809523D02*
X98085295Y-62761904D01*
X98085295Y-62761904D02*
X97990057Y-62714285D01*
X97990057Y-62714285D02*
X97942438Y-62666666D01*
X97942438Y-62666666D02*
X97894819Y-62571428D01*
X43014819Y-63666666D02*
X42538628Y-63999999D01*
X43014819Y-64238094D02*
X42014819Y-64238094D01*
X42014819Y-64238094D02*
X42014819Y-63857142D01*
X42014819Y-63857142D02*
X42062438Y-63761904D01*
X42062438Y-63761904D02*
X42110057Y-63714285D01*
X42110057Y-63714285D02*
X42205295Y-63666666D01*
X42205295Y-63666666D02*
X42348152Y-63666666D01*
X42348152Y-63666666D02*
X42443390Y-63714285D01*
X42443390Y-63714285D02*
X42491009Y-63761904D01*
X42491009Y-63761904D02*
X42538628Y-63857142D01*
X42538628Y-63857142D02*
X42538628Y-64238094D01*
X42443390Y-63095237D02*
X42395771Y-63190475D01*
X42395771Y-63190475D02*
X42348152Y-63238094D01*
X42348152Y-63238094D02*
X42252914Y-63285713D01*
X42252914Y-63285713D02*
X42205295Y-63285713D01*
X42205295Y-63285713D02*
X42110057Y-63238094D01*
X42110057Y-63238094D02*
X42062438Y-63190475D01*
X42062438Y-63190475D02*
X42014819Y-63095237D01*
X42014819Y-63095237D02*
X42014819Y-62904761D01*
X42014819Y-62904761D02*
X42062438Y-62809523D01*
X42062438Y-62809523D02*
X42110057Y-62761904D01*
X42110057Y-62761904D02*
X42205295Y-62714285D01*
X42205295Y-62714285D02*
X42252914Y-62714285D01*
X42252914Y-62714285D02*
X42348152Y-62761904D01*
X42348152Y-62761904D02*
X42395771Y-62809523D01*
X42395771Y-62809523D02*
X42443390Y-62904761D01*
X42443390Y-62904761D02*
X42443390Y-63095237D01*
X42443390Y-63095237D02*
X42491009Y-63190475D01*
X42491009Y-63190475D02*
X42538628Y-63238094D01*
X42538628Y-63238094D02*
X42633866Y-63285713D01*
X42633866Y-63285713D02*
X42824342Y-63285713D01*
X42824342Y-63285713D02*
X42919580Y-63238094D01*
X42919580Y-63238094D02*
X42967200Y-63190475D01*
X42967200Y-63190475D02*
X43014819Y-63095237D01*
X43014819Y-63095237D02*
X43014819Y-62904761D01*
X43014819Y-62904761D02*
X42967200Y-62809523D01*
X42967200Y-62809523D02*
X42919580Y-62761904D01*
X42919580Y-62761904D02*
X42824342Y-62714285D01*
X42824342Y-62714285D02*
X42633866Y-62714285D01*
X42633866Y-62714285D02*
X42538628Y-62761904D01*
X42538628Y-62761904D02*
X42491009Y-62809523D01*
X42491009Y-62809523D02*
X42443390Y-62904761D01*
X112268095Y-25064819D02*
X112268095Y-25874342D01*
X112268095Y-25874342D02*
X112315714Y-25969580D01*
X112315714Y-25969580D02*
X112363333Y-26017200D01*
X112363333Y-26017200D02*
X112458571Y-26064819D01*
X112458571Y-26064819D02*
X112649047Y-26064819D01*
X112649047Y-26064819D02*
X112744285Y-26017200D01*
X112744285Y-26017200D02*
X112791904Y-25969580D01*
X112791904Y-25969580D02*
X112839523Y-25874342D01*
X112839523Y-25874342D02*
X112839523Y-25064819D01*
X113791904Y-25064819D02*
X113315714Y-25064819D01*
X113315714Y-25064819D02*
X113268095Y-25541009D01*
X113268095Y-25541009D02*
X113315714Y-25493390D01*
X113315714Y-25493390D02*
X113410952Y-25445771D01*
X113410952Y-25445771D02*
X113649047Y-25445771D01*
X113649047Y-25445771D02*
X113744285Y-25493390D01*
X113744285Y-25493390D02*
X113791904Y-25541009D01*
X113791904Y-25541009D02*
X113839523Y-25636247D01*
X113839523Y-25636247D02*
X113839523Y-25874342D01*
X113839523Y-25874342D02*
X113791904Y-25969580D01*
X113791904Y-25969580D02*
X113744285Y-26017200D01*
X113744285Y-26017200D02*
X113649047Y-26064819D01*
X113649047Y-26064819D02*
X113410952Y-26064819D01*
X113410952Y-26064819D02*
X113315714Y-26017200D01*
X113315714Y-26017200D02*
X113268095Y-25969580D01*
X76034819Y-64142857D02*
X75558628Y-64476190D01*
X76034819Y-64714285D02*
X75034819Y-64714285D01*
X75034819Y-64714285D02*
X75034819Y-64333333D01*
X75034819Y-64333333D02*
X75082438Y-64238095D01*
X75082438Y-64238095D02*
X75130057Y-64190476D01*
X75130057Y-64190476D02*
X75225295Y-64142857D01*
X75225295Y-64142857D02*
X75368152Y-64142857D01*
X75368152Y-64142857D02*
X75463390Y-64190476D01*
X75463390Y-64190476D02*
X75511009Y-64238095D01*
X75511009Y-64238095D02*
X75558628Y-64333333D01*
X75558628Y-64333333D02*
X75558628Y-64714285D01*
X75130057Y-63761904D02*
X75082438Y-63714285D01*
X75082438Y-63714285D02*
X75034819Y-63619047D01*
X75034819Y-63619047D02*
X75034819Y-63380952D01*
X75034819Y-63380952D02*
X75082438Y-63285714D01*
X75082438Y-63285714D02*
X75130057Y-63238095D01*
X75130057Y-63238095D02*
X75225295Y-63190476D01*
X75225295Y-63190476D02*
X75320533Y-63190476D01*
X75320533Y-63190476D02*
X75463390Y-63238095D01*
X75463390Y-63238095D02*
X76034819Y-63809523D01*
X76034819Y-63809523D02*
X76034819Y-63190476D01*
X76034819Y-62238095D02*
X76034819Y-62809523D01*
X76034819Y-62523809D02*
X75034819Y-62523809D01*
X75034819Y-62523809D02*
X75177676Y-62619047D01*
X75177676Y-62619047D02*
X75272914Y-62714285D01*
X75272914Y-62714285D02*
X75320533Y-62809523D01*
X60794819Y-64142857D02*
X60318628Y-64476190D01*
X60794819Y-64714285D02*
X59794819Y-64714285D01*
X59794819Y-64714285D02*
X59794819Y-64333333D01*
X59794819Y-64333333D02*
X59842438Y-64238095D01*
X59842438Y-64238095D02*
X59890057Y-64190476D01*
X59890057Y-64190476D02*
X59985295Y-64142857D01*
X59985295Y-64142857D02*
X60128152Y-64142857D01*
X60128152Y-64142857D02*
X60223390Y-64190476D01*
X60223390Y-64190476D02*
X60271009Y-64238095D01*
X60271009Y-64238095D02*
X60318628Y-64333333D01*
X60318628Y-64333333D02*
X60318628Y-64714285D01*
X60794819Y-63190476D02*
X60794819Y-63761904D01*
X60794819Y-63476190D02*
X59794819Y-63476190D01*
X59794819Y-63476190D02*
X59937676Y-63571428D01*
X59937676Y-63571428D02*
X60032914Y-63666666D01*
X60032914Y-63666666D02*
X60080533Y-63761904D01*
X59794819Y-62285714D02*
X59794819Y-62761904D01*
X59794819Y-62761904D02*
X60271009Y-62809523D01*
X60271009Y-62809523D02*
X60223390Y-62761904D01*
X60223390Y-62761904D02*
X60175771Y-62666666D01*
X60175771Y-62666666D02*
X60175771Y-62428571D01*
X60175771Y-62428571D02*
X60223390Y-62333333D01*
X60223390Y-62333333D02*
X60271009Y-62285714D01*
X60271009Y-62285714D02*
X60366247Y-62238095D01*
X60366247Y-62238095D02*
X60604342Y-62238095D01*
X60604342Y-62238095D02*
X60699580Y-62285714D01*
X60699580Y-62285714D02*
X60747200Y-62333333D01*
X60747200Y-62333333D02*
X60794819Y-62428571D01*
X60794819Y-62428571D02*
X60794819Y-62666666D01*
X60794819Y-62666666D02*
X60747200Y-62761904D01*
X60747200Y-62761904D02*
X60699580Y-62809523D01*
X148304819Y-92903333D02*
X149019104Y-92903333D01*
X149019104Y-92903333D02*
X149161961Y-92950952D01*
X149161961Y-92950952D02*
X149257200Y-93046190D01*
X149257200Y-93046190D02*
X149304819Y-93189047D01*
X149304819Y-93189047D02*
X149304819Y-93284285D01*
X149304819Y-92379523D02*
X149304819Y-92189047D01*
X149304819Y-92189047D02*
X149257200Y-92093809D01*
X149257200Y-92093809D02*
X149209580Y-92046190D01*
X149209580Y-92046190D02*
X149066723Y-91950952D01*
X149066723Y-91950952D02*
X148876247Y-91903333D01*
X148876247Y-91903333D02*
X148495295Y-91903333D01*
X148495295Y-91903333D02*
X148400057Y-91950952D01*
X148400057Y-91950952D02*
X148352438Y-91998571D01*
X148352438Y-91998571D02*
X148304819Y-92093809D01*
X148304819Y-92093809D02*
X148304819Y-92284285D01*
X148304819Y-92284285D02*
X148352438Y-92379523D01*
X148352438Y-92379523D02*
X148400057Y-92427142D01*
X148400057Y-92427142D02*
X148495295Y-92474761D01*
X148495295Y-92474761D02*
X148733390Y-92474761D01*
X148733390Y-92474761D02*
X148828628Y-92427142D01*
X148828628Y-92427142D02*
X148876247Y-92379523D01*
X148876247Y-92379523D02*
X148923866Y-92284285D01*
X148923866Y-92284285D02*
X148923866Y-92093809D01*
X148923866Y-92093809D02*
X148876247Y-91998571D01*
X148876247Y-91998571D02*
X148828628Y-91950952D01*
X148828628Y-91950952D02*
X148733390Y-91903333D01*
X104726666Y-13684819D02*
X104726666Y-14399104D01*
X104726666Y-14399104D02*
X104679047Y-14541961D01*
X104679047Y-14541961D02*
X104583809Y-14637200D01*
X104583809Y-14637200D02*
X104440952Y-14684819D01*
X104440952Y-14684819D02*
X104345714Y-14684819D01*
X105726666Y-14684819D02*
X105155238Y-14684819D01*
X105440952Y-14684819D02*
X105440952Y-13684819D01*
X105440952Y-13684819D02*
X105345714Y-13827676D01*
X105345714Y-13827676D02*
X105250476Y-13922914D01*
X105250476Y-13922914D02*
X105155238Y-13970533D01*
X111594819Y-64142857D02*
X111118628Y-64476190D01*
X111594819Y-64714285D02*
X110594819Y-64714285D01*
X110594819Y-64714285D02*
X110594819Y-64333333D01*
X110594819Y-64333333D02*
X110642438Y-64238095D01*
X110642438Y-64238095D02*
X110690057Y-64190476D01*
X110690057Y-64190476D02*
X110785295Y-64142857D01*
X110785295Y-64142857D02*
X110928152Y-64142857D01*
X110928152Y-64142857D02*
X111023390Y-64190476D01*
X111023390Y-64190476D02*
X111071009Y-64238095D01*
X111071009Y-64238095D02*
X111118628Y-64333333D01*
X111118628Y-64333333D02*
X111118628Y-64714285D01*
X110594819Y-63809523D02*
X110594819Y-63190476D01*
X110594819Y-63190476D02*
X110975771Y-63523809D01*
X110975771Y-63523809D02*
X110975771Y-63380952D01*
X110975771Y-63380952D02*
X111023390Y-63285714D01*
X111023390Y-63285714D02*
X111071009Y-63238095D01*
X111071009Y-63238095D02*
X111166247Y-63190476D01*
X111166247Y-63190476D02*
X111404342Y-63190476D01*
X111404342Y-63190476D02*
X111499580Y-63238095D01*
X111499580Y-63238095D02*
X111547200Y-63285714D01*
X111547200Y-63285714D02*
X111594819Y-63380952D01*
X111594819Y-63380952D02*
X111594819Y-63666666D01*
X111594819Y-63666666D02*
X111547200Y-63761904D01*
X111547200Y-63761904D02*
X111499580Y-63809523D01*
X110594819Y-62285714D02*
X110594819Y-62761904D01*
X110594819Y-62761904D02*
X111071009Y-62809523D01*
X111071009Y-62809523D02*
X111023390Y-62761904D01*
X111023390Y-62761904D02*
X110975771Y-62666666D01*
X110975771Y-62666666D02*
X110975771Y-62428571D01*
X110975771Y-62428571D02*
X111023390Y-62333333D01*
X111023390Y-62333333D02*
X111071009Y-62285714D01*
X111071009Y-62285714D02*
X111166247Y-62238095D01*
X111166247Y-62238095D02*
X111404342Y-62238095D01*
X111404342Y-62238095D02*
X111499580Y-62285714D01*
X111499580Y-62285714D02*
X111547200Y-62333333D01*
X111547200Y-62333333D02*
X111594819Y-62428571D01*
X111594819Y-62428571D02*
X111594819Y-62666666D01*
X111594819Y-62666666D02*
X111547200Y-62761904D01*
X111547200Y-62761904D02*
X111499580Y-62809523D01*
X45554819Y-63666666D02*
X45078628Y-63999999D01*
X45554819Y-64238094D02*
X44554819Y-64238094D01*
X44554819Y-64238094D02*
X44554819Y-63857142D01*
X44554819Y-63857142D02*
X44602438Y-63761904D01*
X44602438Y-63761904D02*
X44650057Y-63714285D01*
X44650057Y-63714285D02*
X44745295Y-63666666D01*
X44745295Y-63666666D02*
X44888152Y-63666666D01*
X44888152Y-63666666D02*
X44983390Y-63714285D01*
X44983390Y-63714285D02*
X45031009Y-63761904D01*
X45031009Y-63761904D02*
X45078628Y-63857142D01*
X45078628Y-63857142D02*
X45078628Y-64238094D01*
X45554819Y-63190475D02*
X45554819Y-62999999D01*
X45554819Y-62999999D02*
X45507200Y-62904761D01*
X45507200Y-62904761D02*
X45459580Y-62857142D01*
X45459580Y-62857142D02*
X45316723Y-62761904D01*
X45316723Y-62761904D02*
X45126247Y-62714285D01*
X45126247Y-62714285D02*
X44745295Y-62714285D01*
X44745295Y-62714285D02*
X44650057Y-62761904D01*
X44650057Y-62761904D02*
X44602438Y-62809523D01*
X44602438Y-62809523D02*
X44554819Y-62904761D01*
X44554819Y-62904761D02*
X44554819Y-63095237D01*
X44554819Y-63095237D02*
X44602438Y-63190475D01*
X44602438Y-63190475D02*
X44650057Y-63238094D01*
X44650057Y-63238094D02*
X44745295Y-63285713D01*
X44745295Y-63285713D02*
X44983390Y-63285713D01*
X44983390Y-63285713D02*
X45078628Y-63238094D01*
X45078628Y-63238094D02*
X45126247Y-63190475D01*
X45126247Y-63190475D02*
X45173866Y-63095237D01*
X45173866Y-63095237D02*
X45173866Y-62904761D01*
X45173866Y-62904761D02*
X45126247Y-62809523D01*
X45126247Y-62809523D02*
X45078628Y-62761904D01*
X45078628Y-62761904D02*
X44983390Y-62714285D01*
X39864819Y-63666666D02*
X39388628Y-63999999D01*
X39864819Y-64238094D02*
X38864819Y-64238094D01*
X38864819Y-64238094D02*
X38864819Y-63857142D01*
X38864819Y-63857142D02*
X38912438Y-63761904D01*
X38912438Y-63761904D02*
X38960057Y-63714285D01*
X38960057Y-63714285D02*
X39055295Y-63666666D01*
X39055295Y-63666666D02*
X39198152Y-63666666D01*
X39198152Y-63666666D02*
X39293390Y-63714285D01*
X39293390Y-63714285D02*
X39341009Y-63761904D01*
X39341009Y-63761904D02*
X39388628Y-63857142D01*
X39388628Y-63857142D02*
X39388628Y-64238094D01*
X38864819Y-63333332D02*
X38864819Y-62666666D01*
X38864819Y-62666666D02*
X39864819Y-63095237D01*
X190334819Y-64142857D02*
X189858628Y-64476190D01*
X190334819Y-64714285D02*
X189334819Y-64714285D01*
X189334819Y-64714285D02*
X189334819Y-64333333D01*
X189334819Y-64333333D02*
X189382438Y-64238095D01*
X189382438Y-64238095D02*
X189430057Y-64190476D01*
X189430057Y-64190476D02*
X189525295Y-64142857D01*
X189525295Y-64142857D02*
X189668152Y-64142857D01*
X189668152Y-64142857D02*
X189763390Y-64190476D01*
X189763390Y-64190476D02*
X189811009Y-64238095D01*
X189811009Y-64238095D02*
X189858628Y-64333333D01*
X189858628Y-64333333D02*
X189858628Y-64714285D01*
X189334819Y-63285714D02*
X189334819Y-63476190D01*
X189334819Y-63476190D02*
X189382438Y-63571428D01*
X189382438Y-63571428D02*
X189430057Y-63619047D01*
X189430057Y-63619047D02*
X189572914Y-63714285D01*
X189572914Y-63714285D02*
X189763390Y-63761904D01*
X189763390Y-63761904D02*
X190144342Y-63761904D01*
X190144342Y-63761904D02*
X190239580Y-63714285D01*
X190239580Y-63714285D02*
X190287200Y-63666666D01*
X190287200Y-63666666D02*
X190334819Y-63571428D01*
X190334819Y-63571428D02*
X190334819Y-63380952D01*
X190334819Y-63380952D02*
X190287200Y-63285714D01*
X190287200Y-63285714D02*
X190239580Y-63238095D01*
X190239580Y-63238095D02*
X190144342Y-63190476D01*
X190144342Y-63190476D02*
X189906247Y-63190476D01*
X189906247Y-63190476D02*
X189811009Y-63238095D01*
X189811009Y-63238095D02*
X189763390Y-63285714D01*
X189763390Y-63285714D02*
X189715771Y-63380952D01*
X189715771Y-63380952D02*
X189715771Y-63571428D01*
X189715771Y-63571428D02*
X189763390Y-63666666D01*
X189763390Y-63666666D02*
X189811009Y-63714285D01*
X189811009Y-63714285D02*
X189906247Y-63761904D01*
X189668152Y-62333333D02*
X190334819Y-62333333D01*
X189287200Y-62571428D02*
X190001485Y-62809523D01*
X190001485Y-62809523D02*
X190001485Y-62190476D01*
X126834819Y-64142857D02*
X126358628Y-64476190D01*
X126834819Y-64714285D02*
X125834819Y-64714285D01*
X125834819Y-64714285D02*
X125834819Y-64333333D01*
X125834819Y-64333333D02*
X125882438Y-64238095D01*
X125882438Y-64238095D02*
X125930057Y-64190476D01*
X125930057Y-64190476D02*
X126025295Y-64142857D01*
X126025295Y-64142857D02*
X126168152Y-64142857D01*
X126168152Y-64142857D02*
X126263390Y-64190476D01*
X126263390Y-64190476D02*
X126311009Y-64238095D01*
X126311009Y-64238095D02*
X126358628Y-64333333D01*
X126358628Y-64333333D02*
X126358628Y-64714285D01*
X126168152Y-63285714D02*
X126834819Y-63285714D01*
X125787200Y-63523809D02*
X126501485Y-63761904D01*
X126501485Y-63761904D02*
X126501485Y-63142857D01*
X126834819Y-62238095D02*
X126834819Y-62809523D01*
X126834819Y-62523809D02*
X125834819Y-62523809D01*
X125834819Y-62523809D02*
X125977676Y-62619047D01*
X125977676Y-62619047D02*
X126072914Y-62714285D01*
X126072914Y-62714285D02*
X126120533Y-62809523D01*
X38024819Y-92903333D02*
X38739104Y-92903333D01*
X38739104Y-92903333D02*
X38881961Y-92950952D01*
X38881961Y-92950952D02*
X38977200Y-93046190D01*
X38977200Y-93046190D02*
X39024819Y-93189047D01*
X39024819Y-93189047D02*
X39024819Y-93284285D01*
X38024819Y-92522380D02*
X38024819Y-91903333D01*
X38024819Y-91903333D02*
X38405771Y-92236666D01*
X38405771Y-92236666D02*
X38405771Y-92093809D01*
X38405771Y-92093809D02*
X38453390Y-91998571D01*
X38453390Y-91998571D02*
X38501009Y-91950952D01*
X38501009Y-91950952D02*
X38596247Y-91903333D01*
X38596247Y-91903333D02*
X38834342Y-91903333D01*
X38834342Y-91903333D02*
X38929580Y-91950952D01*
X38929580Y-91950952D02*
X38977200Y-91998571D01*
X38977200Y-91998571D02*
X39024819Y-92093809D01*
X39024819Y-92093809D02*
X39024819Y-92379523D01*
X39024819Y-92379523D02*
X38977200Y-92474761D01*
X38977200Y-92474761D02*
X38929580Y-92522380D01*
X149694819Y-64142857D02*
X149218628Y-64476190D01*
X149694819Y-64714285D02*
X148694819Y-64714285D01*
X148694819Y-64714285D02*
X148694819Y-64333333D01*
X148694819Y-64333333D02*
X148742438Y-64238095D01*
X148742438Y-64238095D02*
X148790057Y-64190476D01*
X148790057Y-64190476D02*
X148885295Y-64142857D01*
X148885295Y-64142857D02*
X149028152Y-64142857D01*
X149028152Y-64142857D02*
X149123390Y-64190476D01*
X149123390Y-64190476D02*
X149171009Y-64238095D01*
X149171009Y-64238095D02*
X149218628Y-64333333D01*
X149218628Y-64333333D02*
X149218628Y-64714285D01*
X148694819Y-63238095D02*
X148694819Y-63714285D01*
X148694819Y-63714285D02*
X149171009Y-63761904D01*
X149171009Y-63761904D02*
X149123390Y-63714285D01*
X149123390Y-63714285D02*
X149075771Y-63619047D01*
X149075771Y-63619047D02*
X149075771Y-63380952D01*
X149075771Y-63380952D02*
X149123390Y-63285714D01*
X149123390Y-63285714D02*
X149171009Y-63238095D01*
X149171009Y-63238095D02*
X149266247Y-63190476D01*
X149266247Y-63190476D02*
X149504342Y-63190476D01*
X149504342Y-63190476D02*
X149599580Y-63238095D01*
X149599580Y-63238095D02*
X149647200Y-63285714D01*
X149647200Y-63285714D02*
X149694819Y-63380952D01*
X149694819Y-63380952D02*
X149694819Y-63619047D01*
X149694819Y-63619047D02*
X149647200Y-63714285D01*
X149647200Y-63714285D02*
X149599580Y-63761904D01*
X148694819Y-62571428D02*
X148694819Y-62476190D01*
X148694819Y-62476190D02*
X148742438Y-62380952D01*
X148742438Y-62380952D02*
X148790057Y-62333333D01*
X148790057Y-62333333D02*
X148885295Y-62285714D01*
X148885295Y-62285714D02*
X149075771Y-62238095D01*
X149075771Y-62238095D02*
X149313866Y-62238095D01*
X149313866Y-62238095D02*
X149504342Y-62285714D01*
X149504342Y-62285714D02*
X149599580Y-62333333D01*
X149599580Y-62333333D02*
X149647200Y-62380952D01*
X149647200Y-62380952D02*
X149694819Y-62476190D01*
X149694819Y-62476190D02*
X149694819Y-62571428D01*
X149694819Y-62571428D02*
X149647200Y-62666666D01*
X149647200Y-62666666D02*
X149599580Y-62714285D01*
X149599580Y-62714285D02*
X149504342Y-62761904D01*
X149504342Y-62761904D02*
X149313866Y-62809523D01*
X149313866Y-62809523D02*
X149075771Y-62809523D01*
X149075771Y-62809523D02*
X148885295Y-62761904D01*
X148885295Y-62761904D02*
X148790057Y-62714285D01*
X148790057Y-62714285D02*
X148742438Y-62666666D01*
X148742438Y-62666666D02*
X148694819Y-62571428D01*
X157314819Y-64142857D02*
X156838628Y-64476190D01*
X157314819Y-64714285D02*
X156314819Y-64714285D01*
X156314819Y-64714285D02*
X156314819Y-64333333D01*
X156314819Y-64333333D02*
X156362438Y-64238095D01*
X156362438Y-64238095D02*
X156410057Y-64190476D01*
X156410057Y-64190476D02*
X156505295Y-64142857D01*
X156505295Y-64142857D02*
X156648152Y-64142857D01*
X156648152Y-64142857D02*
X156743390Y-64190476D01*
X156743390Y-64190476D02*
X156791009Y-64238095D01*
X156791009Y-64238095D02*
X156838628Y-64333333D01*
X156838628Y-64333333D02*
X156838628Y-64714285D01*
X156314819Y-63238095D02*
X156314819Y-63714285D01*
X156314819Y-63714285D02*
X156791009Y-63761904D01*
X156791009Y-63761904D02*
X156743390Y-63714285D01*
X156743390Y-63714285D02*
X156695771Y-63619047D01*
X156695771Y-63619047D02*
X156695771Y-63380952D01*
X156695771Y-63380952D02*
X156743390Y-63285714D01*
X156743390Y-63285714D02*
X156791009Y-63238095D01*
X156791009Y-63238095D02*
X156886247Y-63190476D01*
X156886247Y-63190476D02*
X157124342Y-63190476D01*
X157124342Y-63190476D02*
X157219580Y-63238095D01*
X157219580Y-63238095D02*
X157267200Y-63285714D01*
X157267200Y-63285714D02*
X157314819Y-63380952D01*
X157314819Y-63380952D02*
X157314819Y-63619047D01*
X157314819Y-63619047D02*
X157267200Y-63714285D01*
X157267200Y-63714285D02*
X157219580Y-63761904D01*
X156314819Y-62857142D02*
X156314819Y-62238095D01*
X156314819Y-62238095D02*
X156695771Y-62571428D01*
X156695771Y-62571428D02*
X156695771Y-62428571D01*
X156695771Y-62428571D02*
X156743390Y-62333333D01*
X156743390Y-62333333D02*
X156791009Y-62285714D01*
X156791009Y-62285714D02*
X156886247Y-62238095D01*
X156886247Y-62238095D02*
X157124342Y-62238095D01*
X157124342Y-62238095D02*
X157219580Y-62285714D01*
X157219580Y-62285714D02*
X157267200Y-62333333D01*
X157267200Y-62333333D02*
X157314819Y-62428571D01*
X157314819Y-62428571D02*
X157314819Y-62714285D01*
X157314819Y-62714285D02*
X157267200Y-62809523D01*
X157267200Y-62809523D02*
X157219580Y-62857142D01*
X91948095Y-25064819D02*
X91948095Y-25874342D01*
X91948095Y-25874342D02*
X91995714Y-25969580D01*
X91995714Y-25969580D02*
X92043333Y-26017200D01*
X92043333Y-26017200D02*
X92138571Y-26064819D01*
X92138571Y-26064819D02*
X92329047Y-26064819D01*
X92329047Y-26064819D02*
X92424285Y-26017200D01*
X92424285Y-26017200D02*
X92471904Y-25969580D01*
X92471904Y-25969580D02*
X92519523Y-25874342D01*
X92519523Y-25874342D02*
X92519523Y-25064819D01*
X93424285Y-25398152D02*
X93424285Y-26064819D01*
X93186190Y-25017200D02*
X92948095Y-25731485D01*
X92948095Y-25731485D02*
X93567142Y-25731485D01*
X159854819Y-64142857D02*
X159378628Y-64476190D01*
X159854819Y-64714285D02*
X158854819Y-64714285D01*
X158854819Y-64714285D02*
X158854819Y-64333333D01*
X158854819Y-64333333D02*
X158902438Y-64238095D01*
X158902438Y-64238095D02*
X158950057Y-64190476D01*
X158950057Y-64190476D02*
X159045295Y-64142857D01*
X159045295Y-64142857D02*
X159188152Y-64142857D01*
X159188152Y-64142857D02*
X159283390Y-64190476D01*
X159283390Y-64190476D02*
X159331009Y-64238095D01*
X159331009Y-64238095D02*
X159378628Y-64333333D01*
X159378628Y-64333333D02*
X159378628Y-64714285D01*
X158854819Y-63238095D02*
X158854819Y-63714285D01*
X158854819Y-63714285D02*
X159331009Y-63761904D01*
X159331009Y-63761904D02*
X159283390Y-63714285D01*
X159283390Y-63714285D02*
X159235771Y-63619047D01*
X159235771Y-63619047D02*
X159235771Y-63380952D01*
X159235771Y-63380952D02*
X159283390Y-63285714D01*
X159283390Y-63285714D02*
X159331009Y-63238095D01*
X159331009Y-63238095D02*
X159426247Y-63190476D01*
X159426247Y-63190476D02*
X159664342Y-63190476D01*
X159664342Y-63190476D02*
X159759580Y-63238095D01*
X159759580Y-63238095D02*
X159807200Y-63285714D01*
X159807200Y-63285714D02*
X159854819Y-63380952D01*
X159854819Y-63380952D02*
X159854819Y-63619047D01*
X159854819Y-63619047D02*
X159807200Y-63714285D01*
X159807200Y-63714285D02*
X159759580Y-63761904D01*
X159188152Y-62333333D02*
X159854819Y-62333333D01*
X158807200Y-62571428D02*
X159521485Y-62809523D01*
X159521485Y-62809523D02*
X159521485Y-62190476D01*
X27874819Y-63666666D02*
X27398628Y-63999999D01*
X27874819Y-64238094D02*
X26874819Y-64238094D01*
X26874819Y-64238094D02*
X26874819Y-63857142D01*
X26874819Y-63857142D02*
X26922438Y-63761904D01*
X26922438Y-63761904D02*
X26970057Y-63714285D01*
X26970057Y-63714285D02*
X27065295Y-63666666D01*
X27065295Y-63666666D02*
X27208152Y-63666666D01*
X27208152Y-63666666D02*
X27303390Y-63714285D01*
X27303390Y-63714285D02*
X27351009Y-63761904D01*
X27351009Y-63761904D02*
X27398628Y-63857142D01*
X27398628Y-63857142D02*
X27398628Y-64238094D01*
X26874819Y-63333332D02*
X26874819Y-62714285D01*
X26874819Y-62714285D02*
X27255771Y-63047618D01*
X27255771Y-63047618D02*
X27255771Y-62904761D01*
X27255771Y-62904761D02*
X27303390Y-62809523D01*
X27303390Y-62809523D02*
X27351009Y-62761904D01*
X27351009Y-62761904D02*
X27446247Y-62714285D01*
X27446247Y-62714285D02*
X27684342Y-62714285D01*
X27684342Y-62714285D02*
X27779580Y-62761904D01*
X27779580Y-62761904D02*
X27827200Y-62809523D01*
X27827200Y-62809523D02*
X27874819Y-62904761D01*
X27874819Y-62904761D02*
X27874819Y-63190475D01*
X27874819Y-63190475D02*
X27827200Y-63285713D01*
X27827200Y-63285713D02*
X27779580Y-63333332D01*
X96354819Y-64142857D02*
X95878628Y-64476190D01*
X96354819Y-64714285D02*
X95354819Y-64714285D01*
X95354819Y-64714285D02*
X95354819Y-64333333D01*
X95354819Y-64333333D02*
X95402438Y-64238095D01*
X95402438Y-64238095D02*
X95450057Y-64190476D01*
X95450057Y-64190476D02*
X95545295Y-64142857D01*
X95545295Y-64142857D02*
X95688152Y-64142857D01*
X95688152Y-64142857D02*
X95783390Y-64190476D01*
X95783390Y-64190476D02*
X95831009Y-64238095D01*
X95831009Y-64238095D02*
X95878628Y-64333333D01*
X95878628Y-64333333D02*
X95878628Y-64714285D01*
X95450057Y-63761904D02*
X95402438Y-63714285D01*
X95402438Y-63714285D02*
X95354819Y-63619047D01*
X95354819Y-63619047D02*
X95354819Y-63380952D01*
X95354819Y-63380952D02*
X95402438Y-63285714D01*
X95402438Y-63285714D02*
X95450057Y-63238095D01*
X95450057Y-63238095D02*
X95545295Y-63190476D01*
X95545295Y-63190476D02*
X95640533Y-63190476D01*
X95640533Y-63190476D02*
X95783390Y-63238095D01*
X95783390Y-63238095D02*
X96354819Y-63809523D01*
X96354819Y-63809523D02*
X96354819Y-63190476D01*
X96354819Y-62714285D02*
X96354819Y-62523809D01*
X96354819Y-62523809D02*
X96307200Y-62428571D01*
X96307200Y-62428571D02*
X96259580Y-62380952D01*
X96259580Y-62380952D02*
X96116723Y-62285714D01*
X96116723Y-62285714D02*
X95926247Y-62238095D01*
X95926247Y-62238095D02*
X95545295Y-62238095D01*
X95545295Y-62238095D02*
X95450057Y-62285714D01*
X95450057Y-62285714D02*
X95402438Y-62333333D01*
X95402438Y-62333333D02*
X95354819Y-62428571D01*
X95354819Y-62428571D02*
X95354819Y-62619047D01*
X95354819Y-62619047D02*
X95402438Y-62714285D01*
X95402438Y-62714285D02*
X95450057Y-62761904D01*
X95450057Y-62761904D02*
X95545295Y-62809523D01*
X95545295Y-62809523D02*
X95783390Y-62809523D01*
X95783390Y-62809523D02*
X95878628Y-62761904D01*
X95878628Y-62761904D02*
X95926247Y-62714285D01*
X95926247Y-62714285D02*
X95973866Y-62619047D01*
X95973866Y-62619047D02*
X95973866Y-62428571D01*
X95973866Y-62428571D02*
X95926247Y-62333333D01*
X95926247Y-62333333D02*
X95878628Y-62285714D01*
X95878628Y-62285714D02*
X95783390Y-62238095D01*
X131914819Y-64142857D02*
X131438628Y-64476190D01*
X131914819Y-64714285D02*
X130914819Y-64714285D01*
X130914819Y-64714285D02*
X130914819Y-64333333D01*
X130914819Y-64333333D02*
X130962438Y-64238095D01*
X130962438Y-64238095D02*
X131010057Y-64190476D01*
X131010057Y-64190476D02*
X131105295Y-64142857D01*
X131105295Y-64142857D02*
X131248152Y-64142857D01*
X131248152Y-64142857D02*
X131343390Y-64190476D01*
X131343390Y-64190476D02*
X131391009Y-64238095D01*
X131391009Y-64238095D02*
X131438628Y-64333333D01*
X131438628Y-64333333D02*
X131438628Y-64714285D01*
X131248152Y-63285714D02*
X131914819Y-63285714D01*
X130867200Y-63523809D02*
X131581485Y-63761904D01*
X131581485Y-63761904D02*
X131581485Y-63142857D01*
X130914819Y-62857142D02*
X130914819Y-62238095D01*
X130914819Y-62238095D02*
X131295771Y-62571428D01*
X131295771Y-62571428D02*
X131295771Y-62428571D01*
X131295771Y-62428571D02*
X131343390Y-62333333D01*
X131343390Y-62333333D02*
X131391009Y-62285714D01*
X131391009Y-62285714D02*
X131486247Y-62238095D01*
X131486247Y-62238095D02*
X131724342Y-62238095D01*
X131724342Y-62238095D02*
X131819580Y-62285714D01*
X131819580Y-62285714D02*
X131867200Y-62333333D01*
X131867200Y-62333333D02*
X131914819Y-62428571D01*
X131914819Y-62428571D02*
X131914819Y-62714285D01*
X131914819Y-62714285D02*
X131867200Y-62809523D01*
X131867200Y-62809523D02*
X131819580Y-62857142D01*
X184034819Y-64142857D02*
X183558628Y-64476190D01*
X184034819Y-64714285D02*
X183034819Y-64714285D01*
X183034819Y-64714285D02*
X183034819Y-64333333D01*
X183034819Y-64333333D02*
X183082438Y-64238095D01*
X183082438Y-64238095D02*
X183130057Y-64190476D01*
X183130057Y-64190476D02*
X183225295Y-64142857D01*
X183225295Y-64142857D02*
X183368152Y-64142857D01*
X183368152Y-64142857D02*
X183463390Y-64190476D01*
X183463390Y-64190476D02*
X183511009Y-64238095D01*
X183511009Y-64238095D02*
X183558628Y-64333333D01*
X183558628Y-64333333D02*
X183558628Y-64714285D01*
X183034819Y-63285714D02*
X183034819Y-63476190D01*
X183034819Y-63476190D02*
X183082438Y-63571428D01*
X183082438Y-63571428D02*
X183130057Y-63619047D01*
X183130057Y-63619047D02*
X183272914Y-63714285D01*
X183272914Y-63714285D02*
X183463390Y-63761904D01*
X183463390Y-63761904D02*
X183844342Y-63761904D01*
X183844342Y-63761904D02*
X183939580Y-63714285D01*
X183939580Y-63714285D02*
X183987200Y-63666666D01*
X183987200Y-63666666D02*
X184034819Y-63571428D01*
X184034819Y-63571428D02*
X184034819Y-63380952D01*
X184034819Y-63380952D02*
X183987200Y-63285714D01*
X183987200Y-63285714D02*
X183939580Y-63238095D01*
X183939580Y-63238095D02*
X183844342Y-63190476D01*
X183844342Y-63190476D02*
X183606247Y-63190476D01*
X183606247Y-63190476D02*
X183511009Y-63238095D01*
X183511009Y-63238095D02*
X183463390Y-63285714D01*
X183463390Y-63285714D02*
X183415771Y-63380952D01*
X183415771Y-63380952D02*
X183415771Y-63571428D01*
X183415771Y-63571428D02*
X183463390Y-63666666D01*
X183463390Y-63666666D02*
X183511009Y-63714285D01*
X183511009Y-63714285D02*
X183606247Y-63761904D01*
X183130057Y-62809523D02*
X183082438Y-62761904D01*
X183082438Y-62761904D02*
X183034819Y-62666666D01*
X183034819Y-62666666D02*
X183034819Y-62428571D01*
X183034819Y-62428571D02*
X183082438Y-62333333D01*
X183082438Y-62333333D02*
X183130057Y-62285714D01*
X183130057Y-62285714D02*
X183225295Y-62238095D01*
X183225295Y-62238095D02*
X183320533Y-62238095D01*
X183320533Y-62238095D02*
X183463390Y-62285714D01*
X183463390Y-62285714D02*
X184034819Y-62857142D01*
X184034819Y-62857142D02*
X184034819Y-62238095D01*
X91274819Y-64142857D02*
X90798628Y-64476190D01*
X91274819Y-64714285D02*
X90274819Y-64714285D01*
X90274819Y-64714285D02*
X90274819Y-64333333D01*
X90274819Y-64333333D02*
X90322438Y-64238095D01*
X90322438Y-64238095D02*
X90370057Y-64190476D01*
X90370057Y-64190476D02*
X90465295Y-64142857D01*
X90465295Y-64142857D02*
X90608152Y-64142857D01*
X90608152Y-64142857D02*
X90703390Y-64190476D01*
X90703390Y-64190476D02*
X90751009Y-64238095D01*
X90751009Y-64238095D02*
X90798628Y-64333333D01*
X90798628Y-64333333D02*
X90798628Y-64714285D01*
X90370057Y-63761904D02*
X90322438Y-63714285D01*
X90322438Y-63714285D02*
X90274819Y-63619047D01*
X90274819Y-63619047D02*
X90274819Y-63380952D01*
X90274819Y-63380952D02*
X90322438Y-63285714D01*
X90322438Y-63285714D02*
X90370057Y-63238095D01*
X90370057Y-63238095D02*
X90465295Y-63190476D01*
X90465295Y-63190476D02*
X90560533Y-63190476D01*
X90560533Y-63190476D02*
X90703390Y-63238095D01*
X90703390Y-63238095D02*
X91274819Y-63809523D01*
X91274819Y-63809523D02*
X91274819Y-63190476D01*
X90274819Y-62857142D02*
X90274819Y-62190476D01*
X90274819Y-62190476D02*
X91274819Y-62619047D01*
X53174819Y-64142857D02*
X52698628Y-64476190D01*
X53174819Y-64714285D02*
X52174819Y-64714285D01*
X52174819Y-64714285D02*
X52174819Y-64333333D01*
X52174819Y-64333333D02*
X52222438Y-64238095D01*
X52222438Y-64238095D02*
X52270057Y-64190476D01*
X52270057Y-64190476D02*
X52365295Y-64142857D01*
X52365295Y-64142857D02*
X52508152Y-64142857D01*
X52508152Y-64142857D02*
X52603390Y-64190476D01*
X52603390Y-64190476D02*
X52651009Y-64238095D01*
X52651009Y-64238095D02*
X52698628Y-64333333D01*
X52698628Y-64333333D02*
X52698628Y-64714285D01*
X53174819Y-63190476D02*
X53174819Y-63761904D01*
X53174819Y-63476190D02*
X52174819Y-63476190D01*
X52174819Y-63476190D02*
X52317676Y-63571428D01*
X52317676Y-63571428D02*
X52412914Y-63666666D01*
X52412914Y-63666666D02*
X52460533Y-63761904D01*
X52270057Y-62809523D02*
X52222438Y-62761904D01*
X52222438Y-62761904D02*
X52174819Y-62666666D01*
X52174819Y-62666666D02*
X52174819Y-62428571D01*
X52174819Y-62428571D02*
X52222438Y-62333333D01*
X52222438Y-62333333D02*
X52270057Y-62285714D01*
X52270057Y-62285714D02*
X52365295Y-62238095D01*
X52365295Y-62238095D02*
X52460533Y-62238095D01*
X52460533Y-62238095D02*
X52603390Y-62285714D01*
X52603390Y-62285714D02*
X53174819Y-62857142D01*
X53174819Y-62857142D02*
X53174819Y-62238095D01*
X30414819Y-63666666D02*
X29938628Y-63999999D01*
X30414819Y-64238094D02*
X29414819Y-64238094D01*
X29414819Y-64238094D02*
X29414819Y-63857142D01*
X29414819Y-63857142D02*
X29462438Y-63761904D01*
X29462438Y-63761904D02*
X29510057Y-63714285D01*
X29510057Y-63714285D02*
X29605295Y-63666666D01*
X29605295Y-63666666D02*
X29748152Y-63666666D01*
X29748152Y-63666666D02*
X29843390Y-63714285D01*
X29843390Y-63714285D02*
X29891009Y-63761904D01*
X29891009Y-63761904D02*
X29938628Y-63857142D01*
X29938628Y-63857142D02*
X29938628Y-64238094D01*
X29748152Y-62809523D02*
X30414819Y-62809523D01*
X29367200Y-63047618D02*
X30081485Y-63285713D01*
X30081485Y-63285713D02*
X30081485Y-62666666D01*
X63334819Y-64142857D02*
X62858628Y-64476190D01*
X63334819Y-64714285D02*
X62334819Y-64714285D01*
X62334819Y-64714285D02*
X62334819Y-64333333D01*
X62334819Y-64333333D02*
X62382438Y-64238095D01*
X62382438Y-64238095D02*
X62430057Y-64190476D01*
X62430057Y-64190476D02*
X62525295Y-64142857D01*
X62525295Y-64142857D02*
X62668152Y-64142857D01*
X62668152Y-64142857D02*
X62763390Y-64190476D01*
X62763390Y-64190476D02*
X62811009Y-64238095D01*
X62811009Y-64238095D02*
X62858628Y-64333333D01*
X62858628Y-64333333D02*
X62858628Y-64714285D01*
X63334819Y-63190476D02*
X63334819Y-63761904D01*
X63334819Y-63476190D02*
X62334819Y-63476190D01*
X62334819Y-63476190D02*
X62477676Y-63571428D01*
X62477676Y-63571428D02*
X62572914Y-63666666D01*
X62572914Y-63666666D02*
X62620533Y-63761904D01*
X62334819Y-62333333D02*
X62334819Y-62523809D01*
X62334819Y-62523809D02*
X62382438Y-62619047D01*
X62382438Y-62619047D02*
X62430057Y-62666666D01*
X62430057Y-62666666D02*
X62572914Y-62761904D01*
X62572914Y-62761904D02*
X62763390Y-62809523D01*
X62763390Y-62809523D02*
X63144342Y-62809523D01*
X63144342Y-62809523D02*
X63239580Y-62761904D01*
X63239580Y-62761904D02*
X63287200Y-62714285D01*
X63287200Y-62714285D02*
X63334819Y-62619047D01*
X63334819Y-62619047D02*
X63334819Y-62428571D01*
X63334819Y-62428571D02*
X63287200Y-62333333D01*
X63287200Y-62333333D02*
X63239580Y-62285714D01*
X63239580Y-62285714D02*
X63144342Y-62238095D01*
X63144342Y-62238095D02*
X62906247Y-62238095D01*
X62906247Y-62238095D02*
X62811009Y-62285714D01*
X62811009Y-62285714D02*
X62763390Y-62333333D01*
X62763390Y-62333333D02*
X62715771Y-62428571D01*
X62715771Y-62428571D02*
X62715771Y-62619047D01*
X62715771Y-62619047D02*
X62763390Y-62714285D01*
X62763390Y-62714285D02*
X62811009Y-62761904D01*
X62811009Y-62761904D02*
X62906247Y-62809523D01*
X144614819Y-64142857D02*
X144138628Y-64476190D01*
X144614819Y-64714285D02*
X143614819Y-64714285D01*
X143614819Y-64714285D02*
X143614819Y-64333333D01*
X143614819Y-64333333D02*
X143662438Y-64238095D01*
X143662438Y-64238095D02*
X143710057Y-64190476D01*
X143710057Y-64190476D02*
X143805295Y-64142857D01*
X143805295Y-64142857D02*
X143948152Y-64142857D01*
X143948152Y-64142857D02*
X144043390Y-64190476D01*
X144043390Y-64190476D02*
X144091009Y-64238095D01*
X144091009Y-64238095D02*
X144138628Y-64333333D01*
X144138628Y-64333333D02*
X144138628Y-64714285D01*
X143948152Y-63285714D02*
X144614819Y-63285714D01*
X143567200Y-63523809D02*
X144281485Y-63761904D01*
X144281485Y-63761904D02*
X144281485Y-63142857D01*
X144043390Y-62619047D02*
X143995771Y-62714285D01*
X143995771Y-62714285D02*
X143948152Y-62761904D01*
X143948152Y-62761904D02*
X143852914Y-62809523D01*
X143852914Y-62809523D02*
X143805295Y-62809523D01*
X143805295Y-62809523D02*
X143710057Y-62761904D01*
X143710057Y-62761904D02*
X143662438Y-62714285D01*
X143662438Y-62714285D02*
X143614819Y-62619047D01*
X143614819Y-62619047D02*
X143614819Y-62428571D01*
X143614819Y-62428571D02*
X143662438Y-62333333D01*
X143662438Y-62333333D02*
X143710057Y-62285714D01*
X143710057Y-62285714D02*
X143805295Y-62238095D01*
X143805295Y-62238095D02*
X143852914Y-62238095D01*
X143852914Y-62238095D02*
X143948152Y-62285714D01*
X143948152Y-62285714D02*
X143995771Y-62333333D01*
X143995771Y-62333333D02*
X144043390Y-62428571D01*
X144043390Y-62428571D02*
X144043390Y-62619047D01*
X144043390Y-62619047D02*
X144091009Y-62714285D01*
X144091009Y-62714285D02*
X144138628Y-62761904D01*
X144138628Y-62761904D02*
X144233866Y-62809523D01*
X144233866Y-62809523D02*
X144424342Y-62809523D01*
X144424342Y-62809523D02*
X144519580Y-62761904D01*
X144519580Y-62761904D02*
X144567200Y-62714285D01*
X144567200Y-62714285D02*
X144614819Y-62619047D01*
X144614819Y-62619047D02*
X144614819Y-62428571D01*
X144614819Y-62428571D02*
X144567200Y-62333333D01*
X144567200Y-62333333D02*
X144519580Y-62285714D01*
X144519580Y-62285714D02*
X144424342Y-62238095D01*
X144424342Y-62238095D02*
X144233866Y-62238095D01*
X144233866Y-62238095D02*
X144138628Y-62285714D01*
X144138628Y-62285714D02*
X144091009Y-62333333D01*
X144091009Y-62333333D02*
X144043390Y-62428571D01*
X25334819Y-63666666D02*
X24858628Y-63999999D01*
X25334819Y-64238094D02*
X24334819Y-64238094D01*
X24334819Y-64238094D02*
X24334819Y-63857142D01*
X24334819Y-63857142D02*
X24382438Y-63761904D01*
X24382438Y-63761904D02*
X24430057Y-63714285D01*
X24430057Y-63714285D02*
X24525295Y-63666666D01*
X24525295Y-63666666D02*
X24668152Y-63666666D01*
X24668152Y-63666666D02*
X24763390Y-63714285D01*
X24763390Y-63714285D02*
X24811009Y-63761904D01*
X24811009Y-63761904D02*
X24858628Y-63857142D01*
X24858628Y-63857142D02*
X24858628Y-64238094D01*
X24430057Y-63285713D02*
X24382438Y-63238094D01*
X24382438Y-63238094D02*
X24334819Y-63142856D01*
X24334819Y-63142856D02*
X24334819Y-62904761D01*
X24334819Y-62904761D02*
X24382438Y-62809523D01*
X24382438Y-62809523D02*
X24430057Y-62761904D01*
X24430057Y-62761904D02*
X24525295Y-62714285D01*
X24525295Y-62714285D02*
X24620533Y-62714285D01*
X24620533Y-62714285D02*
X24763390Y-62761904D01*
X24763390Y-62761904D02*
X25334819Y-63333332D01*
X25334819Y-63333332D02*
X25334819Y-62714285D01*
X46228095Y-26349819D02*
X46228095Y-27159342D01*
X46228095Y-27159342D02*
X46275714Y-27254580D01*
X46275714Y-27254580D02*
X46323333Y-27302200D01*
X46323333Y-27302200D02*
X46418571Y-27349819D01*
X46418571Y-27349819D02*
X46609047Y-27349819D01*
X46609047Y-27349819D02*
X46704285Y-27302200D01*
X46704285Y-27302200D02*
X46751904Y-27254580D01*
X46751904Y-27254580D02*
X46799523Y-27159342D01*
X46799523Y-27159342D02*
X46799523Y-26349819D01*
X47799523Y-27349819D02*
X47228095Y-27349819D01*
X47513809Y-27349819D02*
X47513809Y-26349819D01*
X47513809Y-26349819D02*
X47418571Y-26492676D01*
X47418571Y-26492676D02*
X47323333Y-26587914D01*
X47323333Y-26587914D02*
X47228095Y-26635533D01*
X168624819Y-93379523D02*
X169339104Y-93379523D01*
X169339104Y-93379523D02*
X169481961Y-93427142D01*
X169481961Y-93427142D02*
X169577200Y-93522380D01*
X169577200Y-93522380D02*
X169624819Y-93665237D01*
X169624819Y-93665237D02*
X169624819Y-93760475D01*
X169624819Y-92379523D02*
X169624819Y-92950951D01*
X169624819Y-92665237D02*
X168624819Y-92665237D01*
X168624819Y-92665237D02*
X168767676Y-92760475D01*
X168767676Y-92760475D02*
X168862914Y-92855713D01*
X168862914Y-92855713D02*
X168910533Y-92950951D01*
X168624819Y-91760475D02*
X168624819Y-91665237D01*
X168624819Y-91665237D02*
X168672438Y-91569999D01*
X168672438Y-91569999D02*
X168720057Y-91522380D01*
X168720057Y-91522380D02*
X168815295Y-91474761D01*
X168815295Y-91474761D02*
X169005771Y-91427142D01*
X169005771Y-91427142D02*
X169243866Y-91427142D01*
X169243866Y-91427142D02*
X169434342Y-91474761D01*
X169434342Y-91474761D02*
X169529580Y-91522380D01*
X169529580Y-91522380D02*
X169577200Y-91569999D01*
X169577200Y-91569999D02*
X169624819Y-91665237D01*
X169624819Y-91665237D02*
X169624819Y-91760475D01*
X169624819Y-91760475D02*
X169577200Y-91855713D01*
X169577200Y-91855713D02*
X169529580Y-91903332D01*
X169529580Y-91903332D02*
X169434342Y-91950951D01*
X169434342Y-91950951D02*
X169243866Y-91998570D01*
X169243866Y-91998570D02*
X169005771Y-91998570D01*
X169005771Y-91998570D02*
X168815295Y-91950951D01*
X168815295Y-91950951D02*
X168720057Y-91903332D01*
X168720057Y-91903332D02*
X168672438Y-91855713D01*
X168672438Y-91855713D02*
X168624819Y-91760475D01*
X81114819Y-64142857D02*
X80638628Y-64476190D01*
X81114819Y-64714285D02*
X80114819Y-64714285D01*
X80114819Y-64714285D02*
X80114819Y-64333333D01*
X80114819Y-64333333D02*
X80162438Y-64238095D01*
X80162438Y-64238095D02*
X80210057Y-64190476D01*
X80210057Y-64190476D02*
X80305295Y-64142857D01*
X80305295Y-64142857D02*
X80448152Y-64142857D01*
X80448152Y-64142857D02*
X80543390Y-64190476D01*
X80543390Y-64190476D02*
X80591009Y-64238095D01*
X80591009Y-64238095D02*
X80638628Y-64333333D01*
X80638628Y-64333333D02*
X80638628Y-64714285D01*
X80210057Y-63761904D02*
X80162438Y-63714285D01*
X80162438Y-63714285D02*
X80114819Y-63619047D01*
X80114819Y-63619047D02*
X80114819Y-63380952D01*
X80114819Y-63380952D02*
X80162438Y-63285714D01*
X80162438Y-63285714D02*
X80210057Y-63238095D01*
X80210057Y-63238095D02*
X80305295Y-63190476D01*
X80305295Y-63190476D02*
X80400533Y-63190476D01*
X80400533Y-63190476D02*
X80543390Y-63238095D01*
X80543390Y-63238095D02*
X81114819Y-63809523D01*
X81114819Y-63809523D02*
X81114819Y-63190476D01*
X80114819Y-62857142D02*
X80114819Y-62238095D01*
X80114819Y-62238095D02*
X80495771Y-62571428D01*
X80495771Y-62571428D02*
X80495771Y-62428571D01*
X80495771Y-62428571D02*
X80543390Y-62333333D01*
X80543390Y-62333333D02*
X80591009Y-62285714D01*
X80591009Y-62285714D02*
X80686247Y-62238095D01*
X80686247Y-62238095D02*
X80924342Y-62238095D01*
X80924342Y-62238095D02*
X81019580Y-62285714D01*
X81019580Y-62285714D02*
X81067200Y-62333333D01*
X81067200Y-62333333D02*
X81114819Y-62428571D01*
X81114819Y-62428571D02*
X81114819Y-62714285D01*
X81114819Y-62714285D02*
X81067200Y-62809523D01*
X81067200Y-62809523D02*
X81019580Y-62857142D01*
X48094819Y-64142857D02*
X47618628Y-64476190D01*
X48094819Y-64714285D02*
X47094819Y-64714285D01*
X47094819Y-64714285D02*
X47094819Y-64333333D01*
X47094819Y-64333333D02*
X47142438Y-64238095D01*
X47142438Y-64238095D02*
X47190057Y-64190476D01*
X47190057Y-64190476D02*
X47285295Y-64142857D01*
X47285295Y-64142857D02*
X47428152Y-64142857D01*
X47428152Y-64142857D02*
X47523390Y-64190476D01*
X47523390Y-64190476D02*
X47571009Y-64238095D01*
X47571009Y-64238095D02*
X47618628Y-64333333D01*
X47618628Y-64333333D02*
X47618628Y-64714285D01*
X48094819Y-63190476D02*
X48094819Y-63761904D01*
X48094819Y-63476190D02*
X47094819Y-63476190D01*
X47094819Y-63476190D02*
X47237676Y-63571428D01*
X47237676Y-63571428D02*
X47332914Y-63666666D01*
X47332914Y-63666666D02*
X47380533Y-63761904D01*
X47094819Y-62571428D02*
X47094819Y-62476190D01*
X47094819Y-62476190D02*
X47142438Y-62380952D01*
X47142438Y-62380952D02*
X47190057Y-62333333D01*
X47190057Y-62333333D02*
X47285295Y-62285714D01*
X47285295Y-62285714D02*
X47475771Y-62238095D01*
X47475771Y-62238095D02*
X47713866Y-62238095D01*
X47713866Y-62238095D02*
X47904342Y-62285714D01*
X47904342Y-62285714D02*
X47999580Y-62333333D01*
X47999580Y-62333333D02*
X48047200Y-62380952D01*
X48047200Y-62380952D02*
X48094819Y-62476190D01*
X48094819Y-62476190D02*
X48094819Y-62571428D01*
X48094819Y-62571428D02*
X48047200Y-62666666D01*
X48047200Y-62666666D02*
X47999580Y-62714285D01*
X47999580Y-62714285D02*
X47904342Y-62761904D01*
X47904342Y-62761904D02*
X47713866Y-62809523D01*
X47713866Y-62809523D02*
X47475771Y-62809523D01*
X47475771Y-62809523D02*
X47285295Y-62761904D01*
X47285295Y-62761904D02*
X47190057Y-62714285D01*
X47190057Y-62714285D02*
X47142438Y-62666666D01*
X47142438Y-62666666D02*
X47094819Y-62571428D01*
X180884819Y-64142857D02*
X180408628Y-64476190D01*
X180884819Y-64714285D02*
X179884819Y-64714285D01*
X179884819Y-64714285D02*
X179884819Y-64333333D01*
X179884819Y-64333333D02*
X179932438Y-64238095D01*
X179932438Y-64238095D02*
X179980057Y-64190476D01*
X179980057Y-64190476D02*
X180075295Y-64142857D01*
X180075295Y-64142857D02*
X180218152Y-64142857D01*
X180218152Y-64142857D02*
X180313390Y-64190476D01*
X180313390Y-64190476D02*
X180361009Y-64238095D01*
X180361009Y-64238095D02*
X180408628Y-64333333D01*
X180408628Y-64333333D02*
X180408628Y-64714285D01*
X179884819Y-63285714D02*
X179884819Y-63476190D01*
X179884819Y-63476190D02*
X179932438Y-63571428D01*
X179932438Y-63571428D02*
X179980057Y-63619047D01*
X179980057Y-63619047D02*
X180122914Y-63714285D01*
X180122914Y-63714285D02*
X180313390Y-63761904D01*
X180313390Y-63761904D02*
X180694342Y-63761904D01*
X180694342Y-63761904D02*
X180789580Y-63714285D01*
X180789580Y-63714285D02*
X180837200Y-63666666D01*
X180837200Y-63666666D02*
X180884819Y-63571428D01*
X180884819Y-63571428D02*
X180884819Y-63380952D01*
X180884819Y-63380952D02*
X180837200Y-63285714D01*
X180837200Y-63285714D02*
X180789580Y-63238095D01*
X180789580Y-63238095D02*
X180694342Y-63190476D01*
X180694342Y-63190476D02*
X180456247Y-63190476D01*
X180456247Y-63190476D02*
X180361009Y-63238095D01*
X180361009Y-63238095D02*
X180313390Y-63285714D01*
X180313390Y-63285714D02*
X180265771Y-63380952D01*
X180265771Y-63380952D02*
X180265771Y-63571428D01*
X180265771Y-63571428D02*
X180313390Y-63666666D01*
X180313390Y-63666666D02*
X180361009Y-63714285D01*
X180361009Y-63714285D02*
X180456247Y-63761904D01*
X180884819Y-62238095D02*
X180884819Y-62809523D01*
X180884819Y-62523809D02*
X179884819Y-62523809D01*
X179884819Y-62523809D02*
X180027676Y-62619047D01*
X180027676Y-62619047D02*
X180122914Y-62714285D01*
X180122914Y-62714285D02*
X180170533Y-62809523D01*
X162394819Y-64142857D02*
X161918628Y-64476190D01*
X162394819Y-64714285D02*
X161394819Y-64714285D01*
X161394819Y-64714285D02*
X161394819Y-64333333D01*
X161394819Y-64333333D02*
X161442438Y-64238095D01*
X161442438Y-64238095D02*
X161490057Y-64190476D01*
X161490057Y-64190476D02*
X161585295Y-64142857D01*
X161585295Y-64142857D02*
X161728152Y-64142857D01*
X161728152Y-64142857D02*
X161823390Y-64190476D01*
X161823390Y-64190476D02*
X161871009Y-64238095D01*
X161871009Y-64238095D02*
X161918628Y-64333333D01*
X161918628Y-64333333D02*
X161918628Y-64714285D01*
X161394819Y-63238095D02*
X161394819Y-63714285D01*
X161394819Y-63714285D02*
X161871009Y-63761904D01*
X161871009Y-63761904D02*
X161823390Y-63714285D01*
X161823390Y-63714285D02*
X161775771Y-63619047D01*
X161775771Y-63619047D02*
X161775771Y-63380952D01*
X161775771Y-63380952D02*
X161823390Y-63285714D01*
X161823390Y-63285714D02*
X161871009Y-63238095D01*
X161871009Y-63238095D02*
X161966247Y-63190476D01*
X161966247Y-63190476D02*
X162204342Y-63190476D01*
X162204342Y-63190476D02*
X162299580Y-63238095D01*
X162299580Y-63238095D02*
X162347200Y-63285714D01*
X162347200Y-63285714D02*
X162394819Y-63380952D01*
X162394819Y-63380952D02*
X162394819Y-63619047D01*
X162394819Y-63619047D02*
X162347200Y-63714285D01*
X162347200Y-63714285D02*
X162299580Y-63761904D01*
X161394819Y-62285714D02*
X161394819Y-62761904D01*
X161394819Y-62761904D02*
X161871009Y-62809523D01*
X161871009Y-62809523D02*
X161823390Y-62761904D01*
X161823390Y-62761904D02*
X161775771Y-62666666D01*
X161775771Y-62666666D02*
X161775771Y-62428571D01*
X161775771Y-62428571D02*
X161823390Y-62333333D01*
X161823390Y-62333333D02*
X161871009Y-62285714D01*
X161871009Y-62285714D02*
X161966247Y-62238095D01*
X161966247Y-62238095D02*
X162204342Y-62238095D01*
X162204342Y-62238095D02*
X162299580Y-62285714D01*
X162299580Y-62285714D02*
X162347200Y-62333333D01*
X162347200Y-62333333D02*
X162394819Y-62428571D01*
X162394819Y-62428571D02*
X162394819Y-62666666D01*
X162394819Y-62666666D02*
X162347200Y-62761904D01*
X162347200Y-62761904D02*
X162299580Y-62809523D01*
X129374819Y-64142857D02*
X128898628Y-64476190D01*
X129374819Y-64714285D02*
X128374819Y-64714285D01*
X128374819Y-64714285D02*
X128374819Y-64333333D01*
X128374819Y-64333333D02*
X128422438Y-64238095D01*
X128422438Y-64238095D02*
X128470057Y-64190476D01*
X128470057Y-64190476D02*
X128565295Y-64142857D01*
X128565295Y-64142857D02*
X128708152Y-64142857D01*
X128708152Y-64142857D02*
X128803390Y-64190476D01*
X128803390Y-64190476D02*
X128851009Y-64238095D01*
X128851009Y-64238095D02*
X128898628Y-64333333D01*
X128898628Y-64333333D02*
X128898628Y-64714285D01*
X128708152Y-63285714D02*
X129374819Y-63285714D01*
X128327200Y-63523809D02*
X129041485Y-63761904D01*
X129041485Y-63761904D02*
X129041485Y-63142857D01*
X128470057Y-62809523D02*
X128422438Y-62761904D01*
X128422438Y-62761904D02*
X128374819Y-62666666D01*
X128374819Y-62666666D02*
X128374819Y-62428571D01*
X128374819Y-62428571D02*
X128422438Y-62333333D01*
X128422438Y-62333333D02*
X128470057Y-62285714D01*
X128470057Y-62285714D02*
X128565295Y-62238095D01*
X128565295Y-62238095D02*
X128660533Y-62238095D01*
X128660533Y-62238095D02*
X128803390Y-62285714D01*
X128803390Y-62285714D02*
X129374819Y-62857142D01*
X129374819Y-62857142D02*
X129374819Y-62238095D01*
X119214819Y-64142857D02*
X118738628Y-64476190D01*
X119214819Y-64714285D02*
X118214819Y-64714285D01*
X118214819Y-64714285D02*
X118214819Y-64333333D01*
X118214819Y-64333333D02*
X118262438Y-64238095D01*
X118262438Y-64238095D02*
X118310057Y-64190476D01*
X118310057Y-64190476D02*
X118405295Y-64142857D01*
X118405295Y-64142857D02*
X118548152Y-64142857D01*
X118548152Y-64142857D02*
X118643390Y-64190476D01*
X118643390Y-64190476D02*
X118691009Y-64238095D01*
X118691009Y-64238095D02*
X118738628Y-64333333D01*
X118738628Y-64333333D02*
X118738628Y-64714285D01*
X118214819Y-63809523D02*
X118214819Y-63190476D01*
X118214819Y-63190476D02*
X118595771Y-63523809D01*
X118595771Y-63523809D02*
X118595771Y-63380952D01*
X118595771Y-63380952D02*
X118643390Y-63285714D01*
X118643390Y-63285714D02*
X118691009Y-63238095D01*
X118691009Y-63238095D02*
X118786247Y-63190476D01*
X118786247Y-63190476D02*
X119024342Y-63190476D01*
X119024342Y-63190476D02*
X119119580Y-63238095D01*
X119119580Y-63238095D02*
X119167200Y-63285714D01*
X119167200Y-63285714D02*
X119214819Y-63380952D01*
X119214819Y-63380952D02*
X119214819Y-63666666D01*
X119214819Y-63666666D02*
X119167200Y-63761904D01*
X119167200Y-63761904D02*
X119119580Y-63809523D01*
X118643390Y-62619047D02*
X118595771Y-62714285D01*
X118595771Y-62714285D02*
X118548152Y-62761904D01*
X118548152Y-62761904D02*
X118452914Y-62809523D01*
X118452914Y-62809523D02*
X118405295Y-62809523D01*
X118405295Y-62809523D02*
X118310057Y-62761904D01*
X118310057Y-62761904D02*
X118262438Y-62714285D01*
X118262438Y-62714285D02*
X118214819Y-62619047D01*
X118214819Y-62619047D02*
X118214819Y-62428571D01*
X118214819Y-62428571D02*
X118262438Y-62333333D01*
X118262438Y-62333333D02*
X118310057Y-62285714D01*
X118310057Y-62285714D02*
X118405295Y-62238095D01*
X118405295Y-62238095D02*
X118452914Y-62238095D01*
X118452914Y-62238095D02*
X118548152Y-62285714D01*
X118548152Y-62285714D02*
X118595771Y-62333333D01*
X118595771Y-62333333D02*
X118643390Y-62428571D01*
X118643390Y-62428571D02*
X118643390Y-62619047D01*
X118643390Y-62619047D02*
X118691009Y-62714285D01*
X118691009Y-62714285D02*
X118738628Y-62761904D01*
X118738628Y-62761904D02*
X118833866Y-62809523D01*
X118833866Y-62809523D02*
X119024342Y-62809523D01*
X119024342Y-62809523D02*
X119119580Y-62761904D01*
X119119580Y-62761904D02*
X119167200Y-62714285D01*
X119167200Y-62714285D02*
X119214819Y-62619047D01*
X119214819Y-62619047D02*
X119214819Y-62428571D01*
X119214819Y-62428571D02*
X119167200Y-62333333D01*
X119167200Y-62333333D02*
X119119580Y-62285714D01*
X119119580Y-62285714D02*
X119024342Y-62238095D01*
X119024342Y-62238095D02*
X118833866Y-62238095D01*
X118833866Y-62238095D02*
X118738628Y-62285714D01*
X118738628Y-62285714D02*
X118691009Y-62333333D01*
X118691009Y-62333333D02*
X118643390Y-62428571D01*
X186626666Y-98854819D02*
X186293333Y-98378628D01*
X186055238Y-98854819D02*
X186055238Y-97854819D01*
X186055238Y-97854819D02*
X186436190Y-97854819D01*
X186436190Y-97854819D02*
X186531428Y-97902438D01*
X186531428Y-97902438D02*
X186579047Y-97950057D01*
X186579047Y-97950057D02*
X186626666Y-98045295D01*
X186626666Y-98045295D02*
X186626666Y-98188152D01*
X186626666Y-98188152D02*
X186579047Y-98283390D01*
X186579047Y-98283390D02*
X186531428Y-98331009D01*
X186531428Y-98331009D02*
X186436190Y-98378628D01*
X186436190Y-98378628D02*
X186055238Y-98378628D01*
X187055238Y-98331009D02*
X187388571Y-98331009D01*
X187531428Y-98854819D02*
X187055238Y-98854819D01*
X187055238Y-98854819D02*
X187055238Y-97854819D01*
X187055238Y-97854819D02*
X187531428Y-97854819D01*
X188293333Y-98331009D02*
X187960000Y-98331009D01*
X187960000Y-98854819D02*
X187960000Y-97854819D01*
X187960000Y-97854819D02*
X188436190Y-97854819D01*
X188960000Y-97854819D02*
X188960000Y-98092914D01*
X188721905Y-97997676D02*
X188960000Y-98092914D01*
X188960000Y-98092914D02*
X189198095Y-97997676D01*
X188817143Y-98283390D02*
X188960000Y-98092914D01*
X188960000Y-98092914D02*
X189102857Y-98283390D01*
X189721905Y-97854819D02*
X189721905Y-98092914D01*
X189483810Y-97997676D02*
X189721905Y-98092914D01*
X189721905Y-98092914D02*
X189960000Y-97997676D01*
X189579048Y-98283390D02*
X189721905Y-98092914D01*
X189721905Y-98092914D02*
X189864762Y-98283390D01*
X33564819Y-63666666D02*
X33088628Y-63999999D01*
X33564819Y-64238094D02*
X32564819Y-64238094D01*
X32564819Y-64238094D02*
X32564819Y-63857142D01*
X32564819Y-63857142D02*
X32612438Y-63761904D01*
X32612438Y-63761904D02*
X32660057Y-63714285D01*
X32660057Y-63714285D02*
X32755295Y-63666666D01*
X32755295Y-63666666D02*
X32898152Y-63666666D01*
X32898152Y-63666666D02*
X32993390Y-63714285D01*
X32993390Y-63714285D02*
X33041009Y-63761904D01*
X33041009Y-63761904D02*
X33088628Y-63857142D01*
X33088628Y-63857142D02*
X33088628Y-64238094D01*
X32564819Y-62761904D02*
X32564819Y-63238094D01*
X32564819Y-63238094D02*
X33041009Y-63285713D01*
X33041009Y-63285713D02*
X32993390Y-63238094D01*
X32993390Y-63238094D02*
X32945771Y-63142856D01*
X32945771Y-63142856D02*
X32945771Y-62904761D01*
X32945771Y-62904761D02*
X32993390Y-62809523D01*
X32993390Y-62809523D02*
X33041009Y-62761904D01*
X33041009Y-62761904D02*
X33136247Y-62714285D01*
X33136247Y-62714285D02*
X33374342Y-62714285D01*
X33374342Y-62714285D02*
X33469580Y-62761904D01*
X33469580Y-62761904D02*
X33517200Y-62809523D01*
X33517200Y-62809523D02*
X33564819Y-62904761D01*
X33564819Y-62904761D02*
X33564819Y-63142856D01*
X33564819Y-63142856D02*
X33517200Y-63238094D01*
X33517200Y-63238094D02*
X33469580Y-63285713D01*
X171434819Y-64142857D02*
X170958628Y-64476190D01*
X171434819Y-64714285D02*
X170434819Y-64714285D01*
X170434819Y-64714285D02*
X170434819Y-64333333D01*
X170434819Y-64333333D02*
X170482438Y-64238095D01*
X170482438Y-64238095D02*
X170530057Y-64190476D01*
X170530057Y-64190476D02*
X170625295Y-64142857D01*
X170625295Y-64142857D02*
X170768152Y-64142857D01*
X170768152Y-64142857D02*
X170863390Y-64190476D01*
X170863390Y-64190476D02*
X170911009Y-64238095D01*
X170911009Y-64238095D02*
X170958628Y-64333333D01*
X170958628Y-64333333D02*
X170958628Y-64714285D01*
X170434819Y-63238095D02*
X170434819Y-63714285D01*
X170434819Y-63714285D02*
X170911009Y-63761904D01*
X170911009Y-63761904D02*
X170863390Y-63714285D01*
X170863390Y-63714285D02*
X170815771Y-63619047D01*
X170815771Y-63619047D02*
X170815771Y-63380952D01*
X170815771Y-63380952D02*
X170863390Y-63285714D01*
X170863390Y-63285714D02*
X170911009Y-63238095D01*
X170911009Y-63238095D02*
X171006247Y-63190476D01*
X171006247Y-63190476D02*
X171244342Y-63190476D01*
X171244342Y-63190476D02*
X171339580Y-63238095D01*
X171339580Y-63238095D02*
X171387200Y-63285714D01*
X171387200Y-63285714D02*
X171434819Y-63380952D01*
X171434819Y-63380952D02*
X171434819Y-63619047D01*
X171434819Y-63619047D02*
X171387200Y-63714285D01*
X171387200Y-63714285D02*
X171339580Y-63761904D01*
X170863390Y-62619047D02*
X170815771Y-62714285D01*
X170815771Y-62714285D02*
X170768152Y-62761904D01*
X170768152Y-62761904D02*
X170672914Y-62809523D01*
X170672914Y-62809523D02*
X170625295Y-62809523D01*
X170625295Y-62809523D02*
X170530057Y-62761904D01*
X170530057Y-62761904D02*
X170482438Y-62714285D01*
X170482438Y-62714285D02*
X170434819Y-62619047D01*
X170434819Y-62619047D02*
X170434819Y-62428571D01*
X170434819Y-62428571D02*
X170482438Y-62333333D01*
X170482438Y-62333333D02*
X170530057Y-62285714D01*
X170530057Y-62285714D02*
X170625295Y-62238095D01*
X170625295Y-62238095D02*
X170672914Y-62238095D01*
X170672914Y-62238095D02*
X170768152Y-62285714D01*
X170768152Y-62285714D02*
X170815771Y-62333333D01*
X170815771Y-62333333D02*
X170863390Y-62428571D01*
X170863390Y-62428571D02*
X170863390Y-62619047D01*
X170863390Y-62619047D02*
X170911009Y-62714285D01*
X170911009Y-62714285D02*
X170958628Y-62761904D01*
X170958628Y-62761904D02*
X171053866Y-62809523D01*
X171053866Y-62809523D02*
X171244342Y-62809523D01*
X171244342Y-62809523D02*
X171339580Y-62761904D01*
X171339580Y-62761904D02*
X171387200Y-62714285D01*
X171387200Y-62714285D02*
X171434819Y-62619047D01*
X171434819Y-62619047D02*
X171434819Y-62428571D01*
X171434819Y-62428571D02*
X171387200Y-62333333D01*
X171387200Y-62333333D02*
X171339580Y-62285714D01*
X171339580Y-62285714D02*
X171244342Y-62238095D01*
X171244342Y-62238095D02*
X171053866Y-62238095D01*
X171053866Y-62238095D02*
X170958628Y-62285714D01*
X170958628Y-62285714D02*
X170911009Y-62333333D01*
X170911009Y-62333333D02*
X170863390Y-62428571D01*
X36714819Y-63666666D02*
X36238628Y-63999999D01*
X36714819Y-64238094D02*
X35714819Y-64238094D01*
X35714819Y-64238094D02*
X35714819Y-63857142D01*
X35714819Y-63857142D02*
X35762438Y-63761904D01*
X35762438Y-63761904D02*
X35810057Y-63714285D01*
X35810057Y-63714285D02*
X35905295Y-63666666D01*
X35905295Y-63666666D02*
X36048152Y-63666666D01*
X36048152Y-63666666D02*
X36143390Y-63714285D01*
X36143390Y-63714285D02*
X36191009Y-63761904D01*
X36191009Y-63761904D02*
X36238628Y-63857142D01*
X36238628Y-63857142D02*
X36238628Y-64238094D01*
X35714819Y-62809523D02*
X35714819Y-62999999D01*
X35714819Y-62999999D02*
X35762438Y-63095237D01*
X35762438Y-63095237D02*
X35810057Y-63142856D01*
X35810057Y-63142856D02*
X35952914Y-63238094D01*
X35952914Y-63238094D02*
X36143390Y-63285713D01*
X36143390Y-63285713D02*
X36524342Y-63285713D01*
X36524342Y-63285713D02*
X36619580Y-63238094D01*
X36619580Y-63238094D02*
X36667200Y-63190475D01*
X36667200Y-63190475D02*
X36714819Y-63095237D01*
X36714819Y-63095237D02*
X36714819Y-62904761D01*
X36714819Y-62904761D02*
X36667200Y-62809523D01*
X36667200Y-62809523D02*
X36619580Y-62761904D01*
X36619580Y-62761904D02*
X36524342Y-62714285D01*
X36524342Y-62714285D02*
X36286247Y-62714285D01*
X36286247Y-62714285D02*
X36191009Y-62761904D01*
X36191009Y-62761904D02*
X36143390Y-62809523D01*
X36143390Y-62809523D02*
X36095771Y-62904761D01*
X36095771Y-62904761D02*
X36095771Y-63095237D01*
X36095771Y-63095237D02*
X36143390Y-63190475D01*
X36143390Y-63190475D02*
X36191009Y-63238094D01*
X36191009Y-63238094D02*
X36286247Y-63285713D01*
X18986666Y-15034819D02*
X18653333Y-14558628D01*
X18415238Y-15034819D02*
X18415238Y-14034819D01*
X18415238Y-14034819D02*
X18796190Y-14034819D01*
X18796190Y-14034819D02*
X18891428Y-14082438D01*
X18891428Y-14082438D02*
X18939047Y-14130057D01*
X18939047Y-14130057D02*
X18986666Y-14225295D01*
X18986666Y-14225295D02*
X18986666Y-14368152D01*
X18986666Y-14368152D02*
X18939047Y-14463390D01*
X18939047Y-14463390D02*
X18891428Y-14511009D01*
X18891428Y-14511009D02*
X18796190Y-14558628D01*
X18796190Y-14558628D02*
X18415238Y-14558628D01*
X19415238Y-14511009D02*
X19748571Y-14511009D01*
X19891428Y-15034819D02*
X19415238Y-15034819D01*
X19415238Y-15034819D02*
X19415238Y-14034819D01*
X19415238Y-14034819D02*
X19891428Y-14034819D01*
X20653333Y-14511009D02*
X20320000Y-14511009D01*
X20320000Y-15034819D02*
X20320000Y-14034819D01*
X20320000Y-14034819D02*
X20796190Y-14034819D01*
X21320000Y-14034819D02*
X21320000Y-14272914D01*
X21081905Y-14177676D02*
X21320000Y-14272914D01*
X21320000Y-14272914D02*
X21558095Y-14177676D01*
X21177143Y-14463390D02*
X21320000Y-14272914D01*
X21320000Y-14272914D02*
X21462857Y-14463390D01*
X22081905Y-14034819D02*
X22081905Y-14272914D01*
X21843810Y-14177676D02*
X22081905Y-14272914D01*
X22081905Y-14272914D02*
X22320000Y-14177676D01*
X21939048Y-14463390D02*
X22081905Y-14272914D01*
X22081905Y-14272914D02*
X22224762Y-14463390D01*
X187184819Y-64142857D02*
X186708628Y-64476190D01*
X187184819Y-64714285D02*
X186184819Y-64714285D01*
X186184819Y-64714285D02*
X186184819Y-64333333D01*
X186184819Y-64333333D02*
X186232438Y-64238095D01*
X186232438Y-64238095D02*
X186280057Y-64190476D01*
X186280057Y-64190476D02*
X186375295Y-64142857D01*
X186375295Y-64142857D02*
X186518152Y-64142857D01*
X186518152Y-64142857D02*
X186613390Y-64190476D01*
X186613390Y-64190476D02*
X186661009Y-64238095D01*
X186661009Y-64238095D02*
X186708628Y-64333333D01*
X186708628Y-64333333D02*
X186708628Y-64714285D01*
X186184819Y-63285714D02*
X186184819Y-63476190D01*
X186184819Y-63476190D02*
X186232438Y-63571428D01*
X186232438Y-63571428D02*
X186280057Y-63619047D01*
X186280057Y-63619047D02*
X186422914Y-63714285D01*
X186422914Y-63714285D02*
X186613390Y-63761904D01*
X186613390Y-63761904D02*
X186994342Y-63761904D01*
X186994342Y-63761904D02*
X187089580Y-63714285D01*
X187089580Y-63714285D02*
X187137200Y-63666666D01*
X187137200Y-63666666D02*
X187184819Y-63571428D01*
X187184819Y-63571428D02*
X187184819Y-63380952D01*
X187184819Y-63380952D02*
X187137200Y-63285714D01*
X187137200Y-63285714D02*
X187089580Y-63238095D01*
X187089580Y-63238095D02*
X186994342Y-63190476D01*
X186994342Y-63190476D02*
X186756247Y-63190476D01*
X186756247Y-63190476D02*
X186661009Y-63238095D01*
X186661009Y-63238095D02*
X186613390Y-63285714D01*
X186613390Y-63285714D02*
X186565771Y-63380952D01*
X186565771Y-63380952D02*
X186565771Y-63571428D01*
X186565771Y-63571428D02*
X186613390Y-63666666D01*
X186613390Y-63666666D02*
X186661009Y-63714285D01*
X186661009Y-63714285D02*
X186756247Y-63761904D01*
X186184819Y-62857142D02*
X186184819Y-62238095D01*
X186184819Y-62238095D02*
X186565771Y-62571428D01*
X186565771Y-62571428D02*
X186565771Y-62428571D01*
X186565771Y-62428571D02*
X186613390Y-62333333D01*
X186613390Y-62333333D02*
X186661009Y-62285714D01*
X186661009Y-62285714D02*
X186756247Y-62238095D01*
X186756247Y-62238095D02*
X186994342Y-62238095D01*
X186994342Y-62238095D02*
X187089580Y-62285714D01*
X187089580Y-62285714D02*
X187137200Y-62333333D01*
X187137200Y-62333333D02*
X187184819Y-62428571D01*
X187184819Y-62428571D02*
X187184819Y-62714285D01*
X187184819Y-62714285D02*
X187137200Y-62809523D01*
X187137200Y-62809523D02*
X187089580Y-62857142D01*
X127984819Y-92903333D02*
X128699104Y-92903333D01*
X128699104Y-92903333D02*
X128841961Y-92950952D01*
X128841961Y-92950952D02*
X128937200Y-93046190D01*
X128937200Y-93046190D02*
X128984819Y-93189047D01*
X128984819Y-93189047D02*
X128984819Y-93284285D01*
X128413390Y-92284285D02*
X128365771Y-92379523D01*
X128365771Y-92379523D02*
X128318152Y-92427142D01*
X128318152Y-92427142D02*
X128222914Y-92474761D01*
X128222914Y-92474761D02*
X128175295Y-92474761D01*
X128175295Y-92474761D02*
X128080057Y-92427142D01*
X128080057Y-92427142D02*
X128032438Y-92379523D01*
X128032438Y-92379523D02*
X127984819Y-92284285D01*
X127984819Y-92284285D02*
X127984819Y-92093809D01*
X127984819Y-92093809D02*
X128032438Y-91998571D01*
X128032438Y-91998571D02*
X128080057Y-91950952D01*
X128080057Y-91950952D02*
X128175295Y-91903333D01*
X128175295Y-91903333D02*
X128222914Y-91903333D01*
X128222914Y-91903333D02*
X128318152Y-91950952D01*
X128318152Y-91950952D02*
X128365771Y-91998571D01*
X128365771Y-91998571D02*
X128413390Y-92093809D01*
X128413390Y-92093809D02*
X128413390Y-92284285D01*
X128413390Y-92284285D02*
X128461009Y-92379523D01*
X128461009Y-92379523D02*
X128508628Y-92427142D01*
X128508628Y-92427142D02*
X128603866Y-92474761D01*
X128603866Y-92474761D02*
X128794342Y-92474761D01*
X128794342Y-92474761D02*
X128889580Y-92427142D01*
X128889580Y-92427142D02*
X128937200Y-92379523D01*
X128937200Y-92379523D02*
X128984819Y-92284285D01*
X128984819Y-92284285D02*
X128984819Y-92093809D01*
X128984819Y-92093809D02*
X128937200Y-91998571D01*
X128937200Y-91998571D02*
X128889580Y-91950952D01*
X128889580Y-91950952D02*
X128794342Y-91903333D01*
X128794342Y-91903333D02*
X128603866Y-91903333D01*
X128603866Y-91903333D02*
X128508628Y-91950952D01*
X128508628Y-91950952D02*
X128461009Y-91998571D01*
X128461009Y-91998571D02*
X128413390Y-92093809D01*
X70954819Y-64142857D02*
X70478628Y-64476190D01*
X70954819Y-64714285D02*
X69954819Y-64714285D01*
X69954819Y-64714285D02*
X69954819Y-64333333D01*
X69954819Y-64333333D02*
X70002438Y-64238095D01*
X70002438Y-64238095D02*
X70050057Y-64190476D01*
X70050057Y-64190476D02*
X70145295Y-64142857D01*
X70145295Y-64142857D02*
X70288152Y-64142857D01*
X70288152Y-64142857D02*
X70383390Y-64190476D01*
X70383390Y-64190476D02*
X70431009Y-64238095D01*
X70431009Y-64238095D02*
X70478628Y-64333333D01*
X70478628Y-64333333D02*
X70478628Y-64714285D01*
X70954819Y-63190476D02*
X70954819Y-63761904D01*
X70954819Y-63476190D02*
X69954819Y-63476190D01*
X69954819Y-63476190D02*
X70097676Y-63571428D01*
X70097676Y-63571428D02*
X70192914Y-63666666D01*
X70192914Y-63666666D02*
X70240533Y-63761904D01*
X70954819Y-62714285D02*
X70954819Y-62523809D01*
X70954819Y-62523809D02*
X70907200Y-62428571D01*
X70907200Y-62428571D02*
X70859580Y-62380952D01*
X70859580Y-62380952D02*
X70716723Y-62285714D01*
X70716723Y-62285714D02*
X70526247Y-62238095D01*
X70526247Y-62238095D02*
X70145295Y-62238095D01*
X70145295Y-62238095D02*
X70050057Y-62285714D01*
X70050057Y-62285714D02*
X70002438Y-62333333D01*
X70002438Y-62333333D02*
X69954819Y-62428571D01*
X69954819Y-62428571D02*
X69954819Y-62619047D01*
X69954819Y-62619047D02*
X70002438Y-62714285D01*
X70002438Y-62714285D02*
X70050057Y-62761904D01*
X70050057Y-62761904D02*
X70145295Y-62809523D01*
X70145295Y-62809523D02*
X70383390Y-62809523D01*
X70383390Y-62809523D02*
X70478628Y-62761904D01*
X70478628Y-62761904D02*
X70526247Y-62714285D01*
X70526247Y-62714285D02*
X70573866Y-62619047D01*
X70573866Y-62619047D02*
X70573866Y-62428571D01*
X70573866Y-62428571D02*
X70526247Y-62333333D01*
X70526247Y-62333333D02*
X70478628Y-62285714D01*
X70478628Y-62285714D02*
X70383390Y-62238095D01*
X69088095Y-25064819D02*
X69088095Y-25874342D01*
X69088095Y-25874342D02*
X69135714Y-25969580D01*
X69135714Y-25969580D02*
X69183333Y-26017200D01*
X69183333Y-26017200D02*
X69278571Y-26064819D01*
X69278571Y-26064819D02*
X69469047Y-26064819D01*
X69469047Y-26064819D02*
X69564285Y-26017200D01*
X69564285Y-26017200D02*
X69611904Y-25969580D01*
X69611904Y-25969580D02*
X69659523Y-25874342D01*
X69659523Y-25874342D02*
X69659523Y-25064819D01*
X70088095Y-25160057D02*
X70135714Y-25112438D01*
X70135714Y-25112438D02*
X70230952Y-25064819D01*
X70230952Y-25064819D02*
X70469047Y-25064819D01*
X70469047Y-25064819D02*
X70564285Y-25112438D01*
X70564285Y-25112438D02*
X70611904Y-25160057D01*
X70611904Y-25160057D02*
X70659523Y-25255295D01*
X70659523Y-25255295D02*
X70659523Y-25350533D01*
X70659523Y-25350533D02*
X70611904Y-25493390D01*
X70611904Y-25493390D02*
X70040476Y-26064819D01*
X70040476Y-26064819D02*
X70659523Y-26064819D01*
X116674819Y-64142857D02*
X116198628Y-64476190D01*
X116674819Y-64714285D02*
X115674819Y-64714285D01*
X115674819Y-64714285D02*
X115674819Y-64333333D01*
X115674819Y-64333333D02*
X115722438Y-64238095D01*
X115722438Y-64238095D02*
X115770057Y-64190476D01*
X115770057Y-64190476D02*
X115865295Y-64142857D01*
X115865295Y-64142857D02*
X116008152Y-64142857D01*
X116008152Y-64142857D02*
X116103390Y-64190476D01*
X116103390Y-64190476D02*
X116151009Y-64238095D01*
X116151009Y-64238095D02*
X116198628Y-64333333D01*
X116198628Y-64333333D02*
X116198628Y-64714285D01*
X115674819Y-63809523D02*
X115674819Y-63190476D01*
X115674819Y-63190476D02*
X116055771Y-63523809D01*
X116055771Y-63523809D02*
X116055771Y-63380952D01*
X116055771Y-63380952D02*
X116103390Y-63285714D01*
X116103390Y-63285714D02*
X116151009Y-63238095D01*
X116151009Y-63238095D02*
X116246247Y-63190476D01*
X116246247Y-63190476D02*
X116484342Y-63190476D01*
X116484342Y-63190476D02*
X116579580Y-63238095D01*
X116579580Y-63238095D02*
X116627200Y-63285714D01*
X116627200Y-63285714D02*
X116674819Y-63380952D01*
X116674819Y-63380952D02*
X116674819Y-63666666D01*
X116674819Y-63666666D02*
X116627200Y-63761904D01*
X116627200Y-63761904D02*
X116579580Y-63809523D01*
X115674819Y-62857142D02*
X115674819Y-62190476D01*
X115674819Y-62190476D02*
X116674819Y-62619047D01*
X49244819Y-92903333D02*
X49959104Y-92903333D01*
X49959104Y-92903333D02*
X50101961Y-92950952D01*
X50101961Y-92950952D02*
X50197200Y-93046190D01*
X50197200Y-93046190D02*
X50244819Y-93189047D01*
X50244819Y-93189047D02*
X50244819Y-93284285D01*
X49578152Y-91998571D02*
X50244819Y-91998571D01*
X49197200Y-92236666D02*
X49911485Y-92474761D01*
X49911485Y-92474761D02*
X49911485Y-91855714D01*
D11*
%TO.C,R13*%
X53340000Y-61880000D02*
X53340000Y-65040000D01*
X54260000Y-60960000D02*
G75*
G03*
X54260000Y-60960000I-920000J0D01*
G01*
%TO.C,R31*%
X99060000Y-61880000D02*
X99060000Y-65040000D01*
X99980000Y-60960000D02*
G75*
G03*
X99980000Y-60960000I-920000J0D01*
G01*
%TO.C,R40*%
X121920000Y-61880000D02*
X121920000Y-65040000D01*
X122840000Y-60960000D02*
G75*
G03*
X122840000Y-60960000I-920000J0D01*
G01*
%TO.C,R44*%
X132080000Y-61880000D02*
X132080000Y-65040000D01*
X133000000Y-60960000D02*
G75*
G03*
X133000000Y-60960000I-920000J0D01*
G01*
%TO.C,R33*%
X104140000Y-61880000D02*
X104140000Y-65040000D01*
X105060000Y-60960000D02*
G75*
G03*
X105060000Y-60960000I-920000J0D01*
G01*
%TO.C,R59*%
X172210000Y-61880000D02*
X172210000Y-65040000D01*
X173130000Y-60960000D02*
G75*
G03*
X173130000Y-60960000I-920000J0D01*
G01*
%TO.C,R36*%
X111760000Y-61880000D02*
X111760000Y-65040000D01*
X112680000Y-60960000D02*
G75*
G03*
X112680000Y-60960000I-920000J0D01*
G01*
%TO.C,J6*%
X88690000Y-104170000D02*
X89940000Y-104170000D01*
X88980000Y-103880000D02*
X94950000Y-103880000D01*
X94950000Y-103880000D02*
X94950000Y-81260000D01*
X88990000Y-103870000D02*
X89740000Y-103870000D01*
X89740000Y-103870000D02*
X89740000Y-102070000D01*
X91240000Y-103870000D02*
X91240000Y-103120000D01*
X91240000Y-103120000D02*
X94190000Y-103120000D01*
X94190000Y-103120000D02*
X94190000Y-92570000D01*
X88690000Y-102920000D02*
X88690000Y-104170000D01*
X88990000Y-102070000D02*
X88990000Y-103870000D01*
X89740000Y-102070000D02*
X88990000Y-102070000D01*
X88990000Y-100570000D02*
X89740000Y-100570000D01*
X89740000Y-100570000D02*
X89740000Y-84570000D01*
X88990000Y-84570000D02*
X88990000Y-100570000D01*
X89740000Y-84570000D02*
X88990000Y-84570000D01*
X88990000Y-83070000D02*
X89740000Y-83070000D01*
X89740000Y-83070000D02*
X89740000Y-81270000D01*
X91240000Y-82020000D02*
X94190000Y-82020000D01*
X94190000Y-82020000D02*
X94190000Y-92570000D01*
X88990000Y-81270000D02*
X88990000Y-83070000D01*
X89740000Y-81270000D02*
X88990000Y-81270000D01*
X91240000Y-81270000D02*
X91240000Y-82020000D01*
X88980000Y-81260000D02*
X88980000Y-103880000D01*
X94950000Y-81260000D02*
X88980000Y-81260000D01*
%TO.C,R24*%
X81280000Y-61880000D02*
X81280000Y-65040000D01*
X82200000Y-60960000D02*
G75*
G03*
X82200000Y-60960000I-920000J0D01*
G01*
%TO.C,R32*%
X101600000Y-61880000D02*
X101600000Y-65040000D01*
X102520000Y-60960000D02*
G75*
G03*
X102520000Y-60960000I-920000J0D01*
G01*
%TO.C,J7*%
X109010000Y-104170000D02*
X110260000Y-104170000D01*
X109300000Y-103880000D02*
X115270000Y-103880000D01*
X115270000Y-103880000D02*
X115270000Y-81260000D01*
X109310000Y-103870000D02*
X110060000Y-103870000D01*
X110060000Y-103870000D02*
X110060000Y-102070000D01*
X111560000Y-103870000D02*
X111560000Y-103120000D01*
X111560000Y-103120000D02*
X114510000Y-103120000D01*
X114510000Y-103120000D02*
X114510000Y-92570000D01*
X109010000Y-102920000D02*
X109010000Y-104170000D01*
X109310000Y-102070000D02*
X109310000Y-103870000D01*
X110060000Y-102070000D02*
X109310000Y-102070000D01*
X109310000Y-100570000D02*
X110060000Y-100570000D01*
X110060000Y-100570000D02*
X110060000Y-84570000D01*
X109310000Y-84570000D02*
X109310000Y-100570000D01*
X110060000Y-84570000D02*
X109310000Y-84570000D01*
X109310000Y-83070000D02*
X110060000Y-83070000D01*
X110060000Y-83070000D02*
X110060000Y-81270000D01*
X111560000Y-82020000D02*
X114510000Y-82020000D01*
X114510000Y-82020000D02*
X114510000Y-92570000D01*
X109310000Y-81270000D02*
X109310000Y-83070000D01*
X110060000Y-81270000D02*
X109310000Y-81270000D01*
X111560000Y-81270000D02*
X111560000Y-82020000D01*
X109300000Y-81260000D02*
X109300000Y-103880000D01*
X115270000Y-81260000D02*
X109300000Y-81260000D01*
%TO.C,R26*%
X86360000Y-61880000D02*
X86360000Y-65040000D01*
X87280000Y-60960000D02*
G75*
G03*
X87280000Y-60960000I-920000J0D01*
G01*
%TO.C,R46*%
X137160000Y-61880000D02*
X137160000Y-65040000D01*
X138080000Y-60960000D02*
G75*
G03*
X138080000Y-60960000I-920000J0D01*
G01*
%TO.C,R22*%
X76200000Y-61880000D02*
X76200000Y-65040000D01*
X77120000Y-60960000D02*
G75*
G03*
X77120000Y-60960000I-920000J0D01*
G01*
%TO.C,R25*%
X83820000Y-61880000D02*
X83820000Y-65040000D01*
X84740000Y-60960000D02*
G75*
G03*
X84740000Y-60960000I-920000J0D01*
G01*
%TO.C,R34*%
X106680000Y-61880000D02*
X106680000Y-65040000D01*
X107600000Y-60960000D02*
G75*
G03*
X107600000Y-60960000I-920000J0D01*
G01*
%TO.C,R18*%
X66040000Y-61880000D02*
X66040000Y-65040000D01*
X66960000Y-60960000D02*
G75*
G03*
X66960000Y-60960000I-920000J0D01*
G01*
%TO.C,R52*%
X152400000Y-61880000D02*
X152400000Y-65040000D01*
X153320000Y-60960000D02*
G75*
G03*
X153320000Y-60960000I-920000J0D01*
G01*
%TO.C,R28*%
X91440000Y-61880000D02*
X91440000Y-65040000D01*
X92360000Y-60960000D02*
G75*
G03*
X92360000Y-60960000I-920000J0D01*
G01*
%TO.C,J5*%
X70910000Y-104210000D02*
X72160000Y-104210000D01*
X71200000Y-103920000D02*
X77170000Y-103920000D01*
X77170000Y-103920000D02*
X77170000Y-81300000D01*
X71210000Y-103910000D02*
X71960000Y-103910000D01*
X71960000Y-103910000D02*
X71960000Y-102110000D01*
X73460000Y-103910000D02*
X73460000Y-103160000D01*
X73460000Y-103160000D02*
X76410000Y-103160000D01*
X76410000Y-103160000D02*
X76410000Y-92610000D01*
X70910000Y-102960000D02*
X70910000Y-104210000D01*
X71210000Y-102110000D02*
X71210000Y-103910000D01*
X71960000Y-102110000D02*
X71210000Y-102110000D01*
X71210000Y-100610000D02*
X71960000Y-100610000D01*
X71960000Y-100610000D02*
X71960000Y-84610000D01*
X71210000Y-84610000D02*
X71210000Y-100610000D01*
X71960000Y-84610000D02*
X71210000Y-84610000D01*
X71210000Y-83110000D02*
X71960000Y-83110000D01*
X71960000Y-83110000D02*
X71960000Y-81310000D01*
X73460000Y-82060000D02*
X76410000Y-82060000D01*
X76410000Y-82060000D02*
X76410000Y-92610000D01*
X71210000Y-81310000D02*
X71210000Y-83110000D01*
X71960000Y-81310000D02*
X71210000Y-81310000D01*
X73460000Y-81310000D02*
X73460000Y-82060000D01*
X71200000Y-81300000D02*
X71200000Y-103920000D01*
X77170000Y-81300000D02*
X71200000Y-81300000D01*
%TO.C,J11*%
X132830000Y-21670000D02*
X132830000Y-20420000D01*
X132540000Y-21380000D02*
X132540000Y-15410000D01*
X132540000Y-15410000D02*
X117420000Y-15410000D01*
X132530000Y-21370000D02*
X132530000Y-20620000D01*
X132530000Y-20620000D02*
X130730000Y-20620000D01*
X132530000Y-19120000D02*
X131780000Y-19120000D01*
X131780000Y-19120000D02*
X131780000Y-16170000D01*
X131780000Y-16170000D02*
X124980000Y-16170000D01*
X131580000Y-21670000D02*
X132830000Y-21670000D01*
X130730000Y-21370000D02*
X132530000Y-21370000D01*
X130730000Y-20620000D02*
X130730000Y-21370000D01*
X129230000Y-21370000D02*
X129230000Y-20620000D01*
X129230000Y-20620000D02*
X120730000Y-20620000D01*
X120730000Y-21370000D02*
X129230000Y-21370000D01*
X120730000Y-20620000D02*
X120730000Y-21370000D01*
X119230000Y-21370000D02*
X119230000Y-20620000D01*
X119230000Y-20620000D02*
X117430000Y-20620000D01*
X118180000Y-19120000D02*
X118180000Y-16170000D01*
X118180000Y-16170000D02*
X124980000Y-16170000D01*
X117430000Y-21370000D02*
X119230000Y-21370000D01*
X117430000Y-20620000D02*
X117430000Y-21370000D01*
X117430000Y-19120000D02*
X118180000Y-19120000D01*
X117420000Y-21380000D02*
X132540000Y-21380000D01*
X117420000Y-15410000D02*
X117420000Y-21380000D01*
%TO.C,R60*%
X175360000Y-61880000D02*
X175360000Y-65040000D01*
X176280000Y-60960000D02*
G75*
G03*
X176280000Y-60960000I-920000J0D01*
G01*
%TO.C,R14*%
X55880000Y-61880000D02*
X55880000Y-65040000D01*
X56800000Y-60960000D02*
G75*
G03*
X56800000Y-60960000I-920000J0D01*
G01*
%TO.C,U3*%
X25675000Y-27895000D02*
X25675000Y-48335000D01*
X25675000Y-48335000D02*
X30175000Y-48335000D01*
X26925000Y-27895000D02*
X25675000Y-27895000D01*
X30175000Y-27895000D02*
X28925000Y-27895000D01*
X30175000Y-48335000D02*
X30175000Y-27895000D01*
X26925000Y-27895000D02*
G75*
G03*
X28925000Y-27895000I1000000J0D01*
G01*
%TO.C,R39*%
X119380000Y-61880000D02*
X119380000Y-65040000D01*
X120300000Y-60960000D02*
G75*
G03*
X120300000Y-60960000I-920000J0D01*
G01*
%TO.C,R20*%
X71120000Y-61880000D02*
X71120000Y-65040000D01*
X72040000Y-60960000D02*
G75*
G03*
X72040000Y-60960000I-920000J0D01*
G01*
%TO.C,U7*%
X151420000Y-26610000D02*
X151420000Y-47050000D01*
X151420000Y-47050000D02*
X155920000Y-47050000D01*
X152670000Y-26610000D02*
X151420000Y-26610000D01*
X155920000Y-26610000D02*
X154670000Y-26610000D01*
X155920000Y-47050000D02*
X155920000Y-26610000D01*
X152670000Y-26610000D02*
G75*
G03*
X154670000Y-26610000I1000000J0D01*
G01*
%TO.C,R1*%
X20420000Y-61880000D02*
X20420000Y-65040000D01*
X21340000Y-60960000D02*
G75*
G03*
X21340000Y-60960000I-920000J0D01*
G01*
%TO.C,R51*%
X149860000Y-61880000D02*
X149860000Y-65040000D01*
X150780000Y-60960000D02*
G75*
G03*
X150780000Y-60960000I-920000J0D01*
G01*
%TO.C,U8*%
X174280000Y-26610000D02*
X174280000Y-47050000D01*
X174280000Y-47050000D02*
X178780000Y-47050000D01*
X175530000Y-26610000D02*
X174280000Y-26610000D01*
X178780000Y-26610000D02*
X177530000Y-26610000D01*
X178780000Y-47050000D02*
X178780000Y-26610000D01*
X175530000Y-26610000D02*
G75*
G03*
X177530000Y-26610000I1000000J0D01*
G01*
%TO.C,R45*%
X134620000Y-61880000D02*
X134620000Y-65040000D01*
X135540000Y-60960000D02*
G75*
G03*
X135540000Y-60960000I-920000J0D01*
G01*
%TO.C,U6*%
X131100000Y-26610000D02*
X131100000Y-47050000D01*
X131100000Y-47050000D02*
X135600000Y-47050000D01*
X132350000Y-26610000D02*
X131100000Y-26610000D01*
X135600000Y-26610000D02*
X134350000Y-26610000D01*
X135600000Y-47050000D02*
X135600000Y-26610000D01*
X132350000Y-26610000D02*
G75*
G03*
X134350000Y-26610000I1000000J0D01*
G01*
%TO.C,R56*%
X162560000Y-61880000D02*
X162560000Y-65040000D01*
X163480000Y-60960000D02*
G75*
G03*
X163480000Y-60960000I-920000J0D01*
G01*
%TO.C,R11*%
X48260000Y-61880000D02*
X48260000Y-65040000D01*
X49180000Y-60960000D02*
G75*
G03*
X49180000Y-60960000I-920000J0D01*
G01*
%TO.C,R17*%
X63500000Y-61880000D02*
X63500000Y-65040000D01*
X64420000Y-60960000D02*
G75*
G03*
X64420000Y-60960000I-920000J0D01*
G01*
%TO.C,R47*%
X139700000Y-61880000D02*
X139700000Y-65040000D01*
X140620000Y-60960000D02*
G75*
G03*
X140620000Y-60960000I-920000J0D01*
G01*
%TO.C,R57*%
X165910000Y-61880000D02*
X165910000Y-65040000D01*
X166830000Y-60960000D02*
G75*
G03*
X166830000Y-60960000I-920000J0D01*
G01*
%TO.C,R49*%
X144780000Y-61880000D02*
X144780000Y-65040000D01*
X145700000Y-60960000D02*
G75*
G03*
X145700000Y-60960000I-920000J0D01*
G01*
%TO.C,R30*%
X96520000Y-61880000D02*
X96520000Y-65040000D01*
X97440000Y-60960000D02*
G75*
G03*
X97440000Y-60960000I-920000J0D01*
G01*
%TO.C,R8*%
X40640000Y-61880000D02*
X40640000Y-65040000D01*
X41560000Y-60960000D02*
G75*
G03*
X41560000Y-60960000I-920000J0D01*
G01*
%TO.C,U5*%
X110780000Y-26610000D02*
X110780000Y-47050000D01*
X110780000Y-47050000D02*
X115280000Y-47050000D01*
X112030000Y-26610000D02*
X110780000Y-26610000D01*
X115280000Y-26610000D02*
X114030000Y-26610000D01*
X115280000Y-47050000D02*
X115280000Y-26610000D01*
X112030000Y-26610000D02*
G75*
G03*
X114030000Y-26610000I1000000J0D01*
G01*
%TO.C,R21*%
X73660000Y-61880000D02*
X73660000Y-65040000D01*
X74580000Y-60960000D02*
G75*
G03*
X74580000Y-60960000I-920000J0D01*
G01*
%TO.C,R15*%
X58420000Y-61880000D02*
X58420000Y-65040000D01*
X59340000Y-60960000D02*
G75*
G03*
X59340000Y-60960000I-920000J0D01*
G01*
%TO.C,J9*%
X149650000Y-104170000D02*
X150900000Y-104170000D01*
X149940000Y-103880000D02*
X155910000Y-103880000D01*
X155910000Y-103880000D02*
X155910000Y-81260000D01*
X149950000Y-103870000D02*
X150700000Y-103870000D01*
X150700000Y-103870000D02*
X150700000Y-102070000D01*
X152200000Y-103870000D02*
X152200000Y-103120000D01*
X152200000Y-103120000D02*
X155150000Y-103120000D01*
X155150000Y-103120000D02*
X155150000Y-92570000D01*
X149650000Y-102920000D02*
X149650000Y-104170000D01*
X149950000Y-102070000D02*
X149950000Y-103870000D01*
X150700000Y-102070000D02*
X149950000Y-102070000D01*
X149950000Y-100570000D02*
X150700000Y-100570000D01*
X150700000Y-100570000D02*
X150700000Y-84570000D01*
X149950000Y-84570000D02*
X149950000Y-100570000D01*
X150700000Y-84570000D02*
X149950000Y-84570000D01*
X149950000Y-83070000D02*
X150700000Y-83070000D01*
X150700000Y-83070000D02*
X150700000Y-81270000D01*
X152200000Y-82020000D02*
X155150000Y-82020000D01*
X155150000Y-82020000D02*
X155150000Y-92570000D01*
X149950000Y-81270000D02*
X149950000Y-83070000D01*
X150700000Y-81270000D02*
X149950000Y-81270000D01*
X152200000Y-81270000D02*
X152200000Y-82020000D01*
X149940000Y-81260000D02*
X149940000Y-103880000D01*
X155910000Y-81260000D02*
X149940000Y-81260000D01*
%TO.C,J1*%
X97210000Y-15030000D02*
X97210000Y-16280000D01*
X97500000Y-15320000D02*
X97500000Y-21290000D01*
X97500000Y-21290000D02*
X112620000Y-21290000D01*
X97510000Y-15330000D02*
X97510000Y-16080000D01*
X97510000Y-16080000D02*
X99310000Y-16080000D01*
X97510000Y-17580000D02*
X98260000Y-17580000D01*
X98260000Y-17580000D02*
X98260000Y-20530000D01*
X98260000Y-20530000D02*
X105060000Y-20530000D01*
X98460000Y-15030000D02*
X97210000Y-15030000D01*
X99310000Y-15330000D02*
X97510000Y-15330000D01*
X99310000Y-16080000D02*
X99310000Y-15330000D01*
X100810000Y-15330000D02*
X100810000Y-16080000D01*
X100810000Y-16080000D02*
X109310000Y-16080000D01*
X109310000Y-15330000D02*
X100810000Y-15330000D01*
X109310000Y-16080000D02*
X109310000Y-15330000D01*
X110810000Y-15330000D02*
X110810000Y-16080000D01*
X110810000Y-16080000D02*
X112610000Y-16080000D01*
X111860000Y-17580000D02*
X111860000Y-20530000D01*
X111860000Y-20530000D02*
X105060000Y-20530000D01*
X112610000Y-15330000D02*
X110810000Y-15330000D01*
X112610000Y-16080000D02*
X112610000Y-15330000D01*
X112610000Y-17580000D02*
X111860000Y-17580000D01*
X112620000Y-15320000D02*
X97500000Y-15320000D01*
X112620000Y-21290000D02*
X112620000Y-15320000D01*
%TO.C,R35*%
X109220000Y-61880000D02*
X109220000Y-65040000D01*
X110140000Y-60960000D02*
G75*
G03*
X110140000Y-60960000I-920000J0D01*
G01*
%TO.C,R9*%
X43180000Y-61880000D02*
X43180000Y-65040000D01*
X44100000Y-60960000D02*
G75*
G03*
X44100000Y-60960000I-920000J0D01*
G01*
%TO.C,R7*%
X37490000Y-61880000D02*
X37490000Y-65040000D01*
X38410000Y-60960000D02*
G75*
G03*
X38410000Y-60960000I-920000J0D01*
G01*
%TO.C,R64*%
X187960000Y-61880000D02*
X187960000Y-65040000D01*
X188880000Y-60960000D02*
G75*
G03*
X188880000Y-60960000I-920000J0D01*
G01*
%TO.C,R41*%
X124460000Y-61880000D02*
X124460000Y-65040000D01*
X125380000Y-60960000D02*
G75*
G03*
X125380000Y-60960000I-920000J0D01*
G01*
%TO.C,J3*%
X37770000Y-80970000D02*
X36520000Y-80970000D01*
X37480000Y-81260000D02*
X31510000Y-81260000D01*
X31510000Y-81260000D02*
X31510000Y-103880000D01*
X37470000Y-81270000D02*
X36720000Y-81270000D01*
X36720000Y-81270000D02*
X36720000Y-83070000D01*
X35220000Y-81270000D02*
X35220000Y-82020000D01*
X35220000Y-82020000D02*
X32270000Y-82020000D01*
X32270000Y-82020000D02*
X32270000Y-92570000D01*
X37770000Y-82220000D02*
X37770000Y-80970000D01*
X37470000Y-83070000D02*
X37470000Y-81270000D01*
X36720000Y-83070000D02*
X37470000Y-83070000D01*
X37470000Y-84570000D02*
X36720000Y-84570000D01*
X36720000Y-84570000D02*
X36720000Y-100570000D01*
X37470000Y-100570000D02*
X37470000Y-84570000D01*
X36720000Y-100570000D02*
X37470000Y-100570000D01*
X37470000Y-102070000D02*
X36720000Y-102070000D01*
X36720000Y-102070000D02*
X36720000Y-103870000D01*
X35220000Y-103120000D02*
X32270000Y-103120000D01*
X32270000Y-103120000D02*
X32270000Y-92570000D01*
X37470000Y-103870000D02*
X37470000Y-102070000D01*
X36720000Y-103870000D02*
X37470000Y-103870000D01*
X35220000Y-103870000D02*
X35220000Y-103120000D01*
X37480000Y-103880000D02*
X37480000Y-81260000D01*
X31510000Y-103880000D02*
X37480000Y-103880000D01*
%TO.C,R50*%
X147320000Y-61880000D02*
X147320000Y-65040000D01*
X148240000Y-60960000D02*
G75*
G03*
X148240000Y-60960000I-920000J0D01*
G01*
%TO.C,R53*%
X154940000Y-61880000D02*
X154940000Y-65040000D01*
X155860000Y-60960000D02*
G75*
G03*
X155860000Y-60960000I-920000J0D01*
G01*
%TO.C,U4*%
X90460000Y-26610000D02*
X90460000Y-47050000D01*
X90460000Y-47050000D02*
X94960000Y-47050000D01*
X91710000Y-26610000D02*
X90460000Y-26610000D01*
X94960000Y-26610000D02*
X93710000Y-26610000D01*
X94960000Y-47050000D02*
X94960000Y-26610000D01*
X91710000Y-26610000D02*
G75*
G03*
X93710000Y-26610000I1000000J0D01*
G01*
%TO.C,R54*%
X157480000Y-61880000D02*
X157480000Y-65040000D01*
X158400000Y-60960000D02*
G75*
G03*
X158400000Y-60960000I-920000J0D01*
G01*
%TO.C,R3*%
X25500000Y-61880000D02*
X25500000Y-65040000D01*
X26420000Y-60960000D02*
G75*
G03*
X26420000Y-60960000I-920000J0D01*
G01*
%TO.C,R29*%
X93980000Y-61880000D02*
X93980000Y-65040000D01*
X94900000Y-60960000D02*
G75*
G03*
X94900000Y-60960000I-920000J0D01*
G01*
%TO.C,R43*%
X129540000Y-61880000D02*
X129540000Y-65040000D01*
X130460000Y-60960000D02*
G75*
G03*
X130460000Y-60960000I-920000J0D01*
G01*
%TO.C,R62*%
X181660000Y-61880000D02*
X181660000Y-65040000D01*
X182580000Y-60960000D02*
G75*
G03*
X182580000Y-60960000I-920000J0D01*
G01*
%TO.C,R27*%
X88900000Y-61880000D02*
X88900000Y-65040000D01*
X89820000Y-60960000D02*
G75*
G03*
X89820000Y-60960000I-920000J0D01*
G01*
%TO.C,R12*%
X50800000Y-61880000D02*
X50800000Y-65040000D01*
X51720000Y-60960000D02*
G75*
G03*
X51720000Y-60960000I-920000J0D01*
G01*
%TO.C,R4*%
X28040000Y-61880000D02*
X28040000Y-65040000D01*
X28960000Y-60960000D02*
G75*
G03*
X28960000Y-60960000I-920000J0D01*
G01*
%TO.C,R16*%
X60960000Y-61880000D02*
X60960000Y-65040000D01*
X61880000Y-60960000D02*
G75*
G03*
X61880000Y-60960000I-920000J0D01*
G01*
%TO.C,R48*%
X142240000Y-61880000D02*
X142240000Y-65040000D01*
X143160000Y-60960000D02*
G75*
G03*
X143160000Y-60960000I-920000J0D01*
G01*
%TO.C,R2*%
X22960000Y-61880000D02*
X22960000Y-65040000D01*
X23880000Y-60960000D02*
G75*
G03*
X23880000Y-60960000I-920000J0D01*
G01*
%TO.C,U1*%
X44740000Y-27895000D02*
X44740000Y-48335000D01*
X44740000Y-48335000D02*
X49240000Y-48335000D01*
X45990000Y-27895000D02*
X44740000Y-27895000D01*
X49240000Y-27895000D02*
X47990000Y-27895000D01*
X49240000Y-48335000D02*
X49240000Y-27895000D01*
X45990000Y-27895000D02*
G75*
G03*
X47990000Y-27895000I1000000J0D01*
G01*
%TO.C,J10*%
X169970000Y-104170000D02*
X171220000Y-104170000D01*
X170260000Y-103880000D02*
X176230000Y-103880000D01*
X176230000Y-103880000D02*
X176230000Y-81260000D01*
X170270000Y-103870000D02*
X171020000Y-103870000D01*
X171020000Y-103870000D02*
X171020000Y-102070000D01*
X172520000Y-103870000D02*
X172520000Y-103120000D01*
X172520000Y-103120000D02*
X175470000Y-103120000D01*
X175470000Y-103120000D02*
X175470000Y-92570000D01*
X169970000Y-102920000D02*
X169970000Y-104170000D01*
X170270000Y-102070000D02*
X170270000Y-103870000D01*
X171020000Y-102070000D02*
X170270000Y-102070000D01*
X170270000Y-100570000D02*
X171020000Y-100570000D01*
X171020000Y-100570000D02*
X171020000Y-84570000D01*
X170270000Y-84570000D02*
X170270000Y-100570000D01*
X171020000Y-84570000D02*
X170270000Y-84570000D01*
X170270000Y-83070000D02*
X171020000Y-83070000D01*
X171020000Y-83070000D02*
X171020000Y-81270000D01*
X172520000Y-82020000D02*
X175470000Y-82020000D01*
X175470000Y-82020000D02*
X175470000Y-92570000D01*
X170270000Y-81270000D02*
X170270000Y-83070000D01*
X171020000Y-81270000D02*
X170270000Y-81270000D01*
X172520000Y-81270000D02*
X172520000Y-82020000D01*
X170260000Y-81260000D02*
X170260000Y-103880000D01*
X176230000Y-81260000D02*
X170260000Y-81260000D01*
%TO.C,R23*%
X78740000Y-61880000D02*
X78740000Y-65040000D01*
X79660000Y-60960000D02*
G75*
G03*
X79660000Y-60960000I-920000J0D01*
G01*
%TO.C,R10*%
X45720000Y-61880000D02*
X45720000Y-65040000D01*
X46640000Y-60960000D02*
G75*
G03*
X46640000Y-60960000I-920000J0D01*
G01*
%TO.C,R61*%
X178510000Y-61880000D02*
X178510000Y-65040000D01*
X179430000Y-60960000D02*
G75*
G03*
X179430000Y-60960000I-920000J0D01*
G01*
%TO.C,R55*%
X160020000Y-61880000D02*
X160020000Y-65040000D01*
X160940000Y-60960000D02*
G75*
G03*
X160940000Y-60960000I-920000J0D01*
G01*
%TO.C,R42*%
X127000000Y-61880000D02*
X127000000Y-65040000D01*
X127920000Y-60960000D02*
G75*
G03*
X127920000Y-60960000I-920000J0D01*
G01*
%TO.C,R38*%
X116840000Y-61880000D02*
X116840000Y-65040000D01*
X117760000Y-60960000D02*
G75*
G03*
X117760000Y-60960000I-920000J0D01*
G01*
%TO.C,R5*%
X31190000Y-61880000D02*
X31190000Y-65040000D01*
X32110000Y-60960000D02*
G75*
G03*
X32110000Y-60960000I-920000J0D01*
G01*
%TO.C,R58*%
X169060000Y-61880000D02*
X169060000Y-65040000D01*
X169980000Y-60960000D02*
G75*
G03*
X169980000Y-60960000I-920000J0D01*
G01*
%TO.C,R6*%
X34340000Y-61880000D02*
X34340000Y-65040000D01*
X35260000Y-60960000D02*
G75*
G03*
X35260000Y-60960000I-920000J0D01*
G01*
%TO.C,R63*%
X184810000Y-61880000D02*
X184810000Y-65040000D01*
X185730000Y-60960000D02*
G75*
G03*
X185730000Y-60960000I-920000J0D01*
G01*
%TO.C,J8*%
X129330000Y-104170000D02*
X130580000Y-104170000D01*
X129620000Y-103880000D02*
X135590000Y-103880000D01*
X135590000Y-103880000D02*
X135590000Y-81260000D01*
X129630000Y-103870000D02*
X130380000Y-103870000D01*
X130380000Y-103870000D02*
X130380000Y-102070000D01*
X131880000Y-103870000D02*
X131880000Y-103120000D01*
X131880000Y-103120000D02*
X134830000Y-103120000D01*
X134830000Y-103120000D02*
X134830000Y-92570000D01*
X129330000Y-102920000D02*
X129330000Y-104170000D01*
X129630000Y-102070000D02*
X129630000Y-103870000D01*
X130380000Y-102070000D02*
X129630000Y-102070000D01*
X129630000Y-100570000D02*
X130380000Y-100570000D01*
X130380000Y-100570000D02*
X130380000Y-84570000D01*
X129630000Y-84570000D02*
X129630000Y-100570000D01*
X130380000Y-84570000D02*
X129630000Y-84570000D01*
X129630000Y-83070000D02*
X130380000Y-83070000D01*
X130380000Y-83070000D02*
X130380000Y-81270000D01*
X131880000Y-82020000D02*
X134830000Y-82020000D01*
X134830000Y-82020000D02*
X134830000Y-92570000D01*
X129630000Y-81270000D02*
X129630000Y-83070000D01*
X130380000Y-81270000D02*
X129630000Y-81270000D01*
X131880000Y-81270000D02*
X131880000Y-82020000D01*
X129620000Y-81260000D02*
X129620000Y-103880000D01*
X135590000Y-81260000D02*
X129620000Y-81260000D01*
%TO.C,R19*%
X68580000Y-61880000D02*
X68580000Y-65040000D01*
X69500000Y-60960000D02*
G75*
G03*
X69500000Y-60960000I-920000J0D01*
G01*
%TO.C,U2*%
X67600000Y-26610000D02*
X67600000Y-47050000D01*
X67600000Y-47050000D02*
X72100000Y-47050000D01*
X68850000Y-26610000D02*
X67600000Y-26610000D01*
X72100000Y-26610000D02*
X70850000Y-26610000D01*
X72100000Y-47050000D02*
X72100000Y-26610000D01*
X68850000Y-26610000D02*
G75*
G03*
X70850000Y-26610000I1000000J0D01*
G01*
%TO.C,R37*%
X114300000Y-61880000D02*
X114300000Y-65040000D01*
X115220000Y-60960000D02*
G75*
G03*
X115220000Y-60960000I-920000J0D01*
G01*
%TO.C,J4*%
X50590000Y-104170000D02*
X51840000Y-104170000D01*
X50880000Y-103880000D02*
X56850000Y-103880000D01*
X56850000Y-103880000D02*
X56850000Y-81260000D01*
X50890000Y-103870000D02*
X51640000Y-103870000D01*
X51640000Y-103870000D02*
X51640000Y-102070000D01*
X53140000Y-103870000D02*
X53140000Y-103120000D01*
X53140000Y-103120000D02*
X56090000Y-103120000D01*
X56090000Y-103120000D02*
X56090000Y-92570000D01*
X50590000Y-102920000D02*
X50590000Y-104170000D01*
X50890000Y-102070000D02*
X50890000Y-103870000D01*
X51640000Y-102070000D02*
X50890000Y-102070000D01*
X50890000Y-100570000D02*
X51640000Y-100570000D01*
X51640000Y-100570000D02*
X51640000Y-84570000D01*
X50890000Y-84570000D02*
X50890000Y-100570000D01*
X51640000Y-84570000D02*
X50890000Y-84570000D01*
X50890000Y-83070000D02*
X51640000Y-83070000D01*
X51640000Y-83070000D02*
X51640000Y-81270000D01*
X53140000Y-82020000D02*
X56090000Y-82020000D01*
X56090000Y-82020000D02*
X56090000Y-92570000D01*
X50890000Y-81270000D02*
X50890000Y-83070000D01*
X51640000Y-81270000D02*
X50890000Y-81270000D01*
X53140000Y-81270000D02*
X53140000Y-82020000D01*
X50880000Y-81260000D02*
X50880000Y-103880000D01*
X56850000Y-81260000D02*
X50880000Y-81260000D01*
%TD*%
M02*
