%TF.GenerationSoftware,KiCad,Pcbnew,7.0.9*%
%TF.CreationDate,2023-12-27T00:16:36+05:30*%
%TF.ProjectId,Led_Cube_BaseControlerV2,4c65645f-4375-4626-955f-42617365436f,rev?*%
%TF.SameCoordinates,Original*%
%TF.FileFunction,Legend,Top*%
%TF.FilePolarity,Positive*%
%FSLAX46Y46*%
G04 Gerber Fmt 4.6, Leading zero omitted, Abs format (unit mm)*
G04 Created by KiCad (PCBNEW 7.0.9) date 2023-12-27 00:16:36*
%MOMM*%
%LPD*%
G01*
G04 APERTURE LIST*
%ADD10C,0.150000*%
%ADD11C,0.120000*%
G04 APERTURE END LIST*
D10*
X87000000Y-52000000D02*
X87000000Y-48000000D01*
X149000000Y-52000000D02*
X149000000Y-50000000D01*
X125000000Y-52000000D02*
X125000000Y-50000000D01*
X147000000Y-52000000D02*
X147000000Y-48000000D01*
X123000000Y-52000000D02*
X123000000Y-48000000D01*
X173000000Y-52000000D02*
X173000000Y-50000000D01*
X103000000Y-52000000D02*
X103000000Y-50000000D01*
X148000000Y-52000000D02*
X148000000Y-49000000D01*
X219000000Y-51000000D02*
X221000000Y-51000000D01*
X196000000Y-52000000D02*
X196000000Y-49000000D01*
X172000000Y-52000000D02*
X172000000Y-49000000D01*
X102000000Y-52000000D02*
X102000000Y-49000000D01*
X219000000Y-50000000D02*
X221000000Y-50000000D01*
X101000000Y-52000000D02*
X101000000Y-48000000D01*
X89000000Y-52000000D02*
X89000000Y-50000000D01*
X197000000Y-52000000D02*
X197000000Y-50000000D01*
X88000000Y-52000000D02*
X88000000Y-49000000D01*
X171000000Y-52000000D02*
X171000000Y-48000000D01*
X195000000Y-52000000D02*
X195000000Y-48000000D01*
X124000000Y-52000000D02*
X124000000Y-49000000D01*
X219000000Y-49000000D02*
X221000000Y-49000000D01*
X55404760Y-50759580D02*
X55357141Y-50807200D01*
X55357141Y-50807200D02*
X55214284Y-50854819D01*
X55214284Y-50854819D02*
X55119046Y-50854819D01*
X55119046Y-50854819D02*
X54976189Y-50807200D01*
X54976189Y-50807200D02*
X54880951Y-50711961D01*
X54880951Y-50711961D02*
X54833332Y-50616723D01*
X54833332Y-50616723D02*
X54785713Y-50426247D01*
X54785713Y-50426247D02*
X54785713Y-50283390D01*
X54785713Y-50283390D02*
X54833332Y-50092914D01*
X54833332Y-50092914D02*
X54880951Y-49997676D01*
X54880951Y-49997676D02*
X54976189Y-49902438D01*
X54976189Y-49902438D02*
X55119046Y-49854819D01*
X55119046Y-49854819D02*
X55214284Y-49854819D01*
X55214284Y-49854819D02*
X55357141Y-49902438D01*
X55357141Y-49902438D02*
X55404760Y-49950057D01*
X55976189Y-50854819D02*
X55880951Y-50807200D01*
X55880951Y-50807200D02*
X55833332Y-50759580D01*
X55833332Y-50759580D02*
X55785713Y-50664342D01*
X55785713Y-50664342D02*
X55785713Y-50378628D01*
X55785713Y-50378628D02*
X55833332Y-50283390D01*
X55833332Y-50283390D02*
X55880951Y-50235771D01*
X55880951Y-50235771D02*
X55976189Y-50188152D01*
X55976189Y-50188152D02*
X56119046Y-50188152D01*
X56119046Y-50188152D02*
X56214284Y-50235771D01*
X56214284Y-50235771D02*
X56261903Y-50283390D01*
X56261903Y-50283390D02*
X56309522Y-50378628D01*
X56309522Y-50378628D02*
X56309522Y-50664342D01*
X56309522Y-50664342D02*
X56261903Y-50759580D01*
X56261903Y-50759580D02*
X56214284Y-50807200D01*
X56214284Y-50807200D02*
X56119046Y-50854819D01*
X56119046Y-50854819D02*
X55976189Y-50854819D01*
X56738094Y-50188152D02*
X56738094Y-50854819D01*
X56738094Y-50283390D02*
X56785713Y-50235771D01*
X56785713Y-50235771D02*
X56880951Y-50188152D01*
X56880951Y-50188152D02*
X57023808Y-50188152D01*
X57023808Y-50188152D02*
X57119046Y-50235771D01*
X57119046Y-50235771D02*
X57166665Y-50331009D01*
X57166665Y-50331009D02*
X57166665Y-50854819D01*
X57499999Y-50188152D02*
X57880951Y-50188152D01*
X57642856Y-49854819D02*
X57642856Y-50711961D01*
X57642856Y-50711961D02*
X57690475Y-50807200D01*
X57690475Y-50807200D02*
X57785713Y-50854819D01*
X57785713Y-50854819D02*
X57880951Y-50854819D01*
X58357142Y-50854819D02*
X58261904Y-50807200D01*
X58261904Y-50807200D02*
X58214285Y-50759580D01*
X58214285Y-50759580D02*
X58166666Y-50664342D01*
X58166666Y-50664342D02*
X58166666Y-50378628D01*
X58166666Y-50378628D02*
X58214285Y-50283390D01*
X58214285Y-50283390D02*
X58261904Y-50235771D01*
X58261904Y-50235771D02*
X58357142Y-50188152D01*
X58357142Y-50188152D02*
X58499999Y-50188152D01*
X58499999Y-50188152D02*
X58595237Y-50235771D01*
X58595237Y-50235771D02*
X58642856Y-50283390D01*
X58642856Y-50283390D02*
X58690475Y-50378628D01*
X58690475Y-50378628D02*
X58690475Y-50664342D01*
X58690475Y-50664342D02*
X58642856Y-50759580D01*
X58642856Y-50759580D02*
X58595237Y-50807200D01*
X58595237Y-50807200D02*
X58499999Y-50854819D01*
X58499999Y-50854819D02*
X58357142Y-50854819D01*
X59261904Y-50854819D02*
X59166666Y-50807200D01*
X59166666Y-50807200D02*
X59119047Y-50711961D01*
X59119047Y-50711961D02*
X59119047Y-49854819D01*
X59785714Y-50854819D02*
X59690476Y-50807200D01*
X59690476Y-50807200D02*
X59642857Y-50711961D01*
X59642857Y-50711961D02*
X59642857Y-49854819D01*
X60547619Y-50807200D02*
X60452381Y-50854819D01*
X60452381Y-50854819D02*
X60261905Y-50854819D01*
X60261905Y-50854819D02*
X60166667Y-50807200D01*
X60166667Y-50807200D02*
X60119048Y-50711961D01*
X60119048Y-50711961D02*
X60119048Y-50331009D01*
X60119048Y-50331009D02*
X60166667Y-50235771D01*
X60166667Y-50235771D02*
X60261905Y-50188152D01*
X60261905Y-50188152D02*
X60452381Y-50188152D01*
X60452381Y-50188152D02*
X60547619Y-50235771D01*
X60547619Y-50235771D02*
X60595238Y-50331009D01*
X60595238Y-50331009D02*
X60595238Y-50426247D01*
X60595238Y-50426247D02*
X60119048Y-50521485D01*
X61023810Y-50854819D02*
X61023810Y-50188152D01*
X61023810Y-50378628D02*
X61071429Y-50283390D01*
X61071429Y-50283390D02*
X61119048Y-50235771D01*
X61119048Y-50235771D02*
X61214286Y-50188152D01*
X61214286Y-50188152D02*
X61309524Y-50188152D01*
X164674819Y-74692857D02*
X164198628Y-75026190D01*
X164674819Y-75264285D02*
X163674819Y-75264285D01*
X163674819Y-75264285D02*
X163674819Y-74883333D01*
X163674819Y-74883333D02*
X163722438Y-74788095D01*
X163722438Y-74788095D02*
X163770057Y-74740476D01*
X163770057Y-74740476D02*
X163865295Y-74692857D01*
X163865295Y-74692857D02*
X164008152Y-74692857D01*
X164008152Y-74692857D02*
X164103390Y-74740476D01*
X164103390Y-74740476D02*
X164151009Y-74788095D01*
X164151009Y-74788095D02*
X164198628Y-74883333D01*
X164198628Y-74883333D02*
X164198628Y-75264285D01*
X164008152Y-73835714D02*
X164674819Y-73835714D01*
X163627200Y-74073809D02*
X164341485Y-74311904D01*
X164341485Y-74311904D02*
X164341485Y-73692857D01*
X164674819Y-72788095D02*
X164674819Y-73359523D01*
X164674819Y-73073809D02*
X163674819Y-73073809D01*
X163674819Y-73073809D02*
X163817676Y-73169047D01*
X163817676Y-73169047D02*
X163912914Y-73264285D01*
X163912914Y-73264285D02*
X163960533Y-73359523D01*
X47374819Y-74126666D02*
X46898628Y-74459999D01*
X47374819Y-74698094D02*
X46374819Y-74698094D01*
X46374819Y-74698094D02*
X46374819Y-74317142D01*
X46374819Y-74317142D02*
X46422438Y-74221904D01*
X46422438Y-74221904D02*
X46470057Y-74174285D01*
X46470057Y-74174285D02*
X46565295Y-74126666D01*
X46565295Y-74126666D02*
X46708152Y-74126666D01*
X46708152Y-74126666D02*
X46803390Y-74174285D01*
X46803390Y-74174285D02*
X46851009Y-74221904D01*
X46851009Y-74221904D02*
X46898628Y-74317142D01*
X46898628Y-74317142D02*
X46898628Y-74698094D01*
X46470057Y-73745713D02*
X46422438Y-73698094D01*
X46422438Y-73698094D02*
X46374819Y-73602856D01*
X46374819Y-73602856D02*
X46374819Y-73364761D01*
X46374819Y-73364761D02*
X46422438Y-73269523D01*
X46422438Y-73269523D02*
X46470057Y-73221904D01*
X46470057Y-73221904D02*
X46565295Y-73174285D01*
X46565295Y-73174285D02*
X46660533Y-73174285D01*
X46660533Y-73174285D02*
X46803390Y-73221904D01*
X46803390Y-73221904D02*
X47374819Y-73793332D01*
X47374819Y-73793332D02*
X47374819Y-73174285D01*
X66424819Y-60571904D02*
X67234342Y-60571904D01*
X67234342Y-60571904D02*
X67329580Y-60524285D01*
X67329580Y-60524285D02*
X67377200Y-60476666D01*
X67377200Y-60476666D02*
X67424819Y-60381428D01*
X67424819Y-60381428D02*
X67424819Y-60190952D01*
X67424819Y-60190952D02*
X67377200Y-60095714D01*
X67377200Y-60095714D02*
X67329580Y-60048095D01*
X67329580Y-60048095D02*
X67234342Y-60000476D01*
X67234342Y-60000476D02*
X66424819Y-60000476D01*
X66520057Y-59571904D02*
X66472438Y-59524285D01*
X66472438Y-59524285D02*
X66424819Y-59429047D01*
X66424819Y-59429047D02*
X66424819Y-59190952D01*
X66424819Y-59190952D02*
X66472438Y-59095714D01*
X66472438Y-59095714D02*
X66520057Y-59048095D01*
X66520057Y-59048095D02*
X66615295Y-59000476D01*
X66615295Y-59000476D02*
X66710533Y-59000476D01*
X66710533Y-59000476D02*
X66853390Y-59048095D01*
X66853390Y-59048095D02*
X67424819Y-59619523D01*
X67424819Y-59619523D02*
X67424819Y-59000476D01*
X92374819Y-74692857D02*
X91898628Y-75026190D01*
X92374819Y-75264285D02*
X91374819Y-75264285D01*
X91374819Y-75264285D02*
X91374819Y-74883333D01*
X91374819Y-74883333D02*
X91422438Y-74788095D01*
X91422438Y-74788095D02*
X91470057Y-74740476D01*
X91470057Y-74740476D02*
X91565295Y-74692857D01*
X91565295Y-74692857D02*
X91708152Y-74692857D01*
X91708152Y-74692857D02*
X91803390Y-74740476D01*
X91803390Y-74740476D02*
X91851009Y-74788095D01*
X91851009Y-74788095D02*
X91898628Y-74883333D01*
X91898628Y-74883333D02*
X91898628Y-75264285D01*
X92374819Y-73740476D02*
X92374819Y-74311904D01*
X92374819Y-74026190D02*
X91374819Y-74026190D01*
X91374819Y-74026190D02*
X91517676Y-74121428D01*
X91517676Y-74121428D02*
X91612914Y-74216666D01*
X91612914Y-74216666D02*
X91660533Y-74311904D01*
X91374819Y-73407142D02*
X91374819Y-72740476D01*
X91374819Y-72740476D02*
X92374819Y-73169047D01*
X83374819Y-74692857D02*
X82898628Y-75026190D01*
X83374819Y-75264285D02*
X82374819Y-75264285D01*
X82374819Y-75264285D02*
X82374819Y-74883333D01*
X82374819Y-74883333D02*
X82422438Y-74788095D01*
X82422438Y-74788095D02*
X82470057Y-74740476D01*
X82470057Y-74740476D02*
X82565295Y-74692857D01*
X82565295Y-74692857D02*
X82708152Y-74692857D01*
X82708152Y-74692857D02*
X82803390Y-74740476D01*
X82803390Y-74740476D02*
X82851009Y-74788095D01*
X82851009Y-74788095D02*
X82898628Y-74883333D01*
X82898628Y-74883333D02*
X82898628Y-75264285D01*
X83374819Y-73740476D02*
X83374819Y-74311904D01*
X83374819Y-74026190D02*
X82374819Y-74026190D01*
X82374819Y-74026190D02*
X82517676Y-74121428D01*
X82517676Y-74121428D02*
X82612914Y-74216666D01*
X82612914Y-74216666D02*
X82660533Y-74311904D01*
X82708152Y-72883333D02*
X83374819Y-72883333D01*
X82327200Y-73121428D02*
X83041485Y-73359523D01*
X83041485Y-73359523D02*
X83041485Y-72740476D01*
X107374819Y-74692857D02*
X106898628Y-75026190D01*
X107374819Y-75264285D02*
X106374819Y-75264285D01*
X106374819Y-75264285D02*
X106374819Y-74883333D01*
X106374819Y-74883333D02*
X106422438Y-74788095D01*
X106422438Y-74788095D02*
X106470057Y-74740476D01*
X106470057Y-74740476D02*
X106565295Y-74692857D01*
X106565295Y-74692857D02*
X106708152Y-74692857D01*
X106708152Y-74692857D02*
X106803390Y-74740476D01*
X106803390Y-74740476D02*
X106851009Y-74788095D01*
X106851009Y-74788095D02*
X106898628Y-74883333D01*
X106898628Y-74883333D02*
X106898628Y-75264285D01*
X106470057Y-74311904D02*
X106422438Y-74264285D01*
X106422438Y-74264285D02*
X106374819Y-74169047D01*
X106374819Y-74169047D02*
X106374819Y-73930952D01*
X106374819Y-73930952D02*
X106422438Y-73835714D01*
X106422438Y-73835714D02*
X106470057Y-73788095D01*
X106470057Y-73788095D02*
X106565295Y-73740476D01*
X106565295Y-73740476D02*
X106660533Y-73740476D01*
X106660533Y-73740476D02*
X106803390Y-73788095D01*
X106803390Y-73788095D02*
X107374819Y-74359523D01*
X107374819Y-74359523D02*
X107374819Y-73740476D01*
X106470057Y-73359523D02*
X106422438Y-73311904D01*
X106422438Y-73311904D02*
X106374819Y-73216666D01*
X106374819Y-73216666D02*
X106374819Y-72978571D01*
X106374819Y-72978571D02*
X106422438Y-72883333D01*
X106422438Y-72883333D02*
X106470057Y-72835714D01*
X106470057Y-72835714D02*
X106565295Y-72788095D01*
X106565295Y-72788095D02*
X106660533Y-72788095D01*
X106660533Y-72788095D02*
X106803390Y-72835714D01*
X106803390Y-72835714D02*
X107374819Y-73407142D01*
X107374819Y-73407142D02*
X107374819Y-72788095D01*
X50226190Y-88764819D02*
X49892857Y-88288628D01*
X49654762Y-88764819D02*
X49654762Y-87764819D01*
X49654762Y-87764819D02*
X50035714Y-87764819D01*
X50035714Y-87764819D02*
X50130952Y-87812438D01*
X50130952Y-87812438D02*
X50178571Y-87860057D01*
X50178571Y-87860057D02*
X50226190Y-87955295D01*
X50226190Y-87955295D02*
X50226190Y-88098152D01*
X50226190Y-88098152D02*
X50178571Y-88193390D01*
X50178571Y-88193390D02*
X50130952Y-88241009D01*
X50130952Y-88241009D02*
X50035714Y-88288628D01*
X50035714Y-88288628D02*
X49654762Y-88288628D01*
X50797619Y-88764819D02*
X50702381Y-88717200D01*
X50702381Y-88717200D02*
X50654762Y-88669580D01*
X50654762Y-88669580D02*
X50607143Y-88574342D01*
X50607143Y-88574342D02*
X50607143Y-88288628D01*
X50607143Y-88288628D02*
X50654762Y-88193390D01*
X50654762Y-88193390D02*
X50702381Y-88145771D01*
X50702381Y-88145771D02*
X50797619Y-88098152D01*
X50797619Y-88098152D02*
X50940476Y-88098152D01*
X50940476Y-88098152D02*
X51035714Y-88145771D01*
X51035714Y-88145771D02*
X51083333Y-88193390D01*
X51083333Y-88193390D02*
X51130952Y-88288628D01*
X51130952Y-88288628D02*
X51130952Y-88574342D01*
X51130952Y-88574342D02*
X51083333Y-88669580D01*
X51083333Y-88669580D02*
X51035714Y-88717200D01*
X51035714Y-88717200D02*
X50940476Y-88764819D01*
X50940476Y-88764819D02*
X50797619Y-88764819D01*
X51464286Y-88098152D02*
X51654762Y-88764819D01*
X51654762Y-88764819D02*
X51845238Y-88288628D01*
X51845238Y-88288628D02*
X52035714Y-88764819D01*
X52035714Y-88764819D02*
X52226190Y-88098152D01*
X52369048Y-88860057D02*
X53130952Y-88860057D01*
X53892857Y-88764819D02*
X53321429Y-88764819D01*
X53607143Y-88764819D02*
X53607143Y-87764819D01*
X53607143Y-87764819D02*
X53511905Y-87907676D01*
X53511905Y-87907676D02*
X53416667Y-88002914D01*
X53416667Y-88002914D02*
X53321429Y-88050533D01*
X176374819Y-74692857D02*
X175898628Y-75026190D01*
X176374819Y-75264285D02*
X175374819Y-75264285D01*
X175374819Y-75264285D02*
X175374819Y-74883333D01*
X175374819Y-74883333D02*
X175422438Y-74788095D01*
X175422438Y-74788095D02*
X175470057Y-74740476D01*
X175470057Y-74740476D02*
X175565295Y-74692857D01*
X175565295Y-74692857D02*
X175708152Y-74692857D01*
X175708152Y-74692857D02*
X175803390Y-74740476D01*
X175803390Y-74740476D02*
X175851009Y-74788095D01*
X175851009Y-74788095D02*
X175898628Y-74883333D01*
X175898628Y-74883333D02*
X175898628Y-75264285D01*
X175708152Y-73835714D02*
X176374819Y-73835714D01*
X175327200Y-74073809D02*
X176041485Y-74311904D01*
X176041485Y-74311904D02*
X176041485Y-73692857D01*
X175374819Y-72835714D02*
X175374819Y-73311904D01*
X175374819Y-73311904D02*
X175851009Y-73359523D01*
X175851009Y-73359523D02*
X175803390Y-73311904D01*
X175803390Y-73311904D02*
X175755771Y-73216666D01*
X175755771Y-73216666D02*
X175755771Y-72978571D01*
X175755771Y-72978571D02*
X175803390Y-72883333D01*
X175803390Y-72883333D02*
X175851009Y-72835714D01*
X175851009Y-72835714D02*
X175946247Y-72788095D01*
X175946247Y-72788095D02*
X176184342Y-72788095D01*
X176184342Y-72788095D02*
X176279580Y-72835714D01*
X176279580Y-72835714D02*
X176327200Y-72883333D01*
X176327200Y-72883333D02*
X176374819Y-72978571D01*
X176374819Y-72978571D02*
X176374819Y-73216666D01*
X176374819Y-73216666D02*
X176327200Y-73311904D01*
X176327200Y-73311904D02*
X176279580Y-73359523D01*
X119274819Y-74692857D02*
X118798628Y-75026190D01*
X119274819Y-75264285D02*
X118274819Y-75264285D01*
X118274819Y-75264285D02*
X118274819Y-74883333D01*
X118274819Y-74883333D02*
X118322438Y-74788095D01*
X118322438Y-74788095D02*
X118370057Y-74740476D01*
X118370057Y-74740476D02*
X118465295Y-74692857D01*
X118465295Y-74692857D02*
X118608152Y-74692857D01*
X118608152Y-74692857D02*
X118703390Y-74740476D01*
X118703390Y-74740476D02*
X118751009Y-74788095D01*
X118751009Y-74788095D02*
X118798628Y-74883333D01*
X118798628Y-74883333D02*
X118798628Y-75264285D01*
X118370057Y-74311904D02*
X118322438Y-74264285D01*
X118322438Y-74264285D02*
X118274819Y-74169047D01*
X118274819Y-74169047D02*
X118274819Y-73930952D01*
X118274819Y-73930952D02*
X118322438Y-73835714D01*
X118322438Y-73835714D02*
X118370057Y-73788095D01*
X118370057Y-73788095D02*
X118465295Y-73740476D01*
X118465295Y-73740476D02*
X118560533Y-73740476D01*
X118560533Y-73740476D02*
X118703390Y-73788095D01*
X118703390Y-73788095D02*
X119274819Y-74359523D01*
X119274819Y-74359523D02*
X119274819Y-73740476D01*
X118274819Y-72883333D02*
X118274819Y-73073809D01*
X118274819Y-73073809D02*
X118322438Y-73169047D01*
X118322438Y-73169047D02*
X118370057Y-73216666D01*
X118370057Y-73216666D02*
X118512914Y-73311904D01*
X118512914Y-73311904D02*
X118703390Y-73359523D01*
X118703390Y-73359523D02*
X119084342Y-73359523D01*
X119084342Y-73359523D02*
X119179580Y-73311904D01*
X119179580Y-73311904D02*
X119227200Y-73264285D01*
X119227200Y-73264285D02*
X119274819Y-73169047D01*
X119274819Y-73169047D02*
X119274819Y-72978571D01*
X119274819Y-72978571D02*
X119227200Y-72883333D01*
X119227200Y-72883333D02*
X119179580Y-72835714D01*
X119179580Y-72835714D02*
X119084342Y-72788095D01*
X119084342Y-72788095D02*
X118846247Y-72788095D01*
X118846247Y-72788095D02*
X118751009Y-72835714D01*
X118751009Y-72835714D02*
X118703390Y-72883333D01*
X118703390Y-72883333D02*
X118655771Y-72978571D01*
X118655771Y-72978571D02*
X118655771Y-73169047D01*
X118655771Y-73169047D02*
X118703390Y-73264285D01*
X118703390Y-73264285D02*
X118751009Y-73311904D01*
X118751009Y-73311904D02*
X118846247Y-73359523D01*
X203374819Y-74692857D02*
X202898628Y-75026190D01*
X203374819Y-75264285D02*
X202374819Y-75264285D01*
X202374819Y-75264285D02*
X202374819Y-74883333D01*
X202374819Y-74883333D02*
X202422438Y-74788095D01*
X202422438Y-74788095D02*
X202470057Y-74740476D01*
X202470057Y-74740476D02*
X202565295Y-74692857D01*
X202565295Y-74692857D02*
X202708152Y-74692857D01*
X202708152Y-74692857D02*
X202803390Y-74740476D01*
X202803390Y-74740476D02*
X202851009Y-74788095D01*
X202851009Y-74788095D02*
X202898628Y-74883333D01*
X202898628Y-74883333D02*
X202898628Y-75264285D01*
X202374819Y-73788095D02*
X202374819Y-74264285D01*
X202374819Y-74264285D02*
X202851009Y-74311904D01*
X202851009Y-74311904D02*
X202803390Y-74264285D01*
X202803390Y-74264285D02*
X202755771Y-74169047D01*
X202755771Y-74169047D02*
X202755771Y-73930952D01*
X202755771Y-73930952D02*
X202803390Y-73835714D01*
X202803390Y-73835714D02*
X202851009Y-73788095D01*
X202851009Y-73788095D02*
X202946247Y-73740476D01*
X202946247Y-73740476D02*
X203184342Y-73740476D01*
X203184342Y-73740476D02*
X203279580Y-73788095D01*
X203279580Y-73788095D02*
X203327200Y-73835714D01*
X203327200Y-73835714D02*
X203374819Y-73930952D01*
X203374819Y-73930952D02*
X203374819Y-74169047D01*
X203374819Y-74169047D02*
X203327200Y-74264285D01*
X203327200Y-74264285D02*
X203279580Y-74311904D01*
X202708152Y-72883333D02*
X203374819Y-72883333D01*
X202327200Y-73121428D02*
X203041485Y-73359523D01*
X203041485Y-73359523D02*
X203041485Y-72740476D01*
X62374819Y-74126666D02*
X61898628Y-74459999D01*
X62374819Y-74698094D02*
X61374819Y-74698094D01*
X61374819Y-74698094D02*
X61374819Y-74317142D01*
X61374819Y-74317142D02*
X61422438Y-74221904D01*
X61422438Y-74221904D02*
X61470057Y-74174285D01*
X61470057Y-74174285D02*
X61565295Y-74126666D01*
X61565295Y-74126666D02*
X61708152Y-74126666D01*
X61708152Y-74126666D02*
X61803390Y-74174285D01*
X61803390Y-74174285D02*
X61851009Y-74221904D01*
X61851009Y-74221904D02*
X61898628Y-74317142D01*
X61898628Y-74317142D02*
X61898628Y-74698094D01*
X61374819Y-73793332D02*
X61374819Y-73126666D01*
X61374819Y-73126666D02*
X62374819Y-73555237D01*
X194374819Y-74692857D02*
X193898628Y-75026190D01*
X194374819Y-75264285D02*
X193374819Y-75264285D01*
X193374819Y-75264285D02*
X193374819Y-74883333D01*
X193374819Y-74883333D02*
X193422438Y-74788095D01*
X193422438Y-74788095D02*
X193470057Y-74740476D01*
X193470057Y-74740476D02*
X193565295Y-74692857D01*
X193565295Y-74692857D02*
X193708152Y-74692857D01*
X193708152Y-74692857D02*
X193803390Y-74740476D01*
X193803390Y-74740476D02*
X193851009Y-74788095D01*
X193851009Y-74788095D02*
X193898628Y-74883333D01*
X193898628Y-74883333D02*
X193898628Y-75264285D01*
X193374819Y-73788095D02*
X193374819Y-74264285D01*
X193374819Y-74264285D02*
X193851009Y-74311904D01*
X193851009Y-74311904D02*
X193803390Y-74264285D01*
X193803390Y-74264285D02*
X193755771Y-74169047D01*
X193755771Y-74169047D02*
X193755771Y-73930952D01*
X193755771Y-73930952D02*
X193803390Y-73835714D01*
X193803390Y-73835714D02*
X193851009Y-73788095D01*
X193851009Y-73788095D02*
X193946247Y-73740476D01*
X193946247Y-73740476D02*
X194184342Y-73740476D01*
X194184342Y-73740476D02*
X194279580Y-73788095D01*
X194279580Y-73788095D02*
X194327200Y-73835714D01*
X194327200Y-73835714D02*
X194374819Y-73930952D01*
X194374819Y-73930952D02*
X194374819Y-74169047D01*
X194374819Y-74169047D02*
X194327200Y-74264285D01*
X194327200Y-74264285D02*
X194279580Y-74311904D01*
X194374819Y-72788095D02*
X194374819Y-73359523D01*
X194374819Y-73073809D02*
X193374819Y-73073809D01*
X193374819Y-73073809D02*
X193517676Y-73169047D01*
X193517676Y-73169047D02*
X193612914Y-73264285D01*
X193612914Y-73264285D02*
X193660533Y-73359523D01*
X230374819Y-74692857D02*
X229898628Y-75026190D01*
X230374819Y-75264285D02*
X229374819Y-75264285D01*
X229374819Y-75264285D02*
X229374819Y-74883333D01*
X229374819Y-74883333D02*
X229422438Y-74788095D01*
X229422438Y-74788095D02*
X229470057Y-74740476D01*
X229470057Y-74740476D02*
X229565295Y-74692857D01*
X229565295Y-74692857D02*
X229708152Y-74692857D01*
X229708152Y-74692857D02*
X229803390Y-74740476D01*
X229803390Y-74740476D02*
X229851009Y-74788095D01*
X229851009Y-74788095D02*
X229898628Y-74883333D01*
X229898628Y-74883333D02*
X229898628Y-75264285D01*
X229374819Y-73835714D02*
X229374819Y-74026190D01*
X229374819Y-74026190D02*
X229422438Y-74121428D01*
X229422438Y-74121428D02*
X229470057Y-74169047D01*
X229470057Y-74169047D02*
X229612914Y-74264285D01*
X229612914Y-74264285D02*
X229803390Y-74311904D01*
X229803390Y-74311904D02*
X230184342Y-74311904D01*
X230184342Y-74311904D02*
X230279580Y-74264285D01*
X230279580Y-74264285D02*
X230327200Y-74216666D01*
X230327200Y-74216666D02*
X230374819Y-74121428D01*
X230374819Y-74121428D02*
X230374819Y-73930952D01*
X230374819Y-73930952D02*
X230327200Y-73835714D01*
X230327200Y-73835714D02*
X230279580Y-73788095D01*
X230279580Y-73788095D02*
X230184342Y-73740476D01*
X230184342Y-73740476D02*
X229946247Y-73740476D01*
X229946247Y-73740476D02*
X229851009Y-73788095D01*
X229851009Y-73788095D02*
X229803390Y-73835714D01*
X229803390Y-73835714D02*
X229755771Y-73930952D01*
X229755771Y-73930952D02*
X229755771Y-74121428D01*
X229755771Y-74121428D02*
X229803390Y-74216666D01*
X229803390Y-74216666D02*
X229851009Y-74264285D01*
X229851009Y-74264285D02*
X229946247Y-74311904D01*
X229374819Y-73407142D02*
X229374819Y-72788095D01*
X229374819Y-72788095D02*
X229755771Y-73121428D01*
X229755771Y-73121428D02*
X229755771Y-72978571D01*
X229755771Y-72978571D02*
X229803390Y-72883333D01*
X229803390Y-72883333D02*
X229851009Y-72835714D01*
X229851009Y-72835714D02*
X229946247Y-72788095D01*
X229946247Y-72788095D02*
X230184342Y-72788095D01*
X230184342Y-72788095D02*
X230279580Y-72835714D01*
X230279580Y-72835714D02*
X230327200Y-72883333D01*
X230327200Y-72883333D02*
X230374819Y-72978571D01*
X230374819Y-72978571D02*
X230374819Y-73264285D01*
X230374819Y-73264285D02*
X230327200Y-73359523D01*
X230327200Y-73359523D02*
X230279580Y-73407142D01*
X208984819Y-60621904D02*
X209794342Y-60621904D01*
X209794342Y-60621904D02*
X209889580Y-60574285D01*
X209889580Y-60574285D02*
X209937200Y-60526666D01*
X209937200Y-60526666D02*
X209984819Y-60431428D01*
X209984819Y-60431428D02*
X209984819Y-60240952D01*
X209984819Y-60240952D02*
X209937200Y-60145714D01*
X209937200Y-60145714D02*
X209889580Y-60098095D01*
X209889580Y-60098095D02*
X209794342Y-60050476D01*
X209794342Y-60050476D02*
X208984819Y-60050476D01*
X209413390Y-59431428D02*
X209365771Y-59526666D01*
X209365771Y-59526666D02*
X209318152Y-59574285D01*
X209318152Y-59574285D02*
X209222914Y-59621904D01*
X209222914Y-59621904D02*
X209175295Y-59621904D01*
X209175295Y-59621904D02*
X209080057Y-59574285D01*
X209080057Y-59574285D02*
X209032438Y-59526666D01*
X209032438Y-59526666D02*
X208984819Y-59431428D01*
X208984819Y-59431428D02*
X208984819Y-59240952D01*
X208984819Y-59240952D02*
X209032438Y-59145714D01*
X209032438Y-59145714D02*
X209080057Y-59098095D01*
X209080057Y-59098095D02*
X209175295Y-59050476D01*
X209175295Y-59050476D02*
X209222914Y-59050476D01*
X209222914Y-59050476D02*
X209318152Y-59098095D01*
X209318152Y-59098095D02*
X209365771Y-59145714D01*
X209365771Y-59145714D02*
X209413390Y-59240952D01*
X209413390Y-59240952D02*
X209413390Y-59431428D01*
X209413390Y-59431428D02*
X209461009Y-59526666D01*
X209461009Y-59526666D02*
X209508628Y-59574285D01*
X209508628Y-59574285D02*
X209603866Y-59621904D01*
X209603866Y-59621904D02*
X209794342Y-59621904D01*
X209794342Y-59621904D02*
X209889580Y-59574285D01*
X209889580Y-59574285D02*
X209937200Y-59526666D01*
X209937200Y-59526666D02*
X209984819Y-59431428D01*
X209984819Y-59431428D02*
X209984819Y-59240952D01*
X209984819Y-59240952D02*
X209937200Y-59145714D01*
X209937200Y-59145714D02*
X209889580Y-59098095D01*
X209889580Y-59098095D02*
X209794342Y-59050476D01*
X209794342Y-59050476D02*
X209603866Y-59050476D01*
X209603866Y-59050476D02*
X209508628Y-59098095D01*
X209508628Y-59098095D02*
X209461009Y-59145714D01*
X209461009Y-59145714D02*
X209413390Y-59240952D01*
X111854819Y-60621904D02*
X112664342Y-60621904D01*
X112664342Y-60621904D02*
X112759580Y-60574285D01*
X112759580Y-60574285D02*
X112807200Y-60526666D01*
X112807200Y-60526666D02*
X112854819Y-60431428D01*
X112854819Y-60431428D02*
X112854819Y-60240952D01*
X112854819Y-60240952D02*
X112807200Y-60145714D01*
X112807200Y-60145714D02*
X112759580Y-60098095D01*
X112759580Y-60098095D02*
X112664342Y-60050476D01*
X112664342Y-60050476D02*
X111854819Y-60050476D01*
X112188152Y-59145714D02*
X112854819Y-59145714D01*
X111807200Y-59383809D02*
X112521485Y-59621904D01*
X112521485Y-59621904D02*
X112521485Y-59002857D01*
X197374819Y-74692857D02*
X196898628Y-75026190D01*
X197374819Y-75264285D02*
X196374819Y-75264285D01*
X196374819Y-75264285D02*
X196374819Y-74883333D01*
X196374819Y-74883333D02*
X196422438Y-74788095D01*
X196422438Y-74788095D02*
X196470057Y-74740476D01*
X196470057Y-74740476D02*
X196565295Y-74692857D01*
X196565295Y-74692857D02*
X196708152Y-74692857D01*
X196708152Y-74692857D02*
X196803390Y-74740476D01*
X196803390Y-74740476D02*
X196851009Y-74788095D01*
X196851009Y-74788095D02*
X196898628Y-74883333D01*
X196898628Y-74883333D02*
X196898628Y-75264285D01*
X196374819Y-73788095D02*
X196374819Y-74264285D01*
X196374819Y-74264285D02*
X196851009Y-74311904D01*
X196851009Y-74311904D02*
X196803390Y-74264285D01*
X196803390Y-74264285D02*
X196755771Y-74169047D01*
X196755771Y-74169047D02*
X196755771Y-73930952D01*
X196755771Y-73930952D02*
X196803390Y-73835714D01*
X196803390Y-73835714D02*
X196851009Y-73788095D01*
X196851009Y-73788095D02*
X196946247Y-73740476D01*
X196946247Y-73740476D02*
X197184342Y-73740476D01*
X197184342Y-73740476D02*
X197279580Y-73788095D01*
X197279580Y-73788095D02*
X197327200Y-73835714D01*
X197327200Y-73835714D02*
X197374819Y-73930952D01*
X197374819Y-73930952D02*
X197374819Y-74169047D01*
X197374819Y-74169047D02*
X197327200Y-74264285D01*
X197327200Y-74264285D02*
X197279580Y-74311904D01*
X196470057Y-73359523D02*
X196422438Y-73311904D01*
X196422438Y-73311904D02*
X196374819Y-73216666D01*
X196374819Y-73216666D02*
X196374819Y-72978571D01*
X196374819Y-72978571D02*
X196422438Y-72883333D01*
X196422438Y-72883333D02*
X196470057Y-72835714D01*
X196470057Y-72835714D02*
X196565295Y-72788095D01*
X196565295Y-72788095D02*
X196660533Y-72788095D01*
X196660533Y-72788095D02*
X196803390Y-72835714D01*
X196803390Y-72835714D02*
X197374819Y-73407142D01*
X197374819Y-73407142D02*
X197374819Y-72788095D01*
X89249819Y-60776904D02*
X90059342Y-60776904D01*
X90059342Y-60776904D02*
X90154580Y-60729285D01*
X90154580Y-60729285D02*
X90202200Y-60681666D01*
X90202200Y-60681666D02*
X90249819Y-60586428D01*
X90249819Y-60586428D02*
X90249819Y-60395952D01*
X90249819Y-60395952D02*
X90202200Y-60300714D01*
X90202200Y-60300714D02*
X90154580Y-60253095D01*
X90154580Y-60253095D02*
X90059342Y-60205476D01*
X90059342Y-60205476D02*
X89249819Y-60205476D01*
X89249819Y-59824523D02*
X89249819Y-59205476D01*
X89249819Y-59205476D02*
X89630771Y-59538809D01*
X89630771Y-59538809D02*
X89630771Y-59395952D01*
X89630771Y-59395952D02*
X89678390Y-59300714D01*
X89678390Y-59300714D02*
X89726009Y-59253095D01*
X89726009Y-59253095D02*
X89821247Y-59205476D01*
X89821247Y-59205476D02*
X90059342Y-59205476D01*
X90059342Y-59205476D02*
X90154580Y-59253095D01*
X90154580Y-59253095D02*
X90202200Y-59300714D01*
X90202200Y-59300714D02*
X90249819Y-59395952D01*
X90249819Y-59395952D02*
X90249819Y-59681666D01*
X90249819Y-59681666D02*
X90202200Y-59776904D01*
X90202200Y-59776904D02*
X90154580Y-59824523D01*
X89374819Y-74692857D02*
X88898628Y-75026190D01*
X89374819Y-75264285D02*
X88374819Y-75264285D01*
X88374819Y-75264285D02*
X88374819Y-74883333D01*
X88374819Y-74883333D02*
X88422438Y-74788095D01*
X88422438Y-74788095D02*
X88470057Y-74740476D01*
X88470057Y-74740476D02*
X88565295Y-74692857D01*
X88565295Y-74692857D02*
X88708152Y-74692857D01*
X88708152Y-74692857D02*
X88803390Y-74740476D01*
X88803390Y-74740476D02*
X88851009Y-74788095D01*
X88851009Y-74788095D02*
X88898628Y-74883333D01*
X88898628Y-74883333D02*
X88898628Y-75264285D01*
X89374819Y-73740476D02*
X89374819Y-74311904D01*
X89374819Y-74026190D02*
X88374819Y-74026190D01*
X88374819Y-74026190D02*
X88517676Y-74121428D01*
X88517676Y-74121428D02*
X88612914Y-74216666D01*
X88612914Y-74216666D02*
X88660533Y-74311904D01*
X88374819Y-72883333D02*
X88374819Y-73073809D01*
X88374819Y-73073809D02*
X88422438Y-73169047D01*
X88422438Y-73169047D02*
X88470057Y-73216666D01*
X88470057Y-73216666D02*
X88612914Y-73311904D01*
X88612914Y-73311904D02*
X88803390Y-73359523D01*
X88803390Y-73359523D02*
X89184342Y-73359523D01*
X89184342Y-73359523D02*
X89279580Y-73311904D01*
X89279580Y-73311904D02*
X89327200Y-73264285D01*
X89327200Y-73264285D02*
X89374819Y-73169047D01*
X89374819Y-73169047D02*
X89374819Y-72978571D01*
X89374819Y-72978571D02*
X89327200Y-72883333D01*
X89327200Y-72883333D02*
X89279580Y-72835714D01*
X89279580Y-72835714D02*
X89184342Y-72788095D01*
X89184342Y-72788095D02*
X88946247Y-72788095D01*
X88946247Y-72788095D02*
X88851009Y-72835714D01*
X88851009Y-72835714D02*
X88803390Y-72883333D01*
X88803390Y-72883333D02*
X88755771Y-72978571D01*
X88755771Y-72978571D02*
X88755771Y-73169047D01*
X88755771Y-73169047D02*
X88803390Y-73264285D01*
X88803390Y-73264285D02*
X88851009Y-73311904D01*
X88851009Y-73311904D02*
X88946247Y-73359523D01*
X219226190Y-88854819D02*
X218892857Y-88378628D01*
X218654762Y-88854819D02*
X218654762Y-87854819D01*
X218654762Y-87854819D02*
X219035714Y-87854819D01*
X219035714Y-87854819D02*
X219130952Y-87902438D01*
X219130952Y-87902438D02*
X219178571Y-87950057D01*
X219178571Y-87950057D02*
X219226190Y-88045295D01*
X219226190Y-88045295D02*
X219226190Y-88188152D01*
X219226190Y-88188152D02*
X219178571Y-88283390D01*
X219178571Y-88283390D02*
X219130952Y-88331009D01*
X219130952Y-88331009D02*
X219035714Y-88378628D01*
X219035714Y-88378628D02*
X218654762Y-88378628D01*
X219797619Y-88854819D02*
X219702381Y-88807200D01*
X219702381Y-88807200D02*
X219654762Y-88759580D01*
X219654762Y-88759580D02*
X219607143Y-88664342D01*
X219607143Y-88664342D02*
X219607143Y-88378628D01*
X219607143Y-88378628D02*
X219654762Y-88283390D01*
X219654762Y-88283390D02*
X219702381Y-88235771D01*
X219702381Y-88235771D02*
X219797619Y-88188152D01*
X219797619Y-88188152D02*
X219940476Y-88188152D01*
X219940476Y-88188152D02*
X220035714Y-88235771D01*
X220035714Y-88235771D02*
X220083333Y-88283390D01*
X220083333Y-88283390D02*
X220130952Y-88378628D01*
X220130952Y-88378628D02*
X220130952Y-88664342D01*
X220130952Y-88664342D02*
X220083333Y-88759580D01*
X220083333Y-88759580D02*
X220035714Y-88807200D01*
X220035714Y-88807200D02*
X219940476Y-88854819D01*
X219940476Y-88854819D02*
X219797619Y-88854819D01*
X220464286Y-88188152D02*
X220654762Y-88854819D01*
X220654762Y-88854819D02*
X220845238Y-88378628D01*
X220845238Y-88378628D02*
X221035714Y-88854819D01*
X221035714Y-88854819D02*
X221226190Y-88188152D01*
X221369048Y-88950057D02*
X222130952Y-88950057D01*
X222511905Y-88283390D02*
X222416667Y-88235771D01*
X222416667Y-88235771D02*
X222369048Y-88188152D01*
X222369048Y-88188152D02*
X222321429Y-88092914D01*
X222321429Y-88092914D02*
X222321429Y-88045295D01*
X222321429Y-88045295D02*
X222369048Y-87950057D01*
X222369048Y-87950057D02*
X222416667Y-87902438D01*
X222416667Y-87902438D02*
X222511905Y-87854819D01*
X222511905Y-87854819D02*
X222702381Y-87854819D01*
X222702381Y-87854819D02*
X222797619Y-87902438D01*
X222797619Y-87902438D02*
X222845238Y-87950057D01*
X222845238Y-87950057D02*
X222892857Y-88045295D01*
X222892857Y-88045295D02*
X222892857Y-88092914D01*
X222892857Y-88092914D02*
X222845238Y-88188152D01*
X222845238Y-88188152D02*
X222797619Y-88235771D01*
X222797619Y-88235771D02*
X222702381Y-88283390D01*
X222702381Y-88283390D02*
X222511905Y-88283390D01*
X222511905Y-88283390D02*
X222416667Y-88331009D01*
X222416667Y-88331009D02*
X222369048Y-88378628D01*
X222369048Y-88378628D02*
X222321429Y-88473866D01*
X222321429Y-88473866D02*
X222321429Y-88664342D01*
X222321429Y-88664342D02*
X222369048Y-88759580D01*
X222369048Y-88759580D02*
X222416667Y-88807200D01*
X222416667Y-88807200D02*
X222511905Y-88854819D01*
X222511905Y-88854819D02*
X222702381Y-88854819D01*
X222702381Y-88854819D02*
X222797619Y-88807200D01*
X222797619Y-88807200D02*
X222845238Y-88759580D01*
X222845238Y-88759580D02*
X222892857Y-88664342D01*
X222892857Y-88664342D02*
X222892857Y-88473866D01*
X222892857Y-88473866D02*
X222845238Y-88378628D01*
X222845238Y-88378628D02*
X222797619Y-88331009D01*
X222797619Y-88331009D02*
X222702381Y-88283390D01*
X122274819Y-74732857D02*
X121798628Y-75066190D01*
X122274819Y-75304285D02*
X121274819Y-75304285D01*
X121274819Y-75304285D02*
X121274819Y-74923333D01*
X121274819Y-74923333D02*
X121322438Y-74828095D01*
X121322438Y-74828095D02*
X121370057Y-74780476D01*
X121370057Y-74780476D02*
X121465295Y-74732857D01*
X121465295Y-74732857D02*
X121608152Y-74732857D01*
X121608152Y-74732857D02*
X121703390Y-74780476D01*
X121703390Y-74780476D02*
X121751009Y-74828095D01*
X121751009Y-74828095D02*
X121798628Y-74923333D01*
X121798628Y-74923333D02*
X121798628Y-75304285D01*
X121370057Y-74351904D02*
X121322438Y-74304285D01*
X121322438Y-74304285D02*
X121274819Y-74209047D01*
X121274819Y-74209047D02*
X121274819Y-73970952D01*
X121274819Y-73970952D02*
X121322438Y-73875714D01*
X121322438Y-73875714D02*
X121370057Y-73828095D01*
X121370057Y-73828095D02*
X121465295Y-73780476D01*
X121465295Y-73780476D02*
X121560533Y-73780476D01*
X121560533Y-73780476D02*
X121703390Y-73828095D01*
X121703390Y-73828095D02*
X122274819Y-74399523D01*
X122274819Y-74399523D02*
X122274819Y-73780476D01*
X121274819Y-73447142D02*
X121274819Y-72780476D01*
X121274819Y-72780476D02*
X122274819Y-73209047D01*
X65374819Y-74126666D02*
X64898628Y-74459999D01*
X65374819Y-74698094D02*
X64374819Y-74698094D01*
X64374819Y-74698094D02*
X64374819Y-74317142D01*
X64374819Y-74317142D02*
X64422438Y-74221904D01*
X64422438Y-74221904D02*
X64470057Y-74174285D01*
X64470057Y-74174285D02*
X64565295Y-74126666D01*
X64565295Y-74126666D02*
X64708152Y-74126666D01*
X64708152Y-74126666D02*
X64803390Y-74174285D01*
X64803390Y-74174285D02*
X64851009Y-74221904D01*
X64851009Y-74221904D02*
X64898628Y-74317142D01*
X64898628Y-74317142D02*
X64898628Y-74698094D01*
X64803390Y-73555237D02*
X64755771Y-73650475D01*
X64755771Y-73650475D02*
X64708152Y-73698094D01*
X64708152Y-73698094D02*
X64612914Y-73745713D01*
X64612914Y-73745713D02*
X64565295Y-73745713D01*
X64565295Y-73745713D02*
X64470057Y-73698094D01*
X64470057Y-73698094D02*
X64422438Y-73650475D01*
X64422438Y-73650475D02*
X64374819Y-73555237D01*
X64374819Y-73555237D02*
X64374819Y-73364761D01*
X64374819Y-73364761D02*
X64422438Y-73269523D01*
X64422438Y-73269523D02*
X64470057Y-73221904D01*
X64470057Y-73221904D02*
X64565295Y-73174285D01*
X64565295Y-73174285D02*
X64612914Y-73174285D01*
X64612914Y-73174285D02*
X64708152Y-73221904D01*
X64708152Y-73221904D02*
X64755771Y-73269523D01*
X64755771Y-73269523D02*
X64803390Y-73364761D01*
X64803390Y-73364761D02*
X64803390Y-73555237D01*
X64803390Y-73555237D02*
X64851009Y-73650475D01*
X64851009Y-73650475D02*
X64898628Y-73698094D01*
X64898628Y-73698094D02*
X64993866Y-73745713D01*
X64993866Y-73745713D02*
X65184342Y-73745713D01*
X65184342Y-73745713D02*
X65279580Y-73698094D01*
X65279580Y-73698094D02*
X65327200Y-73650475D01*
X65327200Y-73650475D02*
X65374819Y-73555237D01*
X65374819Y-73555237D02*
X65374819Y-73364761D01*
X65374819Y-73364761D02*
X65327200Y-73269523D01*
X65327200Y-73269523D02*
X65279580Y-73221904D01*
X65279580Y-73221904D02*
X65184342Y-73174285D01*
X65184342Y-73174285D02*
X64993866Y-73174285D01*
X64993866Y-73174285D02*
X64898628Y-73221904D01*
X64898628Y-73221904D02*
X64851009Y-73269523D01*
X64851009Y-73269523D02*
X64803390Y-73364761D01*
X74226190Y-88854819D02*
X73892857Y-88378628D01*
X73654762Y-88854819D02*
X73654762Y-87854819D01*
X73654762Y-87854819D02*
X74035714Y-87854819D01*
X74035714Y-87854819D02*
X74130952Y-87902438D01*
X74130952Y-87902438D02*
X74178571Y-87950057D01*
X74178571Y-87950057D02*
X74226190Y-88045295D01*
X74226190Y-88045295D02*
X74226190Y-88188152D01*
X74226190Y-88188152D02*
X74178571Y-88283390D01*
X74178571Y-88283390D02*
X74130952Y-88331009D01*
X74130952Y-88331009D02*
X74035714Y-88378628D01*
X74035714Y-88378628D02*
X73654762Y-88378628D01*
X74797619Y-88854819D02*
X74702381Y-88807200D01*
X74702381Y-88807200D02*
X74654762Y-88759580D01*
X74654762Y-88759580D02*
X74607143Y-88664342D01*
X74607143Y-88664342D02*
X74607143Y-88378628D01*
X74607143Y-88378628D02*
X74654762Y-88283390D01*
X74654762Y-88283390D02*
X74702381Y-88235771D01*
X74702381Y-88235771D02*
X74797619Y-88188152D01*
X74797619Y-88188152D02*
X74940476Y-88188152D01*
X74940476Y-88188152D02*
X75035714Y-88235771D01*
X75035714Y-88235771D02*
X75083333Y-88283390D01*
X75083333Y-88283390D02*
X75130952Y-88378628D01*
X75130952Y-88378628D02*
X75130952Y-88664342D01*
X75130952Y-88664342D02*
X75083333Y-88759580D01*
X75083333Y-88759580D02*
X75035714Y-88807200D01*
X75035714Y-88807200D02*
X74940476Y-88854819D01*
X74940476Y-88854819D02*
X74797619Y-88854819D01*
X75464286Y-88188152D02*
X75654762Y-88854819D01*
X75654762Y-88854819D02*
X75845238Y-88378628D01*
X75845238Y-88378628D02*
X76035714Y-88854819D01*
X76035714Y-88854819D02*
X76226190Y-88188152D01*
X76369048Y-88950057D02*
X77130952Y-88950057D01*
X77321429Y-87950057D02*
X77369048Y-87902438D01*
X77369048Y-87902438D02*
X77464286Y-87854819D01*
X77464286Y-87854819D02*
X77702381Y-87854819D01*
X77702381Y-87854819D02*
X77797619Y-87902438D01*
X77797619Y-87902438D02*
X77845238Y-87950057D01*
X77845238Y-87950057D02*
X77892857Y-88045295D01*
X77892857Y-88045295D02*
X77892857Y-88140533D01*
X77892857Y-88140533D02*
X77845238Y-88283390D01*
X77845238Y-88283390D02*
X77273810Y-88854819D01*
X77273810Y-88854819D02*
X77892857Y-88854819D01*
X167374819Y-74692857D02*
X166898628Y-75026190D01*
X167374819Y-75264285D02*
X166374819Y-75264285D01*
X166374819Y-75264285D02*
X166374819Y-74883333D01*
X166374819Y-74883333D02*
X166422438Y-74788095D01*
X166422438Y-74788095D02*
X166470057Y-74740476D01*
X166470057Y-74740476D02*
X166565295Y-74692857D01*
X166565295Y-74692857D02*
X166708152Y-74692857D01*
X166708152Y-74692857D02*
X166803390Y-74740476D01*
X166803390Y-74740476D02*
X166851009Y-74788095D01*
X166851009Y-74788095D02*
X166898628Y-74883333D01*
X166898628Y-74883333D02*
X166898628Y-75264285D01*
X166708152Y-73835714D02*
X167374819Y-73835714D01*
X166327200Y-74073809D02*
X167041485Y-74311904D01*
X167041485Y-74311904D02*
X167041485Y-73692857D01*
X166470057Y-73359523D02*
X166422438Y-73311904D01*
X166422438Y-73311904D02*
X166374819Y-73216666D01*
X166374819Y-73216666D02*
X166374819Y-72978571D01*
X166374819Y-72978571D02*
X166422438Y-72883333D01*
X166422438Y-72883333D02*
X166470057Y-72835714D01*
X166470057Y-72835714D02*
X166565295Y-72788095D01*
X166565295Y-72788095D02*
X166660533Y-72788095D01*
X166660533Y-72788095D02*
X166803390Y-72835714D01*
X166803390Y-72835714D02*
X167374819Y-73407142D01*
X167374819Y-73407142D02*
X167374819Y-72788095D01*
X182374819Y-74692857D02*
X181898628Y-75026190D01*
X182374819Y-75264285D02*
X181374819Y-75264285D01*
X181374819Y-75264285D02*
X181374819Y-74883333D01*
X181374819Y-74883333D02*
X181422438Y-74788095D01*
X181422438Y-74788095D02*
X181470057Y-74740476D01*
X181470057Y-74740476D02*
X181565295Y-74692857D01*
X181565295Y-74692857D02*
X181708152Y-74692857D01*
X181708152Y-74692857D02*
X181803390Y-74740476D01*
X181803390Y-74740476D02*
X181851009Y-74788095D01*
X181851009Y-74788095D02*
X181898628Y-74883333D01*
X181898628Y-74883333D02*
X181898628Y-75264285D01*
X181708152Y-73835714D02*
X182374819Y-73835714D01*
X181327200Y-74073809D02*
X182041485Y-74311904D01*
X182041485Y-74311904D02*
X182041485Y-73692857D01*
X181374819Y-73407142D02*
X181374819Y-72740476D01*
X181374819Y-72740476D02*
X182374819Y-73169047D01*
X155374819Y-74692857D02*
X154898628Y-75026190D01*
X155374819Y-75264285D02*
X154374819Y-75264285D01*
X154374819Y-75264285D02*
X154374819Y-74883333D01*
X154374819Y-74883333D02*
X154422438Y-74788095D01*
X154422438Y-74788095D02*
X154470057Y-74740476D01*
X154470057Y-74740476D02*
X154565295Y-74692857D01*
X154565295Y-74692857D02*
X154708152Y-74692857D01*
X154708152Y-74692857D02*
X154803390Y-74740476D01*
X154803390Y-74740476D02*
X154851009Y-74788095D01*
X154851009Y-74788095D02*
X154898628Y-74883333D01*
X154898628Y-74883333D02*
X154898628Y-75264285D01*
X154374819Y-74359523D02*
X154374819Y-73740476D01*
X154374819Y-73740476D02*
X154755771Y-74073809D01*
X154755771Y-74073809D02*
X154755771Y-73930952D01*
X154755771Y-73930952D02*
X154803390Y-73835714D01*
X154803390Y-73835714D02*
X154851009Y-73788095D01*
X154851009Y-73788095D02*
X154946247Y-73740476D01*
X154946247Y-73740476D02*
X155184342Y-73740476D01*
X155184342Y-73740476D02*
X155279580Y-73788095D01*
X155279580Y-73788095D02*
X155327200Y-73835714D01*
X155327200Y-73835714D02*
X155374819Y-73930952D01*
X155374819Y-73930952D02*
X155374819Y-74216666D01*
X155374819Y-74216666D02*
X155327200Y-74311904D01*
X155327200Y-74311904D02*
X155279580Y-74359523D01*
X154803390Y-73169047D02*
X154755771Y-73264285D01*
X154755771Y-73264285D02*
X154708152Y-73311904D01*
X154708152Y-73311904D02*
X154612914Y-73359523D01*
X154612914Y-73359523D02*
X154565295Y-73359523D01*
X154565295Y-73359523D02*
X154470057Y-73311904D01*
X154470057Y-73311904D02*
X154422438Y-73264285D01*
X154422438Y-73264285D02*
X154374819Y-73169047D01*
X154374819Y-73169047D02*
X154374819Y-72978571D01*
X154374819Y-72978571D02*
X154422438Y-72883333D01*
X154422438Y-72883333D02*
X154470057Y-72835714D01*
X154470057Y-72835714D02*
X154565295Y-72788095D01*
X154565295Y-72788095D02*
X154612914Y-72788095D01*
X154612914Y-72788095D02*
X154708152Y-72835714D01*
X154708152Y-72835714D02*
X154755771Y-72883333D01*
X154755771Y-72883333D02*
X154803390Y-72978571D01*
X154803390Y-72978571D02*
X154803390Y-73169047D01*
X154803390Y-73169047D02*
X154851009Y-73264285D01*
X154851009Y-73264285D02*
X154898628Y-73311904D01*
X154898628Y-73311904D02*
X154993866Y-73359523D01*
X154993866Y-73359523D02*
X155184342Y-73359523D01*
X155184342Y-73359523D02*
X155279580Y-73311904D01*
X155279580Y-73311904D02*
X155327200Y-73264285D01*
X155327200Y-73264285D02*
X155374819Y-73169047D01*
X155374819Y-73169047D02*
X155374819Y-72978571D01*
X155374819Y-72978571D02*
X155327200Y-72883333D01*
X155327200Y-72883333D02*
X155279580Y-72835714D01*
X155279580Y-72835714D02*
X155184342Y-72788095D01*
X155184342Y-72788095D02*
X154993866Y-72788095D01*
X154993866Y-72788095D02*
X154898628Y-72835714D01*
X154898628Y-72835714D02*
X154851009Y-72883333D01*
X154851009Y-72883333D02*
X154803390Y-72978571D01*
X56374819Y-74126666D02*
X55898628Y-74459999D01*
X56374819Y-74698094D02*
X55374819Y-74698094D01*
X55374819Y-74698094D02*
X55374819Y-74317142D01*
X55374819Y-74317142D02*
X55422438Y-74221904D01*
X55422438Y-74221904D02*
X55470057Y-74174285D01*
X55470057Y-74174285D02*
X55565295Y-74126666D01*
X55565295Y-74126666D02*
X55708152Y-74126666D01*
X55708152Y-74126666D02*
X55803390Y-74174285D01*
X55803390Y-74174285D02*
X55851009Y-74221904D01*
X55851009Y-74221904D02*
X55898628Y-74317142D01*
X55898628Y-74317142D02*
X55898628Y-74698094D01*
X55374819Y-73221904D02*
X55374819Y-73698094D01*
X55374819Y-73698094D02*
X55851009Y-73745713D01*
X55851009Y-73745713D02*
X55803390Y-73698094D01*
X55803390Y-73698094D02*
X55755771Y-73602856D01*
X55755771Y-73602856D02*
X55755771Y-73364761D01*
X55755771Y-73364761D02*
X55803390Y-73269523D01*
X55803390Y-73269523D02*
X55851009Y-73221904D01*
X55851009Y-73221904D02*
X55946247Y-73174285D01*
X55946247Y-73174285D02*
X56184342Y-73174285D01*
X56184342Y-73174285D02*
X56279580Y-73221904D01*
X56279580Y-73221904D02*
X56327200Y-73269523D01*
X56327200Y-73269523D02*
X56374819Y-73364761D01*
X56374819Y-73364761D02*
X56374819Y-73602856D01*
X56374819Y-73602856D02*
X56327200Y-73698094D01*
X56327200Y-73698094D02*
X56279580Y-73745713D01*
X200374819Y-74692857D02*
X199898628Y-75026190D01*
X200374819Y-75264285D02*
X199374819Y-75264285D01*
X199374819Y-75264285D02*
X199374819Y-74883333D01*
X199374819Y-74883333D02*
X199422438Y-74788095D01*
X199422438Y-74788095D02*
X199470057Y-74740476D01*
X199470057Y-74740476D02*
X199565295Y-74692857D01*
X199565295Y-74692857D02*
X199708152Y-74692857D01*
X199708152Y-74692857D02*
X199803390Y-74740476D01*
X199803390Y-74740476D02*
X199851009Y-74788095D01*
X199851009Y-74788095D02*
X199898628Y-74883333D01*
X199898628Y-74883333D02*
X199898628Y-75264285D01*
X199374819Y-73788095D02*
X199374819Y-74264285D01*
X199374819Y-74264285D02*
X199851009Y-74311904D01*
X199851009Y-74311904D02*
X199803390Y-74264285D01*
X199803390Y-74264285D02*
X199755771Y-74169047D01*
X199755771Y-74169047D02*
X199755771Y-73930952D01*
X199755771Y-73930952D02*
X199803390Y-73835714D01*
X199803390Y-73835714D02*
X199851009Y-73788095D01*
X199851009Y-73788095D02*
X199946247Y-73740476D01*
X199946247Y-73740476D02*
X200184342Y-73740476D01*
X200184342Y-73740476D02*
X200279580Y-73788095D01*
X200279580Y-73788095D02*
X200327200Y-73835714D01*
X200327200Y-73835714D02*
X200374819Y-73930952D01*
X200374819Y-73930952D02*
X200374819Y-74169047D01*
X200374819Y-74169047D02*
X200327200Y-74264285D01*
X200327200Y-74264285D02*
X200279580Y-74311904D01*
X199374819Y-73407142D02*
X199374819Y-72788095D01*
X199374819Y-72788095D02*
X199755771Y-73121428D01*
X199755771Y-73121428D02*
X199755771Y-72978571D01*
X199755771Y-72978571D02*
X199803390Y-72883333D01*
X199803390Y-72883333D02*
X199851009Y-72835714D01*
X199851009Y-72835714D02*
X199946247Y-72788095D01*
X199946247Y-72788095D02*
X200184342Y-72788095D01*
X200184342Y-72788095D02*
X200279580Y-72835714D01*
X200279580Y-72835714D02*
X200327200Y-72883333D01*
X200327200Y-72883333D02*
X200374819Y-72978571D01*
X200374819Y-72978571D02*
X200374819Y-73264285D01*
X200374819Y-73264285D02*
X200327200Y-73359523D01*
X200327200Y-73359523D02*
X200279580Y-73407142D01*
X135574819Y-60371904D02*
X136384342Y-60371904D01*
X136384342Y-60371904D02*
X136479580Y-60324285D01*
X136479580Y-60324285D02*
X136527200Y-60276666D01*
X136527200Y-60276666D02*
X136574819Y-60181428D01*
X136574819Y-60181428D02*
X136574819Y-59990952D01*
X136574819Y-59990952D02*
X136527200Y-59895714D01*
X136527200Y-59895714D02*
X136479580Y-59848095D01*
X136479580Y-59848095D02*
X136384342Y-59800476D01*
X136384342Y-59800476D02*
X135574819Y-59800476D01*
X135574819Y-58848095D02*
X135574819Y-59324285D01*
X135574819Y-59324285D02*
X136051009Y-59371904D01*
X136051009Y-59371904D02*
X136003390Y-59324285D01*
X136003390Y-59324285D02*
X135955771Y-59229047D01*
X135955771Y-59229047D02*
X135955771Y-58990952D01*
X135955771Y-58990952D02*
X136003390Y-58895714D01*
X136003390Y-58895714D02*
X136051009Y-58848095D01*
X136051009Y-58848095D02*
X136146247Y-58800476D01*
X136146247Y-58800476D02*
X136384342Y-58800476D01*
X136384342Y-58800476D02*
X136479580Y-58848095D01*
X136479580Y-58848095D02*
X136527200Y-58895714D01*
X136527200Y-58895714D02*
X136574819Y-58990952D01*
X136574819Y-58990952D02*
X136574819Y-59229047D01*
X136574819Y-59229047D02*
X136527200Y-59324285D01*
X136527200Y-59324285D02*
X136479580Y-59371904D01*
X152374819Y-74692857D02*
X151898628Y-75026190D01*
X152374819Y-75264285D02*
X151374819Y-75264285D01*
X151374819Y-75264285D02*
X151374819Y-74883333D01*
X151374819Y-74883333D02*
X151422438Y-74788095D01*
X151422438Y-74788095D02*
X151470057Y-74740476D01*
X151470057Y-74740476D02*
X151565295Y-74692857D01*
X151565295Y-74692857D02*
X151708152Y-74692857D01*
X151708152Y-74692857D02*
X151803390Y-74740476D01*
X151803390Y-74740476D02*
X151851009Y-74788095D01*
X151851009Y-74788095D02*
X151898628Y-74883333D01*
X151898628Y-74883333D02*
X151898628Y-75264285D01*
X151374819Y-74359523D02*
X151374819Y-73740476D01*
X151374819Y-73740476D02*
X151755771Y-74073809D01*
X151755771Y-74073809D02*
X151755771Y-73930952D01*
X151755771Y-73930952D02*
X151803390Y-73835714D01*
X151803390Y-73835714D02*
X151851009Y-73788095D01*
X151851009Y-73788095D02*
X151946247Y-73740476D01*
X151946247Y-73740476D02*
X152184342Y-73740476D01*
X152184342Y-73740476D02*
X152279580Y-73788095D01*
X152279580Y-73788095D02*
X152327200Y-73835714D01*
X152327200Y-73835714D02*
X152374819Y-73930952D01*
X152374819Y-73930952D02*
X152374819Y-74216666D01*
X152374819Y-74216666D02*
X152327200Y-74311904D01*
X152327200Y-74311904D02*
X152279580Y-74359523D01*
X151374819Y-73407142D02*
X151374819Y-72740476D01*
X151374819Y-72740476D02*
X152374819Y-73169047D01*
X227374819Y-74692857D02*
X226898628Y-75026190D01*
X227374819Y-75264285D02*
X226374819Y-75264285D01*
X226374819Y-75264285D02*
X226374819Y-74883333D01*
X226374819Y-74883333D02*
X226422438Y-74788095D01*
X226422438Y-74788095D02*
X226470057Y-74740476D01*
X226470057Y-74740476D02*
X226565295Y-74692857D01*
X226565295Y-74692857D02*
X226708152Y-74692857D01*
X226708152Y-74692857D02*
X226803390Y-74740476D01*
X226803390Y-74740476D02*
X226851009Y-74788095D01*
X226851009Y-74788095D02*
X226898628Y-74883333D01*
X226898628Y-74883333D02*
X226898628Y-75264285D01*
X226374819Y-73835714D02*
X226374819Y-74026190D01*
X226374819Y-74026190D02*
X226422438Y-74121428D01*
X226422438Y-74121428D02*
X226470057Y-74169047D01*
X226470057Y-74169047D02*
X226612914Y-74264285D01*
X226612914Y-74264285D02*
X226803390Y-74311904D01*
X226803390Y-74311904D02*
X227184342Y-74311904D01*
X227184342Y-74311904D02*
X227279580Y-74264285D01*
X227279580Y-74264285D02*
X227327200Y-74216666D01*
X227327200Y-74216666D02*
X227374819Y-74121428D01*
X227374819Y-74121428D02*
X227374819Y-73930952D01*
X227374819Y-73930952D02*
X227327200Y-73835714D01*
X227327200Y-73835714D02*
X227279580Y-73788095D01*
X227279580Y-73788095D02*
X227184342Y-73740476D01*
X227184342Y-73740476D02*
X226946247Y-73740476D01*
X226946247Y-73740476D02*
X226851009Y-73788095D01*
X226851009Y-73788095D02*
X226803390Y-73835714D01*
X226803390Y-73835714D02*
X226755771Y-73930952D01*
X226755771Y-73930952D02*
X226755771Y-74121428D01*
X226755771Y-74121428D02*
X226803390Y-74216666D01*
X226803390Y-74216666D02*
X226851009Y-74264285D01*
X226851009Y-74264285D02*
X226946247Y-74311904D01*
X226470057Y-73359523D02*
X226422438Y-73311904D01*
X226422438Y-73311904D02*
X226374819Y-73216666D01*
X226374819Y-73216666D02*
X226374819Y-72978571D01*
X226374819Y-72978571D02*
X226422438Y-72883333D01*
X226422438Y-72883333D02*
X226470057Y-72835714D01*
X226470057Y-72835714D02*
X226565295Y-72788095D01*
X226565295Y-72788095D02*
X226660533Y-72788095D01*
X226660533Y-72788095D02*
X226803390Y-72835714D01*
X226803390Y-72835714D02*
X227374819Y-73407142D01*
X227374819Y-73407142D02*
X227374819Y-72788095D01*
X233374819Y-74692857D02*
X232898628Y-75026190D01*
X233374819Y-75264285D02*
X232374819Y-75264285D01*
X232374819Y-75264285D02*
X232374819Y-74883333D01*
X232374819Y-74883333D02*
X232422438Y-74788095D01*
X232422438Y-74788095D02*
X232470057Y-74740476D01*
X232470057Y-74740476D02*
X232565295Y-74692857D01*
X232565295Y-74692857D02*
X232708152Y-74692857D01*
X232708152Y-74692857D02*
X232803390Y-74740476D01*
X232803390Y-74740476D02*
X232851009Y-74788095D01*
X232851009Y-74788095D02*
X232898628Y-74883333D01*
X232898628Y-74883333D02*
X232898628Y-75264285D01*
X232374819Y-73835714D02*
X232374819Y-74026190D01*
X232374819Y-74026190D02*
X232422438Y-74121428D01*
X232422438Y-74121428D02*
X232470057Y-74169047D01*
X232470057Y-74169047D02*
X232612914Y-74264285D01*
X232612914Y-74264285D02*
X232803390Y-74311904D01*
X232803390Y-74311904D02*
X233184342Y-74311904D01*
X233184342Y-74311904D02*
X233279580Y-74264285D01*
X233279580Y-74264285D02*
X233327200Y-74216666D01*
X233327200Y-74216666D02*
X233374819Y-74121428D01*
X233374819Y-74121428D02*
X233374819Y-73930952D01*
X233374819Y-73930952D02*
X233327200Y-73835714D01*
X233327200Y-73835714D02*
X233279580Y-73788095D01*
X233279580Y-73788095D02*
X233184342Y-73740476D01*
X233184342Y-73740476D02*
X232946247Y-73740476D01*
X232946247Y-73740476D02*
X232851009Y-73788095D01*
X232851009Y-73788095D02*
X232803390Y-73835714D01*
X232803390Y-73835714D02*
X232755771Y-73930952D01*
X232755771Y-73930952D02*
X232755771Y-74121428D01*
X232755771Y-74121428D02*
X232803390Y-74216666D01*
X232803390Y-74216666D02*
X232851009Y-74264285D01*
X232851009Y-74264285D02*
X232946247Y-74311904D01*
X232708152Y-72883333D02*
X233374819Y-72883333D01*
X232327200Y-73121428D02*
X233041485Y-73359523D01*
X233041485Y-73359523D02*
X233041485Y-72740476D01*
X44374819Y-74126666D02*
X43898628Y-74459999D01*
X44374819Y-74698094D02*
X43374819Y-74698094D01*
X43374819Y-74698094D02*
X43374819Y-74317142D01*
X43374819Y-74317142D02*
X43422438Y-74221904D01*
X43422438Y-74221904D02*
X43470057Y-74174285D01*
X43470057Y-74174285D02*
X43565295Y-74126666D01*
X43565295Y-74126666D02*
X43708152Y-74126666D01*
X43708152Y-74126666D02*
X43803390Y-74174285D01*
X43803390Y-74174285D02*
X43851009Y-74221904D01*
X43851009Y-74221904D02*
X43898628Y-74317142D01*
X43898628Y-74317142D02*
X43898628Y-74698094D01*
X44374819Y-73174285D02*
X44374819Y-73745713D01*
X44374819Y-73459999D02*
X43374819Y-73459999D01*
X43374819Y-73459999D02*
X43517676Y-73555237D01*
X43517676Y-73555237D02*
X43612914Y-73650475D01*
X43612914Y-73650475D02*
X43660533Y-73745713D01*
X206374819Y-74692857D02*
X205898628Y-75026190D01*
X206374819Y-75264285D02*
X205374819Y-75264285D01*
X205374819Y-75264285D02*
X205374819Y-74883333D01*
X205374819Y-74883333D02*
X205422438Y-74788095D01*
X205422438Y-74788095D02*
X205470057Y-74740476D01*
X205470057Y-74740476D02*
X205565295Y-74692857D01*
X205565295Y-74692857D02*
X205708152Y-74692857D01*
X205708152Y-74692857D02*
X205803390Y-74740476D01*
X205803390Y-74740476D02*
X205851009Y-74788095D01*
X205851009Y-74788095D02*
X205898628Y-74883333D01*
X205898628Y-74883333D02*
X205898628Y-75264285D01*
X205374819Y-73788095D02*
X205374819Y-74264285D01*
X205374819Y-74264285D02*
X205851009Y-74311904D01*
X205851009Y-74311904D02*
X205803390Y-74264285D01*
X205803390Y-74264285D02*
X205755771Y-74169047D01*
X205755771Y-74169047D02*
X205755771Y-73930952D01*
X205755771Y-73930952D02*
X205803390Y-73835714D01*
X205803390Y-73835714D02*
X205851009Y-73788095D01*
X205851009Y-73788095D02*
X205946247Y-73740476D01*
X205946247Y-73740476D02*
X206184342Y-73740476D01*
X206184342Y-73740476D02*
X206279580Y-73788095D01*
X206279580Y-73788095D02*
X206327200Y-73835714D01*
X206327200Y-73835714D02*
X206374819Y-73930952D01*
X206374819Y-73930952D02*
X206374819Y-74169047D01*
X206374819Y-74169047D02*
X206327200Y-74264285D01*
X206327200Y-74264285D02*
X206279580Y-74311904D01*
X205374819Y-72835714D02*
X205374819Y-73311904D01*
X205374819Y-73311904D02*
X205851009Y-73359523D01*
X205851009Y-73359523D02*
X205803390Y-73311904D01*
X205803390Y-73311904D02*
X205755771Y-73216666D01*
X205755771Y-73216666D02*
X205755771Y-72978571D01*
X205755771Y-72978571D02*
X205803390Y-72883333D01*
X205803390Y-72883333D02*
X205851009Y-72835714D01*
X205851009Y-72835714D02*
X205946247Y-72788095D01*
X205946247Y-72788095D02*
X206184342Y-72788095D01*
X206184342Y-72788095D02*
X206279580Y-72835714D01*
X206279580Y-72835714D02*
X206327200Y-72883333D01*
X206327200Y-72883333D02*
X206374819Y-72978571D01*
X206374819Y-72978571D02*
X206374819Y-73216666D01*
X206374819Y-73216666D02*
X206327200Y-73311904D01*
X206327200Y-73311904D02*
X206279580Y-73359523D01*
X179374819Y-74692857D02*
X178898628Y-75026190D01*
X179374819Y-75264285D02*
X178374819Y-75264285D01*
X178374819Y-75264285D02*
X178374819Y-74883333D01*
X178374819Y-74883333D02*
X178422438Y-74788095D01*
X178422438Y-74788095D02*
X178470057Y-74740476D01*
X178470057Y-74740476D02*
X178565295Y-74692857D01*
X178565295Y-74692857D02*
X178708152Y-74692857D01*
X178708152Y-74692857D02*
X178803390Y-74740476D01*
X178803390Y-74740476D02*
X178851009Y-74788095D01*
X178851009Y-74788095D02*
X178898628Y-74883333D01*
X178898628Y-74883333D02*
X178898628Y-75264285D01*
X178708152Y-73835714D02*
X179374819Y-73835714D01*
X178327200Y-74073809D02*
X179041485Y-74311904D01*
X179041485Y-74311904D02*
X179041485Y-73692857D01*
X178374819Y-72883333D02*
X178374819Y-73073809D01*
X178374819Y-73073809D02*
X178422438Y-73169047D01*
X178422438Y-73169047D02*
X178470057Y-73216666D01*
X178470057Y-73216666D02*
X178612914Y-73311904D01*
X178612914Y-73311904D02*
X178803390Y-73359523D01*
X178803390Y-73359523D02*
X179184342Y-73359523D01*
X179184342Y-73359523D02*
X179279580Y-73311904D01*
X179279580Y-73311904D02*
X179327200Y-73264285D01*
X179327200Y-73264285D02*
X179374819Y-73169047D01*
X179374819Y-73169047D02*
X179374819Y-72978571D01*
X179374819Y-72978571D02*
X179327200Y-72883333D01*
X179327200Y-72883333D02*
X179279580Y-72835714D01*
X179279580Y-72835714D02*
X179184342Y-72788095D01*
X179184342Y-72788095D02*
X178946247Y-72788095D01*
X178946247Y-72788095D02*
X178851009Y-72835714D01*
X178851009Y-72835714D02*
X178803390Y-72883333D01*
X178803390Y-72883333D02*
X178755771Y-72978571D01*
X178755771Y-72978571D02*
X178755771Y-73169047D01*
X178755771Y-73169047D02*
X178803390Y-73264285D01*
X178803390Y-73264285D02*
X178851009Y-73311904D01*
X178851009Y-73311904D02*
X178946247Y-73359523D01*
X76071428Y-37788152D02*
X76071428Y-38788152D01*
X76071428Y-37835771D02*
X76166666Y-37788152D01*
X76166666Y-37788152D02*
X76357142Y-37788152D01*
X76357142Y-37788152D02*
X76452380Y-37835771D01*
X76452380Y-37835771D02*
X76499999Y-37883390D01*
X76499999Y-37883390D02*
X76547618Y-37978628D01*
X76547618Y-37978628D02*
X76547618Y-38264342D01*
X76547618Y-38264342D02*
X76499999Y-38359580D01*
X76499999Y-38359580D02*
X76452380Y-38407200D01*
X76452380Y-38407200D02*
X76357142Y-38454819D01*
X76357142Y-38454819D02*
X76166666Y-38454819D01*
X76166666Y-38454819D02*
X76071428Y-38407200D01*
X77119047Y-38454819D02*
X77023809Y-38407200D01*
X77023809Y-38407200D02*
X76976190Y-38359580D01*
X76976190Y-38359580D02*
X76928571Y-38264342D01*
X76928571Y-38264342D02*
X76928571Y-37978628D01*
X76928571Y-37978628D02*
X76976190Y-37883390D01*
X76976190Y-37883390D02*
X77023809Y-37835771D01*
X77023809Y-37835771D02*
X77119047Y-37788152D01*
X77119047Y-37788152D02*
X77261904Y-37788152D01*
X77261904Y-37788152D02*
X77357142Y-37835771D01*
X77357142Y-37835771D02*
X77404761Y-37883390D01*
X77404761Y-37883390D02*
X77452380Y-37978628D01*
X77452380Y-37978628D02*
X77452380Y-38264342D01*
X77452380Y-38264342D02*
X77404761Y-38359580D01*
X77404761Y-38359580D02*
X77357142Y-38407200D01*
X77357142Y-38407200D02*
X77261904Y-38454819D01*
X77261904Y-38454819D02*
X77119047Y-38454819D01*
X77785714Y-37788152D02*
X77976190Y-38454819D01*
X77976190Y-38454819D02*
X78166666Y-37978628D01*
X78166666Y-37978628D02*
X78357142Y-38454819D01*
X78357142Y-38454819D02*
X78547618Y-37788152D01*
X79309523Y-38407200D02*
X79214285Y-38454819D01*
X79214285Y-38454819D02*
X79023809Y-38454819D01*
X79023809Y-38454819D02*
X78928571Y-38407200D01*
X78928571Y-38407200D02*
X78880952Y-38311961D01*
X78880952Y-38311961D02*
X78880952Y-37931009D01*
X78880952Y-37931009D02*
X78928571Y-37835771D01*
X78928571Y-37835771D02*
X79023809Y-37788152D01*
X79023809Y-37788152D02*
X79214285Y-37788152D01*
X79214285Y-37788152D02*
X79309523Y-37835771D01*
X79309523Y-37835771D02*
X79357142Y-37931009D01*
X79357142Y-37931009D02*
X79357142Y-38026247D01*
X79357142Y-38026247D02*
X78880952Y-38121485D01*
X79785714Y-38454819D02*
X79785714Y-37788152D01*
X79785714Y-37978628D02*
X79833333Y-37883390D01*
X79833333Y-37883390D02*
X79880952Y-37835771D01*
X79880952Y-37835771D02*
X79976190Y-37788152D01*
X79976190Y-37788152D02*
X80071428Y-37788152D01*
X146374819Y-74692857D02*
X145898628Y-75026190D01*
X146374819Y-75264285D02*
X145374819Y-75264285D01*
X145374819Y-75264285D02*
X145374819Y-74883333D01*
X145374819Y-74883333D02*
X145422438Y-74788095D01*
X145422438Y-74788095D02*
X145470057Y-74740476D01*
X145470057Y-74740476D02*
X145565295Y-74692857D01*
X145565295Y-74692857D02*
X145708152Y-74692857D01*
X145708152Y-74692857D02*
X145803390Y-74740476D01*
X145803390Y-74740476D02*
X145851009Y-74788095D01*
X145851009Y-74788095D02*
X145898628Y-74883333D01*
X145898628Y-74883333D02*
X145898628Y-75264285D01*
X145374819Y-74359523D02*
X145374819Y-73740476D01*
X145374819Y-73740476D02*
X145755771Y-74073809D01*
X145755771Y-74073809D02*
X145755771Y-73930952D01*
X145755771Y-73930952D02*
X145803390Y-73835714D01*
X145803390Y-73835714D02*
X145851009Y-73788095D01*
X145851009Y-73788095D02*
X145946247Y-73740476D01*
X145946247Y-73740476D02*
X146184342Y-73740476D01*
X146184342Y-73740476D02*
X146279580Y-73788095D01*
X146279580Y-73788095D02*
X146327200Y-73835714D01*
X146327200Y-73835714D02*
X146374819Y-73930952D01*
X146374819Y-73930952D02*
X146374819Y-74216666D01*
X146374819Y-74216666D02*
X146327200Y-74311904D01*
X146327200Y-74311904D02*
X146279580Y-74359523D01*
X145374819Y-72835714D02*
X145374819Y-73311904D01*
X145374819Y-73311904D02*
X145851009Y-73359523D01*
X145851009Y-73359523D02*
X145803390Y-73311904D01*
X145803390Y-73311904D02*
X145755771Y-73216666D01*
X145755771Y-73216666D02*
X145755771Y-72978571D01*
X145755771Y-72978571D02*
X145803390Y-72883333D01*
X145803390Y-72883333D02*
X145851009Y-72835714D01*
X145851009Y-72835714D02*
X145946247Y-72788095D01*
X145946247Y-72788095D02*
X146184342Y-72788095D01*
X146184342Y-72788095D02*
X146279580Y-72835714D01*
X146279580Y-72835714D02*
X146327200Y-72883333D01*
X146327200Y-72883333D02*
X146374819Y-72978571D01*
X146374819Y-72978571D02*
X146374819Y-73216666D01*
X146374819Y-73216666D02*
X146327200Y-73311904D01*
X146327200Y-73311904D02*
X146279580Y-73359523D01*
X224374819Y-74692857D02*
X223898628Y-75026190D01*
X224374819Y-75264285D02*
X223374819Y-75264285D01*
X223374819Y-75264285D02*
X223374819Y-74883333D01*
X223374819Y-74883333D02*
X223422438Y-74788095D01*
X223422438Y-74788095D02*
X223470057Y-74740476D01*
X223470057Y-74740476D02*
X223565295Y-74692857D01*
X223565295Y-74692857D02*
X223708152Y-74692857D01*
X223708152Y-74692857D02*
X223803390Y-74740476D01*
X223803390Y-74740476D02*
X223851009Y-74788095D01*
X223851009Y-74788095D02*
X223898628Y-74883333D01*
X223898628Y-74883333D02*
X223898628Y-75264285D01*
X223374819Y-73835714D02*
X223374819Y-74026190D01*
X223374819Y-74026190D02*
X223422438Y-74121428D01*
X223422438Y-74121428D02*
X223470057Y-74169047D01*
X223470057Y-74169047D02*
X223612914Y-74264285D01*
X223612914Y-74264285D02*
X223803390Y-74311904D01*
X223803390Y-74311904D02*
X224184342Y-74311904D01*
X224184342Y-74311904D02*
X224279580Y-74264285D01*
X224279580Y-74264285D02*
X224327200Y-74216666D01*
X224327200Y-74216666D02*
X224374819Y-74121428D01*
X224374819Y-74121428D02*
X224374819Y-73930952D01*
X224374819Y-73930952D02*
X224327200Y-73835714D01*
X224327200Y-73835714D02*
X224279580Y-73788095D01*
X224279580Y-73788095D02*
X224184342Y-73740476D01*
X224184342Y-73740476D02*
X223946247Y-73740476D01*
X223946247Y-73740476D02*
X223851009Y-73788095D01*
X223851009Y-73788095D02*
X223803390Y-73835714D01*
X223803390Y-73835714D02*
X223755771Y-73930952D01*
X223755771Y-73930952D02*
X223755771Y-74121428D01*
X223755771Y-74121428D02*
X223803390Y-74216666D01*
X223803390Y-74216666D02*
X223851009Y-74264285D01*
X223851009Y-74264285D02*
X223946247Y-74311904D01*
X224374819Y-72788095D02*
X224374819Y-73359523D01*
X224374819Y-73073809D02*
X223374819Y-73073809D01*
X223374819Y-73073809D02*
X223517676Y-73169047D01*
X223517676Y-73169047D02*
X223612914Y-73264285D01*
X223612914Y-73264285D02*
X223660533Y-73359523D01*
X185374819Y-74692857D02*
X184898628Y-75026190D01*
X185374819Y-75264285D02*
X184374819Y-75264285D01*
X184374819Y-75264285D02*
X184374819Y-74883333D01*
X184374819Y-74883333D02*
X184422438Y-74788095D01*
X184422438Y-74788095D02*
X184470057Y-74740476D01*
X184470057Y-74740476D02*
X184565295Y-74692857D01*
X184565295Y-74692857D02*
X184708152Y-74692857D01*
X184708152Y-74692857D02*
X184803390Y-74740476D01*
X184803390Y-74740476D02*
X184851009Y-74788095D01*
X184851009Y-74788095D02*
X184898628Y-74883333D01*
X184898628Y-74883333D02*
X184898628Y-75264285D01*
X184708152Y-73835714D02*
X185374819Y-73835714D01*
X184327200Y-74073809D02*
X185041485Y-74311904D01*
X185041485Y-74311904D02*
X185041485Y-73692857D01*
X184803390Y-73169047D02*
X184755771Y-73264285D01*
X184755771Y-73264285D02*
X184708152Y-73311904D01*
X184708152Y-73311904D02*
X184612914Y-73359523D01*
X184612914Y-73359523D02*
X184565295Y-73359523D01*
X184565295Y-73359523D02*
X184470057Y-73311904D01*
X184470057Y-73311904D02*
X184422438Y-73264285D01*
X184422438Y-73264285D02*
X184374819Y-73169047D01*
X184374819Y-73169047D02*
X184374819Y-72978571D01*
X184374819Y-72978571D02*
X184422438Y-72883333D01*
X184422438Y-72883333D02*
X184470057Y-72835714D01*
X184470057Y-72835714D02*
X184565295Y-72788095D01*
X184565295Y-72788095D02*
X184612914Y-72788095D01*
X184612914Y-72788095D02*
X184708152Y-72835714D01*
X184708152Y-72835714D02*
X184755771Y-72883333D01*
X184755771Y-72883333D02*
X184803390Y-72978571D01*
X184803390Y-72978571D02*
X184803390Y-73169047D01*
X184803390Y-73169047D02*
X184851009Y-73264285D01*
X184851009Y-73264285D02*
X184898628Y-73311904D01*
X184898628Y-73311904D02*
X184993866Y-73359523D01*
X184993866Y-73359523D02*
X185184342Y-73359523D01*
X185184342Y-73359523D02*
X185279580Y-73311904D01*
X185279580Y-73311904D02*
X185327200Y-73264285D01*
X185327200Y-73264285D02*
X185374819Y-73169047D01*
X185374819Y-73169047D02*
X185374819Y-72978571D01*
X185374819Y-72978571D02*
X185327200Y-72883333D01*
X185327200Y-72883333D02*
X185279580Y-72835714D01*
X185279580Y-72835714D02*
X185184342Y-72788095D01*
X185184342Y-72788095D02*
X184993866Y-72788095D01*
X184993866Y-72788095D02*
X184898628Y-72835714D01*
X184898628Y-72835714D02*
X184851009Y-72883333D01*
X184851009Y-72883333D02*
X184803390Y-72978571D01*
X101374819Y-74692857D02*
X100898628Y-75026190D01*
X101374819Y-75264285D02*
X100374819Y-75264285D01*
X100374819Y-75264285D02*
X100374819Y-74883333D01*
X100374819Y-74883333D02*
X100422438Y-74788095D01*
X100422438Y-74788095D02*
X100470057Y-74740476D01*
X100470057Y-74740476D02*
X100565295Y-74692857D01*
X100565295Y-74692857D02*
X100708152Y-74692857D01*
X100708152Y-74692857D02*
X100803390Y-74740476D01*
X100803390Y-74740476D02*
X100851009Y-74788095D01*
X100851009Y-74788095D02*
X100898628Y-74883333D01*
X100898628Y-74883333D02*
X100898628Y-75264285D01*
X100470057Y-74311904D02*
X100422438Y-74264285D01*
X100422438Y-74264285D02*
X100374819Y-74169047D01*
X100374819Y-74169047D02*
X100374819Y-73930952D01*
X100374819Y-73930952D02*
X100422438Y-73835714D01*
X100422438Y-73835714D02*
X100470057Y-73788095D01*
X100470057Y-73788095D02*
X100565295Y-73740476D01*
X100565295Y-73740476D02*
X100660533Y-73740476D01*
X100660533Y-73740476D02*
X100803390Y-73788095D01*
X100803390Y-73788095D02*
X101374819Y-74359523D01*
X101374819Y-74359523D02*
X101374819Y-73740476D01*
X100374819Y-73121428D02*
X100374819Y-73026190D01*
X100374819Y-73026190D02*
X100422438Y-72930952D01*
X100422438Y-72930952D02*
X100470057Y-72883333D01*
X100470057Y-72883333D02*
X100565295Y-72835714D01*
X100565295Y-72835714D02*
X100755771Y-72788095D01*
X100755771Y-72788095D02*
X100993866Y-72788095D01*
X100993866Y-72788095D02*
X101184342Y-72835714D01*
X101184342Y-72835714D02*
X101279580Y-72883333D01*
X101279580Y-72883333D02*
X101327200Y-72930952D01*
X101327200Y-72930952D02*
X101374819Y-73026190D01*
X101374819Y-73026190D02*
X101374819Y-73121428D01*
X101374819Y-73121428D02*
X101327200Y-73216666D01*
X101327200Y-73216666D02*
X101279580Y-73264285D01*
X101279580Y-73264285D02*
X101184342Y-73311904D01*
X101184342Y-73311904D02*
X100993866Y-73359523D01*
X100993866Y-73359523D02*
X100755771Y-73359523D01*
X100755771Y-73359523D02*
X100565295Y-73311904D01*
X100565295Y-73311904D02*
X100470057Y-73264285D01*
X100470057Y-73264285D02*
X100422438Y-73216666D01*
X100422438Y-73216666D02*
X100374819Y-73121428D01*
X98374819Y-74692857D02*
X97898628Y-75026190D01*
X98374819Y-75264285D02*
X97374819Y-75264285D01*
X97374819Y-75264285D02*
X97374819Y-74883333D01*
X97374819Y-74883333D02*
X97422438Y-74788095D01*
X97422438Y-74788095D02*
X97470057Y-74740476D01*
X97470057Y-74740476D02*
X97565295Y-74692857D01*
X97565295Y-74692857D02*
X97708152Y-74692857D01*
X97708152Y-74692857D02*
X97803390Y-74740476D01*
X97803390Y-74740476D02*
X97851009Y-74788095D01*
X97851009Y-74788095D02*
X97898628Y-74883333D01*
X97898628Y-74883333D02*
X97898628Y-75264285D01*
X98374819Y-73740476D02*
X98374819Y-74311904D01*
X98374819Y-74026190D02*
X97374819Y-74026190D01*
X97374819Y-74026190D02*
X97517676Y-74121428D01*
X97517676Y-74121428D02*
X97612914Y-74216666D01*
X97612914Y-74216666D02*
X97660533Y-74311904D01*
X98374819Y-73264285D02*
X98374819Y-73073809D01*
X98374819Y-73073809D02*
X98327200Y-72978571D01*
X98327200Y-72978571D02*
X98279580Y-72930952D01*
X98279580Y-72930952D02*
X98136723Y-72835714D01*
X98136723Y-72835714D02*
X97946247Y-72788095D01*
X97946247Y-72788095D02*
X97565295Y-72788095D01*
X97565295Y-72788095D02*
X97470057Y-72835714D01*
X97470057Y-72835714D02*
X97422438Y-72883333D01*
X97422438Y-72883333D02*
X97374819Y-72978571D01*
X97374819Y-72978571D02*
X97374819Y-73169047D01*
X97374819Y-73169047D02*
X97422438Y-73264285D01*
X97422438Y-73264285D02*
X97470057Y-73311904D01*
X97470057Y-73311904D02*
X97565295Y-73359523D01*
X97565295Y-73359523D02*
X97803390Y-73359523D01*
X97803390Y-73359523D02*
X97898628Y-73311904D01*
X97898628Y-73311904D02*
X97946247Y-73264285D01*
X97946247Y-73264285D02*
X97993866Y-73169047D01*
X97993866Y-73169047D02*
X97993866Y-72978571D01*
X97993866Y-72978571D02*
X97946247Y-72883333D01*
X97946247Y-72883333D02*
X97898628Y-72835714D01*
X97898628Y-72835714D02*
X97803390Y-72788095D01*
X95374819Y-74692857D02*
X94898628Y-75026190D01*
X95374819Y-75264285D02*
X94374819Y-75264285D01*
X94374819Y-75264285D02*
X94374819Y-74883333D01*
X94374819Y-74883333D02*
X94422438Y-74788095D01*
X94422438Y-74788095D02*
X94470057Y-74740476D01*
X94470057Y-74740476D02*
X94565295Y-74692857D01*
X94565295Y-74692857D02*
X94708152Y-74692857D01*
X94708152Y-74692857D02*
X94803390Y-74740476D01*
X94803390Y-74740476D02*
X94851009Y-74788095D01*
X94851009Y-74788095D02*
X94898628Y-74883333D01*
X94898628Y-74883333D02*
X94898628Y-75264285D01*
X95374819Y-73740476D02*
X95374819Y-74311904D01*
X95374819Y-74026190D02*
X94374819Y-74026190D01*
X94374819Y-74026190D02*
X94517676Y-74121428D01*
X94517676Y-74121428D02*
X94612914Y-74216666D01*
X94612914Y-74216666D02*
X94660533Y-74311904D01*
X94803390Y-73169047D02*
X94755771Y-73264285D01*
X94755771Y-73264285D02*
X94708152Y-73311904D01*
X94708152Y-73311904D02*
X94612914Y-73359523D01*
X94612914Y-73359523D02*
X94565295Y-73359523D01*
X94565295Y-73359523D02*
X94470057Y-73311904D01*
X94470057Y-73311904D02*
X94422438Y-73264285D01*
X94422438Y-73264285D02*
X94374819Y-73169047D01*
X94374819Y-73169047D02*
X94374819Y-72978571D01*
X94374819Y-72978571D02*
X94422438Y-72883333D01*
X94422438Y-72883333D02*
X94470057Y-72835714D01*
X94470057Y-72835714D02*
X94565295Y-72788095D01*
X94565295Y-72788095D02*
X94612914Y-72788095D01*
X94612914Y-72788095D02*
X94708152Y-72835714D01*
X94708152Y-72835714D02*
X94755771Y-72883333D01*
X94755771Y-72883333D02*
X94803390Y-72978571D01*
X94803390Y-72978571D02*
X94803390Y-73169047D01*
X94803390Y-73169047D02*
X94851009Y-73264285D01*
X94851009Y-73264285D02*
X94898628Y-73311904D01*
X94898628Y-73311904D02*
X94993866Y-73359523D01*
X94993866Y-73359523D02*
X95184342Y-73359523D01*
X95184342Y-73359523D02*
X95279580Y-73311904D01*
X95279580Y-73311904D02*
X95327200Y-73264285D01*
X95327200Y-73264285D02*
X95374819Y-73169047D01*
X95374819Y-73169047D02*
X95374819Y-72978571D01*
X95374819Y-72978571D02*
X95327200Y-72883333D01*
X95327200Y-72883333D02*
X95279580Y-72835714D01*
X95279580Y-72835714D02*
X95184342Y-72788095D01*
X95184342Y-72788095D02*
X94993866Y-72788095D01*
X94993866Y-72788095D02*
X94898628Y-72835714D01*
X94898628Y-72835714D02*
X94851009Y-72883333D01*
X94851009Y-72883333D02*
X94803390Y-72978571D01*
X188374819Y-74692857D02*
X187898628Y-75026190D01*
X188374819Y-75264285D02*
X187374819Y-75264285D01*
X187374819Y-75264285D02*
X187374819Y-74883333D01*
X187374819Y-74883333D02*
X187422438Y-74788095D01*
X187422438Y-74788095D02*
X187470057Y-74740476D01*
X187470057Y-74740476D02*
X187565295Y-74692857D01*
X187565295Y-74692857D02*
X187708152Y-74692857D01*
X187708152Y-74692857D02*
X187803390Y-74740476D01*
X187803390Y-74740476D02*
X187851009Y-74788095D01*
X187851009Y-74788095D02*
X187898628Y-74883333D01*
X187898628Y-74883333D02*
X187898628Y-75264285D01*
X187708152Y-73835714D02*
X188374819Y-73835714D01*
X187327200Y-74073809D02*
X188041485Y-74311904D01*
X188041485Y-74311904D02*
X188041485Y-73692857D01*
X188374819Y-73264285D02*
X188374819Y-73073809D01*
X188374819Y-73073809D02*
X188327200Y-72978571D01*
X188327200Y-72978571D02*
X188279580Y-72930952D01*
X188279580Y-72930952D02*
X188136723Y-72835714D01*
X188136723Y-72835714D02*
X187946247Y-72788095D01*
X187946247Y-72788095D02*
X187565295Y-72788095D01*
X187565295Y-72788095D02*
X187470057Y-72835714D01*
X187470057Y-72835714D02*
X187422438Y-72883333D01*
X187422438Y-72883333D02*
X187374819Y-72978571D01*
X187374819Y-72978571D02*
X187374819Y-73169047D01*
X187374819Y-73169047D02*
X187422438Y-73264285D01*
X187422438Y-73264285D02*
X187470057Y-73311904D01*
X187470057Y-73311904D02*
X187565295Y-73359523D01*
X187565295Y-73359523D02*
X187803390Y-73359523D01*
X187803390Y-73359523D02*
X187898628Y-73311904D01*
X187898628Y-73311904D02*
X187946247Y-73264285D01*
X187946247Y-73264285D02*
X187993866Y-73169047D01*
X187993866Y-73169047D02*
X187993866Y-72978571D01*
X187993866Y-72978571D02*
X187946247Y-72883333D01*
X187946247Y-72883333D02*
X187898628Y-72835714D01*
X187898628Y-72835714D02*
X187803390Y-72788095D01*
X128274819Y-74732857D02*
X127798628Y-75066190D01*
X128274819Y-75304285D02*
X127274819Y-75304285D01*
X127274819Y-75304285D02*
X127274819Y-74923333D01*
X127274819Y-74923333D02*
X127322438Y-74828095D01*
X127322438Y-74828095D02*
X127370057Y-74780476D01*
X127370057Y-74780476D02*
X127465295Y-74732857D01*
X127465295Y-74732857D02*
X127608152Y-74732857D01*
X127608152Y-74732857D02*
X127703390Y-74780476D01*
X127703390Y-74780476D02*
X127751009Y-74828095D01*
X127751009Y-74828095D02*
X127798628Y-74923333D01*
X127798628Y-74923333D02*
X127798628Y-75304285D01*
X127370057Y-74351904D02*
X127322438Y-74304285D01*
X127322438Y-74304285D02*
X127274819Y-74209047D01*
X127274819Y-74209047D02*
X127274819Y-73970952D01*
X127274819Y-73970952D02*
X127322438Y-73875714D01*
X127322438Y-73875714D02*
X127370057Y-73828095D01*
X127370057Y-73828095D02*
X127465295Y-73780476D01*
X127465295Y-73780476D02*
X127560533Y-73780476D01*
X127560533Y-73780476D02*
X127703390Y-73828095D01*
X127703390Y-73828095D02*
X128274819Y-74399523D01*
X128274819Y-74399523D02*
X128274819Y-73780476D01*
X128274819Y-73304285D02*
X128274819Y-73113809D01*
X128274819Y-73113809D02*
X128227200Y-73018571D01*
X128227200Y-73018571D02*
X128179580Y-72970952D01*
X128179580Y-72970952D02*
X128036723Y-72875714D01*
X128036723Y-72875714D02*
X127846247Y-72828095D01*
X127846247Y-72828095D02*
X127465295Y-72828095D01*
X127465295Y-72828095D02*
X127370057Y-72875714D01*
X127370057Y-72875714D02*
X127322438Y-72923333D01*
X127322438Y-72923333D02*
X127274819Y-73018571D01*
X127274819Y-73018571D02*
X127274819Y-73209047D01*
X127274819Y-73209047D02*
X127322438Y-73304285D01*
X127322438Y-73304285D02*
X127370057Y-73351904D01*
X127370057Y-73351904D02*
X127465295Y-73399523D01*
X127465295Y-73399523D02*
X127703390Y-73399523D01*
X127703390Y-73399523D02*
X127798628Y-73351904D01*
X127798628Y-73351904D02*
X127846247Y-73304285D01*
X127846247Y-73304285D02*
X127893866Y-73209047D01*
X127893866Y-73209047D02*
X127893866Y-73018571D01*
X127893866Y-73018571D02*
X127846247Y-72923333D01*
X127846247Y-72923333D02*
X127798628Y-72875714D01*
X127798628Y-72875714D02*
X127703390Y-72828095D01*
X173374819Y-74692857D02*
X172898628Y-75026190D01*
X173374819Y-75264285D02*
X172374819Y-75264285D01*
X172374819Y-75264285D02*
X172374819Y-74883333D01*
X172374819Y-74883333D02*
X172422438Y-74788095D01*
X172422438Y-74788095D02*
X172470057Y-74740476D01*
X172470057Y-74740476D02*
X172565295Y-74692857D01*
X172565295Y-74692857D02*
X172708152Y-74692857D01*
X172708152Y-74692857D02*
X172803390Y-74740476D01*
X172803390Y-74740476D02*
X172851009Y-74788095D01*
X172851009Y-74788095D02*
X172898628Y-74883333D01*
X172898628Y-74883333D02*
X172898628Y-75264285D01*
X172708152Y-73835714D02*
X173374819Y-73835714D01*
X172327200Y-74073809D02*
X173041485Y-74311904D01*
X173041485Y-74311904D02*
X173041485Y-73692857D01*
X172708152Y-72883333D02*
X173374819Y-72883333D01*
X172327200Y-73121428D02*
X173041485Y-73359523D01*
X173041485Y-73359523D02*
X173041485Y-72740476D01*
X195226190Y-88854819D02*
X194892857Y-88378628D01*
X194654762Y-88854819D02*
X194654762Y-87854819D01*
X194654762Y-87854819D02*
X195035714Y-87854819D01*
X195035714Y-87854819D02*
X195130952Y-87902438D01*
X195130952Y-87902438D02*
X195178571Y-87950057D01*
X195178571Y-87950057D02*
X195226190Y-88045295D01*
X195226190Y-88045295D02*
X195226190Y-88188152D01*
X195226190Y-88188152D02*
X195178571Y-88283390D01*
X195178571Y-88283390D02*
X195130952Y-88331009D01*
X195130952Y-88331009D02*
X195035714Y-88378628D01*
X195035714Y-88378628D02*
X194654762Y-88378628D01*
X195797619Y-88854819D02*
X195702381Y-88807200D01*
X195702381Y-88807200D02*
X195654762Y-88759580D01*
X195654762Y-88759580D02*
X195607143Y-88664342D01*
X195607143Y-88664342D02*
X195607143Y-88378628D01*
X195607143Y-88378628D02*
X195654762Y-88283390D01*
X195654762Y-88283390D02*
X195702381Y-88235771D01*
X195702381Y-88235771D02*
X195797619Y-88188152D01*
X195797619Y-88188152D02*
X195940476Y-88188152D01*
X195940476Y-88188152D02*
X196035714Y-88235771D01*
X196035714Y-88235771D02*
X196083333Y-88283390D01*
X196083333Y-88283390D02*
X196130952Y-88378628D01*
X196130952Y-88378628D02*
X196130952Y-88664342D01*
X196130952Y-88664342D02*
X196083333Y-88759580D01*
X196083333Y-88759580D02*
X196035714Y-88807200D01*
X196035714Y-88807200D02*
X195940476Y-88854819D01*
X195940476Y-88854819D02*
X195797619Y-88854819D01*
X196464286Y-88188152D02*
X196654762Y-88854819D01*
X196654762Y-88854819D02*
X196845238Y-88378628D01*
X196845238Y-88378628D02*
X197035714Y-88854819D01*
X197035714Y-88854819D02*
X197226190Y-88188152D01*
X197369048Y-88950057D02*
X198130952Y-88950057D01*
X198273810Y-87854819D02*
X198940476Y-87854819D01*
X198940476Y-87854819D02*
X198511905Y-88854819D01*
X59374819Y-74126666D02*
X58898628Y-74459999D01*
X59374819Y-74698094D02*
X58374819Y-74698094D01*
X58374819Y-74698094D02*
X58374819Y-74317142D01*
X58374819Y-74317142D02*
X58422438Y-74221904D01*
X58422438Y-74221904D02*
X58470057Y-74174285D01*
X58470057Y-74174285D02*
X58565295Y-74126666D01*
X58565295Y-74126666D02*
X58708152Y-74126666D01*
X58708152Y-74126666D02*
X58803390Y-74174285D01*
X58803390Y-74174285D02*
X58851009Y-74221904D01*
X58851009Y-74221904D02*
X58898628Y-74317142D01*
X58898628Y-74317142D02*
X58898628Y-74698094D01*
X58374819Y-73269523D02*
X58374819Y-73459999D01*
X58374819Y-73459999D02*
X58422438Y-73555237D01*
X58422438Y-73555237D02*
X58470057Y-73602856D01*
X58470057Y-73602856D02*
X58612914Y-73698094D01*
X58612914Y-73698094D02*
X58803390Y-73745713D01*
X58803390Y-73745713D02*
X59184342Y-73745713D01*
X59184342Y-73745713D02*
X59279580Y-73698094D01*
X59279580Y-73698094D02*
X59327200Y-73650475D01*
X59327200Y-73650475D02*
X59374819Y-73555237D01*
X59374819Y-73555237D02*
X59374819Y-73364761D01*
X59374819Y-73364761D02*
X59327200Y-73269523D01*
X59327200Y-73269523D02*
X59279580Y-73221904D01*
X59279580Y-73221904D02*
X59184342Y-73174285D01*
X59184342Y-73174285D02*
X58946247Y-73174285D01*
X58946247Y-73174285D02*
X58851009Y-73221904D01*
X58851009Y-73221904D02*
X58803390Y-73269523D01*
X58803390Y-73269523D02*
X58755771Y-73364761D01*
X58755771Y-73364761D02*
X58755771Y-73555237D01*
X58755771Y-73555237D02*
X58803390Y-73650475D01*
X58803390Y-73650475D02*
X58851009Y-73698094D01*
X58851009Y-73698094D02*
X58946247Y-73745713D01*
X125274819Y-74732857D02*
X124798628Y-75066190D01*
X125274819Y-75304285D02*
X124274819Y-75304285D01*
X124274819Y-75304285D02*
X124274819Y-74923333D01*
X124274819Y-74923333D02*
X124322438Y-74828095D01*
X124322438Y-74828095D02*
X124370057Y-74780476D01*
X124370057Y-74780476D02*
X124465295Y-74732857D01*
X124465295Y-74732857D02*
X124608152Y-74732857D01*
X124608152Y-74732857D02*
X124703390Y-74780476D01*
X124703390Y-74780476D02*
X124751009Y-74828095D01*
X124751009Y-74828095D02*
X124798628Y-74923333D01*
X124798628Y-74923333D02*
X124798628Y-75304285D01*
X124370057Y-74351904D02*
X124322438Y-74304285D01*
X124322438Y-74304285D02*
X124274819Y-74209047D01*
X124274819Y-74209047D02*
X124274819Y-73970952D01*
X124274819Y-73970952D02*
X124322438Y-73875714D01*
X124322438Y-73875714D02*
X124370057Y-73828095D01*
X124370057Y-73828095D02*
X124465295Y-73780476D01*
X124465295Y-73780476D02*
X124560533Y-73780476D01*
X124560533Y-73780476D02*
X124703390Y-73828095D01*
X124703390Y-73828095D02*
X125274819Y-74399523D01*
X125274819Y-74399523D02*
X125274819Y-73780476D01*
X124703390Y-73209047D02*
X124655771Y-73304285D01*
X124655771Y-73304285D02*
X124608152Y-73351904D01*
X124608152Y-73351904D02*
X124512914Y-73399523D01*
X124512914Y-73399523D02*
X124465295Y-73399523D01*
X124465295Y-73399523D02*
X124370057Y-73351904D01*
X124370057Y-73351904D02*
X124322438Y-73304285D01*
X124322438Y-73304285D02*
X124274819Y-73209047D01*
X124274819Y-73209047D02*
X124274819Y-73018571D01*
X124274819Y-73018571D02*
X124322438Y-72923333D01*
X124322438Y-72923333D02*
X124370057Y-72875714D01*
X124370057Y-72875714D02*
X124465295Y-72828095D01*
X124465295Y-72828095D02*
X124512914Y-72828095D01*
X124512914Y-72828095D02*
X124608152Y-72875714D01*
X124608152Y-72875714D02*
X124655771Y-72923333D01*
X124655771Y-72923333D02*
X124703390Y-73018571D01*
X124703390Y-73018571D02*
X124703390Y-73209047D01*
X124703390Y-73209047D02*
X124751009Y-73304285D01*
X124751009Y-73304285D02*
X124798628Y-73351904D01*
X124798628Y-73351904D02*
X124893866Y-73399523D01*
X124893866Y-73399523D02*
X125084342Y-73399523D01*
X125084342Y-73399523D02*
X125179580Y-73351904D01*
X125179580Y-73351904D02*
X125227200Y-73304285D01*
X125227200Y-73304285D02*
X125274819Y-73209047D01*
X125274819Y-73209047D02*
X125274819Y-73018571D01*
X125274819Y-73018571D02*
X125227200Y-72923333D01*
X125227200Y-72923333D02*
X125179580Y-72875714D01*
X125179580Y-72875714D02*
X125084342Y-72828095D01*
X125084342Y-72828095D02*
X124893866Y-72828095D01*
X124893866Y-72828095D02*
X124798628Y-72875714D01*
X124798628Y-72875714D02*
X124751009Y-72923333D01*
X124751009Y-72923333D02*
X124703390Y-73018571D01*
X71374819Y-74692857D02*
X70898628Y-75026190D01*
X71374819Y-75264285D02*
X70374819Y-75264285D01*
X70374819Y-75264285D02*
X70374819Y-74883333D01*
X70374819Y-74883333D02*
X70422438Y-74788095D01*
X70422438Y-74788095D02*
X70470057Y-74740476D01*
X70470057Y-74740476D02*
X70565295Y-74692857D01*
X70565295Y-74692857D02*
X70708152Y-74692857D01*
X70708152Y-74692857D02*
X70803390Y-74740476D01*
X70803390Y-74740476D02*
X70851009Y-74788095D01*
X70851009Y-74788095D02*
X70898628Y-74883333D01*
X70898628Y-74883333D02*
X70898628Y-75264285D01*
X71374819Y-73740476D02*
X71374819Y-74311904D01*
X71374819Y-74026190D02*
X70374819Y-74026190D01*
X70374819Y-74026190D02*
X70517676Y-74121428D01*
X70517676Y-74121428D02*
X70612914Y-74216666D01*
X70612914Y-74216666D02*
X70660533Y-74311904D01*
X70374819Y-73121428D02*
X70374819Y-73026190D01*
X70374819Y-73026190D02*
X70422438Y-72930952D01*
X70422438Y-72930952D02*
X70470057Y-72883333D01*
X70470057Y-72883333D02*
X70565295Y-72835714D01*
X70565295Y-72835714D02*
X70755771Y-72788095D01*
X70755771Y-72788095D02*
X70993866Y-72788095D01*
X70993866Y-72788095D02*
X71184342Y-72835714D01*
X71184342Y-72835714D02*
X71279580Y-72883333D01*
X71279580Y-72883333D02*
X71327200Y-72930952D01*
X71327200Y-72930952D02*
X71374819Y-73026190D01*
X71374819Y-73026190D02*
X71374819Y-73121428D01*
X71374819Y-73121428D02*
X71327200Y-73216666D01*
X71327200Y-73216666D02*
X71279580Y-73264285D01*
X71279580Y-73264285D02*
X71184342Y-73311904D01*
X71184342Y-73311904D02*
X70993866Y-73359523D01*
X70993866Y-73359523D02*
X70755771Y-73359523D01*
X70755771Y-73359523D02*
X70565295Y-73311904D01*
X70565295Y-73311904D02*
X70470057Y-73264285D01*
X70470057Y-73264285D02*
X70422438Y-73216666D01*
X70422438Y-73216666D02*
X70374819Y-73121428D01*
X221374819Y-74692857D02*
X220898628Y-75026190D01*
X221374819Y-75264285D02*
X220374819Y-75264285D01*
X220374819Y-75264285D02*
X220374819Y-74883333D01*
X220374819Y-74883333D02*
X220422438Y-74788095D01*
X220422438Y-74788095D02*
X220470057Y-74740476D01*
X220470057Y-74740476D02*
X220565295Y-74692857D01*
X220565295Y-74692857D02*
X220708152Y-74692857D01*
X220708152Y-74692857D02*
X220803390Y-74740476D01*
X220803390Y-74740476D02*
X220851009Y-74788095D01*
X220851009Y-74788095D02*
X220898628Y-74883333D01*
X220898628Y-74883333D02*
X220898628Y-75264285D01*
X220374819Y-73835714D02*
X220374819Y-74026190D01*
X220374819Y-74026190D02*
X220422438Y-74121428D01*
X220422438Y-74121428D02*
X220470057Y-74169047D01*
X220470057Y-74169047D02*
X220612914Y-74264285D01*
X220612914Y-74264285D02*
X220803390Y-74311904D01*
X220803390Y-74311904D02*
X221184342Y-74311904D01*
X221184342Y-74311904D02*
X221279580Y-74264285D01*
X221279580Y-74264285D02*
X221327200Y-74216666D01*
X221327200Y-74216666D02*
X221374819Y-74121428D01*
X221374819Y-74121428D02*
X221374819Y-73930952D01*
X221374819Y-73930952D02*
X221327200Y-73835714D01*
X221327200Y-73835714D02*
X221279580Y-73788095D01*
X221279580Y-73788095D02*
X221184342Y-73740476D01*
X221184342Y-73740476D02*
X220946247Y-73740476D01*
X220946247Y-73740476D02*
X220851009Y-73788095D01*
X220851009Y-73788095D02*
X220803390Y-73835714D01*
X220803390Y-73835714D02*
X220755771Y-73930952D01*
X220755771Y-73930952D02*
X220755771Y-74121428D01*
X220755771Y-74121428D02*
X220803390Y-74216666D01*
X220803390Y-74216666D02*
X220851009Y-74264285D01*
X220851009Y-74264285D02*
X220946247Y-74311904D01*
X220374819Y-73121428D02*
X220374819Y-73026190D01*
X220374819Y-73026190D02*
X220422438Y-72930952D01*
X220422438Y-72930952D02*
X220470057Y-72883333D01*
X220470057Y-72883333D02*
X220565295Y-72835714D01*
X220565295Y-72835714D02*
X220755771Y-72788095D01*
X220755771Y-72788095D02*
X220993866Y-72788095D01*
X220993866Y-72788095D02*
X221184342Y-72835714D01*
X221184342Y-72835714D02*
X221279580Y-72883333D01*
X221279580Y-72883333D02*
X221327200Y-72930952D01*
X221327200Y-72930952D02*
X221374819Y-73026190D01*
X221374819Y-73026190D02*
X221374819Y-73121428D01*
X221374819Y-73121428D02*
X221327200Y-73216666D01*
X221327200Y-73216666D02*
X221279580Y-73264285D01*
X221279580Y-73264285D02*
X221184342Y-73311904D01*
X221184342Y-73311904D02*
X220993866Y-73359523D01*
X220993866Y-73359523D02*
X220755771Y-73359523D01*
X220755771Y-73359523D02*
X220565295Y-73311904D01*
X220565295Y-73311904D02*
X220470057Y-73264285D01*
X220470057Y-73264285D02*
X220422438Y-73216666D01*
X220422438Y-73216666D02*
X220374819Y-73121428D01*
X191374819Y-74692857D02*
X190898628Y-75026190D01*
X191374819Y-75264285D02*
X190374819Y-75264285D01*
X190374819Y-75264285D02*
X190374819Y-74883333D01*
X190374819Y-74883333D02*
X190422438Y-74788095D01*
X190422438Y-74788095D02*
X190470057Y-74740476D01*
X190470057Y-74740476D02*
X190565295Y-74692857D01*
X190565295Y-74692857D02*
X190708152Y-74692857D01*
X190708152Y-74692857D02*
X190803390Y-74740476D01*
X190803390Y-74740476D02*
X190851009Y-74788095D01*
X190851009Y-74788095D02*
X190898628Y-74883333D01*
X190898628Y-74883333D02*
X190898628Y-75264285D01*
X190374819Y-73788095D02*
X190374819Y-74264285D01*
X190374819Y-74264285D02*
X190851009Y-74311904D01*
X190851009Y-74311904D02*
X190803390Y-74264285D01*
X190803390Y-74264285D02*
X190755771Y-74169047D01*
X190755771Y-74169047D02*
X190755771Y-73930952D01*
X190755771Y-73930952D02*
X190803390Y-73835714D01*
X190803390Y-73835714D02*
X190851009Y-73788095D01*
X190851009Y-73788095D02*
X190946247Y-73740476D01*
X190946247Y-73740476D02*
X191184342Y-73740476D01*
X191184342Y-73740476D02*
X191279580Y-73788095D01*
X191279580Y-73788095D02*
X191327200Y-73835714D01*
X191327200Y-73835714D02*
X191374819Y-73930952D01*
X191374819Y-73930952D02*
X191374819Y-74169047D01*
X191374819Y-74169047D02*
X191327200Y-74264285D01*
X191327200Y-74264285D02*
X191279580Y-74311904D01*
X190374819Y-73121428D02*
X190374819Y-73026190D01*
X190374819Y-73026190D02*
X190422438Y-72930952D01*
X190422438Y-72930952D02*
X190470057Y-72883333D01*
X190470057Y-72883333D02*
X190565295Y-72835714D01*
X190565295Y-72835714D02*
X190755771Y-72788095D01*
X190755771Y-72788095D02*
X190993866Y-72788095D01*
X190993866Y-72788095D02*
X191184342Y-72835714D01*
X191184342Y-72835714D02*
X191279580Y-72883333D01*
X191279580Y-72883333D02*
X191327200Y-72930952D01*
X191327200Y-72930952D02*
X191374819Y-73026190D01*
X191374819Y-73026190D02*
X191374819Y-73121428D01*
X191374819Y-73121428D02*
X191327200Y-73216666D01*
X191327200Y-73216666D02*
X191279580Y-73264285D01*
X191279580Y-73264285D02*
X191184342Y-73311904D01*
X191184342Y-73311904D02*
X190993866Y-73359523D01*
X190993866Y-73359523D02*
X190755771Y-73359523D01*
X190755771Y-73359523D02*
X190565295Y-73311904D01*
X190565295Y-73311904D02*
X190470057Y-73264285D01*
X190470057Y-73264285D02*
X190422438Y-73216666D01*
X190422438Y-73216666D02*
X190374819Y-73121428D01*
X215374819Y-74692857D02*
X214898628Y-75026190D01*
X215374819Y-75264285D02*
X214374819Y-75264285D01*
X214374819Y-75264285D02*
X214374819Y-74883333D01*
X214374819Y-74883333D02*
X214422438Y-74788095D01*
X214422438Y-74788095D02*
X214470057Y-74740476D01*
X214470057Y-74740476D02*
X214565295Y-74692857D01*
X214565295Y-74692857D02*
X214708152Y-74692857D01*
X214708152Y-74692857D02*
X214803390Y-74740476D01*
X214803390Y-74740476D02*
X214851009Y-74788095D01*
X214851009Y-74788095D02*
X214898628Y-74883333D01*
X214898628Y-74883333D02*
X214898628Y-75264285D01*
X214374819Y-73788095D02*
X214374819Y-74264285D01*
X214374819Y-74264285D02*
X214851009Y-74311904D01*
X214851009Y-74311904D02*
X214803390Y-74264285D01*
X214803390Y-74264285D02*
X214755771Y-74169047D01*
X214755771Y-74169047D02*
X214755771Y-73930952D01*
X214755771Y-73930952D02*
X214803390Y-73835714D01*
X214803390Y-73835714D02*
X214851009Y-73788095D01*
X214851009Y-73788095D02*
X214946247Y-73740476D01*
X214946247Y-73740476D02*
X215184342Y-73740476D01*
X215184342Y-73740476D02*
X215279580Y-73788095D01*
X215279580Y-73788095D02*
X215327200Y-73835714D01*
X215327200Y-73835714D02*
X215374819Y-73930952D01*
X215374819Y-73930952D02*
X215374819Y-74169047D01*
X215374819Y-74169047D02*
X215327200Y-74264285D01*
X215327200Y-74264285D02*
X215279580Y-74311904D01*
X214803390Y-73169047D02*
X214755771Y-73264285D01*
X214755771Y-73264285D02*
X214708152Y-73311904D01*
X214708152Y-73311904D02*
X214612914Y-73359523D01*
X214612914Y-73359523D02*
X214565295Y-73359523D01*
X214565295Y-73359523D02*
X214470057Y-73311904D01*
X214470057Y-73311904D02*
X214422438Y-73264285D01*
X214422438Y-73264285D02*
X214374819Y-73169047D01*
X214374819Y-73169047D02*
X214374819Y-72978571D01*
X214374819Y-72978571D02*
X214422438Y-72883333D01*
X214422438Y-72883333D02*
X214470057Y-72835714D01*
X214470057Y-72835714D02*
X214565295Y-72788095D01*
X214565295Y-72788095D02*
X214612914Y-72788095D01*
X214612914Y-72788095D02*
X214708152Y-72835714D01*
X214708152Y-72835714D02*
X214755771Y-72883333D01*
X214755771Y-72883333D02*
X214803390Y-72978571D01*
X214803390Y-72978571D02*
X214803390Y-73169047D01*
X214803390Y-73169047D02*
X214851009Y-73264285D01*
X214851009Y-73264285D02*
X214898628Y-73311904D01*
X214898628Y-73311904D02*
X214993866Y-73359523D01*
X214993866Y-73359523D02*
X215184342Y-73359523D01*
X215184342Y-73359523D02*
X215279580Y-73311904D01*
X215279580Y-73311904D02*
X215327200Y-73264285D01*
X215327200Y-73264285D02*
X215374819Y-73169047D01*
X215374819Y-73169047D02*
X215374819Y-72978571D01*
X215374819Y-72978571D02*
X215327200Y-72883333D01*
X215327200Y-72883333D02*
X215279580Y-72835714D01*
X215279580Y-72835714D02*
X215184342Y-72788095D01*
X215184342Y-72788095D02*
X214993866Y-72788095D01*
X214993866Y-72788095D02*
X214898628Y-72835714D01*
X214898628Y-72835714D02*
X214851009Y-72883333D01*
X214851009Y-72883333D02*
X214803390Y-72978571D01*
X80374819Y-74692857D02*
X79898628Y-75026190D01*
X80374819Y-75264285D02*
X79374819Y-75264285D01*
X79374819Y-75264285D02*
X79374819Y-74883333D01*
X79374819Y-74883333D02*
X79422438Y-74788095D01*
X79422438Y-74788095D02*
X79470057Y-74740476D01*
X79470057Y-74740476D02*
X79565295Y-74692857D01*
X79565295Y-74692857D02*
X79708152Y-74692857D01*
X79708152Y-74692857D02*
X79803390Y-74740476D01*
X79803390Y-74740476D02*
X79851009Y-74788095D01*
X79851009Y-74788095D02*
X79898628Y-74883333D01*
X79898628Y-74883333D02*
X79898628Y-75264285D01*
X80374819Y-73740476D02*
X80374819Y-74311904D01*
X80374819Y-74026190D02*
X79374819Y-74026190D01*
X79374819Y-74026190D02*
X79517676Y-74121428D01*
X79517676Y-74121428D02*
X79612914Y-74216666D01*
X79612914Y-74216666D02*
X79660533Y-74311904D01*
X79374819Y-73407142D02*
X79374819Y-72788095D01*
X79374819Y-72788095D02*
X79755771Y-73121428D01*
X79755771Y-73121428D02*
X79755771Y-72978571D01*
X79755771Y-72978571D02*
X79803390Y-72883333D01*
X79803390Y-72883333D02*
X79851009Y-72835714D01*
X79851009Y-72835714D02*
X79946247Y-72788095D01*
X79946247Y-72788095D02*
X80184342Y-72788095D01*
X80184342Y-72788095D02*
X80279580Y-72835714D01*
X80279580Y-72835714D02*
X80327200Y-72883333D01*
X80327200Y-72883333D02*
X80374819Y-72978571D01*
X80374819Y-72978571D02*
X80374819Y-73264285D01*
X80374819Y-73264285D02*
X80327200Y-73359523D01*
X80327200Y-73359523D02*
X80279580Y-73407142D01*
X110374819Y-74692857D02*
X109898628Y-75026190D01*
X110374819Y-75264285D02*
X109374819Y-75264285D01*
X109374819Y-75264285D02*
X109374819Y-74883333D01*
X109374819Y-74883333D02*
X109422438Y-74788095D01*
X109422438Y-74788095D02*
X109470057Y-74740476D01*
X109470057Y-74740476D02*
X109565295Y-74692857D01*
X109565295Y-74692857D02*
X109708152Y-74692857D01*
X109708152Y-74692857D02*
X109803390Y-74740476D01*
X109803390Y-74740476D02*
X109851009Y-74788095D01*
X109851009Y-74788095D02*
X109898628Y-74883333D01*
X109898628Y-74883333D02*
X109898628Y-75264285D01*
X109470057Y-74311904D02*
X109422438Y-74264285D01*
X109422438Y-74264285D02*
X109374819Y-74169047D01*
X109374819Y-74169047D02*
X109374819Y-73930952D01*
X109374819Y-73930952D02*
X109422438Y-73835714D01*
X109422438Y-73835714D02*
X109470057Y-73788095D01*
X109470057Y-73788095D02*
X109565295Y-73740476D01*
X109565295Y-73740476D02*
X109660533Y-73740476D01*
X109660533Y-73740476D02*
X109803390Y-73788095D01*
X109803390Y-73788095D02*
X110374819Y-74359523D01*
X110374819Y-74359523D02*
X110374819Y-73740476D01*
X109374819Y-73407142D02*
X109374819Y-72788095D01*
X109374819Y-72788095D02*
X109755771Y-73121428D01*
X109755771Y-73121428D02*
X109755771Y-72978571D01*
X109755771Y-72978571D02*
X109803390Y-72883333D01*
X109803390Y-72883333D02*
X109851009Y-72835714D01*
X109851009Y-72835714D02*
X109946247Y-72788095D01*
X109946247Y-72788095D02*
X110184342Y-72788095D01*
X110184342Y-72788095D02*
X110279580Y-72835714D01*
X110279580Y-72835714D02*
X110327200Y-72883333D01*
X110327200Y-72883333D02*
X110374819Y-72978571D01*
X110374819Y-72978571D02*
X110374819Y-73264285D01*
X110374819Y-73264285D02*
X110327200Y-73359523D01*
X110327200Y-73359523D02*
X110279580Y-73407142D01*
X161374819Y-74692857D02*
X160898628Y-75026190D01*
X161374819Y-75264285D02*
X160374819Y-75264285D01*
X160374819Y-75264285D02*
X160374819Y-74883333D01*
X160374819Y-74883333D02*
X160422438Y-74788095D01*
X160422438Y-74788095D02*
X160470057Y-74740476D01*
X160470057Y-74740476D02*
X160565295Y-74692857D01*
X160565295Y-74692857D02*
X160708152Y-74692857D01*
X160708152Y-74692857D02*
X160803390Y-74740476D01*
X160803390Y-74740476D02*
X160851009Y-74788095D01*
X160851009Y-74788095D02*
X160898628Y-74883333D01*
X160898628Y-74883333D02*
X160898628Y-75264285D01*
X160708152Y-73835714D02*
X161374819Y-73835714D01*
X160327200Y-74073809D02*
X161041485Y-74311904D01*
X161041485Y-74311904D02*
X161041485Y-73692857D01*
X160374819Y-73121428D02*
X160374819Y-73026190D01*
X160374819Y-73026190D02*
X160422438Y-72930952D01*
X160422438Y-72930952D02*
X160470057Y-72883333D01*
X160470057Y-72883333D02*
X160565295Y-72835714D01*
X160565295Y-72835714D02*
X160755771Y-72788095D01*
X160755771Y-72788095D02*
X160993866Y-72788095D01*
X160993866Y-72788095D02*
X161184342Y-72835714D01*
X161184342Y-72835714D02*
X161279580Y-72883333D01*
X161279580Y-72883333D02*
X161327200Y-72930952D01*
X161327200Y-72930952D02*
X161374819Y-73026190D01*
X161374819Y-73026190D02*
X161374819Y-73121428D01*
X161374819Y-73121428D02*
X161327200Y-73216666D01*
X161327200Y-73216666D02*
X161279580Y-73264285D01*
X161279580Y-73264285D02*
X161184342Y-73311904D01*
X161184342Y-73311904D02*
X160993866Y-73359523D01*
X160993866Y-73359523D02*
X160755771Y-73359523D01*
X160755771Y-73359523D02*
X160565295Y-73311904D01*
X160565295Y-73311904D02*
X160470057Y-73264285D01*
X160470057Y-73264285D02*
X160422438Y-73216666D01*
X160422438Y-73216666D02*
X160374819Y-73121428D01*
X137374819Y-74692857D02*
X136898628Y-75026190D01*
X137374819Y-75264285D02*
X136374819Y-75264285D01*
X136374819Y-75264285D02*
X136374819Y-74883333D01*
X136374819Y-74883333D02*
X136422438Y-74788095D01*
X136422438Y-74788095D02*
X136470057Y-74740476D01*
X136470057Y-74740476D02*
X136565295Y-74692857D01*
X136565295Y-74692857D02*
X136708152Y-74692857D01*
X136708152Y-74692857D02*
X136803390Y-74740476D01*
X136803390Y-74740476D02*
X136851009Y-74788095D01*
X136851009Y-74788095D02*
X136898628Y-74883333D01*
X136898628Y-74883333D02*
X136898628Y-75264285D01*
X136374819Y-74359523D02*
X136374819Y-73740476D01*
X136374819Y-73740476D02*
X136755771Y-74073809D01*
X136755771Y-74073809D02*
X136755771Y-73930952D01*
X136755771Y-73930952D02*
X136803390Y-73835714D01*
X136803390Y-73835714D02*
X136851009Y-73788095D01*
X136851009Y-73788095D02*
X136946247Y-73740476D01*
X136946247Y-73740476D02*
X137184342Y-73740476D01*
X137184342Y-73740476D02*
X137279580Y-73788095D01*
X137279580Y-73788095D02*
X137327200Y-73835714D01*
X137327200Y-73835714D02*
X137374819Y-73930952D01*
X137374819Y-73930952D02*
X137374819Y-74216666D01*
X137374819Y-74216666D02*
X137327200Y-74311904D01*
X137327200Y-74311904D02*
X137279580Y-74359523D01*
X136470057Y-73359523D02*
X136422438Y-73311904D01*
X136422438Y-73311904D02*
X136374819Y-73216666D01*
X136374819Y-73216666D02*
X136374819Y-72978571D01*
X136374819Y-72978571D02*
X136422438Y-72883333D01*
X136422438Y-72883333D02*
X136470057Y-72835714D01*
X136470057Y-72835714D02*
X136565295Y-72788095D01*
X136565295Y-72788095D02*
X136660533Y-72788095D01*
X136660533Y-72788095D02*
X136803390Y-72835714D01*
X136803390Y-72835714D02*
X137374819Y-73407142D01*
X137374819Y-73407142D02*
X137374819Y-72788095D01*
X134374819Y-74692857D02*
X133898628Y-75026190D01*
X134374819Y-75264285D02*
X133374819Y-75264285D01*
X133374819Y-75264285D02*
X133374819Y-74883333D01*
X133374819Y-74883333D02*
X133422438Y-74788095D01*
X133422438Y-74788095D02*
X133470057Y-74740476D01*
X133470057Y-74740476D02*
X133565295Y-74692857D01*
X133565295Y-74692857D02*
X133708152Y-74692857D01*
X133708152Y-74692857D02*
X133803390Y-74740476D01*
X133803390Y-74740476D02*
X133851009Y-74788095D01*
X133851009Y-74788095D02*
X133898628Y-74883333D01*
X133898628Y-74883333D02*
X133898628Y-75264285D01*
X133374819Y-74359523D02*
X133374819Y-73740476D01*
X133374819Y-73740476D02*
X133755771Y-74073809D01*
X133755771Y-74073809D02*
X133755771Y-73930952D01*
X133755771Y-73930952D02*
X133803390Y-73835714D01*
X133803390Y-73835714D02*
X133851009Y-73788095D01*
X133851009Y-73788095D02*
X133946247Y-73740476D01*
X133946247Y-73740476D02*
X134184342Y-73740476D01*
X134184342Y-73740476D02*
X134279580Y-73788095D01*
X134279580Y-73788095D02*
X134327200Y-73835714D01*
X134327200Y-73835714D02*
X134374819Y-73930952D01*
X134374819Y-73930952D02*
X134374819Y-74216666D01*
X134374819Y-74216666D02*
X134327200Y-74311904D01*
X134327200Y-74311904D02*
X134279580Y-74359523D01*
X134374819Y-72788095D02*
X134374819Y-73359523D01*
X134374819Y-73073809D02*
X133374819Y-73073809D01*
X133374819Y-73073809D02*
X133517676Y-73169047D01*
X133517676Y-73169047D02*
X133612914Y-73264285D01*
X133612914Y-73264285D02*
X133660533Y-73359523D01*
X50224819Y-74126666D02*
X49748628Y-74459999D01*
X50224819Y-74698094D02*
X49224819Y-74698094D01*
X49224819Y-74698094D02*
X49224819Y-74317142D01*
X49224819Y-74317142D02*
X49272438Y-74221904D01*
X49272438Y-74221904D02*
X49320057Y-74174285D01*
X49320057Y-74174285D02*
X49415295Y-74126666D01*
X49415295Y-74126666D02*
X49558152Y-74126666D01*
X49558152Y-74126666D02*
X49653390Y-74174285D01*
X49653390Y-74174285D02*
X49701009Y-74221904D01*
X49701009Y-74221904D02*
X49748628Y-74317142D01*
X49748628Y-74317142D02*
X49748628Y-74698094D01*
X49224819Y-73793332D02*
X49224819Y-73174285D01*
X49224819Y-73174285D02*
X49605771Y-73507618D01*
X49605771Y-73507618D02*
X49605771Y-73364761D01*
X49605771Y-73364761D02*
X49653390Y-73269523D01*
X49653390Y-73269523D02*
X49701009Y-73221904D01*
X49701009Y-73221904D02*
X49796247Y-73174285D01*
X49796247Y-73174285D02*
X50034342Y-73174285D01*
X50034342Y-73174285D02*
X50129580Y-73221904D01*
X50129580Y-73221904D02*
X50177200Y-73269523D01*
X50177200Y-73269523D02*
X50224819Y-73364761D01*
X50224819Y-73364761D02*
X50224819Y-73650475D01*
X50224819Y-73650475D02*
X50177200Y-73745713D01*
X50177200Y-73745713D02*
X50129580Y-73793332D01*
X44249819Y-60776904D02*
X45059342Y-60776904D01*
X45059342Y-60776904D02*
X45154580Y-60729285D01*
X45154580Y-60729285D02*
X45202200Y-60681666D01*
X45202200Y-60681666D02*
X45249819Y-60586428D01*
X45249819Y-60586428D02*
X45249819Y-60395952D01*
X45249819Y-60395952D02*
X45202200Y-60300714D01*
X45202200Y-60300714D02*
X45154580Y-60253095D01*
X45154580Y-60253095D02*
X45059342Y-60205476D01*
X45059342Y-60205476D02*
X44249819Y-60205476D01*
X45249819Y-59205476D02*
X45249819Y-59776904D01*
X45249819Y-59491190D02*
X44249819Y-59491190D01*
X44249819Y-59491190D02*
X44392676Y-59586428D01*
X44392676Y-59586428D02*
X44487914Y-59681666D01*
X44487914Y-59681666D02*
X44535533Y-59776904D01*
X68374819Y-74216666D02*
X67898628Y-74549999D01*
X68374819Y-74788094D02*
X67374819Y-74788094D01*
X67374819Y-74788094D02*
X67374819Y-74407142D01*
X67374819Y-74407142D02*
X67422438Y-74311904D01*
X67422438Y-74311904D02*
X67470057Y-74264285D01*
X67470057Y-74264285D02*
X67565295Y-74216666D01*
X67565295Y-74216666D02*
X67708152Y-74216666D01*
X67708152Y-74216666D02*
X67803390Y-74264285D01*
X67803390Y-74264285D02*
X67851009Y-74311904D01*
X67851009Y-74311904D02*
X67898628Y-74407142D01*
X67898628Y-74407142D02*
X67898628Y-74788094D01*
X68374819Y-73740475D02*
X68374819Y-73549999D01*
X68374819Y-73549999D02*
X68327200Y-73454761D01*
X68327200Y-73454761D02*
X68279580Y-73407142D01*
X68279580Y-73407142D02*
X68136723Y-73311904D01*
X68136723Y-73311904D02*
X67946247Y-73264285D01*
X67946247Y-73264285D02*
X67565295Y-73264285D01*
X67565295Y-73264285D02*
X67470057Y-73311904D01*
X67470057Y-73311904D02*
X67422438Y-73359523D01*
X67422438Y-73359523D02*
X67374819Y-73454761D01*
X67374819Y-73454761D02*
X67374819Y-73645237D01*
X67374819Y-73645237D02*
X67422438Y-73740475D01*
X67422438Y-73740475D02*
X67470057Y-73788094D01*
X67470057Y-73788094D02*
X67565295Y-73835713D01*
X67565295Y-73835713D02*
X67803390Y-73835713D01*
X67803390Y-73835713D02*
X67898628Y-73788094D01*
X67898628Y-73788094D02*
X67946247Y-73740475D01*
X67946247Y-73740475D02*
X67993866Y-73645237D01*
X67993866Y-73645237D02*
X67993866Y-73454761D01*
X67993866Y-73454761D02*
X67946247Y-73359523D01*
X67946247Y-73359523D02*
X67898628Y-73311904D01*
X67898628Y-73311904D02*
X67803390Y-73264285D01*
X170374819Y-74692857D02*
X169898628Y-75026190D01*
X170374819Y-75264285D02*
X169374819Y-75264285D01*
X169374819Y-75264285D02*
X169374819Y-74883333D01*
X169374819Y-74883333D02*
X169422438Y-74788095D01*
X169422438Y-74788095D02*
X169470057Y-74740476D01*
X169470057Y-74740476D02*
X169565295Y-74692857D01*
X169565295Y-74692857D02*
X169708152Y-74692857D01*
X169708152Y-74692857D02*
X169803390Y-74740476D01*
X169803390Y-74740476D02*
X169851009Y-74788095D01*
X169851009Y-74788095D02*
X169898628Y-74883333D01*
X169898628Y-74883333D02*
X169898628Y-75264285D01*
X169708152Y-73835714D02*
X170374819Y-73835714D01*
X169327200Y-74073809D02*
X170041485Y-74311904D01*
X170041485Y-74311904D02*
X170041485Y-73692857D01*
X169374819Y-73407142D02*
X169374819Y-72788095D01*
X169374819Y-72788095D02*
X169755771Y-73121428D01*
X169755771Y-73121428D02*
X169755771Y-72978571D01*
X169755771Y-72978571D02*
X169803390Y-72883333D01*
X169803390Y-72883333D02*
X169851009Y-72835714D01*
X169851009Y-72835714D02*
X169946247Y-72788095D01*
X169946247Y-72788095D02*
X170184342Y-72788095D01*
X170184342Y-72788095D02*
X170279580Y-72835714D01*
X170279580Y-72835714D02*
X170327200Y-72883333D01*
X170327200Y-72883333D02*
X170374819Y-72978571D01*
X170374819Y-72978571D02*
X170374819Y-73264285D01*
X170374819Y-73264285D02*
X170327200Y-73359523D01*
X170327200Y-73359523D02*
X170279580Y-73407142D01*
X140474819Y-74692857D02*
X139998628Y-75026190D01*
X140474819Y-75264285D02*
X139474819Y-75264285D01*
X139474819Y-75264285D02*
X139474819Y-74883333D01*
X139474819Y-74883333D02*
X139522438Y-74788095D01*
X139522438Y-74788095D02*
X139570057Y-74740476D01*
X139570057Y-74740476D02*
X139665295Y-74692857D01*
X139665295Y-74692857D02*
X139808152Y-74692857D01*
X139808152Y-74692857D02*
X139903390Y-74740476D01*
X139903390Y-74740476D02*
X139951009Y-74788095D01*
X139951009Y-74788095D02*
X139998628Y-74883333D01*
X139998628Y-74883333D02*
X139998628Y-75264285D01*
X139474819Y-74359523D02*
X139474819Y-73740476D01*
X139474819Y-73740476D02*
X139855771Y-74073809D01*
X139855771Y-74073809D02*
X139855771Y-73930952D01*
X139855771Y-73930952D02*
X139903390Y-73835714D01*
X139903390Y-73835714D02*
X139951009Y-73788095D01*
X139951009Y-73788095D02*
X140046247Y-73740476D01*
X140046247Y-73740476D02*
X140284342Y-73740476D01*
X140284342Y-73740476D02*
X140379580Y-73788095D01*
X140379580Y-73788095D02*
X140427200Y-73835714D01*
X140427200Y-73835714D02*
X140474819Y-73930952D01*
X140474819Y-73930952D02*
X140474819Y-74216666D01*
X140474819Y-74216666D02*
X140427200Y-74311904D01*
X140427200Y-74311904D02*
X140379580Y-74359523D01*
X139474819Y-73407142D02*
X139474819Y-72788095D01*
X139474819Y-72788095D02*
X139855771Y-73121428D01*
X139855771Y-73121428D02*
X139855771Y-72978571D01*
X139855771Y-72978571D02*
X139903390Y-72883333D01*
X139903390Y-72883333D02*
X139951009Y-72835714D01*
X139951009Y-72835714D02*
X140046247Y-72788095D01*
X140046247Y-72788095D02*
X140284342Y-72788095D01*
X140284342Y-72788095D02*
X140379580Y-72835714D01*
X140379580Y-72835714D02*
X140427200Y-72883333D01*
X140427200Y-72883333D02*
X140474819Y-72978571D01*
X140474819Y-72978571D02*
X140474819Y-73264285D01*
X140474819Y-73264285D02*
X140427200Y-73359523D01*
X140427200Y-73359523D02*
X140379580Y-73407142D01*
X122226190Y-88854819D02*
X121892857Y-88378628D01*
X121654762Y-88854819D02*
X121654762Y-87854819D01*
X121654762Y-87854819D02*
X122035714Y-87854819D01*
X122035714Y-87854819D02*
X122130952Y-87902438D01*
X122130952Y-87902438D02*
X122178571Y-87950057D01*
X122178571Y-87950057D02*
X122226190Y-88045295D01*
X122226190Y-88045295D02*
X122226190Y-88188152D01*
X122226190Y-88188152D02*
X122178571Y-88283390D01*
X122178571Y-88283390D02*
X122130952Y-88331009D01*
X122130952Y-88331009D02*
X122035714Y-88378628D01*
X122035714Y-88378628D02*
X121654762Y-88378628D01*
X122797619Y-88854819D02*
X122702381Y-88807200D01*
X122702381Y-88807200D02*
X122654762Y-88759580D01*
X122654762Y-88759580D02*
X122607143Y-88664342D01*
X122607143Y-88664342D02*
X122607143Y-88378628D01*
X122607143Y-88378628D02*
X122654762Y-88283390D01*
X122654762Y-88283390D02*
X122702381Y-88235771D01*
X122702381Y-88235771D02*
X122797619Y-88188152D01*
X122797619Y-88188152D02*
X122940476Y-88188152D01*
X122940476Y-88188152D02*
X123035714Y-88235771D01*
X123035714Y-88235771D02*
X123083333Y-88283390D01*
X123083333Y-88283390D02*
X123130952Y-88378628D01*
X123130952Y-88378628D02*
X123130952Y-88664342D01*
X123130952Y-88664342D02*
X123083333Y-88759580D01*
X123083333Y-88759580D02*
X123035714Y-88807200D01*
X123035714Y-88807200D02*
X122940476Y-88854819D01*
X122940476Y-88854819D02*
X122797619Y-88854819D01*
X123464286Y-88188152D02*
X123654762Y-88854819D01*
X123654762Y-88854819D02*
X123845238Y-88378628D01*
X123845238Y-88378628D02*
X124035714Y-88854819D01*
X124035714Y-88854819D02*
X124226190Y-88188152D01*
X124369048Y-88950057D02*
X125130952Y-88950057D01*
X125797619Y-88188152D02*
X125797619Y-88854819D01*
X125559524Y-87807200D02*
X125321429Y-88521485D01*
X125321429Y-88521485D02*
X125940476Y-88521485D01*
X116374819Y-74692857D02*
X115898628Y-75026190D01*
X116374819Y-75264285D02*
X115374819Y-75264285D01*
X115374819Y-75264285D02*
X115374819Y-74883333D01*
X115374819Y-74883333D02*
X115422438Y-74788095D01*
X115422438Y-74788095D02*
X115470057Y-74740476D01*
X115470057Y-74740476D02*
X115565295Y-74692857D01*
X115565295Y-74692857D02*
X115708152Y-74692857D01*
X115708152Y-74692857D02*
X115803390Y-74740476D01*
X115803390Y-74740476D02*
X115851009Y-74788095D01*
X115851009Y-74788095D02*
X115898628Y-74883333D01*
X115898628Y-74883333D02*
X115898628Y-75264285D01*
X115470057Y-74311904D02*
X115422438Y-74264285D01*
X115422438Y-74264285D02*
X115374819Y-74169047D01*
X115374819Y-74169047D02*
X115374819Y-73930952D01*
X115374819Y-73930952D02*
X115422438Y-73835714D01*
X115422438Y-73835714D02*
X115470057Y-73788095D01*
X115470057Y-73788095D02*
X115565295Y-73740476D01*
X115565295Y-73740476D02*
X115660533Y-73740476D01*
X115660533Y-73740476D02*
X115803390Y-73788095D01*
X115803390Y-73788095D02*
X116374819Y-74359523D01*
X116374819Y-74359523D02*
X116374819Y-73740476D01*
X115374819Y-72835714D02*
X115374819Y-73311904D01*
X115374819Y-73311904D02*
X115851009Y-73359523D01*
X115851009Y-73359523D02*
X115803390Y-73311904D01*
X115803390Y-73311904D02*
X115755771Y-73216666D01*
X115755771Y-73216666D02*
X115755771Y-72978571D01*
X115755771Y-72978571D02*
X115803390Y-72883333D01*
X115803390Y-72883333D02*
X115851009Y-72835714D01*
X115851009Y-72835714D02*
X115946247Y-72788095D01*
X115946247Y-72788095D02*
X116184342Y-72788095D01*
X116184342Y-72788095D02*
X116279580Y-72835714D01*
X116279580Y-72835714D02*
X116327200Y-72883333D01*
X116327200Y-72883333D02*
X116374819Y-72978571D01*
X116374819Y-72978571D02*
X116374819Y-73216666D01*
X116374819Y-73216666D02*
X116327200Y-73311904D01*
X116327200Y-73311904D02*
X116279580Y-73359523D01*
X131274819Y-74692857D02*
X130798628Y-75026190D01*
X131274819Y-75264285D02*
X130274819Y-75264285D01*
X130274819Y-75264285D02*
X130274819Y-74883333D01*
X130274819Y-74883333D02*
X130322438Y-74788095D01*
X130322438Y-74788095D02*
X130370057Y-74740476D01*
X130370057Y-74740476D02*
X130465295Y-74692857D01*
X130465295Y-74692857D02*
X130608152Y-74692857D01*
X130608152Y-74692857D02*
X130703390Y-74740476D01*
X130703390Y-74740476D02*
X130751009Y-74788095D01*
X130751009Y-74788095D02*
X130798628Y-74883333D01*
X130798628Y-74883333D02*
X130798628Y-75264285D01*
X130274819Y-74359523D02*
X130274819Y-73740476D01*
X130274819Y-73740476D02*
X130655771Y-74073809D01*
X130655771Y-74073809D02*
X130655771Y-73930952D01*
X130655771Y-73930952D02*
X130703390Y-73835714D01*
X130703390Y-73835714D02*
X130751009Y-73788095D01*
X130751009Y-73788095D02*
X130846247Y-73740476D01*
X130846247Y-73740476D02*
X131084342Y-73740476D01*
X131084342Y-73740476D02*
X131179580Y-73788095D01*
X131179580Y-73788095D02*
X131227200Y-73835714D01*
X131227200Y-73835714D02*
X131274819Y-73930952D01*
X131274819Y-73930952D02*
X131274819Y-74216666D01*
X131274819Y-74216666D02*
X131227200Y-74311904D01*
X131227200Y-74311904D02*
X131179580Y-74359523D01*
X130274819Y-73121428D02*
X130274819Y-73026190D01*
X130274819Y-73026190D02*
X130322438Y-72930952D01*
X130322438Y-72930952D02*
X130370057Y-72883333D01*
X130370057Y-72883333D02*
X130465295Y-72835714D01*
X130465295Y-72835714D02*
X130655771Y-72788095D01*
X130655771Y-72788095D02*
X130893866Y-72788095D01*
X130893866Y-72788095D02*
X131084342Y-72835714D01*
X131084342Y-72835714D02*
X131179580Y-72883333D01*
X131179580Y-72883333D02*
X131227200Y-72930952D01*
X131227200Y-72930952D02*
X131274819Y-73026190D01*
X131274819Y-73026190D02*
X131274819Y-73121428D01*
X131274819Y-73121428D02*
X131227200Y-73216666D01*
X131227200Y-73216666D02*
X131179580Y-73264285D01*
X131179580Y-73264285D02*
X131084342Y-73311904D01*
X131084342Y-73311904D02*
X130893866Y-73359523D01*
X130893866Y-73359523D02*
X130655771Y-73359523D01*
X130655771Y-73359523D02*
X130465295Y-73311904D01*
X130465295Y-73311904D02*
X130370057Y-73264285D01*
X130370057Y-73264285D02*
X130322438Y-73216666D01*
X130322438Y-73216666D02*
X130274819Y-73121428D01*
X104374819Y-74692857D02*
X103898628Y-75026190D01*
X104374819Y-75264285D02*
X103374819Y-75264285D01*
X103374819Y-75264285D02*
X103374819Y-74883333D01*
X103374819Y-74883333D02*
X103422438Y-74788095D01*
X103422438Y-74788095D02*
X103470057Y-74740476D01*
X103470057Y-74740476D02*
X103565295Y-74692857D01*
X103565295Y-74692857D02*
X103708152Y-74692857D01*
X103708152Y-74692857D02*
X103803390Y-74740476D01*
X103803390Y-74740476D02*
X103851009Y-74788095D01*
X103851009Y-74788095D02*
X103898628Y-74883333D01*
X103898628Y-74883333D02*
X103898628Y-75264285D01*
X103470057Y-74311904D02*
X103422438Y-74264285D01*
X103422438Y-74264285D02*
X103374819Y-74169047D01*
X103374819Y-74169047D02*
X103374819Y-73930952D01*
X103374819Y-73930952D02*
X103422438Y-73835714D01*
X103422438Y-73835714D02*
X103470057Y-73788095D01*
X103470057Y-73788095D02*
X103565295Y-73740476D01*
X103565295Y-73740476D02*
X103660533Y-73740476D01*
X103660533Y-73740476D02*
X103803390Y-73788095D01*
X103803390Y-73788095D02*
X104374819Y-74359523D01*
X104374819Y-74359523D02*
X104374819Y-73740476D01*
X104374819Y-72788095D02*
X104374819Y-73359523D01*
X104374819Y-73073809D02*
X103374819Y-73073809D01*
X103374819Y-73073809D02*
X103517676Y-73169047D01*
X103517676Y-73169047D02*
X103612914Y-73264285D01*
X103612914Y-73264285D02*
X103660533Y-73359523D01*
X158374819Y-74692857D02*
X157898628Y-75026190D01*
X158374819Y-75264285D02*
X157374819Y-75264285D01*
X157374819Y-75264285D02*
X157374819Y-74883333D01*
X157374819Y-74883333D02*
X157422438Y-74788095D01*
X157422438Y-74788095D02*
X157470057Y-74740476D01*
X157470057Y-74740476D02*
X157565295Y-74692857D01*
X157565295Y-74692857D02*
X157708152Y-74692857D01*
X157708152Y-74692857D02*
X157803390Y-74740476D01*
X157803390Y-74740476D02*
X157851009Y-74788095D01*
X157851009Y-74788095D02*
X157898628Y-74883333D01*
X157898628Y-74883333D02*
X157898628Y-75264285D01*
X157374819Y-74359523D02*
X157374819Y-73740476D01*
X157374819Y-73740476D02*
X157755771Y-74073809D01*
X157755771Y-74073809D02*
X157755771Y-73930952D01*
X157755771Y-73930952D02*
X157803390Y-73835714D01*
X157803390Y-73835714D02*
X157851009Y-73788095D01*
X157851009Y-73788095D02*
X157946247Y-73740476D01*
X157946247Y-73740476D02*
X158184342Y-73740476D01*
X158184342Y-73740476D02*
X158279580Y-73788095D01*
X158279580Y-73788095D02*
X158327200Y-73835714D01*
X158327200Y-73835714D02*
X158374819Y-73930952D01*
X158374819Y-73930952D02*
X158374819Y-74216666D01*
X158374819Y-74216666D02*
X158327200Y-74311904D01*
X158327200Y-74311904D02*
X158279580Y-74359523D01*
X158374819Y-73264285D02*
X158374819Y-73073809D01*
X158374819Y-73073809D02*
X158327200Y-72978571D01*
X158327200Y-72978571D02*
X158279580Y-72930952D01*
X158279580Y-72930952D02*
X158136723Y-72835714D01*
X158136723Y-72835714D02*
X157946247Y-72788095D01*
X157946247Y-72788095D02*
X157565295Y-72788095D01*
X157565295Y-72788095D02*
X157470057Y-72835714D01*
X157470057Y-72835714D02*
X157422438Y-72883333D01*
X157422438Y-72883333D02*
X157374819Y-72978571D01*
X157374819Y-72978571D02*
X157374819Y-73169047D01*
X157374819Y-73169047D02*
X157422438Y-73264285D01*
X157422438Y-73264285D02*
X157470057Y-73311904D01*
X157470057Y-73311904D02*
X157565295Y-73359523D01*
X157565295Y-73359523D02*
X157803390Y-73359523D01*
X157803390Y-73359523D02*
X157898628Y-73311904D01*
X157898628Y-73311904D02*
X157946247Y-73264285D01*
X157946247Y-73264285D02*
X157993866Y-73169047D01*
X157993866Y-73169047D02*
X157993866Y-72978571D01*
X157993866Y-72978571D02*
X157946247Y-72883333D01*
X157946247Y-72883333D02*
X157898628Y-72835714D01*
X157898628Y-72835714D02*
X157803390Y-72788095D01*
X53374819Y-74126666D02*
X52898628Y-74459999D01*
X53374819Y-74698094D02*
X52374819Y-74698094D01*
X52374819Y-74698094D02*
X52374819Y-74317142D01*
X52374819Y-74317142D02*
X52422438Y-74221904D01*
X52422438Y-74221904D02*
X52470057Y-74174285D01*
X52470057Y-74174285D02*
X52565295Y-74126666D01*
X52565295Y-74126666D02*
X52708152Y-74126666D01*
X52708152Y-74126666D02*
X52803390Y-74174285D01*
X52803390Y-74174285D02*
X52851009Y-74221904D01*
X52851009Y-74221904D02*
X52898628Y-74317142D01*
X52898628Y-74317142D02*
X52898628Y-74698094D01*
X52708152Y-73269523D02*
X53374819Y-73269523D01*
X52327200Y-73507618D02*
X53041485Y-73745713D01*
X53041485Y-73745713D02*
X53041485Y-73126666D01*
X159484819Y-60371904D02*
X160294342Y-60371904D01*
X160294342Y-60371904D02*
X160389580Y-60324285D01*
X160389580Y-60324285D02*
X160437200Y-60276666D01*
X160437200Y-60276666D02*
X160484819Y-60181428D01*
X160484819Y-60181428D02*
X160484819Y-59990952D01*
X160484819Y-59990952D02*
X160437200Y-59895714D01*
X160437200Y-59895714D02*
X160389580Y-59848095D01*
X160389580Y-59848095D02*
X160294342Y-59800476D01*
X160294342Y-59800476D02*
X159484819Y-59800476D01*
X159484819Y-58895714D02*
X159484819Y-59086190D01*
X159484819Y-59086190D02*
X159532438Y-59181428D01*
X159532438Y-59181428D02*
X159580057Y-59229047D01*
X159580057Y-59229047D02*
X159722914Y-59324285D01*
X159722914Y-59324285D02*
X159913390Y-59371904D01*
X159913390Y-59371904D02*
X160294342Y-59371904D01*
X160294342Y-59371904D02*
X160389580Y-59324285D01*
X160389580Y-59324285D02*
X160437200Y-59276666D01*
X160437200Y-59276666D02*
X160484819Y-59181428D01*
X160484819Y-59181428D02*
X160484819Y-58990952D01*
X160484819Y-58990952D02*
X160437200Y-58895714D01*
X160437200Y-58895714D02*
X160389580Y-58848095D01*
X160389580Y-58848095D02*
X160294342Y-58800476D01*
X160294342Y-58800476D02*
X160056247Y-58800476D01*
X160056247Y-58800476D02*
X159961009Y-58848095D01*
X159961009Y-58848095D02*
X159913390Y-58895714D01*
X159913390Y-58895714D02*
X159865771Y-58990952D01*
X159865771Y-58990952D02*
X159865771Y-59181428D01*
X159865771Y-59181428D02*
X159913390Y-59276666D01*
X159913390Y-59276666D02*
X159961009Y-59324285D01*
X159961009Y-59324285D02*
X160056247Y-59371904D01*
X146726190Y-88854819D02*
X146392857Y-88378628D01*
X146154762Y-88854819D02*
X146154762Y-87854819D01*
X146154762Y-87854819D02*
X146535714Y-87854819D01*
X146535714Y-87854819D02*
X146630952Y-87902438D01*
X146630952Y-87902438D02*
X146678571Y-87950057D01*
X146678571Y-87950057D02*
X146726190Y-88045295D01*
X146726190Y-88045295D02*
X146726190Y-88188152D01*
X146726190Y-88188152D02*
X146678571Y-88283390D01*
X146678571Y-88283390D02*
X146630952Y-88331009D01*
X146630952Y-88331009D02*
X146535714Y-88378628D01*
X146535714Y-88378628D02*
X146154762Y-88378628D01*
X147297619Y-88854819D02*
X147202381Y-88807200D01*
X147202381Y-88807200D02*
X147154762Y-88759580D01*
X147154762Y-88759580D02*
X147107143Y-88664342D01*
X147107143Y-88664342D02*
X147107143Y-88378628D01*
X147107143Y-88378628D02*
X147154762Y-88283390D01*
X147154762Y-88283390D02*
X147202381Y-88235771D01*
X147202381Y-88235771D02*
X147297619Y-88188152D01*
X147297619Y-88188152D02*
X147440476Y-88188152D01*
X147440476Y-88188152D02*
X147535714Y-88235771D01*
X147535714Y-88235771D02*
X147583333Y-88283390D01*
X147583333Y-88283390D02*
X147630952Y-88378628D01*
X147630952Y-88378628D02*
X147630952Y-88664342D01*
X147630952Y-88664342D02*
X147583333Y-88759580D01*
X147583333Y-88759580D02*
X147535714Y-88807200D01*
X147535714Y-88807200D02*
X147440476Y-88854819D01*
X147440476Y-88854819D02*
X147297619Y-88854819D01*
X147964286Y-88188152D02*
X148154762Y-88854819D01*
X148154762Y-88854819D02*
X148345238Y-88378628D01*
X148345238Y-88378628D02*
X148535714Y-88854819D01*
X148535714Y-88854819D02*
X148726190Y-88188152D01*
X148869048Y-88950057D02*
X149630952Y-88950057D01*
X150345238Y-87854819D02*
X149869048Y-87854819D01*
X149869048Y-87854819D02*
X149821429Y-88331009D01*
X149821429Y-88331009D02*
X149869048Y-88283390D01*
X149869048Y-88283390D02*
X149964286Y-88235771D01*
X149964286Y-88235771D02*
X150202381Y-88235771D01*
X150202381Y-88235771D02*
X150297619Y-88283390D01*
X150297619Y-88283390D02*
X150345238Y-88331009D01*
X150345238Y-88331009D02*
X150392857Y-88426247D01*
X150392857Y-88426247D02*
X150392857Y-88664342D01*
X150392857Y-88664342D02*
X150345238Y-88759580D01*
X150345238Y-88759580D02*
X150297619Y-88807200D01*
X150297619Y-88807200D02*
X150202381Y-88854819D01*
X150202381Y-88854819D02*
X149964286Y-88854819D01*
X149964286Y-88854819D02*
X149869048Y-88807200D01*
X149869048Y-88807200D02*
X149821429Y-88759580D01*
X74374819Y-74692857D02*
X73898628Y-75026190D01*
X74374819Y-75264285D02*
X73374819Y-75264285D01*
X73374819Y-75264285D02*
X73374819Y-74883333D01*
X73374819Y-74883333D02*
X73422438Y-74788095D01*
X73422438Y-74788095D02*
X73470057Y-74740476D01*
X73470057Y-74740476D02*
X73565295Y-74692857D01*
X73565295Y-74692857D02*
X73708152Y-74692857D01*
X73708152Y-74692857D02*
X73803390Y-74740476D01*
X73803390Y-74740476D02*
X73851009Y-74788095D01*
X73851009Y-74788095D02*
X73898628Y-74883333D01*
X73898628Y-74883333D02*
X73898628Y-75264285D01*
X74374819Y-73740476D02*
X74374819Y-74311904D01*
X74374819Y-74026190D02*
X73374819Y-74026190D01*
X73374819Y-74026190D02*
X73517676Y-74121428D01*
X73517676Y-74121428D02*
X73612914Y-74216666D01*
X73612914Y-74216666D02*
X73660533Y-74311904D01*
X74374819Y-72788095D02*
X74374819Y-73359523D01*
X74374819Y-73073809D02*
X73374819Y-73073809D01*
X73374819Y-73073809D02*
X73517676Y-73169047D01*
X73517676Y-73169047D02*
X73612914Y-73264285D01*
X73612914Y-73264285D02*
X73660533Y-73359523D01*
X64874819Y-74602857D02*
X64398628Y-74936190D01*
X64874819Y-75174285D02*
X63874819Y-75174285D01*
X63874819Y-75174285D02*
X63874819Y-74793333D01*
X63874819Y-74793333D02*
X63922438Y-74698095D01*
X63922438Y-74698095D02*
X63970057Y-74650476D01*
X63970057Y-74650476D02*
X64065295Y-74602857D01*
X64065295Y-74602857D02*
X64208152Y-74602857D01*
X64208152Y-74602857D02*
X64303390Y-74650476D01*
X64303390Y-74650476D02*
X64351009Y-74698095D01*
X64351009Y-74698095D02*
X64398628Y-74793333D01*
X64398628Y-74793333D02*
X64398628Y-75174285D01*
X63970057Y-74221904D02*
X63922438Y-74174285D01*
X63922438Y-74174285D02*
X63874819Y-74079047D01*
X63874819Y-74079047D02*
X63874819Y-73840952D01*
X63874819Y-73840952D02*
X63922438Y-73745714D01*
X63922438Y-73745714D02*
X63970057Y-73698095D01*
X63970057Y-73698095D02*
X64065295Y-73650476D01*
X64065295Y-73650476D02*
X64160533Y-73650476D01*
X64160533Y-73650476D02*
X64303390Y-73698095D01*
X64303390Y-73698095D02*
X64874819Y-74269523D01*
X64874819Y-74269523D02*
X64874819Y-73650476D01*
X64208152Y-72793333D02*
X64874819Y-72793333D01*
X63827200Y-73031428D02*
X64541485Y-73269523D01*
X64541485Y-73269523D02*
X64541485Y-72650476D01*
X149374819Y-74692857D02*
X148898628Y-75026190D01*
X149374819Y-75264285D02*
X148374819Y-75264285D01*
X148374819Y-75264285D02*
X148374819Y-74883333D01*
X148374819Y-74883333D02*
X148422438Y-74788095D01*
X148422438Y-74788095D02*
X148470057Y-74740476D01*
X148470057Y-74740476D02*
X148565295Y-74692857D01*
X148565295Y-74692857D02*
X148708152Y-74692857D01*
X148708152Y-74692857D02*
X148803390Y-74740476D01*
X148803390Y-74740476D02*
X148851009Y-74788095D01*
X148851009Y-74788095D02*
X148898628Y-74883333D01*
X148898628Y-74883333D02*
X148898628Y-75264285D01*
X148374819Y-74359523D02*
X148374819Y-73740476D01*
X148374819Y-73740476D02*
X148755771Y-74073809D01*
X148755771Y-74073809D02*
X148755771Y-73930952D01*
X148755771Y-73930952D02*
X148803390Y-73835714D01*
X148803390Y-73835714D02*
X148851009Y-73788095D01*
X148851009Y-73788095D02*
X148946247Y-73740476D01*
X148946247Y-73740476D02*
X149184342Y-73740476D01*
X149184342Y-73740476D02*
X149279580Y-73788095D01*
X149279580Y-73788095D02*
X149327200Y-73835714D01*
X149327200Y-73835714D02*
X149374819Y-73930952D01*
X149374819Y-73930952D02*
X149374819Y-74216666D01*
X149374819Y-74216666D02*
X149327200Y-74311904D01*
X149327200Y-74311904D02*
X149279580Y-74359523D01*
X148374819Y-72883333D02*
X148374819Y-73073809D01*
X148374819Y-73073809D02*
X148422438Y-73169047D01*
X148422438Y-73169047D02*
X148470057Y-73216666D01*
X148470057Y-73216666D02*
X148612914Y-73311904D01*
X148612914Y-73311904D02*
X148803390Y-73359523D01*
X148803390Y-73359523D02*
X149184342Y-73359523D01*
X149184342Y-73359523D02*
X149279580Y-73311904D01*
X149279580Y-73311904D02*
X149327200Y-73264285D01*
X149327200Y-73264285D02*
X149374819Y-73169047D01*
X149374819Y-73169047D02*
X149374819Y-72978571D01*
X149374819Y-72978571D02*
X149327200Y-72883333D01*
X149327200Y-72883333D02*
X149279580Y-72835714D01*
X149279580Y-72835714D02*
X149184342Y-72788095D01*
X149184342Y-72788095D02*
X148946247Y-72788095D01*
X148946247Y-72788095D02*
X148851009Y-72835714D01*
X148851009Y-72835714D02*
X148803390Y-72883333D01*
X148803390Y-72883333D02*
X148755771Y-72978571D01*
X148755771Y-72978571D02*
X148755771Y-73169047D01*
X148755771Y-73169047D02*
X148803390Y-73264285D01*
X148803390Y-73264285D02*
X148851009Y-73311904D01*
X148851009Y-73311904D02*
X148946247Y-73359523D01*
X212574819Y-74692857D02*
X212098628Y-75026190D01*
X212574819Y-75264285D02*
X211574819Y-75264285D01*
X211574819Y-75264285D02*
X211574819Y-74883333D01*
X211574819Y-74883333D02*
X211622438Y-74788095D01*
X211622438Y-74788095D02*
X211670057Y-74740476D01*
X211670057Y-74740476D02*
X211765295Y-74692857D01*
X211765295Y-74692857D02*
X211908152Y-74692857D01*
X211908152Y-74692857D02*
X212003390Y-74740476D01*
X212003390Y-74740476D02*
X212051009Y-74788095D01*
X212051009Y-74788095D02*
X212098628Y-74883333D01*
X212098628Y-74883333D02*
X212098628Y-75264285D01*
X211574819Y-73788095D02*
X211574819Y-74264285D01*
X211574819Y-74264285D02*
X212051009Y-74311904D01*
X212051009Y-74311904D02*
X212003390Y-74264285D01*
X212003390Y-74264285D02*
X211955771Y-74169047D01*
X211955771Y-74169047D02*
X211955771Y-73930952D01*
X211955771Y-73930952D02*
X212003390Y-73835714D01*
X212003390Y-73835714D02*
X212051009Y-73788095D01*
X212051009Y-73788095D02*
X212146247Y-73740476D01*
X212146247Y-73740476D02*
X212384342Y-73740476D01*
X212384342Y-73740476D02*
X212479580Y-73788095D01*
X212479580Y-73788095D02*
X212527200Y-73835714D01*
X212527200Y-73835714D02*
X212574819Y-73930952D01*
X212574819Y-73930952D02*
X212574819Y-74169047D01*
X212574819Y-74169047D02*
X212527200Y-74264285D01*
X212527200Y-74264285D02*
X212479580Y-74311904D01*
X211574819Y-73407142D02*
X211574819Y-72740476D01*
X211574819Y-72740476D02*
X212574819Y-73169047D01*
X98226190Y-88854819D02*
X97892857Y-88378628D01*
X97654762Y-88854819D02*
X97654762Y-87854819D01*
X97654762Y-87854819D02*
X98035714Y-87854819D01*
X98035714Y-87854819D02*
X98130952Y-87902438D01*
X98130952Y-87902438D02*
X98178571Y-87950057D01*
X98178571Y-87950057D02*
X98226190Y-88045295D01*
X98226190Y-88045295D02*
X98226190Y-88188152D01*
X98226190Y-88188152D02*
X98178571Y-88283390D01*
X98178571Y-88283390D02*
X98130952Y-88331009D01*
X98130952Y-88331009D02*
X98035714Y-88378628D01*
X98035714Y-88378628D02*
X97654762Y-88378628D01*
X98797619Y-88854819D02*
X98702381Y-88807200D01*
X98702381Y-88807200D02*
X98654762Y-88759580D01*
X98654762Y-88759580D02*
X98607143Y-88664342D01*
X98607143Y-88664342D02*
X98607143Y-88378628D01*
X98607143Y-88378628D02*
X98654762Y-88283390D01*
X98654762Y-88283390D02*
X98702381Y-88235771D01*
X98702381Y-88235771D02*
X98797619Y-88188152D01*
X98797619Y-88188152D02*
X98940476Y-88188152D01*
X98940476Y-88188152D02*
X99035714Y-88235771D01*
X99035714Y-88235771D02*
X99083333Y-88283390D01*
X99083333Y-88283390D02*
X99130952Y-88378628D01*
X99130952Y-88378628D02*
X99130952Y-88664342D01*
X99130952Y-88664342D02*
X99083333Y-88759580D01*
X99083333Y-88759580D02*
X99035714Y-88807200D01*
X99035714Y-88807200D02*
X98940476Y-88854819D01*
X98940476Y-88854819D02*
X98797619Y-88854819D01*
X99464286Y-88188152D02*
X99654762Y-88854819D01*
X99654762Y-88854819D02*
X99845238Y-88378628D01*
X99845238Y-88378628D02*
X100035714Y-88854819D01*
X100035714Y-88854819D02*
X100226190Y-88188152D01*
X100369048Y-88950057D02*
X101130952Y-88950057D01*
X101273810Y-87854819D02*
X101892857Y-87854819D01*
X101892857Y-87854819D02*
X101559524Y-88235771D01*
X101559524Y-88235771D02*
X101702381Y-88235771D01*
X101702381Y-88235771D02*
X101797619Y-88283390D01*
X101797619Y-88283390D02*
X101845238Y-88331009D01*
X101845238Y-88331009D02*
X101892857Y-88426247D01*
X101892857Y-88426247D02*
X101892857Y-88664342D01*
X101892857Y-88664342D02*
X101845238Y-88759580D01*
X101845238Y-88759580D02*
X101797619Y-88807200D01*
X101797619Y-88807200D02*
X101702381Y-88854819D01*
X101702381Y-88854819D02*
X101416667Y-88854819D01*
X101416667Y-88854819D02*
X101321429Y-88807200D01*
X101321429Y-88807200D02*
X101273810Y-88759580D01*
X143374819Y-74692857D02*
X142898628Y-75026190D01*
X143374819Y-75264285D02*
X142374819Y-75264285D01*
X142374819Y-75264285D02*
X142374819Y-74883333D01*
X142374819Y-74883333D02*
X142422438Y-74788095D01*
X142422438Y-74788095D02*
X142470057Y-74740476D01*
X142470057Y-74740476D02*
X142565295Y-74692857D01*
X142565295Y-74692857D02*
X142708152Y-74692857D01*
X142708152Y-74692857D02*
X142803390Y-74740476D01*
X142803390Y-74740476D02*
X142851009Y-74788095D01*
X142851009Y-74788095D02*
X142898628Y-74883333D01*
X142898628Y-74883333D02*
X142898628Y-75264285D01*
X142374819Y-74359523D02*
X142374819Y-73740476D01*
X142374819Y-73740476D02*
X142755771Y-74073809D01*
X142755771Y-74073809D02*
X142755771Y-73930952D01*
X142755771Y-73930952D02*
X142803390Y-73835714D01*
X142803390Y-73835714D02*
X142851009Y-73788095D01*
X142851009Y-73788095D02*
X142946247Y-73740476D01*
X142946247Y-73740476D02*
X143184342Y-73740476D01*
X143184342Y-73740476D02*
X143279580Y-73788095D01*
X143279580Y-73788095D02*
X143327200Y-73835714D01*
X143327200Y-73835714D02*
X143374819Y-73930952D01*
X143374819Y-73930952D02*
X143374819Y-74216666D01*
X143374819Y-74216666D02*
X143327200Y-74311904D01*
X143327200Y-74311904D02*
X143279580Y-74359523D01*
X142708152Y-72883333D02*
X143374819Y-72883333D01*
X142327200Y-73121428D02*
X143041485Y-73359523D01*
X143041485Y-73359523D02*
X143041485Y-72740476D01*
X86374819Y-74692857D02*
X85898628Y-75026190D01*
X86374819Y-75264285D02*
X85374819Y-75264285D01*
X85374819Y-75264285D02*
X85374819Y-74883333D01*
X85374819Y-74883333D02*
X85422438Y-74788095D01*
X85422438Y-74788095D02*
X85470057Y-74740476D01*
X85470057Y-74740476D02*
X85565295Y-74692857D01*
X85565295Y-74692857D02*
X85708152Y-74692857D01*
X85708152Y-74692857D02*
X85803390Y-74740476D01*
X85803390Y-74740476D02*
X85851009Y-74788095D01*
X85851009Y-74788095D02*
X85898628Y-74883333D01*
X85898628Y-74883333D02*
X85898628Y-75264285D01*
X86374819Y-73740476D02*
X86374819Y-74311904D01*
X86374819Y-74026190D02*
X85374819Y-74026190D01*
X85374819Y-74026190D02*
X85517676Y-74121428D01*
X85517676Y-74121428D02*
X85612914Y-74216666D01*
X85612914Y-74216666D02*
X85660533Y-74311904D01*
X85374819Y-72835714D02*
X85374819Y-73311904D01*
X85374819Y-73311904D02*
X85851009Y-73359523D01*
X85851009Y-73359523D02*
X85803390Y-73311904D01*
X85803390Y-73311904D02*
X85755771Y-73216666D01*
X85755771Y-73216666D02*
X85755771Y-72978571D01*
X85755771Y-72978571D02*
X85803390Y-72883333D01*
X85803390Y-72883333D02*
X85851009Y-72835714D01*
X85851009Y-72835714D02*
X85946247Y-72788095D01*
X85946247Y-72788095D02*
X86184342Y-72788095D01*
X86184342Y-72788095D02*
X86279580Y-72835714D01*
X86279580Y-72835714D02*
X86327200Y-72883333D01*
X86327200Y-72883333D02*
X86374819Y-72978571D01*
X86374819Y-72978571D02*
X86374819Y-73216666D01*
X86374819Y-73216666D02*
X86327200Y-73311904D01*
X86327200Y-73311904D02*
X86279580Y-73359523D01*
X170726190Y-88854819D02*
X170392857Y-88378628D01*
X170154762Y-88854819D02*
X170154762Y-87854819D01*
X170154762Y-87854819D02*
X170535714Y-87854819D01*
X170535714Y-87854819D02*
X170630952Y-87902438D01*
X170630952Y-87902438D02*
X170678571Y-87950057D01*
X170678571Y-87950057D02*
X170726190Y-88045295D01*
X170726190Y-88045295D02*
X170726190Y-88188152D01*
X170726190Y-88188152D02*
X170678571Y-88283390D01*
X170678571Y-88283390D02*
X170630952Y-88331009D01*
X170630952Y-88331009D02*
X170535714Y-88378628D01*
X170535714Y-88378628D02*
X170154762Y-88378628D01*
X171297619Y-88854819D02*
X171202381Y-88807200D01*
X171202381Y-88807200D02*
X171154762Y-88759580D01*
X171154762Y-88759580D02*
X171107143Y-88664342D01*
X171107143Y-88664342D02*
X171107143Y-88378628D01*
X171107143Y-88378628D02*
X171154762Y-88283390D01*
X171154762Y-88283390D02*
X171202381Y-88235771D01*
X171202381Y-88235771D02*
X171297619Y-88188152D01*
X171297619Y-88188152D02*
X171440476Y-88188152D01*
X171440476Y-88188152D02*
X171535714Y-88235771D01*
X171535714Y-88235771D02*
X171583333Y-88283390D01*
X171583333Y-88283390D02*
X171630952Y-88378628D01*
X171630952Y-88378628D02*
X171630952Y-88664342D01*
X171630952Y-88664342D02*
X171583333Y-88759580D01*
X171583333Y-88759580D02*
X171535714Y-88807200D01*
X171535714Y-88807200D02*
X171440476Y-88854819D01*
X171440476Y-88854819D02*
X171297619Y-88854819D01*
X171964286Y-88188152D02*
X172154762Y-88854819D01*
X172154762Y-88854819D02*
X172345238Y-88378628D01*
X172345238Y-88378628D02*
X172535714Y-88854819D01*
X172535714Y-88854819D02*
X172726190Y-88188152D01*
X172869048Y-88950057D02*
X173630952Y-88950057D01*
X174297619Y-87854819D02*
X174107143Y-87854819D01*
X174107143Y-87854819D02*
X174011905Y-87902438D01*
X174011905Y-87902438D02*
X173964286Y-87950057D01*
X173964286Y-87950057D02*
X173869048Y-88092914D01*
X173869048Y-88092914D02*
X173821429Y-88283390D01*
X173821429Y-88283390D02*
X173821429Y-88664342D01*
X173821429Y-88664342D02*
X173869048Y-88759580D01*
X173869048Y-88759580D02*
X173916667Y-88807200D01*
X173916667Y-88807200D02*
X174011905Y-88854819D01*
X174011905Y-88854819D02*
X174202381Y-88854819D01*
X174202381Y-88854819D02*
X174297619Y-88807200D01*
X174297619Y-88807200D02*
X174345238Y-88759580D01*
X174345238Y-88759580D02*
X174392857Y-88664342D01*
X174392857Y-88664342D02*
X174392857Y-88426247D01*
X174392857Y-88426247D02*
X174345238Y-88331009D01*
X174345238Y-88331009D02*
X174297619Y-88283390D01*
X174297619Y-88283390D02*
X174202381Y-88235771D01*
X174202381Y-88235771D02*
X174011905Y-88235771D01*
X174011905Y-88235771D02*
X173916667Y-88283390D01*
X173916667Y-88283390D02*
X173869048Y-88331009D01*
X173869048Y-88331009D02*
X173821429Y-88426247D01*
X209374819Y-74692857D02*
X208898628Y-75026190D01*
X209374819Y-75264285D02*
X208374819Y-75264285D01*
X208374819Y-75264285D02*
X208374819Y-74883333D01*
X208374819Y-74883333D02*
X208422438Y-74788095D01*
X208422438Y-74788095D02*
X208470057Y-74740476D01*
X208470057Y-74740476D02*
X208565295Y-74692857D01*
X208565295Y-74692857D02*
X208708152Y-74692857D01*
X208708152Y-74692857D02*
X208803390Y-74740476D01*
X208803390Y-74740476D02*
X208851009Y-74788095D01*
X208851009Y-74788095D02*
X208898628Y-74883333D01*
X208898628Y-74883333D02*
X208898628Y-75264285D01*
X208374819Y-73788095D02*
X208374819Y-74264285D01*
X208374819Y-74264285D02*
X208851009Y-74311904D01*
X208851009Y-74311904D02*
X208803390Y-74264285D01*
X208803390Y-74264285D02*
X208755771Y-74169047D01*
X208755771Y-74169047D02*
X208755771Y-73930952D01*
X208755771Y-73930952D02*
X208803390Y-73835714D01*
X208803390Y-73835714D02*
X208851009Y-73788095D01*
X208851009Y-73788095D02*
X208946247Y-73740476D01*
X208946247Y-73740476D02*
X209184342Y-73740476D01*
X209184342Y-73740476D02*
X209279580Y-73788095D01*
X209279580Y-73788095D02*
X209327200Y-73835714D01*
X209327200Y-73835714D02*
X209374819Y-73930952D01*
X209374819Y-73930952D02*
X209374819Y-74169047D01*
X209374819Y-74169047D02*
X209327200Y-74264285D01*
X209327200Y-74264285D02*
X209279580Y-74311904D01*
X208374819Y-72883333D02*
X208374819Y-73073809D01*
X208374819Y-73073809D02*
X208422438Y-73169047D01*
X208422438Y-73169047D02*
X208470057Y-73216666D01*
X208470057Y-73216666D02*
X208612914Y-73311904D01*
X208612914Y-73311904D02*
X208803390Y-73359523D01*
X208803390Y-73359523D02*
X209184342Y-73359523D01*
X209184342Y-73359523D02*
X209279580Y-73311904D01*
X209279580Y-73311904D02*
X209327200Y-73264285D01*
X209327200Y-73264285D02*
X209374819Y-73169047D01*
X209374819Y-73169047D02*
X209374819Y-72978571D01*
X209374819Y-72978571D02*
X209327200Y-72883333D01*
X209327200Y-72883333D02*
X209279580Y-72835714D01*
X209279580Y-72835714D02*
X209184342Y-72788095D01*
X209184342Y-72788095D02*
X208946247Y-72788095D01*
X208946247Y-72788095D02*
X208851009Y-72835714D01*
X208851009Y-72835714D02*
X208803390Y-72883333D01*
X208803390Y-72883333D02*
X208755771Y-72978571D01*
X208755771Y-72978571D02*
X208755771Y-73169047D01*
X208755771Y-73169047D02*
X208803390Y-73264285D01*
X208803390Y-73264285D02*
X208851009Y-73311904D01*
X208851009Y-73311904D02*
X208946247Y-73359523D01*
X218374819Y-74692857D02*
X217898628Y-75026190D01*
X218374819Y-75264285D02*
X217374819Y-75264285D01*
X217374819Y-75264285D02*
X217374819Y-74883333D01*
X217374819Y-74883333D02*
X217422438Y-74788095D01*
X217422438Y-74788095D02*
X217470057Y-74740476D01*
X217470057Y-74740476D02*
X217565295Y-74692857D01*
X217565295Y-74692857D02*
X217708152Y-74692857D01*
X217708152Y-74692857D02*
X217803390Y-74740476D01*
X217803390Y-74740476D02*
X217851009Y-74788095D01*
X217851009Y-74788095D02*
X217898628Y-74883333D01*
X217898628Y-74883333D02*
X217898628Y-75264285D01*
X217374819Y-73788095D02*
X217374819Y-74264285D01*
X217374819Y-74264285D02*
X217851009Y-74311904D01*
X217851009Y-74311904D02*
X217803390Y-74264285D01*
X217803390Y-74264285D02*
X217755771Y-74169047D01*
X217755771Y-74169047D02*
X217755771Y-73930952D01*
X217755771Y-73930952D02*
X217803390Y-73835714D01*
X217803390Y-73835714D02*
X217851009Y-73788095D01*
X217851009Y-73788095D02*
X217946247Y-73740476D01*
X217946247Y-73740476D02*
X218184342Y-73740476D01*
X218184342Y-73740476D02*
X218279580Y-73788095D01*
X218279580Y-73788095D02*
X218327200Y-73835714D01*
X218327200Y-73835714D02*
X218374819Y-73930952D01*
X218374819Y-73930952D02*
X218374819Y-74169047D01*
X218374819Y-74169047D02*
X218327200Y-74264285D01*
X218327200Y-74264285D02*
X218279580Y-74311904D01*
X218374819Y-73264285D02*
X218374819Y-73073809D01*
X218374819Y-73073809D02*
X218327200Y-72978571D01*
X218327200Y-72978571D02*
X218279580Y-72930952D01*
X218279580Y-72930952D02*
X218136723Y-72835714D01*
X218136723Y-72835714D02*
X217946247Y-72788095D01*
X217946247Y-72788095D02*
X217565295Y-72788095D01*
X217565295Y-72788095D02*
X217470057Y-72835714D01*
X217470057Y-72835714D02*
X217422438Y-72883333D01*
X217422438Y-72883333D02*
X217374819Y-72978571D01*
X217374819Y-72978571D02*
X217374819Y-73169047D01*
X217374819Y-73169047D02*
X217422438Y-73264285D01*
X217422438Y-73264285D02*
X217470057Y-73311904D01*
X217470057Y-73311904D02*
X217565295Y-73359523D01*
X217565295Y-73359523D02*
X217803390Y-73359523D01*
X217803390Y-73359523D02*
X217898628Y-73311904D01*
X217898628Y-73311904D02*
X217946247Y-73264285D01*
X217946247Y-73264285D02*
X217993866Y-73169047D01*
X217993866Y-73169047D02*
X217993866Y-72978571D01*
X217993866Y-72978571D02*
X217946247Y-72883333D01*
X217946247Y-72883333D02*
X217898628Y-72835714D01*
X217898628Y-72835714D02*
X217803390Y-72788095D01*
X77374819Y-74692857D02*
X76898628Y-75026190D01*
X77374819Y-75264285D02*
X76374819Y-75264285D01*
X76374819Y-75264285D02*
X76374819Y-74883333D01*
X76374819Y-74883333D02*
X76422438Y-74788095D01*
X76422438Y-74788095D02*
X76470057Y-74740476D01*
X76470057Y-74740476D02*
X76565295Y-74692857D01*
X76565295Y-74692857D02*
X76708152Y-74692857D01*
X76708152Y-74692857D02*
X76803390Y-74740476D01*
X76803390Y-74740476D02*
X76851009Y-74788095D01*
X76851009Y-74788095D02*
X76898628Y-74883333D01*
X76898628Y-74883333D02*
X76898628Y-75264285D01*
X77374819Y-73740476D02*
X77374819Y-74311904D01*
X77374819Y-74026190D02*
X76374819Y-74026190D01*
X76374819Y-74026190D02*
X76517676Y-74121428D01*
X76517676Y-74121428D02*
X76612914Y-74216666D01*
X76612914Y-74216666D02*
X76660533Y-74311904D01*
X76470057Y-73359523D02*
X76422438Y-73311904D01*
X76422438Y-73311904D02*
X76374819Y-73216666D01*
X76374819Y-73216666D02*
X76374819Y-72978571D01*
X76374819Y-72978571D02*
X76422438Y-72883333D01*
X76422438Y-72883333D02*
X76470057Y-72835714D01*
X76470057Y-72835714D02*
X76565295Y-72788095D01*
X76565295Y-72788095D02*
X76660533Y-72788095D01*
X76660533Y-72788095D02*
X76803390Y-72835714D01*
X76803390Y-72835714D02*
X77374819Y-73407142D01*
X77374819Y-73407142D02*
X77374819Y-72788095D01*
X184224819Y-60621904D02*
X185034342Y-60621904D01*
X185034342Y-60621904D02*
X185129580Y-60574285D01*
X185129580Y-60574285D02*
X185177200Y-60526666D01*
X185177200Y-60526666D02*
X185224819Y-60431428D01*
X185224819Y-60431428D02*
X185224819Y-60240952D01*
X185224819Y-60240952D02*
X185177200Y-60145714D01*
X185177200Y-60145714D02*
X185129580Y-60098095D01*
X185129580Y-60098095D02*
X185034342Y-60050476D01*
X185034342Y-60050476D02*
X184224819Y-60050476D01*
X184224819Y-59669523D02*
X184224819Y-59002857D01*
X184224819Y-59002857D02*
X185224819Y-59431428D01*
D11*
%TO.C,Contoller*%
X64660000Y-49610000D02*
X65910000Y-49610000D01*
X65610000Y-42690000D02*
X50390000Y-42690000D01*
X65610000Y-46000000D02*
X64600000Y-46000000D01*
X57200000Y-48910000D02*
X58800000Y-48910000D01*
X60700000Y-49310000D02*
X65610000Y-49310000D01*
X50390000Y-46000000D02*
X51400000Y-46000000D01*
X50390000Y-42690000D02*
X50390000Y-49310000D01*
X64600000Y-47700000D02*
X64600000Y-43400000D01*
X65910000Y-49610000D02*
X65910000Y-48360000D01*
X65610000Y-49310000D02*
X65610000Y-42690000D01*
X55300000Y-48310000D02*
X57200000Y-48310000D01*
X58800000Y-48310000D02*
X60700000Y-48310000D01*
X64600000Y-43400000D02*
X51400000Y-43400000D01*
X55300000Y-49310000D02*
X55300000Y-48310000D01*
X50390000Y-49310000D02*
X55300000Y-49310000D01*
X60700000Y-48310000D02*
X60700000Y-49310000D01*
X51400000Y-47700000D02*
X64600000Y-47700000D01*
X57200000Y-48310000D02*
X57200000Y-48910000D01*
X58800000Y-48910000D02*
X58800000Y-48310000D01*
X51400000Y-43400000D02*
X51400000Y-47700000D01*
%TO.C,R41*%
X162300000Y-72430000D02*
X162300000Y-75590000D01*
X163220000Y-71510000D02*
G75*
G03*
X163220000Y-71510000I-920000J0D01*
G01*
%TO.C,R2*%
X45000000Y-72340000D02*
X45000000Y-75500000D01*
X45920000Y-71420000D02*
G75*
G03*
X45920000Y-71420000I-920000J0D01*
G01*
%TO.C,U2*%
X67970000Y-62060000D02*
X88410000Y-62060000D01*
X88410000Y-62060000D02*
X88410000Y-57560000D01*
X67970000Y-60810000D02*
X67970000Y-62060000D01*
X67970000Y-57560000D02*
X67970000Y-58810000D01*
X88410000Y-57560000D02*
X67970000Y-57560000D01*
X67970000Y-60810000D02*
G75*
G03*
X67970000Y-58810000I0J1000000D01*
G01*
%TO.C,R17*%
X90000000Y-72430000D02*
X90000000Y-75590000D01*
X90920000Y-71510000D02*
G75*
G03*
X90920000Y-71510000I-920000J0D01*
G01*
%TO.C,R14*%
X81000000Y-72430000D02*
X81000000Y-75590000D01*
X81920000Y-71510000D02*
G75*
G03*
X81920000Y-71510000I-920000J0D01*
G01*
%TO.C,R22*%
X105000000Y-72430000D02*
X105000000Y-75590000D01*
X105920000Y-71510000D02*
G75*
G03*
X105920000Y-71510000I-920000J0D01*
G01*
%TO.C,Row_1*%
X63410000Y-87520000D02*
X63410000Y-86270000D01*
X63110000Y-87220000D02*
X63110000Y-80600000D01*
X63110000Y-83910000D02*
X62100000Y-83910000D01*
X63110000Y-80600000D02*
X40390000Y-80600000D01*
X62160000Y-87520000D02*
X63410000Y-87520000D01*
X62100000Y-85610000D02*
X62100000Y-81310000D01*
X62100000Y-81310000D02*
X41400000Y-81310000D01*
X60810000Y-87220000D02*
X63110000Y-87220000D01*
X60810000Y-86220000D02*
X60810000Y-87220000D01*
X56550000Y-87220000D02*
X56550000Y-86220000D01*
X56550000Y-86220000D02*
X60810000Y-86220000D01*
X54450000Y-87220000D02*
X56550000Y-87220000D01*
X54450000Y-86220000D02*
X54450000Y-87220000D01*
X52550000Y-86820000D02*
X52550000Y-86220000D01*
X52550000Y-86220000D02*
X54450000Y-86220000D01*
X50950000Y-86820000D02*
X52550000Y-86820000D01*
X50950000Y-86220000D02*
X50950000Y-86820000D01*
X49050000Y-87220000D02*
X49050000Y-86220000D01*
X49050000Y-86220000D02*
X50950000Y-86220000D01*
X46950000Y-87220000D02*
X49050000Y-87220000D01*
X46950000Y-86220000D02*
X46950000Y-87220000D01*
X42690000Y-87220000D02*
X42690000Y-86220000D01*
X42690000Y-86220000D02*
X46950000Y-86220000D01*
X41400000Y-85610000D02*
X62100000Y-85610000D01*
X41400000Y-81310000D02*
X41400000Y-85610000D01*
X40390000Y-87220000D02*
X42690000Y-87220000D01*
X40390000Y-83910000D02*
X41400000Y-83910000D01*
X40390000Y-80600000D02*
X40390000Y-87220000D01*
%TO.C,R45*%
X174000000Y-72430000D02*
X174000000Y-75590000D01*
X174920000Y-71510000D02*
G75*
G03*
X174920000Y-71510000I-920000J0D01*
G01*
%TO.C,R26*%
X116900000Y-72430000D02*
X116900000Y-75590000D01*
X117820000Y-71510000D02*
G75*
G03*
X117820000Y-71510000I-920000J0D01*
G01*
%TO.C,R54*%
X201000000Y-72430000D02*
X201000000Y-75590000D01*
X201920000Y-71510000D02*
G75*
G03*
X201920000Y-71510000I-920000J0D01*
G01*
%TO.C,R7*%
X60000000Y-72340000D02*
X60000000Y-75500000D01*
X60920000Y-71420000D02*
G75*
G03*
X60920000Y-71420000I-920000J0D01*
G01*
%TO.C,R51*%
X192000000Y-72430000D02*
X192000000Y-75590000D01*
X192920000Y-71510000D02*
G75*
G03*
X192920000Y-71510000I-920000J0D01*
G01*
%TO.C,R63*%
X228000000Y-72430000D02*
X228000000Y-75590000D01*
X228920000Y-71510000D02*
G75*
G03*
X228920000Y-71510000I-920000J0D01*
G01*
%TO.C,U8*%
X210530000Y-62110000D02*
X230970000Y-62110000D01*
X230970000Y-62110000D02*
X230970000Y-57610000D01*
X210530000Y-60860000D02*
X210530000Y-62110000D01*
X210530000Y-57610000D02*
X210530000Y-58860000D01*
X230970000Y-57610000D02*
X210530000Y-57610000D01*
X210530000Y-60860000D02*
G75*
G03*
X210530000Y-58860000I0J1000000D01*
G01*
%TO.C,U4*%
X113400000Y-62110000D02*
X133840000Y-62110000D01*
X133840000Y-62110000D02*
X133840000Y-57610000D01*
X113400000Y-60860000D02*
X113400000Y-62110000D01*
X113400000Y-57610000D02*
X113400000Y-58860000D01*
X133840000Y-57610000D02*
X113400000Y-57610000D01*
X113400000Y-60860000D02*
G75*
G03*
X113400000Y-58860000I0J1000000D01*
G01*
%TO.C,R52*%
X195000000Y-72430000D02*
X195000000Y-75590000D01*
X195920000Y-71510000D02*
G75*
G03*
X195920000Y-71510000I-920000J0D01*
G01*
%TO.C,U3*%
X90795000Y-62265000D02*
X111235000Y-62265000D01*
X111235000Y-62265000D02*
X111235000Y-57765000D01*
X90795000Y-61015000D02*
X90795000Y-62265000D01*
X90795000Y-57765000D02*
X90795000Y-59015000D01*
X111235000Y-57765000D02*
X90795000Y-57765000D01*
X90795000Y-61015000D02*
G75*
G03*
X90795000Y-59015000I0J1000000D01*
G01*
%TO.C,R16*%
X87000000Y-72430000D02*
X87000000Y-75590000D01*
X87920000Y-71510000D02*
G75*
G03*
X87920000Y-71510000I-920000J0D01*
G01*
%TO.C,Row_8*%
X232410000Y-87610000D02*
X232410000Y-86360000D01*
X232110000Y-87310000D02*
X232110000Y-80690000D01*
X232110000Y-84000000D02*
X231100000Y-84000000D01*
X232110000Y-80690000D02*
X209390000Y-80690000D01*
X231160000Y-87610000D02*
X232410000Y-87610000D01*
X231100000Y-85700000D02*
X231100000Y-81400000D01*
X231100000Y-81400000D02*
X210400000Y-81400000D01*
X229810000Y-87310000D02*
X232110000Y-87310000D01*
X229810000Y-86310000D02*
X229810000Y-87310000D01*
X225550000Y-87310000D02*
X225550000Y-86310000D01*
X225550000Y-86310000D02*
X229810000Y-86310000D01*
X223450000Y-87310000D02*
X225550000Y-87310000D01*
X223450000Y-86310000D02*
X223450000Y-87310000D01*
X221550000Y-86910000D02*
X221550000Y-86310000D01*
X221550000Y-86310000D02*
X223450000Y-86310000D01*
X219950000Y-86910000D02*
X221550000Y-86910000D01*
X219950000Y-86310000D02*
X219950000Y-86910000D01*
X218050000Y-87310000D02*
X218050000Y-86310000D01*
X218050000Y-86310000D02*
X219950000Y-86310000D01*
X215950000Y-87310000D02*
X218050000Y-87310000D01*
X215950000Y-86310000D02*
X215950000Y-87310000D01*
X211690000Y-87310000D02*
X211690000Y-86310000D01*
X211690000Y-86310000D02*
X215950000Y-86310000D01*
X210400000Y-85700000D02*
X231100000Y-85700000D01*
X210400000Y-81400000D02*
X210400000Y-85700000D01*
X209390000Y-87310000D02*
X211690000Y-87310000D01*
X209390000Y-84000000D02*
X210400000Y-84000000D01*
X209390000Y-80690000D02*
X209390000Y-87310000D01*
%TO.C,R27*%
X119900000Y-72470000D02*
X119900000Y-75630000D01*
X120820000Y-71550000D02*
G75*
G03*
X120820000Y-71550000I-920000J0D01*
G01*
%TO.C,R8*%
X63000000Y-72340000D02*
X63000000Y-75500000D01*
X63920000Y-71420000D02*
G75*
G03*
X63920000Y-71420000I-920000J0D01*
G01*
%TO.C,Row_2*%
X87410000Y-87610000D02*
X87410000Y-86360000D01*
X87110000Y-87310000D02*
X87110000Y-80690000D01*
X87110000Y-84000000D02*
X86100000Y-84000000D01*
X87110000Y-80690000D02*
X64390000Y-80690000D01*
X86160000Y-87610000D02*
X87410000Y-87610000D01*
X86100000Y-85700000D02*
X86100000Y-81400000D01*
X86100000Y-81400000D02*
X65400000Y-81400000D01*
X84810000Y-87310000D02*
X87110000Y-87310000D01*
X84810000Y-86310000D02*
X84810000Y-87310000D01*
X80550000Y-87310000D02*
X80550000Y-86310000D01*
X80550000Y-86310000D02*
X84810000Y-86310000D01*
X78450000Y-87310000D02*
X80550000Y-87310000D01*
X78450000Y-86310000D02*
X78450000Y-87310000D01*
X76550000Y-86910000D02*
X76550000Y-86310000D01*
X76550000Y-86310000D02*
X78450000Y-86310000D01*
X74950000Y-86910000D02*
X76550000Y-86910000D01*
X74950000Y-86310000D02*
X74950000Y-86910000D01*
X73050000Y-87310000D02*
X73050000Y-86310000D01*
X73050000Y-86310000D02*
X74950000Y-86310000D01*
X70950000Y-87310000D02*
X73050000Y-87310000D01*
X70950000Y-86310000D02*
X70950000Y-87310000D01*
X66690000Y-87310000D02*
X66690000Y-86310000D01*
X66690000Y-86310000D02*
X70950000Y-86310000D01*
X65400000Y-85700000D02*
X86100000Y-85700000D01*
X65400000Y-81400000D02*
X65400000Y-85700000D01*
X64390000Y-87310000D02*
X66690000Y-87310000D01*
X64390000Y-84000000D02*
X65400000Y-84000000D01*
X64390000Y-80690000D02*
X64390000Y-87310000D01*
%TO.C,R42*%
X165000000Y-72430000D02*
X165000000Y-75590000D01*
X165920000Y-71510000D02*
G75*
G03*
X165920000Y-71510000I-920000J0D01*
G01*
%TO.C,R47*%
X180000000Y-72430000D02*
X180000000Y-75590000D01*
X180920000Y-71510000D02*
G75*
G03*
X180920000Y-71510000I-920000J0D01*
G01*
%TO.C,R38*%
X153000000Y-72430000D02*
X153000000Y-75590000D01*
X153920000Y-71510000D02*
G75*
G03*
X153920000Y-71510000I-920000J0D01*
G01*
%TO.C,R5*%
X54000000Y-72340000D02*
X54000000Y-75500000D01*
X54920000Y-71420000D02*
G75*
G03*
X54920000Y-71420000I-920000J0D01*
G01*
%TO.C,R53*%
X198000000Y-72430000D02*
X198000000Y-75590000D01*
X198920000Y-71510000D02*
G75*
G03*
X198920000Y-71510000I-920000J0D01*
G01*
%TO.C,U5*%
X137120000Y-61860000D02*
X157560000Y-61860000D01*
X157560000Y-61860000D02*
X157560000Y-57360000D01*
X137120000Y-60610000D02*
X137120000Y-61860000D01*
X137120000Y-57360000D02*
X137120000Y-58610000D01*
X157560000Y-57360000D02*
X137120000Y-57360000D01*
X137120000Y-60610000D02*
G75*
G03*
X137120000Y-58610000I0J1000000D01*
G01*
%TO.C,R37*%
X150000000Y-72430000D02*
X150000000Y-75590000D01*
X150920000Y-71510000D02*
G75*
G03*
X150920000Y-71510000I-920000J0D01*
G01*
%TO.C,R62*%
X225000000Y-72430000D02*
X225000000Y-75590000D01*
X225920000Y-71510000D02*
G75*
G03*
X225920000Y-71510000I-920000J0D01*
G01*
%TO.C,R64*%
X231000000Y-72430000D02*
X231000000Y-75590000D01*
X231920000Y-71510000D02*
G75*
G03*
X231920000Y-71510000I-920000J0D01*
G01*
%TO.C,R1*%
X42000000Y-72340000D02*
X42000000Y-75500000D01*
X42920000Y-71420000D02*
G75*
G03*
X42920000Y-71420000I-920000J0D01*
G01*
%TO.C,R55*%
X204000000Y-72430000D02*
X204000000Y-75590000D01*
X204920000Y-71510000D02*
G75*
G03*
X204920000Y-71510000I-920000J0D01*
G01*
%TO.C,R46*%
X177000000Y-72430000D02*
X177000000Y-75590000D01*
X177920000Y-71510000D02*
G75*
G03*
X177920000Y-71510000I-920000J0D01*
G01*
%TO.C,power*%
X73350000Y-38700000D02*
X73350000Y-51300000D01*
X73350000Y-51300000D02*
X83700000Y-51300000D01*
X83700000Y-43500000D02*
X84200000Y-43800000D01*
X83700000Y-48900000D02*
X83700000Y-43500000D01*
X83700000Y-50350000D02*
X84200000Y-50600000D01*
X83700000Y-51300000D02*
X83700000Y-50350000D01*
X84200000Y-38700000D02*
X73350000Y-38700000D01*
X84200000Y-43800000D02*
X84200000Y-38700000D01*
X84200000Y-48650000D02*
X83700000Y-48900000D01*
X84200000Y-48700000D02*
X84200000Y-48650000D01*
X84200000Y-50600000D02*
X84200000Y-48700000D01*
%TO.C,R35*%
X144000000Y-72430000D02*
X144000000Y-75590000D01*
X144920000Y-71510000D02*
G75*
G03*
X144920000Y-71510000I-920000J0D01*
G01*
%TO.C,R61*%
X222000000Y-72430000D02*
X222000000Y-75590000D01*
X222920000Y-71510000D02*
G75*
G03*
X222920000Y-71510000I-920000J0D01*
G01*
%TO.C,R48*%
X183000000Y-72430000D02*
X183000000Y-75590000D01*
X183920000Y-71510000D02*
G75*
G03*
X183920000Y-71510000I-920000J0D01*
G01*
%TO.C,R20*%
X99000000Y-72430000D02*
X99000000Y-75590000D01*
X99920000Y-71510000D02*
G75*
G03*
X99920000Y-71510000I-920000J0D01*
G01*
%TO.C,R19*%
X96000000Y-72430000D02*
X96000000Y-75590000D01*
X96920000Y-71510000D02*
G75*
G03*
X96920000Y-71510000I-920000J0D01*
G01*
%TO.C,R18*%
X93000000Y-72430000D02*
X93000000Y-75590000D01*
X93920000Y-71510000D02*
G75*
G03*
X93920000Y-71510000I-920000J0D01*
G01*
%TO.C,R49*%
X186000000Y-72430000D02*
X186000000Y-75590000D01*
X186920000Y-71510000D02*
G75*
G03*
X186920000Y-71510000I-920000J0D01*
G01*
%TO.C,R29*%
X125900000Y-72470000D02*
X125900000Y-75630000D01*
X126820000Y-71550000D02*
G75*
G03*
X126820000Y-71550000I-920000J0D01*
G01*
%TO.C,R44*%
X171000000Y-72430000D02*
X171000000Y-75590000D01*
X171920000Y-71510000D02*
G75*
G03*
X171920000Y-71510000I-920000J0D01*
G01*
%TO.C,Row_7*%
X208410000Y-87610000D02*
X208410000Y-86360000D01*
X208110000Y-87310000D02*
X208110000Y-80690000D01*
X208110000Y-84000000D02*
X207100000Y-84000000D01*
X208110000Y-80690000D02*
X185390000Y-80690000D01*
X207160000Y-87610000D02*
X208410000Y-87610000D01*
X207100000Y-85700000D02*
X207100000Y-81400000D01*
X207100000Y-81400000D02*
X186400000Y-81400000D01*
X205810000Y-87310000D02*
X208110000Y-87310000D01*
X205810000Y-86310000D02*
X205810000Y-87310000D01*
X201550000Y-87310000D02*
X201550000Y-86310000D01*
X201550000Y-86310000D02*
X205810000Y-86310000D01*
X199450000Y-87310000D02*
X201550000Y-87310000D01*
X199450000Y-86310000D02*
X199450000Y-87310000D01*
X197550000Y-86910000D02*
X197550000Y-86310000D01*
X197550000Y-86310000D02*
X199450000Y-86310000D01*
X195950000Y-86910000D02*
X197550000Y-86910000D01*
X195950000Y-86310000D02*
X195950000Y-86910000D01*
X194050000Y-87310000D02*
X194050000Y-86310000D01*
X194050000Y-86310000D02*
X195950000Y-86310000D01*
X191950000Y-87310000D02*
X194050000Y-87310000D01*
X191950000Y-86310000D02*
X191950000Y-87310000D01*
X187690000Y-87310000D02*
X187690000Y-86310000D01*
X187690000Y-86310000D02*
X191950000Y-86310000D01*
X186400000Y-85700000D02*
X207100000Y-85700000D01*
X186400000Y-81400000D02*
X186400000Y-85700000D01*
X185390000Y-87310000D02*
X187690000Y-87310000D01*
X185390000Y-84000000D02*
X186400000Y-84000000D01*
X185390000Y-80690000D02*
X185390000Y-87310000D01*
%TO.C,R6*%
X57000000Y-72340000D02*
X57000000Y-75500000D01*
X57920000Y-71420000D02*
G75*
G03*
X57920000Y-71420000I-920000J0D01*
G01*
%TO.C,R28*%
X122900000Y-72470000D02*
X122900000Y-75630000D01*
X123820000Y-71550000D02*
G75*
G03*
X123820000Y-71550000I-920000J0D01*
G01*
%TO.C,R10*%
X69000000Y-72430000D02*
X69000000Y-75590000D01*
X69920000Y-71510000D02*
G75*
G03*
X69920000Y-71510000I-920000J0D01*
G01*
%TO.C,R60*%
X219000000Y-72430000D02*
X219000000Y-75590000D01*
X219920000Y-71510000D02*
G75*
G03*
X219920000Y-71510000I-920000J0D01*
G01*
%TO.C,R50*%
X189000000Y-72430000D02*
X189000000Y-75590000D01*
X189920000Y-71510000D02*
G75*
G03*
X189920000Y-71510000I-920000J0D01*
G01*
%TO.C,R58*%
X213000000Y-72430000D02*
X213000000Y-75590000D01*
X213920000Y-71510000D02*
G75*
G03*
X213920000Y-71510000I-920000J0D01*
G01*
%TO.C,R13*%
X78000000Y-72430000D02*
X78000000Y-75590000D01*
X78920000Y-71510000D02*
G75*
G03*
X78920000Y-71510000I-920000J0D01*
G01*
%TO.C,R23*%
X108000000Y-72430000D02*
X108000000Y-75590000D01*
X108920000Y-71510000D02*
G75*
G03*
X108920000Y-71510000I-920000J0D01*
G01*
%TO.C,R40*%
X159000000Y-72430000D02*
X159000000Y-75590000D01*
X159920000Y-71510000D02*
G75*
G03*
X159920000Y-71510000I-920000J0D01*
G01*
%TO.C,R32*%
X135000000Y-72430000D02*
X135000000Y-75590000D01*
X135920000Y-71510000D02*
G75*
G03*
X135920000Y-71510000I-920000J0D01*
G01*
%TO.C,R31*%
X132000000Y-72430000D02*
X132000000Y-75590000D01*
X132920000Y-71510000D02*
G75*
G03*
X132920000Y-71510000I-920000J0D01*
G01*
%TO.C,R3*%
X47850000Y-72340000D02*
X47850000Y-75500000D01*
X48770000Y-71420000D02*
G75*
G03*
X48770000Y-71420000I-920000J0D01*
G01*
%TO.C,U1*%
X45795000Y-62265000D02*
X66235000Y-62265000D01*
X66235000Y-62265000D02*
X66235000Y-57765000D01*
X45795000Y-61015000D02*
X45795000Y-62265000D01*
X45795000Y-57765000D02*
X45795000Y-59015000D01*
X66235000Y-57765000D02*
X45795000Y-57765000D01*
X45795000Y-61015000D02*
G75*
G03*
X45795000Y-59015000I0J1000000D01*
G01*
%TO.C,R9*%
X66000000Y-72430000D02*
X66000000Y-75590000D01*
X66920000Y-71510000D02*
G75*
G03*
X66920000Y-71510000I-920000J0D01*
G01*
%TO.C,R43*%
X168000000Y-72430000D02*
X168000000Y-75590000D01*
X168920000Y-71510000D02*
G75*
G03*
X168920000Y-71510000I-920000J0D01*
G01*
%TO.C,R33*%
X138100000Y-72430000D02*
X138100000Y-75590000D01*
X139020000Y-71510000D02*
G75*
G03*
X139020000Y-71510000I-920000J0D01*
G01*
%TO.C,Row_4*%
X135410000Y-87610000D02*
X135410000Y-86360000D01*
X135110000Y-87310000D02*
X135110000Y-80690000D01*
X135110000Y-84000000D02*
X134100000Y-84000000D01*
X135110000Y-80690000D02*
X112390000Y-80690000D01*
X134160000Y-87610000D02*
X135410000Y-87610000D01*
X134100000Y-85700000D02*
X134100000Y-81400000D01*
X134100000Y-81400000D02*
X113400000Y-81400000D01*
X132810000Y-87310000D02*
X135110000Y-87310000D01*
X132810000Y-86310000D02*
X132810000Y-87310000D01*
X128550000Y-87310000D02*
X128550000Y-86310000D01*
X128550000Y-86310000D02*
X132810000Y-86310000D01*
X126450000Y-87310000D02*
X128550000Y-87310000D01*
X126450000Y-86310000D02*
X126450000Y-87310000D01*
X124550000Y-86910000D02*
X124550000Y-86310000D01*
X124550000Y-86310000D02*
X126450000Y-86310000D01*
X122950000Y-86910000D02*
X124550000Y-86910000D01*
X122950000Y-86310000D02*
X122950000Y-86910000D01*
X121050000Y-87310000D02*
X121050000Y-86310000D01*
X121050000Y-86310000D02*
X122950000Y-86310000D01*
X118950000Y-87310000D02*
X121050000Y-87310000D01*
X118950000Y-86310000D02*
X118950000Y-87310000D01*
X114690000Y-87310000D02*
X114690000Y-86310000D01*
X114690000Y-86310000D02*
X118950000Y-86310000D01*
X113400000Y-85700000D02*
X134100000Y-85700000D01*
X113400000Y-81400000D02*
X113400000Y-85700000D01*
X112390000Y-87310000D02*
X114690000Y-87310000D01*
X112390000Y-84000000D02*
X113400000Y-84000000D01*
X112390000Y-80690000D02*
X112390000Y-87310000D01*
%TO.C,R25*%
X114000000Y-72430000D02*
X114000000Y-75590000D01*
X114920000Y-71510000D02*
G75*
G03*
X114920000Y-71510000I-920000J0D01*
G01*
%TO.C,R30*%
X128900000Y-72430000D02*
X128900000Y-75590000D01*
X129820000Y-71510000D02*
G75*
G03*
X129820000Y-71510000I-920000J0D01*
G01*
%TO.C,R21*%
X102000000Y-72430000D02*
X102000000Y-75590000D01*
X102920000Y-71510000D02*
G75*
G03*
X102920000Y-71510000I-920000J0D01*
G01*
%TO.C,R39*%
X156000000Y-72430000D02*
X156000000Y-75590000D01*
X156920000Y-71510000D02*
G75*
G03*
X156920000Y-71510000I-920000J0D01*
G01*
%TO.C,R4*%
X51000000Y-72340000D02*
X51000000Y-75500000D01*
X51920000Y-71420000D02*
G75*
G03*
X51920000Y-71420000I-920000J0D01*
G01*
%TO.C,U6*%
X161030000Y-61860000D02*
X181470000Y-61860000D01*
X181470000Y-61860000D02*
X181470000Y-57360000D01*
X161030000Y-60610000D02*
X161030000Y-61860000D01*
X161030000Y-57360000D02*
X161030000Y-58610000D01*
X181470000Y-57360000D02*
X161030000Y-57360000D01*
X161030000Y-60610000D02*
G75*
G03*
X161030000Y-58610000I0J1000000D01*
G01*
%TO.C,Row_5*%
X159910000Y-87610000D02*
X159910000Y-86360000D01*
X159610000Y-87310000D02*
X159610000Y-80690000D01*
X159610000Y-84000000D02*
X158600000Y-84000000D01*
X159610000Y-80690000D02*
X136890000Y-80690000D01*
X158660000Y-87610000D02*
X159910000Y-87610000D01*
X158600000Y-85700000D02*
X158600000Y-81400000D01*
X158600000Y-81400000D02*
X137900000Y-81400000D01*
X157310000Y-87310000D02*
X159610000Y-87310000D01*
X157310000Y-86310000D02*
X157310000Y-87310000D01*
X153050000Y-87310000D02*
X153050000Y-86310000D01*
X153050000Y-86310000D02*
X157310000Y-86310000D01*
X150950000Y-87310000D02*
X153050000Y-87310000D01*
X150950000Y-86310000D02*
X150950000Y-87310000D01*
X149050000Y-86910000D02*
X149050000Y-86310000D01*
X149050000Y-86310000D02*
X150950000Y-86310000D01*
X147450000Y-86910000D02*
X149050000Y-86910000D01*
X147450000Y-86310000D02*
X147450000Y-86910000D01*
X145550000Y-87310000D02*
X145550000Y-86310000D01*
X145550000Y-86310000D02*
X147450000Y-86310000D01*
X143450000Y-87310000D02*
X145550000Y-87310000D01*
X143450000Y-86310000D02*
X143450000Y-87310000D01*
X139190000Y-87310000D02*
X139190000Y-86310000D01*
X139190000Y-86310000D02*
X143450000Y-86310000D01*
X137900000Y-85700000D02*
X158600000Y-85700000D01*
X137900000Y-81400000D02*
X137900000Y-85700000D01*
X136890000Y-87310000D02*
X139190000Y-87310000D01*
X136890000Y-84000000D02*
X137900000Y-84000000D01*
X136890000Y-80690000D02*
X136890000Y-87310000D01*
%TO.C,R11*%
X72000000Y-72430000D02*
X72000000Y-75590000D01*
X72920000Y-71510000D02*
G75*
G03*
X72920000Y-71510000I-920000J0D01*
G01*
%TO.C,R24*%
X111000000Y-72430000D02*
X111000000Y-75590000D01*
X111920000Y-71510000D02*
G75*
G03*
X111920000Y-71510000I-920000J0D01*
G01*
%TO.C,R36*%
X147000000Y-72430000D02*
X147000000Y-75590000D01*
X147920000Y-71510000D02*
G75*
G03*
X147920000Y-71510000I-920000J0D01*
G01*
%TO.C,R57*%
X210200000Y-72430000D02*
X210200000Y-75590000D01*
X211120000Y-71510000D02*
G75*
G03*
X211120000Y-71510000I-920000J0D01*
G01*
%TO.C,Row_3*%
X111410000Y-87610000D02*
X111410000Y-86360000D01*
X111110000Y-87310000D02*
X111110000Y-80690000D01*
X111110000Y-84000000D02*
X110100000Y-84000000D01*
X111110000Y-80690000D02*
X88390000Y-80690000D01*
X110160000Y-87610000D02*
X111410000Y-87610000D01*
X110100000Y-85700000D02*
X110100000Y-81400000D01*
X110100000Y-81400000D02*
X89400000Y-81400000D01*
X108810000Y-87310000D02*
X111110000Y-87310000D01*
X108810000Y-86310000D02*
X108810000Y-87310000D01*
X104550000Y-87310000D02*
X104550000Y-86310000D01*
X104550000Y-86310000D02*
X108810000Y-86310000D01*
X102450000Y-87310000D02*
X104550000Y-87310000D01*
X102450000Y-86310000D02*
X102450000Y-87310000D01*
X100550000Y-86910000D02*
X100550000Y-86310000D01*
X100550000Y-86310000D02*
X102450000Y-86310000D01*
X98950000Y-86910000D02*
X100550000Y-86910000D01*
X98950000Y-86310000D02*
X98950000Y-86910000D01*
X97050000Y-87310000D02*
X97050000Y-86310000D01*
X97050000Y-86310000D02*
X98950000Y-86310000D01*
X94950000Y-87310000D02*
X97050000Y-87310000D01*
X94950000Y-86310000D02*
X94950000Y-87310000D01*
X90690000Y-87310000D02*
X90690000Y-86310000D01*
X90690000Y-86310000D02*
X94950000Y-86310000D01*
X89400000Y-85700000D02*
X110100000Y-85700000D01*
X89400000Y-81400000D02*
X89400000Y-85700000D01*
X88390000Y-87310000D02*
X90690000Y-87310000D01*
X88390000Y-84000000D02*
X89400000Y-84000000D01*
X88390000Y-80690000D02*
X88390000Y-87310000D01*
%TO.C,R34*%
X141000000Y-72430000D02*
X141000000Y-75590000D01*
X141920000Y-71510000D02*
G75*
G03*
X141920000Y-71510000I-920000J0D01*
G01*
%TO.C,R15*%
X84000000Y-72430000D02*
X84000000Y-75590000D01*
X84920000Y-71510000D02*
G75*
G03*
X84920000Y-71510000I-920000J0D01*
G01*
%TO.C,Row_6*%
X183910000Y-87610000D02*
X183910000Y-86360000D01*
X183610000Y-87310000D02*
X183610000Y-80690000D01*
X183610000Y-84000000D02*
X182600000Y-84000000D01*
X183610000Y-80690000D02*
X160890000Y-80690000D01*
X182660000Y-87610000D02*
X183910000Y-87610000D01*
X182600000Y-85700000D02*
X182600000Y-81400000D01*
X182600000Y-81400000D02*
X161900000Y-81400000D01*
X181310000Y-87310000D02*
X183610000Y-87310000D01*
X181310000Y-86310000D02*
X181310000Y-87310000D01*
X177050000Y-87310000D02*
X177050000Y-86310000D01*
X177050000Y-86310000D02*
X181310000Y-86310000D01*
X174950000Y-87310000D02*
X177050000Y-87310000D01*
X174950000Y-86310000D02*
X174950000Y-87310000D01*
X173050000Y-86910000D02*
X173050000Y-86310000D01*
X173050000Y-86310000D02*
X174950000Y-86310000D01*
X171450000Y-86910000D02*
X173050000Y-86910000D01*
X171450000Y-86310000D02*
X171450000Y-86910000D01*
X169550000Y-87310000D02*
X169550000Y-86310000D01*
X169550000Y-86310000D02*
X171450000Y-86310000D01*
X167450000Y-87310000D02*
X169550000Y-87310000D01*
X167450000Y-86310000D02*
X167450000Y-87310000D01*
X163190000Y-87310000D02*
X163190000Y-86310000D01*
X163190000Y-86310000D02*
X167450000Y-86310000D01*
X161900000Y-85700000D02*
X182600000Y-85700000D01*
X161900000Y-81400000D02*
X161900000Y-85700000D01*
X160890000Y-87310000D02*
X163190000Y-87310000D01*
X160890000Y-84000000D02*
X161900000Y-84000000D01*
X160890000Y-80690000D02*
X160890000Y-87310000D01*
%TO.C,R56*%
X207000000Y-72430000D02*
X207000000Y-75590000D01*
X207920000Y-71510000D02*
G75*
G03*
X207920000Y-71510000I-920000J0D01*
G01*
%TO.C,R59*%
X216000000Y-72430000D02*
X216000000Y-75590000D01*
X216920000Y-71510000D02*
G75*
G03*
X216920000Y-71510000I-920000J0D01*
G01*
%TO.C,R12*%
X75000000Y-72430000D02*
X75000000Y-75590000D01*
X75920000Y-71510000D02*
G75*
G03*
X75920000Y-71510000I-920000J0D01*
G01*
%TO.C,U7*%
X185770000Y-62110000D02*
X206210000Y-62110000D01*
X206210000Y-62110000D02*
X206210000Y-57610000D01*
X185770000Y-60860000D02*
X185770000Y-62110000D01*
X185770000Y-57610000D02*
X185770000Y-58860000D01*
X206210000Y-57610000D02*
X185770000Y-57610000D01*
X185770000Y-60860000D02*
G75*
G03*
X185770000Y-58860000I0J1000000D01*
G01*
%TD*%
M02*
