%TF.GenerationSoftware,KiCad,Pcbnew,7.0.9*%
%TF.CreationDate,2023-12-27T00:16:36+05:30*%
%TF.ProjectId,Led_Cube_BaseControlerV2,4c65645f-4375-4626-955f-42617365436f,rev?*%
%TF.SameCoordinates,Original*%
%TF.FileFunction,Legend,Bot*%
%TF.FilePolarity,Positive*%
%FSLAX46Y46*%
G04 Gerber Fmt 4.6, Leading zero omitted, Abs format (unit mm)*
G04 Created by KiCad (PCBNEW 7.0.9) date 2023-12-27 00:16:36*
%MOMM*%
%LPD*%
G01*
G04 APERTURE LIST*
%ADD10C,0.150000*%
G04 APERTURE END LIST*
D10*
X89000000Y-50000000D02*
X89000000Y-52000000D01*
X101000000Y-48000000D02*
X101000000Y-52000000D01*
X196000000Y-49000000D02*
X196000000Y-52000000D01*
X88000000Y-49000000D02*
X88000000Y-52000000D01*
X148000000Y-49000000D02*
X148000000Y-52000000D01*
X149000000Y-52000000D02*
X149000000Y-50000000D01*
X219000000Y-51000000D02*
X221000000Y-51000000D01*
X195000000Y-48000000D02*
X195000000Y-52000000D01*
X102000000Y-49000000D02*
X102000000Y-52000000D01*
X103000000Y-50000000D02*
X103000000Y-52000000D01*
X125000000Y-52000000D02*
X125000000Y-50000000D01*
X124000000Y-49000000D02*
X124000000Y-52000000D01*
X219000000Y-49000000D02*
X221000000Y-49000000D01*
X87000000Y-48000000D02*
X87000000Y-52000000D01*
X173000000Y-52000000D02*
X173000000Y-50000000D01*
X172000000Y-49000000D02*
X172000000Y-52000000D01*
X197000000Y-50000000D02*
X197000000Y-52000000D01*
X219000000Y-50000000D02*
X221000000Y-50000000D01*
X171000000Y-52000000D02*
X171000000Y-48000000D01*
X123000000Y-52000000D02*
X123000000Y-48000000D01*
X147000000Y-52000000D02*
X147000000Y-48000000D01*
M02*
