%TF.GenerationSoftware,KiCad,Pcbnew,7.0.9*%
%TF.CreationDate,2023-12-27T00:16:42+05:30*%
%TF.ProjectId,Led_Cube_BaseControlerV2,4c65645f-4375-4626-955f-42617365436f,rev?*%
%TF.SameCoordinates,Original*%
%TF.FileFunction,Drillmap*%
%TF.FilePolarity,Positive*%
%FSLAX45Y45*%
G04 Gerber Fmt 4.5, Leading zero omitted, Abs format (unit mm)*
G04 Created by KiCad (PCBNEW 7.0.9) date 2023-12-27 00:16:42*
%MOMM*%
%LPD*%
G01*
G04 APERTURE LIST*
%ADD10C,0.200000*%
%ADD11C,0.210000*%
G04 APERTURE END LIST*
D10*
X3600000Y-7000000D02*
X3600000Y-6700000D01*
X4500000Y-4300000D02*
X4500000Y-5400000D01*
X23500000Y-5400000D02*
X22200000Y-4500000D01*
X3600000Y-7000000D02*
G75*
G03*
X3600000Y-7800000I0J-400000D01*
G01*
X23500000Y-7800000D02*
G75*
G03*
X23500000Y-7000000I0J400000D01*
G01*
X4200000Y-6700000D02*
X3600000Y-6700000D01*
X3600000Y-9100000D02*
X3600000Y-7800000D01*
X8900000Y-3700000D02*
X5100000Y-3700000D01*
X8900000Y-4500000D02*
X8900000Y-3700000D01*
X22200000Y-4500000D02*
X8900000Y-4500000D01*
X23500000Y-9100000D02*
X23500000Y-7800000D01*
X4500000Y-5400000D02*
X4200000Y-5400000D01*
X23500000Y-7000000D02*
X23500000Y-5400000D01*
X3600000Y-9100000D02*
X23500000Y-9100000D01*
X4500000Y-4300000D02*
X5100000Y-3700000D01*
X4200000Y-5400000D02*
X4200000Y-6700000D01*
D11*
X3495000Y-7295000D02*
X3705000Y-7505000D01*
X3705000Y-7295000D02*
X3495000Y-7505000D01*
X23395000Y-7295000D02*
X23605000Y-7505000D01*
X23605000Y-7295000D02*
X23395000Y-7505000D01*
D10*
X3450777Y-9421484D02*
X3450777Y-9221484D01*
X3450777Y-9221484D02*
X3498396Y-9221484D01*
X3498396Y-9221484D02*
X3526967Y-9231008D01*
X3526967Y-9231008D02*
X3546015Y-9250055D01*
X3546015Y-9250055D02*
X3555539Y-9269103D01*
X3555539Y-9269103D02*
X3565062Y-9307198D01*
X3565062Y-9307198D02*
X3565062Y-9335770D01*
X3565062Y-9335770D02*
X3555539Y-9373865D01*
X3555539Y-9373865D02*
X3546015Y-9392912D01*
X3546015Y-9392912D02*
X3526967Y-9411960D01*
X3526967Y-9411960D02*
X3498396Y-9421484D01*
X3498396Y-9421484D02*
X3450777Y-9421484D01*
X3650777Y-9421484D02*
X3650777Y-9288150D01*
X3650777Y-9326246D02*
X3660301Y-9307198D01*
X3660301Y-9307198D02*
X3669824Y-9297674D01*
X3669824Y-9297674D02*
X3688872Y-9288150D01*
X3688872Y-9288150D02*
X3707920Y-9288150D01*
X3774586Y-9421484D02*
X3774586Y-9288150D01*
X3774586Y-9221484D02*
X3765062Y-9231008D01*
X3765062Y-9231008D02*
X3774586Y-9240531D01*
X3774586Y-9240531D02*
X3784110Y-9231008D01*
X3784110Y-9231008D02*
X3774586Y-9221484D01*
X3774586Y-9221484D02*
X3774586Y-9240531D01*
X3898396Y-9421484D02*
X3879348Y-9411960D01*
X3879348Y-9411960D02*
X3869824Y-9392912D01*
X3869824Y-9392912D02*
X3869824Y-9221484D01*
X4003158Y-9421484D02*
X3984110Y-9411960D01*
X3984110Y-9411960D02*
X3974586Y-9392912D01*
X3974586Y-9392912D02*
X3974586Y-9221484D01*
X4231729Y-9421484D02*
X4231729Y-9221484D01*
X4231729Y-9221484D02*
X4298396Y-9364341D01*
X4298396Y-9364341D02*
X4365063Y-9221484D01*
X4365063Y-9221484D02*
X4365063Y-9421484D01*
X4546015Y-9421484D02*
X4546015Y-9316722D01*
X4546015Y-9316722D02*
X4536491Y-9297674D01*
X4536491Y-9297674D02*
X4517444Y-9288150D01*
X4517444Y-9288150D02*
X4479348Y-9288150D01*
X4479348Y-9288150D02*
X4460301Y-9297674D01*
X4546015Y-9411960D02*
X4526967Y-9421484D01*
X4526967Y-9421484D02*
X4479348Y-9421484D01*
X4479348Y-9421484D02*
X4460301Y-9411960D01*
X4460301Y-9411960D02*
X4450777Y-9392912D01*
X4450777Y-9392912D02*
X4450777Y-9373865D01*
X4450777Y-9373865D02*
X4460301Y-9354817D01*
X4460301Y-9354817D02*
X4479348Y-9345293D01*
X4479348Y-9345293D02*
X4526967Y-9345293D01*
X4526967Y-9345293D02*
X4546015Y-9335770D01*
X4641253Y-9288150D02*
X4641253Y-9488150D01*
X4641253Y-9297674D02*
X4660301Y-9288150D01*
X4660301Y-9288150D02*
X4698396Y-9288150D01*
X4698396Y-9288150D02*
X4717444Y-9297674D01*
X4717444Y-9297674D02*
X4726967Y-9307198D01*
X4726967Y-9307198D02*
X4736491Y-9326246D01*
X4736491Y-9326246D02*
X4736491Y-9383389D01*
X4736491Y-9383389D02*
X4726967Y-9402436D01*
X4726967Y-9402436D02*
X4717444Y-9411960D01*
X4717444Y-9411960D02*
X4698396Y-9421484D01*
X4698396Y-9421484D02*
X4660301Y-9421484D01*
X4660301Y-9421484D02*
X4641253Y-9411960D01*
X4822205Y-9402436D02*
X4831729Y-9411960D01*
X4831729Y-9411960D02*
X4822205Y-9421484D01*
X4822205Y-9421484D02*
X4812682Y-9411960D01*
X4812682Y-9411960D02*
X4822205Y-9402436D01*
X4822205Y-9402436D02*
X4822205Y-9421484D01*
X4822205Y-9297674D02*
X4831729Y-9307198D01*
X4831729Y-9307198D02*
X4822205Y-9316722D01*
X4822205Y-9316722D02*
X4812682Y-9307198D01*
X4812682Y-9307198D02*
X4822205Y-9297674D01*
X4822205Y-9297674D02*
X4822205Y-9316722D01*
X2990000Y-9650000D02*
X3190000Y-9850000D01*
X3190000Y-9650000D02*
X2990000Y-9850000D01*
X3441253Y-9660531D02*
X3450777Y-9651008D01*
X3450777Y-9651008D02*
X3469824Y-9641484D01*
X3469824Y-9641484D02*
X3517443Y-9641484D01*
X3517443Y-9641484D02*
X3536491Y-9651008D01*
X3536491Y-9651008D02*
X3546015Y-9660531D01*
X3546015Y-9660531D02*
X3555539Y-9679579D01*
X3555539Y-9679579D02*
X3555539Y-9698627D01*
X3555539Y-9698627D02*
X3546015Y-9727198D01*
X3546015Y-9727198D02*
X3431729Y-9841484D01*
X3431729Y-9841484D02*
X3555539Y-9841484D01*
X3641253Y-9822436D02*
X3650777Y-9831960D01*
X3650777Y-9831960D02*
X3641253Y-9841484D01*
X3641253Y-9841484D02*
X3631729Y-9831960D01*
X3631729Y-9831960D02*
X3641253Y-9822436D01*
X3641253Y-9822436D02*
X3641253Y-9841484D01*
X3841253Y-9841484D02*
X3726967Y-9841484D01*
X3784110Y-9841484D02*
X3784110Y-9641484D01*
X3784110Y-9641484D02*
X3765062Y-9670055D01*
X3765062Y-9670055D02*
X3746015Y-9689103D01*
X3746015Y-9689103D02*
X3726967Y-9698627D01*
X3965062Y-9641484D02*
X3984110Y-9641484D01*
X3984110Y-9641484D02*
X4003158Y-9651008D01*
X4003158Y-9651008D02*
X4012682Y-9660531D01*
X4012682Y-9660531D02*
X4022205Y-9679579D01*
X4022205Y-9679579D02*
X4031729Y-9717674D01*
X4031729Y-9717674D02*
X4031729Y-9765293D01*
X4031729Y-9765293D02*
X4022205Y-9803389D01*
X4022205Y-9803389D02*
X4012682Y-9822436D01*
X4012682Y-9822436D02*
X4003158Y-9831960D01*
X4003158Y-9831960D02*
X3984110Y-9841484D01*
X3984110Y-9841484D02*
X3965062Y-9841484D01*
X3965062Y-9841484D02*
X3946015Y-9831960D01*
X3946015Y-9831960D02*
X3936491Y-9822436D01*
X3936491Y-9822436D02*
X3926967Y-9803389D01*
X3926967Y-9803389D02*
X3917443Y-9765293D01*
X3917443Y-9765293D02*
X3917443Y-9717674D01*
X3917443Y-9717674D02*
X3926967Y-9679579D01*
X3926967Y-9679579D02*
X3936491Y-9660531D01*
X3936491Y-9660531D02*
X3946015Y-9651008D01*
X3946015Y-9651008D02*
X3965062Y-9641484D01*
X4155539Y-9641484D02*
X4174586Y-9641484D01*
X4174586Y-9641484D02*
X4193634Y-9651008D01*
X4193634Y-9651008D02*
X4203158Y-9660531D01*
X4203158Y-9660531D02*
X4212682Y-9679579D01*
X4212682Y-9679579D02*
X4222205Y-9717674D01*
X4222205Y-9717674D02*
X4222205Y-9765293D01*
X4222205Y-9765293D02*
X4212682Y-9803389D01*
X4212682Y-9803389D02*
X4203158Y-9822436D01*
X4203158Y-9822436D02*
X4193634Y-9831960D01*
X4193634Y-9831960D02*
X4174586Y-9841484D01*
X4174586Y-9841484D02*
X4155539Y-9841484D01*
X4155539Y-9841484D02*
X4136491Y-9831960D01*
X4136491Y-9831960D02*
X4126967Y-9822436D01*
X4126967Y-9822436D02*
X4117443Y-9803389D01*
X4117443Y-9803389D02*
X4107920Y-9765293D01*
X4107920Y-9765293D02*
X4107920Y-9717674D01*
X4107920Y-9717674D02*
X4117443Y-9679579D01*
X4117443Y-9679579D02*
X4126967Y-9660531D01*
X4126967Y-9660531D02*
X4136491Y-9651008D01*
X4136491Y-9651008D02*
X4155539Y-9641484D01*
X4307920Y-9841484D02*
X4307920Y-9708150D01*
X4307920Y-9727198D02*
X4317444Y-9717674D01*
X4317444Y-9717674D02*
X4336491Y-9708150D01*
X4336491Y-9708150D02*
X4365063Y-9708150D01*
X4365063Y-9708150D02*
X4384110Y-9717674D01*
X4384110Y-9717674D02*
X4393634Y-9736722D01*
X4393634Y-9736722D02*
X4393634Y-9841484D01*
X4393634Y-9736722D02*
X4403158Y-9717674D01*
X4403158Y-9717674D02*
X4422205Y-9708150D01*
X4422205Y-9708150D02*
X4450777Y-9708150D01*
X4450777Y-9708150D02*
X4469825Y-9717674D01*
X4469825Y-9717674D02*
X4479348Y-9736722D01*
X4479348Y-9736722D02*
X4479348Y-9841484D01*
X4574586Y-9841484D02*
X4574586Y-9708150D01*
X4574586Y-9727198D02*
X4584110Y-9717674D01*
X4584110Y-9717674D02*
X4603158Y-9708150D01*
X4603158Y-9708150D02*
X4631729Y-9708150D01*
X4631729Y-9708150D02*
X4650777Y-9717674D01*
X4650777Y-9717674D02*
X4660301Y-9736722D01*
X4660301Y-9736722D02*
X4660301Y-9841484D01*
X4660301Y-9736722D02*
X4669825Y-9717674D01*
X4669825Y-9717674D02*
X4688872Y-9708150D01*
X4688872Y-9708150D02*
X4717444Y-9708150D01*
X4717444Y-9708150D02*
X4736491Y-9717674D01*
X4736491Y-9717674D02*
X4746015Y-9736722D01*
X4746015Y-9736722D02*
X4746015Y-9841484D01*
X5136491Y-9631960D02*
X4965063Y-9889103D01*
X5393634Y-9641484D02*
X5412682Y-9641484D01*
X5412682Y-9641484D02*
X5431729Y-9651008D01*
X5431729Y-9651008D02*
X5441253Y-9660531D01*
X5441253Y-9660531D02*
X5450777Y-9679579D01*
X5450777Y-9679579D02*
X5460301Y-9717674D01*
X5460301Y-9717674D02*
X5460301Y-9765293D01*
X5460301Y-9765293D02*
X5450777Y-9803389D01*
X5450777Y-9803389D02*
X5441253Y-9822436D01*
X5441253Y-9822436D02*
X5431729Y-9831960D01*
X5431729Y-9831960D02*
X5412682Y-9841484D01*
X5412682Y-9841484D02*
X5393634Y-9841484D01*
X5393634Y-9841484D02*
X5374587Y-9831960D01*
X5374587Y-9831960D02*
X5365063Y-9822436D01*
X5365063Y-9822436D02*
X5355539Y-9803389D01*
X5355539Y-9803389D02*
X5346015Y-9765293D01*
X5346015Y-9765293D02*
X5346015Y-9717674D01*
X5346015Y-9717674D02*
X5355539Y-9679579D01*
X5355539Y-9679579D02*
X5365063Y-9660531D01*
X5365063Y-9660531D02*
X5374587Y-9651008D01*
X5374587Y-9651008D02*
X5393634Y-9641484D01*
X5546015Y-9822436D02*
X5555539Y-9831960D01*
X5555539Y-9831960D02*
X5546015Y-9841484D01*
X5546015Y-9841484D02*
X5536491Y-9831960D01*
X5536491Y-9831960D02*
X5546015Y-9822436D01*
X5546015Y-9822436D02*
X5546015Y-9841484D01*
X5679348Y-9641484D02*
X5698396Y-9641484D01*
X5698396Y-9641484D02*
X5717444Y-9651008D01*
X5717444Y-9651008D02*
X5726967Y-9660531D01*
X5726967Y-9660531D02*
X5736491Y-9679579D01*
X5736491Y-9679579D02*
X5746015Y-9717674D01*
X5746015Y-9717674D02*
X5746015Y-9765293D01*
X5746015Y-9765293D02*
X5736491Y-9803389D01*
X5736491Y-9803389D02*
X5726967Y-9822436D01*
X5726967Y-9822436D02*
X5717444Y-9831960D01*
X5717444Y-9831960D02*
X5698396Y-9841484D01*
X5698396Y-9841484D02*
X5679348Y-9841484D01*
X5679348Y-9841484D02*
X5660301Y-9831960D01*
X5660301Y-9831960D02*
X5650777Y-9822436D01*
X5650777Y-9822436D02*
X5641253Y-9803389D01*
X5641253Y-9803389D02*
X5631729Y-9765293D01*
X5631729Y-9765293D02*
X5631729Y-9717674D01*
X5631729Y-9717674D02*
X5641253Y-9679579D01*
X5641253Y-9679579D02*
X5650777Y-9660531D01*
X5650777Y-9660531D02*
X5660301Y-9651008D01*
X5660301Y-9651008D02*
X5679348Y-9641484D01*
X5860301Y-9727198D02*
X5841253Y-9717674D01*
X5841253Y-9717674D02*
X5831729Y-9708150D01*
X5831729Y-9708150D02*
X5822206Y-9689103D01*
X5822206Y-9689103D02*
X5822206Y-9679579D01*
X5822206Y-9679579D02*
X5831729Y-9660531D01*
X5831729Y-9660531D02*
X5841253Y-9651008D01*
X5841253Y-9651008D02*
X5860301Y-9641484D01*
X5860301Y-9641484D02*
X5898396Y-9641484D01*
X5898396Y-9641484D02*
X5917444Y-9651008D01*
X5917444Y-9651008D02*
X5926967Y-9660531D01*
X5926967Y-9660531D02*
X5936491Y-9679579D01*
X5936491Y-9679579D02*
X5936491Y-9689103D01*
X5936491Y-9689103D02*
X5926967Y-9708150D01*
X5926967Y-9708150D02*
X5917444Y-9717674D01*
X5917444Y-9717674D02*
X5898396Y-9727198D01*
X5898396Y-9727198D02*
X5860301Y-9727198D01*
X5860301Y-9727198D02*
X5841253Y-9736722D01*
X5841253Y-9736722D02*
X5831729Y-9746246D01*
X5831729Y-9746246D02*
X5822206Y-9765293D01*
X5822206Y-9765293D02*
X5822206Y-9803389D01*
X5822206Y-9803389D02*
X5831729Y-9822436D01*
X5831729Y-9822436D02*
X5841253Y-9831960D01*
X5841253Y-9831960D02*
X5860301Y-9841484D01*
X5860301Y-9841484D02*
X5898396Y-9841484D01*
X5898396Y-9841484D02*
X5917444Y-9831960D01*
X5917444Y-9831960D02*
X5926967Y-9822436D01*
X5926967Y-9822436D02*
X5936491Y-9803389D01*
X5936491Y-9803389D02*
X5936491Y-9765293D01*
X5936491Y-9765293D02*
X5926967Y-9746246D01*
X5926967Y-9746246D02*
X5917444Y-9736722D01*
X5917444Y-9736722D02*
X5898396Y-9727198D01*
X6012682Y-9660531D02*
X6022206Y-9651008D01*
X6022206Y-9651008D02*
X6041253Y-9641484D01*
X6041253Y-9641484D02*
X6088872Y-9641484D01*
X6088872Y-9641484D02*
X6107920Y-9651008D01*
X6107920Y-9651008D02*
X6117444Y-9660531D01*
X6117444Y-9660531D02*
X6126967Y-9679579D01*
X6126967Y-9679579D02*
X6126967Y-9698627D01*
X6126967Y-9698627D02*
X6117444Y-9727198D01*
X6117444Y-9727198D02*
X6003158Y-9841484D01*
X6003158Y-9841484D02*
X6126967Y-9841484D01*
X6193634Y-9641484D02*
X6326967Y-9641484D01*
X6326967Y-9641484D02*
X6241253Y-9841484D01*
X6393634Y-9641484D02*
X6393634Y-9679579D01*
X6469825Y-9641484D02*
X6469825Y-9679579D01*
X6765063Y-9917674D02*
X6755539Y-9908150D01*
X6755539Y-9908150D02*
X6736491Y-9879579D01*
X6736491Y-9879579D02*
X6726968Y-9860531D01*
X6726968Y-9860531D02*
X6717444Y-9831960D01*
X6717444Y-9831960D02*
X6707920Y-9784341D01*
X6707920Y-9784341D02*
X6707920Y-9746246D01*
X6707920Y-9746246D02*
X6717444Y-9698627D01*
X6717444Y-9698627D02*
X6726968Y-9670055D01*
X6726968Y-9670055D02*
X6736491Y-9651008D01*
X6736491Y-9651008D02*
X6755539Y-9622436D01*
X6755539Y-9622436D02*
X6765063Y-9612912D01*
X6831729Y-9660531D02*
X6841253Y-9651008D01*
X6841253Y-9651008D02*
X6860301Y-9641484D01*
X6860301Y-9641484D02*
X6907920Y-9641484D01*
X6907920Y-9641484D02*
X6926968Y-9651008D01*
X6926968Y-9651008D02*
X6936491Y-9660531D01*
X6936491Y-9660531D02*
X6946015Y-9679579D01*
X6946015Y-9679579D02*
X6946015Y-9698627D01*
X6946015Y-9698627D02*
X6936491Y-9727198D01*
X6936491Y-9727198D02*
X6822206Y-9841484D01*
X6822206Y-9841484D02*
X6946015Y-9841484D01*
X7184110Y-9841484D02*
X7184110Y-9641484D01*
X7269825Y-9841484D02*
X7269825Y-9736722D01*
X7269825Y-9736722D02*
X7260301Y-9717674D01*
X7260301Y-9717674D02*
X7241253Y-9708150D01*
X7241253Y-9708150D02*
X7212682Y-9708150D01*
X7212682Y-9708150D02*
X7193634Y-9717674D01*
X7193634Y-9717674D02*
X7184110Y-9727198D01*
X7393634Y-9841484D02*
X7374587Y-9831960D01*
X7374587Y-9831960D02*
X7365063Y-9822436D01*
X7365063Y-9822436D02*
X7355539Y-9803389D01*
X7355539Y-9803389D02*
X7355539Y-9746246D01*
X7355539Y-9746246D02*
X7365063Y-9727198D01*
X7365063Y-9727198D02*
X7374587Y-9717674D01*
X7374587Y-9717674D02*
X7393634Y-9708150D01*
X7393634Y-9708150D02*
X7422206Y-9708150D01*
X7422206Y-9708150D02*
X7441253Y-9717674D01*
X7441253Y-9717674D02*
X7450777Y-9727198D01*
X7450777Y-9727198D02*
X7460301Y-9746246D01*
X7460301Y-9746246D02*
X7460301Y-9803389D01*
X7460301Y-9803389D02*
X7450777Y-9822436D01*
X7450777Y-9822436D02*
X7441253Y-9831960D01*
X7441253Y-9831960D02*
X7422206Y-9841484D01*
X7422206Y-9841484D02*
X7393634Y-9841484D01*
X7574587Y-9841484D02*
X7555539Y-9831960D01*
X7555539Y-9831960D02*
X7546015Y-9812912D01*
X7546015Y-9812912D02*
X7546015Y-9641484D01*
X7726968Y-9831960D02*
X7707920Y-9841484D01*
X7707920Y-9841484D02*
X7669825Y-9841484D01*
X7669825Y-9841484D02*
X7650777Y-9831960D01*
X7650777Y-9831960D02*
X7641253Y-9812912D01*
X7641253Y-9812912D02*
X7641253Y-9736722D01*
X7641253Y-9736722D02*
X7650777Y-9717674D01*
X7650777Y-9717674D02*
X7669825Y-9708150D01*
X7669825Y-9708150D02*
X7707920Y-9708150D01*
X7707920Y-9708150D02*
X7726968Y-9717674D01*
X7726968Y-9717674D02*
X7736491Y-9736722D01*
X7736491Y-9736722D02*
X7736491Y-9755770D01*
X7736491Y-9755770D02*
X7641253Y-9774817D01*
X7812682Y-9831960D02*
X7831730Y-9841484D01*
X7831730Y-9841484D02*
X7869825Y-9841484D01*
X7869825Y-9841484D02*
X7888872Y-9831960D01*
X7888872Y-9831960D02*
X7898396Y-9812912D01*
X7898396Y-9812912D02*
X7898396Y-9803389D01*
X7898396Y-9803389D02*
X7888872Y-9784341D01*
X7888872Y-9784341D02*
X7869825Y-9774817D01*
X7869825Y-9774817D02*
X7841253Y-9774817D01*
X7841253Y-9774817D02*
X7822206Y-9765293D01*
X7822206Y-9765293D02*
X7812682Y-9746246D01*
X7812682Y-9746246D02*
X7812682Y-9736722D01*
X7812682Y-9736722D02*
X7822206Y-9717674D01*
X7822206Y-9717674D02*
X7841253Y-9708150D01*
X7841253Y-9708150D02*
X7869825Y-9708150D01*
X7869825Y-9708150D02*
X7888872Y-9717674D01*
X7965063Y-9917674D02*
X7974587Y-9908150D01*
X7974587Y-9908150D02*
X7993634Y-9879579D01*
X7993634Y-9879579D02*
X8003158Y-9860531D01*
X8003158Y-9860531D02*
X8012682Y-9831960D01*
X8012682Y-9831960D02*
X8022206Y-9784341D01*
X8022206Y-9784341D02*
X8022206Y-9746246D01*
X8022206Y-9746246D02*
X8012682Y-9698627D01*
X8012682Y-9698627D02*
X8003158Y-9670055D01*
X8003158Y-9670055D02*
X7993634Y-9651008D01*
X7993634Y-9651008D02*
X7974587Y-9622436D01*
X7974587Y-9622436D02*
X7965063Y-9612912D01*
X8326968Y-9917674D02*
X8317444Y-9908150D01*
X8317444Y-9908150D02*
X8298396Y-9879579D01*
X8298396Y-9879579D02*
X8288872Y-9860531D01*
X8288872Y-9860531D02*
X8279349Y-9831960D01*
X8279349Y-9831960D02*
X8269825Y-9784341D01*
X8269825Y-9784341D02*
X8269825Y-9746246D01*
X8269825Y-9746246D02*
X8279349Y-9698627D01*
X8279349Y-9698627D02*
X8288872Y-9670055D01*
X8288872Y-9670055D02*
X8298396Y-9651008D01*
X8298396Y-9651008D02*
X8317444Y-9622436D01*
X8317444Y-9622436D02*
X8326968Y-9612912D01*
X8403158Y-9708150D02*
X8403158Y-9841484D01*
X8403158Y-9727198D02*
X8412682Y-9717674D01*
X8412682Y-9717674D02*
X8431730Y-9708150D01*
X8431730Y-9708150D02*
X8460301Y-9708150D01*
X8460301Y-9708150D02*
X8479349Y-9717674D01*
X8479349Y-9717674D02*
X8488873Y-9736722D01*
X8488873Y-9736722D02*
X8488873Y-9841484D01*
X8612682Y-9841484D02*
X8593634Y-9831960D01*
X8593634Y-9831960D02*
X8584111Y-9822436D01*
X8584111Y-9822436D02*
X8574587Y-9803389D01*
X8574587Y-9803389D02*
X8574587Y-9746246D01*
X8574587Y-9746246D02*
X8584111Y-9727198D01*
X8584111Y-9727198D02*
X8593634Y-9717674D01*
X8593634Y-9717674D02*
X8612682Y-9708150D01*
X8612682Y-9708150D02*
X8641254Y-9708150D01*
X8641254Y-9708150D02*
X8660301Y-9717674D01*
X8660301Y-9717674D02*
X8669825Y-9727198D01*
X8669825Y-9727198D02*
X8679349Y-9746246D01*
X8679349Y-9746246D02*
X8679349Y-9803389D01*
X8679349Y-9803389D02*
X8669825Y-9822436D01*
X8669825Y-9822436D02*
X8660301Y-9831960D01*
X8660301Y-9831960D02*
X8641254Y-9841484D01*
X8641254Y-9841484D02*
X8612682Y-9841484D01*
X8736492Y-9708150D02*
X8812682Y-9708150D01*
X8765063Y-9641484D02*
X8765063Y-9812912D01*
X8765063Y-9812912D02*
X8774587Y-9831960D01*
X8774587Y-9831960D02*
X8793634Y-9841484D01*
X8793634Y-9841484D02*
X8812682Y-9841484D01*
X9031730Y-9708150D02*
X9031730Y-9908150D01*
X9031730Y-9717674D02*
X9050777Y-9708150D01*
X9050777Y-9708150D02*
X9088873Y-9708150D01*
X9088873Y-9708150D02*
X9107920Y-9717674D01*
X9107920Y-9717674D02*
X9117444Y-9727198D01*
X9117444Y-9727198D02*
X9126968Y-9746246D01*
X9126968Y-9746246D02*
X9126968Y-9803389D01*
X9126968Y-9803389D02*
X9117444Y-9822436D01*
X9117444Y-9822436D02*
X9107920Y-9831960D01*
X9107920Y-9831960D02*
X9088873Y-9841484D01*
X9088873Y-9841484D02*
X9050777Y-9841484D01*
X9050777Y-9841484D02*
X9031730Y-9831960D01*
X9241254Y-9841484D02*
X9222206Y-9831960D01*
X9222206Y-9831960D02*
X9212682Y-9812912D01*
X9212682Y-9812912D02*
X9212682Y-9641484D01*
X9403158Y-9841484D02*
X9403158Y-9736722D01*
X9403158Y-9736722D02*
X9393635Y-9717674D01*
X9393635Y-9717674D02*
X9374587Y-9708150D01*
X9374587Y-9708150D02*
X9336492Y-9708150D01*
X9336492Y-9708150D02*
X9317444Y-9717674D01*
X9403158Y-9831960D02*
X9384111Y-9841484D01*
X9384111Y-9841484D02*
X9336492Y-9841484D01*
X9336492Y-9841484D02*
X9317444Y-9831960D01*
X9317444Y-9831960D02*
X9307920Y-9812912D01*
X9307920Y-9812912D02*
X9307920Y-9793865D01*
X9307920Y-9793865D02*
X9317444Y-9774817D01*
X9317444Y-9774817D02*
X9336492Y-9765293D01*
X9336492Y-9765293D02*
X9384111Y-9765293D01*
X9384111Y-9765293D02*
X9403158Y-9755770D01*
X9469825Y-9708150D02*
X9546015Y-9708150D01*
X9498396Y-9641484D02*
X9498396Y-9812912D01*
X9498396Y-9812912D02*
X9507920Y-9831960D01*
X9507920Y-9831960D02*
X9526968Y-9841484D01*
X9526968Y-9841484D02*
X9546015Y-9841484D01*
X9688873Y-9831960D02*
X9669825Y-9841484D01*
X9669825Y-9841484D02*
X9631730Y-9841484D01*
X9631730Y-9841484D02*
X9612682Y-9831960D01*
X9612682Y-9831960D02*
X9603158Y-9812912D01*
X9603158Y-9812912D02*
X9603158Y-9736722D01*
X9603158Y-9736722D02*
X9612682Y-9717674D01*
X9612682Y-9717674D02*
X9631730Y-9708150D01*
X9631730Y-9708150D02*
X9669825Y-9708150D01*
X9669825Y-9708150D02*
X9688873Y-9717674D01*
X9688873Y-9717674D02*
X9698396Y-9736722D01*
X9698396Y-9736722D02*
X9698396Y-9755770D01*
X9698396Y-9755770D02*
X9603158Y-9774817D01*
X9869825Y-9841484D02*
X9869825Y-9641484D01*
X9869825Y-9831960D02*
X9850777Y-9841484D01*
X9850777Y-9841484D02*
X9812682Y-9841484D01*
X9812682Y-9841484D02*
X9793635Y-9831960D01*
X9793635Y-9831960D02*
X9784111Y-9822436D01*
X9784111Y-9822436D02*
X9774587Y-9803389D01*
X9774587Y-9803389D02*
X9774587Y-9746246D01*
X9774587Y-9746246D02*
X9784111Y-9727198D01*
X9784111Y-9727198D02*
X9793635Y-9717674D01*
X9793635Y-9717674D02*
X9812682Y-9708150D01*
X9812682Y-9708150D02*
X9850777Y-9708150D01*
X9850777Y-9708150D02*
X9869825Y-9717674D01*
X9946016Y-9917674D02*
X9955539Y-9908150D01*
X9955539Y-9908150D02*
X9974587Y-9879579D01*
X9974587Y-9879579D02*
X9984111Y-9860531D01*
X9984111Y-9860531D02*
X9993635Y-9831960D01*
X9993635Y-9831960D02*
X10003158Y-9784341D01*
X10003158Y-9784341D02*
X10003158Y-9746246D01*
X10003158Y-9746246D02*
X9993635Y-9698627D01*
X9993635Y-9698627D02*
X9984111Y-9670055D01*
X9984111Y-9670055D02*
X9974587Y-9651008D01*
X9974587Y-9651008D02*
X9955539Y-9622436D01*
X9955539Y-9622436D02*
X9946016Y-9612912D01*
M02*
