%TF.GenerationSoftware,KiCad,Pcbnew,7.0.9*%
%TF.CreationDate,2023-12-27T00:16:36+05:30*%
%TF.ProjectId,Led_Cube_BaseControlerV2,4c65645f-4375-4626-955f-42617365436f,rev?*%
%TF.SameCoordinates,Original*%
%TF.FileFunction,Copper,L2,Bot*%
%TF.FilePolarity,Positive*%
%FSLAX46Y46*%
G04 Gerber Fmt 4.6, Leading zero omitted, Abs format (unit mm)*
G04 Created by KiCad (PCBNEW 7.0.9) date 2023-12-27 00:16:36*
%MOMM*%
%LPD*%
G01*
G04 APERTURE LIST*
G04 Aperture macros list*
%AMRoundRect*
0 Rectangle with rounded corners*
0 $1 Rounding radius*
0 $2 $3 $4 $5 $6 $7 $8 $9 X,Y pos of 4 corners*
0 Add a 4 corners polygon primitive as box body*
4,1,4,$2,$3,$4,$5,$6,$7,$8,$9,$2,$3,0*
0 Add four circle primitives for the rounded corners*
1,1,$1+$1,$2,$3*
1,1,$1+$1,$4,$5*
1,1,$1+$1,$6,$7*
1,1,$1+$1,$8,$9*
0 Add four rect primitives between the rounded corners*
20,1,$1+$1,$2,$3,$4,$5,0*
20,1,$1+$1,$4,$5,$6,$7,0*
20,1,$1+$1,$6,$7,$8,$9,0*
20,1,$1+$1,$8,$9,$2,$3,0*%
G04 Aperture macros list end*
%TA.AperFunction,ComponentPad*%
%ADD10RoundRect,0.250000X0.600000X0.725000X-0.600000X0.725000X-0.600000X-0.725000X0.600000X-0.725000X0*%
%TD*%
%TA.AperFunction,ComponentPad*%
%ADD11O,1.700000X1.950000*%
%TD*%
%TA.AperFunction,ComponentPad*%
%ADD12C,1.400000*%
%TD*%
%TA.AperFunction,ComponentPad*%
%ADD13O,1.400000X1.400000*%
%TD*%
%TA.AperFunction,ComponentPad*%
%ADD14R,1.600000X2.400000*%
%TD*%
%TA.AperFunction,ComponentPad*%
%ADD15O,1.600000X2.400000*%
%TD*%
%TA.AperFunction,ComponentPad*%
%ADD16R,1.980000X3.960000*%
%TD*%
%TA.AperFunction,ComponentPad*%
%ADD17O,1.980000X3.960000*%
%TD*%
%TA.AperFunction,ViaPad*%
%ADD18C,0.800000*%
%TD*%
%TA.AperFunction,Conductor*%
%ADD19C,0.500000*%
%TD*%
%TA.AperFunction,Conductor*%
%ADD20C,0.750000*%
%TD*%
%TA.AperFunction,Conductor*%
%ADD21C,0.250000*%
%TD*%
G04 APERTURE END LIST*
D10*
%TO.P,Contoller,1,Pin_1*%
%TO.N,Net-(J1-Pin_1)*%
X63000000Y-46000000D03*
D11*
%TO.P,Contoller,2,Pin_2*%
%TO.N,Net-(J1-Pin_2)*%
X60500000Y-46000000D03*
%TO.P,Contoller,3,Pin_3*%
%TO.N,Net-(J1-Pin_3)*%
X58000000Y-46000000D03*
%TO.P,Contoller,4,Pin_4*%
%TO.N,Net-(J1-Pin_4)*%
X55500000Y-46000000D03*
%TO.P,Contoller,5,Pin_5*%
%TO.N,Net-(J1-Pin_5)*%
X53000000Y-46000000D03*
%TD*%
D12*
%TO.P,R41,1*%
%TO.N,Net-(U6-QA)*%
X162300000Y-71510000D03*
D13*
%TO.P,R41,2*%
%TO.N,Net-(J8-Pin_8)*%
X162300000Y-76590000D03*
%TD*%
D12*
%TO.P,R2,1*%
%TO.N,Net-(U3-QB)*%
X45000000Y-71420000D03*
D13*
%TO.P,R2,2*%
%TO.N,Net-(J3-Pin_7)*%
X45000000Y-76500000D03*
%TD*%
D14*
%TO.P,U2,1,QB*%
%TO.N,Net-(U1-QB)*%
X69300000Y-63620000D03*
D15*
%TO.P,U2,2,QC*%
%TO.N,Net-(U1-QC)*%
X71840000Y-63620000D03*
%TO.P,U2,3,QD*%
%TO.N,Net-(U1-QD)*%
X74380000Y-63620000D03*
%TO.P,U2,4,QE*%
%TO.N,Net-(U1-QE)*%
X76920000Y-63620000D03*
%TO.P,U2,5,QF*%
%TO.N,Net-(U1-QF)*%
X79460000Y-63620000D03*
%TO.P,U2,6,QG*%
%TO.N,Net-(U1-QG)*%
X82000000Y-63620000D03*
%TO.P,U2,7,QH*%
%TO.N,Net-(U1-QH)*%
X84540000Y-63620000D03*
%TO.P,U2,8,GND*%
%TO.N,Net-(J2-Pin_1)*%
X87080000Y-63620000D03*
%TO.P,U2,9,QH'*%
%TO.N,Net-(U1-QH')*%
X87080000Y-56000000D03*
%TO.P,U2,10,~{SRCLR}*%
%TO.N,Net-(J1-Pin_2)*%
X84540000Y-56000000D03*
%TO.P,U2,11,SRCLK*%
%TO.N,Net-(J1-Pin_4)*%
X82000000Y-56000000D03*
%TO.P,U2,12,RCLK*%
%TO.N,Net-(J1-Pin_5)*%
X79460000Y-56000000D03*
%TO.P,U2,13,~{OE}*%
%TO.N,Net-(J1-Pin_1)*%
X76920000Y-56000000D03*
%TO.P,U2,14,SER*%
%TO.N,Net-(U1-SER)*%
X74380000Y-56000000D03*
%TO.P,U2,15,QA*%
%TO.N,Net-(U1-QA)*%
X71840000Y-56000000D03*
%TO.P,U2,16,VCC*%
%TO.N,Net-(J2-Pin_2)*%
X69300000Y-56000000D03*
%TD*%
D12*
%TO.P,R17,1*%
%TO.N,Net-(U2-QA)*%
X90000000Y-71510000D03*
D13*
%TO.P,R17,2*%
%TO.N,Net-(J5-Pin_8)*%
X90000000Y-76590000D03*
%TD*%
D12*
%TO.P,R14,1*%
%TO.N,Net-(U1-QF)*%
X81000000Y-71510000D03*
D13*
%TO.P,R14,2*%
%TO.N,Net-(J4-Pin_3)*%
X81000000Y-76590000D03*
%TD*%
D12*
%TO.P,R22,1*%
%TO.N,Net-(U2-QF)*%
X105000000Y-71510000D03*
D13*
%TO.P,R22,2*%
%TO.N,Net-(J5-Pin_3)*%
X105000000Y-76590000D03*
%TD*%
D10*
%TO.P,Row_1,1,Pin_1*%
%TO.N,Net-(J3-Pin_1)*%
X60500000Y-83910000D03*
D11*
%TO.P,Row_1,2,Pin_2*%
%TO.N,Net-(J3-Pin_2)*%
X58000000Y-83910000D03*
%TO.P,Row_1,3,Pin_3*%
%TO.N,Net-(J3-Pin_3)*%
X55500000Y-83910000D03*
%TO.P,Row_1,4,Pin_4*%
%TO.N,Net-(J3-Pin_4)*%
X53000000Y-83910000D03*
%TO.P,Row_1,5,Pin_5*%
%TO.N,Net-(J3-Pin_5)*%
X50500000Y-83910000D03*
%TO.P,Row_1,6,Pin_6*%
%TO.N,Net-(J3-Pin_6)*%
X48000000Y-83910000D03*
%TO.P,Row_1,7,Pin_7*%
%TO.N,Net-(J3-Pin_7)*%
X45500000Y-83910000D03*
%TO.P,Row_1,8,Pin_8*%
%TO.N,Net-(J3-Pin_8)*%
X43000000Y-83910000D03*
%TD*%
D12*
%TO.P,R45,1*%
%TO.N,Net-(U6-QE)*%
X174000000Y-71510000D03*
D13*
%TO.P,R45,2*%
%TO.N,Net-(J8-Pin_4)*%
X174000000Y-76590000D03*
%TD*%
D12*
%TO.P,R26,1*%
%TO.N,Net-(U4-QB)*%
X116900000Y-71510000D03*
D13*
%TO.P,R26,2*%
%TO.N,Net-(J6-Pin_7)*%
X116900000Y-76590000D03*
%TD*%
D12*
%TO.P,R54,1*%
%TO.N,Net-(U7-QF)*%
X201000000Y-71510000D03*
D13*
%TO.P,R54,2*%
%TO.N,Net-(J9-Pin_3)*%
X201000000Y-76590000D03*
%TD*%
D12*
%TO.P,R7,1*%
%TO.N,Net-(U3-QG)*%
X60000000Y-71420000D03*
D13*
%TO.P,R7,2*%
%TO.N,Net-(J3-Pin_2)*%
X60000000Y-76500000D03*
%TD*%
D12*
%TO.P,R51,1*%
%TO.N,Net-(U7-QC)*%
X192000000Y-71510000D03*
D13*
%TO.P,R51,2*%
%TO.N,Net-(J9-Pin_6)*%
X192000000Y-76590000D03*
%TD*%
D12*
%TO.P,R63,1*%
%TO.N,Net-(U8-QG)*%
X228000000Y-71510000D03*
D13*
%TO.P,R63,2*%
%TO.N,Net-(J10-Pin_2)*%
X228000000Y-76590000D03*
%TD*%
D14*
%TO.P,U8,1,QB*%
%TO.N,Net-(U8-QB)*%
X211860000Y-63670000D03*
D15*
%TO.P,U8,2,QC*%
%TO.N,Net-(U8-QC)*%
X214400000Y-63670000D03*
%TO.P,U8,3,QD*%
%TO.N,Net-(U8-QD)*%
X216940000Y-63670000D03*
%TO.P,U8,4,QE*%
%TO.N,Net-(U8-QE)*%
X219480000Y-63670000D03*
%TO.P,U8,5,QF*%
%TO.N,Net-(U8-QF)*%
X222020000Y-63670000D03*
%TO.P,U8,6,QG*%
%TO.N,Net-(U8-QG)*%
X224560000Y-63670000D03*
%TO.P,U8,7,QH*%
%TO.N,Net-(U8-QH)*%
X227100000Y-63670000D03*
%TO.P,U8,8,GND*%
%TO.N,Net-(J2-Pin_1)*%
X229640000Y-63670000D03*
%TO.P,U8,9,QH'*%
%TO.N,unconnected-(U8-QH'-Pad9)*%
X229640000Y-56050000D03*
%TO.P,U8,10,~{SRCLR}*%
%TO.N,Net-(J1-Pin_2)*%
X227100000Y-56050000D03*
%TO.P,U8,11,SRCLK*%
%TO.N,Net-(J1-Pin_4)*%
X224560000Y-56050000D03*
%TO.P,U8,12,RCLK*%
%TO.N,Net-(J1-Pin_5)*%
X222020000Y-56050000D03*
%TO.P,U8,13,~{OE}*%
%TO.N,Net-(J1-Pin_1)*%
X219480000Y-56050000D03*
%TO.P,U8,14,SER*%
%TO.N,Net-(U7-QH')*%
X216940000Y-56050000D03*
%TO.P,U8,15,QA*%
%TO.N,Net-(U8-QA)*%
X214400000Y-56050000D03*
%TO.P,U8,16,VCC*%
%TO.N,Net-(J2-Pin_2)*%
X211860000Y-56050000D03*
%TD*%
D14*
%TO.P,U4,1,QB*%
%TO.N,Net-(U4-QB)*%
X114730000Y-63670000D03*
D15*
%TO.P,U4,2,QC*%
%TO.N,Net-(U4-QC)*%
X117270000Y-63670000D03*
%TO.P,U4,3,QD*%
%TO.N,Net-(U4-QD)*%
X119810000Y-63670000D03*
%TO.P,U4,4,QE*%
%TO.N,Net-(U4-QE)*%
X122350000Y-63670000D03*
%TO.P,U4,5,QF*%
%TO.N,Net-(U4-QF)*%
X124890000Y-63670000D03*
%TO.P,U4,6,QG*%
%TO.N,Net-(U4-QG)*%
X127430000Y-63670000D03*
%TO.P,U4,7,QH*%
%TO.N,Net-(U4-QH)*%
X129970000Y-63670000D03*
%TO.P,U4,8,GND*%
%TO.N,Net-(J2-Pin_1)*%
X132510000Y-63670000D03*
%TO.P,U4,9,QH'*%
%TO.N,Net-(U4-QH')*%
X132510000Y-56050000D03*
%TO.P,U4,10,~{SRCLR}*%
%TO.N,Net-(J1-Pin_2)*%
X129970000Y-56050000D03*
%TO.P,U4,11,SRCLK*%
%TO.N,Net-(J1-Pin_4)*%
X127430000Y-56050000D03*
%TO.P,U4,12,RCLK*%
%TO.N,Net-(J1-Pin_5)*%
X124890000Y-56050000D03*
%TO.P,U4,13,~{OE}*%
%TO.N,Net-(J1-Pin_1)*%
X122350000Y-56050000D03*
%TO.P,U4,14,SER*%
%TO.N,Net-(U2-QH')*%
X119810000Y-56050000D03*
%TO.P,U4,15,QA*%
%TO.N,Net-(U4-QA)*%
X117270000Y-56050000D03*
%TO.P,U4,16,VCC*%
%TO.N,Net-(J2-Pin_2)*%
X114730000Y-56050000D03*
%TD*%
D12*
%TO.P,R52,1*%
%TO.N,Net-(U7-QD)*%
X195000000Y-71510000D03*
D13*
%TO.P,R52,2*%
%TO.N,Net-(J9-Pin_5)*%
X195000000Y-76590000D03*
%TD*%
D14*
%TO.P,U3,1,QB*%
%TO.N,Net-(U2-QB)*%
X92125000Y-63825000D03*
D15*
%TO.P,U3,2,QC*%
%TO.N,Net-(U2-QC)*%
X94665000Y-63825000D03*
%TO.P,U3,3,QD*%
%TO.N,Net-(U2-QD)*%
X97205000Y-63825000D03*
%TO.P,U3,4,QE*%
%TO.N,Net-(U2-QE)*%
X99745000Y-63825000D03*
%TO.P,U3,5,QF*%
%TO.N,Net-(U2-QF)*%
X102285000Y-63825000D03*
%TO.P,U3,6,QG*%
%TO.N,Net-(U2-QG)*%
X104825000Y-63825000D03*
%TO.P,U3,7,QH*%
%TO.N,Net-(U2-QH)*%
X107365000Y-63825000D03*
%TO.P,U3,8,GND*%
%TO.N,Net-(J2-Pin_1)*%
X109905000Y-63825000D03*
%TO.P,U3,9,QH'*%
%TO.N,Net-(U2-QH')*%
X109905000Y-56205000D03*
%TO.P,U3,10,~{SRCLR}*%
%TO.N,Net-(J1-Pin_2)*%
X107365000Y-56205000D03*
%TO.P,U3,11,SRCLK*%
%TO.N,Net-(J1-Pin_4)*%
X104825000Y-56205000D03*
%TO.P,U3,12,RCLK*%
%TO.N,Net-(J1-Pin_5)*%
X102285000Y-56205000D03*
%TO.P,U3,13,~{OE}*%
%TO.N,Net-(J1-Pin_1)*%
X99745000Y-56205000D03*
%TO.P,U3,14,SER*%
%TO.N,Net-(U1-QH')*%
X97205000Y-56205000D03*
%TO.P,U3,15,QA*%
%TO.N,Net-(U2-QA)*%
X94665000Y-56205000D03*
%TO.P,U3,16,VCC*%
%TO.N,Net-(J2-Pin_2)*%
X92125000Y-56205000D03*
%TD*%
D12*
%TO.P,R16,1*%
%TO.N,Net-(U1-QH)*%
X87000000Y-71510000D03*
D13*
%TO.P,R16,2*%
%TO.N,Net-(J4-Pin_1)*%
X87000000Y-76590000D03*
%TD*%
D10*
%TO.P,Row_8,1,Pin_1*%
%TO.N,Net-(J10-Pin_1)*%
X229500000Y-84000000D03*
D11*
%TO.P,Row_8,2,Pin_2*%
%TO.N,Net-(J10-Pin_2)*%
X227000000Y-84000000D03*
%TO.P,Row_8,3,Pin_3*%
%TO.N,Net-(J10-Pin_3)*%
X224500000Y-84000000D03*
%TO.P,Row_8,4,Pin_4*%
%TO.N,Net-(J10-Pin_4)*%
X222000000Y-84000000D03*
%TO.P,Row_8,5,Pin_5*%
%TO.N,Net-(J10-Pin_5)*%
X219500000Y-84000000D03*
%TO.P,Row_8,6,Pin_6*%
%TO.N,Net-(J10-Pin_6)*%
X217000000Y-84000000D03*
%TO.P,Row_8,7,Pin_7*%
%TO.N,Net-(J10-Pin_7)*%
X214500000Y-84000000D03*
%TO.P,Row_8,8,Pin_8*%
%TO.N,Net-(J10-Pin_8)*%
X212000000Y-84000000D03*
%TD*%
D12*
%TO.P,R27,1*%
%TO.N,Net-(U4-QC)*%
X119900000Y-71550000D03*
D13*
%TO.P,R27,2*%
%TO.N,Net-(J6-Pin_6)*%
X119900000Y-76630000D03*
%TD*%
D12*
%TO.P,R8,1*%
%TO.N,Net-(U3-QH)*%
X63000000Y-71420000D03*
D13*
%TO.P,R8,2*%
%TO.N,Net-(J3-Pin_1)*%
X63000000Y-76500000D03*
%TD*%
D10*
%TO.P,Row_2,1,Pin_1*%
%TO.N,Net-(J4-Pin_1)*%
X84500000Y-84000000D03*
D11*
%TO.P,Row_2,2,Pin_2*%
%TO.N,Net-(J4-Pin_2)*%
X82000000Y-84000000D03*
%TO.P,Row_2,3,Pin_3*%
%TO.N,Net-(J4-Pin_3)*%
X79500000Y-84000000D03*
%TO.P,Row_2,4,Pin_4*%
%TO.N,Net-(J4-Pin_4)*%
X77000000Y-84000000D03*
%TO.P,Row_2,5,Pin_5*%
%TO.N,Net-(J4-Pin_5)*%
X74500000Y-84000000D03*
%TO.P,Row_2,6,Pin_6*%
%TO.N,Net-(J4-Pin_6)*%
X72000000Y-84000000D03*
%TO.P,Row_2,7,Pin_7*%
%TO.N,Net-(J4-Pin_7)*%
X69500000Y-84000000D03*
%TO.P,Row_2,8,Pin_8*%
%TO.N,Net-(J4-Pin_8)*%
X67000000Y-84000000D03*
%TD*%
D12*
%TO.P,R42,1*%
%TO.N,Net-(U6-QB)*%
X165000000Y-71510000D03*
D13*
%TO.P,R42,2*%
%TO.N,Net-(J8-Pin_7)*%
X165000000Y-76590000D03*
%TD*%
D12*
%TO.P,R47,1*%
%TO.N,Net-(U6-QG)*%
X180000000Y-71510000D03*
D13*
%TO.P,R47,2*%
%TO.N,Net-(J8-Pin_2)*%
X180000000Y-76590000D03*
%TD*%
D12*
%TO.P,R38,1*%
%TO.N,Net-(U5-QF)*%
X153000000Y-71510000D03*
D13*
%TO.P,R38,2*%
%TO.N,Net-(J7-Pin_3)*%
X153000000Y-76590000D03*
%TD*%
D12*
%TO.P,R5,1*%
%TO.N,Net-(U3-QE)*%
X54000000Y-71420000D03*
D13*
%TO.P,R5,2*%
%TO.N,Net-(J3-Pin_4)*%
X54000000Y-76500000D03*
%TD*%
D12*
%TO.P,R53,1*%
%TO.N,Net-(U7-QE)*%
X198000000Y-71510000D03*
D13*
%TO.P,R53,2*%
%TO.N,Net-(J9-Pin_4)*%
X198000000Y-76590000D03*
%TD*%
D14*
%TO.P,U5,1,QB*%
%TO.N,Net-(U5-QB)*%
X138450000Y-63420000D03*
D15*
%TO.P,U5,2,QC*%
%TO.N,Net-(U5-QC)*%
X140990000Y-63420000D03*
%TO.P,U5,3,QD*%
%TO.N,Net-(U5-QD)*%
X143530000Y-63420000D03*
%TO.P,U5,4,QE*%
%TO.N,Net-(U5-QE)*%
X146070000Y-63420000D03*
%TO.P,U5,5,QF*%
%TO.N,Net-(U5-QF)*%
X148610000Y-63420000D03*
%TO.P,U5,6,QG*%
%TO.N,Net-(U5-QG)*%
X151150000Y-63420000D03*
%TO.P,U5,7,QH*%
%TO.N,Net-(U5-QH)*%
X153690000Y-63420000D03*
%TO.P,U5,8,GND*%
%TO.N,Net-(J2-Pin_1)*%
X156230000Y-63420000D03*
%TO.P,U5,9,QH'*%
%TO.N,Net-(U5-QH')*%
X156230000Y-55800000D03*
%TO.P,U5,10,~{SRCLR}*%
%TO.N,Net-(J1-Pin_2)*%
X153690000Y-55800000D03*
%TO.P,U5,11,SRCLK*%
%TO.N,Net-(J1-Pin_4)*%
X151150000Y-55800000D03*
%TO.P,U5,12,RCLK*%
%TO.N,Net-(J1-Pin_5)*%
X148610000Y-55800000D03*
%TO.P,U5,13,~{OE}*%
%TO.N,Net-(J1-Pin_1)*%
X146070000Y-55800000D03*
%TO.P,U5,14,SER*%
%TO.N,Net-(U4-QH')*%
X143530000Y-55800000D03*
%TO.P,U5,15,QA*%
%TO.N,Net-(U5-QA)*%
X140990000Y-55800000D03*
%TO.P,U5,16,VCC*%
%TO.N,Net-(J2-Pin_2)*%
X138450000Y-55800000D03*
%TD*%
D12*
%TO.P,R37,1*%
%TO.N,Net-(U5-QE)*%
X150000000Y-71510000D03*
D13*
%TO.P,R37,2*%
%TO.N,Net-(J7-Pin_4)*%
X150000000Y-76590000D03*
%TD*%
D12*
%TO.P,R62,1*%
%TO.N,Net-(U8-QF)*%
X225000000Y-71510000D03*
D13*
%TO.P,R62,2*%
%TO.N,Net-(J10-Pin_3)*%
X225000000Y-76590000D03*
%TD*%
D12*
%TO.P,R64,1*%
%TO.N,Net-(U8-QH)*%
X231000000Y-71510000D03*
D13*
%TO.P,R64,2*%
%TO.N,Net-(J10-Pin_1)*%
X231000000Y-76590000D03*
%TD*%
D12*
%TO.P,R1,1*%
%TO.N,Net-(U3-QA)*%
X42000000Y-71420000D03*
D13*
%TO.P,R1,2*%
%TO.N,Net-(J3-Pin_8)*%
X42000000Y-76500000D03*
%TD*%
D12*
%TO.P,R55,1*%
%TO.N,Net-(U7-QG)*%
X204000000Y-71510000D03*
D13*
%TO.P,R55,2*%
%TO.N,Net-(J9-Pin_2)*%
X204000000Y-76590000D03*
%TD*%
D12*
%TO.P,R46,1*%
%TO.N,Net-(U6-QF)*%
X177000000Y-71510000D03*
D13*
%TO.P,R46,2*%
%TO.N,Net-(J8-Pin_3)*%
X177000000Y-76590000D03*
%TD*%
D16*
%TO.P,power,1,Pin_1*%
%TO.N,Net-(J2-Pin_1)*%
X76000000Y-45000000D03*
D17*
%TO.P,power,2,Pin_2*%
%TO.N,Net-(J2-Pin_2)*%
X81000000Y-45000000D03*
%TD*%
D12*
%TO.P,R35,1*%
%TO.N,Net-(U5-QC)*%
X144000000Y-71510000D03*
D13*
%TO.P,R35,2*%
%TO.N,Net-(J7-Pin_6)*%
X144000000Y-76590000D03*
%TD*%
D12*
%TO.P,R61,1*%
%TO.N,Net-(U8-QE)*%
X222000000Y-71510000D03*
D13*
%TO.P,R61,2*%
%TO.N,Net-(J10-Pin_4)*%
X222000000Y-76590000D03*
%TD*%
D12*
%TO.P,R48,1*%
%TO.N,Net-(U6-QH)*%
X183000000Y-71510000D03*
D13*
%TO.P,R48,2*%
%TO.N,Net-(J8-Pin_1)*%
X183000000Y-76590000D03*
%TD*%
D12*
%TO.P,R20,1*%
%TO.N,Net-(U2-QD)*%
X99000000Y-71510000D03*
D13*
%TO.P,R20,2*%
%TO.N,Net-(J5-Pin_5)*%
X99000000Y-76590000D03*
%TD*%
D12*
%TO.P,R19,1*%
%TO.N,Net-(U2-QC)*%
X96000000Y-71510000D03*
D13*
%TO.P,R19,2*%
%TO.N,Net-(J5-Pin_6)*%
X96000000Y-76590000D03*
%TD*%
D12*
%TO.P,R18,1*%
%TO.N,Net-(U2-QB)*%
X93000000Y-71510000D03*
D13*
%TO.P,R18,2*%
%TO.N,Net-(J5-Pin_7)*%
X93000000Y-76590000D03*
%TD*%
D12*
%TO.P,R49,1*%
%TO.N,Net-(U7-QA)*%
X186000000Y-71510000D03*
D13*
%TO.P,R49,2*%
%TO.N,Net-(J9-Pin_8)*%
X186000000Y-76590000D03*
%TD*%
D12*
%TO.P,R29,1*%
%TO.N,Net-(U4-QE)*%
X125900000Y-71550000D03*
D13*
%TO.P,R29,2*%
%TO.N,Net-(J6-Pin_4)*%
X125900000Y-76630000D03*
%TD*%
D12*
%TO.P,R44,1*%
%TO.N,Net-(U6-QD)*%
X171000000Y-71510000D03*
D13*
%TO.P,R44,2*%
%TO.N,Net-(J8-Pin_5)*%
X171000000Y-76590000D03*
%TD*%
D10*
%TO.P,Row_7,1,Pin_1*%
%TO.N,Net-(J9-Pin_1)*%
X205500000Y-84000000D03*
D11*
%TO.P,Row_7,2,Pin_2*%
%TO.N,Net-(J9-Pin_2)*%
X203000000Y-84000000D03*
%TO.P,Row_7,3,Pin_3*%
%TO.N,Net-(J9-Pin_3)*%
X200500000Y-84000000D03*
%TO.P,Row_7,4,Pin_4*%
%TO.N,Net-(J9-Pin_4)*%
X198000000Y-84000000D03*
%TO.P,Row_7,5,Pin_5*%
%TO.N,Net-(J9-Pin_5)*%
X195500000Y-84000000D03*
%TO.P,Row_7,6,Pin_6*%
%TO.N,Net-(J9-Pin_6)*%
X193000000Y-84000000D03*
%TO.P,Row_7,7,Pin_7*%
%TO.N,Net-(J9-Pin_7)*%
X190500000Y-84000000D03*
%TO.P,Row_7,8,Pin_8*%
%TO.N,Net-(J9-Pin_8)*%
X188000000Y-84000000D03*
%TD*%
D12*
%TO.P,R6,1*%
%TO.N,Net-(U3-QF)*%
X57000000Y-71420000D03*
D13*
%TO.P,R6,2*%
%TO.N,Net-(J3-Pin_3)*%
X57000000Y-76500000D03*
%TD*%
D12*
%TO.P,R28,1*%
%TO.N,Net-(U4-QD)*%
X122900000Y-71550000D03*
D13*
%TO.P,R28,2*%
%TO.N,Net-(J6-Pin_5)*%
X122900000Y-76630000D03*
%TD*%
D12*
%TO.P,R10,1*%
%TO.N,Net-(U1-QB)*%
X69000000Y-71510000D03*
D13*
%TO.P,R10,2*%
%TO.N,Net-(J4-Pin_7)*%
X69000000Y-76590000D03*
%TD*%
D12*
%TO.P,R60,1*%
%TO.N,Net-(U8-QD)*%
X219000000Y-71510000D03*
D13*
%TO.P,R60,2*%
%TO.N,Net-(J10-Pin_5)*%
X219000000Y-76590000D03*
%TD*%
D12*
%TO.P,R50,1*%
%TO.N,Net-(U7-QB)*%
X189000000Y-71510000D03*
D13*
%TO.P,R50,2*%
%TO.N,Net-(J9-Pin_7)*%
X189000000Y-76590000D03*
%TD*%
D12*
%TO.P,R58,1*%
%TO.N,Net-(U8-QB)*%
X213000000Y-71510000D03*
D13*
%TO.P,R58,2*%
%TO.N,Net-(J10-Pin_7)*%
X213000000Y-76590000D03*
%TD*%
D12*
%TO.P,R13,1*%
%TO.N,Net-(U1-QE)*%
X78000000Y-71510000D03*
D13*
%TO.P,R13,2*%
%TO.N,Net-(J4-Pin_4)*%
X78000000Y-76590000D03*
%TD*%
D12*
%TO.P,R23,1*%
%TO.N,Net-(U2-QG)*%
X108000000Y-71510000D03*
D13*
%TO.P,R23,2*%
%TO.N,Net-(J5-Pin_2)*%
X108000000Y-76590000D03*
%TD*%
D12*
%TO.P,R40,1*%
%TO.N,Net-(U5-QH)*%
X159000000Y-71510000D03*
D13*
%TO.P,R40,2*%
%TO.N,Net-(J7-Pin_1)*%
X159000000Y-76590000D03*
%TD*%
D12*
%TO.P,R32,1*%
%TO.N,Net-(U4-QH)*%
X135000000Y-71510000D03*
D13*
%TO.P,R32,2*%
%TO.N,Net-(J6-Pin_1)*%
X135000000Y-76590000D03*
%TD*%
D12*
%TO.P,R31,1*%
%TO.N,Net-(U4-QG)*%
X132000000Y-71510000D03*
D13*
%TO.P,R31,2*%
%TO.N,Net-(J6-Pin_2)*%
X132000000Y-76590000D03*
%TD*%
D12*
%TO.P,R3,1*%
%TO.N,Net-(U3-QC)*%
X47850000Y-71420000D03*
D13*
%TO.P,R3,2*%
%TO.N,Net-(J3-Pin_6)*%
X47850000Y-76500000D03*
%TD*%
D14*
%TO.P,U1,1,QB*%
%TO.N,Net-(U3-QB)*%
X47125000Y-63825000D03*
D15*
%TO.P,U1,2,QC*%
%TO.N,Net-(U3-QC)*%
X49665000Y-63825000D03*
%TO.P,U1,3,QD*%
%TO.N,Net-(U3-QD)*%
X52205000Y-63825000D03*
%TO.P,U1,4,QE*%
%TO.N,Net-(U3-QE)*%
X54745000Y-63825000D03*
%TO.P,U1,5,QF*%
%TO.N,Net-(U3-QF)*%
X57285000Y-63825000D03*
%TO.P,U1,6,QG*%
%TO.N,Net-(U3-QG)*%
X59825000Y-63825000D03*
%TO.P,U1,7,QH*%
%TO.N,Net-(U3-QH)*%
X62365000Y-63825000D03*
%TO.P,U1,8,GND*%
%TO.N,Net-(J2-Pin_1)*%
X64905000Y-63825000D03*
%TO.P,U1,9,QH'*%
%TO.N,Net-(U1-SER)*%
X64905000Y-56205000D03*
%TO.P,U1,10,~{SRCLR}*%
%TO.N,Net-(J1-Pin_2)*%
X62365000Y-56205000D03*
%TO.P,U1,11,SRCLK*%
%TO.N,Net-(J1-Pin_4)*%
X59825000Y-56205000D03*
%TO.P,U1,12,RCLK*%
%TO.N,Net-(J1-Pin_5)*%
X57285000Y-56205000D03*
%TO.P,U1,13,~{OE}*%
%TO.N,Net-(J1-Pin_1)*%
X54745000Y-56205000D03*
%TO.P,U1,14,SER*%
%TO.N,Net-(J1-Pin_3)*%
X52205000Y-56205000D03*
%TO.P,U1,15,QA*%
%TO.N,Net-(U3-QA)*%
X49665000Y-56205000D03*
%TO.P,U1,16,VCC*%
%TO.N,Net-(J2-Pin_2)*%
X47125000Y-56205000D03*
%TD*%
D12*
%TO.P,R9,1*%
%TO.N,Net-(U1-QA)*%
X66000000Y-71510000D03*
D13*
%TO.P,R9,2*%
%TO.N,Net-(J4-Pin_8)*%
X66000000Y-76590000D03*
%TD*%
D12*
%TO.P,R43,1*%
%TO.N,Net-(U6-QC)*%
X168000000Y-71510000D03*
D13*
%TO.P,R43,2*%
%TO.N,Net-(J8-Pin_6)*%
X168000000Y-76590000D03*
%TD*%
D12*
%TO.P,R33,1*%
%TO.N,Net-(U5-QA)*%
X138100000Y-71510000D03*
D13*
%TO.P,R33,2*%
%TO.N,Net-(J7-Pin_8)*%
X138100000Y-76590000D03*
%TD*%
D10*
%TO.P,Row_4,1,Pin_1*%
%TO.N,Net-(J6-Pin_1)*%
X132500000Y-84000000D03*
D11*
%TO.P,Row_4,2,Pin_2*%
%TO.N,Net-(J6-Pin_2)*%
X130000000Y-84000000D03*
%TO.P,Row_4,3,Pin_3*%
%TO.N,Net-(J6-Pin_3)*%
X127500000Y-84000000D03*
%TO.P,Row_4,4,Pin_4*%
%TO.N,Net-(J6-Pin_4)*%
X125000000Y-84000000D03*
%TO.P,Row_4,5,Pin_5*%
%TO.N,Net-(J6-Pin_5)*%
X122500000Y-84000000D03*
%TO.P,Row_4,6,Pin_6*%
%TO.N,Net-(J6-Pin_6)*%
X120000000Y-84000000D03*
%TO.P,Row_4,7,Pin_7*%
%TO.N,Net-(J6-Pin_7)*%
X117500000Y-84000000D03*
%TO.P,Row_4,8,Pin_8*%
%TO.N,Net-(J6-Pin_8)*%
X115000000Y-84000000D03*
%TD*%
D12*
%TO.P,R25,1*%
%TO.N,Net-(U4-QA)*%
X114000000Y-71510000D03*
D13*
%TO.P,R25,2*%
%TO.N,Net-(J6-Pin_8)*%
X114000000Y-76590000D03*
%TD*%
D12*
%TO.P,R30,1*%
%TO.N,Net-(U4-QF)*%
X128900000Y-71510000D03*
D13*
%TO.P,R30,2*%
%TO.N,Net-(J6-Pin_3)*%
X128900000Y-76590000D03*
%TD*%
D12*
%TO.P,R21,1*%
%TO.N,Net-(U2-QE)*%
X102000000Y-71510000D03*
D13*
%TO.P,R21,2*%
%TO.N,Net-(J5-Pin_4)*%
X102000000Y-76590000D03*
%TD*%
D12*
%TO.P,R39,1*%
%TO.N,Net-(U5-QG)*%
X156000000Y-71510000D03*
D13*
%TO.P,R39,2*%
%TO.N,Net-(J7-Pin_2)*%
X156000000Y-76590000D03*
%TD*%
D12*
%TO.P,R4,1*%
%TO.N,Net-(U3-QD)*%
X51000000Y-71420000D03*
D13*
%TO.P,R4,2*%
%TO.N,Net-(J3-Pin_5)*%
X51000000Y-76500000D03*
%TD*%
D14*
%TO.P,U6,1,QB*%
%TO.N,Net-(U6-QB)*%
X162360000Y-63420000D03*
D15*
%TO.P,U6,2,QC*%
%TO.N,Net-(U6-QC)*%
X164900000Y-63420000D03*
%TO.P,U6,3,QD*%
%TO.N,Net-(U6-QD)*%
X167440000Y-63420000D03*
%TO.P,U6,4,QE*%
%TO.N,Net-(U6-QE)*%
X169980000Y-63420000D03*
%TO.P,U6,5,QF*%
%TO.N,Net-(U6-QF)*%
X172520000Y-63420000D03*
%TO.P,U6,6,QG*%
%TO.N,Net-(U6-QG)*%
X175060000Y-63420000D03*
%TO.P,U6,7,QH*%
%TO.N,Net-(U6-QH)*%
X177600000Y-63420000D03*
%TO.P,U6,8,GND*%
%TO.N,Net-(J2-Pin_1)*%
X180140000Y-63420000D03*
%TO.P,U6,9,QH'*%
%TO.N,Net-(U6-QH')*%
X180140000Y-55800000D03*
%TO.P,U6,10,~{SRCLR}*%
%TO.N,Net-(J1-Pin_2)*%
X177600000Y-55800000D03*
%TO.P,U6,11,SRCLK*%
%TO.N,Net-(J1-Pin_4)*%
X175060000Y-55800000D03*
%TO.P,U6,12,RCLK*%
%TO.N,Net-(J1-Pin_5)*%
X172520000Y-55800000D03*
%TO.P,U6,13,~{OE}*%
%TO.N,Net-(J1-Pin_1)*%
X169980000Y-55800000D03*
%TO.P,U6,14,SER*%
%TO.N,Net-(U5-QH')*%
X167440000Y-55800000D03*
%TO.P,U6,15,QA*%
%TO.N,Net-(U6-QA)*%
X164900000Y-55800000D03*
%TO.P,U6,16,VCC*%
%TO.N,Net-(J2-Pin_2)*%
X162360000Y-55800000D03*
%TD*%
D10*
%TO.P,Row_5,1,Pin_1*%
%TO.N,Net-(J7-Pin_1)*%
X157000000Y-84000000D03*
D11*
%TO.P,Row_5,2,Pin_2*%
%TO.N,Net-(J7-Pin_2)*%
X154500000Y-84000000D03*
%TO.P,Row_5,3,Pin_3*%
%TO.N,Net-(J7-Pin_3)*%
X152000000Y-84000000D03*
%TO.P,Row_5,4,Pin_4*%
%TO.N,Net-(J7-Pin_4)*%
X149500000Y-84000000D03*
%TO.P,Row_5,5,Pin_5*%
%TO.N,Net-(J7-Pin_5)*%
X147000000Y-84000000D03*
%TO.P,Row_5,6,Pin_6*%
%TO.N,Net-(J7-Pin_6)*%
X144500000Y-84000000D03*
%TO.P,Row_5,7,Pin_7*%
%TO.N,Net-(J7-Pin_7)*%
X142000000Y-84000000D03*
%TO.P,Row_5,8,Pin_8*%
%TO.N,Net-(J7-Pin_8)*%
X139500000Y-84000000D03*
%TD*%
D12*
%TO.P,R11,1*%
%TO.N,Net-(U1-QC)*%
X72000000Y-71510000D03*
D13*
%TO.P,R11,2*%
%TO.N,Net-(J4-Pin_6)*%
X72000000Y-76590000D03*
%TD*%
D12*
%TO.P,R24,1*%
%TO.N,Net-(U2-QH)*%
X111000000Y-71510000D03*
D13*
%TO.P,R24,2*%
%TO.N,Net-(J5-Pin_1)*%
X111000000Y-76590000D03*
%TD*%
D12*
%TO.P,R36,1*%
%TO.N,Net-(U5-QD)*%
X147000000Y-71510000D03*
D13*
%TO.P,R36,2*%
%TO.N,Net-(J7-Pin_5)*%
X147000000Y-76590000D03*
%TD*%
D12*
%TO.P,R57,1*%
%TO.N,Net-(U8-QA)*%
X210200000Y-71510000D03*
D13*
%TO.P,R57,2*%
%TO.N,Net-(J10-Pin_8)*%
X210200000Y-76590000D03*
%TD*%
D10*
%TO.P,Row_3,1,Pin_1*%
%TO.N,Net-(J5-Pin_1)*%
X108500000Y-84000000D03*
D11*
%TO.P,Row_3,2,Pin_2*%
%TO.N,Net-(J5-Pin_2)*%
X106000000Y-84000000D03*
%TO.P,Row_3,3,Pin_3*%
%TO.N,Net-(J5-Pin_3)*%
X103500000Y-84000000D03*
%TO.P,Row_3,4,Pin_4*%
%TO.N,Net-(J5-Pin_4)*%
X101000000Y-84000000D03*
%TO.P,Row_3,5,Pin_5*%
%TO.N,Net-(J5-Pin_5)*%
X98500000Y-84000000D03*
%TO.P,Row_3,6,Pin_6*%
%TO.N,Net-(J5-Pin_6)*%
X96000000Y-84000000D03*
%TO.P,Row_3,7,Pin_7*%
%TO.N,Net-(J5-Pin_7)*%
X93500000Y-84000000D03*
%TO.P,Row_3,8,Pin_8*%
%TO.N,Net-(J5-Pin_8)*%
X91000000Y-84000000D03*
%TD*%
D12*
%TO.P,R34,1*%
%TO.N,Net-(U5-QB)*%
X141000000Y-71510000D03*
D13*
%TO.P,R34,2*%
%TO.N,Net-(J7-Pin_7)*%
X141000000Y-76590000D03*
%TD*%
D12*
%TO.P,R15,1*%
%TO.N,Net-(U1-QG)*%
X84000000Y-71510000D03*
D13*
%TO.P,R15,2*%
%TO.N,Net-(J4-Pin_2)*%
X84000000Y-76590000D03*
%TD*%
D10*
%TO.P,Row_6,1,Pin_1*%
%TO.N,Net-(J8-Pin_1)*%
X181000000Y-84000000D03*
D11*
%TO.P,Row_6,2,Pin_2*%
%TO.N,Net-(J8-Pin_2)*%
X178500000Y-84000000D03*
%TO.P,Row_6,3,Pin_3*%
%TO.N,Net-(J8-Pin_3)*%
X176000000Y-84000000D03*
%TO.P,Row_6,4,Pin_4*%
%TO.N,Net-(J8-Pin_4)*%
X173500000Y-84000000D03*
%TO.P,Row_6,5,Pin_5*%
%TO.N,Net-(J8-Pin_5)*%
X171000000Y-84000000D03*
%TO.P,Row_6,6,Pin_6*%
%TO.N,Net-(J8-Pin_6)*%
X168500000Y-84000000D03*
%TO.P,Row_6,7,Pin_7*%
%TO.N,Net-(J8-Pin_7)*%
X166000000Y-84000000D03*
%TO.P,Row_6,8,Pin_8*%
%TO.N,Net-(J8-Pin_8)*%
X163500000Y-84000000D03*
%TD*%
D12*
%TO.P,R56,1*%
%TO.N,Net-(U7-QH)*%
X207000000Y-71510000D03*
D13*
%TO.P,R56,2*%
%TO.N,Net-(J9-Pin_1)*%
X207000000Y-76590000D03*
%TD*%
D12*
%TO.P,R59,1*%
%TO.N,Net-(U8-QC)*%
X216000000Y-71510000D03*
D13*
%TO.P,R59,2*%
%TO.N,Net-(J10-Pin_6)*%
X216000000Y-76590000D03*
%TD*%
D12*
%TO.P,R12,1*%
%TO.N,Net-(U1-QD)*%
X75000000Y-71510000D03*
D13*
%TO.P,R12,2*%
%TO.N,Net-(J4-Pin_5)*%
X75000000Y-76590000D03*
%TD*%
D14*
%TO.P,U7,1,QB*%
%TO.N,Net-(U7-QB)*%
X187100000Y-63670000D03*
D15*
%TO.P,U7,2,QC*%
%TO.N,Net-(U7-QC)*%
X189640000Y-63670000D03*
%TO.P,U7,3,QD*%
%TO.N,Net-(U7-QD)*%
X192180000Y-63670000D03*
%TO.P,U7,4,QE*%
%TO.N,Net-(U7-QE)*%
X194720000Y-63670000D03*
%TO.P,U7,5,QF*%
%TO.N,Net-(U7-QF)*%
X197260000Y-63670000D03*
%TO.P,U7,6,QG*%
%TO.N,Net-(U7-QG)*%
X199800000Y-63670000D03*
%TO.P,U7,7,QH*%
%TO.N,Net-(U7-QH)*%
X202340000Y-63670000D03*
%TO.P,U7,8,GND*%
%TO.N,Net-(J2-Pin_1)*%
X204880000Y-63670000D03*
%TO.P,U7,9,QH'*%
%TO.N,Net-(U7-QH')*%
X204880000Y-56050000D03*
%TO.P,U7,10,~{SRCLR}*%
%TO.N,Net-(J1-Pin_2)*%
X202340000Y-56050000D03*
%TO.P,U7,11,SRCLK*%
%TO.N,Net-(J1-Pin_4)*%
X199800000Y-56050000D03*
%TO.P,U7,12,RCLK*%
%TO.N,Net-(J1-Pin_5)*%
X197260000Y-56050000D03*
%TO.P,U7,13,~{OE}*%
%TO.N,Net-(J1-Pin_1)*%
X194720000Y-56050000D03*
%TO.P,U7,14,SER*%
%TO.N,Net-(U6-QH')*%
X192180000Y-56050000D03*
%TO.P,U7,15,QA*%
%TO.N,Net-(U7-QA)*%
X189640000Y-56050000D03*
%TO.P,U7,16,VCC*%
%TO.N,Net-(J2-Pin_2)*%
X187100000Y-56050000D03*
%TD*%
D18*
%TO.N,Net-(J1-Pin_2)*%
X221174500Y-51000000D03*
X218755500Y-51000000D03*
%TO.N,Net-(J1-Pin_4)*%
X173000000Y-52000000D03*
X89000000Y-52000000D03*
X103000000Y-52000000D03*
X149000000Y-52000000D03*
X89000000Y-50000000D03*
X197000000Y-52000000D03*
X103000000Y-50000000D03*
X221011946Y-50011946D03*
X125000000Y-50000000D03*
X197000000Y-50000000D03*
X149000000Y-50000000D03*
X173000000Y-50000000D03*
X125000000Y-52000000D03*
X218755500Y-50000000D03*
%TO.N,Net-(J1-Pin_5)*%
X88000000Y-52000000D03*
X218755500Y-49000000D03*
X196000000Y-49000000D03*
X124000000Y-52000000D03*
X172000000Y-49000000D03*
X88000000Y-49000000D03*
X196000000Y-52000000D03*
X102000000Y-49000000D03*
X124000000Y-49000000D03*
X148000000Y-52000000D03*
X172000000Y-52000000D03*
X102000000Y-52000000D03*
X221000000Y-49000000D03*
X148000000Y-49000000D03*
%TO.N,Net-(J1-Pin_1)*%
X171000000Y-52000000D03*
X101000000Y-52000000D03*
X87000000Y-48000000D03*
X195000000Y-52000000D03*
X101000000Y-48000000D03*
X87000000Y-52000000D03*
X123000000Y-48000000D03*
X147000000Y-52000000D03*
X123000000Y-52000000D03*
X147000000Y-48000000D03*
X171000000Y-48000000D03*
X195000000Y-48000000D03*
%TD*%
D19*
%TO.N,Net-(U3-QB)*%
X47125000Y-65825000D02*
X47125000Y-63825000D01*
X45000000Y-67950000D02*
X47125000Y-65825000D01*
X45000000Y-71420000D02*
X45000000Y-67950000D01*
%TO.N,Net-(U3-QC)*%
X47850000Y-67150000D02*
X49665000Y-65335000D01*
X47850000Y-71420000D02*
X47850000Y-67150000D01*
X49665000Y-65335000D02*
X49665000Y-63825000D01*
%TO.N,Net-(J1-Pin_1)*%
X62000000Y-59000000D02*
X55000000Y-59000000D01*
X63615000Y-57385000D02*
X62000000Y-59000000D01*
X63615000Y-46615000D02*
X63615000Y-57385000D01*
X63490000Y-46490000D02*
X63615000Y-46615000D01*
X55000000Y-59000000D02*
X54745000Y-58745000D01*
X54745000Y-58745000D02*
X54745000Y-56205000D01*
%TO.N,Net-(U1-QA)*%
X68000000Y-59840000D02*
X71840000Y-56000000D01*
X66000000Y-71510000D02*
X68000000Y-69510000D01*
X68000000Y-69510000D02*
X68000000Y-59840000D01*
%TO.N,Net-(U3-QA)*%
X44000000Y-69420000D02*
X44000000Y-61870000D01*
X44000000Y-61870000D02*
X49665000Y-56205000D01*
X42000000Y-71420000D02*
X44000000Y-69420000D01*
%TO.N,Net-(J3-Pin_8)*%
X43000000Y-77500000D02*
X43000000Y-83910000D01*
X42000000Y-76500000D02*
X43000000Y-77500000D01*
%TO.N,Net-(U7-QG)*%
X199800000Y-63670000D02*
X199800000Y-67310000D01*
X199800000Y-67310000D02*
X204000000Y-71510000D01*
%TO.N,Net-(J9-Pin_2)*%
X203000000Y-77590000D02*
X204000000Y-76590000D01*
X203000000Y-84000000D02*
X203000000Y-77590000D01*
%TO.N,Net-(U7-QH)*%
X202340000Y-66850000D02*
X207000000Y-71510000D01*
X202340000Y-63670000D02*
X202340000Y-66850000D01*
%TO.N,Net-(J9-Pin_1)*%
X205500000Y-78090000D02*
X207000000Y-76590000D01*
X205500000Y-84000000D02*
X205500000Y-78090000D01*
%TO.N,Net-(U8-QA)*%
X210200000Y-60250000D02*
X210200000Y-71510000D01*
X214400000Y-56050000D02*
X210200000Y-60250000D01*
%TO.N,Net-(J10-Pin_8)*%
X212000000Y-78390000D02*
X210200000Y-76590000D01*
X212000000Y-84000000D02*
X212000000Y-78390000D01*
%TO.N,Net-(U8-QB)*%
X211860000Y-63670000D02*
X211860000Y-70370000D01*
X211860000Y-70370000D02*
X213000000Y-71510000D01*
%TO.N,Net-(J10-Pin_7)*%
X214500000Y-84000000D02*
X214500000Y-78090000D01*
X214500000Y-78090000D02*
X213000000Y-76590000D01*
%TO.N,Net-(U8-QC)*%
X214400000Y-63670000D02*
X214400000Y-69910000D01*
X214400000Y-69910000D02*
X216000000Y-71510000D01*
%TO.N,Net-(J10-Pin_6)*%
X217000000Y-84000000D02*
X217000000Y-77590000D01*
X217000000Y-77590000D02*
X216000000Y-76590000D01*
%TO.N,Net-(U8-QD)*%
X216940000Y-69450000D02*
X219000000Y-71510000D01*
X216940000Y-63670000D02*
X216940000Y-69450000D01*
%TO.N,Net-(J10-Pin_5)*%
X219500000Y-77090000D02*
X219000000Y-76590000D01*
X219500000Y-84000000D02*
X219500000Y-77090000D01*
%TO.N,Net-(U8-QE)*%
X219480000Y-63670000D02*
X219480000Y-68990000D01*
X219480000Y-68990000D02*
X222000000Y-71510000D01*
%TO.N,Net-(J10-Pin_4)*%
X222000000Y-84000000D02*
X222000000Y-76590000D01*
%TO.N,Net-(U8-QF)*%
X222020000Y-68530000D02*
X225000000Y-71510000D01*
X222020000Y-63670000D02*
X222020000Y-68530000D01*
%TO.N,Net-(J10-Pin_3)*%
X224500000Y-77090000D02*
X225000000Y-76590000D01*
X224500000Y-84000000D02*
X224500000Y-77090000D01*
%TO.N,Net-(U8-QG)*%
X224560000Y-68070000D02*
X228000000Y-71510000D01*
X224560000Y-63670000D02*
X224560000Y-68070000D01*
%TO.N,Net-(J10-Pin_2)*%
X227000000Y-84000000D02*
X227000000Y-77590000D01*
X227000000Y-77590000D02*
X228000000Y-76590000D01*
%TO.N,Net-(U1-QC)*%
X72000000Y-63780000D02*
X71840000Y-63620000D01*
X72000000Y-71510000D02*
X72000000Y-63780000D01*
%TO.N,Net-(J4-Pin_6)*%
X72000000Y-76590000D02*
X72000000Y-84000000D01*
%TO.N,Net-(J3-Pin_7)*%
X45000000Y-83410000D02*
X45500000Y-83910000D01*
X45000000Y-76500000D02*
X45000000Y-83410000D01*
%TO.N,Net-(J3-Pin_6)*%
X47850000Y-83760000D02*
X48000000Y-83910000D01*
X47850000Y-76500000D02*
X47850000Y-83760000D01*
%TO.N,Net-(U3-QD)*%
X51000000Y-65030000D02*
X52205000Y-63825000D01*
X51000000Y-71420000D02*
X51000000Y-65030000D01*
%TO.N,Net-(J3-Pin_5)*%
X51000000Y-83410000D02*
X50500000Y-83910000D01*
X51000000Y-76500000D02*
X51000000Y-83410000D01*
%TO.N,Net-(U3-QE)*%
X54000000Y-71420000D02*
X54000000Y-64570000D01*
X54000000Y-64570000D02*
X54745000Y-63825000D01*
%TO.N,Net-(J3-Pin_4)*%
X53000000Y-77500000D02*
X53000000Y-83910000D01*
X54000000Y-76500000D02*
X53000000Y-77500000D01*
%TO.N,Net-(U3-QF)*%
X57000000Y-64110000D02*
X57285000Y-63825000D01*
X57000000Y-71420000D02*
X57000000Y-64110000D01*
%TO.N,Net-(J3-Pin_3)*%
X55500000Y-78000000D02*
X55500000Y-83910000D01*
X57000000Y-76500000D02*
X55500000Y-78000000D01*
%TO.N,Net-(U3-QG)*%
X60000000Y-71420000D02*
X60000000Y-64000000D01*
X60000000Y-64000000D02*
X59825000Y-63825000D01*
%TO.N,Net-(J3-Pin_2)*%
X58000000Y-78500000D02*
X58000000Y-83910000D01*
X60000000Y-76500000D02*
X58000000Y-78500000D01*
%TO.N,Net-(U3-QH)*%
X63000000Y-71420000D02*
X63000000Y-64460000D01*
X63000000Y-64460000D02*
X62365000Y-63825000D01*
%TO.N,Net-(J3-Pin_1)*%
X60500000Y-79000000D02*
X60500000Y-83910000D01*
X63000000Y-76500000D02*
X60500000Y-79000000D01*
%TO.N,Net-(J4-Pin_8)*%
X66000000Y-76590000D02*
X67000000Y-77590000D01*
X67000000Y-77590000D02*
X67000000Y-84000000D01*
%TO.N,Net-(U1-QB)*%
X69000000Y-71510000D02*
X69000000Y-63920000D01*
X69000000Y-63920000D02*
X69300000Y-63620000D01*
%TO.N,Net-(J4-Pin_7)*%
X69000000Y-83500000D02*
X69500000Y-84000000D01*
X69000000Y-76590000D02*
X69000000Y-83500000D01*
%TO.N,Net-(U8-QH)*%
X227100000Y-67610000D02*
X231000000Y-71510000D01*
X227100000Y-63670000D02*
X227100000Y-67610000D01*
%TO.N,Net-(J10-Pin_1)*%
X229500000Y-84000000D02*
X229500000Y-78090000D01*
X229500000Y-78090000D02*
X231000000Y-76590000D01*
%TO.N,Net-(U1-QD)*%
X75000000Y-64240000D02*
X74380000Y-63620000D01*
X75000000Y-71510000D02*
X75000000Y-64240000D01*
%TO.N,Net-(J4-Pin_5)*%
X74000000Y-77590000D02*
X74000000Y-83500000D01*
X75000000Y-76590000D02*
X74000000Y-77590000D01*
X74000000Y-83500000D02*
X74500000Y-84000000D01*
%TO.N,Net-(U1-QE)*%
X78000000Y-71510000D02*
X78000000Y-64700000D01*
X78000000Y-64700000D02*
X76920000Y-63620000D01*
%TO.N,Net-(J4-Pin_4)*%
X78000000Y-76590000D02*
X77000000Y-77590000D01*
X77000000Y-77590000D02*
X77000000Y-84000000D01*
%TO.N,Net-(U1-QF)*%
X81000000Y-65160000D02*
X79460000Y-63620000D01*
X81000000Y-71510000D02*
X81000000Y-65160000D01*
%TO.N,Net-(J4-Pin_3)*%
X80000000Y-83500000D02*
X79500000Y-84000000D01*
X81000000Y-76590000D02*
X80000000Y-77590000D01*
X80000000Y-77590000D02*
X80000000Y-83500000D01*
%TO.N,Net-(U1-QG)*%
X84000000Y-71510000D02*
X84000000Y-65620000D01*
X84000000Y-65620000D02*
X82000000Y-63620000D01*
%TO.N,Net-(J4-Pin_2)*%
X84000000Y-76590000D02*
X82000000Y-78590000D01*
X82000000Y-78590000D02*
X82000000Y-84000000D01*
%TO.N,Net-(U1-QH)*%
X87000000Y-71510000D02*
X87000000Y-66080000D01*
X87000000Y-66080000D02*
X84540000Y-63620000D01*
%TO.N,Net-(J4-Pin_1)*%
X85000000Y-78590000D02*
X85000000Y-83500000D01*
X87000000Y-76590000D02*
X85000000Y-78590000D01*
X85000000Y-83500000D02*
X84500000Y-84000000D01*
%TO.N,Net-(U2-QA)*%
X90000000Y-60870000D02*
X94665000Y-56205000D01*
X90000000Y-71510000D02*
X90000000Y-60870000D01*
%TO.N,Net-(J5-Pin_8)*%
X90000000Y-76590000D02*
X91000000Y-77590000D01*
X91000000Y-77590000D02*
X91000000Y-84000000D01*
%TO.N,Net-(U2-QB)*%
X93000000Y-64700000D02*
X92125000Y-63825000D01*
X93000000Y-71510000D02*
X93000000Y-64700000D01*
%TO.N,Net-(J5-Pin_7)*%
X93000000Y-76590000D02*
X93000000Y-83500000D01*
X93000000Y-83500000D02*
X93500000Y-84000000D01*
%TO.N,Net-(U2-QC)*%
X96000000Y-65160000D02*
X94665000Y-63825000D01*
X96000000Y-71510000D02*
X96000000Y-65160000D01*
%TO.N,Net-(J5-Pin_6)*%
X96000000Y-76590000D02*
X96000000Y-84000000D01*
%TO.N,Net-(U2-QD)*%
X99000000Y-65620000D02*
X97205000Y-63825000D01*
X99000000Y-71510000D02*
X99000000Y-65620000D01*
%TO.N,Net-(J5-Pin_5)*%
X99000000Y-76590000D02*
X99000000Y-83500000D01*
X99000000Y-83500000D02*
X98500000Y-84000000D01*
%TO.N,Net-(U2-QE)*%
X102000000Y-71510000D02*
X102000000Y-66080000D01*
X102000000Y-66080000D02*
X99745000Y-63825000D01*
%TO.N,Net-(J5-Pin_4)*%
X101000000Y-77590000D02*
X101000000Y-84000000D01*
X102000000Y-76590000D02*
X101000000Y-77590000D01*
%TO.N,Net-(U2-QF)*%
X105000000Y-66540000D02*
X102285000Y-63825000D01*
X105000000Y-71510000D02*
X105000000Y-66540000D01*
%TO.N,Net-(J5-Pin_3)*%
X105000000Y-76590000D02*
X103500000Y-78090000D01*
X103500000Y-78090000D02*
X103500000Y-84000000D01*
%TO.N,Net-(U2-QG)*%
X108000000Y-67000000D02*
X104825000Y-63825000D01*
X108000000Y-71510000D02*
X108000000Y-67000000D01*
%TO.N,Net-(J5-Pin_2)*%
X106000000Y-78590000D02*
X106000000Y-84000000D01*
X108000000Y-76590000D02*
X106000000Y-78590000D01*
%TO.N,Net-(U2-QH)*%
X111000000Y-67460000D02*
X107365000Y-63825000D01*
X111000000Y-71510000D02*
X111000000Y-67460000D01*
%TO.N,Net-(J5-Pin_1)*%
X111000000Y-76590000D02*
X108500000Y-79090000D01*
X108500000Y-79090000D02*
X108500000Y-84000000D01*
%TO.N,Net-(U4-QA)*%
X113000000Y-60320000D02*
X113000000Y-70510000D01*
X117270000Y-56050000D02*
X113000000Y-60320000D01*
X113000000Y-70510000D02*
X114000000Y-71510000D01*
%TO.N,Net-(J6-Pin_8)*%
X114000000Y-76590000D02*
X115000000Y-77590000D01*
X115000000Y-77590000D02*
X115000000Y-84000000D01*
%TO.N,Net-(U4-QB)*%
X114730000Y-63670000D02*
X114730000Y-69340000D01*
X114730000Y-69340000D02*
X116900000Y-71510000D01*
%TO.N,Net-(J6-Pin_7)*%
X116900000Y-83400000D02*
X117500000Y-84000000D01*
X116900000Y-76590000D02*
X116900000Y-83400000D01*
%TO.N,Net-(U4-QC)*%
X117270000Y-68920000D02*
X119900000Y-71550000D01*
X117270000Y-63670000D02*
X117270000Y-68920000D01*
%TO.N,Net-(J6-Pin_6)*%
X119900000Y-76630000D02*
X119900000Y-83900000D01*
X119900000Y-83900000D02*
X120000000Y-84000000D01*
%TO.N,Net-(U4-QD)*%
X119810000Y-68460000D02*
X122900000Y-71550000D01*
X119810000Y-63670000D02*
X119810000Y-68460000D01*
%TO.N,Net-(J6-Pin_5)*%
X122900000Y-76630000D02*
X122900000Y-83600000D01*
X122900000Y-83600000D02*
X122500000Y-84000000D01*
%TO.N,Net-(U4-QE)*%
X122350000Y-68000000D02*
X125900000Y-71550000D01*
X122350000Y-63670000D02*
X122350000Y-68000000D01*
%TO.N,Net-(J6-Pin_4)*%
X125900000Y-76630000D02*
X125000000Y-77530000D01*
X125000000Y-77530000D02*
X125000000Y-84000000D01*
%TO.N,Net-(U4-QF)*%
X124890000Y-67500000D02*
X128900000Y-71510000D01*
X124890000Y-63670000D02*
X124890000Y-67500000D01*
%TO.N,Net-(J6-Pin_3)*%
X127500000Y-77990000D02*
X127500000Y-84000000D01*
X128900000Y-76590000D02*
X127500000Y-77990000D01*
%TO.N,Net-(U4-QG)*%
X127430000Y-63670000D02*
X127430000Y-66940000D01*
X127430000Y-66940000D02*
X132000000Y-71510000D01*
%TO.N,Net-(J6-Pin_2)*%
X130000000Y-78590000D02*
X130000000Y-84000000D01*
X132000000Y-76590000D02*
X130000000Y-78590000D01*
%TO.N,Net-(U4-QH)*%
X129970000Y-63670000D02*
X129970000Y-66480000D01*
X129970000Y-66480000D02*
X135000000Y-71510000D01*
%TO.N,Net-(J6-Pin_1)*%
X135000000Y-76590000D02*
X132500000Y-79090000D01*
X132500000Y-79090000D02*
X132500000Y-84000000D01*
%TO.N,Net-(U5-QA)*%
X137000000Y-59790000D02*
X137000000Y-70410000D01*
X140990000Y-55800000D02*
X137000000Y-59790000D01*
X137000000Y-70410000D02*
X138100000Y-71510000D01*
%TO.N,Net-(J7-Pin_8)*%
X138100000Y-76590000D02*
X139500000Y-77990000D01*
X139500000Y-77990000D02*
X139500000Y-84000000D01*
%TO.N,Net-(U5-QB)*%
X138450000Y-63420000D02*
X138450000Y-68960000D01*
X138450000Y-68960000D02*
X141000000Y-71510000D01*
%TO.N,Net-(J7-Pin_7)*%
X142000000Y-77590000D02*
X142000000Y-84000000D01*
X141000000Y-76590000D02*
X142000000Y-77590000D01*
%TO.N,Net-(U5-QC)*%
X140990000Y-68500000D02*
X144000000Y-71510000D01*
X140990000Y-63420000D02*
X140990000Y-68500000D01*
%TO.N,Net-(J7-Pin_6)*%
X144000000Y-76590000D02*
X144000000Y-83500000D01*
X144000000Y-83500000D02*
X144500000Y-84000000D01*
%TO.N,Net-(U5-QD)*%
X143530000Y-68040000D02*
X147000000Y-71510000D01*
X143530000Y-63420000D02*
X143530000Y-68040000D01*
%TO.N,Net-(J7-Pin_5)*%
X147000000Y-76590000D02*
X147000000Y-84000000D01*
%TO.N,Net-(U5-QE)*%
X146070000Y-67580000D02*
X150000000Y-71510000D01*
X146070000Y-63420000D02*
X146070000Y-67580000D01*
%TO.N,Net-(J7-Pin_4)*%
X150000000Y-76590000D02*
X150000000Y-83500000D01*
X150000000Y-83500000D02*
X149500000Y-84000000D01*
%TO.N,Net-(U5-QF)*%
X148610000Y-67120000D02*
X153000000Y-71510000D01*
X148610000Y-63420000D02*
X148610000Y-67120000D01*
%TO.N,Net-(J7-Pin_3)*%
X153000000Y-76590000D02*
X152000000Y-77590000D01*
X152000000Y-77590000D02*
X152000000Y-84000000D01*
%TO.N,Net-(U5-QG)*%
X151150000Y-66660000D02*
X156000000Y-71510000D01*
X151150000Y-63420000D02*
X151150000Y-66660000D01*
%TO.N,Net-(J7-Pin_2)*%
X154000000Y-78590000D02*
X154000000Y-83500000D01*
X154000000Y-83500000D02*
X154500000Y-84000000D01*
X156000000Y-76590000D02*
X154000000Y-78590000D01*
%TO.N,Net-(U5-QH)*%
X153690000Y-66200000D02*
X159000000Y-71510000D01*
X153690000Y-63420000D02*
X153690000Y-66200000D01*
%TO.N,Net-(J7-Pin_1)*%
X159000000Y-76590000D02*
X157000000Y-78590000D01*
X157000000Y-78590000D02*
X157000000Y-84000000D01*
%TO.N,Net-(U6-QA)*%
X161000000Y-70210000D02*
X162300000Y-71510000D01*
X164900000Y-55800000D02*
X161000000Y-59700000D01*
X161000000Y-59700000D02*
X161000000Y-70210000D01*
%TO.N,Net-(J8-Pin_8)*%
X162300000Y-76590000D02*
X163500000Y-77790000D01*
X163500000Y-77790000D02*
X163500000Y-84000000D01*
%TO.N,Net-(U6-QB)*%
X162360000Y-63420000D02*
X162360000Y-68870000D01*
X162360000Y-68870000D02*
X165000000Y-71510000D01*
%TO.N,Net-(J8-Pin_7)*%
X165000000Y-76590000D02*
X166000000Y-77590000D01*
X166000000Y-77590000D02*
X166000000Y-84000000D01*
%TO.N,Net-(U6-QC)*%
X164900000Y-63420000D02*
X164900000Y-68410000D01*
X164900000Y-68410000D02*
X168000000Y-71510000D01*
%TO.N,Net-(J8-Pin_6)*%
X168000000Y-83500000D02*
X168500000Y-84000000D01*
X168000000Y-76590000D02*
X168000000Y-83500000D01*
%TO.N,Net-(U6-QD)*%
X167440000Y-63420000D02*
X167440000Y-67950000D01*
X167440000Y-67950000D02*
X171000000Y-71510000D01*
%TO.N,Net-(J8-Pin_5)*%
X171000000Y-76590000D02*
X171000000Y-84000000D01*
%TO.N,Net-(U6-QE)*%
X169980000Y-63420000D02*
X169980000Y-67490000D01*
X169980000Y-67490000D02*
X174000000Y-71510000D01*
%TO.N,Net-(J8-Pin_4)*%
X174000000Y-76590000D02*
X174000000Y-83500000D01*
X174000000Y-83500000D02*
X173500000Y-84000000D01*
%TO.N,Net-(U6-QF)*%
X172520000Y-63420000D02*
X172520000Y-67030000D01*
X172520000Y-67030000D02*
X177000000Y-71510000D01*
%TO.N,Net-(J8-Pin_3)*%
X176000000Y-77590000D02*
X176000000Y-84000000D01*
X177000000Y-76590000D02*
X176000000Y-77590000D01*
%TO.N,Net-(U6-QG)*%
X175060000Y-66570000D02*
X180000000Y-71510000D01*
X175060000Y-63420000D02*
X175060000Y-66570000D01*
%TO.N,Net-(J8-Pin_2)*%
X180000000Y-76590000D02*
X178000000Y-78590000D01*
X178000000Y-78590000D02*
X178000000Y-83500000D01*
X178000000Y-83500000D02*
X178500000Y-84000000D01*
%TO.N,Net-(U6-QH)*%
X177600000Y-66110000D02*
X183000000Y-71510000D01*
X177600000Y-63420000D02*
X177600000Y-66110000D01*
%TO.N,Net-(J8-Pin_1)*%
X183000000Y-76590000D02*
X181000000Y-78590000D01*
X181000000Y-78590000D02*
X181000000Y-84000000D01*
%TO.N,Net-(U7-QA)*%
X189640000Y-56050000D02*
X185000000Y-60690000D01*
X185000000Y-60690000D02*
X185000000Y-70510000D01*
X185000000Y-70510000D02*
X186000000Y-71510000D01*
%TO.N,Net-(J9-Pin_8)*%
X188000000Y-84000000D02*
X188000000Y-78590000D01*
X188000000Y-78590000D02*
X186000000Y-76590000D01*
%TO.N,Net-(U7-QB)*%
X187100000Y-69610000D02*
X189000000Y-71510000D01*
X187100000Y-63670000D02*
X187100000Y-69610000D01*
%TO.N,Net-(J9-Pin_7)*%
X190500000Y-78090000D02*
X189000000Y-76590000D01*
X190500000Y-84000000D02*
X190500000Y-78090000D01*
%TO.N,Net-(U7-QC)*%
X189640000Y-63670000D02*
X189640000Y-69150000D01*
X189640000Y-69150000D02*
X192000000Y-71510000D01*
%TO.N,Net-(J9-Pin_6)*%
X193000000Y-77590000D02*
X192000000Y-76590000D01*
X193000000Y-84000000D02*
X193000000Y-77590000D01*
%TO.N,Net-(U7-QD)*%
X192180000Y-63670000D02*
X192180000Y-68690000D01*
X192180000Y-68690000D02*
X195000000Y-71510000D01*
%TO.N,Net-(J9-Pin_5)*%
X195500000Y-84000000D02*
X195500000Y-77090000D01*
X195500000Y-77090000D02*
X195000000Y-76590000D01*
%TO.N,Net-(U7-QE)*%
X194720000Y-68230000D02*
X198000000Y-71510000D01*
X194720000Y-63670000D02*
X194720000Y-68230000D01*
%TO.N,Net-(J9-Pin_4)*%
X198000000Y-84000000D02*
X198000000Y-76590000D01*
%TO.N,Net-(U7-QF)*%
X197260000Y-67770000D02*
X201000000Y-71510000D01*
X197260000Y-63670000D02*
X197260000Y-67770000D01*
%TO.N,Net-(J9-Pin_3)*%
X200500000Y-77090000D02*
X201000000Y-76590000D01*
X200500000Y-84000000D02*
X200500000Y-77090000D01*
D20*
%TO.N,Net-(J2-Pin_1)*%
X76000000Y-54000000D02*
X89000000Y-54000000D01*
X89000000Y-61000000D02*
X87080000Y-62920000D01*
X66000000Y-62730000D02*
X66000000Y-60000000D01*
X159000000Y-55000000D02*
X158000000Y-54000000D01*
X158000000Y-62000000D02*
X159000000Y-61000000D01*
X135000000Y-54000000D02*
X158000000Y-54000000D01*
X64905000Y-63825000D02*
X66000000Y-62730000D01*
X89000000Y-54000000D02*
X112000000Y-54000000D01*
X182000000Y-63000000D02*
X182000000Y-55000000D01*
X208000000Y-54000000D02*
X231000000Y-54000000D01*
X205550000Y-63000000D02*
X204880000Y-63670000D01*
X158000000Y-54000000D02*
X182000000Y-54000000D01*
X112000000Y-59000000D02*
X109905000Y-61095000D01*
X133330000Y-63670000D02*
X132510000Y-63670000D01*
X66000000Y-60000000D02*
X67000000Y-59000000D01*
X135000000Y-62000000D02*
X133330000Y-63670000D01*
X182000000Y-55000000D02*
X181000000Y-54000000D01*
X180560000Y-63000000D02*
X182000000Y-63000000D01*
X181000000Y-54000000D02*
X208000000Y-54000000D01*
X109905000Y-61095000D02*
X109905000Y-63825000D01*
X89000000Y-54000000D02*
X89000000Y-61000000D01*
X112000000Y-54000000D02*
X112000000Y-59000000D01*
X232000000Y-55000000D02*
X232000000Y-62000000D01*
X135000000Y-54000000D02*
X135000000Y-62000000D01*
X76000000Y-54000000D02*
X76000000Y-45000000D01*
X156230000Y-63420000D02*
X157650000Y-62000000D01*
X180140000Y-63420000D02*
X180560000Y-63000000D01*
X208000000Y-62000000D02*
X207000000Y-63000000D01*
X231000000Y-54000000D02*
X232000000Y-55000000D01*
X87080000Y-62920000D02*
X87080000Y-63620000D01*
X230330000Y-63670000D02*
X229640000Y-63670000D01*
X67000000Y-54000000D02*
X76000000Y-54000000D01*
X208000000Y-54000000D02*
X208000000Y-62000000D01*
X159000000Y-61000000D02*
X159000000Y-55000000D01*
X207000000Y-63000000D02*
X205550000Y-63000000D01*
X112000000Y-54000000D02*
X135000000Y-54000000D01*
X157650000Y-62000000D02*
X158000000Y-62000000D01*
X67000000Y-59000000D02*
X67000000Y-54000000D01*
X232000000Y-62000000D02*
X230330000Y-63670000D01*
D19*
%TO.N,Net-(J1-Pin_2)*%
X60500000Y-46000000D02*
X60500000Y-54340000D01*
X60500000Y-54340000D02*
X62365000Y-56205000D01*
%TO.N,Net-(J1-Pin_4)*%
X55500000Y-46000000D02*
X55500000Y-51880000D01*
X55500000Y-51880000D02*
X59825000Y-56205000D01*
%TO.N,Net-(J1-Pin_5)*%
X53000000Y-46000000D02*
X53000000Y-51920000D01*
X53000000Y-51920000D02*
X57285000Y-56205000D01*
D21*
%TO.N,Net-(J1-Pin_1)*%
X63000000Y-46000000D02*
X63490000Y-46490000D01*
D20*
%TO.N,Net-(J2-Pin_2)*%
X48000000Y-43000000D02*
X48000000Y-55330000D01*
X77000000Y-41000000D02*
X50000000Y-41000000D01*
X81000000Y-45000000D02*
X77000000Y-41000000D01*
X50000000Y-41000000D02*
X48000000Y-43000000D01*
X48000000Y-55330000D02*
X47125000Y-56205000D01*
D19*
%TO.N,Net-(J1-Pin_3)*%
X50000000Y-52000000D02*
X52205000Y-54205000D01*
X52000000Y-44000000D02*
X50000000Y-46000000D01*
X52205000Y-54205000D02*
X52205000Y-56205000D01*
X58000000Y-46000000D02*
X56000000Y-44000000D01*
X56000000Y-44000000D02*
X52000000Y-44000000D01*
X50000000Y-46000000D02*
X50000000Y-52000000D01*
%TD*%
M02*
