M48
; DRILL file {KiCad 7.0.9} date Wed Dec 27 00:16:41 2023
; FORMAT={-:-/ absolute / metric / decimal}
; #@! TF.CreationDate,2023-12-27T00:16:41+05:30
; #@! TF.GenerationSoftware,Kicad,Pcbnew,7.0.9
; #@! TF.FileFunction,Plated,1,2,PTH
FMAT,2
METRIC
; #@! TA.AperFunction,Plated,PTH,ViaDrill
T1C0.400
; #@! TA.AperFunction,Plated,PTH,ComponentDrill
T2C0.700
; #@! TA.AperFunction,Plated,PTH,ComponentDrill
T3C0.800
; #@! TA.AperFunction,Plated,PTH,ComponentDrill
T4C0.950
; #@! TA.AperFunction,Plated,PTH,ComponentDrill
T5C1.320
%
G90
G05
T1
X87.0Y-48.0
X87.0Y-52.0
X88.0Y-49.0
X88.0Y-52.0
X89.0Y-50.0
X89.0Y-52.0
X101.0Y-48.0
X101.0Y-52.0
X102.0Y-49.0
X102.0Y-52.0
X103.0Y-50.0
X103.0Y-52.0
X123.0Y-48.0
X123.0Y-52.0
X124.0Y-49.0
X124.0Y-52.0
X125.0Y-50.0
X125.0Y-52.0
X147.0Y-48.0
X147.0Y-52.0
X148.0Y-49.0
X148.0Y-52.0
X149.0Y-50.0
X149.0Y-52.0
X171.0Y-48.0
X171.0Y-52.0
X172.0Y-49.0
X172.0Y-52.0
X173.0Y-50.0
X173.0Y-52.0
X195.0Y-48.0
X195.0Y-52.0
X196.0Y-49.0
X196.0Y-52.0
X197.0Y-50.0
X197.0Y-52.0
X218.755Y-49.0
X218.755Y-50.0
X218.755Y-51.0
X221.0Y-49.0
X221.012Y-50.012
X221.174Y-51.0
T2
X42.0Y-71.42
X42.0Y-76.5
X45.0Y-71.42
X45.0Y-76.5
X47.85Y-71.42
X47.85Y-76.5
X51.0Y-71.42
X51.0Y-76.5
X54.0Y-71.42
X54.0Y-76.5
X57.0Y-71.42
X57.0Y-76.5
X60.0Y-71.42
X60.0Y-76.5
X63.0Y-71.42
X63.0Y-76.5
X66.0Y-71.51
X66.0Y-76.59
X69.0Y-71.51
X69.0Y-76.59
X72.0Y-71.51
X72.0Y-76.59
X75.0Y-71.51
X75.0Y-76.59
X78.0Y-71.51
X78.0Y-76.59
X81.0Y-71.51
X81.0Y-76.59
X84.0Y-71.51
X84.0Y-76.59
X87.0Y-71.51
X87.0Y-76.59
X90.0Y-71.51
X90.0Y-76.59
X93.0Y-71.51
X93.0Y-76.59
X96.0Y-71.51
X96.0Y-76.59
X99.0Y-71.51
X99.0Y-76.59
X102.0Y-71.51
X102.0Y-76.59
X105.0Y-71.51
X105.0Y-76.59
X108.0Y-71.51
X108.0Y-76.59
X111.0Y-71.51
X111.0Y-76.59
X114.0Y-71.51
X114.0Y-76.59
X116.9Y-71.51
X116.9Y-76.59
X119.9Y-71.55
X119.9Y-76.63
X122.9Y-71.55
X122.9Y-76.63
X125.9Y-71.55
X125.9Y-76.63
X128.9Y-71.51
X128.9Y-76.59
X132.0Y-71.51
X132.0Y-76.59
X135.0Y-71.51
X135.0Y-76.59
X138.1Y-71.51
X138.1Y-76.59
X141.0Y-71.51
X141.0Y-76.59
X144.0Y-71.51
X144.0Y-76.59
X147.0Y-71.51
X147.0Y-76.59
X150.0Y-71.51
X150.0Y-76.59
X153.0Y-71.51
X153.0Y-76.59
X156.0Y-71.51
X156.0Y-76.59
X159.0Y-71.51
X159.0Y-76.59
X162.3Y-71.51
X162.3Y-76.59
X165.0Y-71.51
X165.0Y-76.59
X168.0Y-71.51
X168.0Y-76.59
X171.0Y-71.51
X171.0Y-76.59
X174.0Y-71.51
X174.0Y-76.59
X177.0Y-71.51
X177.0Y-76.59
X180.0Y-71.51
X180.0Y-76.59
X183.0Y-71.51
X183.0Y-76.59
X186.0Y-71.51
X186.0Y-76.59
X189.0Y-71.51
X189.0Y-76.59
X192.0Y-71.51
X192.0Y-76.59
X195.0Y-71.51
X195.0Y-76.59
X198.0Y-71.51
X198.0Y-76.59
X201.0Y-71.51
X201.0Y-76.59
X204.0Y-71.51
X204.0Y-76.59
X207.0Y-71.51
X207.0Y-76.59
X210.2Y-71.51
X210.2Y-76.59
X213.0Y-71.51
X213.0Y-76.59
X216.0Y-71.51
X216.0Y-76.59
X219.0Y-71.51
X219.0Y-76.59
X222.0Y-71.51
X222.0Y-76.59
X225.0Y-71.51
X225.0Y-76.59
X228.0Y-71.51
X228.0Y-76.59
X231.0Y-71.51
X231.0Y-76.59
T3
X47.125Y-56.205
X47.125Y-63.825
X49.665Y-56.205
X49.665Y-63.825
X52.205Y-56.205
X52.205Y-63.825
X54.745Y-56.205
X54.745Y-63.825
X57.285Y-56.205
X57.285Y-63.825
X59.825Y-56.205
X59.825Y-63.825
X62.365Y-56.205
X62.365Y-63.825
X64.905Y-56.205
X64.905Y-63.825
X69.3Y-56.0
X69.3Y-63.62
X71.84Y-56.0
X71.84Y-63.62
X74.38Y-56.0
X74.38Y-63.62
X76.92Y-56.0
X76.92Y-63.62
X79.46Y-56.0
X79.46Y-63.62
X82.0Y-56.0
X82.0Y-63.62
X84.54Y-56.0
X84.54Y-63.62
X87.08Y-56.0
X87.08Y-63.62
X92.125Y-56.205
X92.125Y-63.825
X94.665Y-56.205
X94.665Y-63.825
X97.205Y-56.205
X97.205Y-63.825
X99.745Y-56.205
X99.745Y-63.825
X102.285Y-56.205
X102.285Y-63.825
X104.825Y-56.205
X104.825Y-63.825
X107.365Y-56.205
X107.365Y-63.825
X109.905Y-56.205
X109.905Y-63.825
X114.73Y-56.05
X114.73Y-63.67
X117.27Y-56.05
X117.27Y-63.67
X119.81Y-56.05
X119.81Y-63.67
X122.35Y-56.05
X122.35Y-63.67
X124.89Y-56.05
X124.89Y-63.67
X127.43Y-56.05
X127.43Y-63.67
X129.97Y-56.05
X129.97Y-63.67
X132.51Y-56.05
X132.51Y-63.67
X138.45Y-55.8
X138.45Y-63.42
X140.99Y-55.8
X140.99Y-63.42
X143.53Y-55.8
X143.53Y-63.42
X146.07Y-55.8
X146.07Y-63.42
X148.61Y-55.8
X148.61Y-63.42
X151.15Y-55.8
X151.15Y-63.42
X153.69Y-55.8
X153.69Y-63.42
X156.23Y-55.8
X156.23Y-63.42
X162.36Y-55.8
X162.36Y-63.42
X164.9Y-55.8
X164.9Y-63.42
X167.44Y-55.8
X167.44Y-63.42
X169.98Y-55.8
X169.98Y-63.42
X172.52Y-55.8
X172.52Y-63.42
X175.06Y-55.8
X175.06Y-63.42
X177.6Y-55.8
X177.6Y-63.42
X180.14Y-55.8
X180.14Y-63.42
X187.1Y-56.05
X187.1Y-63.67
X189.64Y-56.05
X189.64Y-63.67
X192.18Y-56.05
X192.18Y-63.67
X194.72Y-56.05
X194.72Y-63.67
X197.26Y-56.05
X197.26Y-63.67
X199.8Y-56.05
X199.8Y-63.67
X202.34Y-56.05
X202.34Y-63.67
X204.88Y-56.05
X204.88Y-63.67
X211.86Y-56.05
X211.86Y-63.67
X214.4Y-56.05
X214.4Y-63.67
X216.94Y-56.05
X216.94Y-63.67
X219.48Y-56.05
X219.48Y-63.67
X222.02Y-56.05
X222.02Y-63.67
X224.56Y-56.05
X224.56Y-63.67
X227.1Y-56.05
X227.1Y-63.67
X229.64Y-56.05
X229.64Y-63.67
T4
X43.0Y-83.91
X45.5Y-83.91
X48.0Y-83.91
X50.5Y-83.91
X53.0Y-46.0
X53.0Y-83.91
X55.5Y-46.0
X55.5Y-83.91
X58.0Y-46.0
X58.0Y-83.91
X60.5Y-46.0
X60.5Y-83.91
X63.0Y-46.0
X67.0Y-84.0
X69.5Y-84.0
X72.0Y-84.0
X74.5Y-84.0
X77.0Y-84.0
X79.5Y-84.0
X82.0Y-84.0
X84.5Y-84.0
X91.0Y-84.0
X93.5Y-84.0
X96.0Y-84.0
X98.5Y-84.0
X101.0Y-84.0
X103.5Y-84.0
X106.0Y-84.0
X108.5Y-84.0
X115.0Y-84.0
X117.5Y-84.0
X120.0Y-84.0
X122.5Y-84.0
X125.0Y-84.0
X127.5Y-84.0
X130.0Y-84.0
X132.5Y-84.0
X139.5Y-84.0
X142.0Y-84.0
X144.5Y-84.0
X147.0Y-84.0
X149.5Y-84.0
X152.0Y-84.0
X154.5Y-84.0
X157.0Y-84.0
X163.5Y-84.0
X166.0Y-84.0
X168.5Y-84.0
X171.0Y-84.0
X173.5Y-84.0
X176.0Y-84.0
X178.5Y-84.0
X181.0Y-84.0
X188.0Y-84.0
X190.5Y-84.0
X193.0Y-84.0
X195.5Y-84.0
X198.0Y-84.0
X200.5Y-84.0
X203.0Y-84.0
X205.5Y-84.0
X212.0Y-84.0
X214.5Y-84.0
X217.0Y-84.0
X219.5Y-84.0
X222.0Y-84.0
X224.5Y-84.0
X227.0Y-84.0
X229.5Y-84.0
T5
X76.0Y-45.0
X81.0Y-45.0
T0
M30
