%TF.GenerationSoftware,KiCad,Pcbnew,7.0.9*%
%TF.CreationDate,2023-12-08T11:51:25+05:30*%
%TF.ProjectId,Led_Cube_BaseControler,4c65645f-4375-4626-955f-42617365436f,rev?*%
%TF.SameCoordinates,Original*%
%TF.FileFunction,Soldermask,Top*%
%TF.FilePolarity,Negative*%
%FSLAX46Y46*%
G04 Gerber Fmt 4.6, Leading zero omitted, Abs format (unit mm)*
G04 Created by KiCad (PCBNEW 7.0.9) date 2023-12-08 11:51:25*
%MOMM*%
%LPD*%
G01*
G04 APERTURE LIST*
%ADD10C,2.100000*%
%ADD11C,1.400000*%
%ADD12O,1.400000X1.400000*%
%ADD13R,0.850000X0.850000*%
%ADD14O,0.850000X0.850000*%
%ADD15R,2.400000X1.600000*%
%ADD16O,2.400000X1.600000*%
G04 APERTURE END LIST*
D10*
%TO.C,REF\u002A\u002A*%
X20320000Y-78740000D03*
%TD*%
%TO.C,REF\u002A\u002A*%
X20320000Y-17780000D03*
%TD*%
%TO.C,REF\u002A\u002A*%
X187960000Y-78740000D03*
%TD*%
%TO.C,REF\u002A\u002A*%
X187960000Y-17780000D03*
%TD*%
D11*
%TO.C,R13*%
X53340000Y-60960000D03*
D12*
X53340000Y-66040000D03*
%TD*%
D11*
%TO.C,R31*%
X99060000Y-60960000D03*
D12*
X99060000Y-66040000D03*
%TD*%
D11*
%TO.C,R40*%
X121920000Y-60960000D03*
D12*
X121920000Y-66040000D03*
%TD*%
D11*
%TO.C,R44*%
X132080000Y-60960000D03*
D12*
X132080000Y-66040000D03*
%TD*%
D11*
%TO.C,R33*%
X104140000Y-60960000D03*
D12*
X104140000Y-66040000D03*
%TD*%
D11*
%TO.C,R59*%
X172210000Y-60960000D03*
D12*
X172210000Y-66040000D03*
%TD*%
D11*
%TO.C,R36*%
X111760000Y-60960000D03*
D12*
X111760000Y-66040000D03*
%TD*%
D13*
%TO.C,J6*%
X107140000Y-78200000D03*
D14*
X106140000Y-78200000D03*
X105140000Y-78200000D03*
X104140000Y-78200000D03*
X103140000Y-78200000D03*
X102140000Y-78200000D03*
X101140000Y-78200000D03*
X100140000Y-78200000D03*
%TD*%
D11*
%TO.C,R24*%
X81280000Y-60960000D03*
D12*
X81280000Y-66040000D03*
%TD*%
D11*
%TO.C,R32*%
X101600000Y-60960000D03*
D12*
X101600000Y-66040000D03*
%TD*%
D13*
%TO.C,J7*%
X119300000Y-78200000D03*
D14*
X118300000Y-78200000D03*
X117300000Y-78200000D03*
X116300000Y-78200000D03*
X115300000Y-78200000D03*
X114300000Y-78200000D03*
X113300000Y-78200000D03*
X112300000Y-78200000D03*
%TD*%
D11*
%TO.C,R26*%
X86360000Y-60960000D03*
D12*
X86360000Y-66040000D03*
%TD*%
D11*
%TO.C,R46*%
X137160000Y-60960000D03*
D12*
X137160000Y-66040000D03*
%TD*%
D11*
%TO.C,R22*%
X76200000Y-60960000D03*
D12*
X76200000Y-66040000D03*
%TD*%
D11*
%TO.C,R25*%
X83820000Y-60960000D03*
D12*
X83820000Y-66040000D03*
%TD*%
D11*
%TO.C,R34*%
X106680000Y-60960000D03*
D12*
X106680000Y-66040000D03*
%TD*%
D11*
%TO.C,R18*%
X66040000Y-60960000D03*
D12*
X66040000Y-66040000D03*
%TD*%
D11*
%TO.C,R52*%
X152400000Y-60960000D03*
D12*
X152400000Y-66040000D03*
%TD*%
D11*
%TO.C,R28*%
X91440000Y-60960000D03*
D12*
X91440000Y-66040000D03*
%TD*%
D13*
%TO.C,J5*%
X93980000Y-78740000D03*
D14*
X92980000Y-78740000D03*
X91980000Y-78740000D03*
X90980000Y-78740000D03*
X89980000Y-78740000D03*
X88980000Y-78740000D03*
X87980000Y-78740000D03*
X86980000Y-78740000D03*
%TD*%
D13*
%TO.C,J11*%
X117300000Y-17780000D03*
D14*
X116300000Y-17780000D03*
X115300000Y-17780000D03*
X114300000Y-17780000D03*
X113300000Y-17780000D03*
%TD*%
D11*
%TO.C,R60*%
X175360000Y-60960000D03*
D12*
X175360000Y-66040000D03*
%TD*%
D11*
%TO.C,R14*%
X55880000Y-60960000D03*
D12*
X55880000Y-66040000D03*
%TD*%
D15*
%TO.C,U3*%
X24115000Y-29225000D03*
D16*
X24115000Y-31765000D03*
X24115000Y-34305000D03*
X24115000Y-36845000D03*
X24115000Y-39385000D03*
X24115000Y-41925000D03*
X24115000Y-44465000D03*
X24115000Y-47005000D03*
X31735000Y-47005000D03*
X31735000Y-44465000D03*
X31735000Y-41925000D03*
X31735000Y-39385000D03*
X31735000Y-36845000D03*
X31735000Y-34305000D03*
X31735000Y-31765000D03*
X31735000Y-29225000D03*
%TD*%
D11*
%TO.C,R39*%
X119380000Y-60960000D03*
D12*
X119380000Y-66040000D03*
%TD*%
D11*
%TO.C,R20*%
X71120000Y-60960000D03*
D12*
X71120000Y-66040000D03*
%TD*%
D15*
%TO.C,U7*%
X149860000Y-27940000D03*
D16*
X149860000Y-30480000D03*
X149860000Y-33020000D03*
X149860000Y-35560000D03*
X149860000Y-38100000D03*
X149860000Y-40640000D03*
X149860000Y-43180000D03*
X149860000Y-45720000D03*
X157480000Y-45720000D03*
X157480000Y-43180000D03*
X157480000Y-40640000D03*
X157480000Y-38100000D03*
X157480000Y-35560000D03*
X157480000Y-33020000D03*
X157480000Y-30480000D03*
X157480000Y-27940000D03*
%TD*%
D11*
%TO.C,R1*%
X20420000Y-60960000D03*
D12*
X20420000Y-66040000D03*
%TD*%
D11*
%TO.C,R51*%
X149860000Y-60960000D03*
D12*
X149860000Y-66040000D03*
%TD*%
D15*
%TO.C,U8*%
X172720000Y-27940000D03*
D16*
X172720000Y-30480000D03*
X172720000Y-33020000D03*
X172720000Y-35560000D03*
X172720000Y-38100000D03*
X172720000Y-40640000D03*
X172720000Y-43180000D03*
X172720000Y-45720000D03*
X180340000Y-45720000D03*
X180340000Y-43180000D03*
X180340000Y-40640000D03*
X180340000Y-38100000D03*
X180340000Y-35560000D03*
X180340000Y-33020000D03*
X180340000Y-30480000D03*
X180340000Y-27940000D03*
%TD*%
D11*
%TO.C,R45*%
X134620000Y-60960000D03*
D12*
X134620000Y-66040000D03*
%TD*%
D15*
%TO.C,U6*%
X129540000Y-27940000D03*
D16*
X129540000Y-30480000D03*
X129540000Y-33020000D03*
X129540000Y-35560000D03*
X129540000Y-38100000D03*
X129540000Y-40640000D03*
X129540000Y-43180000D03*
X129540000Y-45720000D03*
X137160000Y-45720000D03*
X137160000Y-43180000D03*
X137160000Y-40640000D03*
X137160000Y-38100000D03*
X137160000Y-35560000D03*
X137160000Y-33020000D03*
X137160000Y-30480000D03*
X137160000Y-27940000D03*
%TD*%
D11*
%TO.C,R56*%
X162560000Y-60960000D03*
D12*
X162560000Y-66040000D03*
%TD*%
D11*
%TO.C,R11*%
X48260000Y-60960000D03*
D12*
X48260000Y-66040000D03*
%TD*%
D11*
%TO.C,R17*%
X63500000Y-60960000D03*
D12*
X63500000Y-66040000D03*
%TD*%
D11*
%TO.C,R47*%
X139700000Y-60960000D03*
D12*
X139700000Y-66040000D03*
%TD*%
D11*
%TO.C,R57*%
X165910000Y-60960000D03*
D12*
X165910000Y-66040000D03*
%TD*%
D11*
%TO.C,R49*%
X144780000Y-60960000D03*
D12*
X144780000Y-66040000D03*
%TD*%
D11*
%TO.C,R30*%
X96520000Y-60960000D03*
D12*
X96520000Y-66040000D03*
%TD*%
D11*
%TO.C,R8*%
X40640000Y-60960000D03*
D12*
X40640000Y-66040000D03*
%TD*%
D15*
%TO.C,U5*%
X109220000Y-27940000D03*
D16*
X109220000Y-30480000D03*
X109220000Y-33020000D03*
X109220000Y-35560000D03*
X109220000Y-38100000D03*
X109220000Y-40640000D03*
X109220000Y-43180000D03*
X109220000Y-45720000D03*
X116840000Y-45720000D03*
X116840000Y-43180000D03*
X116840000Y-40640000D03*
X116840000Y-38100000D03*
X116840000Y-35560000D03*
X116840000Y-33020000D03*
X116840000Y-30480000D03*
X116840000Y-27940000D03*
%TD*%
D11*
%TO.C,R21*%
X73660000Y-60960000D03*
D12*
X73660000Y-66040000D03*
%TD*%
D11*
%TO.C,R15*%
X58420000Y-60960000D03*
D12*
X58420000Y-66040000D03*
%TD*%
D13*
%TO.C,J9*%
X147240000Y-78200000D03*
D14*
X146240000Y-78200000D03*
X145240000Y-78200000D03*
X144240000Y-78200000D03*
X143240000Y-78200000D03*
X142240000Y-78200000D03*
X141240000Y-78200000D03*
X140240000Y-78200000D03*
%TD*%
D13*
%TO.C,J1*%
X100060000Y-17780000D03*
D14*
X101060000Y-17780000D03*
X102060000Y-17780000D03*
X103060000Y-17780000D03*
X104060000Y-17780000D03*
X105060000Y-17780000D03*
%TD*%
D11*
%TO.C,R35*%
X109220000Y-60960000D03*
D12*
X109220000Y-66040000D03*
%TD*%
D11*
%TO.C,R9*%
X43180000Y-60960000D03*
D12*
X43180000Y-66040000D03*
%TD*%
D11*
%TO.C,R7*%
X37490000Y-60960000D03*
D12*
X37490000Y-66040000D03*
%TD*%
D11*
%TO.C,R64*%
X187960000Y-60960000D03*
D12*
X187960000Y-66040000D03*
%TD*%
D11*
%TO.C,R41*%
X124460000Y-60960000D03*
D12*
X124460000Y-66040000D03*
%TD*%
D13*
%TO.C,J3*%
X60500000Y-78200000D03*
D14*
X61500000Y-78200000D03*
X62500000Y-78200000D03*
X63500000Y-78200000D03*
X64500000Y-78200000D03*
X65500000Y-78200000D03*
X66500000Y-78200000D03*
X67500000Y-78200000D03*
%TD*%
D11*
%TO.C,R50*%
X147320000Y-60960000D03*
D12*
X147320000Y-66040000D03*
%TD*%
D11*
%TO.C,R53*%
X154940000Y-60960000D03*
D12*
X154940000Y-66040000D03*
%TD*%
D15*
%TO.C,U4*%
X88900000Y-27940000D03*
D16*
X88900000Y-30480000D03*
X88900000Y-33020000D03*
X88900000Y-35560000D03*
X88900000Y-38100000D03*
X88900000Y-40640000D03*
X88900000Y-43180000D03*
X88900000Y-45720000D03*
X96520000Y-45720000D03*
X96520000Y-43180000D03*
X96520000Y-40640000D03*
X96520000Y-38100000D03*
X96520000Y-35560000D03*
X96520000Y-33020000D03*
X96520000Y-30480000D03*
X96520000Y-27940000D03*
%TD*%
D11*
%TO.C,R54*%
X157480000Y-60960000D03*
D12*
X157480000Y-66040000D03*
%TD*%
D11*
%TO.C,R3*%
X25500000Y-60960000D03*
D12*
X25500000Y-66040000D03*
%TD*%
D11*
%TO.C,R29*%
X93980000Y-60960000D03*
D12*
X93980000Y-66040000D03*
%TD*%
D11*
%TO.C,R43*%
X129540000Y-60960000D03*
D12*
X129540000Y-66040000D03*
%TD*%
D11*
%TO.C,R62*%
X181660000Y-60960000D03*
D12*
X181660000Y-66040000D03*
%TD*%
D11*
%TO.C,R27*%
X88900000Y-60960000D03*
D12*
X88900000Y-66040000D03*
%TD*%
D11*
%TO.C,R12*%
X50800000Y-60960000D03*
D12*
X50800000Y-66040000D03*
%TD*%
D11*
%TO.C,R4*%
X28040000Y-60960000D03*
D12*
X28040000Y-66040000D03*
%TD*%
D11*
%TO.C,R16*%
X60960000Y-60960000D03*
D12*
X60960000Y-66040000D03*
%TD*%
D11*
%TO.C,R48*%
X142240000Y-60960000D03*
D12*
X142240000Y-66040000D03*
%TD*%
D11*
%TO.C,R2*%
X22960000Y-60960000D03*
D12*
X22960000Y-66040000D03*
%TD*%
D15*
%TO.C,U1*%
X43180000Y-29225000D03*
D16*
X43180000Y-31765000D03*
X43180000Y-34305000D03*
X43180000Y-36845000D03*
X43180000Y-39385000D03*
X43180000Y-41925000D03*
X43180000Y-44465000D03*
X43180000Y-47005000D03*
X50800000Y-47005000D03*
X50800000Y-44465000D03*
X50800000Y-41925000D03*
X50800000Y-39385000D03*
X50800000Y-36845000D03*
X50800000Y-34305000D03*
X50800000Y-31765000D03*
X50800000Y-29225000D03*
%TD*%
D13*
%TO.C,J10*%
X162560000Y-78200000D03*
D14*
X161560000Y-78200000D03*
X160560000Y-78200000D03*
X159560000Y-78200000D03*
X158560000Y-78200000D03*
X157560000Y-78200000D03*
X156560000Y-78200000D03*
X155560000Y-78200000D03*
%TD*%
D11*
%TO.C,R23*%
X78740000Y-60960000D03*
D12*
X78740000Y-66040000D03*
%TD*%
D11*
%TO.C,R10*%
X45720000Y-60960000D03*
D12*
X45720000Y-66040000D03*
%TD*%
D11*
%TO.C,R61*%
X178510000Y-60960000D03*
D12*
X178510000Y-66040000D03*
%TD*%
D11*
%TO.C,R55*%
X160020000Y-60960000D03*
D12*
X160020000Y-66040000D03*
%TD*%
D11*
%TO.C,R42*%
X127000000Y-60960000D03*
D12*
X127000000Y-66040000D03*
%TD*%
D11*
%TO.C,R38*%
X116840000Y-60960000D03*
D12*
X116840000Y-66040000D03*
%TD*%
D11*
%TO.C,R5*%
X31190000Y-60960000D03*
D12*
X31190000Y-66040000D03*
%TD*%
D11*
%TO.C,R58*%
X169060000Y-60960000D03*
D12*
X169060000Y-66040000D03*
%TD*%
D11*
%TO.C,R6*%
X34340000Y-60960000D03*
D12*
X34340000Y-66040000D03*
%TD*%
D11*
%TO.C,R63*%
X184810000Y-60960000D03*
D12*
X184810000Y-66040000D03*
%TD*%
D13*
%TO.C,J8*%
X132000000Y-78200000D03*
D14*
X131000000Y-78200000D03*
X130000000Y-78200000D03*
X129000000Y-78200000D03*
X128000000Y-78200000D03*
X127000000Y-78200000D03*
X126000000Y-78200000D03*
X125000000Y-78200000D03*
%TD*%
D11*
%TO.C,R19*%
X68580000Y-60960000D03*
D12*
X68580000Y-66040000D03*
%TD*%
D15*
%TO.C,U2*%
X66040000Y-27940000D03*
D16*
X66040000Y-30480000D03*
X66040000Y-33020000D03*
X66040000Y-35560000D03*
X66040000Y-38100000D03*
X66040000Y-40640000D03*
X66040000Y-43180000D03*
X66040000Y-45720000D03*
X73660000Y-45720000D03*
X73660000Y-43180000D03*
X73660000Y-40640000D03*
X73660000Y-38100000D03*
X73660000Y-35560000D03*
X73660000Y-33020000D03*
X73660000Y-30480000D03*
X73660000Y-27940000D03*
%TD*%
D11*
%TO.C,R37*%
X114300000Y-60960000D03*
D12*
X114300000Y-66040000D03*
%TD*%
D13*
%TO.C,J4*%
X81200000Y-78200000D03*
D14*
X80200000Y-78200000D03*
X79200000Y-78200000D03*
X78200000Y-78200000D03*
X77200000Y-78200000D03*
X76200000Y-78200000D03*
X75200000Y-78200000D03*
X74200000Y-78200000D03*
%TD*%
M02*
