%TF.GenerationSoftware,KiCad,Pcbnew,7.0.9*%
%TF.CreationDate,2023-12-08T11:51:29+05:30*%
%TF.ProjectId,Led_Cube_BaseControler,4c65645f-4375-4626-955f-42617365436f,rev?*%
%TF.SameCoordinates,Original*%
%TF.FileFunction,Drillmap*%
%TF.FilePolarity,Positive*%
%FSLAX45Y45*%
G04 Gerber Fmt 4.5, Leading zero omitted, Abs format (unit mm)*
G04 Created by KiCad (PCBNEW 7.0.9) date 2023-12-08 11:51:29*
%MOMM*%
%LPD*%
G01*
G04 APERTURE LIST*
%ADD10C,0.100000*%
%ADD11C,0.200000*%
%ADD12C,0.210000*%
G04 APERTURE END LIST*
D10*
X1524000Y-1270000D02*
X19304000Y-1270000D01*
X19304000Y-8382000D01*
X1524000Y-8382000D01*
X1524000Y-1270000D01*
D11*
D12*
X1927000Y-1673000D02*
X2137000Y-1883000D01*
X2137000Y-1673000D02*
X1927000Y-1883000D01*
X1927000Y-7769000D02*
X2137000Y-7979000D01*
X2137000Y-7769000D02*
X1927000Y-7979000D01*
X18691000Y-1673000D02*
X18901000Y-1883000D01*
X18901000Y-1673000D02*
X18691000Y-1883000D01*
X18691000Y-7769000D02*
X18901000Y-7979000D01*
X18901000Y-7769000D02*
X18691000Y-7979000D01*
D11*
X1779777Y-8698484D02*
X1779777Y-8498484D01*
X1779777Y-8498484D02*
X1827396Y-8498484D01*
X1827396Y-8498484D02*
X1855967Y-8508008D01*
X1855967Y-8508008D02*
X1875015Y-8527055D01*
X1875015Y-8527055D02*
X1884539Y-8546103D01*
X1884539Y-8546103D02*
X1894062Y-8584198D01*
X1894062Y-8584198D02*
X1894062Y-8612770D01*
X1894062Y-8612770D02*
X1884539Y-8650865D01*
X1884539Y-8650865D02*
X1875015Y-8669912D01*
X1875015Y-8669912D02*
X1855967Y-8688960D01*
X1855967Y-8688960D02*
X1827396Y-8698484D01*
X1827396Y-8698484D02*
X1779777Y-8698484D01*
X1979777Y-8698484D02*
X1979777Y-8565150D01*
X1979777Y-8603246D02*
X1989301Y-8584198D01*
X1989301Y-8584198D02*
X1998824Y-8574674D01*
X1998824Y-8574674D02*
X2017872Y-8565150D01*
X2017872Y-8565150D02*
X2036920Y-8565150D01*
X2103586Y-8698484D02*
X2103586Y-8565150D01*
X2103586Y-8498484D02*
X2094062Y-8508008D01*
X2094062Y-8508008D02*
X2103586Y-8517531D01*
X2103586Y-8517531D02*
X2113110Y-8508008D01*
X2113110Y-8508008D02*
X2103586Y-8498484D01*
X2103586Y-8498484D02*
X2103586Y-8517531D01*
X2227396Y-8698484D02*
X2208348Y-8688960D01*
X2208348Y-8688960D02*
X2198824Y-8669912D01*
X2198824Y-8669912D02*
X2198824Y-8498484D01*
X2332158Y-8698484D02*
X2313110Y-8688960D01*
X2313110Y-8688960D02*
X2303586Y-8669912D01*
X2303586Y-8669912D02*
X2303586Y-8498484D01*
X2560729Y-8698484D02*
X2560729Y-8498484D01*
X2560729Y-8498484D02*
X2627396Y-8641341D01*
X2627396Y-8641341D02*
X2694063Y-8498484D01*
X2694063Y-8498484D02*
X2694063Y-8698484D01*
X2875015Y-8698484D02*
X2875015Y-8593722D01*
X2875015Y-8593722D02*
X2865491Y-8574674D01*
X2865491Y-8574674D02*
X2846443Y-8565150D01*
X2846443Y-8565150D02*
X2808348Y-8565150D01*
X2808348Y-8565150D02*
X2789301Y-8574674D01*
X2875015Y-8688960D02*
X2855967Y-8698484D01*
X2855967Y-8698484D02*
X2808348Y-8698484D01*
X2808348Y-8698484D02*
X2789301Y-8688960D01*
X2789301Y-8688960D02*
X2779777Y-8669912D01*
X2779777Y-8669912D02*
X2779777Y-8650865D01*
X2779777Y-8650865D02*
X2789301Y-8631817D01*
X2789301Y-8631817D02*
X2808348Y-8622293D01*
X2808348Y-8622293D02*
X2855967Y-8622293D01*
X2855967Y-8622293D02*
X2875015Y-8612770D01*
X2970253Y-8565150D02*
X2970253Y-8765150D01*
X2970253Y-8574674D02*
X2989301Y-8565150D01*
X2989301Y-8565150D02*
X3027396Y-8565150D01*
X3027396Y-8565150D02*
X3046443Y-8574674D01*
X3046443Y-8574674D02*
X3055967Y-8584198D01*
X3055967Y-8584198D02*
X3065491Y-8603246D01*
X3065491Y-8603246D02*
X3065491Y-8660389D01*
X3065491Y-8660389D02*
X3055967Y-8679436D01*
X3055967Y-8679436D02*
X3046443Y-8688960D01*
X3046443Y-8688960D02*
X3027396Y-8698484D01*
X3027396Y-8698484D02*
X2989301Y-8698484D01*
X2989301Y-8698484D02*
X2970253Y-8688960D01*
X3151205Y-8679436D02*
X3160729Y-8688960D01*
X3160729Y-8688960D02*
X3151205Y-8698484D01*
X3151205Y-8698484D02*
X3141682Y-8688960D01*
X3141682Y-8688960D02*
X3151205Y-8679436D01*
X3151205Y-8679436D02*
X3151205Y-8698484D01*
X3151205Y-8574674D02*
X3160729Y-8584198D01*
X3160729Y-8584198D02*
X3151205Y-8593722D01*
X3151205Y-8593722D02*
X3141682Y-8584198D01*
X3141682Y-8584198D02*
X3151205Y-8574674D01*
X3151205Y-8574674D02*
X3151205Y-8593722D01*
X1319000Y-8927000D02*
X1519000Y-9127000D01*
X1519000Y-8927000D02*
X1319000Y-9127000D01*
X1770253Y-8937531D02*
X1779777Y-8928008D01*
X1779777Y-8928008D02*
X1798824Y-8918484D01*
X1798824Y-8918484D02*
X1846443Y-8918484D01*
X1846443Y-8918484D02*
X1865491Y-8928008D01*
X1865491Y-8928008D02*
X1875015Y-8937531D01*
X1875015Y-8937531D02*
X1884539Y-8956579D01*
X1884539Y-8956579D02*
X1884539Y-8975627D01*
X1884539Y-8975627D02*
X1875015Y-9004198D01*
X1875015Y-9004198D02*
X1760729Y-9118484D01*
X1760729Y-9118484D02*
X1884539Y-9118484D01*
X1970253Y-9099436D02*
X1979777Y-9108960D01*
X1979777Y-9108960D02*
X1970253Y-9118484D01*
X1970253Y-9118484D02*
X1960729Y-9108960D01*
X1960729Y-9108960D02*
X1970253Y-9099436D01*
X1970253Y-9099436D02*
X1970253Y-9118484D01*
X2170253Y-9118484D02*
X2055967Y-9118484D01*
X2113110Y-9118484D02*
X2113110Y-8918484D01*
X2113110Y-8918484D02*
X2094062Y-8947055D01*
X2094062Y-8947055D02*
X2075015Y-8966103D01*
X2075015Y-8966103D02*
X2055967Y-8975627D01*
X2294063Y-8918484D02*
X2313110Y-8918484D01*
X2313110Y-8918484D02*
X2332158Y-8928008D01*
X2332158Y-8928008D02*
X2341682Y-8937531D01*
X2341682Y-8937531D02*
X2351205Y-8956579D01*
X2351205Y-8956579D02*
X2360729Y-8994674D01*
X2360729Y-8994674D02*
X2360729Y-9042293D01*
X2360729Y-9042293D02*
X2351205Y-9080389D01*
X2351205Y-9080389D02*
X2341682Y-9099436D01*
X2341682Y-9099436D02*
X2332158Y-9108960D01*
X2332158Y-9108960D02*
X2313110Y-9118484D01*
X2313110Y-9118484D02*
X2294063Y-9118484D01*
X2294063Y-9118484D02*
X2275015Y-9108960D01*
X2275015Y-9108960D02*
X2265491Y-9099436D01*
X2265491Y-9099436D02*
X2255967Y-9080389D01*
X2255967Y-9080389D02*
X2246444Y-9042293D01*
X2246444Y-9042293D02*
X2246444Y-8994674D01*
X2246444Y-8994674D02*
X2255967Y-8956579D01*
X2255967Y-8956579D02*
X2265491Y-8937531D01*
X2265491Y-8937531D02*
X2275015Y-8928008D01*
X2275015Y-8928008D02*
X2294063Y-8918484D01*
X2484539Y-8918484D02*
X2503586Y-8918484D01*
X2503586Y-8918484D02*
X2522634Y-8928008D01*
X2522634Y-8928008D02*
X2532158Y-8937531D01*
X2532158Y-8937531D02*
X2541682Y-8956579D01*
X2541682Y-8956579D02*
X2551205Y-8994674D01*
X2551205Y-8994674D02*
X2551205Y-9042293D01*
X2551205Y-9042293D02*
X2541682Y-9080389D01*
X2541682Y-9080389D02*
X2532158Y-9099436D01*
X2532158Y-9099436D02*
X2522634Y-9108960D01*
X2522634Y-9108960D02*
X2503586Y-9118484D01*
X2503586Y-9118484D02*
X2484539Y-9118484D01*
X2484539Y-9118484D02*
X2465491Y-9108960D01*
X2465491Y-9108960D02*
X2455967Y-9099436D01*
X2455967Y-9099436D02*
X2446444Y-9080389D01*
X2446444Y-9080389D02*
X2436920Y-9042293D01*
X2436920Y-9042293D02*
X2436920Y-8994674D01*
X2436920Y-8994674D02*
X2446444Y-8956579D01*
X2446444Y-8956579D02*
X2455967Y-8937531D01*
X2455967Y-8937531D02*
X2465491Y-8928008D01*
X2465491Y-8928008D02*
X2484539Y-8918484D01*
X2636920Y-9118484D02*
X2636920Y-8985150D01*
X2636920Y-9004198D02*
X2646444Y-8994674D01*
X2646444Y-8994674D02*
X2665491Y-8985150D01*
X2665491Y-8985150D02*
X2694063Y-8985150D01*
X2694063Y-8985150D02*
X2713110Y-8994674D01*
X2713110Y-8994674D02*
X2722634Y-9013722D01*
X2722634Y-9013722D02*
X2722634Y-9118484D01*
X2722634Y-9013722D02*
X2732158Y-8994674D01*
X2732158Y-8994674D02*
X2751205Y-8985150D01*
X2751205Y-8985150D02*
X2779777Y-8985150D01*
X2779777Y-8985150D02*
X2798824Y-8994674D01*
X2798824Y-8994674D02*
X2808348Y-9013722D01*
X2808348Y-9013722D02*
X2808348Y-9118484D01*
X2903586Y-9118484D02*
X2903586Y-8985150D01*
X2903586Y-9004198D02*
X2913110Y-8994674D01*
X2913110Y-8994674D02*
X2932158Y-8985150D01*
X2932158Y-8985150D02*
X2960729Y-8985150D01*
X2960729Y-8985150D02*
X2979777Y-8994674D01*
X2979777Y-8994674D02*
X2989301Y-9013722D01*
X2989301Y-9013722D02*
X2989301Y-9118484D01*
X2989301Y-9013722D02*
X2998824Y-8994674D01*
X2998824Y-8994674D02*
X3017872Y-8985150D01*
X3017872Y-8985150D02*
X3046443Y-8985150D01*
X3046443Y-8985150D02*
X3065491Y-8994674D01*
X3065491Y-8994674D02*
X3075015Y-9013722D01*
X3075015Y-9013722D02*
X3075015Y-9118484D01*
X3465491Y-8908960D02*
X3294063Y-9166103D01*
X3722634Y-8918484D02*
X3741682Y-8918484D01*
X3741682Y-8918484D02*
X3760729Y-8928008D01*
X3760729Y-8928008D02*
X3770253Y-8937531D01*
X3770253Y-8937531D02*
X3779777Y-8956579D01*
X3779777Y-8956579D02*
X3789301Y-8994674D01*
X3789301Y-8994674D02*
X3789301Y-9042293D01*
X3789301Y-9042293D02*
X3779777Y-9080389D01*
X3779777Y-9080389D02*
X3770253Y-9099436D01*
X3770253Y-9099436D02*
X3760729Y-9108960D01*
X3760729Y-9108960D02*
X3741682Y-9118484D01*
X3741682Y-9118484D02*
X3722634Y-9118484D01*
X3722634Y-9118484D02*
X3703586Y-9108960D01*
X3703586Y-9108960D02*
X3694063Y-9099436D01*
X3694063Y-9099436D02*
X3684539Y-9080389D01*
X3684539Y-9080389D02*
X3675015Y-9042293D01*
X3675015Y-9042293D02*
X3675015Y-8994674D01*
X3675015Y-8994674D02*
X3684539Y-8956579D01*
X3684539Y-8956579D02*
X3694063Y-8937531D01*
X3694063Y-8937531D02*
X3703586Y-8928008D01*
X3703586Y-8928008D02*
X3722634Y-8918484D01*
X3875015Y-9099436D02*
X3884539Y-9108960D01*
X3884539Y-9108960D02*
X3875015Y-9118484D01*
X3875015Y-9118484D02*
X3865491Y-9108960D01*
X3865491Y-9108960D02*
X3875015Y-9099436D01*
X3875015Y-9099436D02*
X3875015Y-9118484D01*
X4008348Y-8918484D02*
X4027396Y-8918484D01*
X4027396Y-8918484D02*
X4046444Y-8928008D01*
X4046444Y-8928008D02*
X4055967Y-8937531D01*
X4055967Y-8937531D02*
X4065491Y-8956579D01*
X4065491Y-8956579D02*
X4075015Y-8994674D01*
X4075015Y-8994674D02*
X4075015Y-9042293D01*
X4075015Y-9042293D02*
X4065491Y-9080389D01*
X4065491Y-9080389D02*
X4055967Y-9099436D01*
X4055967Y-9099436D02*
X4046444Y-9108960D01*
X4046444Y-9108960D02*
X4027396Y-9118484D01*
X4027396Y-9118484D02*
X4008348Y-9118484D01*
X4008348Y-9118484D02*
X3989301Y-9108960D01*
X3989301Y-9108960D02*
X3979777Y-9099436D01*
X3979777Y-9099436D02*
X3970253Y-9080389D01*
X3970253Y-9080389D02*
X3960729Y-9042293D01*
X3960729Y-9042293D02*
X3960729Y-8994674D01*
X3960729Y-8994674D02*
X3970253Y-8956579D01*
X3970253Y-8956579D02*
X3979777Y-8937531D01*
X3979777Y-8937531D02*
X3989301Y-8928008D01*
X3989301Y-8928008D02*
X4008348Y-8918484D01*
X4189301Y-9004198D02*
X4170253Y-8994674D01*
X4170253Y-8994674D02*
X4160729Y-8985150D01*
X4160729Y-8985150D02*
X4151206Y-8966103D01*
X4151206Y-8966103D02*
X4151206Y-8956579D01*
X4151206Y-8956579D02*
X4160729Y-8937531D01*
X4160729Y-8937531D02*
X4170253Y-8928008D01*
X4170253Y-8928008D02*
X4189301Y-8918484D01*
X4189301Y-8918484D02*
X4227396Y-8918484D01*
X4227396Y-8918484D02*
X4246444Y-8928008D01*
X4246444Y-8928008D02*
X4255968Y-8937531D01*
X4255968Y-8937531D02*
X4265491Y-8956579D01*
X4265491Y-8956579D02*
X4265491Y-8966103D01*
X4265491Y-8966103D02*
X4255968Y-8985150D01*
X4255968Y-8985150D02*
X4246444Y-8994674D01*
X4246444Y-8994674D02*
X4227396Y-9004198D01*
X4227396Y-9004198D02*
X4189301Y-9004198D01*
X4189301Y-9004198D02*
X4170253Y-9013722D01*
X4170253Y-9013722D02*
X4160729Y-9023246D01*
X4160729Y-9023246D02*
X4151206Y-9042293D01*
X4151206Y-9042293D02*
X4151206Y-9080389D01*
X4151206Y-9080389D02*
X4160729Y-9099436D01*
X4160729Y-9099436D02*
X4170253Y-9108960D01*
X4170253Y-9108960D02*
X4189301Y-9118484D01*
X4189301Y-9118484D02*
X4227396Y-9118484D01*
X4227396Y-9118484D02*
X4246444Y-9108960D01*
X4246444Y-9108960D02*
X4255968Y-9099436D01*
X4255968Y-9099436D02*
X4265491Y-9080389D01*
X4265491Y-9080389D02*
X4265491Y-9042293D01*
X4265491Y-9042293D02*
X4255968Y-9023246D01*
X4255968Y-9023246D02*
X4246444Y-9013722D01*
X4246444Y-9013722D02*
X4227396Y-9004198D01*
X4341682Y-8937531D02*
X4351206Y-8928008D01*
X4351206Y-8928008D02*
X4370253Y-8918484D01*
X4370253Y-8918484D02*
X4417872Y-8918484D01*
X4417872Y-8918484D02*
X4436920Y-8928008D01*
X4436920Y-8928008D02*
X4446444Y-8937531D01*
X4446444Y-8937531D02*
X4455968Y-8956579D01*
X4455968Y-8956579D02*
X4455968Y-8975627D01*
X4455968Y-8975627D02*
X4446444Y-9004198D01*
X4446444Y-9004198D02*
X4332158Y-9118484D01*
X4332158Y-9118484D02*
X4455968Y-9118484D01*
X4522634Y-8918484D02*
X4655968Y-8918484D01*
X4655968Y-8918484D02*
X4570253Y-9118484D01*
X4722634Y-8918484D02*
X4722634Y-8956579D01*
X4798825Y-8918484D02*
X4798825Y-8956579D01*
X5094063Y-9194674D02*
X5084539Y-9185150D01*
X5084539Y-9185150D02*
X5065491Y-9156579D01*
X5065491Y-9156579D02*
X5055968Y-9137531D01*
X5055968Y-9137531D02*
X5046444Y-9108960D01*
X5046444Y-9108960D02*
X5036920Y-9061341D01*
X5036920Y-9061341D02*
X5036920Y-9023246D01*
X5036920Y-9023246D02*
X5046444Y-8975627D01*
X5046444Y-8975627D02*
X5055968Y-8947055D01*
X5055968Y-8947055D02*
X5065491Y-8928008D01*
X5065491Y-8928008D02*
X5084539Y-8899436D01*
X5084539Y-8899436D02*
X5094063Y-8889912D01*
X5255968Y-8985150D02*
X5255968Y-9118484D01*
X5208349Y-8908960D02*
X5160730Y-9051817D01*
X5160730Y-9051817D02*
X5284539Y-9051817D01*
X5513111Y-9118484D02*
X5513111Y-8918484D01*
X5598825Y-9118484D02*
X5598825Y-9013722D01*
X5598825Y-9013722D02*
X5589301Y-8994674D01*
X5589301Y-8994674D02*
X5570253Y-8985150D01*
X5570253Y-8985150D02*
X5541682Y-8985150D01*
X5541682Y-8985150D02*
X5522634Y-8994674D01*
X5522634Y-8994674D02*
X5513111Y-9004198D01*
X5722634Y-9118484D02*
X5703587Y-9108960D01*
X5703587Y-9108960D02*
X5694063Y-9099436D01*
X5694063Y-9099436D02*
X5684539Y-9080389D01*
X5684539Y-9080389D02*
X5684539Y-9023246D01*
X5684539Y-9023246D02*
X5694063Y-9004198D01*
X5694063Y-9004198D02*
X5703587Y-8994674D01*
X5703587Y-8994674D02*
X5722634Y-8985150D01*
X5722634Y-8985150D02*
X5751206Y-8985150D01*
X5751206Y-8985150D02*
X5770253Y-8994674D01*
X5770253Y-8994674D02*
X5779777Y-9004198D01*
X5779777Y-9004198D02*
X5789301Y-9023246D01*
X5789301Y-9023246D02*
X5789301Y-9080389D01*
X5789301Y-9080389D02*
X5779777Y-9099436D01*
X5779777Y-9099436D02*
X5770253Y-9108960D01*
X5770253Y-9108960D02*
X5751206Y-9118484D01*
X5751206Y-9118484D02*
X5722634Y-9118484D01*
X5903587Y-9118484D02*
X5884539Y-9108960D01*
X5884539Y-9108960D02*
X5875015Y-9089912D01*
X5875015Y-9089912D02*
X5875015Y-8918484D01*
X6055968Y-9108960D02*
X6036920Y-9118484D01*
X6036920Y-9118484D02*
X5998825Y-9118484D01*
X5998825Y-9118484D02*
X5979777Y-9108960D01*
X5979777Y-9108960D02*
X5970253Y-9089912D01*
X5970253Y-9089912D02*
X5970253Y-9013722D01*
X5970253Y-9013722D02*
X5979777Y-8994674D01*
X5979777Y-8994674D02*
X5998825Y-8985150D01*
X5998825Y-8985150D02*
X6036920Y-8985150D01*
X6036920Y-8985150D02*
X6055968Y-8994674D01*
X6055968Y-8994674D02*
X6065491Y-9013722D01*
X6065491Y-9013722D02*
X6065491Y-9032770D01*
X6065491Y-9032770D02*
X5970253Y-9051817D01*
X6141682Y-9108960D02*
X6160730Y-9118484D01*
X6160730Y-9118484D02*
X6198825Y-9118484D01*
X6198825Y-9118484D02*
X6217872Y-9108960D01*
X6217872Y-9108960D02*
X6227396Y-9089912D01*
X6227396Y-9089912D02*
X6227396Y-9080389D01*
X6227396Y-9080389D02*
X6217872Y-9061341D01*
X6217872Y-9061341D02*
X6198825Y-9051817D01*
X6198825Y-9051817D02*
X6170253Y-9051817D01*
X6170253Y-9051817D02*
X6151206Y-9042293D01*
X6151206Y-9042293D02*
X6141682Y-9023246D01*
X6141682Y-9023246D02*
X6141682Y-9013722D01*
X6141682Y-9013722D02*
X6151206Y-8994674D01*
X6151206Y-8994674D02*
X6170253Y-8985150D01*
X6170253Y-8985150D02*
X6198825Y-8985150D01*
X6198825Y-8985150D02*
X6217872Y-8994674D01*
X6294063Y-9194674D02*
X6303587Y-9185150D01*
X6303587Y-9185150D02*
X6322634Y-9156579D01*
X6322634Y-9156579D02*
X6332158Y-9137531D01*
X6332158Y-9137531D02*
X6341682Y-9108960D01*
X6341682Y-9108960D02*
X6351206Y-9061341D01*
X6351206Y-9061341D02*
X6351206Y-9023246D01*
X6351206Y-9023246D02*
X6341682Y-8975627D01*
X6341682Y-8975627D02*
X6332158Y-8947055D01*
X6332158Y-8947055D02*
X6322634Y-8928008D01*
X6322634Y-8928008D02*
X6303587Y-8899436D01*
X6303587Y-8899436D02*
X6294063Y-8889912D01*
X6655968Y-9194674D02*
X6646444Y-9185150D01*
X6646444Y-9185150D02*
X6627396Y-9156579D01*
X6627396Y-9156579D02*
X6617872Y-9137531D01*
X6617872Y-9137531D02*
X6608349Y-9108960D01*
X6608349Y-9108960D02*
X6598825Y-9061341D01*
X6598825Y-9061341D02*
X6598825Y-9023246D01*
X6598825Y-9023246D02*
X6608349Y-8975627D01*
X6608349Y-8975627D02*
X6617872Y-8947055D01*
X6617872Y-8947055D02*
X6627396Y-8928008D01*
X6627396Y-8928008D02*
X6646444Y-8899436D01*
X6646444Y-8899436D02*
X6655968Y-8889912D01*
X6732158Y-8985150D02*
X6732158Y-9118484D01*
X6732158Y-9004198D02*
X6741682Y-8994674D01*
X6741682Y-8994674D02*
X6760730Y-8985150D01*
X6760730Y-8985150D02*
X6789301Y-8985150D01*
X6789301Y-8985150D02*
X6808349Y-8994674D01*
X6808349Y-8994674D02*
X6817872Y-9013722D01*
X6817872Y-9013722D02*
X6817872Y-9118484D01*
X6941682Y-9118484D02*
X6922634Y-9108960D01*
X6922634Y-9108960D02*
X6913111Y-9099436D01*
X6913111Y-9099436D02*
X6903587Y-9080389D01*
X6903587Y-9080389D02*
X6903587Y-9023246D01*
X6903587Y-9023246D02*
X6913111Y-9004198D01*
X6913111Y-9004198D02*
X6922634Y-8994674D01*
X6922634Y-8994674D02*
X6941682Y-8985150D01*
X6941682Y-8985150D02*
X6970253Y-8985150D01*
X6970253Y-8985150D02*
X6989301Y-8994674D01*
X6989301Y-8994674D02*
X6998825Y-9004198D01*
X6998825Y-9004198D02*
X7008349Y-9023246D01*
X7008349Y-9023246D02*
X7008349Y-9080389D01*
X7008349Y-9080389D02*
X6998825Y-9099436D01*
X6998825Y-9099436D02*
X6989301Y-9108960D01*
X6989301Y-9108960D02*
X6970253Y-9118484D01*
X6970253Y-9118484D02*
X6941682Y-9118484D01*
X7065492Y-8985150D02*
X7141682Y-8985150D01*
X7094063Y-8918484D02*
X7094063Y-9089912D01*
X7094063Y-9089912D02*
X7103587Y-9108960D01*
X7103587Y-9108960D02*
X7122634Y-9118484D01*
X7122634Y-9118484D02*
X7141682Y-9118484D01*
X7360730Y-8985150D02*
X7360730Y-9185150D01*
X7360730Y-8994674D02*
X7379777Y-8985150D01*
X7379777Y-8985150D02*
X7417873Y-8985150D01*
X7417873Y-8985150D02*
X7436920Y-8994674D01*
X7436920Y-8994674D02*
X7446444Y-9004198D01*
X7446444Y-9004198D02*
X7455968Y-9023246D01*
X7455968Y-9023246D02*
X7455968Y-9080389D01*
X7455968Y-9080389D02*
X7446444Y-9099436D01*
X7446444Y-9099436D02*
X7436920Y-9108960D01*
X7436920Y-9108960D02*
X7417873Y-9118484D01*
X7417873Y-9118484D02*
X7379777Y-9118484D01*
X7379777Y-9118484D02*
X7360730Y-9108960D01*
X7570253Y-9118484D02*
X7551206Y-9108960D01*
X7551206Y-9108960D02*
X7541682Y-9089912D01*
X7541682Y-9089912D02*
X7541682Y-8918484D01*
X7732158Y-9118484D02*
X7732158Y-9013722D01*
X7732158Y-9013722D02*
X7722634Y-8994674D01*
X7722634Y-8994674D02*
X7703587Y-8985150D01*
X7703587Y-8985150D02*
X7665492Y-8985150D01*
X7665492Y-8985150D02*
X7646444Y-8994674D01*
X7732158Y-9108960D02*
X7713111Y-9118484D01*
X7713111Y-9118484D02*
X7665492Y-9118484D01*
X7665492Y-9118484D02*
X7646444Y-9108960D01*
X7646444Y-9108960D02*
X7636920Y-9089912D01*
X7636920Y-9089912D02*
X7636920Y-9070865D01*
X7636920Y-9070865D02*
X7646444Y-9051817D01*
X7646444Y-9051817D02*
X7665492Y-9042293D01*
X7665492Y-9042293D02*
X7713111Y-9042293D01*
X7713111Y-9042293D02*
X7732158Y-9032770D01*
X7798825Y-8985150D02*
X7875015Y-8985150D01*
X7827396Y-8918484D02*
X7827396Y-9089912D01*
X7827396Y-9089912D02*
X7836920Y-9108960D01*
X7836920Y-9108960D02*
X7855968Y-9118484D01*
X7855968Y-9118484D02*
X7875015Y-9118484D01*
X8017873Y-9108960D02*
X7998825Y-9118484D01*
X7998825Y-9118484D02*
X7960730Y-9118484D01*
X7960730Y-9118484D02*
X7941682Y-9108960D01*
X7941682Y-9108960D02*
X7932158Y-9089912D01*
X7932158Y-9089912D02*
X7932158Y-9013722D01*
X7932158Y-9013722D02*
X7941682Y-8994674D01*
X7941682Y-8994674D02*
X7960730Y-8985150D01*
X7960730Y-8985150D02*
X7998825Y-8985150D01*
X7998825Y-8985150D02*
X8017873Y-8994674D01*
X8017873Y-8994674D02*
X8027396Y-9013722D01*
X8027396Y-9013722D02*
X8027396Y-9032770D01*
X8027396Y-9032770D02*
X7932158Y-9051817D01*
X8198825Y-9118484D02*
X8198825Y-8918484D01*
X8198825Y-9108960D02*
X8179777Y-9118484D01*
X8179777Y-9118484D02*
X8141682Y-9118484D01*
X8141682Y-9118484D02*
X8122634Y-9108960D01*
X8122634Y-9108960D02*
X8113111Y-9099436D01*
X8113111Y-9099436D02*
X8103587Y-9080389D01*
X8103587Y-9080389D02*
X8103587Y-9023246D01*
X8103587Y-9023246D02*
X8113111Y-9004198D01*
X8113111Y-9004198D02*
X8122634Y-8994674D01*
X8122634Y-8994674D02*
X8141682Y-8985150D01*
X8141682Y-8985150D02*
X8179777Y-8985150D01*
X8179777Y-8985150D02*
X8198825Y-8994674D01*
X8275015Y-9194674D02*
X8284539Y-9185150D01*
X8284539Y-9185150D02*
X8303587Y-9156579D01*
X8303587Y-9156579D02*
X8313111Y-9137531D01*
X8313111Y-9137531D02*
X8322634Y-9108960D01*
X8322634Y-9108960D02*
X8332158Y-9061341D01*
X8332158Y-9061341D02*
X8332158Y-9023246D01*
X8332158Y-9023246D02*
X8322634Y-8975627D01*
X8322634Y-8975627D02*
X8313111Y-8947055D01*
X8313111Y-8947055D02*
X8303587Y-8928008D01*
X8303587Y-8928008D02*
X8284539Y-8899436D01*
X8284539Y-8899436D02*
X8275015Y-8889912D01*
M02*
