%TF.GenerationSoftware,KiCad,Pcbnew,7.0.9*%
%TF.CreationDate,2023-12-08T11:51:25+05:30*%
%TF.ProjectId,Led_Cube_BaseControler,4c65645f-4375-4626-955f-42617365436f,rev?*%
%TF.SameCoordinates,Original*%
%TF.FileFunction,Copper,L1,Top*%
%TF.FilePolarity,Positive*%
%FSLAX46Y46*%
G04 Gerber Fmt 4.6, Leading zero omitted, Abs format (unit mm)*
G04 Created by KiCad (PCBNEW 7.0.9) date 2023-12-08 11:51:25*
%MOMM*%
%LPD*%
G01*
G04 APERTURE LIST*
%TA.AperFunction,ComponentPad*%
%ADD10C,1.400000*%
%TD*%
%TA.AperFunction,ComponentPad*%
%ADD11O,1.400000X1.400000*%
%TD*%
%TA.AperFunction,ComponentPad*%
%ADD12R,0.850000X0.850000*%
%TD*%
%TA.AperFunction,ComponentPad*%
%ADD13O,0.850000X0.850000*%
%TD*%
%TA.AperFunction,ComponentPad*%
%ADD14R,2.400000X1.600000*%
%TD*%
%TA.AperFunction,ComponentPad*%
%ADD15O,2.400000X1.600000*%
%TD*%
%TA.AperFunction,ViaPad*%
%ADD16C,0.800000*%
%TD*%
%TA.AperFunction,Conductor*%
%ADD17C,0.250000*%
%TD*%
G04 APERTURE END LIST*
D10*
%TO.P,R13,1*%
%TO.N,Net-(U1-QE)*%
X53340000Y-60960000D03*
D11*
%TO.P,R13,2*%
%TO.N,Net-(J4-Pin_4)*%
X53340000Y-66040000D03*
%TD*%
D10*
%TO.P,R31,1*%
%TO.N,Net-(U4-QG)*%
X99060000Y-60960000D03*
D11*
%TO.P,R31,2*%
%TO.N,Net-(J6-Pin_2)*%
X99060000Y-66040000D03*
%TD*%
D10*
%TO.P,R40,1*%
%TO.N,Net-(U5-QH)*%
X121920000Y-60960000D03*
D11*
%TO.P,R40,2*%
%TO.N,Net-(J7-Pin_1)*%
X121920000Y-66040000D03*
%TD*%
D10*
%TO.P,R44,1*%
%TO.N,Net-(U6-QD)*%
X132080000Y-60960000D03*
D11*
%TO.P,R44,2*%
%TO.N,Net-(J8-Pin_5)*%
X132080000Y-66040000D03*
%TD*%
D10*
%TO.P,R33,1*%
%TO.N,Net-(U5-QA)*%
X104140000Y-60960000D03*
D11*
%TO.P,R33,2*%
%TO.N,Net-(J7-Pin_8)*%
X104140000Y-66040000D03*
%TD*%
D10*
%TO.P,R59,1*%
%TO.N,Net-(U8-QC)*%
X172210000Y-60960000D03*
D11*
%TO.P,R59,2*%
%TO.N,Net-(J10-Pin_6)*%
X172210000Y-66040000D03*
%TD*%
D10*
%TO.P,R36,1*%
%TO.N,Net-(U5-QD)*%
X111760000Y-60960000D03*
D11*
%TO.P,R36,2*%
%TO.N,Net-(J7-Pin_5)*%
X111760000Y-66040000D03*
%TD*%
D12*
%TO.P,J6,1,Pin_1*%
%TO.N,Net-(J6-Pin_1)*%
X107140000Y-78200000D03*
D13*
%TO.P,J6,2,Pin_2*%
%TO.N,Net-(J6-Pin_2)*%
X106140000Y-78200000D03*
%TO.P,J6,3,Pin_3*%
%TO.N,Net-(J6-Pin_3)*%
X105140000Y-78200000D03*
%TO.P,J6,4,Pin_4*%
%TO.N,Net-(J6-Pin_4)*%
X104140000Y-78200000D03*
%TO.P,J6,5,Pin_5*%
%TO.N,Net-(J6-Pin_5)*%
X103140000Y-78200000D03*
%TO.P,J6,6,Pin_6*%
%TO.N,Net-(J6-Pin_6)*%
X102140000Y-78200000D03*
%TO.P,J6,7,Pin_7*%
%TO.N,Net-(J6-Pin_7)*%
X101140000Y-78200000D03*
%TO.P,J6,8,Pin_8*%
%TO.N,Net-(J6-Pin_8)*%
X100140000Y-78200000D03*
%TD*%
D10*
%TO.P,R24,1*%
%TO.N,Net-(U2-QH)*%
X81280000Y-60960000D03*
D11*
%TO.P,R24,2*%
%TO.N,Net-(J5-Pin_1)*%
X81280000Y-66040000D03*
%TD*%
D10*
%TO.P,R32,1*%
%TO.N,Net-(U4-QH)*%
X101600000Y-60960000D03*
D11*
%TO.P,R32,2*%
%TO.N,Net-(J6-Pin_1)*%
X101600000Y-66040000D03*
%TD*%
D12*
%TO.P,J7,1,Pin_1*%
%TO.N,Net-(J7-Pin_1)*%
X119300000Y-78200000D03*
D13*
%TO.P,J7,2,Pin_2*%
%TO.N,Net-(J7-Pin_2)*%
X118300000Y-78200000D03*
%TO.P,J7,3,Pin_3*%
%TO.N,Net-(J7-Pin_3)*%
X117300000Y-78200000D03*
%TO.P,J7,4,Pin_4*%
%TO.N,Net-(J7-Pin_4)*%
X116300000Y-78200000D03*
%TO.P,J7,5,Pin_5*%
%TO.N,Net-(J7-Pin_5)*%
X115300000Y-78200000D03*
%TO.P,J7,6,Pin_6*%
%TO.N,Net-(J7-Pin_6)*%
X114300000Y-78200000D03*
%TO.P,J7,7,Pin_7*%
%TO.N,Net-(J7-Pin_7)*%
X113300000Y-78200000D03*
%TO.P,J7,8,Pin_8*%
%TO.N,Net-(J7-Pin_8)*%
X112300000Y-78200000D03*
%TD*%
D10*
%TO.P,R26,1*%
%TO.N,Net-(U4-QB)*%
X86360000Y-60960000D03*
D11*
%TO.P,R26,2*%
%TO.N,Net-(J6-Pin_7)*%
X86360000Y-66040000D03*
%TD*%
D10*
%TO.P,R46,1*%
%TO.N,Net-(U6-QF)*%
X137160000Y-60960000D03*
D11*
%TO.P,R46,2*%
%TO.N,Net-(J8-Pin_3)*%
X137160000Y-66040000D03*
%TD*%
D10*
%TO.P,R22,1*%
%TO.N,Net-(U2-QF)*%
X76200000Y-60960000D03*
D11*
%TO.P,R22,2*%
%TO.N,Net-(J5-Pin_3)*%
X76200000Y-66040000D03*
%TD*%
D10*
%TO.P,R25,1*%
%TO.N,Net-(U4-QA)*%
X83820000Y-60960000D03*
D11*
%TO.P,R25,2*%
%TO.N,Net-(J6-Pin_8)*%
X83820000Y-66040000D03*
%TD*%
D10*
%TO.P,R34,1*%
%TO.N,Net-(U5-QB)*%
X106680000Y-60960000D03*
D11*
%TO.P,R34,2*%
%TO.N,Net-(J7-Pin_7)*%
X106680000Y-66040000D03*
%TD*%
D10*
%TO.P,R18,1*%
%TO.N,Net-(U2-QB)*%
X66040000Y-60960000D03*
D11*
%TO.P,R18,2*%
%TO.N,Net-(J5-Pin_7)*%
X66040000Y-66040000D03*
%TD*%
D10*
%TO.P,R52,1*%
%TO.N,Net-(U7-QD)*%
X152400000Y-60960000D03*
D11*
%TO.P,R52,2*%
%TO.N,Net-(J9-Pin_5)*%
X152400000Y-66040000D03*
%TD*%
D10*
%TO.P,R28,1*%
%TO.N,Net-(U4-QD)*%
X91440000Y-60960000D03*
D11*
%TO.P,R28,2*%
%TO.N,Net-(J6-Pin_5)*%
X91440000Y-66040000D03*
%TD*%
D12*
%TO.P,J5,1,Pin_1*%
%TO.N,Net-(J5-Pin_1)*%
X93980000Y-78740000D03*
D13*
%TO.P,J5,2,Pin_2*%
%TO.N,Net-(J5-Pin_2)*%
X92980000Y-78740000D03*
%TO.P,J5,3,Pin_3*%
%TO.N,Net-(J5-Pin_3)*%
X91980000Y-78740000D03*
%TO.P,J5,4,Pin_4*%
%TO.N,Net-(J5-Pin_4)*%
X90980000Y-78740000D03*
%TO.P,J5,5,Pin_5*%
%TO.N,Net-(J5-Pin_5)*%
X89980000Y-78740000D03*
%TO.P,J5,6,Pin_6*%
%TO.N,Net-(J5-Pin_6)*%
X88980000Y-78740000D03*
%TO.P,J5,7,Pin_7*%
%TO.N,Net-(J5-Pin_7)*%
X87980000Y-78740000D03*
%TO.P,J5,8,Pin_8*%
%TO.N,Net-(J5-Pin_8)*%
X86980000Y-78740000D03*
%TD*%
D12*
%TO.P,J11,1,Pin_1*%
%TO.N,Net-(J11-Pin_1)*%
X117300000Y-17780000D03*
D13*
%TO.P,J11,2,Pin_2*%
%TO.N,Net-(J1-Pin_2)*%
X116300000Y-17780000D03*
%TO.P,J11,3,Pin_3*%
%TO.N,Net-(J1-Pin_3)*%
X115300000Y-17780000D03*
%TO.P,J11,4,Pin_4*%
%TO.N,Net-(J1-Pin_4)*%
X114300000Y-17780000D03*
%TO.P,J11,5*%
%TO.N,N/C*%
X113300000Y-17780000D03*
%TD*%
D10*
%TO.P,R60,1*%
%TO.N,Net-(U8-QD)*%
X175360000Y-60960000D03*
D11*
%TO.P,R60,2*%
%TO.N,Net-(J10-Pin_5)*%
X175360000Y-66040000D03*
%TD*%
D10*
%TO.P,R14,1*%
%TO.N,Net-(U1-QF)*%
X55880000Y-60960000D03*
D11*
%TO.P,R14,2*%
%TO.N,Net-(J4-Pin_3)*%
X55880000Y-66040000D03*
%TD*%
D14*
%TO.P,U3,1,QB*%
%TO.N,Net-(U3-QB)*%
X24115000Y-29225000D03*
D15*
%TO.P,U3,2,QC*%
%TO.N,Net-(U3-QC)*%
X24115000Y-31765000D03*
%TO.P,U3,3,QD*%
%TO.N,Net-(U3-QD)*%
X24115000Y-34305000D03*
%TO.P,U3,4,QE*%
%TO.N,Net-(U3-QE)*%
X24115000Y-36845000D03*
%TO.P,U3,5,QF*%
%TO.N,Net-(U3-QF)*%
X24115000Y-39385000D03*
%TO.P,U3,6,QG*%
%TO.N,Net-(U3-QG)*%
X24115000Y-41925000D03*
%TO.P,U3,7,QH*%
%TO.N,Net-(U3-QH)*%
X24115000Y-44465000D03*
%TO.P,U3,8,GND*%
%TO.N,Net-(J1-Pin_5)*%
X24115000Y-47005000D03*
%TO.P,U3,9,QH'*%
%TO.N,Net-(U1-SER)*%
X31735000Y-47005000D03*
%TO.P,U3,10,~{SRCLR}*%
%TO.N,Net-(J1-Pin_4)*%
X31735000Y-44465000D03*
%TO.P,U3,11,SRCLK*%
%TO.N,Net-(J1-Pin_2)*%
X31735000Y-41925000D03*
%TO.P,U3,12,RCLK*%
%TO.N,Net-(J1-Pin_3)*%
X31735000Y-39385000D03*
%TO.P,U3,13,~{OE}*%
%TO.N,Net-(J1-Pin_5)*%
X31735000Y-36845000D03*
%TO.P,U3,14,SER*%
%TO.N,Net-(J1-Pin_1)*%
X31735000Y-34305000D03*
%TO.P,U3,15,QA*%
%TO.N,Net-(U3-QA)*%
X31735000Y-31765000D03*
%TO.P,U3,16,VCC*%
%TO.N,Net-(J1-Pin_6)*%
X31735000Y-29225000D03*
%TD*%
D10*
%TO.P,R39,1*%
%TO.N,Net-(U5-QG)*%
X119380000Y-60960000D03*
D11*
%TO.P,R39,2*%
%TO.N,Net-(J7-Pin_2)*%
X119380000Y-66040000D03*
%TD*%
D10*
%TO.P,R20,1*%
%TO.N,Net-(U2-QD)*%
X71120000Y-60960000D03*
D11*
%TO.P,R20,2*%
%TO.N,Net-(J5-Pin_5)*%
X71120000Y-66040000D03*
%TD*%
D14*
%TO.P,U7,1,QB*%
%TO.N,Net-(U7-QB)*%
X149860000Y-27940000D03*
D15*
%TO.P,U7,2,QC*%
%TO.N,Net-(U7-QC)*%
X149860000Y-30480000D03*
%TO.P,U7,3,QD*%
%TO.N,Net-(U7-QD)*%
X149860000Y-33020000D03*
%TO.P,U7,4,QE*%
%TO.N,Net-(U7-QE)*%
X149860000Y-35560000D03*
%TO.P,U7,5,QF*%
%TO.N,Net-(U7-QF)*%
X149860000Y-38100000D03*
%TO.P,U7,6,QG*%
%TO.N,Net-(U7-QG)*%
X149860000Y-40640000D03*
%TO.P,U7,7,QH*%
%TO.N,Net-(U7-QH)*%
X149860000Y-43180000D03*
%TO.P,U7,8,GND*%
%TO.N,Net-(J1-Pin_5)*%
X149860000Y-45720000D03*
%TO.P,U7,9,QH'*%
%TO.N,Net-(U7-QH')*%
X157480000Y-45720000D03*
%TO.P,U7,10,~{SRCLR}*%
%TO.N,Net-(J1-Pin_4)*%
X157480000Y-43180000D03*
%TO.P,U7,11,SRCLK*%
%TO.N,Net-(J1-Pin_2)*%
X157480000Y-40640000D03*
%TO.P,U7,12,RCLK*%
%TO.N,Net-(J1-Pin_3)*%
X157480000Y-38100000D03*
%TO.P,U7,13,~{OE}*%
%TO.N,Net-(J1-Pin_5)*%
X157480000Y-35560000D03*
%TO.P,U7,14,SER*%
%TO.N,Net-(U6-QH')*%
X157480000Y-33020000D03*
%TO.P,U7,15,QA*%
%TO.N,Net-(U7-QA)*%
X157480000Y-30480000D03*
%TO.P,U7,16,VCC*%
%TO.N,Net-(J1-Pin_6)*%
X157480000Y-27940000D03*
%TD*%
D10*
%TO.P,R1,1*%
%TO.N,Net-(U3-QA)*%
X20420000Y-60960000D03*
D11*
%TO.P,R1,2*%
%TO.N,Net-(J3-Pin_1)*%
X20420000Y-66040000D03*
%TD*%
D10*
%TO.P,R51,1*%
%TO.N,Net-(U7-QC)*%
X149860000Y-60960000D03*
D11*
%TO.P,R51,2*%
%TO.N,Net-(J9-Pin_6)*%
X149860000Y-66040000D03*
%TD*%
D14*
%TO.P,U8,1,QB*%
%TO.N,Net-(U8-QB)*%
X172720000Y-27940000D03*
D15*
%TO.P,U8,2,QC*%
%TO.N,Net-(U8-QC)*%
X172720000Y-30480000D03*
%TO.P,U8,3,QD*%
%TO.N,Net-(U8-QD)*%
X172720000Y-33020000D03*
%TO.P,U8,4,QE*%
%TO.N,Net-(U8-QE)*%
X172720000Y-35560000D03*
%TO.P,U8,5,QF*%
%TO.N,Net-(U8-QF)*%
X172720000Y-38100000D03*
%TO.P,U8,6,QG*%
%TO.N,Net-(U8-QG)*%
X172720000Y-40640000D03*
%TO.P,U8,7,QH*%
%TO.N,Net-(U8-QH)*%
X172720000Y-43180000D03*
%TO.P,U8,8,GND*%
%TO.N,Net-(J1-Pin_5)*%
X172720000Y-45720000D03*
%TO.P,U8,9,QH'*%
%TO.N,Net-(J11-Pin_1)*%
X180340000Y-45720000D03*
%TO.P,U8,10,~{SRCLR}*%
%TO.N,Net-(J1-Pin_4)*%
X180340000Y-43180000D03*
%TO.P,U8,11,SRCLK*%
%TO.N,Net-(J1-Pin_2)*%
X180340000Y-40640000D03*
%TO.P,U8,12,RCLK*%
%TO.N,Net-(J1-Pin_3)*%
X180340000Y-38100000D03*
%TO.P,U8,13,~{OE}*%
%TO.N,Net-(J1-Pin_5)*%
X180340000Y-35560000D03*
%TO.P,U8,14,SER*%
%TO.N,Net-(U7-QH')*%
X180340000Y-33020000D03*
%TO.P,U8,15,QA*%
%TO.N,Net-(U8-QA)*%
X180340000Y-30480000D03*
%TO.P,U8,16,VCC*%
%TO.N,Net-(J1-Pin_6)*%
X180340000Y-27940000D03*
%TD*%
D10*
%TO.P,R45,1*%
%TO.N,Net-(U6-QE)*%
X134620000Y-60960000D03*
D11*
%TO.P,R45,2*%
%TO.N,Net-(J8-Pin_4)*%
X134620000Y-66040000D03*
%TD*%
D14*
%TO.P,U6,1,QB*%
%TO.N,Net-(U6-QB)*%
X129540000Y-27940000D03*
D15*
%TO.P,U6,2,QC*%
%TO.N,Net-(U6-QC)*%
X129540000Y-30480000D03*
%TO.P,U6,3,QD*%
%TO.N,Net-(U6-QD)*%
X129540000Y-33020000D03*
%TO.P,U6,4,QE*%
%TO.N,Net-(U6-QE)*%
X129540000Y-35560000D03*
%TO.P,U6,5,QF*%
%TO.N,Net-(U6-QF)*%
X129540000Y-38100000D03*
%TO.P,U6,6,QG*%
%TO.N,Net-(U6-QG)*%
X129540000Y-40640000D03*
%TO.P,U6,7,QH*%
%TO.N,Net-(U6-QH)*%
X129540000Y-43180000D03*
%TO.P,U6,8,GND*%
%TO.N,Net-(J1-Pin_5)*%
X129540000Y-45720000D03*
%TO.P,U6,9,QH'*%
%TO.N,Net-(U6-QH')*%
X137160000Y-45720000D03*
%TO.P,U6,10,~{SRCLR}*%
%TO.N,Net-(J1-Pin_4)*%
X137160000Y-43180000D03*
%TO.P,U6,11,SRCLK*%
%TO.N,Net-(J1-Pin_2)*%
X137160000Y-40640000D03*
%TO.P,U6,12,RCLK*%
%TO.N,Net-(J1-Pin_3)*%
X137160000Y-38100000D03*
%TO.P,U6,13,~{OE}*%
%TO.N,Net-(J1-Pin_5)*%
X137160000Y-35560000D03*
%TO.P,U6,14,SER*%
%TO.N,Net-(U5-QH')*%
X137160000Y-33020000D03*
%TO.P,U6,15,QA*%
%TO.N,Net-(U6-QA)*%
X137160000Y-30480000D03*
%TO.P,U6,16,VCC*%
%TO.N,Net-(J1-Pin_6)*%
X137160000Y-27940000D03*
%TD*%
D10*
%TO.P,R56,1*%
%TO.N,Net-(U7-QH)*%
X162560000Y-60960000D03*
D11*
%TO.P,R56,2*%
%TO.N,Net-(J9-Pin_1)*%
X162560000Y-66040000D03*
%TD*%
D10*
%TO.P,R11,1*%
%TO.N,Net-(U1-QC)*%
X48260000Y-60960000D03*
D11*
%TO.P,R11,2*%
%TO.N,Net-(J4-Pin_6)*%
X48260000Y-66040000D03*
%TD*%
D10*
%TO.P,R17,1*%
%TO.N,Net-(U2-QA)*%
X63500000Y-60960000D03*
D11*
%TO.P,R17,2*%
%TO.N,Net-(J5-Pin_8)*%
X63500000Y-66040000D03*
%TD*%
D10*
%TO.P,R47,1*%
%TO.N,Net-(U6-QG)*%
X139700000Y-60960000D03*
D11*
%TO.P,R47,2*%
%TO.N,Net-(J8-Pin_2)*%
X139700000Y-66040000D03*
%TD*%
D10*
%TO.P,R57,1*%
%TO.N,Net-(U8-QA)*%
X165910000Y-60960000D03*
D11*
%TO.P,R57,2*%
%TO.N,Net-(J10-Pin_8)*%
X165910000Y-66040000D03*
%TD*%
D10*
%TO.P,R49,1*%
%TO.N,Net-(U7-QA)*%
X144780000Y-60960000D03*
D11*
%TO.P,R49,2*%
%TO.N,Net-(J9-Pin_8)*%
X144780000Y-66040000D03*
%TD*%
D10*
%TO.P,R30,1*%
%TO.N,Net-(U4-QF)*%
X96520000Y-60960000D03*
D11*
%TO.P,R30,2*%
%TO.N,Net-(J6-Pin_3)*%
X96520000Y-66040000D03*
%TD*%
D10*
%TO.P,R8,1*%
%TO.N,Net-(U3-QH)*%
X40640000Y-60960000D03*
D11*
%TO.P,R8,2*%
%TO.N,Net-(J3-Pin_8)*%
X40640000Y-66040000D03*
%TD*%
D14*
%TO.P,U5,1,QB*%
%TO.N,Net-(U5-QB)*%
X109220000Y-27940000D03*
D15*
%TO.P,U5,2,QC*%
%TO.N,Net-(U5-QC)*%
X109220000Y-30480000D03*
%TO.P,U5,3,QD*%
%TO.N,Net-(U5-QD)*%
X109220000Y-33020000D03*
%TO.P,U5,4,QE*%
%TO.N,Net-(U5-QE)*%
X109220000Y-35560000D03*
%TO.P,U5,5,QF*%
%TO.N,Net-(U5-QF)*%
X109220000Y-38100000D03*
%TO.P,U5,6,QG*%
%TO.N,Net-(U5-QG)*%
X109220000Y-40640000D03*
%TO.P,U5,7,QH*%
%TO.N,Net-(U5-QH)*%
X109220000Y-43180000D03*
%TO.P,U5,8,GND*%
%TO.N,Net-(J1-Pin_5)*%
X109220000Y-45720000D03*
%TO.P,U5,9,QH'*%
%TO.N,Net-(U5-QH')*%
X116840000Y-45720000D03*
%TO.P,U5,10,~{SRCLR}*%
%TO.N,Net-(J1-Pin_4)*%
X116840000Y-43180000D03*
%TO.P,U5,11,SRCLK*%
%TO.N,Net-(J1-Pin_2)*%
X116840000Y-40640000D03*
%TO.P,U5,12,RCLK*%
%TO.N,Net-(J1-Pin_3)*%
X116840000Y-38100000D03*
%TO.P,U5,13,~{OE}*%
%TO.N,Net-(J1-Pin_5)*%
X116840000Y-35560000D03*
%TO.P,U5,14,SER*%
%TO.N,Net-(U4-QH')*%
X116840000Y-33020000D03*
%TO.P,U5,15,QA*%
%TO.N,Net-(U5-QA)*%
X116840000Y-30480000D03*
%TO.P,U5,16,VCC*%
%TO.N,Net-(J1-Pin_6)*%
X116840000Y-27940000D03*
%TD*%
D10*
%TO.P,R21,1*%
%TO.N,Net-(U2-QE)*%
X73660000Y-60960000D03*
D11*
%TO.P,R21,2*%
%TO.N,Net-(J5-Pin_4)*%
X73660000Y-66040000D03*
%TD*%
D10*
%TO.P,R15,1*%
%TO.N,Net-(U1-QG)*%
X58420000Y-60960000D03*
D11*
%TO.P,R15,2*%
%TO.N,Net-(J4-Pin_2)*%
X58420000Y-66040000D03*
%TD*%
D12*
%TO.P,J9,1,Pin_1*%
%TO.N,Net-(J9-Pin_1)*%
X147240000Y-78200000D03*
D13*
%TO.P,J9,2,Pin_2*%
%TO.N,Net-(J9-Pin_2)*%
X146240000Y-78200000D03*
%TO.P,J9,3,Pin_3*%
%TO.N,Net-(J9-Pin_3)*%
X145240000Y-78200000D03*
%TO.P,J9,4,Pin_4*%
%TO.N,Net-(J9-Pin_4)*%
X144240000Y-78200000D03*
%TO.P,J9,5,Pin_5*%
%TO.N,Net-(J9-Pin_5)*%
X143240000Y-78200000D03*
%TO.P,J9,6,Pin_6*%
%TO.N,Net-(J9-Pin_6)*%
X142240000Y-78200000D03*
%TO.P,J9,7,Pin_7*%
%TO.N,Net-(J9-Pin_7)*%
X141240000Y-78200000D03*
%TO.P,J9,8,Pin_8*%
%TO.N,Net-(J9-Pin_8)*%
X140240000Y-78200000D03*
%TD*%
D12*
%TO.P,J1,1,Pin_1*%
%TO.N,Net-(J1-Pin_1)*%
X100060000Y-17780000D03*
D13*
%TO.P,J1,2,Pin_2*%
%TO.N,Net-(J1-Pin_2)*%
X101060000Y-17780000D03*
%TO.P,J1,3,Pin_3*%
%TO.N,Net-(J1-Pin_3)*%
X102060000Y-17780000D03*
%TO.P,J1,4,Pin_4*%
%TO.N,Net-(J1-Pin_4)*%
X103060000Y-17780000D03*
%TO.P,J1,5,Pin_5*%
%TO.N,Net-(J1-Pin_5)*%
X104060000Y-17780000D03*
%TO.P,J1,6,Pin_6*%
%TO.N,Net-(J1-Pin_6)*%
X105060000Y-17780000D03*
%TD*%
D10*
%TO.P,R35,1*%
%TO.N,Net-(U5-QC)*%
X109220000Y-60960000D03*
D11*
%TO.P,R35,2*%
%TO.N,Net-(J7-Pin_6)*%
X109220000Y-66040000D03*
%TD*%
D10*
%TO.P,R9,1*%
%TO.N,Net-(U1-QA)*%
X43180000Y-60960000D03*
D11*
%TO.P,R9,2*%
%TO.N,Net-(J4-Pin_8)*%
X43180000Y-66040000D03*
%TD*%
D10*
%TO.P,R7,1*%
%TO.N,Net-(U3-QG)*%
X37490000Y-60960000D03*
D11*
%TO.P,R7,2*%
%TO.N,Net-(J3-Pin_7)*%
X37490000Y-66040000D03*
%TD*%
D10*
%TO.P,R64,1*%
%TO.N,Net-(U8-QH)*%
X187960000Y-60960000D03*
D11*
%TO.P,R64,2*%
%TO.N,Net-(J10-Pin_1)*%
X187960000Y-66040000D03*
%TD*%
D10*
%TO.P,R41,1*%
%TO.N,Net-(U6-QA)*%
X124460000Y-60960000D03*
D11*
%TO.P,R41,2*%
%TO.N,Net-(J8-Pin_8)*%
X124460000Y-66040000D03*
%TD*%
D12*
%TO.P,J3,1,Pin_1*%
%TO.N,Net-(J3-Pin_1)*%
X60500000Y-78200000D03*
D13*
%TO.P,J3,2,Pin_2*%
%TO.N,Net-(J3-Pin_2)*%
X61500000Y-78200000D03*
%TO.P,J3,3,Pin_3*%
%TO.N,Net-(J3-Pin_3)*%
X62500000Y-78200000D03*
%TO.P,J3,4,Pin_4*%
%TO.N,Net-(J3-Pin_4)*%
X63500000Y-78200000D03*
%TO.P,J3,5,Pin_5*%
%TO.N,Net-(J3-Pin_5)*%
X64500000Y-78200000D03*
%TO.P,J3,6,Pin_6*%
%TO.N,Net-(J3-Pin_6)*%
X65500000Y-78200000D03*
%TO.P,J3,7,Pin_7*%
%TO.N,Net-(J3-Pin_7)*%
X66500000Y-78200000D03*
%TO.P,J3,8,Pin_8*%
%TO.N,Net-(J3-Pin_8)*%
X67500000Y-78200000D03*
%TD*%
D10*
%TO.P,R50,1*%
%TO.N,Net-(U7-QB)*%
X147320000Y-60960000D03*
D11*
%TO.P,R50,2*%
%TO.N,Net-(J9-Pin_7)*%
X147320000Y-66040000D03*
%TD*%
D10*
%TO.P,R53,1*%
%TO.N,Net-(U7-QE)*%
X154940000Y-60960000D03*
D11*
%TO.P,R53,2*%
%TO.N,Net-(J9-Pin_4)*%
X154940000Y-66040000D03*
%TD*%
D14*
%TO.P,U4,1,QB*%
%TO.N,Net-(U4-QB)*%
X88900000Y-27940000D03*
D15*
%TO.P,U4,2,QC*%
%TO.N,Net-(U4-QC)*%
X88900000Y-30480000D03*
%TO.P,U4,3,QD*%
%TO.N,Net-(U4-QD)*%
X88900000Y-33020000D03*
%TO.P,U4,4,QE*%
%TO.N,Net-(U4-QE)*%
X88900000Y-35560000D03*
%TO.P,U4,5,QF*%
%TO.N,Net-(U4-QF)*%
X88900000Y-38100000D03*
%TO.P,U4,6,QG*%
%TO.N,Net-(U4-QG)*%
X88900000Y-40640000D03*
%TO.P,U4,7,QH*%
%TO.N,Net-(U4-QH)*%
X88900000Y-43180000D03*
%TO.P,U4,8,GND*%
%TO.N,Net-(J1-Pin_5)*%
X88900000Y-45720000D03*
%TO.P,U4,9,QH'*%
%TO.N,Net-(U4-QH')*%
X96520000Y-45720000D03*
%TO.P,U4,10,~{SRCLR}*%
%TO.N,Net-(J1-Pin_4)*%
X96520000Y-43180000D03*
%TO.P,U4,11,SRCLK*%
%TO.N,Net-(J1-Pin_2)*%
X96520000Y-40640000D03*
%TO.P,U4,12,RCLK*%
%TO.N,Net-(J1-Pin_3)*%
X96520000Y-38100000D03*
%TO.P,U4,13,~{OE}*%
%TO.N,Net-(J1-Pin_5)*%
X96520000Y-35560000D03*
%TO.P,U4,14,SER*%
%TO.N,Net-(U2-QH')*%
X96520000Y-33020000D03*
%TO.P,U4,15,QA*%
%TO.N,Net-(U4-QA)*%
X96520000Y-30480000D03*
%TO.P,U4,16,VCC*%
%TO.N,Net-(J1-Pin_6)*%
X96520000Y-27940000D03*
%TD*%
D10*
%TO.P,R54,1*%
%TO.N,Net-(U7-QF)*%
X157480000Y-60960000D03*
D11*
%TO.P,R54,2*%
%TO.N,Net-(J9-Pin_3)*%
X157480000Y-66040000D03*
%TD*%
D10*
%TO.P,R3,1*%
%TO.N,Net-(U3-QC)*%
X25500000Y-60960000D03*
D11*
%TO.P,R3,2*%
%TO.N,Net-(J3-Pin_3)*%
X25500000Y-66040000D03*
%TD*%
D10*
%TO.P,R29,1*%
%TO.N,Net-(U4-QE)*%
X93980000Y-60960000D03*
D11*
%TO.P,R29,2*%
%TO.N,Net-(J6-Pin_4)*%
X93980000Y-66040000D03*
%TD*%
D10*
%TO.P,R43,1*%
%TO.N,Net-(U6-QC)*%
X129540000Y-60960000D03*
D11*
%TO.P,R43,2*%
%TO.N,Net-(J8-Pin_6)*%
X129540000Y-66040000D03*
%TD*%
D10*
%TO.P,R62,1*%
%TO.N,Net-(U8-QF)*%
X181660000Y-60960000D03*
D11*
%TO.P,R62,2*%
%TO.N,Net-(J10-Pin_3)*%
X181660000Y-66040000D03*
%TD*%
D10*
%TO.P,R27,1*%
%TO.N,Net-(U4-QC)*%
X88900000Y-60960000D03*
D11*
%TO.P,R27,2*%
%TO.N,Net-(J6-Pin_6)*%
X88900000Y-66040000D03*
%TD*%
D10*
%TO.P,R12,1*%
%TO.N,Net-(U1-QD)*%
X50800000Y-60960000D03*
D11*
%TO.P,R12,2*%
%TO.N,Net-(J4-Pin_5)*%
X50800000Y-66040000D03*
%TD*%
D10*
%TO.P,R4,1*%
%TO.N,Net-(U3-QD)*%
X28040000Y-60960000D03*
D11*
%TO.P,R4,2*%
%TO.N,Net-(J3-Pin_4)*%
X28040000Y-66040000D03*
%TD*%
D10*
%TO.P,R16,1*%
%TO.N,Net-(U1-QH)*%
X60960000Y-60960000D03*
D11*
%TO.P,R16,2*%
%TO.N,Net-(J4-Pin_1)*%
X60960000Y-66040000D03*
%TD*%
D10*
%TO.P,R48,1*%
%TO.N,Net-(U6-QH)*%
X142240000Y-60960000D03*
D11*
%TO.P,R48,2*%
%TO.N,Net-(J8-Pin_1)*%
X142240000Y-66040000D03*
%TD*%
D10*
%TO.P,R2,1*%
%TO.N,Net-(U3-QB)*%
X22960000Y-60960000D03*
D11*
%TO.P,R2,2*%
%TO.N,Net-(J3-Pin_2)*%
X22960000Y-66040000D03*
%TD*%
D14*
%TO.P,U1,1,QB*%
%TO.N,Net-(U1-QB)*%
X43180000Y-29225000D03*
D15*
%TO.P,U1,2,QC*%
%TO.N,Net-(U1-QC)*%
X43180000Y-31765000D03*
%TO.P,U1,3,QD*%
%TO.N,Net-(U1-QD)*%
X43180000Y-34305000D03*
%TO.P,U1,4,QE*%
%TO.N,Net-(U1-QE)*%
X43180000Y-36845000D03*
%TO.P,U1,5,QF*%
%TO.N,Net-(U1-QF)*%
X43180000Y-39385000D03*
%TO.P,U1,6,QG*%
%TO.N,Net-(U1-QG)*%
X43180000Y-41925000D03*
%TO.P,U1,7,QH*%
%TO.N,Net-(U1-QH)*%
X43180000Y-44465000D03*
%TO.P,U1,8,GND*%
%TO.N,Net-(J1-Pin_5)*%
X43180000Y-47005000D03*
%TO.P,U1,9,QH'*%
%TO.N,Net-(U1-QH')*%
X50800000Y-47005000D03*
%TO.P,U1,10,~{SRCLR}*%
%TO.N,Net-(J1-Pin_4)*%
X50800000Y-44465000D03*
%TO.P,U1,11,SRCLK*%
%TO.N,Net-(J1-Pin_2)*%
X50800000Y-41925000D03*
%TO.P,U1,12,RCLK*%
%TO.N,Net-(J1-Pin_3)*%
X50800000Y-39385000D03*
%TO.P,U1,13,~{OE}*%
%TO.N,Net-(J1-Pin_5)*%
X50800000Y-36845000D03*
%TO.P,U1,14,SER*%
%TO.N,Net-(U1-SER)*%
X50800000Y-34305000D03*
%TO.P,U1,15,QA*%
%TO.N,Net-(U1-QA)*%
X50800000Y-31765000D03*
%TO.P,U1,16,VCC*%
%TO.N,Net-(J1-Pin_6)*%
X50800000Y-29225000D03*
%TD*%
D12*
%TO.P,J10,1,Pin_1*%
%TO.N,Net-(J10-Pin_1)*%
X162560000Y-78200000D03*
D13*
%TO.P,J10,2,Pin_2*%
%TO.N,Net-(J10-Pin_2)*%
X161560000Y-78200000D03*
%TO.P,J10,3,Pin_3*%
%TO.N,Net-(J10-Pin_3)*%
X160560000Y-78200000D03*
%TO.P,J10,4,Pin_4*%
%TO.N,Net-(J10-Pin_4)*%
X159560000Y-78200000D03*
%TO.P,J10,5,Pin_5*%
%TO.N,Net-(J10-Pin_5)*%
X158560000Y-78200000D03*
%TO.P,J10,6,Pin_6*%
%TO.N,Net-(J10-Pin_6)*%
X157560000Y-78200000D03*
%TO.P,J10,7,Pin_7*%
%TO.N,Net-(J10-Pin_7)*%
X156560000Y-78200000D03*
%TO.P,J10,8,Pin_8*%
%TO.N,Net-(J10-Pin_8)*%
X155560000Y-78200000D03*
%TD*%
D10*
%TO.P,R23,1*%
%TO.N,Net-(U2-QG)*%
X78740000Y-60960000D03*
D11*
%TO.P,R23,2*%
%TO.N,Net-(J5-Pin_2)*%
X78740000Y-66040000D03*
%TD*%
D10*
%TO.P,R10,1*%
%TO.N,Net-(U1-QB)*%
X45720000Y-60960000D03*
D11*
%TO.P,R10,2*%
%TO.N,Net-(J4-Pin_7)*%
X45720000Y-66040000D03*
%TD*%
D10*
%TO.P,R61,1*%
%TO.N,Net-(U8-QE)*%
X178510000Y-60960000D03*
D11*
%TO.P,R61,2*%
%TO.N,Net-(J10-Pin_4)*%
X178510000Y-66040000D03*
%TD*%
D10*
%TO.P,R55,1*%
%TO.N,Net-(U7-QG)*%
X160020000Y-60960000D03*
D11*
%TO.P,R55,2*%
%TO.N,Net-(J9-Pin_2)*%
X160020000Y-66040000D03*
%TD*%
D10*
%TO.P,R42,1*%
%TO.N,Net-(U6-QB)*%
X127000000Y-60960000D03*
D11*
%TO.P,R42,2*%
%TO.N,Net-(J8-Pin_7)*%
X127000000Y-66040000D03*
%TD*%
D10*
%TO.P,R38,1*%
%TO.N,Net-(U5-QF)*%
X116840000Y-60960000D03*
D11*
%TO.P,R38,2*%
%TO.N,Net-(J7-Pin_3)*%
X116840000Y-66040000D03*
%TD*%
D10*
%TO.P,R5,1*%
%TO.N,Net-(U3-QE)*%
X31190000Y-60960000D03*
D11*
%TO.P,R5,2*%
%TO.N,Net-(J3-Pin_5)*%
X31190000Y-66040000D03*
%TD*%
D10*
%TO.P,R58,1*%
%TO.N,Net-(U8-QB)*%
X169060000Y-60960000D03*
D11*
%TO.P,R58,2*%
%TO.N,Net-(J10-Pin_7)*%
X169060000Y-66040000D03*
%TD*%
D10*
%TO.P,R6,1*%
%TO.N,Net-(U3-QF)*%
X34340000Y-60960000D03*
D11*
%TO.P,R6,2*%
%TO.N,Net-(J3-Pin_6)*%
X34340000Y-66040000D03*
%TD*%
D10*
%TO.P,R63,1*%
%TO.N,Net-(U8-QG)*%
X184810000Y-60960000D03*
D11*
%TO.P,R63,2*%
%TO.N,Net-(J10-Pin_2)*%
X184810000Y-66040000D03*
%TD*%
D12*
%TO.P,J8,1,Pin_1*%
%TO.N,Net-(J8-Pin_1)*%
X132000000Y-78200000D03*
D13*
%TO.P,J8,2,Pin_2*%
%TO.N,Net-(J8-Pin_2)*%
X131000000Y-78200000D03*
%TO.P,J8,3,Pin_3*%
%TO.N,Net-(J8-Pin_3)*%
X130000000Y-78200000D03*
%TO.P,J8,4,Pin_4*%
%TO.N,Net-(J8-Pin_4)*%
X129000000Y-78200000D03*
%TO.P,J8,5,Pin_5*%
%TO.N,Net-(J8-Pin_5)*%
X128000000Y-78200000D03*
%TO.P,J8,6,Pin_6*%
%TO.N,Net-(J8-Pin_6)*%
X127000000Y-78200000D03*
%TO.P,J8,7,Pin_7*%
%TO.N,Net-(J8-Pin_7)*%
X126000000Y-78200000D03*
%TO.P,J8,8,Pin_8*%
%TO.N,Net-(J8-Pin_8)*%
X125000000Y-78200000D03*
%TD*%
D10*
%TO.P,R19,1*%
%TO.N,Net-(U2-QC)*%
X68580000Y-60960000D03*
D11*
%TO.P,R19,2*%
%TO.N,Net-(J5-Pin_6)*%
X68580000Y-66040000D03*
%TD*%
D14*
%TO.P,U2,1,QB*%
%TO.N,Net-(U2-QB)*%
X66040000Y-27940000D03*
D15*
%TO.P,U2,2,QC*%
%TO.N,Net-(U2-QC)*%
X66040000Y-30480000D03*
%TO.P,U2,3,QD*%
%TO.N,Net-(U2-QD)*%
X66040000Y-33020000D03*
%TO.P,U2,4,QE*%
%TO.N,Net-(U2-QE)*%
X66040000Y-35560000D03*
%TO.P,U2,5,QF*%
%TO.N,Net-(U2-QF)*%
X66040000Y-38100000D03*
%TO.P,U2,6,QG*%
%TO.N,Net-(U2-QG)*%
X66040000Y-40640000D03*
%TO.P,U2,7,QH*%
%TO.N,Net-(U2-QH)*%
X66040000Y-43180000D03*
%TO.P,U2,8,GND*%
%TO.N,Net-(J1-Pin_5)*%
X66040000Y-45720000D03*
%TO.P,U2,9,QH'*%
%TO.N,Net-(U2-QH')*%
X73660000Y-45720000D03*
%TO.P,U2,10,~{SRCLR}*%
%TO.N,Net-(J1-Pin_4)*%
X73660000Y-43180000D03*
%TO.P,U2,11,SRCLK*%
%TO.N,Net-(J1-Pin_2)*%
X73660000Y-40640000D03*
%TO.P,U2,12,RCLK*%
%TO.N,Net-(J1-Pin_3)*%
X73660000Y-38100000D03*
%TO.P,U2,13,~{OE}*%
%TO.N,Net-(J1-Pin_5)*%
X73660000Y-35560000D03*
%TO.P,U2,14,SER*%
%TO.N,Net-(U1-QH')*%
X73660000Y-33020000D03*
%TO.P,U2,15,QA*%
%TO.N,Net-(U2-QA)*%
X73660000Y-30480000D03*
%TO.P,U2,16,VCC*%
%TO.N,Net-(J1-Pin_6)*%
X73660000Y-27940000D03*
%TD*%
D10*
%TO.P,R37,1*%
%TO.N,Net-(U5-QE)*%
X114300000Y-60960000D03*
D11*
%TO.P,R37,2*%
%TO.N,Net-(J7-Pin_4)*%
X114300000Y-66040000D03*
%TD*%
D12*
%TO.P,J4,1,Pin_1*%
%TO.N,Net-(J4-Pin_1)*%
X81200000Y-78200000D03*
D13*
%TO.P,J4,2,Pin_2*%
%TO.N,Net-(J4-Pin_2)*%
X80200000Y-78200000D03*
%TO.P,J4,3,Pin_3*%
%TO.N,Net-(J4-Pin_3)*%
X79200000Y-78200000D03*
%TO.P,J4,4,Pin_4*%
%TO.N,Net-(J4-Pin_4)*%
X78200000Y-78200000D03*
%TO.P,J4,5,Pin_5*%
%TO.N,Net-(J4-Pin_5)*%
X77200000Y-78200000D03*
%TO.P,J4,6,Pin_6*%
%TO.N,Net-(J4-Pin_6)*%
X76200000Y-78200000D03*
%TO.P,J4,7,Pin_7*%
%TO.N,Net-(J4-Pin_7)*%
X75200000Y-78200000D03*
%TO.P,J4,8,Pin_8*%
%TO.N,Net-(J4-Pin_8)*%
X74200000Y-78200000D03*
%TD*%
D16*
%TO.N,Net-(J1-Pin_5)*%
X119380000Y-55880000D03*
X185420000Y-55880000D03*
X162560000Y-55880000D03*
X139700000Y-55880000D03*
X99060000Y-55880000D03*
X78740000Y-55880000D03*
X101600000Y-55880000D03*
X121920000Y-55880000D03*
X55880000Y-55880000D03*
X35560000Y-55880000D03*
X81280000Y-55880000D03*
X142240000Y-55880000D03*
X58420000Y-55880000D03*
X160020000Y-55880000D03*
%TO.N,Net-(U1-QH')*%
X58420000Y-53340000D03*
X78740000Y-53340000D03*
%TO.N,Net-(J1-Pin_4)*%
X160020000Y-50800000D03*
X119380000Y-50800000D03*
X78740000Y-50800000D03*
X55880000Y-50800000D03*
X162560000Y-50800000D03*
X58420000Y-50800000D03*
X101600000Y-50800000D03*
X142240000Y-50800000D03*
X121920000Y-50800000D03*
X139700000Y-50800000D03*
X35560000Y-50800000D03*
X185420000Y-50800000D03*
X99060000Y-50800000D03*
X81280000Y-50800000D03*
%TO.N,Net-(J1-Pin_2)*%
X185420000Y-48260000D03*
X101600000Y-48260000D03*
X162560000Y-48260000D03*
X58420000Y-48260000D03*
X35560000Y-48260000D03*
X119380000Y-48260000D03*
X78740000Y-48260000D03*
X142240000Y-48260000D03*
X160020000Y-48260000D03*
X55880000Y-48260000D03*
X121920000Y-48260000D03*
X81280000Y-48260000D03*
X99060000Y-48260000D03*
X139700000Y-48260000D03*
%TO.N,Net-(J1-Pin_3)*%
X185420000Y-45720000D03*
X162560000Y-45720000D03*
X35560000Y-45720000D03*
X78740000Y-45720000D03*
X142240000Y-45720000D03*
X139700000Y-45720000D03*
X160020000Y-45720000D03*
X119380000Y-45720000D03*
X58420000Y-45720000D03*
X99060000Y-45720000D03*
X121920000Y-45720000D03*
X55880000Y-45720000D03*
X81280000Y-45720000D03*
X101600000Y-45720000D03*
%TO.N,Net-(U1-SER)*%
X35560000Y-53340000D03*
X55880000Y-53340000D03*
%TO.N,Net-(J1-Pin_6)*%
X40640000Y-22860000D03*
X96520000Y-22860000D03*
X114300000Y-22860000D03*
X104140000Y-22860000D03*
X43180000Y-22860000D03*
X117024500Y-22860000D03*
%TO.N,Net-(U2-QH')*%
X81280000Y-53340000D03*
X99060000Y-53340000D03*
%TO.N,Net-(U4-QH')*%
X119380000Y-53340000D03*
X101600000Y-53340000D03*
%TO.N,Net-(U5-QH')*%
X121920000Y-53340000D03*
X139700000Y-53340000D03*
%TO.N,Net-(U6-QH')*%
X160020000Y-53340000D03*
X142240000Y-53340000D03*
%TO.N,Net-(U7-QH')*%
X162560000Y-53340000D03*
X185420000Y-53340000D03*
%TD*%
D17*
%TO.N,Net-(U3-QA)*%
X19440000Y-48775762D02*
X19440000Y-33263604D01*
X28070000Y-28100000D02*
X31735000Y-31765000D01*
X20420000Y-60960000D02*
X22510000Y-58870000D01*
X22510000Y-51845762D02*
X19440000Y-48775762D01*
X22590000Y-30113604D02*
X22590000Y-28100000D01*
X22510000Y-58870000D02*
X22510000Y-51845762D01*
X22590000Y-28100000D02*
X28070000Y-28100000D01*
X19440000Y-33263604D02*
X22590000Y-30113604D01*
%TO.N,Net-(J3-Pin_1)*%
X34790000Y-72259188D02*
X34790000Y-75516396D01*
X60008020Y-77708020D02*
X60500000Y-78200000D01*
X30945812Y-68415000D02*
X34790000Y-72259188D01*
X21935000Y-66464569D02*
X23885431Y-68415000D01*
X20420000Y-66040000D02*
X21935000Y-66040000D01*
X21935000Y-66040000D02*
X21935000Y-66464569D01*
X34790000Y-75516396D02*
X36981624Y-77708020D01*
X36981624Y-77708020D02*
X60008020Y-77708020D01*
X23885431Y-68415000D02*
X30945812Y-68415000D01*
%TO.N,Net-(U7-QG)*%
X146870000Y-48446396D02*
X147924416Y-49500812D01*
X149860000Y-40640000D02*
X146870000Y-43630000D01*
X156130000Y-57070000D02*
X160020000Y-60960000D01*
X146870000Y-43630000D02*
X146870000Y-48446396D01*
X147924416Y-49500812D02*
X147924416Y-56478832D01*
X147924416Y-56478832D02*
X148515584Y-57070000D01*
X148515584Y-57070000D02*
X156130000Y-57070000D01*
%TO.N,Net-(J9-Pin_2)*%
X160020000Y-68130000D02*
X158654785Y-68130000D01*
X146388960Y-78051040D02*
X146240000Y-78200000D01*
X160020000Y-66040000D02*
X160020000Y-68130000D01*
X144040000Y-72920000D02*
X144040000Y-75460000D01*
X146388960Y-77808960D02*
X146388960Y-78051040D01*
X144040000Y-75460000D02*
X146388960Y-77808960D01*
X153864785Y-72920000D02*
X144040000Y-72920000D01*
X158654785Y-68130000D02*
X153864785Y-72920000D01*
%TO.N,Net-(U7-QH)*%
X148701980Y-56620000D02*
X158220000Y-56620000D01*
X147320000Y-48260000D02*
X148374416Y-49314416D01*
X148374416Y-56292436D02*
X148701980Y-56620000D01*
X147320000Y-45720000D02*
X147320000Y-48260000D01*
X148374416Y-49314416D02*
X148374416Y-56292436D01*
X149860000Y-43180000D02*
X147320000Y-45720000D01*
X158220000Y-56620000D02*
X162560000Y-60960000D01*
%TO.N,Net-(J9-Pin_1)*%
X162560000Y-66040000D02*
X162560000Y-68580000D01*
X147240000Y-78023604D02*
X147240000Y-78200000D01*
X154139569Y-73370000D02*
X144490000Y-73370000D01*
X144490000Y-75273604D02*
X147240000Y-78023604D01*
X144490000Y-73370000D02*
X144490000Y-75273604D01*
X158929569Y-68580000D02*
X154139569Y-73370000D01*
X162560000Y-68580000D02*
X158929569Y-68580000D01*
%TO.N,Net-(U8-QA)*%
X165100000Y-60150000D02*
X165100000Y-58420000D01*
X167030000Y-56490000D02*
X167030000Y-30980000D01*
X171195000Y-26815000D02*
X176675000Y-26815000D01*
X165910000Y-60960000D02*
X165100000Y-60150000D01*
X165100000Y-58420000D02*
X167030000Y-56490000D01*
X167030000Y-30980000D02*
X171195000Y-26815000D01*
X176675000Y-26815000D02*
X180340000Y-30480000D01*
%TO.N,Net-(J10-Pin_8)*%
X155560000Y-78139339D02*
X155560000Y-78200000D01*
X160649339Y-73050000D02*
X155560000Y-78139339D01*
X165710000Y-73050000D02*
X160649339Y-73050000D01*
X165910000Y-72850000D02*
X165710000Y-73050000D01*
X165910000Y-66040000D02*
X165910000Y-72850000D01*
%TO.N,Net-(U8-QB)*%
X172720000Y-27940000D02*
X167480000Y-33180000D01*
X167480000Y-33180000D02*
X167480000Y-59380000D01*
X167480000Y-59380000D02*
X169060000Y-60960000D01*
%TO.N,Net-(J10-Pin_7)*%
X161199339Y-73500000D02*
X156560000Y-78139339D01*
X169060000Y-66040000D02*
X169060000Y-70961624D01*
X156560000Y-78139339D02*
X156560000Y-78200000D01*
X169060000Y-70961624D02*
X166521624Y-73500000D01*
X166521624Y-73500000D02*
X161199339Y-73500000D01*
%TO.N,Net-(U8-QC)*%
X167930000Y-56680000D02*
X172210000Y-60960000D01*
X167930000Y-35270000D02*
X167930000Y-56680000D01*
X172720000Y-30480000D02*
X167930000Y-35270000D01*
%TO.N,Net-(J10-Pin_6)*%
X157560000Y-78139339D02*
X157560000Y-78200000D01*
X172210000Y-66040000D02*
X172210000Y-68870000D01*
X166708020Y-73950000D02*
X161749339Y-73950000D01*
X161749339Y-73950000D02*
X157560000Y-78139339D01*
X171788020Y-68870000D02*
X166708020Y-73950000D01*
X172210000Y-68870000D02*
X171788020Y-68870000D01*
%TO.N,Net-(U8-QD)*%
X168380000Y-56493604D02*
X170306396Y-58420000D01*
X172720000Y-33020000D02*
X168380000Y-37360000D01*
X168380000Y-37360000D02*
X168380000Y-56493604D01*
X172820000Y-58420000D02*
X175360000Y-60960000D01*
X170306396Y-58420000D02*
X172820000Y-58420000D01*
%TO.N,Net-(J10-Pin_5)*%
X161935735Y-74400000D02*
X158560000Y-77775735D01*
X175360000Y-66040000D02*
X174335000Y-67065000D01*
X174335000Y-67065000D02*
X174335000Y-69320000D01*
X166894416Y-74400000D02*
X161935735Y-74400000D01*
X174335000Y-69320000D02*
X171974416Y-69320000D01*
X171974416Y-69320000D02*
X166894416Y-74400000D01*
X158560000Y-77775735D02*
X158560000Y-78200000D01*
%TO.N,Net-(U8-QE)*%
X168830000Y-39450000D02*
X168830000Y-56307208D01*
X175520000Y-57970000D02*
X178510000Y-60960000D01*
X170492792Y-57970000D02*
X175520000Y-57970000D01*
X168830000Y-56307208D02*
X170492792Y-57970000D01*
X172720000Y-35560000D02*
X168830000Y-39450000D01*
%TO.N,Net-(J10-Pin_4)*%
X172160812Y-69770000D02*
X167080812Y-74850000D01*
X174780000Y-69770000D02*
X172160812Y-69770000D01*
X159560000Y-78053604D02*
X159560000Y-78200000D01*
X167080812Y-74850000D02*
X162763604Y-74850000D01*
X162763604Y-74850000D02*
X159560000Y-78053604D01*
X178510000Y-66040000D02*
X174780000Y-69770000D01*
%TO.N,Net-(U8-QF)*%
X172720000Y-38100000D02*
X169280000Y-41540000D01*
X170679188Y-57520000D02*
X176900000Y-57520000D01*
X180340000Y-60960000D02*
X181660000Y-60960000D01*
X169280000Y-56120812D02*
X170679188Y-57520000D01*
X169280000Y-41540000D02*
X169280000Y-56120812D01*
X176900000Y-57520000D02*
X180340000Y-60960000D01*
%TO.N,Net-(J10-Pin_3)*%
X167267208Y-75300000D02*
X162950000Y-75300000D01*
X172347208Y-70220000D02*
X167267208Y-75300000D01*
X162950000Y-75300000D02*
X160560000Y-77690000D01*
X160560000Y-77690000D02*
X160560000Y-78200000D01*
X177480000Y-70220000D02*
X172347208Y-70220000D01*
X181660000Y-66040000D02*
X177480000Y-70220000D01*
%TO.N,Net-(U8-QG)*%
X169730000Y-55934416D02*
X170865584Y-57070000D01*
X172720000Y-40640000D02*
X171270000Y-40640000D01*
X180920000Y-57070000D02*
X184810000Y-60960000D01*
X171270000Y-40640000D02*
X169730000Y-42180000D01*
X169730000Y-42180000D02*
X169730000Y-55934416D01*
X170865584Y-57070000D02*
X180920000Y-57070000D01*
%TO.N,Net-(J10-Pin_2)*%
X180180000Y-70670000D02*
X172533604Y-70670000D01*
X184810000Y-66040000D02*
X180180000Y-70670000D01*
X167453604Y-75750000D02*
X163136396Y-75750000D01*
X172533604Y-70670000D02*
X167453604Y-75750000D01*
X161560000Y-77326396D02*
X161560000Y-78200000D01*
X163136396Y-75750000D02*
X161560000Y-77326396D01*
%TO.N,Net-(U1-QC)*%
X44080000Y-58683604D02*
X44716396Y-59320000D01*
X39405000Y-48402970D02*
X41512030Y-50510000D01*
X43180000Y-31765000D02*
X42780000Y-31765000D01*
X42780000Y-31765000D02*
X39405000Y-35140000D01*
X44716396Y-59320000D02*
X48260000Y-59320000D01*
X43552792Y-50510000D02*
X44080000Y-51037208D01*
X44080000Y-51037208D02*
X44080000Y-58683604D01*
X41512030Y-50510000D02*
X43552792Y-50510000D01*
X39405000Y-35140000D02*
X39405000Y-48402970D01*
X48260000Y-59320000D02*
X48260000Y-60960000D01*
%TO.N,Net-(J4-Pin_6)*%
X52440000Y-68316396D02*
X52440000Y-71492792D01*
X73340000Y-72920000D02*
X73340000Y-74612792D01*
X73340000Y-74612792D02*
X76200000Y-77472792D01*
X76200000Y-77472792D02*
X76200000Y-78200000D01*
X48260000Y-67065000D02*
X51188604Y-67065000D01*
X52440000Y-71492792D02*
X53867208Y-72920000D01*
X76260661Y-78200000D02*
X76200000Y-78200000D01*
X48260000Y-66040000D02*
X48260000Y-67065000D01*
X53867208Y-72920000D02*
X73340000Y-72920000D01*
X51188604Y-67065000D02*
X52440000Y-68316396D01*
%TO.N,Net-(U3-QB)*%
X19890000Y-33450000D02*
X19890000Y-48589366D01*
X22960000Y-51659366D02*
X22960000Y-60960000D01*
X19890000Y-48589366D02*
X22960000Y-51659366D01*
X24115000Y-29225000D02*
X19890000Y-33450000D01*
%TO.N,Net-(J3-Pin_2)*%
X61058020Y-77258020D02*
X61500000Y-77700000D01*
X35240000Y-72072792D02*
X35240000Y-75330000D01*
X22960000Y-66040000D02*
X24885000Y-67965000D01*
X24885000Y-67965000D02*
X31132208Y-67965000D01*
X35240000Y-75330000D02*
X37168020Y-77258020D01*
X61500000Y-77700000D02*
X61500000Y-78200000D01*
X37168020Y-77258020D02*
X61058020Y-77258020D01*
X31132208Y-67965000D02*
X35240000Y-72072792D01*
%TO.N,Net-(U3-QC)*%
X23410000Y-51350000D02*
X23410000Y-58870000D01*
X24115000Y-31765000D02*
X20340000Y-35540000D01*
X20340000Y-35540000D02*
X20340000Y-48402970D01*
X22737030Y-50800000D02*
X22860000Y-50800000D01*
X22860000Y-50800000D02*
X23410000Y-51350000D01*
X23410000Y-58870000D02*
X25500000Y-60960000D01*
X20340000Y-48402970D02*
X22737030Y-50800000D01*
%TO.N,Net-(J3-Pin_3)*%
X37354416Y-76808020D02*
X61244416Y-76808020D01*
X35690000Y-75143604D02*
X37354416Y-76808020D01*
X35690000Y-71886396D02*
X35690000Y-75143604D01*
X61244416Y-76808020D02*
X62500000Y-78063604D01*
X31318604Y-67515000D02*
X35690000Y-71886396D01*
X25500000Y-66040000D02*
X26975000Y-67515000D01*
X62500000Y-78063604D02*
X62500000Y-78200000D01*
X26975000Y-67515000D02*
X31318604Y-67515000D01*
%TO.N,Net-(U3-QD)*%
X20790000Y-48216574D02*
X22633426Y-50060000D01*
X22756396Y-50060000D02*
X23860000Y-51163604D01*
X24115000Y-34305000D02*
X20790000Y-37630000D01*
X23860000Y-51163604D02*
X23860000Y-56780000D01*
X23860000Y-56780000D02*
X28040000Y-60960000D01*
X22633426Y-50060000D02*
X22756396Y-50060000D01*
X20790000Y-37630000D02*
X20790000Y-48216574D01*
%TO.N,Net-(J3-Pin_4)*%
X62622664Y-76358020D02*
X63500000Y-77235356D01*
X36140000Y-71700000D02*
X36140000Y-74957208D01*
X63500000Y-77235356D02*
X63500000Y-78200000D01*
X37540812Y-76358020D02*
X62622664Y-76358020D01*
X31505000Y-67065000D02*
X36140000Y-71700000D01*
X36140000Y-74957208D02*
X37540812Y-76358020D01*
X29065000Y-67065000D02*
X31505000Y-67065000D01*
X28040000Y-66040000D02*
X29065000Y-67065000D01*
%TO.N,Net-(U3-QE)*%
X21240000Y-48030178D02*
X22819822Y-49610000D01*
X27651396Y-59935000D02*
X30165000Y-59935000D01*
X24115000Y-36845000D02*
X21240000Y-39720000D01*
X24310000Y-50977208D02*
X24310000Y-56593604D01*
X22942792Y-49610000D02*
X24310000Y-50977208D01*
X30165000Y-59935000D02*
X31190000Y-60960000D01*
X21240000Y-39720000D02*
X21240000Y-48030178D01*
X22819822Y-49610000D02*
X22942792Y-49610000D01*
X24310000Y-56593604D02*
X27651396Y-59935000D01*
%TO.N,Net-(J3-Pin_5)*%
X64500000Y-77598960D02*
X64500000Y-78200000D01*
X62809060Y-75908020D02*
X64500000Y-77598960D01*
X31190000Y-66040000D02*
X31292500Y-66040000D01*
X36590000Y-74770812D02*
X37727208Y-75908020D01*
X36590000Y-71337500D02*
X36590000Y-74770812D01*
X31292500Y-66040000D02*
X36590000Y-71337500D01*
X37727208Y-75908020D02*
X62809060Y-75908020D01*
%TO.N,Net-(U3-QF)*%
X21690000Y-47843782D02*
X23006218Y-49160000D01*
X32865000Y-59485000D02*
X34340000Y-60960000D01*
X23129188Y-49160000D02*
X24760000Y-50790812D01*
X24760000Y-50790812D02*
X24760000Y-56407208D01*
X23006218Y-49160000D02*
X23129188Y-49160000D01*
X21690000Y-41810000D02*
X21690000Y-47843782D01*
X24760000Y-56407208D02*
X27837792Y-59485000D01*
X24115000Y-39385000D02*
X21690000Y-41810000D01*
X27837792Y-59485000D02*
X32865000Y-59485000D01*
%TO.N,Net-(J3-Pin_6)*%
X65500000Y-77962564D02*
X65500000Y-78200000D01*
X34340000Y-66040000D02*
X34340000Y-68451104D01*
X62995456Y-75458020D02*
X65500000Y-77962564D01*
X37913604Y-75458020D02*
X62995456Y-75458020D01*
X37040000Y-71151104D02*
X37040000Y-74584416D01*
X37040000Y-74584416D02*
X37913604Y-75458020D01*
X34340000Y-68451104D02*
X37040000Y-71151104D01*
%TO.N,Net-(U3-QG)*%
X22140000Y-47657386D02*
X23192614Y-48710000D01*
X24115000Y-41925000D02*
X22140000Y-43900000D01*
X22140000Y-43900000D02*
X22140000Y-47657386D01*
X35565000Y-59035000D02*
X37490000Y-60960000D01*
X23192614Y-48710000D02*
X23315584Y-48710000D01*
X25210000Y-56220812D02*
X28024188Y-59035000D01*
X25210000Y-50604416D02*
X25210000Y-56220812D01*
X23315584Y-48710000D02*
X25210000Y-50604416D01*
X28024188Y-59035000D02*
X35565000Y-59035000D01*
%TO.N,Net-(J3-Pin_7)*%
X63368681Y-75008020D02*
X66500000Y-78139339D01*
X66500000Y-78098020D02*
X66500000Y-78200000D01*
X37490000Y-74398020D02*
X38100000Y-75008020D01*
X37490000Y-66040000D02*
X37490000Y-74398020D01*
X66500000Y-78139339D02*
X66500000Y-78200000D01*
X38100000Y-75008020D02*
X63368681Y-75008020D01*
%TO.N,Net-(U3-QH)*%
X25660000Y-56034416D02*
X28210584Y-58585000D01*
X38265000Y-58585000D02*
X40640000Y-60960000D01*
X22590000Y-45990000D02*
X22590000Y-47470990D01*
X24115000Y-44465000D02*
X22590000Y-45990000D01*
X25660000Y-50418020D02*
X25660000Y-56034416D01*
X28210584Y-58585000D02*
X38265000Y-58585000D01*
X22590000Y-47470990D02*
X23379010Y-48260000D01*
X23501980Y-48260000D02*
X25660000Y-50418020D01*
X23379010Y-48260000D02*
X23501980Y-48260000D01*
%TO.N,Net-(J3-Pin_8)*%
X40640000Y-66040000D02*
X37940000Y-68740000D01*
X63555077Y-74558020D02*
X65197057Y-76200000D01*
X65197057Y-76200000D02*
X66101040Y-76200000D01*
X66101040Y-76200000D02*
X67500000Y-77598960D01*
X67500000Y-77598960D02*
X67500000Y-78200000D01*
X37940000Y-74211624D02*
X38286396Y-74558020D01*
X38286396Y-74558020D02*
X63555077Y-74558020D01*
X37940000Y-68740000D02*
X37940000Y-74211624D01*
%TO.N,Net-(U1-QA)*%
X47135000Y-28100000D02*
X40480000Y-28100000D01*
X41139238Y-51410000D02*
X43180000Y-51410000D01*
X40480000Y-28100000D02*
X38505000Y-30075000D01*
X38505000Y-48775762D02*
X41139238Y-51410000D01*
X50800000Y-31765000D02*
X47135000Y-28100000D01*
X38505000Y-30075000D02*
X38505000Y-48775762D01*
X43180000Y-51410000D02*
X43180000Y-60960000D01*
%TO.N,Net-(J4-Pin_8)*%
X50815812Y-67965000D02*
X45105000Y-67965000D01*
X72440000Y-73820000D02*
X53494416Y-73820000D01*
X51540000Y-68689188D02*
X50815812Y-67965000D01*
X53494416Y-73820000D02*
X51540000Y-71865584D01*
X72440000Y-74985584D02*
X72440000Y-73820000D01*
X74200000Y-78200000D02*
X74200000Y-76745584D01*
X74200000Y-76745584D02*
X72440000Y-74985584D01*
X51540000Y-71865584D02*
X51540000Y-68689188D01*
X45105000Y-67965000D02*
X43180000Y-66040000D01*
%TO.N,Net-(U1-QB)*%
X42780000Y-29225000D02*
X38955000Y-33050000D01*
X38955000Y-33050000D02*
X38955000Y-48589366D01*
X43180000Y-29225000D02*
X42780000Y-29225000D01*
X43630000Y-51223604D02*
X43630000Y-58870000D01*
X43366396Y-50960000D02*
X43630000Y-51223604D01*
X43630000Y-58870000D02*
X45720000Y-60960000D01*
X41325634Y-50960000D02*
X43366396Y-50960000D01*
X38955000Y-48589366D02*
X41325634Y-50960000D01*
%TO.N,Net-(J4-Pin_7)*%
X72890000Y-74799188D02*
X75200000Y-77109188D01*
X46558604Y-67515000D02*
X51002208Y-67515000D01*
X75450000Y-78200000D02*
X75200000Y-78200000D01*
X51002208Y-67515000D02*
X51990000Y-68502792D01*
X51990000Y-71679188D02*
X53680812Y-73370000D01*
X51990000Y-68502792D02*
X51990000Y-71679188D01*
X72890000Y-73370000D02*
X72890000Y-74799188D01*
X45720000Y-66676396D02*
X46558604Y-67515000D01*
X53680812Y-73370000D02*
X72890000Y-73370000D01*
X45720000Y-66040000D02*
X45720000Y-66676396D01*
X75200000Y-77109188D02*
X75200000Y-78200000D01*
%TO.N,Net-(U8-QH)*%
X170180000Y-43180000D02*
X170180000Y-55748020D01*
X183620000Y-56620000D02*
X187960000Y-60960000D01*
X171051980Y-56620000D02*
X183620000Y-56620000D01*
X170180000Y-55748020D02*
X171051980Y-56620000D01*
X172720000Y-43180000D02*
X170180000Y-43180000D01*
%TO.N,Net-(J10-Pin_1)*%
X182880000Y-71120000D02*
X172720000Y-71120000D01*
X187960000Y-66040000D02*
X182880000Y-71120000D01*
X167640000Y-76200000D02*
X163322792Y-76200000D01*
X162560000Y-76962792D02*
X162560000Y-78200000D01*
X172720000Y-71120000D02*
X167640000Y-76200000D01*
X163322792Y-76200000D02*
X162560000Y-76962792D01*
%TO.N,Net-(U1-QD)*%
X39855000Y-48216574D02*
X39855000Y-37630000D01*
X50613604Y-58870000D02*
X44902792Y-58870000D01*
X44902792Y-58870000D02*
X44530000Y-58497208D01*
X50800000Y-60960000D02*
X50800000Y-59056396D01*
X39855000Y-37630000D02*
X43180000Y-34305000D01*
X44530000Y-58497208D02*
X44530000Y-50850812D01*
X43739188Y-50060000D02*
X41698426Y-50060000D01*
X44530000Y-50850812D02*
X43739188Y-50060000D01*
X50800000Y-59056396D02*
X50613604Y-58870000D01*
X41698426Y-50060000D02*
X39855000Y-48216574D01*
%TO.N,Net-(J4-Pin_5)*%
X52890000Y-68130000D02*
X52890000Y-71306396D01*
X52890000Y-71306396D02*
X54053604Y-72470000D01*
X73790000Y-72470000D02*
X73790000Y-74426396D01*
X77200000Y-77836396D02*
X77200000Y-78200000D01*
X54053604Y-72470000D02*
X73790000Y-72470000D01*
X50800000Y-66040000D02*
X52890000Y-68130000D01*
X73790000Y-74426396D02*
X77200000Y-77836396D01*
%TO.N,Net-(U1-QE)*%
X41884822Y-49610000D02*
X43925584Y-49610000D01*
X44980000Y-58310812D02*
X45089188Y-58420000D01*
X43180000Y-36845000D02*
X40305000Y-39720000D01*
X43925584Y-49610000D02*
X44980000Y-50664416D01*
X40305000Y-39720000D02*
X40305000Y-48030178D01*
X40305000Y-48030178D02*
X41884822Y-49610000D01*
X45089188Y-58420000D02*
X50800000Y-58420000D01*
X50800000Y-58420000D02*
X53340000Y-60960000D01*
X44980000Y-50664416D02*
X44980000Y-58310812D01*
%TO.N,Net-(J4-Pin_4)*%
X53340000Y-71120000D02*
X54240000Y-72020000D01*
X74240000Y-72020000D02*
X74240000Y-74240000D01*
X54240000Y-72020000D02*
X74240000Y-72020000D01*
X78200000Y-78139339D02*
X78200000Y-78200000D01*
X53340000Y-66040000D02*
X53340000Y-71120000D01*
X74240000Y-74240000D02*
X77450000Y-77450000D01*
X77510661Y-77450000D02*
X78200000Y-78139339D01*
X77450000Y-77450000D02*
X77510661Y-77450000D01*
%TO.N,Net-(U1-QF)*%
X45430000Y-57970000D02*
X52890000Y-57970000D01*
X40755000Y-47843782D02*
X42071218Y-49160000D01*
X52890000Y-57970000D02*
X55880000Y-60960000D01*
X43180000Y-39385000D02*
X40755000Y-41810000D01*
X45430000Y-50478020D02*
X45430000Y-57970000D01*
X42071218Y-49160000D02*
X44111980Y-49160000D01*
X40755000Y-41810000D02*
X40755000Y-47843782D01*
X44111980Y-49160000D02*
X45430000Y-50478020D01*
%TO.N,Net-(J4-Pin_3)*%
X54426396Y-71570000D02*
X74690000Y-71570000D01*
X53790000Y-70933604D02*
X54426396Y-71570000D01*
X77636396Y-77000000D02*
X78060661Y-77000000D01*
X79200000Y-78139339D02*
X79200000Y-78200000D01*
X74690000Y-71570000D02*
X74690000Y-74053604D01*
X55880000Y-66040000D02*
X53790000Y-68130000D01*
X74690000Y-74053604D02*
X77636396Y-77000000D01*
X53790000Y-68130000D02*
X53790000Y-70933604D01*
X78060661Y-77000000D02*
X79200000Y-78139339D01*
%TO.N,Net-(U1-QG)*%
X41205000Y-43900000D02*
X41205000Y-47657386D01*
X54980000Y-57520000D02*
X58420000Y-60960000D01*
X45880000Y-57520000D02*
X54980000Y-57520000D01*
X45880000Y-50291624D02*
X45880000Y-57520000D01*
X44298376Y-48710000D02*
X45880000Y-50291624D01*
X42257614Y-48710000D02*
X44298376Y-48710000D01*
X41205000Y-47657386D02*
X42257614Y-48710000D01*
X43180000Y-41925000D02*
X41205000Y-43900000D01*
%TO.N,Net-(J4-Pin_2)*%
X75140000Y-73867208D02*
X77822792Y-76550000D01*
X58420000Y-66040000D02*
X58420000Y-66464569D01*
X57819569Y-67065000D02*
X55491396Y-67065000D01*
X55491396Y-67065000D02*
X54240000Y-68316396D01*
X80200000Y-78139339D02*
X80200000Y-78200000D01*
X54240000Y-70747208D02*
X54612792Y-71120000D01*
X54612792Y-71120000D02*
X75140000Y-71120000D01*
X77822792Y-76550000D02*
X78610661Y-76550000D01*
X75140000Y-71120000D02*
X75140000Y-73867208D01*
X58420000Y-66464569D02*
X57819569Y-67065000D01*
X54240000Y-68316396D02*
X54240000Y-70747208D01*
X78610661Y-76550000D02*
X80200000Y-78139339D01*
%TO.N,Net-(U1-QH)*%
X41655000Y-47470990D02*
X42444010Y-48260000D01*
X46330000Y-50105228D02*
X46330000Y-57070000D01*
X46330000Y-57070000D02*
X57070000Y-57070000D01*
X42444010Y-48260000D02*
X44484772Y-48260000D01*
X57070000Y-57070000D02*
X60960000Y-60960000D01*
X44484772Y-48260000D02*
X46330000Y-50105228D01*
X41655000Y-45990000D02*
X41655000Y-47470990D01*
X43180000Y-44465000D02*
X41655000Y-45990000D01*
%TO.N,Net-(J4-Pin_1)*%
X54799188Y-70670000D02*
X75326396Y-70670000D01*
X75590000Y-70933604D02*
X75590000Y-73680812D01*
X78009188Y-76100000D02*
X79160661Y-76100000D01*
X60960000Y-66040000D02*
X60960000Y-66464569D01*
X75590000Y-73680812D02*
X78009188Y-76100000D01*
X81200000Y-78139339D02*
X81200000Y-78200000D01*
X59909569Y-67515000D02*
X55677792Y-67515000D01*
X75326396Y-70670000D02*
X75590000Y-70933604D01*
X55677792Y-67515000D02*
X54690000Y-68502792D01*
X54690000Y-70560812D02*
X54799188Y-70670000D01*
X60960000Y-66464569D02*
X59909569Y-67515000D01*
X54690000Y-68502792D02*
X54690000Y-70560812D01*
X79160661Y-76100000D02*
X81200000Y-78139339D01*
%TO.N,Net-(U2-QA)*%
X65590000Y-49995000D02*
X63869238Y-49995000D01*
X63869238Y-49995000D02*
X61365000Y-47490762D01*
X61365000Y-47490762D02*
X61365000Y-30075000D01*
X63500000Y-60960000D02*
X65590000Y-58870000D01*
X65590000Y-58870000D02*
X65590000Y-49995000D01*
X61365000Y-30075000D02*
X64625000Y-26815000D01*
X64625000Y-26815000D02*
X69995000Y-26815000D01*
X69995000Y-26815000D02*
X73660000Y-30480000D01*
%TO.N,Net-(J5-Pin_8)*%
X86980000Y-77775356D02*
X86980000Y-78740000D01*
X70747208Y-69480000D02*
X78130000Y-69480000D01*
X79975228Y-75650000D02*
X84854644Y-75650000D01*
X67943604Y-68580000D02*
X68393604Y-69030000D01*
X70297208Y-69030000D02*
X70747208Y-69480000D01*
X63500000Y-66040000D02*
X66040000Y-68580000D01*
X66040000Y-68580000D02*
X67943604Y-68580000D01*
X68393604Y-69030000D02*
X70297208Y-69030000D01*
X84854644Y-75650000D02*
X86980000Y-77775356D01*
X78130000Y-69480000D02*
X78130000Y-73804772D01*
X78130000Y-73804772D02*
X79975228Y-75650000D01*
%TO.N,Net-(U2-QB)*%
X61815000Y-32165000D02*
X61815000Y-47304366D01*
X64055634Y-49545000D02*
X66040000Y-49545000D01*
X66040000Y-27940000D02*
X61815000Y-32165000D01*
X61815000Y-47304366D02*
X64055634Y-49545000D01*
X66040000Y-49545000D02*
X66040000Y-60960000D01*
%TO.N,Net-(J5-Pin_7)*%
X78580000Y-73618376D02*
X80161624Y-75200000D01*
X70483604Y-68580000D02*
X70933604Y-69030000D01*
X66040000Y-66040000D02*
X68580000Y-68580000D01*
X87980000Y-78138960D02*
X87980000Y-78740000D01*
X78548020Y-69030000D02*
X78580000Y-69061980D01*
X78580000Y-69061980D02*
X78580000Y-73618376D01*
X80161624Y-75200000D02*
X85041040Y-75200000D01*
X85041040Y-75200000D02*
X87980000Y-78138960D01*
X68580000Y-68580000D02*
X70483604Y-68580000D01*
X70933604Y-69030000D02*
X78548020Y-69030000D01*
%TO.N,Net-(U2-QC)*%
X62265000Y-47117970D02*
X64242030Y-49095000D01*
X66226396Y-49095000D02*
X66490000Y-49358604D01*
X66490000Y-49358604D02*
X66490000Y-58870000D01*
X66040000Y-30480000D02*
X62265000Y-34255000D01*
X62265000Y-34255000D02*
X62265000Y-47117970D01*
X66490000Y-58870000D02*
X68580000Y-60960000D01*
X64242030Y-49095000D02*
X66226396Y-49095000D01*
%TO.N,Net-(J5-Pin_6)*%
X85227436Y-74750000D02*
X88980000Y-78502564D01*
X88980000Y-78502564D02*
X88980000Y-78740000D01*
X79030000Y-68875584D02*
X79030000Y-73431980D01*
X80348020Y-74750000D02*
X85227436Y-74750000D01*
X71120000Y-68580000D02*
X78734416Y-68580000D01*
X78734416Y-68580000D02*
X79030000Y-68875584D01*
X68580000Y-66040000D02*
X71120000Y-68580000D01*
X79030000Y-73431980D02*
X80348020Y-74750000D01*
%TO.N,Net-(U2-QD)*%
X66412792Y-48645000D02*
X66940000Y-49172208D01*
X66940000Y-56780000D02*
X71120000Y-60960000D01*
X62715000Y-36345000D02*
X62715000Y-46931574D01*
X62715000Y-46931574D02*
X64428426Y-48645000D01*
X66940000Y-49172208D02*
X66940000Y-56780000D01*
X66040000Y-33020000D02*
X62715000Y-36345000D01*
X64428426Y-48645000D02*
X66412792Y-48645000D01*
%TO.N,Net-(J5-Pin_5)*%
X79480000Y-73245584D02*
X80534416Y-74300000D01*
X80534416Y-74300000D02*
X85413832Y-74300000D01*
X71120000Y-66040000D02*
X71120000Y-66464569D01*
X89103832Y-77990000D02*
X89290661Y-77990000D01*
X89290661Y-77990000D02*
X89980000Y-78679339D01*
X79480000Y-68689188D02*
X79480000Y-73245584D01*
X71120000Y-66464569D02*
X72620431Y-67965000D01*
X78755812Y-67965000D02*
X79480000Y-68689188D01*
X89980000Y-78679339D02*
X89980000Y-78740000D01*
X85413832Y-74300000D02*
X89103832Y-77990000D01*
X72620431Y-67965000D02*
X78755812Y-67965000D01*
%TO.N,Net-(U2-QE)*%
X63165000Y-46745178D02*
X64614822Y-48195000D01*
X69216396Y-58420000D02*
X71120000Y-58420000D01*
X67390000Y-56593604D02*
X69216396Y-58420000D01*
X64614822Y-48195000D02*
X66599188Y-48195000D01*
X66599188Y-48195000D02*
X67390000Y-48985812D01*
X66040000Y-35560000D02*
X63165000Y-38435000D01*
X67390000Y-48985812D02*
X67390000Y-56593604D01*
X71120000Y-58420000D02*
X73660000Y-60960000D01*
X63165000Y-38435000D02*
X63165000Y-46745178D01*
%TO.N,Net-(J5-Pin_4)*%
X89290228Y-77540000D02*
X89477057Y-77540000D01*
X78942208Y-67515000D02*
X79930000Y-68502792D01*
X90290661Y-77990000D02*
X90980000Y-78679339D01*
X74710431Y-67515000D02*
X78942208Y-67515000D01*
X73660000Y-66040000D02*
X73660000Y-66464569D01*
X85600228Y-73850000D02*
X89290228Y-77540000D01*
X73660000Y-66464569D02*
X74710431Y-67515000D01*
X89477057Y-77540000D02*
X89927057Y-77990000D01*
X80720812Y-73850000D02*
X85600228Y-73850000D01*
X89927057Y-77990000D02*
X90290661Y-77990000D01*
X79930000Y-73059188D02*
X80720812Y-73850000D01*
X79930000Y-68502792D02*
X79930000Y-73059188D01*
X90980000Y-78679339D02*
X90980000Y-78740000D01*
%TO.N,Net-(U2-QF)*%
X64801218Y-47745000D02*
X66785584Y-47745000D01*
X66040000Y-38100000D02*
X63615000Y-40525000D01*
X67840000Y-56407208D02*
X69402792Y-57970000D01*
X66785584Y-47745000D02*
X67840000Y-48799416D01*
X63615000Y-40525000D02*
X63615000Y-46558782D01*
X69402792Y-57970000D02*
X73210000Y-57970000D01*
X67840000Y-48799416D02*
X67840000Y-56407208D01*
X73210000Y-57970000D02*
X76200000Y-60960000D01*
X63615000Y-46558782D02*
X64801218Y-47745000D01*
%TO.N,Net-(J5-Pin_3)*%
X76200000Y-66464569D02*
X76800431Y-67065000D01*
X76200000Y-66040000D02*
X76200000Y-66464569D01*
X76800431Y-67065000D02*
X79128604Y-67065000D01*
X80380000Y-72872792D02*
X80907208Y-73400000D01*
X90027057Y-77090000D02*
X90927057Y-77990000D01*
X79128604Y-67065000D02*
X80380000Y-68316396D01*
X80907208Y-73400000D02*
X85786624Y-73400000D01*
X91290661Y-77990000D02*
X91980000Y-78679339D01*
X85786624Y-73400000D02*
X89476624Y-77090000D01*
X90927057Y-77990000D02*
X91290661Y-77990000D01*
X91980000Y-78679339D02*
X91980000Y-78740000D01*
X80380000Y-68316396D02*
X80380000Y-72872792D01*
X89476624Y-77090000D02*
X90027057Y-77090000D01*
%TO.N,Net-(U2-QG)*%
X64987614Y-47295000D02*
X66971980Y-47295000D01*
X66040000Y-41018604D02*
X64065000Y-42993604D01*
X64065000Y-42993604D02*
X64065000Y-46372386D01*
X66040000Y-40640000D02*
X66040000Y-41018604D01*
X69589188Y-57520000D02*
X75300000Y-57520000D01*
X68290000Y-48613020D02*
X68290000Y-56220812D01*
X66971980Y-47295000D02*
X68290000Y-48613020D01*
X68290000Y-56220812D02*
X69589188Y-57520000D01*
X75300000Y-57520000D02*
X78740000Y-60960000D01*
X64065000Y-46372386D02*
X64987614Y-47295000D01*
%TO.N,Net-(J5-Pin_2)*%
X89663020Y-76640000D02*
X90940661Y-76640000D01*
X92980000Y-78679339D02*
X92980000Y-78740000D01*
X85973020Y-72950000D02*
X89663020Y-76640000D01*
X90940661Y-76640000D02*
X92980000Y-78679339D01*
X81093604Y-72950000D02*
X85973020Y-72950000D01*
X80830000Y-72686396D02*
X81093604Y-72950000D01*
X80830000Y-68130000D02*
X80830000Y-72686396D01*
X78740000Y-66040000D02*
X80830000Y-68130000D01*
%TO.N,Net-(U2-QH)*%
X68740000Y-48426624D02*
X68740000Y-56034416D01*
X69775584Y-57070000D02*
X77390000Y-57070000D01*
X65174010Y-46845000D02*
X67158376Y-46845000D01*
X68740000Y-56034416D02*
X69775584Y-57070000D01*
X67158376Y-46845000D02*
X68740000Y-48426624D01*
X64515000Y-46185990D02*
X65174010Y-46845000D01*
X66040000Y-43180000D02*
X64515000Y-43180000D01*
X77390000Y-57070000D02*
X81280000Y-60960000D01*
X64515000Y-43180000D02*
X64515000Y-46185990D01*
%TO.N,Net-(J5-Pin_1)*%
X93980000Y-78679339D02*
X93980000Y-78740000D01*
X89849416Y-76190000D02*
X91490661Y-76190000D01*
X91490661Y-76190000D02*
X93980000Y-78679339D01*
X81280000Y-72500000D02*
X86159416Y-72500000D01*
X86159416Y-72500000D02*
X89849416Y-76190000D01*
X81280000Y-66040000D02*
X81280000Y-72500000D01*
%TO.N,Net-(U4-QA)*%
X86360000Y-27940000D02*
X87485000Y-26815000D01*
X84225000Y-49943376D02*
X84225000Y-31978604D01*
X84225000Y-31978604D02*
X86360000Y-29843604D01*
X92855000Y-26815000D02*
X96520000Y-30480000D01*
X86360000Y-29843604D02*
X86360000Y-27940000D01*
X87485000Y-26815000D02*
X92855000Y-26815000D01*
X88000000Y-53718376D02*
X84225000Y-49943376D01*
X83820000Y-60960000D02*
X88000000Y-56780000D01*
X88000000Y-56780000D02*
X88000000Y-53718376D01*
%TO.N,Net-(J6-Pin_8)*%
X100140000Y-78139339D02*
X100140000Y-78200000D01*
X101600000Y-72398376D02*
X101600000Y-76679339D01*
X86070000Y-69315000D02*
X98516624Y-69315000D01*
X83820000Y-67065000D02*
X86070000Y-69315000D01*
X83820000Y-66040000D02*
X83820000Y-67065000D01*
X98516624Y-69315000D02*
X101600000Y-72398376D01*
X101600000Y-76679339D02*
X100140000Y-78139339D01*
%TO.N,Net-(U4-QB)*%
X84675000Y-32165000D02*
X84675000Y-49756980D01*
X84675000Y-49756980D02*
X88450000Y-53531980D01*
X88450000Y-58870000D02*
X86360000Y-60960000D01*
X88450000Y-53531980D02*
X88450000Y-58870000D01*
X88900000Y-27940000D02*
X84675000Y-32165000D01*
%TO.N,Net-(J6-Pin_7)*%
X86360000Y-66040000D02*
X86360000Y-67943604D01*
X102050000Y-72211980D02*
X102050000Y-77229339D01*
X87281396Y-68865000D02*
X98703020Y-68865000D01*
X101140000Y-78139339D02*
X101140000Y-78200000D01*
X98703020Y-68865000D02*
X102050000Y-72211980D01*
X86360000Y-67943604D02*
X87281396Y-68865000D01*
X102050000Y-77229339D02*
X101140000Y-78139339D01*
%TO.N,Net-(U4-QC)*%
X85125000Y-49570584D02*
X88900000Y-53345584D01*
X88900000Y-53345584D02*
X88900000Y-60960000D01*
X85125000Y-34255000D02*
X85125000Y-49570584D01*
X88900000Y-30480000D02*
X85125000Y-34255000D01*
%TO.N,Net-(J6-Pin_6)*%
X102500000Y-72025584D02*
X102500000Y-77779339D01*
X88900000Y-67065000D02*
X90250000Y-68415000D01*
X102500000Y-77779339D02*
X102140000Y-78139339D01*
X90250000Y-68415000D02*
X98889416Y-68415000D01*
X102140000Y-78139339D02*
X102140000Y-78200000D01*
X88900000Y-66040000D02*
X88900000Y-67065000D01*
X98889416Y-68415000D02*
X102500000Y-72025584D01*
%TO.N,Net-(U4-QD)*%
X89350000Y-58870000D02*
X91440000Y-60960000D01*
X89350000Y-53159188D02*
X89350000Y-58870000D01*
X85575000Y-36345000D02*
X85575000Y-49384188D01*
X85575000Y-49384188D02*
X89350000Y-53159188D01*
X88900000Y-33020000D02*
X85575000Y-36345000D01*
%TO.N,Net-(J6-Pin_5)*%
X102950000Y-71839188D02*
X102950000Y-77949339D01*
X92940431Y-67965000D02*
X99075812Y-67965000D01*
X99075812Y-67965000D02*
X102950000Y-71839188D01*
X103140000Y-78139339D02*
X103140000Y-78200000D01*
X91440000Y-66040000D02*
X91440000Y-66464569D01*
X91440000Y-66464569D02*
X92940431Y-67965000D01*
X102950000Y-77949339D02*
X103140000Y-78139339D01*
%TO.N,Net-(U4-QE)*%
X89800000Y-56780000D02*
X93980000Y-60960000D01*
X88900000Y-35560000D02*
X86025000Y-38435000D01*
X89800000Y-52972792D02*
X89800000Y-56780000D01*
X86025000Y-38435000D02*
X86025000Y-49197792D01*
X86025000Y-49197792D02*
X89800000Y-52972792D01*
%TO.N,Net-(J6-Pin_4)*%
X103400000Y-77399339D02*
X104140000Y-78139339D01*
X104140000Y-78139339D02*
X104140000Y-78200000D01*
X93980000Y-66040000D02*
X93980000Y-66676396D01*
X103400000Y-71652792D02*
X103400000Y-77399339D01*
X94818604Y-67515000D02*
X99262208Y-67515000D01*
X93980000Y-66676396D02*
X94818604Y-67515000D01*
X99262208Y-67515000D02*
X103400000Y-71652792D01*
%TO.N,Net-(U4-QF)*%
X90250000Y-52786396D02*
X90250000Y-56593604D01*
X92076396Y-58420000D02*
X93980000Y-58420000D01*
X90250000Y-56593604D02*
X92076396Y-58420000D01*
X88900000Y-38100000D02*
X86475000Y-40525000D01*
X86475000Y-40525000D02*
X86475000Y-49011396D01*
X93980000Y-58420000D02*
X96520000Y-60960000D01*
X86475000Y-49011396D02*
X90250000Y-52786396D01*
%TO.N,Net-(J6-Pin_3)*%
X96520000Y-66040000D02*
X96520000Y-67065000D01*
X103850000Y-75910000D02*
X105040000Y-77100000D01*
X96520000Y-67065000D02*
X99448604Y-67065000D01*
X105040000Y-78100000D02*
X105140000Y-78200000D01*
X103850000Y-71466396D02*
X103850000Y-75910000D01*
X99448604Y-67065000D02*
X103850000Y-71466396D01*
X105040000Y-77100000D02*
X105040000Y-78100000D01*
%TO.N,Net-(U4-QG)*%
X86925000Y-42615000D02*
X86925000Y-48825000D01*
X96070000Y-57970000D02*
X99060000Y-60960000D01*
X92262792Y-57970000D02*
X96070000Y-57970000D01*
X90700000Y-56407208D02*
X92262792Y-57970000D01*
X88900000Y-40640000D02*
X86925000Y-42615000D01*
X90700000Y-52600000D02*
X90700000Y-56407208D01*
X86925000Y-48825000D02*
X90700000Y-52600000D01*
%TO.N,Net-(J6-Pin_2)*%
X106140000Y-78139339D02*
X106140000Y-78200000D01*
X105490000Y-77489339D02*
X106140000Y-78139339D01*
X105490000Y-76913604D02*
X105490000Y-77489339D01*
X104300000Y-75723604D02*
X105490000Y-76913604D01*
X104300000Y-71280000D02*
X104300000Y-75723604D01*
X99060000Y-66040000D02*
X104300000Y-71280000D01*
%TO.N,Net-(U4-QH)*%
X87375000Y-48638604D02*
X91150000Y-52413604D01*
X99060000Y-58420000D02*
X101600000Y-60960000D01*
X87375000Y-44705000D02*
X87375000Y-48638604D01*
X97156396Y-58420000D02*
X99060000Y-58420000D01*
X91150000Y-56220812D02*
X92449188Y-57520000D01*
X88900000Y-43180000D02*
X87375000Y-44705000D01*
X91150000Y-52413604D02*
X91150000Y-56220812D01*
X96256396Y-57520000D02*
X97156396Y-58420000D01*
X92449188Y-57520000D02*
X96256396Y-57520000D01*
%TO.N,Net-(J6-Pin_1)*%
X104750000Y-74797208D02*
X106680000Y-76727208D01*
X101600000Y-66040000D02*
X101600000Y-67943604D01*
X106680000Y-76727208D02*
X106680000Y-77679339D01*
X106680000Y-77679339D02*
X107140000Y-78139339D01*
X101600000Y-67943604D02*
X104750000Y-71093604D01*
X104750000Y-71093604D02*
X104750000Y-74797208D01*
X107140000Y-78139339D02*
X107140000Y-78200000D01*
%TO.N,Net-(U5-QA)*%
X105780000Y-59320000D02*
X105375228Y-59320000D01*
X104140000Y-60960000D02*
X105780000Y-59320000D01*
X104320812Y-50355584D02*
X103530000Y-49564772D01*
X103530000Y-49564772D02*
X103530000Y-30980000D01*
X113175000Y-26815000D02*
X116840000Y-30480000D01*
X103530000Y-30980000D02*
X107695000Y-26815000D01*
X105375228Y-59320000D02*
X104320812Y-58265584D01*
X104320812Y-58265584D02*
X104320812Y-50355584D01*
X107695000Y-26815000D02*
X113175000Y-26815000D01*
%TO.N,Net-(J7-Pin_8)*%
X112300000Y-78139339D02*
X112300000Y-78200000D01*
X109674035Y-68580000D02*
X111024035Y-69930000D01*
X112850000Y-69930000D02*
X112850000Y-77589339D01*
X104140000Y-66040000D02*
X106680000Y-68580000D01*
X112850000Y-77589339D02*
X112300000Y-78139339D01*
X111024035Y-69930000D02*
X112850000Y-69930000D01*
X106680000Y-68580000D02*
X109674035Y-68580000D01*
%TO.N,Net-(U5-QB)*%
X106680000Y-59056396D02*
X106680000Y-60960000D01*
X105561624Y-58870000D02*
X106493604Y-58870000D01*
X103980000Y-33180000D02*
X103980000Y-49378376D01*
X106493604Y-58870000D02*
X106680000Y-59056396D01*
X104770812Y-50169188D02*
X104770812Y-58079188D01*
X109220000Y-27940000D02*
X103980000Y-33180000D01*
X104770812Y-58079188D02*
X105561624Y-58870000D01*
X103980000Y-49378376D02*
X104770812Y-50169188D01*
%TO.N,Net-(J7-Pin_7)*%
X109860431Y-68130000D02*
X111210431Y-69480000D01*
X106866396Y-68130000D02*
X109860431Y-68130000D01*
X111210431Y-69480000D02*
X113300000Y-69480000D01*
X106680000Y-67943604D02*
X106866396Y-68130000D01*
X113300000Y-69480000D02*
X113300000Y-78200000D01*
X106680000Y-66040000D02*
X106680000Y-67943604D01*
%TO.N,Net-(U5-QC)*%
X105748020Y-58420000D02*
X106680000Y-58420000D01*
X109220000Y-30480000D02*
X104430000Y-35270000D01*
X106680000Y-58420000D02*
X109220000Y-60960000D01*
X105220812Y-49982792D02*
X105220812Y-57892792D01*
X105220812Y-57892792D02*
X105748020Y-58420000D01*
X104430000Y-49191980D02*
X105220812Y-49982792D01*
X104430000Y-35270000D02*
X104430000Y-49191980D01*
%TO.N,Net-(J7-Pin_6)*%
X109220000Y-67680000D02*
X110046827Y-67680000D01*
X111396827Y-69030000D02*
X113486396Y-69030000D01*
X110046827Y-67680000D02*
X111396827Y-69030000D01*
X109220000Y-66040000D02*
X109220000Y-67680000D01*
X113486396Y-69030000D02*
X113750000Y-69293604D01*
X113750000Y-77589339D02*
X114300000Y-78139339D01*
X113750000Y-69293604D02*
X113750000Y-77589339D01*
X114300000Y-78139339D02*
X114300000Y-78200000D01*
%TO.N,Net-(U5-QD)*%
X104880000Y-49005584D02*
X105670812Y-49796396D01*
X104880000Y-37360000D02*
X104880000Y-49005584D01*
X105670812Y-57706396D02*
X105934416Y-57970000D01*
X105670812Y-49796396D02*
X105670812Y-57706396D01*
X109220000Y-33020000D02*
X104880000Y-37360000D01*
X108770000Y-57970000D02*
X111760000Y-60960000D01*
X105934416Y-57970000D02*
X108770000Y-57970000D01*
%TO.N,Net-(J7-Pin_5)*%
X115300000Y-78139339D02*
X115300000Y-78200000D01*
X114300000Y-68580000D02*
X114300000Y-77139339D01*
X111760000Y-66040000D02*
X111760000Y-68580000D01*
X111760000Y-68580000D02*
X114300000Y-68580000D01*
X114300000Y-77139339D02*
X115300000Y-78139339D01*
%TO.N,Net-(U5-QE)*%
X110860000Y-57520000D02*
X114300000Y-60960000D01*
X106120812Y-49610000D02*
X106120812Y-57520000D01*
X106120812Y-57520000D02*
X110860000Y-57520000D01*
X109220000Y-35560000D02*
X105330000Y-39450000D01*
X105330000Y-39450000D02*
X105330000Y-48819188D01*
X105330000Y-48819188D02*
X106120812Y-49610000D01*
%TO.N,Net-(J7-Pin_4)*%
X114300000Y-66040000D02*
X114300000Y-68130000D01*
X114750000Y-76589339D02*
X116300000Y-78139339D01*
X114750000Y-68393604D02*
X114750000Y-76589339D01*
X116300000Y-78139339D02*
X116300000Y-78200000D01*
X114300000Y-68130000D02*
X114486396Y-68130000D01*
X114486396Y-68130000D02*
X114750000Y-68393604D01*
%TO.N,Net-(U5-QF)*%
X112950000Y-57070000D02*
X116840000Y-60960000D01*
X109220000Y-38100000D02*
X105780000Y-41540000D01*
X105780000Y-41540000D02*
X105780000Y-48632792D01*
X106570812Y-49423604D02*
X106570812Y-57070000D01*
X105780000Y-48632792D02*
X106570812Y-49423604D01*
X106570812Y-57070000D02*
X112950000Y-57070000D01*
%TO.N,Net-(J7-Pin_3)*%
X116840000Y-66040000D02*
X116840000Y-67943604D01*
X117300000Y-78139339D02*
X117300000Y-78200000D01*
X115200000Y-69583604D02*
X115200000Y-76039339D01*
X115200000Y-76039339D02*
X117300000Y-78139339D01*
X116840000Y-67943604D02*
X115200000Y-69583604D01*
%TO.N,Net-(U5-QG)*%
X106230000Y-48446396D02*
X107020812Y-49237208D01*
X106230000Y-43630000D02*
X106230000Y-48446396D01*
X115040000Y-56620000D02*
X119380000Y-60960000D01*
X107020812Y-56620000D02*
X115040000Y-56620000D01*
X107020812Y-49237208D02*
X107020812Y-56620000D01*
X109220000Y-40640000D02*
X106230000Y-43630000D01*
%TO.N,Net-(J7-Pin_2)*%
X115650000Y-75489339D02*
X118300000Y-78139339D01*
X118300000Y-78139339D02*
X118300000Y-78200000D01*
X119380000Y-66040000D02*
X115650000Y-69770000D01*
X115650000Y-69770000D02*
X115650000Y-75489339D01*
%TO.N,Net-(U5-QH)*%
X115226396Y-56170000D02*
X117476396Y-58420000D01*
X107470812Y-49050812D02*
X107470812Y-56170000D01*
X109220000Y-43180000D02*
X106680000Y-45720000D01*
X106680000Y-48260000D02*
X107470812Y-49050812D01*
X107470812Y-56170000D02*
X115226396Y-56170000D01*
X119380000Y-58420000D02*
X121920000Y-60960000D01*
X106680000Y-45720000D02*
X106680000Y-48260000D01*
X117476396Y-58420000D02*
X119380000Y-58420000D01*
%TO.N,Net-(J7-Pin_1)*%
X118991396Y-67065000D02*
X116100000Y-69956396D01*
X119380000Y-78120000D02*
X119300000Y-78200000D01*
X116100000Y-75199669D02*
X118350331Y-77450000D01*
X121920000Y-66040000D02*
X121920000Y-66464569D01*
X121319569Y-67065000D02*
X118991396Y-67065000D01*
X118350331Y-77450000D02*
X119380000Y-77450000D01*
X119380000Y-77450000D02*
X119380000Y-78120000D01*
X116100000Y-69956396D02*
X116100000Y-75199669D01*
X121920000Y-66464569D02*
X121319569Y-67065000D01*
%TO.N,Net-(U6-QA)*%
X123850000Y-30980000D02*
X128015000Y-26815000D01*
X123850000Y-49564772D02*
X123850000Y-30980000D01*
X126550000Y-51410000D02*
X125695228Y-51410000D01*
X133495000Y-26815000D02*
X137160000Y-30480000D01*
X125695228Y-51410000D02*
X123850000Y-49564772D01*
X128015000Y-26815000D02*
X133495000Y-26815000D01*
X126550000Y-58870000D02*
X126550000Y-51410000D01*
X124460000Y-60960000D02*
X126550000Y-58870000D01*
%TO.N,Net-(J8-Pin_8)*%
X125000000Y-76921624D02*
X125000000Y-78200000D01*
X126650000Y-75271624D02*
X125000000Y-76921624D01*
X126650000Y-68230000D02*
X126650000Y-75271624D01*
X124460000Y-66040000D02*
X126650000Y-68230000D01*
%TO.N,Net-(U6-QB)*%
X129540000Y-27940000D02*
X124300000Y-33180000D01*
X127000000Y-50960000D02*
X127000000Y-60960000D01*
X124300000Y-33180000D02*
X124300000Y-49378376D01*
X124300000Y-49378376D02*
X125881624Y-50960000D01*
X125881624Y-50960000D02*
X127000000Y-50960000D01*
%TO.N,Net-(J8-Pin_7)*%
X127000000Y-66040000D02*
X127000000Y-67743604D01*
X127100000Y-67843604D02*
X127100000Y-75458020D01*
X126000000Y-76558020D02*
X126000000Y-78200000D01*
X127100000Y-75458020D02*
X126000000Y-76558020D01*
X127000000Y-67743604D02*
X127100000Y-67843604D01*
%TO.N,Net-(U6-QC)*%
X124750000Y-49191980D02*
X126068020Y-50510000D01*
X124750000Y-35270000D02*
X124750000Y-49191980D01*
X127450000Y-50773604D02*
X127450000Y-58870000D01*
X127186396Y-50510000D02*
X127450000Y-50773604D01*
X127450000Y-58870000D02*
X129540000Y-60960000D01*
X126068020Y-50510000D02*
X127186396Y-50510000D01*
X129540000Y-30480000D02*
X124750000Y-35270000D01*
%TO.N,Net-(J8-Pin_6)*%
X129540000Y-66040000D02*
X129540000Y-66615000D01*
X129540000Y-66615000D02*
X128965000Y-66615000D01*
X127550000Y-75644416D02*
X127000000Y-76194416D01*
X128965000Y-66615000D02*
X127550000Y-68030000D01*
X127000000Y-76194416D02*
X127000000Y-78200000D01*
X127550000Y-68030000D02*
X127550000Y-75644416D01*
%TO.N,Net-(U6-QD)*%
X126254416Y-50060000D02*
X127372792Y-50060000D01*
X127900000Y-58683604D02*
X129803604Y-58683604D01*
X125200000Y-49005584D02*
X126254416Y-50060000D01*
X129540000Y-33020000D02*
X125200000Y-37360000D01*
X127900000Y-50587208D02*
X127900000Y-58683604D01*
X129803604Y-58683604D02*
X132080000Y-60960000D01*
X125200000Y-37360000D02*
X125200000Y-49005584D01*
X127372792Y-50060000D02*
X127900000Y-50587208D01*
%TO.N,Net-(J8-Pin_5)*%
X132080000Y-66040000D02*
X132080000Y-67065000D01*
X129151396Y-67065000D02*
X128000000Y-68216396D01*
X128000000Y-68216396D02*
X128000000Y-78200000D01*
X132080000Y-67065000D02*
X129151396Y-67065000D01*
%TO.N,Net-(U6-QE)*%
X131893604Y-58233604D02*
X134620000Y-60960000D01*
X127559188Y-49610000D02*
X128350000Y-50400812D01*
X125650000Y-48819188D02*
X126440812Y-49610000D01*
X128350000Y-58233604D02*
X131893604Y-58233604D01*
X126440812Y-49610000D02*
X127559188Y-49610000D01*
X128350000Y-50400812D02*
X128350000Y-58233604D01*
X125650000Y-39450000D02*
X125650000Y-48819188D01*
X129540000Y-35560000D02*
X125650000Y-39450000D01*
%TO.N,Net-(J8-Pin_4)*%
X128450000Y-76200000D02*
X129000000Y-76750000D01*
X129000000Y-76750000D02*
X129000000Y-78200000D01*
X132257208Y-68402792D02*
X128450000Y-68402792D01*
X128450000Y-68402792D02*
X128450000Y-76200000D01*
X134620000Y-66040000D02*
X132257208Y-68402792D01*
%TO.N,Net-(U6-QF)*%
X128800000Y-57680000D02*
X128903604Y-57783604D01*
X126100000Y-41540000D02*
X126100000Y-48632792D01*
X133983604Y-57783604D02*
X137160000Y-60960000D01*
X127745584Y-49160000D02*
X128800000Y-50214416D01*
X126100000Y-48632792D02*
X126627208Y-49160000D01*
X128903604Y-57783604D02*
X133983604Y-57783604D01*
X128800000Y-50214416D02*
X128800000Y-57680000D01*
X126627208Y-49160000D02*
X127745584Y-49160000D01*
X129540000Y-38100000D02*
X126100000Y-41540000D01*
%TO.N,Net-(J8-Pin_3)*%
X137160000Y-67065000D02*
X135372207Y-68852792D01*
X128900000Y-68947208D02*
X128900000Y-76013604D01*
X137160000Y-66040000D02*
X137160000Y-67065000D01*
X128900000Y-76013604D02*
X130000000Y-77113604D01*
X128994416Y-68852792D02*
X128900000Y-68947208D01*
X135372207Y-68852792D02*
X128994416Y-68852792D01*
X130000000Y-77113604D02*
X130000000Y-78200000D01*
%TO.N,Net-(U6-QG)*%
X126550000Y-43630000D02*
X126550000Y-48446396D01*
X129540000Y-40640000D02*
X126550000Y-43630000D01*
X129250000Y-50028020D02*
X129250000Y-57333604D01*
X126550000Y-48446396D02*
X126813604Y-48710000D01*
X127931980Y-48710000D02*
X129250000Y-50028020D01*
X136073604Y-57333604D02*
X139700000Y-60960000D01*
X126813604Y-48710000D02*
X127931980Y-48710000D01*
X129250000Y-57333604D02*
X136073604Y-57333604D01*
%TO.N,Net-(J8-Pin_2)*%
X139700000Y-68130000D02*
X136731396Y-68130000D01*
X130172792Y-76650000D02*
X131000000Y-76650000D01*
X131000000Y-76650000D02*
X131000000Y-78200000D01*
X129350000Y-69302792D02*
X129350000Y-75827208D01*
X136731396Y-68130000D02*
X135558604Y-69302792D01*
X135558604Y-69302792D02*
X129350000Y-69302792D01*
X139700000Y-66040000D02*
X139700000Y-68130000D01*
X129350000Y-75827208D02*
X130172792Y-76650000D01*
%TO.N,Net-(U6-QH)*%
X127000000Y-48260000D02*
X128118376Y-48260000D01*
X129700000Y-49841624D02*
X129700000Y-56883604D01*
X127000000Y-45720000D02*
X127000000Y-48260000D01*
X129700000Y-56883604D02*
X138163604Y-56883604D01*
X138163604Y-56883604D02*
X142240000Y-60960000D01*
X129540000Y-43180000D02*
X127000000Y-45720000D01*
X128118376Y-48260000D02*
X129700000Y-49841624D01*
%TO.N,Net-(J8-Pin_1)*%
X135745000Y-69752792D02*
X129800000Y-69752792D01*
X136917792Y-68580000D02*
X135745000Y-69752792D01*
X142240000Y-67065000D02*
X140725000Y-68580000D01*
X132000000Y-76380812D02*
X132000000Y-78200000D01*
X131819188Y-76200000D02*
X132000000Y-76380812D01*
X130359188Y-76200000D02*
X131819188Y-76200000D01*
X142240000Y-66040000D02*
X142240000Y-67065000D01*
X129800000Y-75640812D02*
X130359188Y-76200000D01*
X129800000Y-69752792D02*
X129800000Y-75640812D01*
X140725000Y-68580000D02*
X136917792Y-68580000D01*
%TO.N,Net-(U7-QA)*%
X144170000Y-49564772D02*
X144170000Y-30980000D01*
X153815000Y-26815000D02*
X157480000Y-30480000D01*
X148335000Y-26815000D02*
X153815000Y-26815000D01*
X144780000Y-60960000D02*
X144780000Y-59056396D01*
X145224416Y-50619188D02*
X144170000Y-49564772D01*
X145224416Y-58611980D02*
X145224416Y-50619188D01*
X144780000Y-59056396D02*
X145224416Y-58611980D01*
X144170000Y-30980000D02*
X148335000Y-26815000D01*
%TO.N,Net-(J9-Pin_8)*%
X144780000Y-70220000D02*
X142503604Y-70220000D01*
X141340000Y-71383604D02*
X141340000Y-74923604D01*
X141340000Y-74923604D02*
X140240000Y-76023604D01*
X140240000Y-76023604D02*
X140240000Y-78200000D01*
X142503604Y-70220000D02*
X141340000Y-71383604D01*
X144780000Y-66040000D02*
X144780000Y-70220000D01*
%TO.N,Net-(U7-QB)*%
X145674416Y-57410812D02*
X147320000Y-59056396D01*
X149860000Y-27940000D02*
X144620000Y-33180000D01*
X145674416Y-50432792D02*
X145674416Y-57410812D01*
X144620000Y-49378376D02*
X145674416Y-50432792D01*
X144620000Y-33180000D02*
X144620000Y-49378376D01*
X147320000Y-59056396D02*
X147320000Y-60960000D01*
%TO.N,Net-(J9-Pin_7)*%
X141790000Y-75110000D02*
X141240000Y-75660000D01*
X147320000Y-70670000D02*
X142690000Y-70670000D01*
X141240000Y-75660000D02*
X141240000Y-78200000D01*
X142690000Y-70670000D02*
X141790000Y-71570000D01*
X147320000Y-66040000D02*
X147320000Y-70670000D01*
X141790000Y-71570000D02*
X141790000Y-75110000D01*
%TO.N,Net-(U7-QC)*%
X146124416Y-57224416D02*
X149860000Y-60960000D01*
X145070000Y-49191980D02*
X146124416Y-50246396D01*
X145070000Y-35270000D02*
X145070000Y-49191980D01*
X146124416Y-50246396D02*
X146124416Y-57224416D01*
X149860000Y-30480000D02*
X145070000Y-35270000D01*
%TO.N,Net-(J9-Pin_6)*%
X142240000Y-71756396D02*
X142240000Y-78200000D01*
X142876396Y-71120000D02*
X142240000Y-71756396D01*
X149860000Y-66040000D02*
X149860000Y-71120000D01*
X149860000Y-71120000D02*
X142876396Y-71120000D01*
%TO.N,Net-(U7-QD)*%
X147956396Y-58420000D02*
X149860000Y-58420000D01*
X146574416Y-57038020D02*
X147956396Y-58420000D01*
X149860000Y-33020000D02*
X145520000Y-37360000D01*
X149860000Y-58420000D02*
X152400000Y-60960000D01*
X146574416Y-50060000D02*
X146574416Y-57038020D01*
X145520000Y-49005584D02*
X146574416Y-50060000D01*
X145520000Y-37360000D02*
X145520000Y-49005584D01*
%TO.N,Net-(J9-Pin_5)*%
X142690000Y-77589339D02*
X143240000Y-78139339D01*
X143062792Y-71570000D02*
X142690000Y-71942792D01*
X143240000Y-78139339D02*
X143240000Y-78200000D01*
X142690000Y-71942792D02*
X142690000Y-77589339D01*
X152400000Y-71120000D02*
X151950000Y-71570000D01*
X152400000Y-66040000D02*
X152400000Y-71120000D01*
X151950000Y-71570000D02*
X143062792Y-71570000D01*
%TO.N,Net-(U7-QE)*%
X149860000Y-35560000D02*
X145970000Y-39450000D01*
X145970000Y-39450000D02*
X145970000Y-48819188D01*
X148142792Y-57970000D02*
X151950000Y-57970000D01*
X147024416Y-56851624D02*
X148142792Y-57970000D01*
X147024416Y-49873604D02*
X147024416Y-56851624D01*
X151950000Y-57970000D02*
X154940000Y-60960000D01*
X145970000Y-48819188D02*
X147024416Y-49873604D01*
%TO.N,Net-(J9-Pin_4)*%
X144240000Y-78139339D02*
X144240000Y-78200000D01*
X143140000Y-72129188D02*
X143140000Y-77039339D01*
X154940000Y-66040000D02*
X154940000Y-70483604D01*
X143249188Y-72020000D02*
X143140000Y-72129188D01*
X143140000Y-77039339D02*
X144240000Y-78139339D01*
X153403604Y-72020000D02*
X143249188Y-72020000D01*
X154940000Y-70483604D02*
X153403604Y-72020000D01*
%TO.N,Net-(U7-QF)*%
X147474416Y-56665228D02*
X148329188Y-57520000D01*
X147474416Y-49687208D02*
X147474416Y-56665228D01*
X148329188Y-57520000D02*
X154040000Y-57520000D01*
X149860000Y-38100000D02*
X146420000Y-41540000D01*
X146420000Y-41540000D02*
X146420000Y-48632792D01*
X146420000Y-48632792D02*
X147474416Y-49687208D01*
X154040000Y-57520000D02*
X157480000Y-60960000D01*
%TO.N,Net-(J9-Pin_3)*%
X143590000Y-76489339D02*
X145240000Y-78139339D01*
X143590000Y-72470000D02*
X143590000Y-76489339D01*
X153590000Y-72470000D02*
X143590000Y-72470000D01*
X157480000Y-66040000D02*
X157480000Y-68580000D01*
X145240000Y-78139339D02*
X145240000Y-78200000D01*
X157480000Y-68580000D02*
X153590000Y-72470000D01*
%TO.N,Net-(J1-Pin_5)*%
X172720000Y-45720000D02*
X175260000Y-43180000D01*
X185420000Y-55880000D02*
X175260000Y-45720000D01*
X111760000Y-37650000D02*
X113850000Y-35560000D01*
X24145000Y-47005000D02*
X24115000Y-47005000D01*
X26110000Y-55848020D02*
X26141980Y-55880000D01*
X83775000Y-53385000D02*
X81280000Y-55880000D01*
X104060000Y-18381040D02*
X96076040Y-26365000D01*
X69221980Y-55880000D02*
X69221980Y-47451980D01*
X91440000Y-43180000D02*
X91440000Y-38100000D01*
X152400000Y-43180000D02*
X152400000Y-38100000D01*
X99060000Y-55880000D02*
X101600000Y-55880000D01*
X24515000Y-47005000D02*
X27940000Y-43580000D01*
X175260000Y-43180000D02*
X175260000Y-35560000D01*
X67490000Y-45720000D02*
X66040000Y-45720000D01*
X66040000Y-45720000D02*
X68580000Y-43180000D01*
X68580000Y-43180000D02*
X68580000Y-35560000D01*
X91440000Y-38100000D02*
X93980000Y-35560000D01*
X78740000Y-55880000D02*
X69221980Y-55880000D01*
X109220000Y-45720000D02*
X111760000Y-43180000D01*
X175260000Y-35560000D02*
X180340000Y-35560000D01*
X46780000Y-55880000D02*
X46780000Y-49918832D01*
X132080000Y-43180000D02*
X132080000Y-38100000D01*
X26110000Y-49000000D02*
X26110000Y-55848020D01*
X24115000Y-47005000D02*
X26110000Y-49000000D01*
X46975000Y-36845000D02*
X50800000Y-36845000D01*
X45720000Y-38100000D02*
X46975000Y-36845000D01*
X152400000Y-38100000D02*
X154940000Y-35560000D01*
X68580000Y-35560000D02*
X73660000Y-35560000D01*
X43180000Y-47005000D02*
X45720000Y-44465000D01*
X24115000Y-47005000D02*
X24515000Y-47005000D01*
X69221980Y-47451980D02*
X67490000Y-45720000D01*
X132080000Y-38100000D02*
X134620000Y-35560000D01*
X149860000Y-45720000D02*
X152400000Y-43180000D01*
X88900000Y-45720000D02*
X91440000Y-43180000D01*
X104060000Y-17780000D02*
X104060000Y-18381040D01*
X119380000Y-55880000D02*
X109220000Y-45720000D01*
X43866168Y-47005000D02*
X43180000Y-47005000D01*
X175260000Y-45720000D02*
X172720000Y-45720000D01*
X26141980Y-55880000D02*
X35560000Y-55880000D01*
X113850000Y-35560000D02*
X116840000Y-35560000D01*
X139700000Y-55880000D02*
X129540000Y-45720000D01*
X45720000Y-44465000D02*
X45720000Y-38100000D01*
X160020000Y-55880000D02*
X162560000Y-55880000D01*
X93980000Y-35560000D02*
X96520000Y-35560000D01*
X96076040Y-26365000D02*
X87298604Y-26365000D01*
X27940000Y-40640000D02*
X31735000Y-36845000D01*
X46780000Y-49918832D02*
X43866168Y-47005000D01*
X78740000Y-55880000D02*
X81280000Y-55880000D01*
X87298604Y-26365000D02*
X83775000Y-29888604D01*
X160020000Y-55880000D02*
X149860000Y-45720000D01*
X139700000Y-55880000D02*
X142240000Y-55880000D01*
X55880000Y-55880000D02*
X46780000Y-55880000D01*
X154940000Y-35560000D02*
X157480000Y-35560000D01*
X134620000Y-35560000D02*
X137160000Y-35560000D01*
X99060000Y-55880000D02*
X88900000Y-45720000D01*
X55880000Y-55880000D02*
X58420000Y-55880000D01*
X27940000Y-43580000D02*
X27940000Y-40640000D01*
X83775000Y-29888604D02*
X83775000Y-53385000D01*
X129540000Y-45720000D02*
X132080000Y-43180000D01*
X111760000Y-43180000D02*
X111760000Y-37650000D01*
X119380000Y-55880000D02*
X121920000Y-55880000D01*
%TO.N,Net-(U1-QH')*%
X75075000Y-36685000D02*
X75185000Y-36575000D01*
X72794010Y-36685000D02*
X75075000Y-36685000D01*
X75185000Y-36575000D02*
X75185000Y-34545000D01*
X50800000Y-47005000D02*
X57135000Y-53340000D01*
X75185000Y-34545000D02*
X73660000Y-33020000D01*
X72135000Y-37344010D02*
X72794010Y-36685000D01*
X57135000Y-53340000D02*
X58420000Y-53340000D01*
X72135000Y-46735000D02*
X72135000Y-37344010D01*
X78740000Y-53340000D02*
X72135000Y-46735000D01*
%TO.N,Net-(J1-Pin_4)*%
X135635000Y-44705000D02*
X137160000Y-43180000D01*
X95526040Y-25915000D02*
X85845000Y-25915000D01*
X55880000Y-49545000D02*
X50800000Y-44465000D01*
X75750000Y-47810000D02*
X75750000Y-43180000D01*
X33260000Y-45990000D02*
X33260000Y-48500000D01*
X33260000Y-48500000D02*
X35560000Y-50800000D01*
X155955000Y-44705000D02*
X157480000Y-43180000D01*
X55880000Y-50800000D02*
X58420000Y-50800000D01*
X114300000Y-17719339D02*
X112270661Y-15690000D01*
X94995000Y-44705000D02*
X96520000Y-43180000D01*
X103060000Y-18381040D02*
X95526040Y-25915000D01*
X178815000Y-46185990D02*
X178815000Y-44705000D01*
X185420000Y-50800000D02*
X183429010Y-50800000D01*
X78740000Y-50800000D02*
X81280000Y-50800000D01*
X75750000Y-43180000D02*
X73660000Y-43180000D01*
X183429010Y-50800000D02*
X178815000Y-46185990D01*
X104140000Y-15690000D02*
X103060000Y-16770000D01*
X78740000Y-50800000D02*
X75750000Y-47810000D01*
X119380000Y-50800000D02*
X115315000Y-46735000D01*
X99060000Y-50800000D02*
X101600000Y-50800000D01*
X178815000Y-44705000D02*
X180340000Y-43180000D01*
X31735000Y-44465000D02*
X33260000Y-45990000D01*
X139700000Y-50800000D02*
X135635000Y-46735000D01*
X99060000Y-50800000D02*
X94995000Y-46735000D01*
X139700000Y-50800000D02*
X142240000Y-50800000D01*
X119380000Y-50800000D02*
X121920000Y-50800000D01*
X112270661Y-15690000D02*
X104140000Y-15690000D01*
X155955000Y-46735000D02*
X155955000Y-44705000D01*
X83325000Y-48755000D02*
X81280000Y-50800000D01*
X160020000Y-50800000D02*
X155955000Y-46735000D01*
X83325000Y-28435000D02*
X83325000Y-48755000D01*
X94995000Y-46735000D02*
X94995000Y-44705000D01*
X115315000Y-46735000D02*
X115315000Y-44705000D01*
X135635000Y-46735000D02*
X135635000Y-44705000D01*
X85845000Y-25915000D02*
X83325000Y-28435000D01*
X115315000Y-44705000D02*
X116840000Y-43180000D01*
X160020000Y-50800000D02*
X162560000Y-50800000D01*
X103060000Y-16770000D02*
X103060000Y-17780000D01*
X103060000Y-17780000D02*
X103060000Y-18381040D01*
X114300000Y-17780000D02*
X114300000Y-17719339D01*
X55880000Y-50800000D02*
X55880000Y-49545000D01*
%TO.N,Net-(J1-Pin_2)*%
X181865000Y-42165000D02*
X180340000Y-40640000D01*
X123400000Y-46780000D02*
X121920000Y-48260000D01*
X160020000Y-48260000D02*
X159295000Y-47535000D01*
X116300000Y-17178960D02*
X113911040Y-14790000D01*
X98045000Y-42165000D02*
X96520000Y-40640000D01*
X116300000Y-17780000D02*
X116300000Y-24772614D01*
X35259695Y-46445000D02*
X35560000Y-46445000D01*
X35560000Y-46445000D02*
X35560000Y-48260000D01*
X116300000Y-24772614D02*
X123400000Y-31872614D01*
X138975000Y-42455000D02*
X137160000Y-40640000D01*
X99060000Y-48260000D02*
X98045000Y-47245000D01*
X159295000Y-47535000D02*
X159295000Y-42455000D01*
X119380000Y-48260000D02*
X118655000Y-47535000D01*
X78740000Y-48260000D02*
X81280000Y-48260000D01*
X118655000Y-42455000D02*
X116840000Y-40640000D01*
X139700000Y-48260000D02*
X138975000Y-47535000D01*
X119380000Y-48260000D02*
X121920000Y-48260000D01*
X32990000Y-43180000D02*
X35110000Y-43180000D01*
X32490000Y-41925000D02*
X31735000Y-41925000D01*
X160020000Y-48260000D02*
X162560000Y-48260000D01*
X34835000Y-45419695D02*
X34835000Y-46020305D01*
X78740000Y-48260000D02*
X76200000Y-45720000D01*
X55880000Y-48260000D02*
X55880000Y-47005000D01*
X99060000Y-48260000D02*
X101600000Y-48260000D01*
X34835000Y-46020305D02*
X35259695Y-46445000D01*
X55880000Y-48260000D02*
X58420000Y-48260000D01*
X123400000Y-31872614D02*
X123400000Y-46780000D01*
X138975000Y-47535000D02*
X138975000Y-42455000D01*
X116300000Y-17780000D02*
X116300000Y-17178960D01*
X159295000Y-42455000D02*
X157480000Y-40640000D01*
X76200000Y-40640000D02*
X73660000Y-40640000D01*
X35110000Y-45144695D02*
X34835000Y-45419695D01*
X55880000Y-47005000D02*
X50800000Y-41925000D01*
X35110000Y-43180000D02*
X35110000Y-45144695D01*
X76200000Y-45720000D02*
X76200000Y-40640000D01*
X98045000Y-47245000D02*
X98045000Y-42165000D01*
X181865000Y-44705000D02*
X181865000Y-42165000D01*
X113911040Y-14790000D02*
X101873604Y-14790000D01*
X118655000Y-47535000D02*
X118655000Y-42455000D01*
X101060000Y-15603604D02*
X101060000Y-17780000D01*
X31735000Y-41925000D02*
X32990000Y-43180000D01*
X101873604Y-14790000D02*
X101060000Y-15603604D01*
X139700000Y-48260000D02*
X142240000Y-48260000D01*
X185420000Y-48260000D02*
X181865000Y-44705000D01*
%TO.N,Net-(J1-Pin_3)*%
X115300000Y-24409010D02*
X119380000Y-28489010D01*
X54625000Y-39385000D02*
X50800000Y-39385000D01*
X35560000Y-40640000D02*
X35560000Y-45720000D01*
X139700000Y-45720000D02*
X139700000Y-40640000D01*
X99060000Y-45720000D02*
X101600000Y-45720000D01*
X160020000Y-40640000D02*
X157480000Y-38100000D01*
X102060000Y-15240000D02*
X102060000Y-17780000D01*
X76200000Y-38100000D02*
X73660000Y-38100000D01*
X31735000Y-39385000D02*
X34305000Y-39385000D01*
X55880000Y-45720000D02*
X55880000Y-40640000D01*
X55880000Y-45720000D02*
X58420000Y-45720000D01*
X115300000Y-17719339D02*
X112820661Y-15240000D01*
X78740000Y-45720000D02*
X81280000Y-45720000D01*
X160020000Y-45720000D02*
X160020000Y-40640000D01*
X139700000Y-40640000D02*
X137160000Y-38100000D01*
X119380000Y-45720000D02*
X121920000Y-45720000D01*
X119380000Y-38100000D02*
X116840000Y-38100000D01*
X99060000Y-45720000D02*
X99060000Y-40640000D01*
X78740000Y-45720000D02*
X78740000Y-40640000D01*
X99060000Y-40640000D02*
X96520000Y-38100000D01*
X139700000Y-45720000D02*
X142240000Y-45720000D01*
X119380000Y-45720000D02*
X119380000Y-38100000D01*
X115300000Y-17780000D02*
X115300000Y-24409010D01*
X185420000Y-43180000D02*
X180340000Y-38100000D01*
X119380000Y-28489010D02*
X119380000Y-38100000D01*
X160020000Y-45720000D02*
X162560000Y-45720000D01*
X34305000Y-39385000D02*
X35560000Y-40640000D01*
X55880000Y-40640000D02*
X54625000Y-39385000D01*
X78740000Y-40640000D02*
X76200000Y-38100000D01*
X112820661Y-15240000D02*
X102060000Y-15240000D01*
X185420000Y-45720000D02*
X185420000Y-43180000D01*
%TO.N,Net-(U1-SER)*%
X52325000Y-37310990D02*
X52325000Y-35830000D01*
X31735000Y-49515000D02*
X35560000Y-53340000D01*
X31735000Y-47005000D02*
X31735000Y-49515000D01*
X48260000Y-46455990D02*
X48260000Y-39934010D01*
X55144010Y-53340000D02*
X48260000Y-46455990D01*
X55880000Y-53340000D02*
X55144010Y-53340000D01*
X48260000Y-39934010D02*
X50094010Y-38100000D01*
X50094010Y-38100000D02*
X51535990Y-38100000D01*
X52325000Y-35830000D02*
X50800000Y-34305000D01*
X51535990Y-38100000D02*
X52325000Y-37310990D01*
%TO.N,Net-(J1-Pin_6)*%
X178765000Y-26365000D02*
X180340000Y-27940000D01*
X157480000Y-27940000D02*
X159055000Y-26365000D01*
X159055000Y-26365000D02*
X178765000Y-26365000D01*
X132080000Y-22860000D02*
X137160000Y-27940000D01*
X155905000Y-26365000D02*
X157480000Y-27940000D01*
X108300000Y-19400000D02*
X116840000Y-27940000D01*
X105060000Y-19400000D02*
X108300000Y-19400000D01*
X117024500Y-22860000D02*
X132080000Y-22860000D01*
X116840000Y-27940000D02*
X114300000Y-25400000D01*
X114300000Y-25400000D02*
X114300000Y-22860000D01*
X96520000Y-27940000D02*
X99060000Y-27940000D01*
X50800000Y-27940000D02*
X50800000Y-29225000D01*
X43180000Y-22860000D02*
X45720000Y-22860000D01*
X73660000Y-27940000D02*
X78740000Y-22860000D01*
X31735000Y-29225000D02*
X38100000Y-22860000D01*
X38100000Y-22860000D02*
X40640000Y-22860000D01*
X105060000Y-19400000D02*
X96520000Y-27940000D01*
X137160000Y-27940000D02*
X138735000Y-26365000D01*
X45720000Y-22860000D02*
X50800000Y-27940000D01*
X138735000Y-26365000D02*
X155905000Y-26365000D01*
X73660000Y-27940000D02*
X72085000Y-26365000D01*
X53660000Y-26365000D02*
X50800000Y-29225000D01*
X105060000Y-17780000D02*
X105060000Y-19400000D01*
X78740000Y-22860000D02*
X96520000Y-22860000D01*
X72085000Y-26365000D02*
X53660000Y-26365000D01*
X99060000Y-27940000D02*
X104140000Y-22860000D01*
%TO.N,Net-(U2-QH')*%
X98045000Y-36575000D02*
X98045000Y-34545000D01*
X73660000Y-46770000D02*
X80230000Y-53340000D01*
X97935000Y-36685000D02*
X98045000Y-36575000D01*
X95944010Y-36685000D02*
X97935000Y-36685000D01*
X99060000Y-53340000D02*
X94545000Y-48825000D01*
X94545000Y-38084010D02*
X95944010Y-36685000D01*
X94545000Y-48825000D02*
X94545000Y-38084010D01*
X98045000Y-34545000D02*
X96520000Y-33020000D01*
X80230000Y-53340000D02*
X81280000Y-53340000D01*
X73660000Y-45720000D02*
X73660000Y-46770000D01*
%TO.N,Net-(J1-Pin_1)*%
X35805000Y-28956624D02*
X46981624Y-17780000D01*
X33020000Y-33020000D02*
X35560000Y-33020000D01*
X31735000Y-34305000D02*
X33020000Y-33020000D01*
X35805000Y-32775000D02*
X35805000Y-28956624D01*
X46981624Y-17780000D02*
X100060000Y-17780000D01*
X35560000Y-33020000D02*
X35805000Y-32775000D01*
%TO.N,Net-(U4-QH')*%
X118255000Y-36685000D02*
X118365000Y-36575000D01*
X119380000Y-53340000D02*
X114865000Y-48825000D01*
X114865000Y-38084010D02*
X116264010Y-36685000D01*
X102325000Y-50499695D02*
X102325000Y-52615000D01*
X96520000Y-45720000D02*
X96520000Y-46770000D01*
X114865000Y-48825000D02*
X114865000Y-38084010D01*
X96520000Y-46770000D02*
X99825000Y-50075000D01*
X101900305Y-50075000D02*
X102325000Y-50499695D01*
X99825000Y-50075000D02*
X101900305Y-50075000D01*
X118365000Y-34545000D02*
X116840000Y-33020000D01*
X118365000Y-36575000D02*
X118365000Y-34545000D01*
X116264010Y-36685000D02*
X118255000Y-36685000D01*
X102325000Y-52615000D02*
X101600000Y-53340000D01*
%TO.N,Net-(U5-QH')*%
X139700000Y-53340000D02*
X135185000Y-48825000D01*
X138685000Y-36575000D02*
X138685000Y-34545000D01*
X122645000Y-52615000D02*
X121920000Y-53340000D01*
X135185000Y-48825000D02*
X135185000Y-38084010D01*
X135185000Y-38084010D02*
X136584010Y-36685000D01*
X116840000Y-45720000D02*
X116840000Y-46770000D01*
X122220305Y-50075000D02*
X122645000Y-50499695D01*
X122645000Y-50499695D02*
X122645000Y-52615000D01*
X138685000Y-34545000D02*
X137160000Y-33020000D01*
X120145000Y-50075000D02*
X122220305Y-50075000D01*
X138575000Y-36685000D02*
X138685000Y-36575000D01*
X116840000Y-46770000D02*
X120145000Y-50075000D01*
X136584010Y-36685000D02*
X138575000Y-36685000D01*
%TO.N,Net-(U6-QH')*%
X155505000Y-38084010D02*
X156904010Y-36685000D01*
X160020000Y-53340000D02*
X155505000Y-48825000D01*
X158895000Y-36685000D02*
X159005000Y-36575000D01*
X155505000Y-48825000D02*
X155505000Y-38084010D01*
X142965000Y-52615000D02*
X142240000Y-53340000D01*
X137160000Y-46770000D02*
X140465000Y-50075000D01*
X159005000Y-36575000D02*
X159005000Y-34545000D01*
X159005000Y-34545000D02*
X157480000Y-33020000D01*
X142965000Y-50499695D02*
X142965000Y-52615000D01*
X137160000Y-45720000D02*
X137160000Y-46770000D01*
X156904010Y-36685000D02*
X158895000Y-36685000D01*
X142540305Y-50075000D02*
X142965000Y-50499695D01*
X140465000Y-50075000D02*
X142540305Y-50075000D01*
%TO.N,Net-(U7-QH')*%
X185420000Y-53340000D02*
X185332614Y-53340000D01*
X157480000Y-45720000D02*
X157480000Y-46770000D01*
X163285000Y-50499695D02*
X163285000Y-52615000D01*
X181205990Y-36685000D02*
X181865000Y-36025990D01*
X179215000Y-36685000D02*
X181205990Y-36685000D01*
X163285000Y-52615000D02*
X162560000Y-53340000D01*
X177800000Y-38100000D02*
X179215000Y-36685000D01*
X181865000Y-36025990D02*
X181865000Y-34545000D01*
X160785000Y-50075000D02*
X162860305Y-50075000D01*
X181865000Y-34545000D02*
X180340000Y-33020000D01*
X177800000Y-45807386D02*
X177800000Y-38100000D01*
X185332614Y-53340000D02*
X177800000Y-45807386D01*
X162860305Y-50075000D02*
X163285000Y-50499695D01*
X157480000Y-46770000D02*
X160785000Y-50075000D01*
%TO.N,Net-(J11-Pin_1)*%
X183605000Y-48985000D02*
X185720305Y-48985000D01*
X185720305Y-48985000D02*
X186145000Y-48560305D01*
X186145000Y-31205000D02*
X172720000Y-17780000D01*
X186145000Y-48560305D02*
X186145000Y-31205000D01*
X180340000Y-45720000D02*
X183605000Y-48985000D01*
X172720000Y-17780000D02*
X117300000Y-17780000D01*
%TD*%
M02*
