%TF.GenerationSoftware,KiCad,Pcbnew,7.0.9*%
%TF.CreationDate,2023-12-08T11:51:29+05:30*%
%TF.ProjectId,Led_Cube_BaseControler,4c65645f-4375-4626-955f-42617365436f,rev?*%
%TF.SameCoordinates,Original*%
%TF.FileFunction,Drillmap*%
%TF.FilePolarity,Positive*%
%FSLAX45Y45*%
G04 Gerber Fmt 4.5, Leading zero omitted, Abs format (unit mm)*
G04 Created by KiCad (PCBNEW 7.0.9) date 2023-12-08 11:51:29*
%MOMM*%
%LPD*%
G01*
G04 APERTURE LIST*
%ADD10C,0.100000*%
%ADD11C,0.200000*%
G04 APERTURE END LIST*
D10*
X1524000Y-1270000D02*
X19304000Y-1270000D01*
X19304000Y-8382000D01*
X1524000Y-8382000D01*
X1524000Y-1270000D01*
D11*
D10*
X3536000Y-4552000D02*
X3576000Y-4592000D01*
X3576000Y-4552000D02*
X3536000Y-4592000D01*
X3536000Y-4806000D02*
X3576000Y-4846000D01*
X3576000Y-4806000D02*
X3536000Y-4846000D01*
X3536000Y-5060000D02*
X3576000Y-5100000D01*
X3576000Y-5060000D02*
X3536000Y-5100000D01*
X3536000Y-5314000D02*
X3576000Y-5354000D01*
X3576000Y-5314000D02*
X3536000Y-5354000D01*
X3536000Y-5568000D02*
X3576000Y-5608000D01*
X3576000Y-5568000D02*
X3536000Y-5608000D01*
X4044000Y-2266000D02*
X4084000Y-2306000D01*
X4084000Y-2266000D02*
X4044000Y-2306000D01*
X4298000Y-2266000D02*
X4338000Y-2306000D01*
X4338000Y-2266000D02*
X4298000Y-2306000D01*
X5568000Y-4552000D02*
X5608000Y-4592000D01*
X5608000Y-4552000D02*
X5568000Y-4592000D01*
X5568000Y-4806000D02*
X5608000Y-4846000D01*
X5608000Y-4806000D02*
X5568000Y-4846000D01*
X5568000Y-5060000D02*
X5608000Y-5100000D01*
X5608000Y-5060000D02*
X5568000Y-5100000D01*
X5568000Y-5314000D02*
X5608000Y-5354000D01*
X5608000Y-5314000D02*
X5568000Y-5354000D01*
X5568000Y-5568000D02*
X5608000Y-5608000D01*
X5608000Y-5568000D02*
X5568000Y-5608000D01*
X5822000Y-4552000D02*
X5862000Y-4592000D01*
X5862000Y-4552000D02*
X5822000Y-4592000D01*
X5822000Y-4806000D02*
X5862000Y-4846000D01*
X5862000Y-4806000D02*
X5822000Y-4846000D01*
X5822000Y-5060000D02*
X5862000Y-5100000D01*
X5862000Y-5060000D02*
X5822000Y-5100000D01*
X5822000Y-5314000D02*
X5862000Y-5354000D01*
X5862000Y-5314000D02*
X5822000Y-5354000D01*
X5822000Y-5568000D02*
X5862000Y-5608000D01*
X5862000Y-5568000D02*
X5822000Y-5608000D01*
X7854000Y-4552000D02*
X7894000Y-4592000D01*
X7894000Y-4552000D02*
X7854000Y-4592000D01*
X7854000Y-4806000D02*
X7894000Y-4846000D01*
X7894000Y-4806000D02*
X7854000Y-4846000D01*
X7854000Y-5060000D02*
X7894000Y-5100000D01*
X7894000Y-5060000D02*
X7854000Y-5100000D01*
X7854000Y-5314000D02*
X7894000Y-5354000D01*
X7894000Y-5314000D02*
X7854000Y-5354000D01*
X7854000Y-5568000D02*
X7894000Y-5608000D01*
X7894000Y-5568000D02*
X7854000Y-5608000D01*
X8108000Y-4552000D02*
X8148000Y-4592000D01*
X8148000Y-4552000D02*
X8108000Y-4592000D01*
X8108000Y-4806000D02*
X8148000Y-4846000D01*
X8148000Y-4806000D02*
X8108000Y-4846000D01*
X8108000Y-5060000D02*
X8148000Y-5100000D01*
X8148000Y-5060000D02*
X8108000Y-5100000D01*
X8108000Y-5314000D02*
X8148000Y-5354000D01*
X8148000Y-5314000D02*
X8108000Y-5354000D01*
X8108000Y-5568000D02*
X8148000Y-5608000D01*
X8148000Y-5568000D02*
X8108000Y-5608000D01*
X9632000Y-2266000D02*
X9672000Y-2306000D01*
X9672000Y-2266000D02*
X9632000Y-2306000D01*
X9886000Y-4552000D02*
X9926000Y-4592000D01*
X9926000Y-4552000D02*
X9886000Y-4592000D01*
X9886000Y-4806000D02*
X9926000Y-4846000D01*
X9926000Y-4806000D02*
X9886000Y-4846000D01*
X9886000Y-5060000D02*
X9926000Y-5100000D01*
X9926000Y-5060000D02*
X9886000Y-5100000D01*
X9886000Y-5314000D02*
X9926000Y-5354000D01*
X9926000Y-5314000D02*
X9886000Y-5354000D01*
X9886000Y-5568000D02*
X9926000Y-5608000D01*
X9926000Y-5568000D02*
X9886000Y-5608000D01*
X10140000Y-4552000D02*
X10180000Y-4592000D01*
X10180000Y-4552000D02*
X10140000Y-4592000D01*
X10140000Y-4806000D02*
X10180000Y-4846000D01*
X10180000Y-4806000D02*
X10140000Y-4846000D01*
X10140000Y-5060000D02*
X10180000Y-5100000D01*
X10180000Y-5060000D02*
X10140000Y-5100000D01*
X10140000Y-5314000D02*
X10180000Y-5354000D01*
X10180000Y-5314000D02*
X10140000Y-5354000D01*
X10140000Y-5568000D02*
X10180000Y-5608000D01*
X10180000Y-5568000D02*
X10140000Y-5608000D01*
X10394000Y-2266000D02*
X10434000Y-2306000D01*
X10434000Y-2266000D02*
X10394000Y-2306000D01*
X11410000Y-2266000D02*
X11450000Y-2306000D01*
X11450000Y-2266000D02*
X11410000Y-2306000D01*
X11682450Y-2266000D02*
X11722450Y-2306000D01*
X11722450Y-2266000D02*
X11682450Y-2306000D01*
X11918000Y-4552000D02*
X11958000Y-4592000D01*
X11958000Y-4552000D02*
X11918000Y-4592000D01*
X11918000Y-4806000D02*
X11958000Y-4846000D01*
X11958000Y-4806000D02*
X11918000Y-4846000D01*
X11918000Y-5060000D02*
X11958000Y-5100000D01*
X11958000Y-5060000D02*
X11918000Y-5100000D01*
X11918000Y-5314000D02*
X11958000Y-5354000D01*
X11958000Y-5314000D02*
X11918000Y-5354000D01*
X11918000Y-5568000D02*
X11958000Y-5608000D01*
X11958000Y-5568000D02*
X11918000Y-5608000D01*
X12172000Y-4552000D02*
X12212000Y-4592000D01*
X12212000Y-4552000D02*
X12172000Y-4592000D01*
X12172000Y-4806000D02*
X12212000Y-4846000D01*
X12212000Y-4806000D02*
X12172000Y-4846000D01*
X12172000Y-5060000D02*
X12212000Y-5100000D01*
X12212000Y-5060000D02*
X12172000Y-5100000D01*
X12172000Y-5314000D02*
X12212000Y-5354000D01*
X12212000Y-5314000D02*
X12172000Y-5354000D01*
X12172000Y-5568000D02*
X12212000Y-5608000D01*
X12212000Y-5568000D02*
X12172000Y-5608000D01*
X13950000Y-4552000D02*
X13990000Y-4592000D01*
X13990000Y-4552000D02*
X13950000Y-4592000D01*
X13950000Y-4806000D02*
X13990000Y-4846000D01*
X13990000Y-4806000D02*
X13950000Y-4846000D01*
X13950000Y-5060000D02*
X13990000Y-5100000D01*
X13990000Y-5060000D02*
X13950000Y-5100000D01*
X13950000Y-5314000D02*
X13990000Y-5354000D01*
X13990000Y-5314000D02*
X13950000Y-5354000D01*
X13950000Y-5568000D02*
X13990000Y-5608000D01*
X13990000Y-5568000D02*
X13950000Y-5608000D01*
X14204000Y-4552000D02*
X14244000Y-4592000D01*
X14244000Y-4552000D02*
X14204000Y-4592000D01*
X14204000Y-4806000D02*
X14244000Y-4846000D01*
X14244000Y-4806000D02*
X14204000Y-4846000D01*
X14204000Y-5060000D02*
X14244000Y-5100000D01*
X14244000Y-5060000D02*
X14204000Y-5100000D01*
X14204000Y-5314000D02*
X14244000Y-5354000D01*
X14244000Y-5314000D02*
X14204000Y-5354000D01*
X14204000Y-5568000D02*
X14244000Y-5608000D01*
X14244000Y-5568000D02*
X14204000Y-5608000D01*
X15982000Y-4552000D02*
X16022000Y-4592000D01*
X16022000Y-4552000D02*
X15982000Y-4592000D01*
X15982000Y-4806000D02*
X16022000Y-4846000D01*
X16022000Y-4806000D02*
X15982000Y-4846000D01*
X15982000Y-5060000D02*
X16022000Y-5100000D01*
X16022000Y-5060000D02*
X15982000Y-5100000D01*
X15982000Y-5314000D02*
X16022000Y-5354000D01*
X16022000Y-5314000D02*
X15982000Y-5354000D01*
X15982000Y-5568000D02*
X16022000Y-5608000D01*
X16022000Y-5568000D02*
X15982000Y-5608000D01*
X16236000Y-4552000D02*
X16276000Y-4592000D01*
X16276000Y-4552000D02*
X16236000Y-4592000D01*
X16236000Y-4806000D02*
X16276000Y-4846000D01*
X16276000Y-4806000D02*
X16236000Y-4846000D01*
X16236000Y-5060000D02*
X16276000Y-5100000D01*
X16276000Y-5060000D02*
X16236000Y-5100000D01*
X16236000Y-5314000D02*
X16276000Y-5354000D01*
X16276000Y-5314000D02*
X16236000Y-5354000D01*
X16236000Y-5568000D02*
X16276000Y-5608000D01*
X16276000Y-5568000D02*
X16236000Y-5608000D01*
X18522000Y-4552000D02*
X18562000Y-4592000D01*
X18562000Y-4552000D02*
X18522000Y-4592000D01*
X18522000Y-4806000D02*
X18562000Y-4846000D01*
X18562000Y-4806000D02*
X18522000Y-4846000D01*
X18522000Y-5060000D02*
X18562000Y-5100000D01*
X18562000Y-5060000D02*
X18522000Y-5100000D01*
X18522000Y-5314000D02*
X18562000Y-5354000D01*
X18562000Y-5314000D02*
X18522000Y-5354000D01*
X18522000Y-5568000D02*
X18562000Y-5608000D01*
X18562000Y-5568000D02*
X18522000Y-5608000D01*
X6075000Y-7820000D02*
G75*
G03*
X6075000Y-7820000I-25000J0D01*
G01*
X6175000Y-7820000D02*
G75*
G03*
X6175000Y-7820000I-25000J0D01*
G01*
X6275000Y-7820000D02*
G75*
G03*
X6275000Y-7820000I-25000J0D01*
G01*
X6375000Y-7820000D02*
G75*
G03*
X6375000Y-7820000I-25000J0D01*
G01*
X6475000Y-7820000D02*
G75*
G03*
X6475000Y-7820000I-25000J0D01*
G01*
X6575000Y-7820000D02*
G75*
G03*
X6575000Y-7820000I-25000J0D01*
G01*
X6675000Y-7820000D02*
G75*
G03*
X6675000Y-7820000I-25000J0D01*
G01*
X6775000Y-7820000D02*
G75*
G03*
X6775000Y-7820000I-25000J0D01*
G01*
X7445000Y-7820000D02*
G75*
G03*
X7445000Y-7820000I-25000J0D01*
G01*
X7545000Y-7820000D02*
G75*
G03*
X7545000Y-7820000I-25000J0D01*
G01*
X7645000Y-7820000D02*
G75*
G03*
X7645000Y-7820000I-25000J0D01*
G01*
X7745000Y-7820000D02*
G75*
G03*
X7745000Y-7820000I-25000J0D01*
G01*
X7845000Y-7820000D02*
G75*
G03*
X7845000Y-7820000I-25000J0D01*
G01*
X7945000Y-7820000D02*
G75*
G03*
X7945000Y-7820000I-25000J0D01*
G01*
X8045000Y-7820000D02*
G75*
G03*
X8045000Y-7820000I-25000J0D01*
G01*
X8145000Y-7820000D02*
G75*
G03*
X8145000Y-7820000I-25000J0D01*
G01*
X8723000Y-7874000D02*
G75*
G03*
X8723000Y-7874000I-25000J0D01*
G01*
X8823000Y-7874000D02*
G75*
G03*
X8823000Y-7874000I-25000J0D01*
G01*
X8923000Y-7874000D02*
G75*
G03*
X8923000Y-7874000I-25000J0D01*
G01*
X9023000Y-7874000D02*
G75*
G03*
X9023000Y-7874000I-25000J0D01*
G01*
X9123000Y-7874000D02*
G75*
G03*
X9123000Y-7874000I-25000J0D01*
G01*
X9223000Y-7874000D02*
G75*
G03*
X9223000Y-7874000I-25000J0D01*
G01*
X9323000Y-7874000D02*
G75*
G03*
X9323000Y-7874000I-25000J0D01*
G01*
X9423000Y-7874000D02*
G75*
G03*
X9423000Y-7874000I-25000J0D01*
G01*
X10031000Y-1778000D02*
G75*
G03*
X10031000Y-1778000I-25000J0D01*
G01*
X10039000Y-7820000D02*
G75*
G03*
X10039000Y-7820000I-25000J0D01*
G01*
X10131000Y-1778000D02*
G75*
G03*
X10131000Y-1778000I-25000J0D01*
G01*
X10139000Y-7820000D02*
G75*
G03*
X10139000Y-7820000I-25000J0D01*
G01*
X10231000Y-1778000D02*
G75*
G03*
X10231000Y-1778000I-25000J0D01*
G01*
X10239000Y-7820000D02*
G75*
G03*
X10239000Y-7820000I-25000J0D01*
G01*
X10331000Y-1778000D02*
G75*
G03*
X10331000Y-1778000I-25000J0D01*
G01*
X10339000Y-7820000D02*
G75*
G03*
X10339000Y-7820000I-25000J0D01*
G01*
X10431000Y-1778000D02*
G75*
G03*
X10431000Y-1778000I-25000J0D01*
G01*
X10439000Y-7820000D02*
G75*
G03*
X10439000Y-7820000I-25000J0D01*
G01*
X10531000Y-1778000D02*
G75*
G03*
X10531000Y-1778000I-25000J0D01*
G01*
X10539000Y-7820000D02*
G75*
G03*
X10539000Y-7820000I-25000J0D01*
G01*
X10639000Y-7820000D02*
G75*
G03*
X10639000Y-7820000I-25000J0D01*
G01*
X10739000Y-7820000D02*
G75*
G03*
X10739000Y-7820000I-25000J0D01*
G01*
X11255000Y-7820000D02*
G75*
G03*
X11255000Y-7820000I-25000J0D01*
G01*
X11355000Y-1778000D02*
G75*
G03*
X11355000Y-1778000I-25000J0D01*
G01*
X11355000Y-7820000D02*
G75*
G03*
X11355000Y-7820000I-25000J0D01*
G01*
X11455000Y-1778000D02*
G75*
G03*
X11455000Y-1778000I-25000J0D01*
G01*
X11455000Y-7820000D02*
G75*
G03*
X11455000Y-7820000I-25000J0D01*
G01*
X11555000Y-1778000D02*
G75*
G03*
X11555000Y-1778000I-25000J0D01*
G01*
X11555000Y-7820000D02*
G75*
G03*
X11555000Y-7820000I-25000J0D01*
G01*
X11655000Y-1778000D02*
G75*
G03*
X11655000Y-1778000I-25000J0D01*
G01*
X11655000Y-7820000D02*
G75*
G03*
X11655000Y-7820000I-25000J0D01*
G01*
X11755000Y-1778000D02*
G75*
G03*
X11755000Y-1778000I-25000J0D01*
G01*
X11755000Y-7820000D02*
G75*
G03*
X11755000Y-7820000I-25000J0D01*
G01*
X11855000Y-7820000D02*
G75*
G03*
X11855000Y-7820000I-25000J0D01*
G01*
X11955000Y-7820000D02*
G75*
G03*
X11955000Y-7820000I-25000J0D01*
G01*
X12525000Y-7820000D02*
G75*
G03*
X12525000Y-7820000I-25000J0D01*
G01*
X12625000Y-7820000D02*
G75*
G03*
X12625000Y-7820000I-25000J0D01*
G01*
X12725000Y-7820000D02*
G75*
G03*
X12725000Y-7820000I-25000J0D01*
G01*
X12825000Y-7820000D02*
G75*
G03*
X12825000Y-7820000I-25000J0D01*
G01*
X12925000Y-7820000D02*
G75*
G03*
X12925000Y-7820000I-25000J0D01*
G01*
X13025000Y-7820000D02*
G75*
G03*
X13025000Y-7820000I-25000J0D01*
G01*
X13125000Y-7820000D02*
G75*
G03*
X13125000Y-7820000I-25000J0D01*
G01*
X13225000Y-7820000D02*
G75*
G03*
X13225000Y-7820000I-25000J0D01*
G01*
X14049000Y-7820000D02*
G75*
G03*
X14049000Y-7820000I-25000J0D01*
G01*
X14149000Y-7820000D02*
G75*
G03*
X14149000Y-7820000I-25000J0D01*
G01*
X14249000Y-7820000D02*
G75*
G03*
X14249000Y-7820000I-25000J0D01*
G01*
X14349000Y-7820000D02*
G75*
G03*
X14349000Y-7820000I-25000J0D01*
G01*
X14449000Y-7820000D02*
G75*
G03*
X14449000Y-7820000I-25000J0D01*
G01*
X14549000Y-7820000D02*
G75*
G03*
X14549000Y-7820000I-25000J0D01*
G01*
X14649000Y-7820000D02*
G75*
G03*
X14649000Y-7820000I-25000J0D01*
G01*
X14749000Y-7820000D02*
G75*
G03*
X14749000Y-7820000I-25000J0D01*
G01*
X15581000Y-7820000D02*
G75*
G03*
X15581000Y-7820000I-25000J0D01*
G01*
X15681000Y-7820000D02*
G75*
G03*
X15681000Y-7820000I-25000J0D01*
G01*
X15781000Y-7820000D02*
G75*
G03*
X15781000Y-7820000I-25000J0D01*
G01*
X15881000Y-7820000D02*
G75*
G03*
X15881000Y-7820000I-25000J0D01*
G01*
X15981000Y-7820000D02*
G75*
G03*
X15981000Y-7820000I-25000J0D01*
G01*
X16081000Y-7820000D02*
G75*
G03*
X16081000Y-7820000I-25000J0D01*
G01*
X16181000Y-7820000D02*
G75*
G03*
X16181000Y-7820000I-25000J0D01*
G01*
X16281000Y-7820000D02*
G75*
G03*
X16281000Y-7820000I-25000J0D01*
G01*
X2042000Y-6061000D02*
X2042000Y-6131000D01*
X2007000Y-6096000D02*
X2077000Y-6096000D01*
X2042000Y-6569000D02*
X2042000Y-6639000D01*
X2007000Y-6604000D02*
X2077000Y-6604000D01*
X2296000Y-6061000D02*
X2296000Y-6131000D01*
X2261000Y-6096000D02*
X2331000Y-6096000D01*
X2296000Y-6569000D02*
X2296000Y-6639000D01*
X2261000Y-6604000D02*
X2331000Y-6604000D01*
X2550000Y-6061000D02*
X2550000Y-6131000D01*
X2515000Y-6096000D02*
X2585000Y-6096000D01*
X2550000Y-6569000D02*
X2550000Y-6639000D01*
X2515000Y-6604000D02*
X2585000Y-6604000D01*
X2804000Y-6061000D02*
X2804000Y-6131000D01*
X2769000Y-6096000D02*
X2839000Y-6096000D01*
X2804000Y-6569000D02*
X2804000Y-6639000D01*
X2769000Y-6604000D02*
X2839000Y-6604000D01*
X3119000Y-6061000D02*
X3119000Y-6131000D01*
X3084000Y-6096000D02*
X3154000Y-6096000D01*
X3119000Y-6569000D02*
X3119000Y-6639000D01*
X3084000Y-6604000D02*
X3154000Y-6604000D01*
X3434000Y-6061000D02*
X3434000Y-6131000D01*
X3399000Y-6096000D02*
X3469000Y-6096000D01*
X3434000Y-6569000D02*
X3434000Y-6639000D01*
X3399000Y-6604000D02*
X3469000Y-6604000D01*
X3749000Y-6061000D02*
X3749000Y-6131000D01*
X3714000Y-6096000D02*
X3784000Y-6096000D01*
X3749000Y-6569000D02*
X3749000Y-6639000D01*
X3714000Y-6604000D02*
X3784000Y-6604000D01*
X4064000Y-6061000D02*
X4064000Y-6131000D01*
X4029000Y-6096000D02*
X4099000Y-6096000D01*
X4064000Y-6569000D02*
X4064000Y-6639000D01*
X4029000Y-6604000D02*
X4099000Y-6604000D01*
X4318000Y-6061000D02*
X4318000Y-6131000D01*
X4283000Y-6096000D02*
X4353000Y-6096000D01*
X4318000Y-6569000D02*
X4318000Y-6639000D01*
X4283000Y-6604000D02*
X4353000Y-6604000D01*
X4572000Y-6061000D02*
X4572000Y-6131000D01*
X4537000Y-6096000D02*
X4607000Y-6096000D01*
X4572000Y-6569000D02*
X4572000Y-6639000D01*
X4537000Y-6604000D02*
X4607000Y-6604000D01*
X4826000Y-6061000D02*
X4826000Y-6131000D01*
X4791000Y-6096000D02*
X4861000Y-6096000D01*
X4826000Y-6569000D02*
X4826000Y-6639000D01*
X4791000Y-6604000D02*
X4861000Y-6604000D01*
X5080000Y-6061000D02*
X5080000Y-6131000D01*
X5045000Y-6096000D02*
X5115000Y-6096000D01*
X5080000Y-6569000D02*
X5080000Y-6639000D01*
X5045000Y-6604000D02*
X5115000Y-6604000D01*
X5334000Y-6061000D02*
X5334000Y-6131000D01*
X5299000Y-6096000D02*
X5369000Y-6096000D01*
X5334000Y-6569000D02*
X5334000Y-6639000D01*
X5299000Y-6604000D02*
X5369000Y-6604000D01*
X5588000Y-6061000D02*
X5588000Y-6131000D01*
X5553000Y-6096000D02*
X5623000Y-6096000D01*
X5588000Y-6569000D02*
X5588000Y-6639000D01*
X5553000Y-6604000D02*
X5623000Y-6604000D01*
X5842000Y-6061000D02*
X5842000Y-6131000D01*
X5807000Y-6096000D02*
X5877000Y-6096000D01*
X5842000Y-6569000D02*
X5842000Y-6639000D01*
X5807000Y-6604000D02*
X5877000Y-6604000D01*
X6096000Y-6061000D02*
X6096000Y-6131000D01*
X6061000Y-6096000D02*
X6131000Y-6096000D01*
X6096000Y-6569000D02*
X6096000Y-6639000D01*
X6061000Y-6604000D02*
X6131000Y-6604000D01*
X6350000Y-6061000D02*
X6350000Y-6131000D01*
X6315000Y-6096000D02*
X6385000Y-6096000D01*
X6350000Y-6569000D02*
X6350000Y-6639000D01*
X6315000Y-6604000D02*
X6385000Y-6604000D01*
X6604000Y-6061000D02*
X6604000Y-6131000D01*
X6569000Y-6096000D02*
X6639000Y-6096000D01*
X6604000Y-6569000D02*
X6604000Y-6639000D01*
X6569000Y-6604000D02*
X6639000Y-6604000D01*
X6858000Y-6061000D02*
X6858000Y-6131000D01*
X6823000Y-6096000D02*
X6893000Y-6096000D01*
X6858000Y-6569000D02*
X6858000Y-6639000D01*
X6823000Y-6604000D02*
X6893000Y-6604000D01*
X7112000Y-6061000D02*
X7112000Y-6131000D01*
X7077000Y-6096000D02*
X7147000Y-6096000D01*
X7112000Y-6569000D02*
X7112000Y-6639000D01*
X7077000Y-6604000D02*
X7147000Y-6604000D01*
X7366000Y-6061000D02*
X7366000Y-6131000D01*
X7331000Y-6096000D02*
X7401000Y-6096000D01*
X7366000Y-6569000D02*
X7366000Y-6639000D01*
X7331000Y-6604000D02*
X7401000Y-6604000D01*
X7620000Y-6061000D02*
X7620000Y-6131000D01*
X7585000Y-6096000D02*
X7655000Y-6096000D01*
X7620000Y-6569000D02*
X7620000Y-6639000D01*
X7585000Y-6604000D02*
X7655000Y-6604000D01*
X7874000Y-6061000D02*
X7874000Y-6131000D01*
X7839000Y-6096000D02*
X7909000Y-6096000D01*
X7874000Y-6569000D02*
X7874000Y-6639000D01*
X7839000Y-6604000D02*
X7909000Y-6604000D01*
X8128000Y-6061000D02*
X8128000Y-6131000D01*
X8093000Y-6096000D02*
X8163000Y-6096000D01*
X8128000Y-6569000D02*
X8128000Y-6639000D01*
X8093000Y-6604000D02*
X8163000Y-6604000D01*
X8382000Y-6061000D02*
X8382000Y-6131000D01*
X8347000Y-6096000D02*
X8417000Y-6096000D01*
X8382000Y-6569000D02*
X8382000Y-6639000D01*
X8347000Y-6604000D02*
X8417000Y-6604000D01*
X8636000Y-6061000D02*
X8636000Y-6131000D01*
X8601000Y-6096000D02*
X8671000Y-6096000D01*
X8636000Y-6569000D02*
X8636000Y-6639000D01*
X8601000Y-6604000D02*
X8671000Y-6604000D01*
X8890000Y-6061000D02*
X8890000Y-6131000D01*
X8855000Y-6096000D02*
X8925000Y-6096000D01*
X8890000Y-6569000D02*
X8890000Y-6639000D01*
X8855000Y-6604000D02*
X8925000Y-6604000D01*
X9144000Y-6061000D02*
X9144000Y-6131000D01*
X9109000Y-6096000D02*
X9179000Y-6096000D01*
X9144000Y-6569000D02*
X9144000Y-6639000D01*
X9109000Y-6604000D02*
X9179000Y-6604000D01*
X9398000Y-6061000D02*
X9398000Y-6131000D01*
X9363000Y-6096000D02*
X9433000Y-6096000D01*
X9398000Y-6569000D02*
X9398000Y-6639000D01*
X9363000Y-6604000D02*
X9433000Y-6604000D01*
X9652000Y-6061000D02*
X9652000Y-6131000D01*
X9617000Y-6096000D02*
X9687000Y-6096000D01*
X9652000Y-6569000D02*
X9652000Y-6639000D01*
X9617000Y-6604000D02*
X9687000Y-6604000D01*
X9906000Y-6061000D02*
X9906000Y-6131000D01*
X9871000Y-6096000D02*
X9941000Y-6096000D01*
X9906000Y-6569000D02*
X9906000Y-6639000D01*
X9871000Y-6604000D02*
X9941000Y-6604000D01*
X10160000Y-6061000D02*
X10160000Y-6131000D01*
X10125000Y-6096000D02*
X10195000Y-6096000D01*
X10160000Y-6569000D02*
X10160000Y-6639000D01*
X10125000Y-6604000D02*
X10195000Y-6604000D01*
X10414000Y-6061000D02*
X10414000Y-6131000D01*
X10379000Y-6096000D02*
X10449000Y-6096000D01*
X10414000Y-6569000D02*
X10414000Y-6639000D01*
X10379000Y-6604000D02*
X10449000Y-6604000D01*
X10668000Y-6061000D02*
X10668000Y-6131000D01*
X10633000Y-6096000D02*
X10703000Y-6096000D01*
X10668000Y-6569000D02*
X10668000Y-6639000D01*
X10633000Y-6604000D02*
X10703000Y-6604000D01*
X10922000Y-6061000D02*
X10922000Y-6131000D01*
X10887000Y-6096000D02*
X10957000Y-6096000D01*
X10922000Y-6569000D02*
X10922000Y-6639000D01*
X10887000Y-6604000D02*
X10957000Y-6604000D01*
X11176000Y-6061000D02*
X11176000Y-6131000D01*
X11141000Y-6096000D02*
X11211000Y-6096000D01*
X11176000Y-6569000D02*
X11176000Y-6639000D01*
X11141000Y-6604000D02*
X11211000Y-6604000D01*
X11430000Y-6061000D02*
X11430000Y-6131000D01*
X11395000Y-6096000D02*
X11465000Y-6096000D01*
X11430000Y-6569000D02*
X11430000Y-6639000D01*
X11395000Y-6604000D02*
X11465000Y-6604000D01*
X11684000Y-6061000D02*
X11684000Y-6131000D01*
X11649000Y-6096000D02*
X11719000Y-6096000D01*
X11684000Y-6569000D02*
X11684000Y-6639000D01*
X11649000Y-6604000D02*
X11719000Y-6604000D01*
X11938000Y-6061000D02*
X11938000Y-6131000D01*
X11903000Y-6096000D02*
X11973000Y-6096000D01*
X11938000Y-6569000D02*
X11938000Y-6639000D01*
X11903000Y-6604000D02*
X11973000Y-6604000D01*
X12192000Y-6061000D02*
X12192000Y-6131000D01*
X12157000Y-6096000D02*
X12227000Y-6096000D01*
X12192000Y-6569000D02*
X12192000Y-6639000D01*
X12157000Y-6604000D02*
X12227000Y-6604000D01*
X12446000Y-6061000D02*
X12446000Y-6131000D01*
X12411000Y-6096000D02*
X12481000Y-6096000D01*
X12446000Y-6569000D02*
X12446000Y-6639000D01*
X12411000Y-6604000D02*
X12481000Y-6604000D01*
X12700000Y-6061000D02*
X12700000Y-6131000D01*
X12665000Y-6096000D02*
X12735000Y-6096000D01*
X12700000Y-6569000D02*
X12700000Y-6639000D01*
X12665000Y-6604000D02*
X12735000Y-6604000D01*
X12954000Y-6061000D02*
X12954000Y-6131000D01*
X12919000Y-6096000D02*
X12989000Y-6096000D01*
X12954000Y-6569000D02*
X12954000Y-6639000D01*
X12919000Y-6604000D02*
X12989000Y-6604000D01*
X13208000Y-6061000D02*
X13208000Y-6131000D01*
X13173000Y-6096000D02*
X13243000Y-6096000D01*
X13208000Y-6569000D02*
X13208000Y-6639000D01*
X13173000Y-6604000D02*
X13243000Y-6604000D01*
X13462000Y-6061000D02*
X13462000Y-6131000D01*
X13427000Y-6096000D02*
X13497000Y-6096000D01*
X13462000Y-6569000D02*
X13462000Y-6639000D01*
X13427000Y-6604000D02*
X13497000Y-6604000D01*
X13716000Y-6061000D02*
X13716000Y-6131000D01*
X13681000Y-6096000D02*
X13751000Y-6096000D01*
X13716000Y-6569000D02*
X13716000Y-6639000D01*
X13681000Y-6604000D02*
X13751000Y-6604000D01*
X13970000Y-6061000D02*
X13970000Y-6131000D01*
X13935000Y-6096000D02*
X14005000Y-6096000D01*
X13970000Y-6569000D02*
X13970000Y-6639000D01*
X13935000Y-6604000D02*
X14005000Y-6604000D01*
X14224000Y-6061000D02*
X14224000Y-6131000D01*
X14189000Y-6096000D02*
X14259000Y-6096000D01*
X14224000Y-6569000D02*
X14224000Y-6639000D01*
X14189000Y-6604000D02*
X14259000Y-6604000D01*
X14478000Y-6061000D02*
X14478000Y-6131000D01*
X14443000Y-6096000D02*
X14513000Y-6096000D01*
X14478000Y-6569000D02*
X14478000Y-6639000D01*
X14443000Y-6604000D02*
X14513000Y-6604000D01*
X14732000Y-6061000D02*
X14732000Y-6131000D01*
X14697000Y-6096000D02*
X14767000Y-6096000D01*
X14732000Y-6569000D02*
X14732000Y-6639000D01*
X14697000Y-6604000D02*
X14767000Y-6604000D01*
X14986000Y-6061000D02*
X14986000Y-6131000D01*
X14951000Y-6096000D02*
X15021000Y-6096000D01*
X14986000Y-6569000D02*
X14986000Y-6639000D01*
X14951000Y-6604000D02*
X15021000Y-6604000D01*
X15240000Y-6061000D02*
X15240000Y-6131000D01*
X15205000Y-6096000D02*
X15275000Y-6096000D01*
X15240000Y-6569000D02*
X15240000Y-6639000D01*
X15205000Y-6604000D02*
X15275000Y-6604000D01*
X15494000Y-6061000D02*
X15494000Y-6131000D01*
X15459000Y-6096000D02*
X15529000Y-6096000D01*
X15494000Y-6569000D02*
X15494000Y-6639000D01*
X15459000Y-6604000D02*
X15529000Y-6604000D01*
X15748000Y-6061000D02*
X15748000Y-6131000D01*
X15713000Y-6096000D02*
X15783000Y-6096000D01*
X15748000Y-6569000D02*
X15748000Y-6639000D01*
X15713000Y-6604000D02*
X15783000Y-6604000D01*
X16002000Y-6061000D02*
X16002000Y-6131000D01*
X15967000Y-6096000D02*
X16037000Y-6096000D01*
X16002000Y-6569000D02*
X16002000Y-6639000D01*
X15967000Y-6604000D02*
X16037000Y-6604000D01*
X16256000Y-6061000D02*
X16256000Y-6131000D01*
X16221000Y-6096000D02*
X16291000Y-6096000D01*
X16256000Y-6569000D02*
X16256000Y-6639000D01*
X16221000Y-6604000D02*
X16291000Y-6604000D01*
X16591000Y-6061000D02*
X16591000Y-6131000D01*
X16556000Y-6096000D02*
X16626000Y-6096000D01*
X16591000Y-6569000D02*
X16591000Y-6639000D01*
X16556000Y-6604000D02*
X16626000Y-6604000D01*
X16906000Y-6061000D02*
X16906000Y-6131000D01*
X16871000Y-6096000D02*
X16941000Y-6096000D01*
X16906000Y-6569000D02*
X16906000Y-6639000D01*
X16871000Y-6604000D02*
X16941000Y-6604000D01*
X17221000Y-6061000D02*
X17221000Y-6131000D01*
X17186000Y-6096000D02*
X17256000Y-6096000D01*
X17221000Y-6569000D02*
X17221000Y-6639000D01*
X17186000Y-6604000D02*
X17256000Y-6604000D01*
X17536000Y-6061000D02*
X17536000Y-6131000D01*
X17501000Y-6096000D02*
X17571000Y-6096000D01*
X17536000Y-6569000D02*
X17536000Y-6639000D01*
X17501000Y-6604000D02*
X17571000Y-6604000D01*
X17851000Y-6061000D02*
X17851000Y-6131000D01*
X17816000Y-6096000D02*
X17886000Y-6096000D01*
X17851000Y-6569000D02*
X17851000Y-6639000D01*
X17816000Y-6604000D02*
X17886000Y-6604000D01*
X18166000Y-6061000D02*
X18166000Y-6131000D01*
X18131000Y-6096000D02*
X18201000Y-6096000D01*
X18166000Y-6569000D02*
X18166000Y-6639000D01*
X18131000Y-6604000D02*
X18201000Y-6604000D01*
X18481000Y-6061000D02*
X18481000Y-6131000D01*
X18446000Y-6096000D02*
X18516000Y-6096000D01*
X18481000Y-6569000D02*
X18481000Y-6639000D01*
X18446000Y-6604000D02*
X18516000Y-6604000D01*
X18796000Y-6061000D02*
X18796000Y-6131000D01*
X18761000Y-6096000D02*
X18831000Y-6096000D01*
X18796000Y-6569000D02*
X18796000Y-6639000D01*
X18761000Y-6604000D02*
X18831000Y-6604000D01*
X2439785Y-2950784D02*
X2439785Y-2894215D01*
X2383216Y-2894215D01*
X2383216Y-2950784D01*
X2439785Y-2950784D01*
X2439785Y-3204784D02*
X2439785Y-3148215D01*
X2383216Y-3148215D01*
X2383216Y-3204784D01*
X2439785Y-3204784D01*
X2439785Y-3458784D02*
X2439785Y-3402215D01*
X2383216Y-3402215D01*
X2383216Y-3458784D01*
X2439785Y-3458784D01*
X2439785Y-3712784D02*
X2439785Y-3656215D01*
X2383216Y-3656215D01*
X2383216Y-3712784D01*
X2439785Y-3712784D01*
X2439785Y-3966784D02*
X2439785Y-3910215D01*
X2383216Y-3910215D01*
X2383216Y-3966784D01*
X2439785Y-3966784D01*
X2439785Y-4220785D02*
X2439785Y-4164215D01*
X2383216Y-4164215D01*
X2383216Y-4220785D01*
X2439785Y-4220785D01*
X2439785Y-4474785D02*
X2439785Y-4418216D01*
X2383216Y-4418216D01*
X2383216Y-4474785D01*
X2439785Y-4474785D01*
X2439785Y-4728785D02*
X2439785Y-4672216D01*
X2383216Y-4672216D01*
X2383216Y-4728785D01*
X2439785Y-4728785D01*
X3201784Y-2950784D02*
X3201784Y-2894215D01*
X3145215Y-2894215D01*
X3145215Y-2950784D01*
X3201784Y-2950784D01*
X3201784Y-3204784D02*
X3201784Y-3148215D01*
X3145215Y-3148215D01*
X3145215Y-3204784D01*
X3201784Y-3204784D01*
X3201784Y-3458784D02*
X3201784Y-3402215D01*
X3145215Y-3402215D01*
X3145215Y-3458784D01*
X3201784Y-3458784D01*
X3201784Y-3712784D02*
X3201784Y-3656215D01*
X3145215Y-3656215D01*
X3145215Y-3712784D01*
X3201784Y-3712784D01*
X3201784Y-3966784D02*
X3201784Y-3910215D01*
X3145215Y-3910215D01*
X3145215Y-3966784D01*
X3201784Y-3966784D01*
X3201784Y-4220785D02*
X3201784Y-4164215D01*
X3145215Y-4164215D01*
X3145215Y-4220785D01*
X3201784Y-4220785D01*
X3201784Y-4474785D02*
X3201784Y-4418216D01*
X3145215Y-4418216D01*
X3145215Y-4474785D01*
X3201784Y-4474785D01*
X3201784Y-4728785D02*
X3201784Y-4672216D01*
X3145215Y-4672216D01*
X3145215Y-4728785D01*
X3201784Y-4728785D01*
X4346285Y-2950784D02*
X4346285Y-2894215D01*
X4289716Y-2894215D01*
X4289716Y-2950784D01*
X4346285Y-2950784D01*
X4346285Y-3204784D02*
X4346285Y-3148215D01*
X4289716Y-3148215D01*
X4289716Y-3204784D01*
X4346285Y-3204784D01*
X4346285Y-3458784D02*
X4346285Y-3402215D01*
X4289716Y-3402215D01*
X4289716Y-3458784D01*
X4346285Y-3458784D01*
X4346285Y-3712784D02*
X4346285Y-3656215D01*
X4289716Y-3656215D01*
X4289716Y-3712784D01*
X4346285Y-3712784D01*
X4346285Y-3966784D02*
X4346285Y-3910215D01*
X4289716Y-3910215D01*
X4289716Y-3966784D01*
X4346285Y-3966784D01*
X4346285Y-4220785D02*
X4346285Y-4164215D01*
X4289716Y-4164215D01*
X4289716Y-4220785D01*
X4346285Y-4220785D01*
X4346285Y-4474785D02*
X4346285Y-4418216D01*
X4289716Y-4418216D01*
X4289716Y-4474785D01*
X4346285Y-4474785D01*
X4346285Y-4728785D02*
X4346285Y-4672216D01*
X4289716Y-4672216D01*
X4289716Y-4728785D01*
X4346285Y-4728785D01*
X5108285Y-2950784D02*
X5108285Y-2894215D01*
X5051716Y-2894215D01*
X5051716Y-2950784D01*
X5108285Y-2950784D01*
X5108285Y-3204784D02*
X5108285Y-3148215D01*
X5051716Y-3148215D01*
X5051716Y-3204784D01*
X5108285Y-3204784D01*
X5108285Y-3458784D02*
X5108285Y-3402215D01*
X5051716Y-3402215D01*
X5051716Y-3458784D01*
X5108285Y-3458784D01*
X5108285Y-3712784D02*
X5108285Y-3656215D01*
X5051716Y-3656215D01*
X5051716Y-3712784D01*
X5108285Y-3712784D01*
X5108285Y-3966784D02*
X5108285Y-3910215D01*
X5051716Y-3910215D01*
X5051716Y-3966784D01*
X5108285Y-3966784D01*
X5108285Y-4220785D02*
X5108285Y-4164215D01*
X5051716Y-4164215D01*
X5051716Y-4220785D01*
X5108285Y-4220785D01*
X5108285Y-4474785D02*
X5108285Y-4418216D01*
X5051716Y-4418216D01*
X5051716Y-4474785D01*
X5108285Y-4474785D01*
X5108285Y-4728785D02*
X5108285Y-4672216D01*
X5051716Y-4672216D01*
X5051716Y-4728785D01*
X5108285Y-4728785D01*
X6632284Y-2822284D02*
X6632284Y-2765716D01*
X6575715Y-2765716D01*
X6575715Y-2822284D01*
X6632284Y-2822284D01*
X6632284Y-3076284D02*
X6632284Y-3019715D01*
X6575715Y-3019715D01*
X6575715Y-3076284D01*
X6632284Y-3076284D01*
X6632284Y-3330284D02*
X6632284Y-3273715D01*
X6575715Y-3273715D01*
X6575715Y-3330284D01*
X6632284Y-3330284D01*
X6632284Y-3584284D02*
X6632284Y-3527715D01*
X6575715Y-3527715D01*
X6575715Y-3584284D01*
X6632284Y-3584284D01*
X6632284Y-3838284D02*
X6632284Y-3781715D01*
X6575715Y-3781715D01*
X6575715Y-3838284D01*
X6632284Y-3838284D01*
X6632284Y-4092284D02*
X6632284Y-4035715D01*
X6575715Y-4035715D01*
X6575715Y-4092284D01*
X6632284Y-4092284D01*
X6632284Y-4346285D02*
X6632284Y-4289716D01*
X6575715Y-4289716D01*
X6575715Y-4346285D01*
X6632284Y-4346285D01*
X6632284Y-4600285D02*
X6632284Y-4543716D01*
X6575715Y-4543716D01*
X6575715Y-4600285D01*
X6632284Y-4600285D01*
X7394284Y-2822284D02*
X7394284Y-2765716D01*
X7337715Y-2765716D01*
X7337715Y-2822284D01*
X7394284Y-2822284D01*
X7394284Y-3076284D02*
X7394284Y-3019715D01*
X7337715Y-3019715D01*
X7337715Y-3076284D01*
X7394284Y-3076284D01*
X7394284Y-3330284D02*
X7394284Y-3273715D01*
X7337715Y-3273715D01*
X7337715Y-3330284D01*
X7394284Y-3330284D01*
X7394284Y-3584284D02*
X7394284Y-3527715D01*
X7337715Y-3527715D01*
X7337715Y-3584284D01*
X7394284Y-3584284D01*
X7394284Y-3838284D02*
X7394284Y-3781715D01*
X7337715Y-3781715D01*
X7337715Y-3838284D01*
X7394284Y-3838284D01*
X7394284Y-4092284D02*
X7394284Y-4035715D01*
X7337715Y-4035715D01*
X7337715Y-4092284D01*
X7394284Y-4092284D01*
X7394284Y-4346285D02*
X7394284Y-4289716D01*
X7337715Y-4289716D01*
X7337715Y-4346285D01*
X7394284Y-4346285D01*
X7394284Y-4600285D02*
X7394284Y-4543716D01*
X7337715Y-4543716D01*
X7337715Y-4600285D01*
X7394284Y-4600285D01*
X8918285Y-2822284D02*
X8918285Y-2765716D01*
X8861716Y-2765716D01*
X8861716Y-2822284D01*
X8918285Y-2822284D01*
X8918285Y-3076284D02*
X8918285Y-3019715D01*
X8861716Y-3019715D01*
X8861716Y-3076284D01*
X8918285Y-3076284D01*
X8918285Y-3330284D02*
X8918285Y-3273715D01*
X8861716Y-3273715D01*
X8861716Y-3330284D01*
X8918285Y-3330284D01*
X8918285Y-3584284D02*
X8918285Y-3527715D01*
X8861716Y-3527715D01*
X8861716Y-3584284D01*
X8918285Y-3584284D01*
X8918285Y-3838284D02*
X8918285Y-3781715D01*
X8861716Y-3781715D01*
X8861716Y-3838284D01*
X8918285Y-3838284D01*
X8918285Y-4092284D02*
X8918285Y-4035715D01*
X8861716Y-4035715D01*
X8861716Y-4092284D01*
X8918285Y-4092284D01*
X8918285Y-4346285D02*
X8918285Y-4289716D01*
X8861716Y-4289716D01*
X8861716Y-4346285D01*
X8918285Y-4346285D01*
X8918285Y-4600285D02*
X8918285Y-4543716D01*
X8861716Y-4543716D01*
X8861716Y-4600285D01*
X8918285Y-4600285D01*
X9680285Y-2822284D02*
X9680285Y-2765716D01*
X9623716Y-2765716D01*
X9623716Y-2822284D01*
X9680285Y-2822284D01*
X9680285Y-3076284D02*
X9680285Y-3019715D01*
X9623716Y-3019715D01*
X9623716Y-3076284D01*
X9680285Y-3076284D01*
X9680285Y-3330284D02*
X9680285Y-3273715D01*
X9623716Y-3273715D01*
X9623716Y-3330284D01*
X9680285Y-3330284D01*
X9680285Y-3584284D02*
X9680285Y-3527715D01*
X9623716Y-3527715D01*
X9623716Y-3584284D01*
X9680285Y-3584284D01*
X9680285Y-3838284D02*
X9680285Y-3781715D01*
X9623716Y-3781715D01*
X9623716Y-3838284D01*
X9680285Y-3838284D01*
X9680285Y-4092284D02*
X9680285Y-4035715D01*
X9623716Y-4035715D01*
X9623716Y-4092284D01*
X9680285Y-4092284D01*
X9680285Y-4346285D02*
X9680285Y-4289716D01*
X9623716Y-4289716D01*
X9623716Y-4346285D01*
X9680285Y-4346285D01*
X9680285Y-4600285D02*
X9680285Y-4543716D01*
X9623716Y-4543716D01*
X9623716Y-4600285D01*
X9680285Y-4600285D01*
X10950285Y-2822284D02*
X10950285Y-2765716D01*
X10893716Y-2765716D01*
X10893716Y-2822284D01*
X10950285Y-2822284D01*
X10950285Y-3076284D02*
X10950285Y-3019715D01*
X10893716Y-3019715D01*
X10893716Y-3076284D01*
X10950285Y-3076284D01*
X10950285Y-3330284D02*
X10950285Y-3273715D01*
X10893716Y-3273715D01*
X10893716Y-3330284D01*
X10950285Y-3330284D01*
X10950285Y-3584284D02*
X10950285Y-3527715D01*
X10893716Y-3527715D01*
X10893716Y-3584284D01*
X10950285Y-3584284D01*
X10950285Y-3838284D02*
X10950285Y-3781715D01*
X10893716Y-3781715D01*
X10893716Y-3838284D01*
X10950285Y-3838284D01*
X10950285Y-4092284D02*
X10950285Y-4035715D01*
X10893716Y-4035715D01*
X10893716Y-4092284D01*
X10950285Y-4092284D01*
X10950285Y-4346285D02*
X10950285Y-4289716D01*
X10893716Y-4289716D01*
X10893716Y-4346285D01*
X10950285Y-4346285D01*
X10950285Y-4600285D02*
X10950285Y-4543716D01*
X10893716Y-4543716D01*
X10893716Y-4600285D01*
X10950285Y-4600285D01*
X11712284Y-2822284D02*
X11712284Y-2765716D01*
X11655715Y-2765716D01*
X11655715Y-2822284D01*
X11712284Y-2822284D01*
X11712284Y-3076284D02*
X11712284Y-3019715D01*
X11655715Y-3019715D01*
X11655715Y-3076284D01*
X11712284Y-3076284D01*
X11712284Y-3330284D02*
X11712284Y-3273715D01*
X11655715Y-3273715D01*
X11655715Y-3330284D01*
X11712284Y-3330284D01*
X11712284Y-3584284D02*
X11712284Y-3527715D01*
X11655715Y-3527715D01*
X11655715Y-3584284D01*
X11712284Y-3584284D01*
X11712284Y-3838284D02*
X11712284Y-3781715D01*
X11655715Y-3781715D01*
X11655715Y-3838284D01*
X11712284Y-3838284D01*
X11712284Y-4092284D02*
X11712284Y-4035715D01*
X11655715Y-4035715D01*
X11655715Y-4092284D01*
X11712284Y-4092284D01*
X11712284Y-4346285D02*
X11712284Y-4289716D01*
X11655715Y-4289716D01*
X11655715Y-4346285D01*
X11712284Y-4346285D01*
X11712284Y-4600285D02*
X11712284Y-4543716D01*
X11655715Y-4543716D01*
X11655715Y-4600285D01*
X11712284Y-4600285D01*
X12982284Y-2822284D02*
X12982284Y-2765716D01*
X12925715Y-2765716D01*
X12925715Y-2822284D01*
X12982284Y-2822284D01*
X12982284Y-3076284D02*
X12982284Y-3019715D01*
X12925715Y-3019715D01*
X12925715Y-3076284D01*
X12982284Y-3076284D01*
X12982284Y-3330284D02*
X12982284Y-3273715D01*
X12925715Y-3273715D01*
X12925715Y-3330284D01*
X12982284Y-3330284D01*
X12982284Y-3584284D02*
X12982284Y-3527715D01*
X12925715Y-3527715D01*
X12925715Y-3584284D01*
X12982284Y-3584284D01*
X12982284Y-3838284D02*
X12982284Y-3781715D01*
X12925715Y-3781715D01*
X12925715Y-3838284D01*
X12982284Y-3838284D01*
X12982284Y-4092284D02*
X12982284Y-4035715D01*
X12925715Y-4035715D01*
X12925715Y-4092284D01*
X12982284Y-4092284D01*
X12982284Y-4346285D02*
X12982284Y-4289716D01*
X12925715Y-4289716D01*
X12925715Y-4346285D01*
X12982284Y-4346285D01*
X12982284Y-4600285D02*
X12982284Y-4543716D01*
X12925715Y-4543716D01*
X12925715Y-4600285D01*
X12982284Y-4600285D01*
X13744284Y-2822284D02*
X13744284Y-2765716D01*
X13687715Y-2765716D01*
X13687715Y-2822284D01*
X13744284Y-2822284D01*
X13744284Y-3076284D02*
X13744284Y-3019715D01*
X13687715Y-3019715D01*
X13687715Y-3076284D01*
X13744284Y-3076284D01*
X13744284Y-3330284D02*
X13744284Y-3273715D01*
X13687715Y-3273715D01*
X13687715Y-3330284D01*
X13744284Y-3330284D01*
X13744284Y-3584284D02*
X13744284Y-3527715D01*
X13687715Y-3527715D01*
X13687715Y-3584284D01*
X13744284Y-3584284D01*
X13744284Y-3838284D02*
X13744284Y-3781715D01*
X13687715Y-3781715D01*
X13687715Y-3838284D01*
X13744284Y-3838284D01*
X13744284Y-4092284D02*
X13744284Y-4035715D01*
X13687715Y-4035715D01*
X13687715Y-4092284D01*
X13744284Y-4092284D01*
X13744284Y-4346285D02*
X13744284Y-4289716D01*
X13687715Y-4289716D01*
X13687715Y-4346285D01*
X13744284Y-4346285D01*
X13744284Y-4600285D02*
X13744284Y-4543716D01*
X13687715Y-4543716D01*
X13687715Y-4600285D01*
X13744284Y-4600285D01*
X15014284Y-2822284D02*
X15014284Y-2765716D01*
X14957715Y-2765716D01*
X14957715Y-2822284D01*
X15014284Y-2822284D01*
X15014284Y-3076284D02*
X15014284Y-3019715D01*
X14957715Y-3019715D01*
X14957715Y-3076284D01*
X15014284Y-3076284D01*
X15014284Y-3330284D02*
X15014284Y-3273715D01*
X14957715Y-3273715D01*
X14957715Y-3330284D01*
X15014284Y-3330284D01*
X15014284Y-3584284D02*
X15014284Y-3527715D01*
X14957715Y-3527715D01*
X14957715Y-3584284D01*
X15014284Y-3584284D01*
X15014284Y-3838284D02*
X15014284Y-3781715D01*
X14957715Y-3781715D01*
X14957715Y-3838284D01*
X15014284Y-3838284D01*
X15014284Y-4092284D02*
X15014284Y-4035715D01*
X14957715Y-4035715D01*
X14957715Y-4092284D01*
X15014284Y-4092284D01*
X15014284Y-4346285D02*
X15014284Y-4289716D01*
X14957715Y-4289716D01*
X14957715Y-4346285D01*
X15014284Y-4346285D01*
X15014284Y-4600285D02*
X15014284Y-4543716D01*
X14957715Y-4543716D01*
X14957715Y-4600285D01*
X15014284Y-4600285D01*
X15776284Y-2822284D02*
X15776284Y-2765716D01*
X15719715Y-2765716D01*
X15719715Y-2822284D01*
X15776284Y-2822284D01*
X15776284Y-3076284D02*
X15776284Y-3019715D01*
X15719715Y-3019715D01*
X15719715Y-3076284D01*
X15776284Y-3076284D01*
X15776284Y-3330284D02*
X15776284Y-3273715D01*
X15719715Y-3273715D01*
X15719715Y-3330284D01*
X15776284Y-3330284D01*
X15776284Y-3584284D02*
X15776284Y-3527715D01*
X15719715Y-3527715D01*
X15719715Y-3584284D01*
X15776284Y-3584284D01*
X15776284Y-3838284D02*
X15776284Y-3781715D01*
X15719715Y-3781715D01*
X15719715Y-3838284D01*
X15776284Y-3838284D01*
X15776284Y-4092284D02*
X15776284Y-4035715D01*
X15719715Y-4035715D01*
X15719715Y-4092284D01*
X15776284Y-4092284D01*
X15776284Y-4346285D02*
X15776284Y-4289716D01*
X15719715Y-4289716D01*
X15719715Y-4346285D01*
X15776284Y-4346285D01*
X15776284Y-4600285D02*
X15776284Y-4543716D01*
X15719715Y-4543716D01*
X15719715Y-4600285D01*
X15776284Y-4600285D01*
X17300285Y-2822284D02*
X17300285Y-2765716D01*
X17243716Y-2765716D01*
X17243716Y-2822284D01*
X17300285Y-2822284D01*
X17300285Y-3076284D02*
X17300285Y-3019715D01*
X17243716Y-3019715D01*
X17243716Y-3076284D01*
X17300285Y-3076284D01*
X17300285Y-3330284D02*
X17300285Y-3273715D01*
X17243716Y-3273715D01*
X17243716Y-3330284D01*
X17300285Y-3330284D01*
X17300285Y-3584284D02*
X17300285Y-3527715D01*
X17243716Y-3527715D01*
X17243716Y-3584284D01*
X17300285Y-3584284D01*
X17300285Y-3838284D02*
X17300285Y-3781715D01*
X17243716Y-3781715D01*
X17243716Y-3838284D01*
X17300285Y-3838284D01*
X17300285Y-4092284D02*
X17300285Y-4035715D01*
X17243716Y-4035715D01*
X17243716Y-4092284D01*
X17300285Y-4092284D01*
X17300285Y-4346285D02*
X17300285Y-4289716D01*
X17243716Y-4289716D01*
X17243716Y-4346285D01*
X17300285Y-4346285D01*
X17300285Y-4600285D02*
X17300285Y-4543716D01*
X17243716Y-4543716D01*
X17243716Y-4600285D01*
X17300285Y-4600285D01*
X18062285Y-2822284D02*
X18062285Y-2765716D01*
X18005716Y-2765716D01*
X18005716Y-2822284D01*
X18062285Y-2822284D01*
X18062285Y-3076284D02*
X18062285Y-3019715D01*
X18005716Y-3019715D01*
X18005716Y-3076284D01*
X18062285Y-3076284D01*
X18062285Y-3330284D02*
X18062285Y-3273715D01*
X18005716Y-3273715D01*
X18005716Y-3330284D01*
X18062285Y-3330284D01*
X18062285Y-3584284D02*
X18062285Y-3527715D01*
X18005716Y-3527715D01*
X18005716Y-3584284D01*
X18062285Y-3584284D01*
X18062285Y-3838284D02*
X18062285Y-3781715D01*
X18005716Y-3781715D01*
X18005716Y-3838284D01*
X18062285Y-3838284D01*
X18062285Y-4092284D02*
X18062285Y-4035715D01*
X18005716Y-4035715D01*
X18005716Y-4092284D01*
X18062285Y-4092284D01*
X18062285Y-4346285D02*
X18062285Y-4289716D01*
X18005716Y-4289716D01*
X18005716Y-4346285D01*
X18062285Y-4346285D01*
X18062285Y-4600285D02*
X18062285Y-4543716D01*
X18005716Y-4543716D01*
X18005716Y-4600285D01*
X18062285Y-4600285D01*
D11*
X1779777Y-8698484D02*
X1779777Y-8498484D01*
X1779777Y-8498484D02*
X1827396Y-8498484D01*
X1827396Y-8498484D02*
X1855967Y-8508008D01*
X1855967Y-8508008D02*
X1875015Y-8527055D01*
X1875015Y-8527055D02*
X1884539Y-8546103D01*
X1884539Y-8546103D02*
X1894062Y-8584198D01*
X1894062Y-8584198D02*
X1894062Y-8612770D01*
X1894062Y-8612770D02*
X1884539Y-8650865D01*
X1884539Y-8650865D02*
X1875015Y-8669912D01*
X1875015Y-8669912D02*
X1855967Y-8688960D01*
X1855967Y-8688960D02*
X1827396Y-8698484D01*
X1827396Y-8698484D02*
X1779777Y-8698484D01*
X1979777Y-8698484D02*
X1979777Y-8565150D01*
X1979777Y-8603246D02*
X1989301Y-8584198D01*
X1989301Y-8584198D02*
X1998824Y-8574674D01*
X1998824Y-8574674D02*
X2017872Y-8565150D01*
X2017872Y-8565150D02*
X2036920Y-8565150D01*
X2103586Y-8698484D02*
X2103586Y-8565150D01*
X2103586Y-8498484D02*
X2094062Y-8508008D01*
X2094062Y-8508008D02*
X2103586Y-8517531D01*
X2103586Y-8517531D02*
X2113110Y-8508008D01*
X2113110Y-8508008D02*
X2103586Y-8498484D01*
X2103586Y-8498484D02*
X2103586Y-8517531D01*
X2227396Y-8698484D02*
X2208348Y-8688960D01*
X2208348Y-8688960D02*
X2198824Y-8669912D01*
X2198824Y-8669912D02*
X2198824Y-8498484D01*
X2332158Y-8698484D02*
X2313110Y-8688960D01*
X2313110Y-8688960D02*
X2303586Y-8669912D01*
X2303586Y-8669912D02*
X2303586Y-8498484D01*
X2560729Y-8698484D02*
X2560729Y-8498484D01*
X2560729Y-8498484D02*
X2627396Y-8641341D01*
X2627396Y-8641341D02*
X2694063Y-8498484D01*
X2694063Y-8498484D02*
X2694063Y-8698484D01*
X2875015Y-8698484D02*
X2875015Y-8593722D01*
X2875015Y-8593722D02*
X2865491Y-8574674D01*
X2865491Y-8574674D02*
X2846443Y-8565150D01*
X2846443Y-8565150D02*
X2808348Y-8565150D01*
X2808348Y-8565150D02*
X2789301Y-8574674D01*
X2875015Y-8688960D02*
X2855967Y-8698484D01*
X2855967Y-8698484D02*
X2808348Y-8698484D01*
X2808348Y-8698484D02*
X2789301Y-8688960D01*
X2789301Y-8688960D02*
X2779777Y-8669912D01*
X2779777Y-8669912D02*
X2779777Y-8650865D01*
X2779777Y-8650865D02*
X2789301Y-8631817D01*
X2789301Y-8631817D02*
X2808348Y-8622293D01*
X2808348Y-8622293D02*
X2855967Y-8622293D01*
X2855967Y-8622293D02*
X2875015Y-8612770D01*
X2970253Y-8565150D02*
X2970253Y-8765150D01*
X2970253Y-8574674D02*
X2989301Y-8565150D01*
X2989301Y-8565150D02*
X3027396Y-8565150D01*
X3027396Y-8565150D02*
X3046443Y-8574674D01*
X3046443Y-8574674D02*
X3055967Y-8584198D01*
X3055967Y-8584198D02*
X3065491Y-8603246D01*
X3065491Y-8603246D02*
X3065491Y-8660389D01*
X3065491Y-8660389D02*
X3055967Y-8679436D01*
X3055967Y-8679436D02*
X3046443Y-8688960D01*
X3046443Y-8688960D02*
X3027396Y-8698484D01*
X3027396Y-8698484D02*
X2989301Y-8698484D01*
X2989301Y-8698484D02*
X2970253Y-8688960D01*
X3151205Y-8679436D02*
X3160729Y-8688960D01*
X3160729Y-8688960D02*
X3151205Y-8698484D01*
X3151205Y-8698484D02*
X3141682Y-8688960D01*
X3141682Y-8688960D02*
X3151205Y-8679436D01*
X3151205Y-8679436D02*
X3151205Y-8698484D01*
X3151205Y-8574674D02*
X3160729Y-8584198D01*
X3160729Y-8584198D02*
X3151205Y-8593722D01*
X3151205Y-8593722D02*
X3141682Y-8584198D01*
X3141682Y-8584198D02*
X3151205Y-8574674D01*
X3151205Y-8574674D02*
X3151205Y-8593722D01*
D10*
X1479000Y-9007000D02*
X1519000Y-9047000D01*
X1519000Y-9007000D02*
X1479000Y-9047000D01*
D11*
X1817872Y-8918484D02*
X1836920Y-8918484D01*
X1836920Y-8918484D02*
X1855967Y-8928008D01*
X1855967Y-8928008D02*
X1865491Y-8937531D01*
X1865491Y-8937531D02*
X1875015Y-8956579D01*
X1875015Y-8956579D02*
X1884539Y-8994674D01*
X1884539Y-8994674D02*
X1884539Y-9042293D01*
X1884539Y-9042293D02*
X1875015Y-9080389D01*
X1875015Y-9080389D02*
X1865491Y-9099436D01*
X1865491Y-9099436D02*
X1855967Y-9108960D01*
X1855967Y-9108960D02*
X1836920Y-9118484D01*
X1836920Y-9118484D02*
X1817872Y-9118484D01*
X1817872Y-9118484D02*
X1798824Y-9108960D01*
X1798824Y-9108960D02*
X1789301Y-9099436D01*
X1789301Y-9099436D02*
X1779777Y-9080389D01*
X1779777Y-9080389D02*
X1770253Y-9042293D01*
X1770253Y-9042293D02*
X1770253Y-8994674D01*
X1770253Y-8994674D02*
X1779777Y-8956579D01*
X1779777Y-8956579D02*
X1789301Y-8937531D01*
X1789301Y-8937531D02*
X1798824Y-8928008D01*
X1798824Y-8928008D02*
X1817872Y-8918484D01*
X1970253Y-9099436D02*
X1979777Y-9108960D01*
X1979777Y-9108960D02*
X1970253Y-9118484D01*
X1970253Y-9118484D02*
X1960729Y-9108960D01*
X1960729Y-9108960D02*
X1970253Y-9099436D01*
X1970253Y-9099436D02*
X1970253Y-9118484D01*
X2151205Y-8985150D02*
X2151205Y-9118484D01*
X2103586Y-8908960D02*
X2055967Y-9051817D01*
X2055967Y-9051817D02*
X2179777Y-9051817D01*
X2294063Y-8918484D02*
X2313110Y-8918484D01*
X2313110Y-8918484D02*
X2332158Y-8928008D01*
X2332158Y-8928008D02*
X2341682Y-8937531D01*
X2341682Y-8937531D02*
X2351205Y-8956579D01*
X2351205Y-8956579D02*
X2360729Y-8994674D01*
X2360729Y-8994674D02*
X2360729Y-9042293D01*
X2360729Y-9042293D02*
X2351205Y-9080389D01*
X2351205Y-9080389D02*
X2341682Y-9099436D01*
X2341682Y-9099436D02*
X2332158Y-9108960D01*
X2332158Y-9108960D02*
X2313110Y-9118484D01*
X2313110Y-9118484D02*
X2294063Y-9118484D01*
X2294063Y-9118484D02*
X2275015Y-9108960D01*
X2275015Y-9108960D02*
X2265491Y-9099436D01*
X2265491Y-9099436D02*
X2255967Y-9080389D01*
X2255967Y-9080389D02*
X2246444Y-9042293D01*
X2246444Y-9042293D02*
X2246444Y-8994674D01*
X2246444Y-8994674D02*
X2255967Y-8956579D01*
X2255967Y-8956579D02*
X2265491Y-8937531D01*
X2265491Y-8937531D02*
X2275015Y-8928008D01*
X2275015Y-8928008D02*
X2294063Y-8918484D01*
X2484539Y-8918484D02*
X2503586Y-8918484D01*
X2503586Y-8918484D02*
X2522634Y-8928008D01*
X2522634Y-8928008D02*
X2532158Y-8937531D01*
X2532158Y-8937531D02*
X2541682Y-8956579D01*
X2541682Y-8956579D02*
X2551205Y-8994674D01*
X2551205Y-8994674D02*
X2551205Y-9042293D01*
X2551205Y-9042293D02*
X2541682Y-9080389D01*
X2541682Y-9080389D02*
X2532158Y-9099436D01*
X2532158Y-9099436D02*
X2522634Y-9108960D01*
X2522634Y-9108960D02*
X2503586Y-9118484D01*
X2503586Y-9118484D02*
X2484539Y-9118484D01*
X2484539Y-9118484D02*
X2465491Y-9108960D01*
X2465491Y-9108960D02*
X2455967Y-9099436D01*
X2455967Y-9099436D02*
X2446444Y-9080389D01*
X2446444Y-9080389D02*
X2436920Y-9042293D01*
X2436920Y-9042293D02*
X2436920Y-8994674D01*
X2436920Y-8994674D02*
X2446444Y-8956579D01*
X2446444Y-8956579D02*
X2455967Y-8937531D01*
X2455967Y-8937531D02*
X2465491Y-8928008D01*
X2465491Y-8928008D02*
X2484539Y-8918484D01*
X2636920Y-9118484D02*
X2636920Y-8985150D01*
X2636920Y-9004198D02*
X2646444Y-8994674D01*
X2646444Y-8994674D02*
X2665491Y-8985150D01*
X2665491Y-8985150D02*
X2694063Y-8985150D01*
X2694063Y-8985150D02*
X2713110Y-8994674D01*
X2713110Y-8994674D02*
X2722634Y-9013722D01*
X2722634Y-9013722D02*
X2722634Y-9118484D01*
X2722634Y-9013722D02*
X2732158Y-8994674D01*
X2732158Y-8994674D02*
X2751205Y-8985150D01*
X2751205Y-8985150D02*
X2779777Y-8985150D01*
X2779777Y-8985150D02*
X2798824Y-8994674D01*
X2798824Y-8994674D02*
X2808348Y-9013722D01*
X2808348Y-9013722D02*
X2808348Y-9118484D01*
X2903586Y-9118484D02*
X2903586Y-8985150D01*
X2903586Y-9004198D02*
X2913110Y-8994674D01*
X2913110Y-8994674D02*
X2932158Y-8985150D01*
X2932158Y-8985150D02*
X2960729Y-8985150D01*
X2960729Y-8985150D02*
X2979777Y-8994674D01*
X2979777Y-8994674D02*
X2989301Y-9013722D01*
X2989301Y-9013722D02*
X2989301Y-9118484D01*
X2989301Y-9013722D02*
X2998824Y-8994674D01*
X2998824Y-8994674D02*
X3017872Y-8985150D01*
X3017872Y-8985150D02*
X3046443Y-8985150D01*
X3046443Y-8985150D02*
X3065491Y-8994674D01*
X3065491Y-8994674D02*
X3075015Y-9013722D01*
X3075015Y-9013722D02*
X3075015Y-9118484D01*
X3465491Y-8908960D02*
X3294063Y-9166103D01*
X3722634Y-8918484D02*
X3741682Y-8918484D01*
X3741682Y-8918484D02*
X3760729Y-8928008D01*
X3760729Y-8928008D02*
X3770253Y-8937531D01*
X3770253Y-8937531D02*
X3779777Y-8956579D01*
X3779777Y-8956579D02*
X3789301Y-8994674D01*
X3789301Y-8994674D02*
X3789301Y-9042293D01*
X3789301Y-9042293D02*
X3779777Y-9080389D01*
X3779777Y-9080389D02*
X3770253Y-9099436D01*
X3770253Y-9099436D02*
X3760729Y-9108960D01*
X3760729Y-9108960D02*
X3741682Y-9118484D01*
X3741682Y-9118484D02*
X3722634Y-9118484D01*
X3722634Y-9118484D02*
X3703586Y-9108960D01*
X3703586Y-9108960D02*
X3694063Y-9099436D01*
X3694063Y-9099436D02*
X3684539Y-9080389D01*
X3684539Y-9080389D02*
X3675015Y-9042293D01*
X3675015Y-9042293D02*
X3675015Y-8994674D01*
X3675015Y-8994674D02*
X3684539Y-8956579D01*
X3684539Y-8956579D02*
X3694063Y-8937531D01*
X3694063Y-8937531D02*
X3703586Y-8928008D01*
X3703586Y-8928008D02*
X3722634Y-8918484D01*
X3875015Y-9099436D02*
X3884539Y-9108960D01*
X3884539Y-9108960D02*
X3875015Y-9118484D01*
X3875015Y-9118484D02*
X3865491Y-9108960D01*
X3865491Y-9108960D02*
X3875015Y-9099436D01*
X3875015Y-9099436D02*
X3875015Y-9118484D01*
X4008348Y-8918484D02*
X4027396Y-8918484D01*
X4027396Y-8918484D02*
X4046444Y-8928008D01*
X4046444Y-8928008D02*
X4055967Y-8937531D01*
X4055967Y-8937531D02*
X4065491Y-8956579D01*
X4065491Y-8956579D02*
X4075015Y-8994674D01*
X4075015Y-8994674D02*
X4075015Y-9042293D01*
X4075015Y-9042293D02*
X4065491Y-9080389D01*
X4065491Y-9080389D02*
X4055967Y-9099436D01*
X4055967Y-9099436D02*
X4046444Y-9108960D01*
X4046444Y-9108960D02*
X4027396Y-9118484D01*
X4027396Y-9118484D02*
X4008348Y-9118484D01*
X4008348Y-9118484D02*
X3989301Y-9108960D01*
X3989301Y-9108960D02*
X3979777Y-9099436D01*
X3979777Y-9099436D02*
X3970253Y-9080389D01*
X3970253Y-9080389D02*
X3960729Y-9042293D01*
X3960729Y-9042293D02*
X3960729Y-8994674D01*
X3960729Y-8994674D02*
X3970253Y-8956579D01*
X3970253Y-8956579D02*
X3979777Y-8937531D01*
X3979777Y-8937531D02*
X3989301Y-8928008D01*
X3989301Y-8928008D02*
X4008348Y-8918484D01*
X4265491Y-9118484D02*
X4151206Y-9118484D01*
X4208348Y-9118484D02*
X4208348Y-8918484D01*
X4208348Y-8918484D02*
X4189301Y-8947055D01*
X4189301Y-8947055D02*
X4170253Y-8966103D01*
X4170253Y-8966103D02*
X4151206Y-8975627D01*
X4446444Y-8918484D02*
X4351206Y-8918484D01*
X4351206Y-8918484D02*
X4341682Y-9013722D01*
X4341682Y-9013722D02*
X4351206Y-9004198D01*
X4351206Y-9004198D02*
X4370253Y-8994674D01*
X4370253Y-8994674D02*
X4417872Y-8994674D01*
X4417872Y-8994674D02*
X4436920Y-9004198D01*
X4436920Y-9004198D02*
X4446444Y-9013722D01*
X4446444Y-9013722D02*
X4455968Y-9032770D01*
X4455968Y-9032770D02*
X4455968Y-9080389D01*
X4455968Y-9080389D02*
X4446444Y-9099436D01*
X4446444Y-9099436D02*
X4436920Y-9108960D01*
X4436920Y-9108960D02*
X4417872Y-9118484D01*
X4417872Y-9118484D02*
X4370253Y-9118484D01*
X4370253Y-9118484D02*
X4351206Y-9108960D01*
X4351206Y-9108960D02*
X4341682Y-9099436D01*
X4522634Y-8918484D02*
X4655968Y-8918484D01*
X4655968Y-8918484D02*
X4570253Y-9118484D01*
X4722634Y-8918484D02*
X4722634Y-8956579D01*
X4798825Y-8918484D02*
X4798825Y-8956579D01*
X5094063Y-9194674D02*
X5084539Y-9185150D01*
X5084539Y-9185150D02*
X5065491Y-9156579D01*
X5065491Y-9156579D02*
X5055968Y-9137531D01*
X5055968Y-9137531D02*
X5046444Y-9108960D01*
X5046444Y-9108960D02*
X5036920Y-9061341D01*
X5036920Y-9061341D02*
X5036920Y-9023246D01*
X5036920Y-9023246D02*
X5046444Y-8975627D01*
X5046444Y-8975627D02*
X5055968Y-8947055D01*
X5055968Y-8947055D02*
X5065491Y-8928008D01*
X5065491Y-8928008D02*
X5084539Y-8899436D01*
X5084539Y-8899436D02*
X5094063Y-8889912D01*
X5151206Y-8918484D02*
X5284539Y-8918484D01*
X5284539Y-8918484D02*
X5198825Y-9118484D01*
X5446444Y-8918484D02*
X5408349Y-8918484D01*
X5408349Y-8918484D02*
X5389301Y-8928008D01*
X5389301Y-8928008D02*
X5379777Y-8937531D01*
X5379777Y-8937531D02*
X5360730Y-8966103D01*
X5360730Y-8966103D02*
X5351206Y-9004198D01*
X5351206Y-9004198D02*
X5351206Y-9080389D01*
X5351206Y-9080389D02*
X5360730Y-9099436D01*
X5360730Y-9099436D02*
X5370253Y-9108960D01*
X5370253Y-9108960D02*
X5389301Y-9118484D01*
X5389301Y-9118484D02*
X5427396Y-9118484D01*
X5427396Y-9118484D02*
X5446444Y-9108960D01*
X5446444Y-9108960D02*
X5455968Y-9099436D01*
X5455968Y-9099436D02*
X5465491Y-9080389D01*
X5465491Y-9080389D02*
X5465491Y-9032770D01*
X5465491Y-9032770D02*
X5455968Y-9013722D01*
X5455968Y-9013722D02*
X5446444Y-9004198D01*
X5446444Y-9004198D02*
X5427396Y-8994674D01*
X5427396Y-8994674D02*
X5389301Y-8994674D01*
X5389301Y-8994674D02*
X5370253Y-9004198D01*
X5370253Y-9004198D02*
X5360730Y-9013722D01*
X5360730Y-9013722D02*
X5351206Y-9032770D01*
X5703587Y-9118484D02*
X5703587Y-8918484D01*
X5789301Y-9118484D02*
X5789301Y-9013722D01*
X5789301Y-9013722D02*
X5779777Y-8994674D01*
X5779777Y-8994674D02*
X5760730Y-8985150D01*
X5760730Y-8985150D02*
X5732158Y-8985150D01*
X5732158Y-8985150D02*
X5713110Y-8994674D01*
X5713110Y-8994674D02*
X5703587Y-9004198D01*
X5913110Y-9118484D02*
X5894063Y-9108960D01*
X5894063Y-9108960D02*
X5884539Y-9099436D01*
X5884539Y-9099436D02*
X5875015Y-9080389D01*
X5875015Y-9080389D02*
X5875015Y-9023246D01*
X5875015Y-9023246D02*
X5884539Y-9004198D01*
X5884539Y-9004198D02*
X5894063Y-8994674D01*
X5894063Y-8994674D02*
X5913110Y-8985150D01*
X5913110Y-8985150D02*
X5941682Y-8985150D01*
X5941682Y-8985150D02*
X5960730Y-8994674D01*
X5960730Y-8994674D02*
X5970253Y-9004198D01*
X5970253Y-9004198D02*
X5979777Y-9023246D01*
X5979777Y-9023246D02*
X5979777Y-9080389D01*
X5979777Y-9080389D02*
X5970253Y-9099436D01*
X5970253Y-9099436D02*
X5960730Y-9108960D01*
X5960730Y-9108960D02*
X5941682Y-9118484D01*
X5941682Y-9118484D02*
X5913110Y-9118484D01*
X6094063Y-9118484D02*
X6075015Y-9108960D01*
X6075015Y-9108960D02*
X6065491Y-9089912D01*
X6065491Y-9089912D02*
X6065491Y-8918484D01*
X6246444Y-9108960D02*
X6227396Y-9118484D01*
X6227396Y-9118484D02*
X6189301Y-9118484D01*
X6189301Y-9118484D02*
X6170253Y-9108960D01*
X6170253Y-9108960D02*
X6160730Y-9089912D01*
X6160730Y-9089912D02*
X6160730Y-9013722D01*
X6160730Y-9013722D02*
X6170253Y-8994674D01*
X6170253Y-8994674D02*
X6189301Y-8985150D01*
X6189301Y-8985150D02*
X6227396Y-8985150D01*
X6227396Y-8985150D02*
X6246444Y-8994674D01*
X6246444Y-8994674D02*
X6255968Y-9013722D01*
X6255968Y-9013722D02*
X6255968Y-9032770D01*
X6255968Y-9032770D02*
X6160730Y-9051817D01*
X6332158Y-9108960D02*
X6351206Y-9118484D01*
X6351206Y-9118484D02*
X6389301Y-9118484D01*
X6389301Y-9118484D02*
X6408349Y-9108960D01*
X6408349Y-9108960D02*
X6417872Y-9089912D01*
X6417872Y-9089912D02*
X6417872Y-9080389D01*
X6417872Y-9080389D02*
X6408349Y-9061341D01*
X6408349Y-9061341D02*
X6389301Y-9051817D01*
X6389301Y-9051817D02*
X6360730Y-9051817D01*
X6360730Y-9051817D02*
X6341682Y-9042293D01*
X6341682Y-9042293D02*
X6332158Y-9023246D01*
X6332158Y-9023246D02*
X6332158Y-9013722D01*
X6332158Y-9013722D02*
X6341682Y-8994674D01*
X6341682Y-8994674D02*
X6360730Y-8985150D01*
X6360730Y-8985150D02*
X6389301Y-8985150D01*
X6389301Y-8985150D02*
X6408349Y-8994674D01*
X6484539Y-9194674D02*
X6494063Y-9185150D01*
X6494063Y-9185150D02*
X6513111Y-9156579D01*
X6513111Y-9156579D02*
X6522634Y-9137531D01*
X6522634Y-9137531D02*
X6532158Y-9108960D01*
X6532158Y-9108960D02*
X6541682Y-9061341D01*
X6541682Y-9061341D02*
X6541682Y-9023246D01*
X6541682Y-9023246D02*
X6532158Y-8975627D01*
X6532158Y-8975627D02*
X6522634Y-8947055D01*
X6522634Y-8947055D02*
X6513111Y-8928008D01*
X6513111Y-8928008D02*
X6494063Y-8899436D01*
X6494063Y-8899436D02*
X6484539Y-8889912D01*
D10*
X1519000Y-9291000D02*
G75*
G03*
X1519000Y-9291000I-25000J0D01*
G01*
D11*
X1817872Y-9182484D02*
X1836920Y-9182484D01*
X1836920Y-9182484D02*
X1855967Y-9192008D01*
X1855967Y-9192008D02*
X1865491Y-9201531D01*
X1865491Y-9201531D02*
X1875015Y-9220579D01*
X1875015Y-9220579D02*
X1884539Y-9258674D01*
X1884539Y-9258674D02*
X1884539Y-9306293D01*
X1884539Y-9306293D02*
X1875015Y-9344389D01*
X1875015Y-9344389D02*
X1865491Y-9363436D01*
X1865491Y-9363436D02*
X1855967Y-9372960D01*
X1855967Y-9372960D02*
X1836920Y-9382484D01*
X1836920Y-9382484D02*
X1817872Y-9382484D01*
X1817872Y-9382484D02*
X1798824Y-9372960D01*
X1798824Y-9372960D02*
X1789301Y-9363436D01*
X1789301Y-9363436D02*
X1779777Y-9344389D01*
X1779777Y-9344389D02*
X1770253Y-9306293D01*
X1770253Y-9306293D02*
X1770253Y-9258674D01*
X1770253Y-9258674D02*
X1779777Y-9220579D01*
X1779777Y-9220579D02*
X1789301Y-9201531D01*
X1789301Y-9201531D02*
X1798824Y-9192008D01*
X1798824Y-9192008D02*
X1817872Y-9182484D01*
X1970253Y-9363436D02*
X1979777Y-9372960D01*
X1979777Y-9372960D02*
X1970253Y-9382484D01*
X1970253Y-9382484D02*
X1960729Y-9372960D01*
X1960729Y-9372960D02*
X1970253Y-9363436D01*
X1970253Y-9363436D02*
X1970253Y-9382484D01*
X2160729Y-9182484D02*
X2065491Y-9182484D01*
X2065491Y-9182484D02*
X2055967Y-9277722D01*
X2055967Y-9277722D02*
X2065491Y-9268198D01*
X2065491Y-9268198D02*
X2084539Y-9258674D01*
X2084539Y-9258674D02*
X2132158Y-9258674D01*
X2132158Y-9258674D02*
X2151205Y-9268198D01*
X2151205Y-9268198D02*
X2160729Y-9277722D01*
X2160729Y-9277722D02*
X2170253Y-9296770D01*
X2170253Y-9296770D02*
X2170253Y-9344389D01*
X2170253Y-9344389D02*
X2160729Y-9363436D01*
X2160729Y-9363436D02*
X2151205Y-9372960D01*
X2151205Y-9372960D02*
X2132158Y-9382484D01*
X2132158Y-9382484D02*
X2084539Y-9382484D01*
X2084539Y-9382484D02*
X2065491Y-9372960D01*
X2065491Y-9372960D02*
X2055967Y-9363436D01*
X2294063Y-9182484D02*
X2313110Y-9182484D01*
X2313110Y-9182484D02*
X2332158Y-9192008D01*
X2332158Y-9192008D02*
X2341682Y-9201531D01*
X2341682Y-9201531D02*
X2351205Y-9220579D01*
X2351205Y-9220579D02*
X2360729Y-9258674D01*
X2360729Y-9258674D02*
X2360729Y-9306293D01*
X2360729Y-9306293D02*
X2351205Y-9344389D01*
X2351205Y-9344389D02*
X2341682Y-9363436D01*
X2341682Y-9363436D02*
X2332158Y-9372960D01*
X2332158Y-9372960D02*
X2313110Y-9382484D01*
X2313110Y-9382484D02*
X2294063Y-9382484D01*
X2294063Y-9382484D02*
X2275015Y-9372960D01*
X2275015Y-9372960D02*
X2265491Y-9363436D01*
X2265491Y-9363436D02*
X2255967Y-9344389D01*
X2255967Y-9344389D02*
X2246444Y-9306293D01*
X2246444Y-9306293D02*
X2246444Y-9258674D01*
X2246444Y-9258674D02*
X2255967Y-9220579D01*
X2255967Y-9220579D02*
X2265491Y-9201531D01*
X2265491Y-9201531D02*
X2275015Y-9192008D01*
X2275015Y-9192008D02*
X2294063Y-9182484D01*
X2484539Y-9182484D02*
X2503586Y-9182484D01*
X2503586Y-9182484D02*
X2522634Y-9192008D01*
X2522634Y-9192008D02*
X2532158Y-9201531D01*
X2532158Y-9201531D02*
X2541682Y-9220579D01*
X2541682Y-9220579D02*
X2551205Y-9258674D01*
X2551205Y-9258674D02*
X2551205Y-9306293D01*
X2551205Y-9306293D02*
X2541682Y-9344389D01*
X2541682Y-9344389D02*
X2532158Y-9363436D01*
X2532158Y-9363436D02*
X2522634Y-9372960D01*
X2522634Y-9372960D02*
X2503586Y-9382484D01*
X2503586Y-9382484D02*
X2484539Y-9382484D01*
X2484539Y-9382484D02*
X2465491Y-9372960D01*
X2465491Y-9372960D02*
X2455967Y-9363436D01*
X2455967Y-9363436D02*
X2446444Y-9344389D01*
X2446444Y-9344389D02*
X2436920Y-9306293D01*
X2436920Y-9306293D02*
X2436920Y-9258674D01*
X2436920Y-9258674D02*
X2446444Y-9220579D01*
X2446444Y-9220579D02*
X2455967Y-9201531D01*
X2455967Y-9201531D02*
X2465491Y-9192008D01*
X2465491Y-9192008D02*
X2484539Y-9182484D01*
X2636920Y-9382484D02*
X2636920Y-9249150D01*
X2636920Y-9268198D02*
X2646444Y-9258674D01*
X2646444Y-9258674D02*
X2665491Y-9249150D01*
X2665491Y-9249150D02*
X2694063Y-9249150D01*
X2694063Y-9249150D02*
X2713110Y-9258674D01*
X2713110Y-9258674D02*
X2722634Y-9277722D01*
X2722634Y-9277722D02*
X2722634Y-9382484D01*
X2722634Y-9277722D02*
X2732158Y-9258674D01*
X2732158Y-9258674D02*
X2751205Y-9249150D01*
X2751205Y-9249150D02*
X2779777Y-9249150D01*
X2779777Y-9249150D02*
X2798824Y-9258674D01*
X2798824Y-9258674D02*
X2808348Y-9277722D01*
X2808348Y-9277722D02*
X2808348Y-9382484D01*
X2903586Y-9382484D02*
X2903586Y-9249150D01*
X2903586Y-9268198D02*
X2913110Y-9258674D01*
X2913110Y-9258674D02*
X2932158Y-9249150D01*
X2932158Y-9249150D02*
X2960729Y-9249150D01*
X2960729Y-9249150D02*
X2979777Y-9258674D01*
X2979777Y-9258674D02*
X2989301Y-9277722D01*
X2989301Y-9277722D02*
X2989301Y-9382484D01*
X2989301Y-9277722D02*
X2998824Y-9258674D01*
X2998824Y-9258674D02*
X3017872Y-9249150D01*
X3017872Y-9249150D02*
X3046443Y-9249150D01*
X3046443Y-9249150D02*
X3065491Y-9258674D01*
X3065491Y-9258674D02*
X3075015Y-9277722D01*
X3075015Y-9277722D02*
X3075015Y-9382484D01*
X3465491Y-9172960D02*
X3294063Y-9430103D01*
X3722634Y-9182484D02*
X3741682Y-9182484D01*
X3741682Y-9182484D02*
X3760729Y-9192008D01*
X3760729Y-9192008D02*
X3770253Y-9201531D01*
X3770253Y-9201531D02*
X3779777Y-9220579D01*
X3779777Y-9220579D02*
X3789301Y-9258674D01*
X3789301Y-9258674D02*
X3789301Y-9306293D01*
X3789301Y-9306293D02*
X3779777Y-9344389D01*
X3779777Y-9344389D02*
X3770253Y-9363436D01*
X3770253Y-9363436D02*
X3760729Y-9372960D01*
X3760729Y-9372960D02*
X3741682Y-9382484D01*
X3741682Y-9382484D02*
X3722634Y-9382484D01*
X3722634Y-9382484D02*
X3703586Y-9372960D01*
X3703586Y-9372960D02*
X3694063Y-9363436D01*
X3694063Y-9363436D02*
X3684539Y-9344389D01*
X3684539Y-9344389D02*
X3675015Y-9306293D01*
X3675015Y-9306293D02*
X3675015Y-9258674D01*
X3675015Y-9258674D02*
X3684539Y-9220579D01*
X3684539Y-9220579D02*
X3694063Y-9201531D01*
X3694063Y-9201531D02*
X3703586Y-9192008D01*
X3703586Y-9192008D02*
X3722634Y-9182484D01*
X3875015Y-9363436D02*
X3884539Y-9372960D01*
X3884539Y-9372960D02*
X3875015Y-9382484D01*
X3875015Y-9382484D02*
X3865491Y-9372960D01*
X3865491Y-9372960D02*
X3875015Y-9363436D01*
X3875015Y-9363436D02*
X3875015Y-9382484D01*
X4008348Y-9182484D02*
X4027396Y-9182484D01*
X4027396Y-9182484D02*
X4046444Y-9192008D01*
X4046444Y-9192008D02*
X4055967Y-9201531D01*
X4055967Y-9201531D02*
X4065491Y-9220579D01*
X4065491Y-9220579D02*
X4075015Y-9258674D01*
X4075015Y-9258674D02*
X4075015Y-9306293D01*
X4075015Y-9306293D02*
X4065491Y-9344389D01*
X4065491Y-9344389D02*
X4055967Y-9363436D01*
X4055967Y-9363436D02*
X4046444Y-9372960D01*
X4046444Y-9372960D02*
X4027396Y-9382484D01*
X4027396Y-9382484D02*
X4008348Y-9382484D01*
X4008348Y-9382484D02*
X3989301Y-9372960D01*
X3989301Y-9372960D02*
X3979777Y-9363436D01*
X3979777Y-9363436D02*
X3970253Y-9344389D01*
X3970253Y-9344389D02*
X3960729Y-9306293D01*
X3960729Y-9306293D02*
X3960729Y-9258674D01*
X3960729Y-9258674D02*
X3970253Y-9220579D01*
X3970253Y-9220579D02*
X3979777Y-9201531D01*
X3979777Y-9201531D02*
X3989301Y-9192008D01*
X3989301Y-9192008D02*
X4008348Y-9182484D01*
X4265491Y-9382484D02*
X4151206Y-9382484D01*
X4208348Y-9382484D02*
X4208348Y-9182484D01*
X4208348Y-9182484D02*
X4189301Y-9211055D01*
X4189301Y-9211055D02*
X4170253Y-9230103D01*
X4170253Y-9230103D02*
X4151206Y-9239627D01*
X4360729Y-9382484D02*
X4398825Y-9382484D01*
X4398825Y-9382484D02*
X4417872Y-9372960D01*
X4417872Y-9372960D02*
X4427396Y-9363436D01*
X4427396Y-9363436D02*
X4446444Y-9334865D01*
X4446444Y-9334865D02*
X4455968Y-9296770D01*
X4455968Y-9296770D02*
X4455968Y-9220579D01*
X4455968Y-9220579D02*
X4446444Y-9201531D01*
X4446444Y-9201531D02*
X4436920Y-9192008D01*
X4436920Y-9192008D02*
X4417872Y-9182484D01*
X4417872Y-9182484D02*
X4379777Y-9182484D01*
X4379777Y-9182484D02*
X4360729Y-9192008D01*
X4360729Y-9192008D02*
X4351206Y-9201531D01*
X4351206Y-9201531D02*
X4341682Y-9220579D01*
X4341682Y-9220579D02*
X4341682Y-9268198D01*
X4341682Y-9268198D02*
X4351206Y-9287246D01*
X4351206Y-9287246D02*
X4360729Y-9296770D01*
X4360729Y-9296770D02*
X4379777Y-9306293D01*
X4379777Y-9306293D02*
X4417872Y-9306293D01*
X4417872Y-9306293D02*
X4436920Y-9296770D01*
X4436920Y-9296770D02*
X4446444Y-9287246D01*
X4446444Y-9287246D02*
X4455968Y-9268198D01*
X4522634Y-9182484D02*
X4655968Y-9182484D01*
X4655968Y-9182484D02*
X4570253Y-9382484D01*
X4722634Y-9182484D02*
X4722634Y-9220579D01*
X4798825Y-9182484D02*
X4798825Y-9220579D01*
X5094063Y-9458674D02*
X5084539Y-9449150D01*
X5084539Y-9449150D02*
X5065491Y-9420579D01*
X5065491Y-9420579D02*
X5055968Y-9401531D01*
X5055968Y-9401531D02*
X5046444Y-9372960D01*
X5046444Y-9372960D02*
X5036920Y-9325341D01*
X5036920Y-9325341D02*
X5036920Y-9287246D01*
X5036920Y-9287246D02*
X5046444Y-9239627D01*
X5046444Y-9239627D02*
X5055968Y-9211055D01*
X5055968Y-9211055D02*
X5065491Y-9192008D01*
X5065491Y-9192008D02*
X5084539Y-9163436D01*
X5084539Y-9163436D02*
X5094063Y-9153912D01*
X5151206Y-9182484D02*
X5284539Y-9182484D01*
X5284539Y-9182484D02*
X5198825Y-9382484D01*
X5455968Y-9182484D02*
X5360730Y-9182484D01*
X5360730Y-9182484D02*
X5351206Y-9277722D01*
X5351206Y-9277722D02*
X5360730Y-9268198D01*
X5360730Y-9268198D02*
X5379777Y-9258674D01*
X5379777Y-9258674D02*
X5427396Y-9258674D01*
X5427396Y-9258674D02*
X5446444Y-9268198D01*
X5446444Y-9268198D02*
X5455968Y-9277722D01*
X5455968Y-9277722D02*
X5465491Y-9296770D01*
X5465491Y-9296770D02*
X5465491Y-9344389D01*
X5465491Y-9344389D02*
X5455968Y-9363436D01*
X5455968Y-9363436D02*
X5446444Y-9372960D01*
X5446444Y-9372960D02*
X5427396Y-9382484D01*
X5427396Y-9382484D02*
X5379777Y-9382484D01*
X5379777Y-9382484D02*
X5360730Y-9372960D01*
X5360730Y-9372960D02*
X5351206Y-9363436D01*
X5703587Y-9382484D02*
X5703587Y-9182484D01*
X5789301Y-9382484D02*
X5789301Y-9277722D01*
X5789301Y-9277722D02*
X5779777Y-9258674D01*
X5779777Y-9258674D02*
X5760730Y-9249150D01*
X5760730Y-9249150D02*
X5732158Y-9249150D01*
X5732158Y-9249150D02*
X5713110Y-9258674D01*
X5713110Y-9258674D02*
X5703587Y-9268198D01*
X5913110Y-9382484D02*
X5894063Y-9372960D01*
X5894063Y-9372960D02*
X5884539Y-9363436D01*
X5884539Y-9363436D02*
X5875015Y-9344389D01*
X5875015Y-9344389D02*
X5875015Y-9287246D01*
X5875015Y-9287246D02*
X5884539Y-9268198D01*
X5884539Y-9268198D02*
X5894063Y-9258674D01*
X5894063Y-9258674D02*
X5913110Y-9249150D01*
X5913110Y-9249150D02*
X5941682Y-9249150D01*
X5941682Y-9249150D02*
X5960730Y-9258674D01*
X5960730Y-9258674D02*
X5970253Y-9268198D01*
X5970253Y-9268198D02*
X5979777Y-9287246D01*
X5979777Y-9287246D02*
X5979777Y-9344389D01*
X5979777Y-9344389D02*
X5970253Y-9363436D01*
X5970253Y-9363436D02*
X5960730Y-9372960D01*
X5960730Y-9372960D02*
X5941682Y-9382484D01*
X5941682Y-9382484D02*
X5913110Y-9382484D01*
X6094063Y-9382484D02*
X6075015Y-9372960D01*
X6075015Y-9372960D02*
X6065491Y-9353912D01*
X6065491Y-9353912D02*
X6065491Y-9182484D01*
X6246444Y-9372960D02*
X6227396Y-9382484D01*
X6227396Y-9382484D02*
X6189301Y-9382484D01*
X6189301Y-9382484D02*
X6170253Y-9372960D01*
X6170253Y-9372960D02*
X6160730Y-9353912D01*
X6160730Y-9353912D02*
X6160730Y-9277722D01*
X6160730Y-9277722D02*
X6170253Y-9258674D01*
X6170253Y-9258674D02*
X6189301Y-9249150D01*
X6189301Y-9249150D02*
X6227396Y-9249150D01*
X6227396Y-9249150D02*
X6246444Y-9258674D01*
X6246444Y-9258674D02*
X6255968Y-9277722D01*
X6255968Y-9277722D02*
X6255968Y-9296770D01*
X6255968Y-9296770D02*
X6160730Y-9315817D01*
X6332158Y-9372960D02*
X6351206Y-9382484D01*
X6351206Y-9382484D02*
X6389301Y-9382484D01*
X6389301Y-9382484D02*
X6408349Y-9372960D01*
X6408349Y-9372960D02*
X6417872Y-9353912D01*
X6417872Y-9353912D02*
X6417872Y-9344389D01*
X6417872Y-9344389D02*
X6408349Y-9325341D01*
X6408349Y-9325341D02*
X6389301Y-9315817D01*
X6389301Y-9315817D02*
X6360730Y-9315817D01*
X6360730Y-9315817D02*
X6341682Y-9306293D01*
X6341682Y-9306293D02*
X6332158Y-9287246D01*
X6332158Y-9287246D02*
X6332158Y-9277722D01*
X6332158Y-9277722D02*
X6341682Y-9258674D01*
X6341682Y-9258674D02*
X6360730Y-9249150D01*
X6360730Y-9249150D02*
X6389301Y-9249150D01*
X6389301Y-9249150D02*
X6408349Y-9258674D01*
X6484539Y-9458674D02*
X6494063Y-9449150D01*
X6494063Y-9449150D02*
X6513111Y-9420579D01*
X6513111Y-9420579D02*
X6522634Y-9401531D01*
X6522634Y-9401531D02*
X6532158Y-9372960D01*
X6532158Y-9372960D02*
X6541682Y-9325341D01*
X6541682Y-9325341D02*
X6541682Y-9287246D01*
X6541682Y-9287246D02*
X6532158Y-9239627D01*
X6532158Y-9239627D02*
X6522634Y-9211055D01*
X6522634Y-9211055D02*
X6513111Y-9192008D01*
X6513111Y-9192008D02*
X6494063Y-9163436D01*
X6494063Y-9163436D02*
X6484539Y-9153912D01*
D10*
X1484000Y-9520000D02*
X1484000Y-9590000D01*
X1449000Y-9555000D02*
X1519000Y-9555000D01*
D11*
X1817872Y-9446484D02*
X1836920Y-9446484D01*
X1836920Y-9446484D02*
X1855967Y-9456008D01*
X1855967Y-9456008D02*
X1865491Y-9465531D01*
X1865491Y-9465531D02*
X1875015Y-9484579D01*
X1875015Y-9484579D02*
X1884539Y-9522674D01*
X1884539Y-9522674D02*
X1884539Y-9570293D01*
X1884539Y-9570293D02*
X1875015Y-9608389D01*
X1875015Y-9608389D02*
X1865491Y-9627436D01*
X1865491Y-9627436D02*
X1855967Y-9636960D01*
X1855967Y-9636960D02*
X1836920Y-9646484D01*
X1836920Y-9646484D02*
X1817872Y-9646484D01*
X1817872Y-9646484D02*
X1798824Y-9636960D01*
X1798824Y-9636960D02*
X1789301Y-9627436D01*
X1789301Y-9627436D02*
X1779777Y-9608389D01*
X1779777Y-9608389D02*
X1770253Y-9570293D01*
X1770253Y-9570293D02*
X1770253Y-9522674D01*
X1770253Y-9522674D02*
X1779777Y-9484579D01*
X1779777Y-9484579D02*
X1789301Y-9465531D01*
X1789301Y-9465531D02*
X1798824Y-9456008D01*
X1798824Y-9456008D02*
X1817872Y-9446484D01*
X1970253Y-9627436D02*
X1979777Y-9636960D01*
X1979777Y-9636960D02*
X1970253Y-9646484D01*
X1970253Y-9646484D02*
X1960729Y-9636960D01*
X1960729Y-9636960D02*
X1970253Y-9627436D01*
X1970253Y-9627436D02*
X1970253Y-9646484D01*
X2046443Y-9446484D02*
X2179777Y-9446484D01*
X2179777Y-9446484D02*
X2094062Y-9646484D01*
X2294063Y-9446484D02*
X2313110Y-9446484D01*
X2313110Y-9446484D02*
X2332158Y-9456008D01*
X2332158Y-9456008D02*
X2341682Y-9465531D01*
X2341682Y-9465531D02*
X2351205Y-9484579D01*
X2351205Y-9484579D02*
X2360729Y-9522674D01*
X2360729Y-9522674D02*
X2360729Y-9570293D01*
X2360729Y-9570293D02*
X2351205Y-9608389D01*
X2351205Y-9608389D02*
X2341682Y-9627436D01*
X2341682Y-9627436D02*
X2332158Y-9636960D01*
X2332158Y-9636960D02*
X2313110Y-9646484D01*
X2313110Y-9646484D02*
X2294063Y-9646484D01*
X2294063Y-9646484D02*
X2275015Y-9636960D01*
X2275015Y-9636960D02*
X2265491Y-9627436D01*
X2265491Y-9627436D02*
X2255967Y-9608389D01*
X2255967Y-9608389D02*
X2246444Y-9570293D01*
X2246444Y-9570293D02*
X2246444Y-9522674D01*
X2246444Y-9522674D02*
X2255967Y-9484579D01*
X2255967Y-9484579D02*
X2265491Y-9465531D01*
X2265491Y-9465531D02*
X2275015Y-9456008D01*
X2275015Y-9456008D02*
X2294063Y-9446484D01*
X2484539Y-9446484D02*
X2503586Y-9446484D01*
X2503586Y-9446484D02*
X2522634Y-9456008D01*
X2522634Y-9456008D02*
X2532158Y-9465531D01*
X2532158Y-9465531D02*
X2541682Y-9484579D01*
X2541682Y-9484579D02*
X2551205Y-9522674D01*
X2551205Y-9522674D02*
X2551205Y-9570293D01*
X2551205Y-9570293D02*
X2541682Y-9608389D01*
X2541682Y-9608389D02*
X2532158Y-9627436D01*
X2532158Y-9627436D02*
X2522634Y-9636960D01*
X2522634Y-9636960D02*
X2503586Y-9646484D01*
X2503586Y-9646484D02*
X2484539Y-9646484D01*
X2484539Y-9646484D02*
X2465491Y-9636960D01*
X2465491Y-9636960D02*
X2455967Y-9627436D01*
X2455967Y-9627436D02*
X2446444Y-9608389D01*
X2446444Y-9608389D02*
X2436920Y-9570293D01*
X2436920Y-9570293D02*
X2436920Y-9522674D01*
X2436920Y-9522674D02*
X2446444Y-9484579D01*
X2446444Y-9484579D02*
X2455967Y-9465531D01*
X2455967Y-9465531D02*
X2465491Y-9456008D01*
X2465491Y-9456008D02*
X2484539Y-9446484D01*
X2636920Y-9646484D02*
X2636920Y-9513150D01*
X2636920Y-9532198D02*
X2646444Y-9522674D01*
X2646444Y-9522674D02*
X2665491Y-9513150D01*
X2665491Y-9513150D02*
X2694063Y-9513150D01*
X2694063Y-9513150D02*
X2713110Y-9522674D01*
X2713110Y-9522674D02*
X2722634Y-9541722D01*
X2722634Y-9541722D02*
X2722634Y-9646484D01*
X2722634Y-9541722D02*
X2732158Y-9522674D01*
X2732158Y-9522674D02*
X2751205Y-9513150D01*
X2751205Y-9513150D02*
X2779777Y-9513150D01*
X2779777Y-9513150D02*
X2798824Y-9522674D01*
X2798824Y-9522674D02*
X2808348Y-9541722D01*
X2808348Y-9541722D02*
X2808348Y-9646484D01*
X2903586Y-9646484D02*
X2903586Y-9513150D01*
X2903586Y-9532198D02*
X2913110Y-9522674D01*
X2913110Y-9522674D02*
X2932158Y-9513150D01*
X2932158Y-9513150D02*
X2960729Y-9513150D01*
X2960729Y-9513150D02*
X2979777Y-9522674D01*
X2979777Y-9522674D02*
X2989301Y-9541722D01*
X2989301Y-9541722D02*
X2989301Y-9646484D01*
X2989301Y-9541722D02*
X2998824Y-9522674D01*
X2998824Y-9522674D02*
X3017872Y-9513150D01*
X3017872Y-9513150D02*
X3046443Y-9513150D01*
X3046443Y-9513150D02*
X3065491Y-9522674D01*
X3065491Y-9522674D02*
X3075015Y-9541722D01*
X3075015Y-9541722D02*
X3075015Y-9646484D01*
X3465491Y-9436960D02*
X3294063Y-9694103D01*
X3722634Y-9446484D02*
X3741682Y-9446484D01*
X3741682Y-9446484D02*
X3760729Y-9456008D01*
X3760729Y-9456008D02*
X3770253Y-9465531D01*
X3770253Y-9465531D02*
X3779777Y-9484579D01*
X3779777Y-9484579D02*
X3789301Y-9522674D01*
X3789301Y-9522674D02*
X3789301Y-9570293D01*
X3789301Y-9570293D02*
X3779777Y-9608389D01*
X3779777Y-9608389D02*
X3770253Y-9627436D01*
X3770253Y-9627436D02*
X3760729Y-9636960D01*
X3760729Y-9636960D02*
X3741682Y-9646484D01*
X3741682Y-9646484D02*
X3722634Y-9646484D01*
X3722634Y-9646484D02*
X3703586Y-9636960D01*
X3703586Y-9636960D02*
X3694063Y-9627436D01*
X3694063Y-9627436D02*
X3684539Y-9608389D01*
X3684539Y-9608389D02*
X3675015Y-9570293D01*
X3675015Y-9570293D02*
X3675015Y-9522674D01*
X3675015Y-9522674D02*
X3684539Y-9484579D01*
X3684539Y-9484579D02*
X3694063Y-9465531D01*
X3694063Y-9465531D02*
X3703586Y-9456008D01*
X3703586Y-9456008D02*
X3722634Y-9446484D01*
X3875015Y-9627436D02*
X3884539Y-9636960D01*
X3884539Y-9636960D02*
X3875015Y-9646484D01*
X3875015Y-9646484D02*
X3865491Y-9636960D01*
X3865491Y-9636960D02*
X3875015Y-9627436D01*
X3875015Y-9627436D02*
X3875015Y-9646484D01*
X4008348Y-9446484D02*
X4027396Y-9446484D01*
X4027396Y-9446484D02*
X4046444Y-9456008D01*
X4046444Y-9456008D02*
X4055967Y-9465531D01*
X4055967Y-9465531D02*
X4065491Y-9484579D01*
X4065491Y-9484579D02*
X4075015Y-9522674D01*
X4075015Y-9522674D02*
X4075015Y-9570293D01*
X4075015Y-9570293D02*
X4065491Y-9608389D01*
X4065491Y-9608389D02*
X4055967Y-9627436D01*
X4055967Y-9627436D02*
X4046444Y-9636960D01*
X4046444Y-9636960D02*
X4027396Y-9646484D01*
X4027396Y-9646484D02*
X4008348Y-9646484D01*
X4008348Y-9646484D02*
X3989301Y-9636960D01*
X3989301Y-9636960D02*
X3979777Y-9627436D01*
X3979777Y-9627436D02*
X3970253Y-9608389D01*
X3970253Y-9608389D02*
X3960729Y-9570293D01*
X3960729Y-9570293D02*
X3960729Y-9522674D01*
X3960729Y-9522674D02*
X3970253Y-9484579D01*
X3970253Y-9484579D02*
X3979777Y-9465531D01*
X3979777Y-9465531D02*
X3989301Y-9456008D01*
X3989301Y-9456008D02*
X4008348Y-9446484D01*
X4151206Y-9465531D02*
X4160729Y-9456008D01*
X4160729Y-9456008D02*
X4179777Y-9446484D01*
X4179777Y-9446484D02*
X4227396Y-9446484D01*
X4227396Y-9446484D02*
X4246444Y-9456008D01*
X4246444Y-9456008D02*
X4255968Y-9465531D01*
X4255968Y-9465531D02*
X4265491Y-9484579D01*
X4265491Y-9484579D02*
X4265491Y-9503627D01*
X4265491Y-9503627D02*
X4255968Y-9532198D01*
X4255968Y-9532198D02*
X4141682Y-9646484D01*
X4141682Y-9646484D02*
X4265491Y-9646484D01*
X4332158Y-9446484D02*
X4465491Y-9446484D01*
X4465491Y-9446484D02*
X4379777Y-9646484D01*
X4627396Y-9446484D02*
X4589301Y-9446484D01*
X4589301Y-9446484D02*
X4570253Y-9456008D01*
X4570253Y-9456008D02*
X4560729Y-9465531D01*
X4560729Y-9465531D02*
X4541682Y-9494103D01*
X4541682Y-9494103D02*
X4532158Y-9532198D01*
X4532158Y-9532198D02*
X4532158Y-9608389D01*
X4532158Y-9608389D02*
X4541682Y-9627436D01*
X4541682Y-9627436D02*
X4551206Y-9636960D01*
X4551206Y-9636960D02*
X4570253Y-9646484D01*
X4570253Y-9646484D02*
X4608349Y-9646484D01*
X4608349Y-9646484D02*
X4627396Y-9636960D01*
X4627396Y-9636960D02*
X4636920Y-9627436D01*
X4636920Y-9627436D02*
X4646444Y-9608389D01*
X4646444Y-9608389D02*
X4646444Y-9560770D01*
X4646444Y-9560770D02*
X4636920Y-9541722D01*
X4636920Y-9541722D02*
X4627396Y-9532198D01*
X4627396Y-9532198D02*
X4608349Y-9522674D01*
X4608349Y-9522674D02*
X4570253Y-9522674D01*
X4570253Y-9522674D02*
X4551206Y-9532198D01*
X4551206Y-9532198D02*
X4541682Y-9541722D01*
X4541682Y-9541722D02*
X4532158Y-9560770D01*
X4722634Y-9446484D02*
X4722634Y-9484579D01*
X4798825Y-9446484D02*
X4798825Y-9484579D01*
X5094063Y-9722674D02*
X5084539Y-9713150D01*
X5084539Y-9713150D02*
X5065491Y-9684579D01*
X5065491Y-9684579D02*
X5055968Y-9665531D01*
X5055968Y-9665531D02*
X5046444Y-9636960D01*
X5046444Y-9636960D02*
X5036920Y-9589341D01*
X5036920Y-9589341D02*
X5036920Y-9551246D01*
X5036920Y-9551246D02*
X5046444Y-9503627D01*
X5046444Y-9503627D02*
X5055968Y-9475055D01*
X5055968Y-9475055D02*
X5065491Y-9456008D01*
X5065491Y-9456008D02*
X5084539Y-9427436D01*
X5084539Y-9427436D02*
X5094063Y-9417912D01*
X5275015Y-9646484D02*
X5160730Y-9646484D01*
X5217872Y-9646484D02*
X5217872Y-9446484D01*
X5217872Y-9446484D02*
X5198825Y-9475055D01*
X5198825Y-9475055D02*
X5179777Y-9494103D01*
X5179777Y-9494103D02*
X5160730Y-9503627D01*
X5351206Y-9465531D02*
X5360730Y-9456008D01*
X5360730Y-9456008D02*
X5379777Y-9446484D01*
X5379777Y-9446484D02*
X5427396Y-9446484D01*
X5427396Y-9446484D02*
X5446444Y-9456008D01*
X5446444Y-9456008D02*
X5455968Y-9465531D01*
X5455968Y-9465531D02*
X5465491Y-9484579D01*
X5465491Y-9484579D02*
X5465491Y-9503627D01*
X5465491Y-9503627D02*
X5455968Y-9532198D01*
X5455968Y-9532198D02*
X5341682Y-9646484D01*
X5341682Y-9646484D02*
X5465491Y-9646484D01*
X5579777Y-9532198D02*
X5560730Y-9522674D01*
X5560730Y-9522674D02*
X5551206Y-9513150D01*
X5551206Y-9513150D02*
X5541682Y-9494103D01*
X5541682Y-9494103D02*
X5541682Y-9484579D01*
X5541682Y-9484579D02*
X5551206Y-9465531D01*
X5551206Y-9465531D02*
X5560730Y-9456008D01*
X5560730Y-9456008D02*
X5579777Y-9446484D01*
X5579777Y-9446484D02*
X5617872Y-9446484D01*
X5617872Y-9446484D02*
X5636920Y-9456008D01*
X5636920Y-9456008D02*
X5646444Y-9465531D01*
X5646444Y-9465531D02*
X5655968Y-9484579D01*
X5655968Y-9484579D02*
X5655968Y-9494103D01*
X5655968Y-9494103D02*
X5646444Y-9513150D01*
X5646444Y-9513150D02*
X5636920Y-9522674D01*
X5636920Y-9522674D02*
X5617872Y-9532198D01*
X5617872Y-9532198D02*
X5579777Y-9532198D01*
X5579777Y-9532198D02*
X5560730Y-9541722D01*
X5560730Y-9541722D02*
X5551206Y-9551246D01*
X5551206Y-9551246D02*
X5541682Y-9570293D01*
X5541682Y-9570293D02*
X5541682Y-9608389D01*
X5541682Y-9608389D02*
X5551206Y-9627436D01*
X5551206Y-9627436D02*
X5560730Y-9636960D01*
X5560730Y-9636960D02*
X5579777Y-9646484D01*
X5579777Y-9646484D02*
X5617872Y-9646484D01*
X5617872Y-9646484D02*
X5636920Y-9636960D01*
X5636920Y-9636960D02*
X5646444Y-9627436D01*
X5646444Y-9627436D02*
X5655968Y-9608389D01*
X5655968Y-9608389D02*
X5655968Y-9570293D01*
X5655968Y-9570293D02*
X5646444Y-9551246D01*
X5646444Y-9551246D02*
X5636920Y-9541722D01*
X5636920Y-9541722D02*
X5617872Y-9532198D01*
X5894063Y-9646484D02*
X5894063Y-9446484D01*
X5979777Y-9646484D02*
X5979777Y-9541722D01*
X5979777Y-9541722D02*
X5970253Y-9522674D01*
X5970253Y-9522674D02*
X5951206Y-9513150D01*
X5951206Y-9513150D02*
X5922634Y-9513150D01*
X5922634Y-9513150D02*
X5903587Y-9522674D01*
X5903587Y-9522674D02*
X5894063Y-9532198D01*
X6103587Y-9646484D02*
X6084539Y-9636960D01*
X6084539Y-9636960D02*
X6075015Y-9627436D01*
X6075015Y-9627436D02*
X6065491Y-9608389D01*
X6065491Y-9608389D02*
X6065491Y-9551246D01*
X6065491Y-9551246D02*
X6075015Y-9532198D01*
X6075015Y-9532198D02*
X6084539Y-9522674D01*
X6084539Y-9522674D02*
X6103587Y-9513150D01*
X6103587Y-9513150D02*
X6132158Y-9513150D01*
X6132158Y-9513150D02*
X6151206Y-9522674D01*
X6151206Y-9522674D02*
X6160730Y-9532198D01*
X6160730Y-9532198D02*
X6170253Y-9551246D01*
X6170253Y-9551246D02*
X6170253Y-9608389D01*
X6170253Y-9608389D02*
X6160730Y-9627436D01*
X6160730Y-9627436D02*
X6151206Y-9636960D01*
X6151206Y-9636960D02*
X6132158Y-9646484D01*
X6132158Y-9646484D02*
X6103587Y-9646484D01*
X6284539Y-9646484D02*
X6265491Y-9636960D01*
X6265491Y-9636960D02*
X6255968Y-9617912D01*
X6255968Y-9617912D02*
X6255968Y-9446484D01*
X6436920Y-9636960D02*
X6417872Y-9646484D01*
X6417872Y-9646484D02*
X6379777Y-9646484D01*
X6379777Y-9646484D02*
X6360730Y-9636960D01*
X6360730Y-9636960D02*
X6351206Y-9617912D01*
X6351206Y-9617912D02*
X6351206Y-9541722D01*
X6351206Y-9541722D02*
X6360730Y-9522674D01*
X6360730Y-9522674D02*
X6379777Y-9513150D01*
X6379777Y-9513150D02*
X6417872Y-9513150D01*
X6417872Y-9513150D02*
X6436920Y-9522674D01*
X6436920Y-9522674D02*
X6446444Y-9541722D01*
X6446444Y-9541722D02*
X6446444Y-9560770D01*
X6446444Y-9560770D02*
X6351206Y-9579817D01*
X6522634Y-9636960D02*
X6541682Y-9646484D01*
X6541682Y-9646484D02*
X6579777Y-9646484D01*
X6579777Y-9646484D02*
X6598825Y-9636960D01*
X6598825Y-9636960D02*
X6608349Y-9617912D01*
X6608349Y-9617912D02*
X6608349Y-9608389D01*
X6608349Y-9608389D02*
X6598825Y-9589341D01*
X6598825Y-9589341D02*
X6579777Y-9579817D01*
X6579777Y-9579817D02*
X6551206Y-9579817D01*
X6551206Y-9579817D02*
X6532158Y-9570293D01*
X6532158Y-9570293D02*
X6522634Y-9551246D01*
X6522634Y-9551246D02*
X6522634Y-9541722D01*
X6522634Y-9541722D02*
X6532158Y-9522674D01*
X6532158Y-9522674D02*
X6551206Y-9513150D01*
X6551206Y-9513150D02*
X6579777Y-9513150D01*
X6579777Y-9513150D02*
X6598825Y-9522674D01*
X6675015Y-9722674D02*
X6684539Y-9713150D01*
X6684539Y-9713150D02*
X6703587Y-9684579D01*
X6703587Y-9684579D02*
X6713111Y-9665531D01*
X6713111Y-9665531D02*
X6722634Y-9636960D01*
X6722634Y-9636960D02*
X6732158Y-9589341D01*
X6732158Y-9589341D02*
X6732158Y-9551246D01*
X6732158Y-9551246D02*
X6722634Y-9503627D01*
X6722634Y-9503627D02*
X6713111Y-9475055D01*
X6713111Y-9475055D02*
X6703587Y-9456008D01*
X6703587Y-9456008D02*
X6684539Y-9427436D01*
X6684539Y-9427436D02*
X6675015Y-9417912D01*
D10*
X1507284Y-9847285D02*
X1507284Y-9790716D01*
X1450715Y-9790716D01*
X1450715Y-9847285D01*
X1507284Y-9847285D01*
D11*
X1817872Y-9710484D02*
X1836920Y-9710484D01*
X1836920Y-9710484D02*
X1855967Y-9720008D01*
X1855967Y-9720008D02*
X1865491Y-9729531D01*
X1865491Y-9729531D02*
X1875015Y-9748579D01*
X1875015Y-9748579D02*
X1884539Y-9786674D01*
X1884539Y-9786674D02*
X1884539Y-9834293D01*
X1884539Y-9834293D02*
X1875015Y-9872389D01*
X1875015Y-9872389D02*
X1865491Y-9891436D01*
X1865491Y-9891436D02*
X1855967Y-9900960D01*
X1855967Y-9900960D02*
X1836920Y-9910484D01*
X1836920Y-9910484D02*
X1817872Y-9910484D01*
X1817872Y-9910484D02*
X1798824Y-9900960D01*
X1798824Y-9900960D02*
X1789301Y-9891436D01*
X1789301Y-9891436D02*
X1779777Y-9872389D01*
X1779777Y-9872389D02*
X1770253Y-9834293D01*
X1770253Y-9834293D02*
X1770253Y-9786674D01*
X1770253Y-9786674D02*
X1779777Y-9748579D01*
X1779777Y-9748579D02*
X1789301Y-9729531D01*
X1789301Y-9729531D02*
X1798824Y-9720008D01*
X1798824Y-9720008D02*
X1817872Y-9710484D01*
X1970253Y-9891436D02*
X1979777Y-9900960D01*
X1979777Y-9900960D02*
X1970253Y-9910484D01*
X1970253Y-9910484D02*
X1960729Y-9900960D01*
X1960729Y-9900960D02*
X1970253Y-9891436D01*
X1970253Y-9891436D02*
X1970253Y-9910484D01*
X2094062Y-9796198D02*
X2075015Y-9786674D01*
X2075015Y-9786674D02*
X2065491Y-9777150D01*
X2065491Y-9777150D02*
X2055967Y-9758103D01*
X2055967Y-9758103D02*
X2055967Y-9748579D01*
X2055967Y-9748579D02*
X2065491Y-9729531D01*
X2065491Y-9729531D02*
X2075015Y-9720008D01*
X2075015Y-9720008D02*
X2094062Y-9710484D01*
X2094062Y-9710484D02*
X2132158Y-9710484D01*
X2132158Y-9710484D02*
X2151205Y-9720008D01*
X2151205Y-9720008D02*
X2160729Y-9729531D01*
X2160729Y-9729531D02*
X2170253Y-9748579D01*
X2170253Y-9748579D02*
X2170253Y-9758103D01*
X2170253Y-9758103D02*
X2160729Y-9777150D01*
X2160729Y-9777150D02*
X2151205Y-9786674D01*
X2151205Y-9786674D02*
X2132158Y-9796198D01*
X2132158Y-9796198D02*
X2094062Y-9796198D01*
X2094062Y-9796198D02*
X2075015Y-9805722D01*
X2075015Y-9805722D02*
X2065491Y-9815246D01*
X2065491Y-9815246D02*
X2055967Y-9834293D01*
X2055967Y-9834293D02*
X2055967Y-9872389D01*
X2055967Y-9872389D02*
X2065491Y-9891436D01*
X2065491Y-9891436D02*
X2075015Y-9900960D01*
X2075015Y-9900960D02*
X2094062Y-9910484D01*
X2094062Y-9910484D02*
X2132158Y-9910484D01*
X2132158Y-9910484D02*
X2151205Y-9900960D01*
X2151205Y-9900960D02*
X2160729Y-9891436D01*
X2160729Y-9891436D02*
X2170253Y-9872389D01*
X2170253Y-9872389D02*
X2170253Y-9834293D01*
X2170253Y-9834293D02*
X2160729Y-9815246D01*
X2160729Y-9815246D02*
X2151205Y-9805722D01*
X2151205Y-9805722D02*
X2132158Y-9796198D01*
X2294063Y-9710484D02*
X2313110Y-9710484D01*
X2313110Y-9710484D02*
X2332158Y-9720008D01*
X2332158Y-9720008D02*
X2341682Y-9729531D01*
X2341682Y-9729531D02*
X2351205Y-9748579D01*
X2351205Y-9748579D02*
X2360729Y-9786674D01*
X2360729Y-9786674D02*
X2360729Y-9834293D01*
X2360729Y-9834293D02*
X2351205Y-9872389D01*
X2351205Y-9872389D02*
X2341682Y-9891436D01*
X2341682Y-9891436D02*
X2332158Y-9900960D01*
X2332158Y-9900960D02*
X2313110Y-9910484D01*
X2313110Y-9910484D02*
X2294063Y-9910484D01*
X2294063Y-9910484D02*
X2275015Y-9900960D01*
X2275015Y-9900960D02*
X2265491Y-9891436D01*
X2265491Y-9891436D02*
X2255967Y-9872389D01*
X2255967Y-9872389D02*
X2246444Y-9834293D01*
X2246444Y-9834293D02*
X2246444Y-9786674D01*
X2246444Y-9786674D02*
X2255967Y-9748579D01*
X2255967Y-9748579D02*
X2265491Y-9729531D01*
X2265491Y-9729531D02*
X2275015Y-9720008D01*
X2275015Y-9720008D02*
X2294063Y-9710484D01*
X2484539Y-9710484D02*
X2503586Y-9710484D01*
X2503586Y-9710484D02*
X2522634Y-9720008D01*
X2522634Y-9720008D02*
X2532158Y-9729531D01*
X2532158Y-9729531D02*
X2541682Y-9748579D01*
X2541682Y-9748579D02*
X2551205Y-9786674D01*
X2551205Y-9786674D02*
X2551205Y-9834293D01*
X2551205Y-9834293D02*
X2541682Y-9872389D01*
X2541682Y-9872389D02*
X2532158Y-9891436D01*
X2532158Y-9891436D02*
X2522634Y-9900960D01*
X2522634Y-9900960D02*
X2503586Y-9910484D01*
X2503586Y-9910484D02*
X2484539Y-9910484D01*
X2484539Y-9910484D02*
X2465491Y-9900960D01*
X2465491Y-9900960D02*
X2455967Y-9891436D01*
X2455967Y-9891436D02*
X2446444Y-9872389D01*
X2446444Y-9872389D02*
X2436920Y-9834293D01*
X2436920Y-9834293D02*
X2436920Y-9786674D01*
X2436920Y-9786674D02*
X2446444Y-9748579D01*
X2446444Y-9748579D02*
X2455967Y-9729531D01*
X2455967Y-9729531D02*
X2465491Y-9720008D01*
X2465491Y-9720008D02*
X2484539Y-9710484D01*
X2636920Y-9910484D02*
X2636920Y-9777150D01*
X2636920Y-9796198D02*
X2646444Y-9786674D01*
X2646444Y-9786674D02*
X2665491Y-9777150D01*
X2665491Y-9777150D02*
X2694063Y-9777150D01*
X2694063Y-9777150D02*
X2713110Y-9786674D01*
X2713110Y-9786674D02*
X2722634Y-9805722D01*
X2722634Y-9805722D02*
X2722634Y-9910484D01*
X2722634Y-9805722D02*
X2732158Y-9786674D01*
X2732158Y-9786674D02*
X2751205Y-9777150D01*
X2751205Y-9777150D02*
X2779777Y-9777150D01*
X2779777Y-9777150D02*
X2798824Y-9786674D01*
X2798824Y-9786674D02*
X2808348Y-9805722D01*
X2808348Y-9805722D02*
X2808348Y-9910484D01*
X2903586Y-9910484D02*
X2903586Y-9777150D01*
X2903586Y-9796198D02*
X2913110Y-9786674D01*
X2913110Y-9786674D02*
X2932158Y-9777150D01*
X2932158Y-9777150D02*
X2960729Y-9777150D01*
X2960729Y-9777150D02*
X2979777Y-9786674D01*
X2979777Y-9786674D02*
X2989301Y-9805722D01*
X2989301Y-9805722D02*
X2989301Y-9910484D01*
X2989301Y-9805722D02*
X2998824Y-9786674D01*
X2998824Y-9786674D02*
X3017872Y-9777150D01*
X3017872Y-9777150D02*
X3046443Y-9777150D01*
X3046443Y-9777150D02*
X3065491Y-9786674D01*
X3065491Y-9786674D02*
X3075015Y-9805722D01*
X3075015Y-9805722D02*
X3075015Y-9910484D01*
X3465491Y-9700960D02*
X3294063Y-9958103D01*
X3722634Y-9710484D02*
X3741682Y-9710484D01*
X3741682Y-9710484D02*
X3760729Y-9720008D01*
X3760729Y-9720008D02*
X3770253Y-9729531D01*
X3770253Y-9729531D02*
X3779777Y-9748579D01*
X3779777Y-9748579D02*
X3789301Y-9786674D01*
X3789301Y-9786674D02*
X3789301Y-9834293D01*
X3789301Y-9834293D02*
X3779777Y-9872389D01*
X3779777Y-9872389D02*
X3770253Y-9891436D01*
X3770253Y-9891436D02*
X3760729Y-9900960D01*
X3760729Y-9900960D02*
X3741682Y-9910484D01*
X3741682Y-9910484D02*
X3722634Y-9910484D01*
X3722634Y-9910484D02*
X3703586Y-9900960D01*
X3703586Y-9900960D02*
X3694063Y-9891436D01*
X3694063Y-9891436D02*
X3684539Y-9872389D01*
X3684539Y-9872389D02*
X3675015Y-9834293D01*
X3675015Y-9834293D02*
X3675015Y-9786674D01*
X3675015Y-9786674D02*
X3684539Y-9748579D01*
X3684539Y-9748579D02*
X3694063Y-9729531D01*
X3694063Y-9729531D02*
X3703586Y-9720008D01*
X3703586Y-9720008D02*
X3722634Y-9710484D01*
X3875015Y-9891436D02*
X3884539Y-9900960D01*
X3884539Y-9900960D02*
X3875015Y-9910484D01*
X3875015Y-9910484D02*
X3865491Y-9900960D01*
X3865491Y-9900960D02*
X3875015Y-9891436D01*
X3875015Y-9891436D02*
X3875015Y-9910484D01*
X4008348Y-9710484D02*
X4027396Y-9710484D01*
X4027396Y-9710484D02*
X4046444Y-9720008D01*
X4046444Y-9720008D02*
X4055967Y-9729531D01*
X4055967Y-9729531D02*
X4065491Y-9748579D01*
X4065491Y-9748579D02*
X4075015Y-9786674D01*
X4075015Y-9786674D02*
X4075015Y-9834293D01*
X4075015Y-9834293D02*
X4065491Y-9872389D01*
X4065491Y-9872389D02*
X4055967Y-9891436D01*
X4055967Y-9891436D02*
X4046444Y-9900960D01*
X4046444Y-9900960D02*
X4027396Y-9910484D01*
X4027396Y-9910484D02*
X4008348Y-9910484D01*
X4008348Y-9910484D02*
X3989301Y-9900960D01*
X3989301Y-9900960D02*
X3979777Y-9891436D01*
X3979777Y-9891436D02*
X3970253Y-9872389D01*
X3970253Y-9872389D02*
X3960729Y-9834293D01*
X3960729Y-9834293D02*
X3960729Y-9786674D01*
X3960729Y-9786674D02*
X3970253Y-9748579D01*
X3970253Y-9748579D02*
X3979777Y-9729531D01*
X3979777Y-9729531D02*
X3989301Y-9720008D01*
X3989301Y-9720008D02*
X4008348Y-9710484D01*
X4141682Y-9710484D02*
X4265491Y-9710484D01*
X4265491Y-9710484D02*
X4198825Y-9786674D01*
X4198825Y-9786674D02*
X4227396Y-9786674D01*
X4227396Y-9786674D02*
X4246444Y-9796198D01*
X4246444Y-9796198D02*
X4255968Y-9805722D01*
X4255968Y-9805722D02*
X4265491Y-9824770D01*
X4265491Y-9824770D02*
X4265491Y-9872389D01*
X4265491Y-9872389D02*
X4255968Y-9891436D01*
X4255968Y-9891436D02*
X4246444Y-9900960D01*
X4246444Y-9900960D02*
X4227396Y-9910484D01*
X4227396Y-9910484D02*
X4170253Y-9910484D01*
X4170253Y-9910484D02*
X4151206Y-9900960D01*
X4151206Y-9900960D02*
X4141682Y-9891436D01*
X4455968Y-9910484D02*
X4341682Y-9910484D01*
X4398825Y-9910484D02*
X4398825Y-9710484D01*
X4398825Y-9710484D02*
X4379777Y-9739055D01*
X4379777Y-9739055D02*
X4360729Y-9758103D01*
X4360729Y-9758103D02*
X4341682Y-9767627D01*
X4636920Y-9710484D02*
X4541682Y-9710484D01*
X4541682Y-9710484D02*
X4532158Y-9805722D01*
X4532158Y-9805722D02*
X4541682Y-9796198D01*
X4541682Y-9796198D02*
X4560729Y-9786674D01*
X4560729Y-9786674D02*
X4608349Y-9786674D01*
X4608349Y-9786674D02*
X4627396Y-9796198D01*
X4627396Y-9796198D02*
X4636920Y-9805722D01*
X4636920Y-9805722D02*
X4646444Y-9824770D01*
X4646444Y-9824770D02*
X4646444Y-9872389D01*
X4646444Y-9872389D02*
X4636920Y-9891436D01*
X4636920Y-9891436D02*
X4627396Y-9900960D01*
X4627396Y-9900960D02*
X4608349Y-9910484D01*
X4608349Y-9910484D02*
X4560729Y-9910484D01*
X4560729Y-9910484D02*
X4541682Y-9900960D01*
X4541682Y-9900960D02*
X4532158Y-9891436D01*
X4722634Y-9710484D02*
X4722634Y-9748579D01*
X4798825Y-9710484D02*
X4798825Y-9748579D01*
X5094063Y-9986674D02*
X5084539Y-9977150D01*
X5084539Y-9977150D02*
X5065491Y-9948579D01*
X5065491Y-9948579D02*
X5055968Y-9929531D01*
X5055968Y-9929531D02*
X5046444Y-9900960D01*
X5046444Y-9900960D02*
X5036920Y-9853341D01*
X5036920Y-9853341D02*
X5036920Y-9815246D01*
X5036920Y-9815246D02*
X5046444Y-9767627D01*
X5046444Y-9767627D02*
X5055968Y-9739055D01*
X5055968Y-9739055D02*
X5065491Y-9720008D01*
X5065491Y-9720008D02*
X5084539Y-9691436D01*
X5084539Y-9691436D02*
X5094063Y-9681912D01*
X5275015Y-9910484D02*
X5160730Y-9910484D01*
X5217872Y-9910484D02*
X5217872Y-9710484D01*
X5217872Y-9710484D02*
X5198825Y-9739055D01*
X5198825Y-9739055D02*
X5179777Y-9758103D01*
X5179777Y-9758103D02*
X5160730Y-9767627D01*
X5351206Y-9729531D02*
X5360730Y-9720008D01*
X5360730Y-9720008D02*
X5379777Y-9710484D01*
X5379777Y-9710484D02*
X5427396Y-9710484D01*
X5427396Y-9710484D02*
X5446444Y-9720008D01*
X5446444Y-9720008D02*
X5455968Y-9729531D01*
X5455968Y-9729531D02*
X5465491Y-9748579D01*
X5465491Y-9748579D02*
X5465491Y-9767627D01*
X5465491Y-9767627D02*
X5455968Y-9796198D01*
X5455968Y-9796198D02*
X5341682Y-9910484D01*
X5341682Y-9910484D02*
X5465491Y-9910484D01*
X5579777Y-9796198D02*
X5560730Y-9786674D01*
X5560730Y-9786674D02*
X5551206Y-9777150D01*
X5551206Y-9777150D02*
X5541682Y-9758103D01*
X5541682Y-9758103D02*
X5541682Y-9748579D01*
X5541682Y-9748579D02*
X5551206Y-9729531D01*
X5551206Y-9729531D02*
X5560730Y-9720008D01*
X5560730Y-9720008D02*
X5579777Y-9710484D01*
X5579777Y-9710484D02*
X5617872Y-9710484D01*
X5617872Y-9710484D02*
X5636920Y-9720008D01*
X5636920Y-9720008D02*
X5646444Y-9729531D01*
X5646444Y-9729531D02*
X5655968Y-9748579D01*
X5655968Y-9748579D02*
X5655968Y-9758103D01*
X5655968Y-9758103D02*
X5646444Y-9777150D01*
X5646444Y-9777150D02*
X5636920Y-9786674D01*
X5636920Y-9786674D02*
X5617872Y-9796198D01*
X5617872Y-9796198D02*
X5579777Y-9796198D01*
X5579777Y-9796198D02*
X5560730Y-9805722D01*
X5560730Y-9805722D02*
X5551206Y-9815246D01*
X5551206Y-9815246D02*
X5541682Y-9834293D01*
X5541682Y-9834293D02*
X5541682Y-9872389D01*
X5541682Y-9872389D02*
X5551206Y-9891436D01*
X5551206Y-9891436D02*
X5560730Y-9900960D01*
X5560730Y-9900960D02*
X5579777Y-9910484D01*
X5579777Y-9910484D02*
X5617872Y-9910484D01*
X5617872Y-9910484D02*
X5636920Y-9900960D01*
X5636920Y-9900960D02*
X5646444Y-9891436D01*
X5646444Y-9891436D02*
X5655968Y-9872389D01*
X5655968Y-9872389D02*
X5655968Y-9834293D01*
X5655968Y-9834293D02*
X5646444Y-9815246D01*
X5646444Y-9815246D02*
X5636920Y-9805722D01*
X5636920Y-9805722D02*
X5617872Y-9796198D01*
X5894063Y-9910484D02*
X5894063Y-9710484D01*
X5979777Y-9910484D02*
X5979777Y-9805722D01*
X5979777Y-9805722D02*
X5970253Y-9786674D01*
X5970253Y-9786674D02*
X5951206Y-9777150D01*
X5951206Y-9777150D02*
X5922634Y-9777150D01*
X5922634Y-9777150D02*
X5903587Y-9786674D01*
X5903587Y-9786674D02*
X5894063Y-9796198D01*
X6103587Y-9910484D02*
X6084539Y-9900960D01*
X6084539Y-9900960D02*
X6075015Y-9891436D01*
X6075015Y-9891436D02*
X6065491Y-9872389D01*
X6065491Y-9872389D02*
X6065491Y-9815246D01*
X6065491Y-9815246D02*
X6075015Y-9796198D01*
X6075015Y-9796198D02*
X6084539Y-9786674D01*
X6084539Y-9786674D02*
X6103587Y-9777150D01*
X6103587Y-9777150D02*
X6132158Y-9777150D01*
X6132158Y-9777150D02*
X6151206Y-9786674D01*
X6151206Y-9786674D02*
X6160730Y-9796198D01*
X6160730Y-9796198D02*
X6170253Y-9815246D01*
X6170253Y-9815246D02*
X6170253Y-9872389D01*
X6170253Y-9872389D02*
X6160730Y-9891436D01*
X6160730Y-9891436D02*
X6151206Y-9900960D01*
X6151206Y-9900960D02*
X6132158Y-9910484D01*
X6132158Y-9910484D02*
X6103587Y-9910484D01*
X6284539Y-9910484D02*
X6265491Y-9900960D01*
X6265491Y-9900960D02*
X6255968Y-9881912D01*
X6255968Y-9881912D02*
X6255968Y-9710484D01*
X6436920Y-9900960D02*
X6417872Y-9910484D01*
X6417872Y-9910484D02*
X6379777Y-9910484D01*
X6379777Y-9910484D02*
X6360730Y-9900960D01*
X6360730Y-9900960D02*
X6351206Y-9881912D01*
X6351206Y-9881912D02*
X6351206Y-9805722D01*
X6351206Y-9805722D02*
X6360730Y-9786674D01*
X6360730Y-9786674D02*
X6379777Y-9777150D01*
X6379777Y-9777150D02*
X6417872Y-9777150D01*
X6417872Y-9777150D02*
X6436920Y-9786674D01*
X6436920Y-9786674D02*
X6446444Y-9805722D01*
X6446444Y-9805722D02*
X6446444Y-9824770D01*
X6446444Y-9824770D02*
X6351206Y-9843817D01*
X6522634Y-9900960D02*
X6541682Y-9910484D01*
X6541682Y-9910484D02*
X6579777Y-9910484D01*
X6579777Y-9910484D02*
X6598825Y-9900960D01*
X6598825Y-9900960D02*
X6608349Y-9881912D01*
X6608349Y-9881912D02*
X6608349Y-9872389D01*
X6608349Y-9872389D02*
X6598825Y-9853341D01*
X6598825Y-9853341D02*
X6579777Y-9843817D01*
X6579777Y-9843817D02*
X6551206Y-9843817D01*
X6551206Y-9843817D02*
X6532158Y-9834293D01*
X6532158Y-9834293D02*
X6522634Y-9815246D01*
X6522634Y-9815246D02*
X6522634Y-9805722D01*
X6522634Y-9805722D02*
X6532158Y-9786674D01*
X6532158Y-9786674D02*
X6551206Y-9777150D01*
X6551206Y-9777150D02*
X6579777Y-9777150D01*
X6579777Y-9777150D02*
X6598825Y-9786674D01*
X6675015Y-9986674D02*
X6684539Y-9977150D01*
X6684539Y-9977150D02*
X6703587Y-9948579D01*
X6703587Y-9948579D02*
X6713111Y-9929531D01*
X6713111Y-9929531D02*
X6722634Y-9900960D01*
X6722634Y-9900960D02*
X6732158Y-9853341D01*
X6732158Y-9853341D02*
X6732158Y-9815246D01*
X6732158Y-9815246D02*
X6722634Y-9767627D01*
X6722634Y-9767627D02*
X6713111Y-9739055D01*
X6713111Y-9739055D02*
X6703587Y-9720008D01*
X6703587Y-9720008D02*
X6684539Y-9691436D01*
X6684539Y-9691436D02*
X6675015Y-9681912D01*
M02*
