# Blender v2.82 (sub 7) OBJ File: 'KSR28_Sniperrifle_Blender-2.8_Version.blend'
# www.blender.org
mtllib Sniper_Ammo.mtl
o Sniper_Ammo_Cube.007
v -0.552110 0.374826 -0.049931
v 0.490974 0.373968 -0.049931
v 0.552110 -0.061269 -0.049931
v -0.437573 -0.374826 -0.049931
v -0.004285 0.374397 -0.049931
v 0.454166 -0.226781 -0.049931
v -0.535461 0.373917 -0.049857
v -0.532581 0.251651 -0.031386
v -0.482979 -0.073002 -0.031386
v -0.539510 0.250592 -0.031386
v -0.489907 -0.074060 -0.031386
v -0.428846 -0.353553 -0.049857
v -0.423385 0.373917 -0.049857
v -0.308701 -0.335829 -0.049857
v -0.337189 0.373917 -0.049857
v -0.229556 -0.324154 -0.049857
v -0.225113 0.373917 -0.049857
v -0.109410 -0.306430 -0.049857
v -0.105407 0.373917 -0.049857
v 0.002532 -0.289916 -0.049857
v 0.006670 0.373917 -0.049857
v 0.124955 -0.271856 -0.049857
v 0.151509 0.373917 -0.049857
v 0.267394 -0.250843 -0.049857
v 0.263585 0.373917 -0.049857
v 0.378429 -0.234463 -0.049857
v 0.340007 0.373917 -0.049857
v 0.446622 -0.195774 -0.049857
v 0.452083 0.373917 -0.049857
v 0.536515 -0.043076 -0.049857
v -0.535461 0.373917 -0.072926
v -0.428846 -0.353553 -0.072926
v -0.423385 0.373917 -0.072926
v -0.308701 -0.335829 -0.072926
v -0.337189 0.373917 -0.072926
v -0.229556 -0.324154 -0.072926
v -0.225113 0.373917 -0.072926
v -0.109410 -0.306430 -0.072926
v -0.105407 0.373917 -0.072926
v 0.002532 -0.289916 -0.072926
v 0.006670 0.373917 -0.072926
v 0.124955 -0.271856 -0.072926
v 0.151509 0.373917 -0.072926
v 0.267394 -0.250843 -0.072926
v 0.263585 0.373917 -0.072926
v 0.378429 -0.234463 -0.072926
v 0.340007 0.373917 -0.072926
v 0.446622 -0.195774 -0.072926
v 0.452083 0.373917 -0.072926
v 0.536515 -0.043076 -0.072926
v -0.552110 0.374826 0.049931
v 0.490974 0.373968 0.049931
v 0.552110 -0.061269 0.049931
v -0.437573 -0.374826 0.049931
v -0.004285 0.374397 0.049931
v 0.454166 -0.226781 0.049931
v -0.535461 0.373917 0.049857
v -0.532581 0.251651 0.031386
v -0.482979 -0.073002 0.031386
v -0.539510 0.250592 0.031386
v -0.489907 -0.074060 0.031386
v -0.428846 -0.353553 0.049857
v -0.423385 0.373917 0.049857
v -0.308701 -0.335829 0.049857
v -0.337189 0.373917 0.049857
v -0.229556 -0.324154 0.049857
v -0.225113 0.373917 0.049857
v -0.109410 -0.306430 0.049857
v -0.105407 0.373917 0.049857
v 0.002532 -0.289916 0.049857
v 0.006670 0.373917 0.049857
v 0.124955 -0.271856 0.049857
v 0.151509 0.373917 0.049857
v 0.267394 -0.250843 0.049857
v 0.263585 0.373917 0.049857
v 0.378429 -0.234463 0.049857
v 0.340007 0.373917 0.049857
v 0.446622 -0.195774 0.049857
v 0.452083 0.373917 0.049857
v 0.536515 -0.043076 0.049857
v -0.535461 0.373917 0.072926
v -0.428846 -0.353553 0.072926
v -0.423385 0.373917 0.072926
v -0.308701 -0.335829 0.072926
v -0.337189 0.373917 0.072926
v -0.229556 -0.324154 0.072926
v -0.225113 0.373917 0.072926
v -0.109410 -0.306430 0.072926
v -0.105407 0.373917 0.072926
v 0.002532 -0.289916 0.072926
v 0.006670 0.373917 0.072926
v 0.124955 -0.271856 0.072926
v 0.151509 0.373917 0.072926
v 0.267394 -0.250843 0.072926
v 0.263585 0.373917 0.072926
v 0.378429 -0.234463 0.072926
v 0.340007 0.373917 0.072926
v 0.446622 -0.195774 0.072926
v 0.452083 0.373917 0.072926
v 0.536515 -0.043076 0.072926
v 0.490974 0.373968 0.000000
v -0.004285 0.374397 0.000000
v 0.454166 -0.226781 0.000000
v 0.552110 -0.061269 0.000000
v -0.552110 0.374826 0.000000
v -0.437573 -0.374826 0.000000
v 0.536515 -0.043076 -0.072926
v 0.452083 0.373917 -0.072926
v 0.446622 -0.195774 -0.072926
v 0.340007 0.373917 -0.072926
v 0.378429 -0.234463 -0.072926
v 0.263585 0.373917 -0.072926
v 0.267394 -0.250843 -0.072926
v 0.151509 0.373917 -0.072926
v 0.124955 -0.271856 -0.072926
v 0.006670 0.373917 -0.072926
v 0.002532 -0.289916 -0.072926
v -0.105407 0.373917 -0.072926
v -0.109410 -0.306430 -0.072926
v -0.225113 0.373917 -0.072926
v -0.229556 -0.324154 -0.072926
v -0.337189 0.373917 -0.072926
v -0.308701 -0.335829 -0.072926
v -0.423385 0.373917 -0.072926
v -0.428846 -0.353553 -0.072926
v -0.535461 0.373917 -0.072926
v 0.454166 -0.226781 -0.049931
v -0.004285 0.374397 -0.049931
v -0.437573 -0.374826 -0.049931
v 0.552110 -0.061269 -0.049931
v 0.490974 0.373968 -0.049931
v -0.552110 0.374826 -0.049931
v -0.552110 0.374826 0.049931
v 0.490974 0.373968 0.049931
v 0.552110 -0.061269 0.049931
v -0.437573 -0.374826 0.049931
v -0.004285 0.374397 0.049931
v 0.454166 -0.226781 0.049931
v -0.535461 0.373917 0.072926
v -0.428846 -0.353553 0.072926
v -0.423385 0.373917 0.072926
v -0.308701 -0.335829 0.072926
v -0.337189 0.373917 0.072926
v -0.229556 -0.324154 0.072926
v -0.225113 0.373917 0.072926
v -0.109410 -0.306430 0.072926
v -0.105407 0.373917 0.072926
v 0.002532 -0.289916 0.072926
v 0.006670 0.373917 0.072926
v 0.124955 -0.271856 0.072926
v 0.151509 0.373917 0.072926
v 0.267394 -0.250843 0.072926
v 0.263585 0.373917 0.072926
v 0.378429 -0.234463 0.072926
v 0.340007 0.373917 0.072926
v 0.446622 -0.195774 0.072926
v 0.452083 0.373917 0.072926
v 0.536515 -0.043076 0.072926
v -0.539510 0.250592 -0.031386
v -0.489907 -0.074060 -0.031386
v -0.539510 0.250592 0.031386
v -0.539510 0.250592 0.000000
v -0.489907 -0.074060 0.031386
v -0.489907 -0.074060 0.000000
v -0.532581 0.251651 -0.031386
v -0.482979 -0.073002 -0.031386
v -0.539510 0.250592 -0.031386
v -0.489907 -0.074060 -0.031386
v -0.532581 0.251651 0.031386
v -0.532581 0.251651 0.000000
v -0.482979 -0.073002 0.031386
v -0.482979 -0.073002 0.000000
v -0.539510 0.250592 0.031386
v -0.539510 0.250592 0.000000
v -0.489907 -0.074060 0.031386
v -0.489907 -0.074060 0.000000
vt 0.053858 0.235005
vt 0.053095 0.270758
vt 0.053095 0.235005
vt 0.205567 0.118603
vt 0.203357 0.187474
vt 0.203357 0.118603
vt 0.047596 0.188685
vt 0.045411 0.228987
vt 0.045411 0.188685
vt 0.016876 0.186314
vt 0.014720 0.249164
vt 0.014720 0.186314
vt 0.204894 0.107756
vt 0.215878 0.110017
vt 0.204894 0.110017
vt 0.205567 0.187474
vt 0.216571 0.189739
vt 0.205567 0.189739
vt 0.045970 0.187278
vt 0.058407 0.176198
vt 0.203755 0.200057
vt 0.201541 0.259484
vt 0.201541 0.200057
vt 0.218038 0.041621
vt 0.215878 0.107756
vt 0.215878 0.041621
vt 0.218732 0.118603
vt 0.216571 0.187474
vt 0.216571 0.118603
vt 0.047596 0.228987
vt 0.057973 0.233319
vt 0.047162 0.231212
vt 0.214240 0.197902
vt 0.214240 0.200057
vt 0.003637 0.186314
vt 0.001428 0.249164
vt 0.001428 0.186314
vt 0.060592 0.176198
vt 0.058407 0.231094
vt 0.203755 0.259484
vt 0.214240 0.261642
vt 0.203756 0.261642
vt 0.014720 0.184247
vt 0.204894 0.041621
vt 0.202683 0.107756
vt 0.202683 0.041621
vt 0.216398 0.200057
vt 0.214240 0.259484
vt 0.003637 0.249164
vt 0.014720 0.251445
vt 0.003637 0.251445
vt 0.215878 0.039534
vt 0.216571 0.116513
vt 0.886532 0.664875
vt 0.970679 0.657562
vt 0.887375 0.670360
vt 0.880981 0.603992
vt 0.886531 0.548950
vt 0.886530 0.603992
vt 0.934896 0.542115
vt 0.956122 0.548206
vt 0.953300 0.552984
vt 0.880983 0.664875
vt 0.975310 0.651164
vt 0.969836 0.652077
vt 0.885754 0.543455
vt 0.053095 0.270758
vt 0.053858 0.235005
vt 0.053095 0.235005
vt 0.203357 0.187474
vt 0.205567 0.118603
vt 0.203357 0.118603
vt 0.045411 0.228987
vt 0.047596 0.188685
vt 0.045411 0.188685
vt 0.014720 0.249164
vt 0.016876 0.186314
vt 0.014720 0.186314
vt 0.215878 0.110017
vt 0.204894 0.107756
vt 0.204894 0.110017
vt 0.216571 0.189739
vt 0.205567 0.187474
vt 0.205567 0.189739
vt 0.058407 0.176198
vt 0.045970 0.187278
vt 0.201541 0.259484
vt 0.203755 0.200057
vt 0.201541 0.200057
vt 0.215878 0.107756
vt 0.218038 0.041621
vt 0.215878 0.041621
vt 0.216571 0.187474
vt 0.218732 0.118603
vt 0.216571 0.118603
vt 0.057973 0.233319
vt 0.047596 0.228987
vt 0.047162 0.231212
vt 0.214240 0.197902
vt 0.203755 0.197902
vt 0.001428 0.249164
vt 0.003637 0.186314
vt 0.001428 0.186314
vt 0.058407 0.231094
vt 0.060592 0.176198
vt 0.214240 0.261642
vt 0.203755 0.259484
vt 0.203756 0.261642
vt 0.014720 0.184247
vt 0.003637 0.184247
vt 0.202683 0.107756
vt 0.204894 0.041621
vt 0.202683 0.041621
vt 0.214240 0.259484
vt 0.216398 0.200057
vt 0.214240 0.200057
vt 0.014720 0.251445
vt 0.003637 0.249164
vt 0.003637 0.251445
vt 0.215878 0.039534
vt 0.204894 0.039534
vt 0.216571 0.116513
vt 0.205567 0.116513
vt 0.886532 0.664875
vt 0.886531 0.548950
vt 0.886530 0.603992
vt 0.934896 0.542115
vt 0.953300 0.552984
vt 0.969836 0.652077
vt 0.053858 0.270758
vt 0.016876 0.249164
vt 0.056781 0.174791
vt 0.218038 0.107756
vt 0.218732 0.187474
vt 0.203755 0.197902
vt 0.060592 0.231094
vt 0.003637 0.184247
vt 0.216398 0.259484
vt 0.204894 0.039534
vt 0.205567 0.116513
vt 0.880981 0.548950
vt 0.937719 0.537337
vt 0.958774 0.552071
vt 0.934120 0.536620
vt 0.053858 0.270758
vt 0.016876 0.249164
vt 0.056781 0.174791
vt 0.218038 0.107756
vt 0.218732 0.187474
vt 0.060592 0.231094
vt 0.216398 0.259484
vt 0.014720 0.186314
vt 0.003637 0.249164
vt 0.003637 0.186314
vt 0.215878 0.041621
vt 0.204894 0.107756
vt 0.204894 0.041621
vt 0.216571 0.118603
vt 0.205567 0.187474
vt 0.205567 0.118603
vt 0.214240 0.200057
vt 0.203755 0.259484
vt 0.203755 0.200057
vt 0.058407 0.231094
vt 0.047596 0.188685
vt 0.058407 0.176198
vt 0.969836 0.652077
vt 0.886530 0.603992
vt 0.953300 0.552984
vt 0.886531 0.548950
vt 0.934896 0.542115
vt 0.014720 0.249164
vt 0.215878 0.107756
vt 0.216571 0.187474
vt 0.214240 0.259484
vt 0.047596 0.228987
vt 0.886532 0.664875
vt 0.014720 0.186314
vt 0.003637 0.249164
vt 0.014720 0.249164
vt 0.215878 0.041621
vt 0.204894 0.107756
vt 0.215878 0.107756
vt 0.216571 0.118603
vt 0.205567 0.187474
vt 0.216571 0.187474
vt 0.214240 0.200057
vt 0.203755 0.259484
vt 0.214240 0.259484
vt 0.047596 0.188685
vt 0.058407 0.231094
vt 0.058407 0.176198
vt 0.969836 0.652077
vt 0.886530 0.603992
vt 0.886532 0.664875
vt 0.953300 0.552984
vt 0.886531 0.548950
vt 0.003637 0.186314
vt 0.204894 0.041621
vt 0.205567 0.118603
vt 0.203755 0.200057
vt 0.047596 0.228987
vt 0.934896 0.542115
vt 0.053858 0.235005
vt 0.057206 0.270758
vt 0.053858 0.270758
vt 0.053858 0.235005
vt 0.053858 0.270758
vt 0.057206 0.235005
vt 0.053858 0.270758
vt 0.057206 0.271521
vt 0.053858 0.271521
vt 0.053858 0.234242
vt 0.057206 0.235005
vt 0.053858 0.235005
vt 0.053858 0.270758
vt 0.053858 0.271521
vt 0.053858 0.234242
vt 0.053858 0.235005
vt 0.057206 0.270758
vt 0.057206 0.234242
vn 0.0000 0.0000 -1.0000
vn 0.8068 -0.5908 0.0000
vn 0.6482 0.7614 0.0000
vn 0.9862 -0.1654 0.0000
vn 0.6330 0.7741 0.0000
vn -0.5904 -0.8071 0.0000
vn -0.7617 0.6479 0.0000
vn 0.6451 0.7641 0.0000
vn -0.7591 0.6510 0.0000
vn -0.7566 0.6538 0.0000
vn -0.1726 -0.9850 0.0000
vn 0.8145 -0.5801 0.0000
vn 0.6381 0.7699 0.0000
vn -0.5937 -0.8047 0.0000
vn -0.5967 -0.8024 0.0000
vn -0.7694 0.6388 0.0000
vn -0.5814 -0.8136 0.0000
vn 0.8130 -0.5823 0.0000
vn 0.6402 0.7682 0.0000
vn -0.7689 0.6394 0.0000
vn 0.8092 -0.5875 0.0000
vn -0.7584 0.6518 0.0000
vn -0.5870 -0.8096 0.0000
vn 0.0008 1.0000 0.0000
vn 0.6564 0.7544 0.0000
vn 0.9806 -0.1961 0.0000
vn 0.5650 -0.8250 0.0000
vn 0.0000 0.0000 1.0000
vn -0.9885 -0.1510 0.0000
vn -0.1510 0.9885 0.0000
vn 0.1510 -0.9885 0.0000
usemtl KSR29sniperrifle
s 1
f 11/1/1 8/2/1 9/3/1
f 34/4/2 13/5/3 14/6/2
f 50/7/4 29/8/5 30/9/4
f 20/10/6 39/11/7 40/12/6
f 37/13/8 15/14/9 17/15/8
f 33/16/3 7/17/10 13/18/3
f 30/19/4 48/20/11 50/7/4
f 46/21/12 25/22/13 26/23/12
f 16/24/14 35/25/9 36/26/14
f 12/27/15 31/28/10 32/29/15
f 49/30/5 27/31/16 29/32/5
f 46/21/12 24/33/17 44/34/17
f 42/35/18 21/36/19 22/37/18
f 28/38/11 47/39/16 48/20/11
f 45/40/13 23/41/20 25/42/13
f 42/35/18 20/43/6 40/12/6
f 38/44/21 17/45/8 18/46/21
f 24/47/17 43/48/20 44/34/17
f 41/49/19 19/50/7 21/51/19
f 38/44/21 16/52/14 36/26/14
f 34/4/2 12/53/15 32/29/15
f 1/54/22 106/55/23 105/56/22
f 102/57/24 2/58/25 5/59/24
f 3/60/26 103/61/27 6/62/27
f 105/63/22 5/59/24 1/54/22
f 6/62/27 106/64/23 4/65/23
f 101/66/25 3/60/26 2/58/25
f 58/67/28 61/68/28 59/69/28
f 63/70/3 84/71/2 64/72/2
f 79/73/5 100/74/4 80/75/4
f 89/76/7 70/77/6 90/78/6
f 65/79/9 87/80/8 67/81/8
f 57/82/10 83/83/3 63/84/3
f 98/85/11 80/86/4 100/74/4
f 75/87/13 96/88/12 76/89/12
f 85/90/9 66/91/14 86/92/14
f 81/93/10 62/94/15 82/95/15
f 77/96/16 99/97/5 79/98/5
f 96/88/12 74/99/17 76/100/12
f 71/101/19 92/102/18 72/103/18
f 97/104/16 78/105/11 98/85/11
f 73/106/20 95/107/13 75/108/13
f 92/102/18 70/109/6 72/110/18
f 67/111/8 88/112/21 68/113/21
f 93/114/20 74/115/17 94/116/17
f 69/117/7 91/118/19 71/119/19
f 88/112/21 66/120/14 68/121/21
f 84/71/2 62/122/15 64/123/2
f 106/55/23 51/124/22 105/56/22
f 52/125/25 102/57/24 55/126/24
f 103/61/27 53/127/26 56/128/27
f 55/126/24 105/63/22 51/124/22
f 106/64/23 56/128/27 54/129/23
f 53/127/26 101/66/25 52/125/25
f 11/1/1 10/130/1 8/2/1
f 34/4/2 33/16/3 13/5/3
f 50/7/4 49/30/5 29/8/5
f 20/10/6 19/131/7 39/11/7
f 37/13/8 35/25/9 15/14/9
f 33/16/3 31/28/10 7/17/10
f 30/19/4 28/132/11 48/20/11
f 46/21/12 45/40/13 25/22/13
f 16/24/14 15/133/9 35/25/9
f 12/27/15 7/134/10 31/28/10
f 49/30/5 47/39/16 27/31/16
f 46/21/12 26/135/12 24/33/17
f 42/35/18 41/49/19 21/36/19
f 28/38/11 27/136/16 47/39/16
f 45/40/13 43/48/20 23/41/20
f 42/35/18 22/137/18 20/43/6
f 38/44/21 37/13/8 17/45/8
f 24/47/17 23/138/20 43/48/20
f 41/49/19 39/11/7 19/50/7
f 38/44/21 18/139/21 16/52/14
f 34/4/2 14/140/2 12/53/15
f 1/54/22 4/65/23 106/55/23
f 102/57/24 101/141/25 2/58/25
f 3/60/26 104/142/26 103/61/27
f 105/63/22 102/57/24 5/59/24
f 6/62/27 103/143/27 106/64/23
f 101/66/25 104/144/26 3/60/26
f 58/67/28 60/145/28 61/68/28
f 63/70/3 83/83/3 84/71/2
f 79/73/5 99/97/5 100/74/4
f 89/76/7 69/146/7 70/77/6
f 65/79/9 85/90/9 87/80/8
f 57/82/10 81/93/10 83/83/3
f 98/85/11 78/147/11 80/86/4
f 75/87/13 95/107/13 96/88/12
f 85/90/9 65/148/9 66/91/14
f 81/93/10 57/149/10 62/94/15
f 77/96/16 97/104/16 99/97/5
f 96/88/12 94/116/17 74/99/17
f 71/101/19 91/118/19 92/102/18
f 97/104/16 77/150/16 78/105/11
f 73/106/20 93/114/20 95/107/13
f 92/102/18 90/78/6 70/109/6
f 67/111/8 87/80/8 88/112/21
f 93/114/20 73/151/20 74/115/17
f 69/117/7 89/76/7 91/118/19
f 88/112/21 86/92/14 66/120/14
f 84/71/2 82/95/15 62/122/15
f 106/55/23 54/129/23 51/124/22
f 52/125/25 101/141/25 102/57/24
f 103/61/27 104/142/26 53/127/26
f 55/126/24 102/57/24 105/63/22
f 106/64/23 103/143/27 56/128/27
f 53/127/26 104/144/26 101/66/25
f 117/152/1 116/153/1 115/154/1
f 121/155/1 120/156/1 119/157/1
f 125/158/1 124/159/1 123/160/1
f 113/161/1 112/162/1 111/163/1
f 110/164/1 107/165/1 109/166/1
f 129/167/1 128/168/1 127/169/1
f 127/169/1 131/170/1 130/171/1
f 117/152/1 118/172/1 116/153/1
f 121/155/1 122/173/1 120/156/1
f 125/158/1 126/174/1 124/159/1
f 113/161/1 114/175/1 112/162/1
f 110/164/1 108/176/1 107/165/1
f 129/167/1 132/177/1 128/168/1
f 127/169/1 128/168/1 131/170/1
f 148/178/28 149/179/28 147/180/28
f 144/181/28 145/182/28 143/183/28
f 140/184/28 141/185/28 139/186/28
f 152/187/28 153/188/28 151/189/28
f 158/190/28 155/191/28 156/192/28
f 136/193/28 137/194/28 133/195/28
f 138/196/28 134/197/28 137/194/28
f 148/178/28 150/198/28 149/179/28
f 144/181/28 146/199/28 145/182/28
f 140/184/28 142/200/28 141/185/28
f 152/187/28 154/201/28 153/188/28
f 158/190/28 157/202/28 155/191/28
f 136/193/28 138/196/28 137/194/28
f 138/196/28 135/203/28 134/197/28
f 160/204/29 162/205/29 159/206/29
f 162/205/29 163/207/29 161/208/29
f 160/204/29 164/209/29 162/205/29
f 162/205/29 164/209/29 163/207/29
f 167/210/30 170/211/30 165/212/30
f 166/213/31 176/214/31 168/215/31
f 170/211/30 173/216/30 169/217/30
f 176/214/31 171/218/31 175/219/31
f 167/210/30 174/220/30 170/211/30
f 166/213/31 172/221/31 176/214/31
f 170/211/30 174/220/30 173/216/30
f 176/214/31 172/221/31 171/218/31
