<svg width="65" height="64" viewBox="0 0 65 64" fill="none" xmlns="http://www.w3.org/2000/svg">
<path d="M18.7016 45.7333C17.9016 45.7333 17.3699 45.465 16.8366 44.93L6.17158 34.2033C5.10492 33.13 5.10492 31.5217 6.17158 30.4483L16.8366 19.7217C17.9016 18.6483 19.5016 18.6483 20.5682 19.7217C21.6349 20.795 21.6349 22.4033 20.5682 23.4767L11.7699 32.325L20.5682 41.175C21.6349 42.2483 21.6349 43.8567 20.5682 44.93C20.0349 45.465 19.5016 45.7333 18.7016 45.7333Z" fill="url(#paint0_linear_54_379)"/>
<path d="M45.3615 45.7333C44.5615 45.7333 44.0282 45.465 43.4948 44.93C42.4282 43.8567 42.4282 42.2483 43.4948 41.175L52.2932 32.325L43.4948 23.4767C42.4282 22.4033 42.4282 20.795 43.4948 19.7217C44.5615 18.6483 46.1615 18.6483 47.2282 19.7217L57.8915 30.4483C58.9582 31.5217 58.9582 33.13 57.8915 34.2033L47.2282 44.93C46.6948 45.465 46.1615 45.7333 45.3615 45.7333Z" fill="url(#paint1_linear_54_379)"/>
<mask id="mask0_54_379" style="mask-type:luminance" maskUnits="userSpaceOnUse" x="24" y="13" width="17" height="39">
<path d="M24.0034 13.2267H40.2168V51.0967H24.0034V13.2267Z" fill="white"/>
</mask>
<g mask="url(#mask0_54_379)">
<path d="M26.6999 51.0967C26.4332 51.0967 26.1665 51.0967 25.8999 50.83C24.5665 50.2933 23.7665 48.9517 24.2999 47.3433L34.9649 15.1633C35.4982 13.8217 36.8299 13.0167 38.4299 13.5533C39.7632 14.09 40.5632 15.4317 40.0299 17.04L29.3665 49.22C28.8332 50.2933 27.7665 51.0967 26.6999 51.0967Z" fill="url(#paint2_linear_54_379)"/>
</g>
<defs>
<linearGradient id="paint0_linear_54_379" x1="13.3699" y1="18.9167" x2="13.3699" y2="45.7333" gradientUnits="userSpaceOnUse">
<stop stop-color="#C068D6"/>
<stop offset="1" stop-color="#001FC0"/>
</linearGradient>
<linearGradient id="paint1_linear_54_379" x1="50.6932" y1="18.9167" x2="50.6932" y2="45.7333" gradientUnits="userSpaceOnUse">
<stop stop-color="#C068D6"/>
<stop offset="1" stop-color="#001FC0"/>
</linearGradient>
<linearGradient id="paint2_linear_54_379" x1="32.1649" y1="13.3852" x2="32.1649" y2="51.0967" gradientUnits="userSpaceOnUse">
<stop stop-color="#C068D6"/>
<stop offset="1" stop-color="#001FC0"/>
</linearGradient>
</defs>
</svg>
