<svg width="65" height="64" viewBox="0 0 65 64" fill="none" xmlns="http://www.w3.org/2000/svg">
<mask id="mask0_39_98" style="mask-type:luminance" maskUnits="userSpaceOnUse" x="8" y="5" width="48" height="21">
<path d="M8.64307 5.78333H55.5764V25.6H8.64307V5.78333Z" fill="white"/>
</mask>
<g mask="url(#mask0_39_98)">
<path d="M55.5299 15.5333L32.1332 5.78333L8.73486 15.5333L32.1332 25.28L55.5299 15.5333Z" fill="url(#paint0_linear_39_98)"/>
</g>
<mask id="mask1_39_98" style="mask-type:luminance" maskUnits="userSpaceOnUse" x="5" y="18" width="25" height="41">
<path d="M5.89307 18.7733H29.9764V58.2633H5.89307V18.7733Z" fill="white"/>
</mask>
<g mask="url(#mask1_39_98)">
<path d="M29.9464 58.2633V29.1083L5.89307 19.0833V48.2417L29.9464 58.2633Z" fill="url(#paint1_linear_39_98)"/>
</g>
<mask id="mask2_39_98" style="mask-type:luminance" maskUnits="userSpaceOnUse" x="34" y="18" width="25" height="41">
<path d="M34.2432 18.7733H58.3732V58.2633H34.2432V18.7733Z" fill="white"/>
</mask>
<g mask="url(#mask2_39_98)">
<path d="M34.3198 58.2633V29.1083L58.3732 19.0833V48.2417L34.3198 58.2633Z" fill="url(#paint2_linear_39_98)"/>
</g>
<defs>
<linearGradient id="paint0_linear_39_98" x1="32.1324" y1="5.78333" x2="32.1324" y2="25.28" gradientUnits="userSpaceOnUse">
<stop stop-color="#C068D6"/>
<stop offset="1" stop-color="#001FC0"/>
</linearGradient>
<linearGradient id="paint1_linear_39_98" x1="17.9197" y1="19.0833" x2="17.9197" y2="58.2633" gradientUnits="userSpaceOnUse">
<stop stop-color="#C068D6"/>
<stop offset="1" stop-color="#001FC0"/>
</linearGradient>
<linearGradient id="paint2_linear_39_98" x1="46.3465" y1="19.0833" x2="46.3465" y2="58.2633" gradientUnits="userSpaceOnUse">
<stop stop-color="#C068D6"/>
<stop offset="1" stop-color="#001FC0"/>
</linearGradient>
</defs>
</svg>
