<svg width="65" height="64" viewBox="0 0 65 64" fill="none" xmlns="http://www.w3.org/2000/svg">
<mask id="mask0_39_75" style="mask-type:luminance" maskUnits="userSpaceOnUse" x="6" y="8" width="47" height="47">
<path d="M6.50977 8.58334H52.9098V54.9833H6.50977V8.58334Z" fill="white"/>
</mask>
<g mask="url(#mask0_39_75)">
<path d="M45.7714 8.58334H13.6481C13.4148 8.58334 13.1814 8.59501 12.9481 8.61834C12.7164 8.64168 12.4848 8.67501 12.2564 8.72168C12.0264 8.76668 11.7998 8.82334 11.5764 8.89168C11.3531 8.96001 11.1331 9.03834 10.9181 9.12834C10.7014 9.21834 10.4914 9.31834 10.2848 9.42834C10.0781 9.53834 9.8781 9.65834 9.68477 9.78834C9.48977 9.91834 9.3031 10.0567 9.12143 10.205C8.94143 10.3533 8.7681 10.51 8.6031 10.6767C8.4381 10.8417 8.28143 11.015 8.1331 11.195C7.98477 11.375 7.84477 11.5633 7.71477 11.7567C7.58477 11.9517 7.46477 12.1517 7.35477 12.3583C7.24477 12.5633 7.14477 12.775 7.05477 12.99C6.96643 13.2067 6.88643 13.4267 6.81977 13.65C6.75143 13.8733 6.69477 14.1 6.6481 14.33C6.6031 14.5583 6.5681 14.79 6.54477 15.0217C6.52143 15.255 6.50977 15.4883 6.50977 15.7217V47.845C6.50977 48.0783 6.52143 48.3117 6.54477 48.5433C6.5681 48.7767 6.6031 49.0067 6.6481 49.2367C6.69477 49.465 6.75143 49.6917 6.81977 49.915C6.88643 50.14 6.96643 50.3583 7.05477 50.575C7.14477 50.79 7.24477 51.0017 7.35477 51.2083C7.46477 51.4133 7.58477 51.6133 7.71477 51.8083C7.84477 52.0033 7.98477 52.19 8.1331 52.3717C8.28143 52.5517 8.4381 52.725 8.6031 52.89C8.7681 53.055 8.94143 53.2117 9.12143 53.36C9.3031 53.5083 9.48977 53.6467 9.68477 53.7767C9.8781 53.9067 10.0781 54.0267 10.2848 54.1383C10.4914 54.2483 10.7014 54.3483 10.9181 54.4367C11.1331 54.5267 11.3531 54.605 11.5764 54.6733C11.7998 54.7417 12.0264 54.7983 12.2564 54.845C12.4848 54.89 12.7164 54.925 12.9481 54.9483C13.1814 54.9717 13.4148 54.9833 13.6481 54.9833H45.7714C46.0048 54.9833 46.2381 54.9717 46.4714 54.9483C46.7031 54.925 46.9348 54.89 47.1631 54.845C47.3931 54.7983 47.6198 54.7417 47.8431 54.6733C48.0664 54.605 48.2864 54.5267 48.5014 54.4367C48.7181 54.3483 48.9281 54.2483 49.1348 54.1383C49.3414 54.0267 49.5414 53.9067 49.7348 53.7767C49.9298 53.6467 50.1164 53.5083 50.2981 53.36C50.4781 53.2117 50.6514 53.055 50.8164 52.89C50.9814 52.725 51.1381 52.5517 51.2864 52.3717C51.4348 52.19 51.5748 52.0033 51.7048 51.8083C51.8348 51.6133 51.9548 51.4133 52.0648 51.2083C52.1748 51.0017 52.2748 50.79 52.3648 50.575C52.4531 50.3583 52.5331 50.14 52.5998 49.915C52.6681 49.6917 52.7248 49.465 52.7714 49.2367C52.8164 49.0067 52.8514 48.7767 52.8748 48.5433C52.8981 48.3117 52.9098 48.0783 52.9098 47.845V15.7217C52.9098 15.4883 52.8981 15.255 52.8748 15.0217C52.8514 14.79 52.8164 14.5583 52.7714 14.33C52.7248 14.1 52.6681 13.8733 52.5998 13.65C52.5331 13.4267 52.4531 13.2067 52.3648 12.99C52.2748 12.775 52.1748 12.5633 52.0648 12.3583C51.9548 12.1517 51.8348 11.9517 51.7048 11.7567C51.5748 11.5633 51.4348 11.375 51.2864 11.195C51.1381 11.015 50.9814 10.8417 50.8164 10.6767C50.6514 10.51 50.4781 10.3533 50.2981 10.205C50.1164 10.0567 49.9298 9.91834 49.7348 9.78834C49.5414 9.65834 49.3414 9.53834 49.1348 9.42834C48.9281 9.31834 48.7181 9.21834 48.5014 9.12834C48.2864 9.03834 48.0664 8.96001 47.8431 8.89168C47.6198 8.82334 47.3931 8.76668 47.1631 8.72168C46.9348 8.67501 46.7031 8.64168 46.4714 8.61834C46.2381 8.59501 46.0048 8.58334 45.7714 8.58334ZM45.7714 21.9667C45.7714 22.3783 45.7314 22.7833 45.6514 23.1867C45.5714 23.5883 45.4531 23.9783 45.2964 24.3583C45.1381 24.7367 44.9464 25.0967 44.7181 25.4383C44.4914 25.7783 44.2314 26.095 43.9414 26.385C43.6514 26.675 43.3364 26.9333 42.9948 27.1617C42.6548 27.3883 42.2948 27.5817 41.9148 27.7383C41.5364 27.895 41.1464 28.0133 40.7431 28.0933C40.3414 28.1733 39.9348 28.2133 39.5248 28.2133C39.1148 28.2133 38.7081 28.1733 38.3064 28.0933C37.9048 28.0133 37.5131 27.895 37.1348 27.7383C36.7564 27.5817 36.3964 27.3883 36.0548 27.1617C35.7148 26.9333 35.3981 26.675 35.1081 26.385C34.8181 26.095 34.5598 25.7783 34.3314 25.4383C34.1031 25.0967 33.9114 24.7367 33.7548 24.3583C33.5981 23.9783 33.4798 23.5883 33.3998 23.1867C33.3198 22.7833 33.2798 22.3783 33.2798 21.9667C33.2798 21.5567 33.3198 21.1517 33.3998 20.7483C33.4798 20.3467 33.5981 19.9567 33.7548 19.5767C33.9114 19.1983 34.1031 18.8383 34.3314 18.4967C34.5598 18.1567 34.8181 17.84 35.1081 17.55C35.3981 17.26 35.7148 17.0017 36.0548 16.7733C36.3964 16.5467 36.7564 16.3533 37.1348 16.1967C37.5131 16.04 37.9048 15.9217 38.3064 15.8417C38.7081 15.7617 39.1148 15.7217 39.5248 15.7217C39.9348 15.7217 40.3414 15.7617 40.7431 15.8433C41.1448 15.9233 41.5348 16.0417 41.9148 16.1983C42.2931 16.3567 42.6531 16.5483 42.9931 16.7767C43.3348 17.005 43.6498 17.2633 43.9398 17.5533C44.2298 17.8433 44.4881 18.1583 44.7164 18.4983C44.9448 18.84 45.1364 19.2 45.2931 19.5783C45.4514 19.9567 45.5698 20.3467 45.6498 20.75C45.7298 21.1517 45.7714 21.5583 45.7714 21.9667ZM49.3398 47.845C49.3398 48.0783 49.3164 48.31 49.2714 48.54C49.2248 48.77 49.1581 48.9933 49.0681 49.21C48.9781 49.4267 48.8681 49.6317 48.7381 49.8267C48.6081 50.0217 48.4598 50.2017 48.2948 50.3667C48.1281 50.5333 47.9481 50.68 47.7531 50.8117C47.5581 50.9417 47.3531 51.0517 47.1364 51.1417C46.9198 51.23 46.6964 51.2983 46.4681 51.345C46.2381 51.39 46.0048 51.4133 45.7714 51.4133H13.6481C13.4148 51.4133 13.1814 51.39 12.9514 51.345C12.7231 51.2983 12.4998 51.23 12.2831 51.1417C12.0664 51.0517 11.8614 50.9417 11.6664 50.8117C11.4714 50.68 11.2914 50.5333 11.1248 50.3667C10.9598 50.2017 10.8114 50.0217 10.6814 49.8267C10.5514 49.6317 10.4414 49.4267 10.3514 49.21C10.2614 48.9933 10.1948 48.77 10.1481 48.54C10.1031 48.31 10.0798 48.0783 10.0798 47.845V46.6217L17.7548 35.655C17.9181 35.4183 18.1064 35.205 18.3214 35.015C18.5364 34.825 18.7714 34.6633 19.0264 34.5317C19.2814 34.3983 19.5481 34.2983 19.8264 34.2317C20.1064 34.1633 20.3898 34.1317 20.6764 34.1333H20.7198C21.0098 34.135 21.2964 34.1717 21.5781 34.2433C21.8598 34.3167 22.1281 34.4217 22.3848 34.56C22.6398 34.6983 22.8748 34.8667 23.0881 35.0633C23.3031 35.26 23.4898 35.48 23.6481 35.7233L30.0098 45.265C30.1664 45.4983 30.3664 45.685 30.6114 45.825C30.8548 45.965 31.1181 46.0417 31.3998 46.0567C31.6798 46.0683 31.9481 46.0183 32.2064 45.905C32.4631 45.7933 32.6831 45.63 32.8648 45.4167L37.7331 39.5767C38.0681 39.1717 38.4748 38.8583 38.9498 38.6333C39.4248 38.4083 39.9248 38.295 40.4498 38.2917C40.9798 38.2683 41.4848 38.3667 41.9664 38.5867C42.4481 38.8067 42.8548 39.1233 43.1848 39.5367L49.3398 46.72V47.845Z" fill="url(#paint0_linear_39_75)"/>
</g>
<defs>
<linearGradient id="paint0_linear_39_75" x1="29.7098" y1="8.58334" x2="29.7098" y2="54.9833" gradientUnits="userSpaceOnUse">
<stop stop-color="#C068D6"/>
<stop offset="1" stop-color="#001FC0"/>
</linearGradient>
</defs>
</svg>
